<svg xmlns="http://www.w3.org/2000/svg" xmlns:xlink="http://www.w3.org/1999/xlink" viewBox="0 0 443.316 389.474"><defs><style>.a{fill:#1f1f2e;}.b,.c{opacity:0.35;}.b{fill:url(#a);}.c{fill:url(#b);}.d{fill:#363232;}.e{fill:#4e4e4e;}.f{fill:#c3a192;}.g{fill:#444;}.h{fill:#eecb92;}.i{fill:#edd6bf;}.j{fill:#4e6276;}.k{fill:#ededed;}.l{fill:#1a1a1a;}.m{fill:#695448;}.n{fill:#e6e6e5;}.o{fill:#a55448;}</style><linearGradient id="a" y1="-11.744" x2="1" y2="-11.744" gradientUnits="objectBoundingBox"><stop offset="0" stop-color="#010101"/><stop offset="1" stop-color="#010101"/></linearGradient><linearGradient id="b" x1="0" y1="-10.376" x2="1" y2="-10.376" xlink:href="#a"/></defs><g transform="translate(-875.387 -174.219)"><path class="a" d="M118.6,483.7l339.8-1s52.3,2.8,27.3,28.7c-28.6,29.7,39.9,6.9,53.4,28.3,6.3,10-6.1,33.7-34.9,31.9-28.7-1.8-87-9.7-62.3,11.8,10.8,9.5-69.1,11.1-78.1,11.1s-266.1,12.6-254-22.6c0,0-5.8-5.6,14.4-15s-4.2-11.2-13.5-16.1-11.2-10.1,5.6-22.1c14.9-10.6-14-16.6-14-16.6S83.8,483.7,118.6,483.7Z" transform="translate(778 -33)"/><path class="b" d="M270.8,553.5c6.1-.6,13.9-3,14-9.1.1-3.3-2.5-6.1-5.4-7.5-3-1.4-6.3-1.5-9.5-1.7-35.1-1.6-70.5-2.3-105.3,2.5-6.4.9-25.9,7.3-16.5,16.8,6,6.1,27,2.8,34.6,2.8Q226.8,557.6,270.8,553.5Z" transform="translate(778 -33)"/><path class="c" d="M476.2,553.2c3.2-.1,6.7-.4,9.1-2.6,2.9-2.6,3.1-7.3,1.2-10.8-1.8-3.4-5.3-5.7-8.8-7.4-8.7-4-18.6-4.5-28.2-4.7a386.418,386.418,0,0,0-41.7,1c-11.7,1.1-32,1.5-42,8.4-13,8.9,6.5,13,12.9,13.6,15.1,1.4,30.3,2.3,45.5,2.7C441.6,554,458.9,553.9,476.2,553.2Z" transform="translate(778 -33)"/><path class="d" d="M262.8,414c-.2,5.2-.6,10.4-1,15.5-.6,7.7-1.2,15.5-1.8,23.2-.2,2.5-.4,5.1-2,7.1-.2.2-.3.4-.6.5-.8.3-1.4-.7-1.7-1.5a92.664,92.664,0,0,0-13.9-27.3,19.549,19.549,0,0,0-5.5-5.6,21.312,21.312,0,0,0-5.5-2c-3.8-1-7.6-2-11.5-3-2.2-.6-4.6-1.2-6.3-2.7a13.531,13.531,0,0,1-3.1-4.4c-4.4-8.1-8.8-16.4-11-25.3a74.944,74.944,0,0,1-1.8-20.1,4.433,4.433,0,0,1,.3-2,4.378,4.378,0,0,1,1.8-2c2.9-1.9,6.6-2.1,10-2.2,13.1-.4,26.5-.6,39.4,2.6,4,1,10.7,2,12.6,6.2,2.3,5.2,1.5,13.2,1.7,18.7C263.2,397.7,263.2,405.8,262.8,414Z" transform="translate(778 -33)"/><path class="d" d="M188.1,532.1c-4.1.4-5.6-2.3-9-4.4,6-12.4,6.6-24.8,12.7-37.2,1.9-3.9,5.5-9.7,6.6-13.9,1.4-5.1,2.7-8.6,2.9-13.9l2.7-61.2a12.079,12.079,0,0,1,1-5c2.3-4.5,8.9-4.9,14.2-4.7a4.743,4.743,0,0,1,3.3.9c1,.8,1,2.2,1.1,3.4.2,16.1,10.4,1.1,10.6,17.2.1,5.7-5.7,42.7-7,48.3-2.3,9.8-8.8,21.1-14.6,29.6C203.7,504.2,196.9,516.6,188.1,532.1Z" transform="translate(778 -33)"/><path class="d" d="M236.1,404.7c7.4-.9,14.7-1.8,22.1-2.7.4-.9-1.5,0-1.3,1,3.5,30.7,1.7,61.9-1.6,92.7a190.078,190.078,0,0,0-.4,39.9c-3,.3-8.2.7-11.3,1-5.1-41.4-8.1-82.9-13.2-124.3-.3-2.1-.4-4.5,1.2-6C232.6,405.2,234.4,404.9,236.1,404.7Z" transform="translate(778 -33)"/><path class="e" d="M253.9,534.4h.5a2.186,2.186,0,0,1,.5.3,7.013,7.013,0,0,1,1.4,2.1,5.387,5.387,0,0,0,.8,2.1,6.36,6.36,0,0,0,2.7,1.5,40.157,40.157,0,0,0,8.5,1.8,10.79,10.79,0,0,1,1.9.3c1.7.6,2.1,2.1,2.3,3.4.1.4.1.8-.4,1a2.483,2.483,0,0,1-.9.1c-8.5-.1-12.1-.1-20.5-.2a31.779,31.779,0,0,1-6.2-.5,6.359,6.359,0,0,1-.7-.2c-.2-.1-.3-.4-.4-.6a20.129,20.129,0,0,1-.9-9.1c.1-.9.3-1.7,1.7-1.9,2.1-.3-.2-.1,2-.1C248.8,534.5,251.4,534.4,253.9,534.4Z" transform="translate(778 -33)"/><path class="e" d="M188.1,531.4a3.114,3.114,0,0,1,.9.7,1.4,1.4,0,0,1,.3.9c.3,1.7-.7,3.6-.2,5.3a6.078,6.078,0,0,0,2,2.8c1.4,1.3,2.8,2.6,4.3,3.8a4.644,4.644,0,0,1,1.6,1.8,2.187,2.187,0,0,1-2.3,2.7,3.506,3.506,0,0,1-1.4-.6c-6.2-3.6-12.3-7.5-18.1-11.6a3.178,3.178,0,0,1-1.6-2,2.836,2.836,0,0,1,.4-1.3,36.226,36.226,0,0,1,2.4-4.3c.5-.7.9-1.5,1.5-2.2.7-.9.7-1,1.7-.5C182.3,528.3,185.2,529.9,188.1,531.4Z" transform="translate(778 -33)"/><path class="f" d="M249.1,256.4a27.152,27.152,0,0,1-.5,4.9,13.963,13.963,0,0,1-6.8,9.1,13.154,13.154,0,0,1-11.3.4c-3.5-1.6-6.1-4.7-8.2-7.9-4.3-6.8-6.8-14.9-6.2-22.9a6.461,6.461,0,0,1,1-3.4c1.1-1.3,3-1.7,4.7-1.9,5.6-.7,21.2-5.5,25.8-1.8C252.1,236.6,249.3,251.4,249.1,256.4Z" transform="translate(778 -33)"/><path class="g" d="M242.4,273.4a16.918,16.918,0,0,1,5.5,0c4.7,1.1,6.6,5.7,7.7,9.6,4.3,16.5,5.5,33.4,6.8,50.2,1.1,14.9,2.2,34.6,3.3,49.4a3.39,3.39,0,0,1-.6,2.8,5.793,5.793,0,0,1-3.1,1.2c-18.6,3-43.7,4.5-62.6,4.4a6.128,6.128,0,0,1-2.7-.4,3.585,3.585,0,0,1-1.7-2.9c-1.9-9.1-1.8-18.5-1.5-27.7.6-19.2,8.1-43.2,10.4-62.4.8-6.2-.6-14,6.8-17.3C219.7,276.3,232.2,274.6,242.4,273.4Z" transform="translate(778 -33)"/><path class="h" d="M251.1,233.9a9.147,9.147,0,0,1-.9-1.7,22.536,22.536,0,0,1,0-2.6,5.368,5.368,0,0,0-2.1-3.4,14.682,14.682,0,0,0-11.4-3.2,4.782,4.782,0,0,1-2.9,0,4.054,4.054,0,0,0-.9-.5c-1-.6-2.3-.3-3.4-.1-3.2.7-6.5,1.4-9.7,2.1-2.1.4-4.3.9-5.8,2.4-2.2,2.1-2.3,5.5-2.3,8.6,0,3,0,6.4-2.1,8.6-.3.4-.8.7-.8,1.2s.4.9.7,1.3a5.1,5.1,0,0,1,1.1,3.1v.7a2.768,2.768,0,0,1-.1.9c.2.3.4.3.7.2l.9.6c2.5,1.4,4,4.6,6.8,5.2.1-1.8-.7-3.6-.8-5.5a24.768,24.768,0,0,1,.3-2.7,54.421,54.421,0,0,0,.9-8h-.1c1.6-3.2,4.9-2.9,8-4a16.621,16.621,0,0,1,2.9-1,11.562,11.562,0,0,1,3.2.1c2.4.3,4.7.6,7.1.9-1.1-.4.4-1.3.7-2.4,2.4-.1,3,.8,4.7,2.5,1,1,2.2,2.3,3.7,2.2a2.885,2.885,0,0,0,2.3-2.2A6.152,6.152,0,0,0,251.1,233.9Z" transform="translate(778 -33)"/><path class="i" d="M182.3,383.6a13.565,13.565,0,0,1-.6-2.9c-.4-2.5-.7-5.1-.9-7.7a1.344,1.344,0,0,1,.2-.9,1.268,1.268,0,0,1,.6-.1,18.031,18.031,0,0,1,3.9.8,4.36,4.36,0,0,1,2.5,1.7,7.762,7.762,0,0,1,.9,3.3,10.846,10.846,0,0,0,3,5.8,1,1,0,0,1-1.3.6,4.125,4.125,0,0,1-1.3-1c-.4,1.1.4,2.2.7,3.3a9.4,9.4,0,0,1,0,2.9,1.135,1.135,0,0,1-.3.8c-.5.5-1.3.1-1.9-.4C185.6,388.2,183.3,386.3,182.3,383.6Z" transform="translate(778 -33)"/><path class="g" d="M198.1,289.2c2-2.2,4.1-4.4,7-5.6a9.681,9.681,0,0,1,9.3.9,9.028,9.028,0,0,1,3.4,7.5,16.707,16.707,0,0,1-2.5,7.5c-5.5,9.9-14.2,17.9-19.2,28.1-7.3,15-5.8,33-6.7,50a1.844,1.844,0,0,1-.4,1.3,2.1,2.1,0,0,1-1.5.5c-2.1.2-4.1.4-6.2.6a282.738,282.738,0,0,1-6.4-29.5c-1.7-10.5-2.7-21.5,1.4-30.8a56.9,56.9,0,0,1,6.1-10A218.384,218.384,0,0,1,198.1,289.2Z" transform="translate(778 -33)"/><path class="i" d="M317,232.5a10.143,10.143,0,0,1-1,2.4c-1,2-2.1,4-3.2,5.9a.634.634,0,0,1-.6.5c-.2,0-.3-.2-.5-.3a17.325,17.325,0,0,1-2.2-3.1,4.789,4.789,0,0,1-.8-2.8,7.157,7.157,0,0,1,1-2.9,12.063,12.063,0,0,0,.9-6c.3-.3.9-.1,1.2.4a4.191,4.191,0,0,1,.4,1.5c.8-.5.8-1.8,1.2-2.8a7.183,7.183,0,0,1,1.4-2,1.755,1.755,0,0,1,.5-.4c.6-.1.9.8,1.1,1.5C317,227.2,317.6,230,317,232.5Z" transform="translate(778 -33)"/><path class="g" d="M250.4,299.5a14.5,14.5,0,0,1-7.4-.6c-2.5-1,4.3-15,3.6-18.2a8.82,8.82,0,0,1,1.5-7.4,12.271,12.271,0,0,1,5.4-3.6c8.6-3.3,18.3-3.2,26.7-7.1,12.3-5.7,20.2-19.3,29.2-30.5.3-.3.5-.6.9-.7a2.549,2.549,0,0,1,1.3.6c1.5,1.2,3,2.4,4.4,3.6-3.1,8.5-6.6,16.8-10.4,24.7-4.1,8.4-17.1,24.9-24.4,28.7-2.8,1.5-9.2,5.5-12.2,6.2C262,296.9,257.4,298.8,250.4,299.5Z" transform="translate(778 -33)"/><path class="j" d="M240.5,282.6c.5,1.4-.5,2.9-.5,4.5a5.932,5.932,0,0,0,.5,2.3c1.8,5.4,3.5,10.9,5.3,16.3a29.589,29.589,0,0,0,2.2,5.6,36.109,36.109,0,0,0,3.6,5.1c1.7,2.1,3.4,4.1,5,6.2a5.537,5.537,0,0,1,1.2,1.9,6.079,6.079,0,0,1,.1,1.9c-.2,2.8-.3,5.6-.5,8.4a14.254,14.254,0,0,0-5-1.8,11.433,11.433,0,0,1-3.2-.7c-3-1.4-3.3-5.4-3.7-8.7-1.4-11.2-8.9-21.5-7.9-32.7.1-1.4.2-3-.9-3.8C232.1,283.9,236.6,282,240.5,282.6Z" transform="translate(778 -33)"/><g transform="translate(778 -33)"><path class="i" d="M461,381.9a10.474,10.474,0,0,0-.5-3c-.6-2.6-1.3-5.2-2-7.8-.1-.3-.3-.7-.6-.8a.661.661,0,0,0-.6.1,13.82,13.82,0,0,0-3.4,1.8,4.561,4.561,0,0,0-1.8,2.3,7.175,7.175,0,0,0,.4,3.5,11.933,11.933,0,0,1-.6,6.5,1.1,1.1,0,0,0,1.5.3,2.379,2.379,0,0,0,.9-1.3c.8,1,.4,2.3.6,3.4a7.907,7.907,0,0,0,1.1,2.9,1.794,1.794,0,0,0,.5.7c.6.4,1.3-.3,1.7-.9C459.6,387.3,461.1,384.8,461,381.9Z"/><path class="k" d="M409.8,292.8c-2.8-1.7-5.7-3.3-8.9-3.7s-6.8.6-8.6,3.3c-1.6,2.4-1.5,5.6-.4,8.3a19.237,19.237,0,0,0,5.3,6.7c9.1,8.3,20.5,13.9,29.2,22.7,12.7,12.9,18.1,31.1,25.5,47.7a2.151,2.151,0,0,0,.9,1.2,2.459,2.459,0,0,0,1.7.1c2.1-.3,4.2-.7,6.2-1a263.74,263.74,0,0,0-5.1-30.8c-2.4-10.8-5.6-21.9-13.1-30.1a69,69,0,0,0-9.7-8.2A280.245,280.245,0,0,0,409.8,292.8Z"/><path class="e" d="M443.3,532.3a15.92,15.92,0,0,0,10-3.6c-6.4-11.2-12.7-22.4-19.1-33.6a70.149,70.149,0,0,1-5.4-11,66.157,66.157,0,0,1-3-14.7c-2.6-19.3-5.1-38.5-7.7-57.8a11.025,11.025,0,0,0-1.3-4.7c-2.4-4-8.2-3.8-12.8-3.1a4.105,4.105,0,0,0-2.8,1.1c-.8.9-.7,2.2-.6,3.4,1.2,15.3-2.7,1.8-1.5,17,.4,5.4,6.1,39.6,7.7,44.7,2.9,9.1,6.7,18.5,12.5,26C428.2,507.7,434.2,518.4,443.3,532.3Z"/><path class="e" d="M388.1,412.1c-6.5-.2-13-.3-19.5-.5-.4-.8,1.3-.1,1.3.8a426.316,426.316,0,0,0,7.9,88c2.4,12.5,5.4,25,5.5,37.7h8q1.35-59.7,2.7-119.3c0-2,0-4.3-1.6-5.6A7.888,7.888,0,0,0,388.1,412.1Z"/><path class="l" d="M385,544.2c-1.1.9.4,1.7,1.1,1.7a10.851,10.851,0,0,0,4-.3,4.178,4.178,0,0,0,1-.4,2.652,2.652,0,0,0,.5-.6,10.049,10.049,0,0,0,1.6-2.4,3.085,3.085,0,0,0-.5-1.8c-.6-1.2-1.6-2.4-1.6-3.8-2.9.3-5.6-.7-8,.1-.2,1-.9,1.8-.6,2.6-.2-.5-7.1,1.2-8,1.4a25.682,25.682,0,0,1-4,.6c-1,.1-3-.4-3.6.7a2.663,2.663,0,0,0-.3,1.2,3.4,3.4,0,0,0,.1,1,2.163,2.163,0,0,0,1.2,1.1C373.6,547.4,379.2,544.1,385,544.2Z"/><path class="l" d="M449.6,537.6c-.7,1.4,1.1,1.5,1.9,1.2a12.54,12.54,0,0,0,3.8-2,3.044,3.044,0,0,0,.8-.8,2.919,2.919,0,0,0,.2-.9c.1-.8.7-2.2.5-3-.1-.7-.8-1.1-1.3-1.5-1.1-.9-3.1-2.5-3.6-3.9-2.7,1.6-6.8,3.4-8.8,5.2,1.1.8,1.2,1.5,1.9,2.1-.5-.4-6.5,4.3-7.3,4.8-1.2.8-2.4,1.6-3.7,2.3-1,.5-3.2.9-3.3,2.2a5.066,5.066,0,0,0,.2,1.3,2.622,2.622,0,0,0,.5.9,2.452,2.452,0,0,0,1.6.6C439.7,545.8,443.9,540.1,449.6,537.6Z"/><path class="i" d="M407.5,261a4.191,4.191,0,0,0-.4-1.5c-1.9-5.2-3.9-10.4-5.8-15.7-1.4-3.7-3.1-7.8-6.6-9.6-4.8-2.4-10.3.5-15.4,2.2a163.083,163.083,0,0,1-.9,19.8c-.4,3.7-1,7.5-.5,11.2s2.1,7.5,5.3,9.5c5.3,3.4,12.6.7,17.2-3.7a27.419,27.419,0,0,0,6.9-10.8C407.3,262,407.5,261.5,407.5,261Z"/><path class="m" d="M399.8,258a3.637,3.637,0,0,1,2.8-2.9,2.813,2.813,0,0,1,3.3,2.1c.4,1.7-1,3.2-1.8,4.8-2.8,4.9-.6,11.1,1.6,16.3a32.807,32.807,0,0,1,8-9.4c2.6-2,5.7-3.9,6.3-7.1.3-1.7-.1-3.5.2-5.3.5-2.4,2.4-4.3,2.8-6.7.4-2.6-1.3-5.1-3-7.2a60.42,60.42,0,0,0-13.8-12.4c-1.5-1-3.1-2-3.6-3.7a10.892,10.892,0,0,0-.5-2.6c-.7-1.4-2.5-1.7-4.1-1.8-4.8-.4-9.7-.8-14.3.6a15.034,15.034,0,0,1-3.5.9c-2.4,0-4.4-1.8-6.8-2-2.7-.2-5.1,1.8-6.1,4.3a15.881,15.881,0,0,0-.9,7.8c1.6.7,3.2,1.4,4.9,2.1a7.274,7.274,0,0,0-.2,7.4,17.381,17.381,0,0,0,9.5-1.5c2-1,4.1-2.3,6.3-2,2.2.4,3.7,2.4,5.4,4,1.6,1.6,4.4,2.7,6,1.1A29.324,29.324,0,0,1,399.8,258Z"/><path class="n" d="M408.8,277.6a21.406,21.406,0,0,1,15.4,9.5c2.8,4.5,3.3,9.5,3.7,14.3.6,6.3,1.2,12.5,1.7,18.8,1.4,15,2.8,29.9,2.1,44.9-.3,6.8-1,13.6-1.7,20.4-1.5,14-2.9,28-4.4,42-19.5-1.3-38.9-2.6-58.4-3.8-2.3-.2-4.8-.3-6.7-1.3-3.4-1.8-3.2-5.2-2.6-8,6.7-35.6,12.1-71.3,15.3-107.2.4-5-.9-20,2.2-23.7C379,279,402.1,276.7,408.8,277.6Z"/><path class="o" d="M364.8,328.7c5.5-10.2,7.8-21.9,8.5-33.5.1-2.4.1-5.1-1.5-6.9-.2-.3-.5-.6-.5-.9,0-.2.2-.4.3-.6.6-.9,1.3-1.8,1.9-2.6,1.2.5,2.4.9,3.5,1.4.5,1.5-.8,3-1.2,4.6a9.737,9.737,0,0,0-.2,2.4c0,6.8,1.1,14.3.2,21s-1.3,13.2-4.5,19.1a42.592,42.592,0,0,1-6.5,8.8,4.811,4.811,0,0,1-1.1.9c-1.3.8-5.7-.2-7.1.5a17.548,17.548,0,0,1,.5-4.6c.4-1.1,1.4-1.5,2.3-2.2A26.987,26.987,0,0,0,364.8,328.7Z"/><path class="i" d="M312.2,234.8a13.9,13.9,0,0,0,1.2,2.8c1.2,2.4,2.5,4.7,3.9,7a1.387,1.387,0,0,0,.8.7,1.421,1.421,0,0,0,.6-.2,12.015,12.015,0,0,0,2.9-2.6,4.74,4.74,0,0,0,1.2-2.7,8.246,8.246,0,0,0-1.2-3.3,11.332,11.332,0,0,1-1-6.5,1.093,1.093,0,0,0-1.5.1,2.1,2.1,0,0,0-.5,1.5c-1-.7-1-2.1-1.4-3.2a10.53,10.53,0,0,0-1.8-2.5,1.794,1.794,0,0,0-.7-.5c-.7-.2-1.2.6-1.4,1.3C312.2,229.2,311.4,232,312.2,234.8Z"/><path class="k" d="M385.4,312c3.1.9,6.3,1.8,9.5,1.4s5.2-6.1,6.2-9.1c1-2.7.1-5.8-1.7-8.1a20.257,20.257,0,0,0-6.8-5.2c-10.9-5.8-23.4-8.3-34-14.7C343,267,333.3,250.7,322,236.5a1.808,1.808,0,0,0-2.7-.6c-1.9.8-3.9,1.7-5.8,2.5A302.671,302.671,0,0,0,326.1,267c5,9.9,10.9,19.8,20.2,25.8,3.6,2.3,11.6,8.2,15.5,9.8C370.5,306.1,376.4,309.3,385.4,312Z"/></g><path class="k" d="M300.6,219.1a37.129,37.129,0,0,0-7.2-5.9c-.4-.3-.8.4-.4.7a55.985,55.985,0,0,1,6.6,6.3C300.2,220.8,301.2,219.8,300.6,219.1Z" transform="translate(778 -33)"/><path class="k" d="M307.2,208.2a.413.413,0,0,0-.8.2c.6,2.7.7,5.4,1.1,8.2.1.9,1.5,1,1.5,0A22.224,22.224,0,0,0,307.2,208.2Z" transform="translate(778 -33)"/><path class="k" d="M318.9,207.4c-.7,3.2-1.2,6.5-2,9.8a.816.816,0,1,0,1.6.2c.2-3.3.7-6.6.9-9.9C319.5,207.2,319,207.1,318.9,207.4Z" transform="translate(778 -33)"/><path class="k" d="M330.6,213.3a26.234,26.234,0,0,0-4.8,8c-.5,1.3,1.4,2,1.7.7a22.76,22.76,0,0,1,3.8-8.2C331.5,213.4,330.9,213,330.6,213.3Z" transform="translate(778 -33)"/></g></svg>