<svg xmlns="http://www.w3.org/2000/svg" viewBox="0 0 183.561 79.395">
  <defs>
    <style>
      .cls-1 {
        fill: none;
        stroke: #e34b26;
      }

      .cls-2 {
        fill: #fff;
      }
    </style>
  </defs>
  <g id="Group_4163" data-name="Group 4163" transform="translate(-734.832 -636.141)">
    <line id="Line_58" data-name="Line 58" class="cls-1" x1="118.45" y2="29.924" transform="translate(734.955 665.442)"/>
    <line id="Line_59" data-name="Line 59" class="cls-1" x1="117.203" y1="21.196" transform="translate(734.955 662.948)"/>
    <path id="Path_9843" data-name="Path 9843" class="cls-2" d="M32.822,26.13c1.394,1.549,2.478,2.943,3.717,4.182,2.323,2.633,4.647,5.266,7.125,7.9a2.617,2.617,0,0,0,1.549.465c1.394-.31,2.633-.929,4.027-1.239a6.962,6.962,0,0,1,3.1,0c2.478.774,3.1,3.1,1.084,4.956C48.93,46.575,44.438,50.6,40.1,54.629a1.61,1.61,0,0,1-2.478,0c-3.408-2.788-2.478-3.1-.929-6.97,1.084-2.943,1.239-2.943-.929-4.956-3.253-3.1-6.66-6.041-9.913-9.138a14.234,14.234,0,0,0-4.8,5.266l-8.364,14.4c-1.549,2.633-2.323,2.788-4.8.929C5.1,52,4.787,51.377,5.871,47.969c2.323-8.054,4.647-16.263,6.97-24.317a5.055,5.055,0,0,0-1.394-5.421A102.685,102.685,0,0,1,3.393,9.867a19.728,19.728,0,0,1-3.1-5.576A2.866,2.866,0,0,1,.915.883,2.837,2.837,0,0,1,4.477.419a27.408,27.408,0,0,1,6.2,3.717,110.519,110.519,0,0,1,8.519,8.519,3.711,3.711,0,0,0,3.872,1.239c8.829-2.014,17.657-3.872,26.331-5.731,3.408-.774,5.576.31,6.97,3.253.929,1.7.62,2.633-1.239,3.562-4.182,2.014-8.364,3.872-12.391,5.886C39.327,22.413,36.229,24.271,32.822,26.13Z" transform="translate(918.393 675.321) rotate(135)"/>
  </g>
</svg>
