<svg xmlns="http://www.w3.org/2000/svg" viewBox="0 0 89.94 90">
  <defs>
    <style>
      .cls-1 {
        fill: #ececff;
      }

      .cls-2 {
        fill: #33335d;
      }

      .cls-3 {
        fill: #a6a6a8;
      }
    </style>
  </defs>
  <g id="Group_3149" data-name="Group 3149" transform="translate(-1013 -2312)">
    <path id="Path_9241" data-name="Path 9241" class="cls-1" d="M248.4,0V90a45,45,0,1,0,0-90Z" transform="translate(809.368 2312)"/>
    <path id="Path_9242" data-name="Path 9242" class="cls-2" d="M44.667,90a42.1,42.1,0,0,1-17.805-3.965C13,79.62,4.317,68.951,1.073,54.335a41.648,41.648,0,0,1-.991-12.02A46.291,46.291,0,0,1,3.938,26.636,44.934,44.934,0,0,1,18.662,8.578,43.672,43.672,0,0,1,38.36.523,49.458,49.458,0,0,1,45.37,0,42.221,42.221,0,0,1,62.905,3.748a48.1,48.1,0,0,1,8.4,4.776c.721.523.757.775.739,1.027a.586.586,0,0,1-.613.595,1.163,1.163,0,0,1-.649-.216c-.342-.216-.685-.469-1.045-.721-.378-.27-.775-.559-1.189-.811A40.452,40.452,0,0,0,52.921,2.343c-1.406-.216-2.793-.378-4.271-.541-.667-.072-1.37-.144-2.072-.234L45.37,1.424V32.871a4.919,4.919,0,0,1-.09,1.1c-.036.126-.054.27-.451.306h-.09c-.324,0-.342-.09-.36-.162a6.043,6.043,0,0,1-.2-1.658c-.018-1.406,0-2.938.036-4.65a2.12,2.12,0,0,0-2.054-2.433c-3.839-.469-7.731-1.027-11.516-1.568L29.8,23.68a4.119,4.119,0,0,0-.451-.036A1.887,1.887,0,0,0,27.4,25.392c-.126.757-.288,1.532-.433,2.289-.288,1.5-.595,3.028-.775,4.577-.27,2.307-.433,4.65-.595,6.9-.072.9-.126,1.82-.2,2.721-.018.252-.018.469-.018.721v1.442h8.11a1.388,1.388,0,0,1,.991.27.881.881,0,0,1,.18.631c0,.378-.018.847-1.135.847H25.258l.054,1.135c.036.559.054,1.117.072,1.676.054,1.243.09,2.4.234,3.6.342,2.992.829,6.92,1.442,10.9.234,1.568.469,3.046,2.325,3.046a9.975,9.975,0,0,0,1.55-.18l.144-.018c2.505-.378,5.064-.739,7.533-1.063,1.189-.162,2.379-.324,3.586-.487.252-.036.487-.09.739-.126.108-.018.234-.054.378-.072l.883-.162v-7.01a6.055,6.055,0,0,1,.108-1.135c.036-.216.09-.252.306-.252h.072c.559.036.595.2.613.36a6.433,6.433,0,0,1,.054.991v31.3l1.117-.036A41.884,41.884,0,0,0,79.611,71.33c11.3-14.634,10.254-31.9,5.515-43.18l-.414-.973-.973.378c-.216.09-.414.162-.631.252-.414.162-.811.324-1.189.451a3.436,3.436,0,0,1-.378.09,1.514,1.514,0,0,1,0-.414c.072-.847.2-1.676.306-2.541.054-.414.108-.847.162-1.262.162-1.171.306-2.4.541-3.55.018-.072.036-.144.054-.2.036.018.072.054.126.09,2.379,1.658,4.271,3.082,5.965,4.469a1.747,1.747,0,0,1,.324.324,2.43,2.43,0,0,1-.577.342c-1.982.9-2.217,1.5-1.388,3.568l.018.036A40.467,40.467,0,0,1,89.92,43.919,44.1,44.1,0,0,1,80.6,72.393,44.192,44.192,0,0,1,52.38,89.369,50.97,50.97,0,0,1,44.667,90Zm-1.64-24a60.3,60.3,0,0,0-13.39,1.838l-1.063.252.27,1.063a36.275,36.275,0,0,0,8.092,15.3A13.938,13.938,0,0,0,42.667,88.2l1.46.559V66ZM25.871,68.951a1.988,1.988,0,0,0-.919.234c-.451.216-.919.4-1.424.595-.252.108-.5.2-.757.306-2.054.847-4.091,1.676-6.217,2.559L13.021,74.1l.919,1.135c.108.126.2.252.288.36a4.148,4.148,0,0,0,.649.739c.414.36.847.721,1.243,1.081a43.21,43.21,0,0,0,3.55,2.865,43.9,43.9,0,0,0,11.768,6.181,19.787,19.787,0,0,0,1.928.451l.811.162.829.18.757-1.568-.342-.523a2.668,2.668,0,0,1-.144-.234,5.77,5.77,0,0,0-.469-.667,36.8,36.8,0,0,1-6.542-12.056c-.27-.739-.559-1.46-.811-2.054A1.681,1.681,0,0,0,25.871,68.951ZM1.433,47.091c.072.5.126,1.027.18,1.532.126,1.063.27,2.181.433,3.262a43.21,43.21,0,0,0,8.236,19.391c.541.7,1.081,1.442,2.109,1.442h0a4.393,4.393,0,0,0,1.658-.469c3.532-1.532,7.01-3.028,10.38-4.451l.054-.018c1.586-.667,1.964-1.1,1.658-2.847L26.1,64.7c-.757-4.415-1.37-8.416-1.91-12.2-.18-1.243-.252-2.469-.342-3.785-.036-.595-.072-1.207-.126-1.82l-.072-.991H1.271ZM12.427,17.229a2.763,2.763,0,0,0-2.163,1.5A46.518,46.518,0,0,0,2.443,35.539a27.7,27.7,0,0,0-.829,7.623l.036.865.847.162c.054.018.108.018.144.036a2.328,2.328,0,0,0,.414.054H8.786c4.307,0,8.777,0,13.156.018a1.929,1.929,0,0,0,1.478-.559,2.234,2.234,0,0,0,.559-1.64,84.037,84.037,0,0,1,1.982-16.706c.414-2.072.126-2.613-1.73-3.352l-.216-.09c-3.352-1.352-6.668-2.757-9.876-4.181A3.878,3.878,0,0,0,12.427,17.229ZM42.595,1.784c-.252.108-.523.216-.775.306A5.645,5.645,0,0,0,40,3.028a41.571,41.571,0,0,0-4.451,4.145C32.539,10.6,30.917,14.76,29.367,18.8l-.126.342a9.727,9.727,0,0,0-.324,1.027,4.971,4.971,0,0,1-.144.487L28.448,21.7,29.493,22a42.742,42.742,0,0,0,8.975,1.334c1.46.108,2.956.234,4.415.414l1.225.162V1.1ZM34.251,2.865A43.859,43.859,0,0,0,13.9,14.543l-1.1,1.1,1.406.649c.595.27,1.153.541,1.694.793,1.171.559,2.289,1.081,3.424,1.568,1.153.487,2.343.919,3.478,1.352.7.27,1.442.541,2.163.811a2.257,2.257,0,0,0,.865.18h0a1.8,1.8,0,0,0,1.73-1.352c.108-.288.216-.595.342-.9.126-.342.27-.685.4-1.045a40.431,40.431,0,0,1,6.9-12.615,1.493,1.493,0,0,0,.288-.595c.018-.054.036-.126.072-.216l.7-1.928Z" transform="translate(1013.01 2312)"/>
    <g id="Group_2989" data-name="Group 2989">
      <path id="Path_9243" data-name="Path 9243" class="cls-3" d="M221.053,228.892a5.044,5.044,0,0,1-.9-10,6.558,6.558,0,0,1,1.009-.09,5.1,5.1,0,0,1,3.226,1.153,4.755,4.755,0,0,0,2.775,1.027h.234c3.586-.252,7.227-.613,10.615-.955,1.171-.126,2.343-.27,3.478-.415.973-.126,1.982-.252,2.956-.36h.126a3.767,3.767,0,0,1,.685.09c.2.054.288.108.342.288a.627.627,0,0,1-.2.126,22.314,22.314,0,0,1-2.181.631c-.36.09-.757.2-1.135.306l-3.01.847c-3.37.937-6.866,1.91-10.29,2.883a6.628,6.628,0,0,0-3.821,2.757,4.408,4.408,0,0,1-3.911,1.712Z" transform="translate(835.904 2132.631)"/>
      <path id="Path_9244" data-name="Path 9244" class="cls-3" d="M316.751,409.309c-.667-1.28-1.262-2.631-1.82-3.965-.216-.487-.415-.973-.631-1.442a.642.642,0,0,1,.469-.649.889.889,0,0,1,.27-.054.234.234,0,0,1,.234.144c.847,1.73,1.64,3.55,2.433,5.551.018.036.054.144-.162.216a2.323,2.323,0,0,1-.757.2Z" transform="translate(755.344 1981.463)"/>
      <path id="Path_9245" data-name="Path 9245" class="cls-3" d="M393.855,342.845a.4.4,0,0,1-.234-.072c-1.424-.811-2.9-1.748-4.505-2.883a1.328,1.328,0,0,1-.36-.721.292.292,0,0,1,.054-.27.765.765,0,0,1,.541-.2.5.5,0,0,1,.162.018h.09c.234.144.487.306.739.451,1.28.811,2.613,1.64,3.839,2.541a1.6,1.6,0,0,1,.108.7C394.215,342.683,394.071,342.845,393.855,342.845Z" transform="translate(694.315 2034.339)"/>
      <path id="Path_9246" data-name="Path 9246" class="cls-3" d="M391.136,132.317c-.09,0-.234-.108-.36-.288-.288-.4-.18-.595-.036-.793a2.335,2.335,0,0,1,.487-.523l.577-.4c1.063-.721,2.163-1.46,3.28-2.09a.99.99,0,0,1,.414-.126.683.683,0,0,1,.685.613c0,.018-.018.018-.018.036a2.275,2.275,0,0,1-.252.469c-1.5,1.081-3.046,2.109-4.632,3.046A.344.344,0,0,1,391.136,132.317Z" transform="translate(692.799 2206.986)"/>
      <path id="Path_9247" data-name="Path 9247" class="cls-3" d="M315.377,60.191a.93.93,0,0,1-.2-.036c-.162-.054-.378-.4-.378-.955v-.108l.36-.811c.559-1.262,1.153-2.577,1.766-3.839.162-.342.27-.342.324-.342a.448.448,0,0,1,.144.018,2.187,2.187,0,0,1,.757.27,1.714,1.714,0,0,1-.144.829,28.218,28.218,0,0,1-2.018,4.307l-.234.433A.437.437,0,0,1,315.377,60.191Z" transform="translate(754.934 2267.65)"/>
      <path id="Path_9248" data-name="Path 9248" class="cls-3" d="M418.284,244.588c-.342,0-.613,0-.883-.018-.793-.036-.829-.342-.847-.577a1.119,1.119,0,0,1,.036-.559,1.062,1.062,0,0,1,.523-.126c.865-.072,1.784-.108,2.865-.108.919,0,1.82.018,2.667.054a.662.662,0,0,1,.306.595c0,.541-.2.577-.306.595-.595.09-1.207.126-1.838.162v-.018h-1.784C418.789,244.57,418.536,244.588,418.284,244.588Z" transform="translate(671.526 2112.629)"/>
    </g>
  </g>
</svg>
