<svg xmlns="http://www.w3.org/2000/svg" xmlns:xlink="http://www.w3.org/1999/xlink" viewBox="0 0 95 90">
  <defs>
    <style>
      .cls-1, .cls-3 {
        fill: none;
      }

      .cls-2 {
        fill: #fff;
      }

      .cls-2, .cls-3 {
        stroke: #33335d;
      }

      .cls-3 {
        stroke-width: 0.5px;
      }

      .cls-4 {
        clip-path: url(#clip-path);
      }

      .cls-5 {
        fill: #e9e9ed;
      }

      .cls-6 {
        fill: #ececff;
      }

      .cls-7 {
        fill: #26263a;
        font-size: 7px;
        font-family: Lato-Heavy, Lato;
        font-weight: 800;
      }

      .cls-8 {
        fill: #dddde1;
      }

      .cls-9 {
        fill: #33335d;
      }

      .cls-10 {
        stroke: none;
      }
    </style>
    <clipPath id="clip-path">
      <rect class="cls-1" width="37.5" height="3.409"/>
    </clipPath>
  </defs>
  <g id="Group_3049" data-name="Group 3049" transform="translate(-4354 -1160)">
    <g id="Rectangle_1365" data-name="Rectangle 1365" class="cls-2" transform="translate(4361.464 1169.545)">
      <rect class="cls-10" width="80.072" height="80.455"/>
      <rect class="cls-1" x="0.5" y="0.5" width="79.072" height="79.455"/>
    </g>
    <g id="Rectangle_1366" data-name="Rectangle 1366" class="cls-3" transform="translate(4354.678 1160.682)">
      <rect class="cls-10" width="93.643" height="73.636"/>
      <rect class="cls-1" x="0.25" y="0.25" width="93.143" height="73.136"/>
    </g>
    <g id="Repeat_Grid_2" data-name="Repeat Grid 2" class="cls-4" transform="translate(4360.786 1164.091)">
      <g transform="translate(-635 -2736)">
        <path id="Path_9182" data-name="Path 9182" class="cls-5" d="M1.5,0A1.5,1.5,0,1,1,0,1.5,1.5,1.5,0,0,1,1.5,0Z" transform="translate(635 2736)"/>
      </g>
      <g transform="translate(-628 -2736)">
        <path id="Path_9182-2" data-name="Path 9182" class="cls-5" d="M1.5,0A1.5,1.5,0,1,1,0,1.5,1.5,1.5,0,0,1,1.5,0Z" transform="translate(635 2736)"/>
      </g>
      <g transform="translate(-621 -2736)">
        <path id="Path_9182-3" data-name="Path 9182" class="cls-5" d="M1.5,0A1.5,1.5,0,1,1,0,1.5,1.5,1.5,0,0,1,1.5,0Z" transform="translate(635 2736)"/>
      </g>
      <g transform="translate(-614 -2736)">
        <path id="Path_9182-4" data-name="Path 9182" class="cls-5" d="M1.5,0A1.5,1.5,0,1,1,0,1.5,1.5,1.5,0,0,1,1.5,0Z" transform="translate(635 2736)"/>
      </g>
      <g transform="translate(-607 -2736)">
        <path id="Path_9182-5" data-name="Path 9182" class="cls-5" d="M1.5,0A1.5,1.5,0,1,1,0,1.5,1.5,1.5,0,0,1,1.5,0Z" transform="translate(635 2736)"/>
      </g>
      <g transform="translate(-600 -2736)">
        <path id="Path_9182-6" data-name="Path 9182" class="cls-5" d="M1.5,0A1.5,1.5,0,1,1,0,1.5,1.5,1.5,0,0,1,1.5,0Z" transform="translate(635 2736)"/>
      </g>
    </g>
    <rect id="Rectangle_1367" data-name="Rectangle 1367" class="cls-6" width="76.724" height="14.318" transform="translate(4363.138 1172.955)"/>
    <text id="API" class="cls-7" transform="translate(4373.842 1181.318)"><tspan x="-5.712" y="0">API</tspan></text>
    <rect id="Rectangle_1341" data-name="Rectangle 1341" class="cls-8" width="29.857" height="3" transform="translate(4366.893 1191.091)"/>
    <rect id="Rectangle_1368" data-name="Rectangle 1368" class="cls-8" width="18.91" height="3" transform="translate(4401.727 1191.091)"/>
    <rect id="Rectangle_1369" data-name="Rectangle 1369" class="cls-5" width="18.91" height="3" transform="translate(4366.893 1198.091)"/>
    <rect id="Rectangle_1341-2" data-name="Rectangle 1341" class="cls-8" width="29.857" height="3" transform="translate(4390.779 1198.091)"/>
    <rect id="Rectangle_1341-3" data-name="Rectangle 1341" class="cls-8" width="25.876" height="3" transform="translate(4366.893 1205.091)"/>
    <rect id="Rectangle_1341-4" data-name="Rectangle 1341" class="cls-8" width="32.843" height="3" transform="translate(4366.893 1211.091)"/>
    <rect id="Rectangle_1370" data-name="Rectangle 1370" class="cls-5" width="17.914" height="3" transform="translate(4402.722 1211.091)"/>
    <ellipse id="Ellipse_50" data-name="Ellipse 50" class="cls-9" cx="1.018" cy="1.023" rx="1.018" ry="1.023" transform="translate(4354 1232.955)"/>
    <ellipse id="Ellipse_47" data-name="Ellipse 47" class="cls-9" cx="1.018" cy="1.023" rx="1.018" ry="1.023" transform="translate(4354 1160)"/>
    <path id="Path_9183" data-name="Path 9183" class="cls-5" d="M1.489,6.4a1.423,1.423,0,0,1-.381-.242l-.035-.035A.127.127,0,0,0,.9,6.2L.064,8.109A.85.85,0,0,0,.513,9.255l2.078.9a1.93,1.93,0,0,0,.652,3.092,1.992,1.992,0,0,0,2.568-1.013,2.07,2.07,0,0,0,.14-.591l2.078.9a.852.852,0,0,0,1.145-.454L10.08,10a1.7,1.7,0,0,0,.519.346,1.992,1.992,0,0,0,2.568-1.013,1.956,1.956,0,0,0-1-2.57,1.354,1.354,0,0,0-.624-.138l.906-2.087A.85.85,0,0,0,12,3.393L10.1,2.562a.146.146,0,0,0-.208.1,1.971,1.971,0,0,1-.14.417A1.946,1.946,0,1,1,6.18,1.528c.07-.139.139-.244.209-.383.07-.1.035-.174-.069-.243L4.415.072A.852.852,0,0,0,3.27.526L2.434,2.439a.167.167,0,0,0,.069.208h.035A1.984,1.984,0,0,1,3.953,5.355,1.8,1.8,0,0,1,1.489,6.4Z" transform="translate(4410.736 1221.671) rotate(-30)"/>
    <path id="Path_9184" data-name="Path 9184" class="cls-6" d="M6.31-.013a.313.313,0,0,1,.242.1L7.694,1.3l-.069.07a2.306,2.306,0,0,0-.766,1.7A2.4,2.4,0,0,0,7.513,4.85a2.468,2.468,0,0,0,3.467.1l.069-.07,1.142,1.214a.313.313,0,0,1-.036.487L10.488,8.145l-.521.488.658.346a1.531,1.531,0,0,1,.381.277,1.51,1.51,0,0,1,.379,1.007,1.435,1.435,0,0,1-.453,1.009,1.423,1.423,0,0,1-2.011-.065.9.9,0,0,1-.242-.382l-.311-.66-.521.488L6.181,12.22a.335.335,0,0,1-.485,0L4.139,10.556l-.484-.52-.348.626a1.368,1.368,0,0,1-.278.348,1.494,1.494,0,0,1-.972.384,1.5,1.5,0,0,1-1.039-.45A1.51,1.51,0,0,1,.638,9.938a1.435,1.435,0,0,1,.453-1.009,1.44,1.44,0,0,1,.382-.244l.659-.314-.484-.52L.091,6.186a.374.374,0,0,1-.1-.243.317.317,0,0,1,.1-.243L1.308,4.55c.035.035.035.069.069.069a2.468,2.468,0,0,0,3.467.1,2.44,2.44,0,0,0,.111-3.476l-.069-.069L6.1.022c.035,0,.139-.035.208-.035" transform="translate(4423.427 1222.719) rotate(-30)"/>
    <ellipse id="Ellipse_56" data-name="Ellipse 56" class="cls-9" cx="1.018" cy="1.023" rx="1.018" ry="1.023" transform="translate(4446.964 1160)"/>
    <ellipse id="Ellipse_57" data-name="Ellipse 57" class="cls-9" cx="1.018" cy="1.023" rx="1.018" ry="1.023" transform="translate(4446.964 1232.955)"/>
  </g>
</svg>
