<svg xmlns="http://www.w3.org/2000/svg" xmlns:xlink="http://www.w3.org/1999/xlink" viewBox="0 0 424 252.998">
  <defs>
    <style>
      .cls-1, .cls-7 {
        fill: none;
      }

      .cls-2 {
        fill: #f4f5f9;
      }

      .cls-18, .cls-3, .cls-5, .cls-6, .cls-9 {
        fill: #fff;
      }

      .cls-3, .cls-5, .cls-6, .cls-7, .cls-9 {
        stroke-miterlimit: 10;
      }

      .cls-4 {
        fill: #f3f3ff;
      }

      .cls-5, .cls-6, .cls-7, .cls-9 {
        stroke: #26263a;
      }

      .cls-5, .cls-6, .cls-7 {
        stroke-width: 2px;
      }

      .cls-6, .cls-7, .cls-9 {
        stroke-linecap: round;
      }

      .cls-8 {
        fill: #5f6b72;
        opacity: 0.15;
      }

      .cls-10 {
        fill: #e04f26;
      }

      .cls-11 {
        fill: #eee;
      }

      .cls-12 {
        clip-path: url(#clip-path);
      }

      .cls-13 {
        fill: #e6e6e6;
        opacity: 0.59;
      }

      .cls-14 {
        clip-path: url(#clip-path-2);
      }

      .cls-15 {
        clip-path: url(#clip-path-3);
      }

      .cls-16, .cls-20 {
        fill: #26263a;
      }

      .cls-17 {
        fill: #28283c;
        font-size: 20px;
        font-family: Roboto-Medium, Roboto;
        font-weight: 500;
      }

      .cls-18 {
        font-size: 8px;
        font-family: Roboto-Regular, Roboto;
      }

      .cls-19, .cls-20 {
        stroke: none;
      }
    </style>
    <clipPath id="clip-path">
      <rect class="cls-1" width="119.829" height="42"/>
    </clipPath>
    <clipPath id="clip-path-2">
      <rect class="cls-1" width="119.829" height="37"/>
    </clipPath>
    <clipPath id="clip-path-3">
      <rect class="cls-1" width="29" height="6"/>
    </clipPath>
  </defs>
  <g id="Group_18" data-name="Group 18" transform="translate(-785 -1724)">
    <path id="Path_9456" data-name="Path 9456" class="cls-2" d="M607.1,118.659H562.829c-5.874,0-11.462-1.432-15.76-5.727-5.444-5.441-6.877-12.313-6.447-19.615.573-8.447,5.444-13.6,13.038-16.465a35.478,35.478,0,0,1,7.45-1.861c1.433-.143,1.719-.859,1.862-2a31.82,31.82,0,0,1,5.3-13.6,25.148,25.148,0,0,1,18.2-11.454c9.313-1.432,17.766.573,24.643,7.159a22.137,22.137,0,0,1,3.439,3.866,2.142,2.142,0,0,0,3.009.859c9.026-3.579,17.623-3.15,25.646,2.863,6.017,4.582,8.6,10.881,8.6,18.326,0,1,0,1.718,1.29,2,12.751,3.007,16.047,14.174,13.324,24.482-2.006,7.445-7.307,11.167-14.9,11.167Z" transform="translate(244.45 1676.506)"/>
    <g id="Path_9459" data-name="Path 9459" class="cls-3" transform="translate(454.695 1739.752)">
      <path class="cls-19" d="M 688.7937622070313 236.2459259033203 L 395.2273864746094 236.2459259033203 C 393.166748046875 236.2459259033203 391.16357421875 235.8390960693359 389.2735290527344 235.0366821289063 C 387.4503784179688 234.2626800537109 385.8112487792969 233.1560516357422 384.4017944335938 231.7475891113281 C 382.9922485351563 230.3390502929688 381.8847961425781 228.7010040283203 381.1101989746094 226.8790435791016 C 380.30712890625 224.9900970458984 379.8999633789063 222.9881286621094 379.8999633789063 220.9286804199219 L 379.8999633789063 207.9000091552734 L 379.8999633789063 206.9000091552734 L 380.8999633789063 206.9000091552734 L 702.9778442382813 206.9000091552734 L 703.9778442382813 206.9000091552734 L 703.9778442382813 207.9000091552734 L 703.9778442382813 220.9200439453125 C 704.0487060546875 224.9564971923828 702.5183715820313 228.7774810791016 699.6681518554688 231.6800537109375 C 698.2656860351563 233.1082611083984 696.6239624023438 234.2313842773438 694.7885131835938 235.0182647705078 C 692.8883666992188 235.8328857421875 690.8714599609375 236.2459259033203 688.7937622070313 236.2459259033203 Z"/>
      <path class="cls-20" d="M 688.7937622070313 235.2459259033203 C 696.6738891601563 235.2459259033203 703.12109375 228.8031005859375 702.9778442382813 220.9286499023438 L 702.9778442382813 207.9000091552734 L 380.8999633789063 207.9000091552734 L 380.8999633789063 220.9286499023438 C 380.8999633789063 228.8031005859375 387.3473205566406 235.2459259033203 395.2273559570313 235.2459259033203 L 688.7937622070313 235.2459259033203 M 688.7937622070313 237.2459259033203 L 395.2273559570313 237.2459259033203 C 393.03173828125 237.2459259033203 390.8970947265625 236.8123321533203 388.8827819824219 235.9571533203125 C 386.9410095214844 235.1328277587891 385.195556640625 233.9544677734375 383.6949157714844 232.4549255371094 C 382.1942138671875 230.9552459716797 381.0149536132813 229.2108764648438 380.1899108886719 227.2702331542969 C 379.3339538574219 225.2569274902344 378.8999633789063 223.123291015625 378.8999633789063 220.9286499023438 L 378.8999633789063 207.9000091552734 L 378.8999633789063 205.9000091552734 L 380.8999633789063 205.9000091552734 L 702.9778442382813 205.9000091552734 L 704.9778442382813 205.9000091552734 L 704.9778442382813 207.9000091552734 L 704.9778442382813 220.9105682373047 C 705.0150146484375 223.0854034423828 704.6177978515625 225.2034301757813 703.7973022460938 227.2060089111328 C 703.0059814453125 229.1375122070313 701.8567504882813 230.8785552978516 700.3816528320313 232.3806915283203 C 698.8875122070313 233.9022827148438 697.1382446289063 235.0989227294922 695.1826171875 235.9373321533203 C 693.1571655273438 236.8056488037109 691.0076904296875 237.2459259033203 688.7937622070313 237.2459259033203 Z"/>
    </g>
    <path id="Path_9457" data-name="Path 9457" class="cls-4" d="M686.315,224.608H397.62A16.626,16.626,0,0,1,381,208v10.595A16.626,16.626,0,0,0,397.62,235.2H686.458a16.626,16.626,0,0,0,16.62-16.608V208A16.657,16.657,0,0,1,686.315,224.608Z" transform="translate(454.739 1739.796)"/>
    <path id="Path_9458" data-name="Path 9458" class="cls-5" d="M660.53,261.433H407.8a8.619,8.619,0,0,1-8.6-8.59V92.49a8.619,8.619,0,0,1,8.6-8.59H660.53a8.619,8.619,0,0,1,8.6,8.59V252.843A8.619,8.619,0,0,1,660.53,261.433Z" transform="translate(462.614 1684.219)"/>
    <path id="Path_9460" data-name="Path 9460" class="cls-4" d="M657.775,85.3H410.486a9.9,9.9,0,0,0-9.886,9.879V250.521a9.9,9.9,0,0,0,9.886,9.879H657.775a9.9,9.9,0,0,0,9.886-9.879V95.179A9.9,9.9,0,0,0,657.775,85.3Zm.573,156.773a10.058,10.058,0,0,1-10.172,9.879H419.942a10.058,10.058,0,0,1-10.172-9.879V103.34a10.058,10.058,0,0,1,10.172-9.879H648.319a10.058,10.058,0,0,1,10.172,9.879V242.074Z" transform="translate(463.22 1684.823)"/>
    <line id="Line_184" data-name="Line 184" class="cls-6" x2="378.448" transform="translate(796.768 1975.998)"/>
    <line id="Line_185" data-name="Line 185" class="cls-7" x2="20.918" transform="translate(1187.082 1975.998)"/>
    <rect id="Rectangle_2165" data-name="Rectangle 2165" class="cls-4" width="232" height="22" transform="translate(881 1787)"/>
    <g id="Group_3953" data-name="Group 3953" transform="translate(785 1724)">
      <ellipse id="Ellipse_101" data-name="Ellipse 101" class="cls-8" cx="34.028" cy="32.713" rx="34.028" ry="32.713" transform="translate(311.622 10.044)"/>
      <ellipse id="Ellipse_102" data-name="Ellipse 102" class="cls-9" cx="31.731" cy="31.709" rx="31.731" ry="31.709" transform="translate(316.216 7.462)"/>
      <g id="Group_3952" data-name="Group 3952" transform="translate(-741.246 -1037)">
        <path id="Path_10025" data-name="Path 10025" class="cls-10" d="M17.987,0H24.82a1.547,1.547,0,0,1,1.534,1.534v5.02a3.645,3.645,0,0,0,1.115.418h0c.279.279.7.279.837.418L31.792,3.9a1.451,1.451,0,0,1,2.231,0l4.88,4.6a1.451,1.451,0,0,1,0,2.231L35.138,14.5c.279.279.279.7.418,1.115h0c.279.279.279.7.418.837h5.02a1.547,1.547,0,0,1,1.534,1.534V24.82a1.547,1.547,0,0,1-1.534,1.534h-5.02a3.645,3.645,0,0,0-.418,1.115c-.139.418-.279.7-.418,1.115l3.486,3.486a1.451,1.451,0,0,1,0,2.231l-4.88,4.88a1.451,1.451,0,0,1-2.231,0L28.027,35.7c-.279.279-.7.279-1.115.418s-.7.279-1.115.418v5.02a1.547,1.547,0,0,1-1.534,1.534H17.848a1.547,1.547,0,0,1-1.534-1.534v-5.02c-.279-.279-.558-.279-.976-.418h0a3.645,3.645,0,0,0-1.115-.418l-3.486,3.486a1.451,1.451,0,0,1-2.231,0l-4.88-5.02a1.451,1.451,0,0,1,0-2.231l3.486-3.486a8.888,8.888,0,0,1-.279-1.255h0c-.279-.279-.279-.7-.418-.837H1.534A1.547,1.547,0,0,1,0,24.82V17.987a1.547,1.547,0,0,1,1.534-1.534h5.02a2.662,2.662,0,0,0,.418-1.115A1.59,1.59,0,0,1,7.39,14.5L3.765,10.737a1.451,1.451,0,0,1,0-2.231l4.88-4.88a1.451,1.451,0,0,1,2.231,0l3.486,3.486c.418.139.558-.139.976-.139a3.645,3.645,0,0,1,1.115-.418V1.534A1.547,1.547,0,0,1,17.987,0Zm3.346,13.665h0A7.233,7.233,0,0,1,26.772,15.9,8.342,8.342,0,0,1,29,21.334a7.459,7.459,0,0,1-2.231,5.438A8.342,8.342,0,0,1,21.334,29,7.459,7.459,0,0,1,15.9,26.772a8.342,8.342,0,0,1-2.231-5.438A7.459,7.459,0,0,1,15.9,15.9,8.056,8.056,0,0,1,21.334,13.665Zm3.346,4.323a5.089,5.089,0,0,0-6.693,0,4.523,4.523,0,0,0-1.255,3.346,4.75,4.75,0,0,0,1.255,3.346,4.523,4.523,0,0,0,3.346,1.255A5,5,0,0,0,24.68,24.68a4.523,4.523,0,0,0,1.255-3.346,4.75,4.75,0,0,0-1.255-3.346ZM23.007,3.068H19.521v4.6A1.631,1.631,0,0,1,18.406,9.2c-.7.279-1.255.418-1.952.7a8.328,8.328,0,0,0-1.534.837,1.652,1.652,0,0,1-1.952-.279L9.621,7.251,6.972,9.621l3.346,3.346A1.652,1.652,0,0,1,10.6,14.92a5.468,5.468,0,0,0-.7,1.813c-.279.418-.418,1.115-.7,1.534,0,.837-.7,1.255-1.534,1.255h-4.6v3.486h4.6A1.631,1.631,0,0,1,9.2,24.123a4.294,4.294,0,0,1,.418,1.813h0a6.8,6.8,0,0,1,.837,1.813,1.346,1.346,0,0,1-.279,1.952L6.972,32.907l2.649,2.649,3.346-3.346a1.652,1.652,0,0,1,1.952-.279,5.474,5.474,0,0,0,1.813.837,12.451,12.451,0,0,0,1.813.7A1.775,1.775,0,0,1,19.8,35v4.6h3.486V35A1.631,1.631,0,0,1,24.4,33.465c.7-.279,1.115-.418,1.813-.7a4,4,0,0,0,1.534-.837,1.346,1.346,0,0,1,1.952.279l3.346,3.346L35.7,32.907l-3.346-3.346a1.652,1.652,0,0,1-.279-1.952,5.474,5.474,0,0,0,.837-1.813,12.452,12.452,0,0,0,.7-1.813,1.775,1.775,0,0,1,1.534-1.255h4.6V19.521h-4.6A1.631,1.631,0,0,1,33.6,18.406a4.294,4.294,0,0,1-.418-1.813h0a4,4,0,0,0-.837-1.534,1.451,1.451,0,0,1,0-2.231L35.7,9.482l-2.789-2.51-3.346,3.346a1.652,1.652,0,0,1-1.952.279,8.328,8.328,0,0,0-1.534-.837h0a12.451,12.451,0,0,0-1.813-.7A1.775,1.775,0,0,1,23.007,7.53V3.068Z" transform="translate(1069.232 1054.907)"/>
      </g>
    </g>
    <rect id="Rectangle_1568" data-name="Rectangle 1568" class="cls-11" width="23.763" height="22.962" transform="translate(916.869 1844.943)"/>
    <rect id="Rectangle_2167" data-name="Rectangle 2167" class="cls-11" width="23.763" height="22.962" transform="translate(916.869 1896.943)"/>
    <rect id="Rectangle_2166" data-name="Rectangle 2166" class="cls-11" width="3" height="38.962" transform="translate(926.869 1857.943)"/>
    <g id="Repeat_Grid_18" data-name="Repeat Grid 18" class="cls-12" transform="translate(950.91 1844.943)">
      <g transform="translate(-950.91 -1818.943)">
        <rect id="Rectangle_1569" data-name="Rectangle 1569" class="cls-13" width="119.829" height="5" transform="translate(950.91 1818.943)"/>
      </g>
      <g transform="translate(-950.91 -1808.943)">
        <rect id="Rectangle_1569-2" data-name="Rectangle 1569" class="cls-13" width="119.829" height="5" transform="translate(950.91 1818.943)"/>
      </g>
      <g transform="translate(-950.91 -1798.943)">
        <rect id="Rectangle_1569-3" data-name="Rectangle 1569" class="cls-13" width="119.829" height="5" transform="translate(950.91 1818.943)"/>
      </g>
      <g transform="translate(-950.91 -1788.943)">
        <rect id="Rectangle_1569-4" data-name="Rectangle 1569" class="cls-13" width="119.829" height="5" transform="translate(950.91 1818.943)"/>
      </g>
      <g transform="translate(-950.91 -1778.943)">
        <rect id="Rectangle_1569-5" data-name="Rectangle 1569" class="cls-13" width="119.829" height="5" transform="translate(950.91 1818.943)"/>
      </g>
    </g>
    <g id="Repeat_Grid_19" data-name="Repeat Grid 19" class="cls-14" transform="translate(949.91 1896.943)">
      <g transform="translate(-950.91 -1818.943)">
        <rect id="Rectangle_1569-6" data-name="Rectangle 1569" class="cls-13" width="119.829" height="5" transform="translate(950.91 1818.943)"/>
      </g>
      <g transform="translate(-950.91 -1808.943)">
        <rect id="Rectangle_1569-7" data-name="Rectangle 1569" class="cls-13" width="119.829" height="5" transform="translate(950.91 1818.943)"/>
      </g>
      <g transform="translate(-950.91 -1798.943)">
        <rect id="Rectangle_1569-8" data-name="Rectangle 1569" class="cls-13" width="119.829" height="5" transform="translate(950.91 1818.943)"/>
      </g>
      <g transform="translate(-950.91 -1788.943)">
        <rect id="Rectangle_1569-9" data-name="Rectangle 1569" class="cls-13" width="119.829" height="5" transform="translate(950.91 1818.943)"/>
      </g>
    </g>
    <g id="Repeat_Grid_17" data-name="Repeat Grid 17" class="cls-15" transform="translate(889 1795)">
      <g transform="translate(-889 -1794)">
        <circle id="Ellipse_126" data-name="Ellipse 126" class="cls-16" cx="3" cy="3" r="3" transform="translate(889 1794)"/>
      </g>
      <g transform="translate(-878 -1794)">
        <circle id="Ellipse_126-2" data-name="Ellipse 126" class="cls-16" cx="3" cy="3" r="3" transform="translate(889 1794)"/>
      </g>
      <g transform="translate(-867 -1794)">
        <circle id="Ellipse_126-3" data-name="Ellipse 126" class="cls-16" cx="3" cy="3" r="3" transform="translate(889 1794)"/>
      </g>
    </g>
    <text id="API_" data-name="API &lt;/&gt;" class="cls-17" transform="translate(974.137 1832.716)"><tspan x="0" y="0">API &lt;/&gt;</tspan></text>
    <path id="Path_10044" data-name="Path 10044" class="cls-16" d="M2,0H53.065a2,2,0,0,1,2,2V17.009a2,2,0,0,1-2,2H2a2,2,0,0,1-2-2V2A2,2,0,0,1,2,0Z" transform="translate(1055 1911)"/>
    <text id="Integrate" class="cls-18" transform="translate(1067 1923)"><tspan x="0" y="0">Integrate</tspan></text>
  </g>
</svg>
