<svg xmlns="http://www.w3.org/2000/svg" viewBox="0 0 175 91">
  <defs>
    <style>
      .cls-1, .cls-10, .cls-3, .cls-5 {
        fill: none;
      }

      .cls-1, .cls-11, .cls-3, .cls-4, .cls-9 {
        stroke: #33335d;
      }

      .cls-1 {
        stroke-linecap: round;
        stroke-linejoin: round;
      }

      .cls-1, .cls-11, .cls-3, .cls-4 {
        stroke-miterlimit: 10;
      }

      .cls-2 {
        fill: #33335d;
      }

      .cls-11, .cls-4, .cls-7 {
        fill: #fff;
      }

      .cls-5 {
        stroke: #e9e9ed;
        stroke-width: 3px;
      }

      .cls-6, .cls-9 {
        fill: #ececff;
      }

      .cls-8 {
        fill: #dddde1;
        font-size: 12px;
        font-family: Lato-Regular, Lato;
      }

      .cls-11 {
        stroke-width: 0.5px;
      }

      .cls-12 {
        fill: #26263a;
      }
    </style>
  </defs>
  <g id="Group_3041" data-name="Group 3041" transform="translate(-4621.5 -1006.5)">
    <g id="XMLID_107_" transform="translate(4622 1007)">
      <path id="XMLID_111_" class="cls-1" d="M178.336,382.985H33.091A8.6,8.6,0,0,1,24.5,374.4H187A8.666,8.666,0,0,1,178.336,382.985Z" transform="translate(-24.5 -292.985)"/>
      <path id="XMLID_110_" class="cls-2" d="M144.331,375.664H116.665A1.15,1.15,0,0,1,115.5,374.5h30.068A1.39,1.39,0,0,1,144.331,375.664Z" transform="translate(-49.248 -293.012)"/>
      <path id="XMLID_109_" class="cls-3" d="M177.577,343.915H45v-72.32a9.1,9.1,0,0,1,9.1-9.095H168.331a9.256,9.256,0,0,1,9.246,9.24v72.175Z" transform="translate(-30.075 -262.5)"/>
      <path id="XMLID_108_" class="cls-4" d="M51.9,345.295V274.866a6.058,6.058,0,0,1,6.043-5.966H168.388a6.106,6.106,0,0,1,6.043,5.966v70.429" transform="translate(-31.952 -264.243)"/>
    </g>
    <path id="Path_9126" data-name="Path 9126" class="cls-5" d="M0,0H68.507" transform="translate(4649.588 1043.544)"/>
    <path id="Path_9125" data-name="Path 9125" class="cls-5" d="M0,0H68.507" transform="translate(4649.588 1051.238)"/>
    <rect id="Rectangle_1304" data-name="Rectangle 1304" class="cls-6" width="119.336" height="19.235" transform="translate(4642.531 1017.259)"/>
    <path id="Path_9124" data-name="Path 9124" class="cls-5" d="M0,0H68.507" transform="translate(4649.588 1058.932)"/>
    <rect id="Rectangle_1303" data-name="Rectangle 1303" class="cls-7" width="43.628" height="10.259" transform="translate(4648.947 1021.106)"/>
    <text id="INR:_5000" data-name="INR: 5000" class="cls-8" transform="translate(4675.947 1079.27)"><tspan x="-26.832" y="0">INR: 5000</tspan></text>
    <path id="Path_9202" data-name="Path 9202" class="cls-9" d="M42.161,0A42.133,42.133,0,1,1,9.138,68.329,42.129,42.129,0,0,1,42.161,0Z" transform="translate(4711.678 1007)"/>
    <path id="Path_9127" data-name="Path 9127" class="cls-10" d="M8.536,58.068c-.175-.785-.262-1.483-.436-2.268v2.268Z" transform="translate(4709.339 998.567)"/>
    <path id="Path_9128" data-name="Path 9128" class="cls-10" d="M8.2,42.7a35.218,35.218,0,0,1,1.659-6.8,6.772,6.772,0,0,0-1.659.174Z" transform="translate(4709.327 1001.108)"/>
    <path id="Path_9129" data-name="Path 9129" class="cls-11" d="M10.819,57.134c3.23,0,6.2-1.221,6.2-4.711,0-3.315-2.793-4.623-6.2-4.623H8.2v6.979a17.408,17.408,0,0,0,.436,2.268A15.523,15.523,0,0,0,10.819,57.134Z" transform="translate(4709.327 999.588)"/>
    <path id="Path_9130" data-name="Path 9130" class="cls-11" d="M8.187,43.938h2.793c3.317,0,5.237-1.745,5.237-4.013,0-2.791-2.182-3.925-5.325-3.925H9.759A35.218,35.218,0,0,0,8.1,42.8v1.134Z" transform="translate(4709.339 1001.095)"/>
    <path id="Path_9131" data-name="Path 9131" class="cls-11" d="M44.665,7.8A36.7,36.7,0,0,0,10.971,29.957c3.142,0,5.15.523,6.634,1.745a5.18,5.18,0,0,1,2.008,4.274,5.793,5.793,0,0,1-4.1,5.321v.087A6.335,6.335,0,0,1,18.478,52.2c-1.658,1.57-4.364,2.268-8.38,2.268H9.4A36.66,36.66,0,1,0,44.665,7.8Z" transform="translate(4709.174 1004.696)"/>
    <path id="Path_9132" data-name="Path 9132" class="cls-12" d="M18.187,55.444a6.564,6.564,0,0,0,2.008-4.8,6.163,6.163,0,0,0-4.976-6.019V44.54a5.793,5.793,0,0,0,4.1-5.321,5.18,5.18,0,0,0-2.008-4.274c-1.484-1.221-3.492-1.745-6.634-1.745-.349.785-.611,1.57-.96,2.442h1.135c3.142,0,5.325,1.134,5.325,3.925,0,2.355-1.92,4.013-5.237,4.013H8.149V42.359A35.152,35.152,0,0,0,7.8,47.593a50.983,50.983,0,0,0,.349,5.234V45.849h2.619c3.4,0,6.2,1.4,6.2,4.623,0,3.489-2.968,4.711-6.2,4.711A15.524,15.524,0,0,1,8.586,55.1c.175.872.436,1.657.611,2.53h.7C13.823,57.712,16.529,57.014,18.187,55.444Z" transform="translate(4709.378 1001.453)"/>
    <path id="Path_9133" data-name="Path 9133" class="cls-12" d="M36.1,58.5l-.262-2.181h-.087a6.342,6.342,0,0,1-5.325,2.617A4.953,4.953,0,0,1,25.1,53.959c0-4.187,3.753-6.455,10.387-6.455v-.436c0-1.4-.436-4.013-3.928-4.013a8.9,8.9,0,0,0-4.539,1.308l-.7-2.094A10.357,10.357,0,0,1,32,40.7c5.325,0,6.547,3.576,6.547,7.066v6.455a30.76,30.76,0,0,0,.262,4.187H36.1Zm-.436-8.9c-3.4-.087-7.332.523-7.332,3.925A2.789,2.789,0,0,0,31.3,56.489a4.286,4.286,0,0,0,4.19-2.879,4.5,4.5,0,0,0,.175-.96Z" transform="translate(4707.179 1000.495)"/>
    <path id="Path_9134" data-name="Path 9134" class="cls-12" d="M46.475,45.859a39.444,39.444,0,0,0-.175-4.711h2.793l.175,2.879h.087A6.385,6.385,0,0,1,55.116,40.8c2.357,0,6.11,1.4,6.11,7.415V58.6H58.084V48.476c0-2.791-1.047-5.147-4.015-5.147a4.42,4.42,0,0,0-4.19,3.228A4.078,4.078,0,0,0,49.7,48.04V58.421H46.562V45.859Z" transform="translate(4704.484 1000.482)"/>
    <path id="Path_9135" data-name="Path 9135" class="cls-12" d="M72.417,47.951h0c.524-.611,1.135-1.4,1.571-2.006l5.063-6.019H82.8l-6.721,7.153,7.594,10.206H79.837L73.814,49l-1.571,1.832v6.542H69.1V31.9h3.142V47.951Z" transform="translate(4701.586 1001.619)"/>
  </g>
</svg>
