<?xml version="1.0" encoding="utf-8"?>
<!-- Generator: Adobe Illustrator 19.1.0, SVG Export Plug-In . SVG Version: 6.00 Build 0)  -->
<svg version="1.1" id="Layer_1" xmlns="http://www.w3.org/2000/svg" xmlns:xlink="http://www.w3.org/1999/xlink" x="0px" y="0px"
	 viewBox="-450.7 251 375 290" style="enable-background:new -450.7 251 375 290;" xml:space="preserve">
<style type="text/css">
	.st0{fill:none;stroke:#26263A;stroke-width:2;stroke-linecap:round;stroke-linejoin:round;stroke-miterlimit:2.613;}
	.st1{fill:#26263A;stroke:#26263A;stroke-linecap:round;stroke-linejoin:round;stroke-miterlimit:2.613;}
	.st2{fill:#F3F3FF;stroke:#26263A;stroke-width:2;stroke-miterlimit:2.613;}
	.st3{fill:#26263A;}
	.st4{fill:#26263A;stroke:#26263A;stroke-width:2;stroke-linecap:round;stroke-linejoin:round;stroke-miterlimit:2.613;}
	.st5{fill:#26263A;stroke:#26263A;stroke-width:2;stroke-miterlimit:2.613;}
	.st6{fill:#F3F3FF;stroke:#26263A;stroke-linecap:round;stroke-linejoin:round;stroke-miterlimit:2.613;}
	.st7{fill:none;stroke:#26263A;stroke-width:0.216;}
	.st8{opacity:0.29;fill:#26263A;enable-background:new    ;}
	.st9{fill:none;stroke:#26263A;stroke-width:0.216;stroke-miterlimit:2.613;}
	.st10{fill:none;stroke:#26263A;stroke-linecap:round;stroke-linejoin:round;stroke-miterlimit:2.613;stroke-dasharray:2,3;}
	.st11{fill:none;stroke:#26263A;stroke-linecap:round;stroke-linejoin:round;stroke-miterlimit:2.613;}
	.st12{fill:#FDD6B7;}
	.st13{fill:#FDCC98;}
	.st14{enable-background:new    ;}
	.st15{fill:#E43626;}
	.st16{fill:#F3F3FF;stroke:#707070;}
	.st17{fill:#8B8689;}
	.st18{fill:#EBA9A1;}
	.st19{fill:#83D1F2;}
	.st20{fill:#C9DC55;}
	.st21{fill:#F5BF5B;}
	.st22{fill:#C2C1C2;}
	.st23{fill:#FFFFFF;}
	.st24{fill:#8F9E39;}
	.st25{fill:#E2A33A;}
	.st26{fill:#F7F8F9;}
	.st27{fill:#0C3553;}
	.st28{font-family:'ArialMT';}
	.st29{font-size:4.0018px;}
</style>
<g id="Group_4478" transform="translate(2801.377 -3783.9)">
	<path id="Path_11418" class="st0" d="M-3172.4,4215.1c-8.4,10.7-14.2,13.4-30,12.5"/>
	<ellipse id="Ellipse_163" class="st1" cx="-3172.4" cy="4215.1" rx="1.8" ry="1.8"/>
	<path id="Path_11419" class="st2" d="M-3232.7,4266.1c4.9,4.8,31.1,4.8,36,0c4.9-4.8,4.9-39.6,0-44.4c-4.9-4.8-31.1-4.8-36,0
		C-3237.6,4226.5-3237.6,4261.2-3232.7,4266.1z"/>
	<path id="Path_11420" class="st0" d="M-3209.2,4294.1c0.7-8.2,0.7-16.4,0-24.6"/>
	<path id="Path_11421" class="st3" d="M-3208.9,4275.4c-0.7-2-1.7-3.9-2.8-5.7c0.8-0.1,1.6-0.1,2.4-0.1c0.9-0.1,1.7-0.2,2.6-0.3
		C-3207.9,4271.2-3208,4273.2-3208.9,4275.4z"/>
	<path id="Path_11422" class="st4" d="M-3209.2,4289.1c1-0.7,6.4-0.7,7.4,0c1,0.7,1,4.4,0,5h-7.4V4289.1z"/>
	<path id="Path_11423" class="st0" d="M-3220.2,4294.1c0.7-8.2,0.7-16.4,0-24.6"/>
	<path id="Path_11424" class="st3" d="M-3219.8,4275.4c0.8-2.1,0.9-3.8,2-5.7c-0.8-0.1-1.6-0.1-2.4-0.1c-0.9-0.1-1.8-0.2-2.6-0.3
		C-3221.6,4271.2-3220.6,4273.3-3219.8,4275.4z"/>
	<path id="Path_11425" class="st4" d="M-3220.2,4289.1c1-0.7,6.4-0.7,7.5,0c1,0.7,1,4.4,0,5h-7.5V4289.1z"/>
	<path id="Path_11426" class="st2" d="M-3247.6,4180.4c3.5-7.5,33.2-18.2,40.8-14.7c7.5,3.5,18.3,32.9,14.8,40.5
		c-3.5,7.5-33.2,18.2-40.8,14.7C-3240.3,4217.4-3251.1,4187.9-3247.6,4180.4z"/>
	<path id="Path_11427" class="st4" d="M-3247.6,4180.4c3.5-7.5,33.2-18.2,40.8-14.7c7.5,3.5,1.8,17.7-18.5,25
		c5.9,16.2,0.1,33.7-7.4,30.2C-3240.3,4217.4-3251.1,4187.9-3247.6,4180.4z"/>
	<ellipse id="Ellipse_164" class="st5" cx="-3205.3" cy="4190.2" rx="1.1" ry="1"/>
	<path id="Path_11428" class="st0" d="M-3192.1,4195.1c-1.8,2.2-3,7.2-11.5,6.2"/>
	<path id="Path_11429" class="st0" d="M-3208.4,4213.1c2.2,23.6-3.2,20.6-14.7,13.3"/>
	<ellipse id="Ellipse_165" class="st5" cx="-3208.4" cy="4213.1" rx="1.8" ry="1.8"/>
	<path id="Path_11430" class="st6" d="M-3168.1,4195.5c0.7-0.5,27.8-0.6,28.6,0.3c0.9,0.9-2.6,32.4-3.4,33
		c-0.7,0.6-27.5-4.7-28.1-5.4C-3171.6,4222.6-3168.9,4196.1-3168.1,4195.5z"/>
	<path id="Path_11534" class="st7" d="M-3163.1,4209.6l-3.3-0.4l0.4-3.3l3.3,0.4L-3163.1,4209.6z"/>
	<path id="Path_11432" class="st8" d="M-3160.3,4207l18.1,2l-0.6,3.3l-18.1-2L-3160.3,4207z"/>
	<path id="Path_11433" class="st9" d="M-3166.7,4210.8l3.4,0.4l-0.5,3.3l-3.3-0.5L-3166.7,4210.8z"/>
	<path id="Path_11434" class="st8" d="M-3161,4211.8l17.9,2l-0.6,3.3l-17.9-2L-3161,4211.8z"/>
	<path id="Path_11435" class="st9" d="M-3167.3,4215.5l3.4,0.5l-0.5,3.3l-3.4-0.4L-3167.3,4215.5z"/>
	<path id="Path_11436" class="st8" d="M-3161.7,4216.5l17.9,2.2l-0.6,3.3l-17.9-2.2L-3161.7,4216.5z"/>
	<path id="Path_11437" class="st10" d="M-3004.7,4269.3c-7.1-18.5-74-44.6-95.1-44.6c-3.6,0-7.2,0.4-10.7,1.2"/>
	<path id="Path_11438" class="st11" d="M-3107.2,4226.8c-0.5-0.3-1-0.5-1.6-0.7c-0.6-0.1-1.1-0.2-1.7-0.3c0.5-0.3,1-0.6,1.4-1
		c0.4-0.4,0.8-0.8,1.2-1.3"/>
	<path id="Path_11439" class="st11" d="M-3003.4,4266.7c-0.2,0.5-0.3,1.1-0.4,1.6c0,0.6,0,1.2,0,1.8c-0.4-0.4-0.8-0.8-1.3-1.2
		c-0.5-0.3-1.1-0.6-1.5-0.9"/>
	<path id="Path_11440" class="st10" d="M-3008.6,4099.3c-5.4,23.8-68.9,83.7-94.7,87.3c-4.4,0.6-8.8,0.8-13.3,0.5"/>
	<path id="Path_11441" class="st11" d="M-3106.7,4204.5c-0.6,0.4-1.2,0.8-1.8,1.1c-0.7,0.3-1.4,0.5-2,0.7c0.7,0.3,1.3,0.6,1.9,1
		c0.6,0.4,1.1,0.9,1.6,1.4"/>
	<path id="Path_11442" class="st11" d="M-3007.6,4102.3c-0.3-0.6-0.6-1.3-0.8-2c-0.2-0.7-0.2-1.4-0.3-2.2c-0.4,0.6-0.8,1.1-1.3,1.6
		c-0.5,0.5-1.1,0.9-1.7,1.3"/>
	<line id="Line_884" class="st10" x1="-3108.6" y1="4206.5" x2="-2994.8" y2="4184.9"/>
	<path id="Path_11443" class="st11" d="M-2998.3,4183c0.6,0.4,1.2,0.8,1.8,1.1c0.7,0.3,1.4,0.5,2,0.7c-0.7,0.3-1.3,0.6-1.9,1
		c-0.6,0.4-1.1,0.9-1.6,1.4"/>
	<path id="Path_11444" class="st11" d="M-3114.5,4184.9c-0.6,0.4-1.2,0.8-1.8,1.1c-0.7,0.3-1.4,0.5-2,0.7c0.7,0.3,1.3,0.6,1.9,1
		c0.6,0.4,1.1,0.9,1.6,1.4"/>
	<path id="Path_11445" class="st12" d="M-2982.6,4041.8c2.6,3.8,4.9,2.4,4.9,8.3c-0.1,3.4-0.4,10.2,0.2,13.2l15.4,3.2l0.1-15.9
		l-2.3-0.8l-0.1-8.6c2.6,0.4,12,2.4,13.5,3.5l-10.1,5.6v15.5c1.6,0.1,10.4-5,11.5-6V4047c-0.1-6.5,2.7-4.6,4.2-8.8l-15-3.3
		c-1.3,1.4-3.2,3.1-4.5,4.6l-5.7-4.5c-2.2,1-4.2,2.2-6.2,3.3L-2982.6,4041.8L-2982.6,4041.8z M-2975.9,4047.7
		c0.9-1,8.2-5.6,10.5-6.2l-0.1,8.1L-2975.9,4047.7z"/>
	<path id="Path_11446" class="st13" d="M-2973.1,4079.6l-0.1,15.5c1.1-0.3,14.6-5.3,15-6.6v-14.4
		C-2960.4,4074.4-2971.8,4078.6-2973.1,4079.6z"/>
	<path id="Path_11447" class="st12" d="M-2989.6,4088.8c1.5,1.1,13.1,6.1,15,6.1v-15.3l-14.9-5.5L-2989.6,4088.8z"/>
	<path id="Path_11448" class="st12" d="M-2989,4072c1,0.9,11.6,4.6,13.7,5.4c0.1-0.1,0.2-0.3,0.2-0.3c0.3,0.7-0.1-0.5,1.4-1.2
		c0.1,0.1,0.1,0.2,0.2,0.3c0.5,2.4,5.5-0.3,7.2-1c2.2-0.9,5.9-1.8,7.6-3.1c-0.4-0.5,0.1-0.1-0.7-0.5l-12.8-3.7
		c-1,0.1-0.9,0.7-1.5,1.2c-1.6-0.7-0.3-0.2-1.6-1.3C-2977.8,4068.3-2987.9,4070.7-2989,4072z"/>
	<path id="Path_11449" class="st13" d="M-2939.4,4073.7l-0.1,15.5c1.1-0.3,14.6-5.3,15-6.6v-14.4
		C-2926.8,4068.5-2938.1,4072.7-2939.4,4073.7z"/>
	<path id="Path_11450" class="st12" d="M-2956,4082.9c1.5,1.1,13.1,6.1,15,6.1v-15.3l-14.9-5.5L-2956,4082.9z"/>
	<path id="Path_11451" class="st12" d="M-2955.4,4066.1c1,0.9,11.6,4.6,13.7,5.4c0.1-0.1,0.2-0.3,0.2-0.3c0.3,0.7-0.1-0.5,1.4-1.2
		c0.1,0.1,0.1,0.2,0.2,0.3c0.5,2.4,5.5-0.3,7.2-1c2.2-0.9,5.9-1.8,7.6-3.1c-0.4-0.5,0.1-0.1-0.7-0.5l-12.8-3.7
		c-1,0.1-0.9,0.7-1.5,1.2c-1.6-0.7-0.3-0.2-1.6-1.3C-2944.2,4062.4-2954.3,4064.8-2955.4,4066.1z"/>
	<g class="st14">
		<path class="st15" d="M-2968.3,4098c-0.1,0.3-0.1,0.5-0.1,0.7c0,0.1,0,0.3-0.1,0.7c-0.1,0.7-0.2,1.2-0.2,1.4c0,0.4,0,0.9,0.1,1.3
			c0,0.3,0,0.5-0.2,0.7c-0.2,0.1-0.3,0.2-0.5,0.2c-0.2,0-0.4-0.1-0.5-0.3c-0.1-0.2-0.1-0.5-0.1-1c0-0.3,0.1-1,0.2-2.2l0.3-1.9
			c0.1-0.3,0.1-0.5,0.1-0.8c0-0.4,0.1-0.6,0.1-0.7c0.1-0.1,0.2-0.2,0.3-0.3c0.1-0.1,0.3-0.1,0.3-0.1c0.2,0,0.3,0.1,0.4,0.2
			c0.1,0.2,0.1,0.3,0.1,0.6L-2968.3,4098z"/>
		<path class="st15" d="M-2962.9,4102.2c-0.2-0.3-0.3-0.8-0.3-1.6c-0.1-0.8-0.2-1.3-0.5-1.3c-0.2,0-0.6,0.4-1.2,1.3
			c-0.6,0.9-0.9,1.5-1.1,1.9c0,0.1-0.1,0.2-0.2,0.3c-0.1,0.1-0.2,0.1-0.2,0.1c-0.5,0-0.7-0.2-0.7-0.7c0-0.2,0-0.5,0.1-1
			c0.1-0.7,0.2-1.6,0.2-2.6c0-0.2,0.1-0.3,0.2-0.5c0.1-0.2,0.3-0.3,0.4-0.3c0.2,0,0.3,0,0.4,0.1c0.1,0.1,0.2,0.3,0.2,0.8
			c0,0.3-0.1,0.9-0.3,1.8c0.7-1.7,1.5-2.5,2.4-2.5c0.8,0,1.2,0.6,1.3,1.8c0.1,1.2,0.3,1.8,0.4,1.8c0.1,0,0.2,0,0.3,0
			c0.1,0,0.2-0.1,0.3-0.1c0.2,0,0.2,0.1,0.2,0.3c0,0.2-0.1,0.3-0.3,0.5c-0.2,0.2-0.5,0.3-0.8,0.3
			C-2962.5,4102.7-2962.7,4102.5-2962.9,4102.2L-2962.9,4102.2z"/>
		<path class="st15" d="M-2959.5,4102.8c0-0.2-0.1-0.7-0.4-1.4c-0.5-1.4-0.8-2.4-0.8-3c0-0.5,0.2-0.8,0.6-0.8c0.4,0,0.6,0.2,0.6,0.7
			c0,0.3,0,0.5,0,0.7c0,0.1,0.1,0.4,0.2,0.7c0.1,0.3,0.2,0.6,0.3,0.9c0,0.1,0.1,0.3,0.2,0.5c0,0.1,0.1,0.2,0.1,0.3
			c0,0,0.1-0.2,0.2-0.4c0.1-0.1,0.3-0.5,0.7-1.2c0.4-0.6,0.7-1.1,1-1.5s0.5-0.6,0.7-0.7s0.3-0.1,0.5-0.1c0.2,0,0.3,0.1,0.4,0.2
			c0.1,0.1,0.2,0.2,0.2,0.4c0,0.2-0.1,0.4-0.4,0.6c-0.3,0.2-0.6,0.6-1.1,1.3c-0.5,0.7-1,1.5-1.5,2.5c-0.3,0.6-0.6,0.8-0.8,0.8
			C-2959.1,4103.2-2959.3,4103.1-2959.5,4102.8z"/>
		<path class="st15" d="M-2950.6,4101.2c0,0.3-0.3,0.7-0.9,1.2c-0.6,0.5-1.2,0.7-1.9,0.7c-0.5,0-1-0.2-1.3-0.5
			c-0.3-0.3-0.5-0.8-0.5-1.4c0-0.9,0.3-1.8,1-2.6s1.3-1.2,2.1-1.2c0.4,0,0.7,0.1,0.9,0.3c0.2,0.2,0.3,0.5,0.3,0.8
			c0,0.6-0.3,1.1-0.8,1.6c-0.5,0.5-1.2,0.9-2.1,1.1c-0.1,0-0.1,0.1-0.1,0.2c0,0.2,0.1,0.3,0.2,0.4c0.1,0.1,0.3,0.2,0.6,0.2
			c0.7,0,1.3-0.3,1.9-1c0.1-0.1,0.2-0.2,0.4-0.2C-2950.7,4100.9-2950.6,4101-2950.6,4101.2z M-2953.9,4100.3c0.5-0.1,1-0.3,1.4-0.7
			c0.4-0.3,0.6-0.6,0.6-0.9c0-0.1,0-0.2-0.1-0.3c-0.1-0.1-0.1-0.1-0.2-0.1c-0.3,0-0.6,0.2-0.9,0.6
			C-2953.5,4099.4-2953.7,4099.9-2953.9,4100.3z"/>
		<path class="st15" d="M-2945.7,4102.2c-0.2-0.3-0.3-0.8-0.3-1.6c-0.1-0.8-0.2-1.3-0.5-1.3c-0.2,0-0.6,0.4-1.2,1.3
			c-0.6,0.9-0.9,1.5-1.1,1.9c0,0.1-0.1,0.2-0.2,0.3c-0.1,0.1-0.2,0.1-0.2,0.1c-0.5,0-0.7-0.2-0.7-0.7c0-0.2,0-0.5,0.1-1
			c0.1-0.7,0.2-1.6,0.2-2.6c0-0.2,0.1-0.3,0.2-0.5c0.1-0.2,0.3-0.3,0.4-0.3c0.2,0,0.3,0,0.4,0.1c0.1,0.1,0.2,0.3,0.2,0.8
			c0,0.3-0.1,0.9-0.3,1.8c0.7-1.7,1.5-2.5,2.4-2.5c0.8,0,1.2,0.6,1.3,1.8c0.1,1.2,0.3,1.8,0.4,1.8c0.1,0,0.2,0,0.3,0
			c0.1,0,0.2-0.1,0.3-0.1c0.2,0,0.2,0.1,0.2,0.3c0,0.2-0.1,0.3-0.3,0.5c-0.2,0.2-0.5,0.3-0.8,0.3
			C-2945.2,4102.7-2945.5,4102.5-2945.7,4102.2L-2945.7,4102.2z"/>
		<path class="st15" d="M-2941.2,4098.9c0,0-0.1,0.4-0.3,1.1c-0.2,0.7-0.2,1.2-0.2,1.3c0,0.3,0,0.5,0.1,0.6c0.1,0.1,0.2,0.2,0.3,0.2
			c0.2,0,0.4,0,0.5-0.1c0.2-0.1,0.4-0.2,0.7-0.4c0.2-0.1,0.3-0.2,0.4-0.2c0.1,0,0.2,0,0.2,0.1c0.1,0.1,0.1,0.1,0.1,0.2
			c0,0.3-0.2,0.6-0.7,1c-0.5,0.4-1,0.5-1.5,0.5c-0.4,0-0.8-0.1-1-0.4c-0.2-0.3-0.3-0.6-0.3-1.1c0-0.4,0.2-1.3,0.5-2.6
			c-0.2,0-0.4,0-0.4,0h-0.1c-0.1,0-0.3,0-0.5-0.1c-0.2-0.1-0.2-0.3-0.2-0.5c0-0.3,0.2-0.4,0.5-0.4l1,0c0.1-0.4,0.3-0.9,0.4-1.5
			c0.1-0.4,0.3-0.6,0.6-0.6c0.2,0,0.3,0.1,0.4,0.2c0.1,0.1,0.2,0.2,0.2,0.4c0,0.1-0.1,0.6-0.4,1.5c1-0.1,1.6-0.1,1.7-0.1
			c0.2,0,0.3,0,0.3,0.1c0.1,0,0.1,0.1,0.1,0.3c0,0.3-0.2,0.5-0.7,0.6L-2941.2,4098.9z"/>
		<path class="st15" d="M-2933.9,4100.4c-0.2,0.8-0.6,1.4-1.2,1.9c-0.6,0.5-1.2,0.8-1.8,0.8c-0.5,0-0.9-0.2-1.2-0.5
			c-0.3-0.4-0.5-0.8-0.5-1.3c0-0.8,0.3-1.7,0.9-2.5c0.6-0.8,1.3-1.2,2.1-1.2c0.6,0,1,0.2,1.4,0.6c0.3,0.4,0.5,0.9,0.5,1.5
			C-2933.8,4099.9-2933.8,4100.2-2933.9,4100.4L-2933.9,4100.4z M-2936.4,4098.9c-0.2,0.2-0.5,0.5-0.7,1c-0.2,0.4-0.3,0.9-0.3,1.3
			c0,0.3,0,0.5,0.1,0.7c0.1,0.2,0.2,0.3,0.4,0.3c0.4,0,0.8-0.2,1.3-0.7c0.4-0.5,0.7-1,0.7-1.6c0-0.3-0.1-0.6-0.2-0.8
			c-0.1-0.2-0.3-0.3-0.6-0.3C-2936,4098.6-2936.2,4098.7-2936.4,4098.9L-2936.4,4098.9z"/>
		<path class="st15" d="M-2931.6,4100.5l0.1-0.2c0.4-0.8,0.8-1.4,1.3-1.9c0.5-0.5,0.9-0.7,1.3-0.7c0.3,0,0.6,0.1,0.8,0.3
			s0.3,0.4,0.3,0.6c0,0.2,0,0.3-0.1,0.4c-0.1,0.1-0.2,0.2-0.3,0.2c-0.2,0-0.4-0.1-0.6-0.2c-0.1-0.1-0.2-0.2-0.3-0.2
			c-0.2,0-0.7,0.4-1.2,1.1c-0.6,0.8-0.9,1.6-1,2.6c0,0.3-0.1,0.5-0.2,0.6c-0.1,0.1-0.3,0.2-0.5,0.2c-0.2,0-0.4-0.1-0.5-0.4
			c-0.1-0.3-0.1-0.7-0.1-1.3c0-0.2,0-0.6,0-1c0-0.4,0.1-0.8,0.1-1.4c0-0.1,0-0.3,0-0.3c0-0.3,0.1-0.5,0.1-0.7c0-0.1,0.1-0.2,0.3-0.3
			s0.3-0.2,0.5-0.2c0.2,0,0.3,0.1,0.4,0.2c0.1,0.1,0.1,0.2,0.1,0.3c0,0.2-0.1,0.5-0.2,1c-0.1,0.2-0.1,0.4-0.1,0.6L-2931.6,4100.5z"
			/>
		<path class="st15" d="M-2923.1,4100c-0.1,0.8-0.1,1.6-0.3,2.3c-0.1,0.7-0.3,1.4-0.6,2c-0.3,0.6-0.5,1-0.8,1.2
			c-0.3,0.2-0.6,0.3-1.1,0.3c-0.4,0-0.9-0.1-1.3-0.2h0c-0.3-0.1-0.6-0.3-0.9-0.6c-0.3-0.2-0.4-0.4-0.4-0.6c0-0.2,0-0.3,0.1-0.4
			c0.1-0.1,0.2-0.1,0.3-0.1c0.1,0,0.2,0,0.3,0.1c0.4,0.5,1,0.8,1.8,0.8c0.3,0,0.6-0.3,0.9-1c0.3-0.7,0.5-1.5,0.6-2.4
			c-1,0.8-1.8,1.2-2.3,1.2c-0.4,0-0.6-0.1-0.8-0.4s-0.3-0.6-0.3-1s0.1-1,0.3-1.7c0.2-0.8,0.3-1.2,0.5-1.4c0.1-0.2,0.3-0.3,0.6-0.3
			c0.2,0,0.3,0.1,0.4,0.2c0.1,0.1,0.1,0.3,0.1,0.4c0,0-0.1,0.3-0.4,0.8c-0.3,0.6-0.4,1.1-0.4,1.6c0,0.2,0,0.4,0.1,0.5
			c0.1,0.1,0.1,0.2,0.2,0.2c0.2,0,0.3,0,0.6-0.1c0.2-0.1,0.5-0.3,0.8-0.5c0.3-0.2,0.5-0.4,0.6-0.5s0.2-0.3,0.2-0.5
			c0.1-0.2,0.1-0.6,0.1-1.3c0-0.4,0-0.6,0.1-0.7c0-0.1,0.1-0.2,0.2-0.3c0.1-0.1,0.2-0.1,0.4-0.1c0.2,0,0.4,0,0.5,0.1
			c0.1,0.1,0.1,0.3,0.1,0.6L-2923.1,4100z"/>
		<path class="st15" d="M-2912.8,4101.2c0.2,0,0.4,0.1,0.4,0.4c0,0.3-0.4,0.7-1.1,1.1c-0.7,0.4-1.4,0.7-2.1,0.7
			c-0.6,0-1.1-0.2-1.6-0.6s-0.7-1-0.7-1.7c0-0.8,0.3-1.6,0.8-2.5c0.5-0.9,1.2-1.7,1.9-2.3c0.8-0.6,1.5-0.9,2.3-0.9
			c0.4,0,0.8,0.1,1,0.4c0.3,0.3,0.4,0.6,0.4,0.9c0,0.4,0,0.6-0.1,0.8c-0.1,0.2-0.2,0.3-0.4,0.4c-0.2,0.1-0.3,0.2-0.5,0.2
			c-0.1,0-0.2,0-0.3-0.1c-0.1-0.1-0.1-0.2-0.1-0.4c0-0.1,0-0.3,0.1-0.5c0.1-0.2,0.1-0.4,0.1-0.5c0-0.2-0.1-0.3-0.2-0.3
			c-0.5,0-1,0.3-1.6,0.8c-0.6,0.5-1.1,1.1-1.5,1.9c-0.4,0.7-0.6,1.4-0.6,2c0,0.4,0.1,0.7,0.3,1c0.2,0.3,0.5,0.4,1,0.4
			c0.2,0,0.6-0.1,0.9-0.2s0.7-0.3,1-0.5C-2913.1,4101.3-2912.9,4101.2-2912.8,4101.2z"/>
		<path class="st15" d="M-2909.8,4100.6c0.5-1,1-1.7,1.4-2.1c0.4-0.4,0.8-0.5,1.2-0.5c0.3,0,0.5,0.1,0.7,0.3
			c0.2,0.2,0.3,0.7,0.4,1.5c0,0.4,0.1,0.7,0.1,0.9c0.1,0.2,0.1,0.4,0.2,0.6c0.1,0.2,0.2,0.4,0.3,0.5c0.1,0.1,0.1,0.2,0.1,0.4
			s-0.1,0.2-0.2,0.3s-0.2,0.1-0.4,0.1c-0.3,0-0.5-0.2-0.8-0.5s-0.4-0.8-0.4-1.3c-0.1-0.7-0.1-1.1-0.2-1.3c-0.1-0.2-0.2-0.3-0.3-0.3
			c-0.2,0-0.6,0.4-1.1,1.1c-0.5,0.8-0.9,1.4-1.2,1.8c-0.1,0.3-0.3,0.6-0.3,0.7c-0.1,0.1-0.2,0.2-0.3,0.2c-0.2,0-0.4,0-0.5-0.1
			c-0.1-0.1-0.2-0.2-0.2-0.4c0-0.1,0-0.4,0.1-0.8c0.3-1.7,0.6-3.6,0.8-5.6c0.1-0.5,0.2-0.8,0.3-1c0.1-0.2,0.3-0.3,0.4-0.3
			c0.2,0,0.3,0.1,0.4,0.2s0.2,0.3,0.2,0.6c0,0.4,0,0.8-0.1,1.3s-0.3,1.2-0.5,2.3C-2909.6,4099.8-2909.7,4100.3-2909.8,4100.6z"/>
		<path class="st15" d="M-2900.3,4101.2c0,0.3-0.3,0.7-0.9,1.2c-0.6,0.5-1.2,0.7-1.9,0.7c-0.5,0-1-0.2-1.3-0.5
			c-0.3-0.3-0.5-0.8-0.5-1.4c0-0.9,0.3-1.8,1-2.6s1.3-1.2,2.1-1.2c0.4,0,0.7,0.1,0.9,0.3c0.2,0.2,0.3,0.5,0.3,0.8
			c0,0.6-0.3,1.1-0.8,1.6c-0.5,0.5-1.2,0.9-2.1,1.1c-0.1,0-0.1,0.1-0.1,0.2c0,0.2,0.1,0.3,0.2,0.4c0.1,0.1,0.3,0.2,0.6,0.2
			c0.7,0,1.3-0.3,1.9-1c0.1-0.1,0.2-0.2,0.4-0.2C-2900.4,4100.9-2900.3,4101-2900.3,4101.2z M-2903.6,4100.3c0.5-0.1,1-0.3,1.4-0.7
			c0.4-0.3,0.6-0.6,0.6-0.9c0-0.1,0-0.2-0.1-0.3c-0.1-0.1-0.1-0.1-0.2-0.1c-0.3,0-0.6,0.2-0.9,0.6
			C-2903.2,4099.4-2903.5,4099.9-2903.6,4100.3z"/>
		<path class="st15" d="M-2898.1,4103.1c-0.5,0-0.9-0.1-1.2-0.4c-0.3-0.3-0.4-0.7-0.4-1.2c0-0.8,0.3-1.7,1-2.7c0.7-1,1.3-1.4,2-1.4
			c0.3,0,0.6,0.2,0.8,0.5c0.2,0.3,0.3,0.6,0.3,1c0,0.3-0.1,0.5-0.2,0.6c-0.1,0.1-0.2,0.2-0.3,0.2c-0.3,0-0.5-0.2-0.6-0.7
			c0-0.3-0.1-0.5-0.2-0.5c-0.3,0-0.6,0.4-1,1.1c-0.4,0.7-0.6,1.4-0.6,1.9c0,0.4,0.2,0.7,0.7,0.7c0.5,0,1.1-0.2,1.6-0.6
			c0.3-0.2,0.4-0.3,0.6-0.3c0.2,0,0.3,0.1,0.3,0.3c0,0.3-0.3,0.6-0.9,1C-2896.8,4102.9-2897.4,4103.1-2898.1,4103.1z"/>
		<path class="st15" d="M-2889.9,4098.8L-2889.9,4098.8L-2889.9,4098.8c-0.2,0.1-0.3,0.2-0.5,0.3c-0.2,0.1-0.4,0.3-0.7,0.5
			c-0.3,0.2-0.4,0.4-0.6,0.5c-0.1,0.1-0.2,0.2-0.2,0.2c0,0.1,0.2,0.3,0.6,0.7c0.4,0.4,0.7,0.7,0.9,0.9c0.2,0.2,0.4,0.3,0.7,0.3
			l0.2,0c0.1,0,0.1,0,0.2,0.1c0,0,0.1,0.1,0.1,0.2c0,0.1-0.1,0.3-0.2,0.5s-0.5,0.3-0.9,0.3c-0.2,0-0.5-0.1-0.7-0.3
			c-0.2-0.2-0.6-0.6-1.1-1.2c-0.4-0.5-0.6-0.7-0.7-0.7c0,0-0.1,0.1-0.2,0.2c-0.1,0.1-0.2,0.2-0.2,0.3v0c-0.1,0.3-0.1,0.6-0.1,1.1
			c0,0.2-0.1,0.4-0.2,0.5c-0.1,0.1-0.3,0.2-0.5,0.2c-0.2,0-0.3-0.1-0.4-0.2c-0.1-0.1-0.2-0.2-0.2-0.3c0-0.1,0-0.4,0.1-0.8
			c0.2-0.8,0.3-1.8,0.4-3.1c0.1-1,0.2-1.8,0.3-2.4c0.1-0.6,0.1-0.9,0.2-1.1c0.1-0.2,0.2-0.3,0.3-0.4c0.1-0.1,0.3-0.2,0.4-0.2
			c0.1,0,0.3,0.1,0.3,0.2c0.1,0.1,0.1,0.3,0.1,0.4c0,0.2-0.1,1-0.4,2.5l-0.1,0.6h0c-0.1,0.9-0.2,1.5-0.2,1.6l1.5-1.4
			c0.8-0.7,1.3-1.1,1.7-1.1c0.3,0,0.5,0.1,0.5,0.4C-2889.4,4098.4-2889.6,4098.6-2889.9,4098.8z"/>
		<path class="st15" d="M-2884.2,4101.2c0,0.3-0.3,0.7-0.9,1.2c-0.6,0.5-1.2,0.7-1.9,0.7c-0.5,0-1-0.2-1.3-0.5
			c-0.3-0.3-0.5-0.8-0.5-1.4c0-0.9,0.3-1.8,1-2.6s1.3-1.2,2.1-1.2c0.4,0,0.7,0.1,0.9,0.3c0.2,0.2,0.3,0.5,0.3,0.8
			c0,0.6-0.3,1.1-0.8,1.6c-0.5,0.5-1.2,0.9-2.1,1.1c-0.1,0-0.1,0.1-0.1,0.2c0,0.2,0.1,0.3,0.2,0.4c0.1,0.1,0.3,0.2,0.6,0.2
			c0.7,0,1.3-0.3,1.9-1c0.1-0.1,0.2-0.2,0.4-0.2C-2884.3,4100.9-2884.2,4101-2884.2,4101.2z M-2887.5,4100.3c0.5-0.1,1-0.3,1.4-0.7
			c0.4-0.3,0.6-0.6,0.6-0.9c0-0.1,0-0.2-0.1-0.3c-0.1-0.1-0.1-0.1-0.2-0.1c-0.3,0-0.6,0.2-0.9,0.6
			C-2887.1,4099.4-2887.4,4099.9-2887.5,4100.3z"/>
		<path class="st15" d="M-2879.9,4101.2c-0.8,1.2-1.7,1.8-2.5,1.8c-0.3,0-0.6-0.1-0.8-0.4c-0.2-0.3-0.3-0.6-0.3-1
			c0-0.8,0.3-1.7,1-2.5c0.7-0.8,1.4-1.3,2.1-1.3c0.4,0,0.7,0.1,0.9,0.3c0.2-1.1,0.4-1.7,0.4-2c0.1-0.5,0.2-0.8,0.2-1
			c0.1-0.2,0.2-0.3,0.3-0.4c0.1-0.1,0.2-0.1,0.3-0.1c0.2,0,0.3,0.1,0.4,0.2s0.1,0.3,0.1,0.5c0,0.1-0.1,0.4-0.2,0.8
			c-0.2,0.7-0.5,1.6-0.7,2.5s-0.3,1.8-0.3,2.4c0,0.6,0.1,0.8,0.4,0.8c0.1,0,0.3,0,0.4-0.1c0.1-0.1,0.2-0.1,0.3-0.1
			c0.2,0,0.2,0.1,0.2,0.3c0,0.2-0.2,0.4-0.5,0.7c-0.3,0.2-0.6,0.3-0.9,0.3c-0.3,0-0.6-0.2-0.7-0.5
			C-2879.9,4102.1-2880,4101.7-2879.9,4101.2z M-2880.5,4098.7c-0.4,0-0.9,0.3-1.3,1s-0.7,1.2-0.7,1.8c0,0.3,0.1,0.5,0.4,0.5
			c0.4,0,0.9-0.4,1.4-1.1c0.6-0.7,0.8-1.3,0.8-1.7c0-0.1-0.1-0.2-0.2-0.3C-2880.2,4098.8-2880.3,4098.7-2880.5,4098.7z"/>
	</g>
	<rect id="Rectangle_2497" x="-2982.8" y="4144.1" class="st16" width="48.6" height="56.5"/>
	<rect id="Rectangle_2498" x="-2980.1" y="4183.5" class="st17" width="20.8" height="1.2"/>
	<rect id="Rectangle_2499" x="-2980.1" y="4185.4" class="st17" width="20.8" height="1.2"/>
	<rect id="Rectangle_2500" x="-2980.1" y="4187.3" class="st17" width="20.8" height="1.2"/>
	<rect id="Rectangle_2501" x="-2980.1" y="4189.2" class="st17" width="20.8" height="1.2"/>
	<rect id="Rectangle_2502" x="-2980.1" y="4191.1" class="st17" width="20.8" height="1.2"/>
	<rect id="Rectangle_2503" x="-2980.1" y="4193" class="st17" width="20.8" height="1.2"/>
	<rect id="Rectangle_2504" x="-2980.1" y="4194.9" class="st17" width="20.8" height="1.2"/>
	<rect id="Rectangle_2505" x="-2980.1" y="4196.8" class="st17" width="20.8" height="1.2"/>
	<rect id="Rectangle_2506" x="-2956.9" y="4183.5" class="st17" width="20.8" height="1.2"/>
	<rect id="Rectangle_2507" x="-2956.9" y="4185.4" class="st17" width="20.8" height="1.2"/>
	<rect id="Rectangle_2508" x="-2956.9" y="4187.3" class="st17" width="20.8" height="1.2"/>
	<rect id="Rectangle_2509" x="-2956.9" y="4189.2" class="st17" width="20.8" height="1.2"/>
	<rect id="Rectangle_2510" x="-2956.9" y="4191.1" class="st17" width="20.8" height="1.2"/>
	<rect id="Rectangle_2511" x="-2956.9" y="4193" class="st17" width="20.8" height="1.2"/>
	<rect id="Rectangle_2512" x="-2956.9" y="4194.9" class="st17" width="20.8" height="1.2"/>
	<rect id="Rectangle_2513" x="-2956.9" y="4196.8" class="st17" width="20.8" height="1.2"/>
	<rect id="Rectangle_2514" x="-2980.1" y="4175.5" class="st18" width="3.8" height="2.8"/>
	<rect id="Rectangle_2515" x="-2980.1" y="4179.6" class="st19" width="3.8" height="2.8"/>
	<rect id="Rectangle_2516" x="-2957.6" y="4175.5" class="st20" width="3.8" height="2.8"/>
	<rect id="Rectangle_2517" x="-2957.6" y="4179.6" class="st21" width="3.8" height="2.8"/>
	<rect id="Rectangle_2518" x="-2974.1" y="4176.4" class="st22" width="4.5" height="1.1"/>
	<rect id="Rectangle_2519" x="-2974.1" y="4180.6" class="st22" width="4.5" height="1"/>
	<rect id="Rectangle_2520" x="-2952.1" y="4176.4" class="st22" width="4.5" height="1.1"/>
	<rect id="Rectangle_2521" x="-2952.1" y="4180.6" class="st22" width="4.5" height="1"/>
	<path id="Path_11452" class="st17" d="M-2963.4,4150.6h0.3c0.7,0,1.2-0.3,1.2-1c0-0.6-0.4-1-1.1-1h-0.4L-2963.4,4150.6
		L-2963.4,4150.6z M-2964.2,4148.1c0.4-0.1,0.7-0.1,1.1-0.1c0.5,0,1,0.1,1.5,0.3c0.4,0.2,0.6,0.7,0.6,1.1c0,0.5-0.2,0.9-0.6,1.2
		c-0.5,0.3-1.1,0.4-1.6,0.4c-0.3,0-0.6,0-0.9-0.1V4148.1z"/>
	<path id="Path_11453" class="st17" d="M-2958.9,4149.8l-0.2-0.7l-0.2-0.6l0,0c-0.1,0.2-0.1,0.4-0.1,0.6l-0.2,0.7H-2958.9z
		 M-2959.8,4150.3l-0.3,0.8h-0.9l1.1-3h1.1l1.1,3h-0.9l-0.3-0.8H-2959.8z"/>
	<path id="Path_11454" class="st17" d="M-2957,4148.7h-0.9v-0.6h2.7v0.6h-0.9v2.4h-0.9L-2957,4148.7z"/>
	<path id="Path_11455" class="st17" d="M-2953.4,4149.8l-0.2-0.7l-0.2-0.6l0,0l-0.2,0.6l-0.2,0.7H-2953.4z M-2954.3,4150.3l-0.3,0.8
		h-0.9l1.1-3h1.1l1.1,3h-0.9l-0.3-0.8H-2954.3z"/>
	<path id="Path_11456" class="st17" d="M-2937.5,4158.3h-7.1v-3.8h7.1V4158.3z M-2937.5,4163.1v0.3h-7.1v-4.1h7L-2937.5,4163.1
		L-2937.5,4163.1z M-2937.6,4168.4h-6.9v-4.1h6.9V4168.4z M-2937.6,4172.9h-6.9v-3.6h6.9V4172.9z M-2946.2,4163.3h-6.9v-4.1h6.9
		V4163.3z M-2946.2,4168.1L-2946.2,4168.1l-0.1,0.3h-6.9v-2h0.1v-1h-0.1v-1h7V4168.1L-2946.2,4168.1z M-2946.2,4172.9h-6.9v-3.6h6.9
		V4172.9z M-2954.7,4158.3h-6.9v-3.8h6.9V4158.3z M-2954.7,4163.3h-7v-4.1h6.9L-2954.7,4163.3L-2954.7,4163.3z M-2954.7,4168.4h-6.9
		v-4l0,0v-0.1h6.9v1.7l0,0V4168.4L-2954.7,4168.4z M-2954.7,4172.9h-6.9v-3.6h6.9V4172.9z M-2963.2,4163.3h-6.9v-4.1h6.9v0.3l0,0
		L-2963.2,4163.3L-2963.2,4163.3z M-2963.2,4168.4h-6.9v-1.3l0,0v-2.8h6.9L-2963.2,4168.4L-2963.2,4168.4z M-2963.2,4172.9h-6.9
		v-3.6h6.9V4172.9z M-2971.8,4158.3h-7.3v-3.8h7.3V4158.3z M-2971.8,4163.3h-7.3v-4.1h7.3V4163.3z M-2971.8,4168
		c-0.1,0.1-0.1,0.1-0.2,0.1v0.3h-7.1v-4.1h7.3L-2971.8,4168L-2971.8,4168z M-2971.8,4172.9h-7.3v-3.6h7.3L-2971.8,4172.9
		L-2971.8,4172.9z M-2970.2,4154.5h6.9v3.8h-6.9V4154.5z M-2953.1,4154.5h6.9v3.8h-6.9V4154.5z M-2980.6,4153.6v20.3h44.5v-20.3
		H-2980.6z"/>
	<path id="Path_11457" class="st18" d="M-2979.1,4172.7l-0.6-0.7l8.6-5.6l4.8,2l8.3-5l4.1,3.1l6.1-8.2l11,8.5l-0.7,0.6l-10.2-7.9
		l-6.1,8.2l-4.4-3.3l-8.2,4.9l-4.8-2L-2979.1,4172.7z"/>
	<path id="Path_11458" class="st19" d="M-2949.7,4166.3l-9.2-5.3l-6,2.2l-3.6-0.3l-6.3,2.4l-4.8,1l-0.2-0.8l4.7-0.9l6.5-2.6l3.6,0.4
		l6.3-2.3l9.2,5.3l12.7-5.6l0.4,0.7L-2949.7,4166.3z"/>
	<path id="Path_11459" class="st20" d="M-2966.8,4171.1l-8.2-4l-4.8,2l-0.4-0.7l5.2-2.2l8.2,4l8.6-3.6l6.9,3l9.2-4.5l5.2-1.2
		l0.3,0.8l-5.1,1.2l-9.4,4.6l-7-3L-2966.8,4171.1z"/>
	<path id="Path_11460" class="st21" d="M-2979.6,4170.5l-0.4-0.7l12.6-5.1l2.7,0.9l12.6-8.6l4.6,4.1l10.6-6l0.5,0.7l-11.2,6.4
		l-4.5-4.1l-12.3,8.5l-2.8-0.9L-2979.6,4170.5z"/>
	<rect id="Rectangle_2522" x="-2980.6" y="4155.1" class="st17" width="1.5" height="18.1"/>
	<rect id="Rectangle_2523" x="-2937.7" y="4153.6" class="st17" width="1.6" height="20.3"/>
	<path id="Path_11461" class="st12" d="M-2927.6,4199.7L-2927.6,4199.7c-0.1-0.9-0.2-1.8-0.3-2.9c-0.3-5,0.8-7.1-0.1-10.7
		s-2.3-1.9-3.9-3.4s-2.4-0.6-4.6-1.1c-2.2-0.6-1.6-2-3.6-3.5c-1.1-0.9-2.7-0.8-3.7,0.2c0,0-2.6-7.7-4.1-11.6
		c-1.5-3.9-3.4-3.9-4.2-1.8s3.2,12.8,3.6,15.7c0.3,2.9,0.4,9.9,0.4,9.9c-1.1-1.7-1.9-3.6-2.2-5.6c-0.7-2.8-3.9-4.8-5.9-3.6
		s0.2,0.8,0.6,4.3c0.3,2.9,0.6,2.4,1.7,5.4c0.2,0.6,0.5,1.2,0.7,2.2c0.1,0.2,0.1,0.3,0.2,0.5c1.6,4.6,3,4.6,6.6,8.7l2.4,3.2
		c0.1,0.1,0.3,0.2,0.5,0.3c0.2,0.1,0.4,0.1,0.6,0c1.8-0.4,8.4-1.8,12.5-2.7C-2928.6,4203-2927.4,4201.4-2927.6,4199.7
		L-2927.6,4199.7z"/>
	<g class="st14">
		<path class="st15" d="M-2958.9,4210.6c-0.1,0.3-0.1,0.5-0.1,0.7c0,0.1,0,0.3-0.1,0.7c-0.1,0.7-0.2,1.2-0.2,1.4
			c0,0.4,0,0.9,0.1,1.3c0,0.3,0,0.5-0.2,0.7c-0.2,0.1-0.3,0.2-0.5,0.2c-0.2,0-0.4-0.1-0.5-0.3c-0.1-0.2-0.1-0.5-0.1-1
			c0-0.3,0.1-1,0.2-2.2l0.3-1.9c0.1-0.3,0.1-0.5,0.1-0.8c0-0.4,0.1-0.6,0.1-0.7c0.1-0.1,0.2-0.2,0.3-0.3c0.1-0.1,0.3-0.1,0.3-0.1
			c0.2,0,0.3,0.1,0.4,0.2c0.1,0.2,0.1,0.3,0.1,0.6L-2958.9,4210.6z"/>
		<path class="st15" d="M-2953.6,4214.8c-0.2-0.3-0.3-0.8-0.3-1.6c-0.1-0.8-0.2-1.3-0.5-1.3c-0.2,0-0.6,0.4-1.2,1.3
			c-0.6,0.9-0.9,1.5-1.1,1.9c0,0.1-0.1,0.2-0.2,0.3c-0.1,0.1-0.2,0.1-0.2,0.1c-0.5,0-0.7-0.2-0.7-0.7c0-0.2,0-0.5,0.1-1
			c0.1-0.7,0.2-1.6,0.2-2.6c0-0.2,0.1-0.3,0.2-0.5c0.1-0.2,0.3-0.3,0.4-0.3c0.2,0,0.3,0,0.4,0.1c0.1,0.1,0.2,0.3,0.2,0.8
			c0,0.3-0.1,0.9-0.3,1.8c0.7-1.7,1.5-2.5,2.4-2.5c0.8,0,1.2,0.6,1.3,1.8c0.1,1.2,0.3,1.8,0.4,1.8c0.1,0,0.2,0,0.3,0
			c0.1,0,0.2-0.1,0.3-0.1c0.2,0,0.2,0.1,0.2,0.3c0,0.2-0.1,0.3-0.3,0.5c-0.2,0.2-0.5,0.3-0.8,0.3
			C-2953.1,4215.3-2953.4,4215.1-2953.6,4214.8L-2953.6,4214.8z"/>
		<path class="st15" d="M-2950.1,4215.4c0-0.2-0.1-0.7-0.4-1.4c-0.5-1.4-0.8-2.4-0.8-3c0-0.5,0.2-0.8,0.6-0.8c0.4,0,0.6,0.2,0.6,0.7
			c0,0.3,0,0.5,0,0.7c0,0.1,0.1,0.4,0.2,0.7c0.1,0.3,0.2,0.6,0.3,0.9c0,0.1,0.1,0.3,0.2,0.5c0,0.1,0.1,0.2,0.1,0.3
			c0,0,0.1-0.2,0.2-0.4c0.1-0.1,0.3-0.5,0.7-1.2c0.4-0.6,0.7-1.1,1-1.5s0.5-0.6,0.7-0.7s0.3-0.1,0.5-0.1c0.2,0,0.3,0.1,0.4,0.2
			c0.1,0.1,0.2,0.2,0.2,0.4c0,0.2-0.1,0.4-0.4,0.6c-0.3,0.2-0.6,0.6-1.1,1.3c-0.5,0.7-1,1.5-1.5,2.5c-0.3,0.6-0.6,0.8-0.8,0.8
			C-2949.7,4215.9-2949.9,4215.7-2950.1,4215.4z"/>
		<path class="st15" d="M-2941,4213c-0.2,0.8-0.6,1.4-1.2,1.9c-0.6,0.5-1.2,0.8-1.8,0.8c-0.5,0-0.9-0.2-1.2-0.5
			c-0.3-0.4-0.5-0.8-0.5-1.3c0-0.8,0.3-1.7,0.9-2.5c0.6-0.8,1.3-1.2,2.1-1.2c0.6,0,1,0.2,1.4,0.6c0.3,0.4,0.5,0.9,0.5,1.5
			C-2940.9,4212.5-2940.9,4212.8-2941,4213L-2941,4213z M-2943.5,4211.5c-0.2,0.2-0.5,0.5-0.7,1c-0.2,0.4-0.3,0.9-0.3,1.3
			c0,0.3,0,0.5,0.1,0.7c0.1,0.2,0.2,0.3,0.4,0.3c0.4,0,0.8-0.2,1.3-0.7c0.4-0.5,0.7-1,0.7-1.6c0-0.3-0.1-0.6-0.2-0.8
			c-0.1-0.2-0.3-0.3-0.6-0.3C-2943.1,4211.2-2943.3,4211.3-2943.5,4211.5L-2943.5,4211.5z"/>
		<path class="st15" d="M-2939.6,4212.3L-2939.6,4212.3c0.1-0.6,0.2-0.9,0.2-1c0-0.2,0.1-0.4,0.2-0.6c0.1-0.2,0.3-0.2,0.4-0.2
			c0.2,0,0.4,0.1,0.5,0.2c0.1,0.1,0.2,0.2,0.2,0.4s-0.1,0.4-0.2,0.8l0,0.1c-0.2,0.6-0.3,1.1-0.3,1.5c0,0.4-0.1,0.7-0.1,1
			c0,0.2,0,0.5,0.1,0.8c0,0.1,0,0.1,0,0.1c0,0.1-0.1,0.2-0.2,0.3s-0.3,0.2-0.5,0.2c-0.4,0-0.6-0.3-0.6-1c0-0.6,0.1-1.2,0.2-2
			C-2939.7,4212.6-2939.7,4212.4-2939.6,4212.3z M-2937.3,4208.2c0,0.2-0.1,0.4-0.3,0.6c-0.2,0.2-0.4,0.3-0.5,0.3
			c-0.2,0-0.4-0.1-0.5-0.2s-0.2-0.3-0.2-0.5c0-0.2,0.1-0.4,0.2-0.6c0.2-0.1,0.4-0.2,0.6-0.2c0.2,0,0.4,0.1,0.5,0.2
			C-2937.3,4207.9-2937.3,4208.1-2937.3,4208.2z"/>
		<path class="st15" d="M-2935.7,4215.8c-0.5,0-0.9-0.1-1.2-0.4c-0.3-0.3-0.4-0.7-0.4-1.2c0-0.8,0.3-1.7,1-2.7c0.7-1,1.3-1.4,2-1.4
			c0.3,0,0.6,0.2,0.8,0.5c0.2,0.3,0.3,0.6,0.3,1c0,0.3-0.1,0.5-0.2,0.6c-0.1,0.1-0.2,0.2-0.3,0.2c-0.3,0-0.5-0.2-0.6-0.7
			c0-0.3-0.1-0.5-0.2-0.5c-0.3,0-0.6,0.4-1,1.1c-0.4,0.7-0.6,1.4-0.6,1.9c0,0.4,0.2,0.7,0.7,0.7c0.5,0,1.1-0.2,1.6-0.6
			c0.3-0.2,0.4-0.3,0.6-0.3c0.2,0,0.3,0.1,0.3,0.3c0,0.3-0.3,0.6-0.9,1C-2934.4,4215.6-2935,4215.8-2935.7,4215.8z"/>
		<path class="st15" d="M-2927.7,4213.8c0,0.3-0.3,0.7-0.9,1.2c-0.6,0.5-1.2,0.7-1.9,0.7c-0.5,0-1-0.2-1.3-0.5
			c-0.3-0.3-0.5-0.8-0.5-1.4c0-0.9,0.3-1.8,1-2.6s1.3-1.2,2.1-1.2c0.4,0,0.7,0.1,0.9,0.3c0.2,0.2,0.3,0.5,0.3,0.8
			c0,0.6-0.3,1.1-0.8,1.6c-0.5,0.5-1.2,0.9-2.1,1.1c-0.1,0-0.1,0.1-0.1,0.2c0,0.2,0.1,0.3,0.2,0.4c0.1,0.1,0.3,0.2,0.6,0.2
			c0.7,0,1.3-0.3,1.9-1c0.1-0.1,0.2-0.2,0.4-0.2C-2927.8,4213.5-2927.7,4213.6-2927.7,4213.8z M-2931,4212.9c0.5-0.1,1-0.3,1.4-0.7
			c0.4-0.3,0.6-0.6,0.6-0.9c0-0.1,0-0.2-0.1-0.3c-0.1-0.1-0.1-0.1-0.2-0.1c-0.3,0-0.6,0.2-0.9,0.6
			C-2930.6,4212-2930.8,4212.5-2931,4212.9z"/>
		<path class="st15" d="M-2917.8,4213.8c0.2,0,0.4,0.1,0.4,0.4c0,0.3-0.4,0.7-1.1,1.1c-0.7,0.4-1.4,0.7-2.1,0.7
			c-0.6,0-1.1-0.2-1.6-0.6s-0.7-1-0.7-1.7c0-0.8,0.3-1.6,0.8-2.5c0.5-0.9,1.2-1.7,1.9-2.3c0.8-0.6,1.5-0.9,2.3-0.9
			c0.4,0,0.8,0.1,1,0.4c0.3,0.3,0.4,0.6,0.4,0.9c0,0.4,0,0.6-0.1,0.8c-0.1,0.2-0.2,0.3-0.4,0.4c-0.2,0.1-0.3,0.2-0.5,0.2
			c-0.1,0-0.2,0-0.3-0.1c-0.1-0.1-0.1-0.2-0.1-0.4c0-0.1,0-0.3,0.1-0.5c0.1-0.2,0.1-0.4,0.1-0.5c0-0.2-0.1-0.3-0.2-0.3
			c-0.5,0-1,0.3-1.6,0.8c-0.6,0.5-1.1,1.1-1.5,1.9c-0.4,0.7-0.6,1.4-0.6,2c0,0.4,0.1,0.7,0.3,1c0.2,0.3,0.5,0.4,1,0.4
			c0.2,0,0.6-0.1,0.9-0.2s0.7-0.3,1-0.5C-2918.1,4213.9-2917.9,4213.8-2917.8,4213.8z"/>
		<path class="st15" d="M-2914.8,4213.2c0.5-1,1-1.7,1.4-2.1c0.4-0.4,0.8-0.5,1.2-0.5c0.3,0,0.5,0.1,0.7,0.3
			c0.2,0.2,0.3,0.7,0.4,1.5c0,0.4,0.1,0.7,0.1,0.9c0.1,0.2,0.1,0.4,0.2,0.6c0.1,0.2,0.2,0.4,0.3,0.5c0.1,0.1,0.1,0.2,0.1,0.4
			s-0.1,0.2-0.2,0.3s-0.2,0.1-0.4,0.1c-0.3,0-0.5-0.2-0.8-0.5s-0.4-0.8-0.4-1.3c-0.1-0.7-0.1-1.1-0.2-1.3c-0.1-0.2-0.2-0.3-0.3-0.3
			c-0.2,0-0.6,0.4-1.1,1.1c-0.5,0.8-0.9,1.4-1.2,1.8c-0.1,0.3-0.3,0.6-0.3,0.7c-0.1,0.1-0.2,0.2-0.3,0.2c-0.2,0-0.4,0-0.5-0.1
			c-0.1-0.1-0.2-0.2-0.2-0.4c0-0.1,0-0.4,0.1-0.8c0.3-1.7,0.6-3.6,0.8-5.6c0.1-0.5,0.2-0.8,0.3-1c0.1-0.2,0.3-0.3,0.4-0.3
			c0.2,0,0.3,0.1,0.4,0.2s0.2,0.3,0.2,0.6c0,0.4,0,0.8-0.1,1.3s-0.3,1.2-0.5,2.3C-2914.6,4212.4-2914.7,4212.9-2914.8,4213.2z"/>
		<path class="st15" d="M-2905.3,4213.8c0,0.3-0.3,0.7-0.9,1.2c-0.6,0.5-1.2,0.7-1.9,0.7c-0.5,0-1-0.2-1.3-0.5
			c-0.3-0.3-0.5-0.8-0.5-1.4c0-0.9,0.3-1.8,1-2.6s1.3-1.2,2.1-1.2c0.4,0,0.7,0.1,0.9,0.3c0.2,0.2,0.3,0.5,0.3,0.8
			c0,0.6-0.3,1.1-0.8,1.6c-0.5,0.5-1.2,0.9-2.1,1.1c-0.1,0-0.1,0.1-0.1,0.2c0,0.2,0.1,0.3,0.2,0.4c0.1,0.1,0.3,0.2,0.6,0.2
			c0.7,0,1.3-0.3,1.9-1c0.1-0.1,0.2-0.2,0.4-0.2C-2905.4,4213.5-2905.3,4213.6-2905.3,4213.8z M-2908.6,4212.9
			c0.5-0.1,1-0.3,1.4-0.7c0.4-0.3,0.6-0.6,0.6-0.9c0-0.1,0-0.2-0.1-0.3c-0.1-0.1-0.1-0.1-0.2-0.1c-0.3,0-0.6,0.2-0.9,0.6
			C-2908.2,4212-2908.5,4212.5-2908.6,4212.9z"/>
		<path class="st15" d="M-2903,4215.8c-0.5,0-0.9-0.1-1.2-0.4c-0.3-0.3-0.4-0.7-0.4-1.2c0-0.8,0.3-1.7,1-2.7c0.7-1,1.3-1.4,2-1.4
			c0.3,0,0.6,0.2,0.8,0.5c0.2,0.3,0.3,0.6,0.3,1c0,0.3-0.1,0.5-0.2,0.6c-0.1,0.1-0.2,0.2-0.3,0.2c-0.3,0-0.5-0.2-0.6-0.7
			c0-0.3-0.1-0.5-0.2-0.5c-0.3,0-0.6,0.4-1,1.1c-0.4,0.7-0.6,1.4-0.6,1.9c0,0.4,0.2,0.7,0.7,0.7c0.5,0,1.1-0.2,1.6-0.6
			c0.3-0.2,0.4-0.3,0.6-0.3c0.2,0,0.3,0.1,0.3,0.3c0,0.3-0.3,0.6-0.9,1C-2901.8,4215.6-2902.4,4215.8-2903,4215.8z"/>
		<path class="st15" d="M-2894.9,4211.4L-2894.9,4211.4L-2894.9,4211.4c-0.2,0.1-0.3,0.2-0.5,0.3c-0.2,0.1-0.4,0.3-0.7,0.5
			c-0.3,0.2-0.4,0.4-0.6,0.5c-0.1,0.1-0.2,0.2-0.2,0.2c0,0.1,0.2,0.3,0.6,0.7c0.4,0.4,0.7,0.7,0.9,0.9c0.2,0.2,0.4,0.3,0.7,0.3
			l0.2,0c0.1,0,0.1,0,0.2,0.1c0,0,0.1,0.1,0.1,0.2c0,0.1-0.1,0.3-0.2,0.5s-0.5,0.3-0.9,0.3c-0.2,0-0.5-0.1-0.7-0.3
			c-0.2-0.2-0.6-0.6-1.1-1.2c-0.4-0.5-0.6-0.7-0.7-0.7c0,0-0.1,0.1-0.2,0.2c-0.1,0.1-0.2,0.2-0.2,0.3v0c-0.1,0.3-0.1,0.6-0.1,1.1
			c0,0.2-0.1,0.4-0.2,0.5c-0.1,0.1-0.3,0.2-0.5,0.2c-0.2,0-0.3-0.1-0.4-0.2c-0.1-0.1-0.2-0.2-0.2-0.3c0-0.1,0-0.4,0.1-0.8
			c0.2-0.8,0.3-1.8,0.4-3.1c0.1-1,0.2-1.8,0.3-2.4c0.1-0.6,0.1-0.9,0.2-1.1c0.1-0.2,0.2-0.3,0.3-0.4c0.1-0.1,0.3-0.2,0.4-0.2
			c0.1,0,0.3,0.1,0.3,0.2c0.1,0.1,0.1,0.3,0.1,0.4c0,0.2-0.1,1-0.4,2.5l-0.1,0.6h0c-0.1,0.9-0.2,1.5-0.2,1.6l1.5-1.4
			c0.8-0.7,1.3-1.1,1.7-1.1c0.3,0,0.5,0.1,0.5,0.4C-2894.4,4211-2894.6,4211.3-2894.9,4211.4z"/>
		<path class="st15" d="M-2889.2,4213.8c0,0.3-0.3,0.7-0.9,1.2c-0.6,0.5-1.2,0.7-1.9,0.7c-0.5,0-1-0.2-1.3-0.5
			c-0.3-0.3-0.5-0.8-0.5-1.4c0-0.9,0.3-1.8,1-2.6s1.3-1.2,2.1-1.2c0.4,0,0.7,0.1,0.9,0.3c0.2,0.2,0.3,0.5,0.3,0.8
			c0,0.6-0.3,1.1-0.8,1.6c-0.5,0.5-1.2,0.9-2.1,1.1c-0.1,0-0.1,0.1-0.1,0.2c0,0.2,0.1,0.3,0.2,0.4c0.1,0.1,0.3,0.2,0.6,0.2
			c0.7,0,1.3-0.3,1.9-1c0.1-0.1,0.2-0.2,0.4-0.2C-2889.3,4213.5-2889.2,4213.6-2889.2,4213.8z M-2892.4,4212.9
			c0.5-0.1,1-0.3,1.4-0.7c0.4-0.3,0.6-0.6,0.6-0.9c0-0.1,0-0.2-0.1-0.3c-0.1-0.1-0.1-0.1-0.2-0.1c-0.3,0-0.6,0.2-0.9,0.6
			C-2892.1,4212-2892.3,4212.5-2892.4,4212.9z"/>
		<path class="st15" d="M-2884.9,4213.9c-0.8,1.2-1.7,1.8-2.5,1.8c-0.3,0-0.6-0.1-0.8-0.4c-0.2-0.3-0.3-0.6-0.3-1
			c0-0.8,0.3-1.7,1-2.5c0.7-0.8,1.4-1.3,2.1-1.3c0.4,0,0.7,0.1,0.9,0.3c0.2-1.1,0.4-1.7,0.4-2c0.1-0.5,0.2-0.8,0.2-1
			c0.1-0.2,0.2-0.3,0.3-0.4c0.1-0.1,0.2-0.1,0.3-0.1c0.2,0,0.3,0.1,0.4,0.2s0.1,0.3,0.1,0.5c0,0.1-0.1,0.4-0.2,0.8
			c-0.2,0.7-0.5,1.6-0.7,2.5s-0.3,1.8-0.3,2.4c0,0.6,0.1,0.8,0.4,0.8c0.1,0,0.3,0,0.4-0.1c0.1-0.1,0.2-0.1,0.3-0.1
			c0.2,0,0.2,0.1,0.2,0.3c0,0.2-0.2,0.4-0.5,0.7c-0.3,0.2-0.6,0.3-0.9,0.3c-0.3,0-0.6-0.2-0.7-0.5
			C-2884.9,4214.8-2884.9,4214.4-2884.9,4213.9z M-2885.4,4211.4c-0.4,0-0.9,0.3-1.3,1s-0.7,1.2-0.7,1.8c0,0.3,0.1,0.5,0.4,0.5
			c0.4,0,0.9-0.4,1.4-1.1c0.6-0.7,0.8-1.3,0.8-1.7c0-0.1-0.1-0.2-0.2-0.3C-2885.1,4211.4-2885.3,4211.4-2885.4,4211.4z"/>
	</g>
	<rect id="Rectangle_2524" x="-2989.6" y="4282.3" class="st23" width="24.2" height="12.8"/>
	<path id="Path_11462" class="st24" d="M-2989.6,4292v3.1h3.2c0.3-0.4,0.4-0.8,0.5-1.3c0-0.6-0.2-1.2-0.7-1.6
		C-2987.4,4291.4-2988.7,4291.3-2989.6,4292z"/>
	<path id="Path_11463" class="st24" d="M-2989.6,4285.5c0.9,0.7,2.2,0.6,3-0.2c0.4-0.4,0.7-1,0.7-1.6c0-0.5-0.2-1-0.5-1.4h-3.2
		V4285.5z"/>
	<path id="Path_11464" class="st24" d="M-2968.5,4282.3c-0.3,0.4-0.5,0.9-0.5,1.4c0,0.6,0.3,1.2,0.7,1.6c0.8,0.8,2.1,0.9,3,0.2v-3.2
		H-2968.5z"/>
	<path id="Path_11465" class="st24" d="M-2968.4,4292.2c-0.4,0.4-0.7,1-0.7,1.6c0,0.5,0.2,0.9,0.5,1.3h3.2v-3.1
		C-2966.3,4291.3-2967.6,4291.4-2968.4,4292.2z"/>
	<path id="Path_11466" class="st24" d="M-2977.5,4292.6c-2.1,0-3.9-1.8-3.8-3.9c0-2.1,1.8-3.9,3.9-3.8c2.1,0,3.8,1.7,3.8,3.9
		C-2973.6,4290.9-2975.4,4292.6-2977.5,4292.6z M-2968.7,4285.7c-0.5-0.5-0.8-1.2-0.9-2c0-0.5,0.1-1,0.4-1.4h-16.6
		c0.3,0.4,0.4,0.9,0.4,1.4c0,0.8-0.3,1.5-0.9,2c-0.5,0.5-1.3,0.8-2,0.9c-0.5,0-1-0.1-1.4-0.4v5.2c1.4-0.8,3.1-0.3,3.9,1.1
		c0.2,0.4,0.3,0.8,0.4,1.3c0,0.5-0.1,0.9-0.3,1.3h16.5c-0.2-0.4-0.3-0.9-0.3-1.3c0-0.7,0.3-1.5,0.9-2c0.9-0.9,2.3-1.1,3.4-0.5v-5.2
		c-0.4,0.3-0.9,0.4-1.4,0.4C-2967.4,4286.5-2968.2,4286.2-2968.7,4285.7L-2968.7,4285.7z"/>
	<path id="Path_11467" class="st24" d="M-2977.3,4290.8v0.7h-0.5v-0.7c-0.4,0-0.7-0.1-1.1-0.3l0.2-0.5c0.3,0.2,0.6,0.3,1,0.3
		c0.5,0,0.8-0.3,0.8-0.7s-0.2-0.6-0.7-0.8c-0.7-0.3-1.1-0.6-1.1-1.2c0-0.6,0.5-1.1,1.1-1.1v-0.7h0.5v0.7c0.3,0,0.6,0.1,0.9,0.3
		l-0.2,0.5c-0.3-0.2-0.6-0.3-0.9-0.3c-0.5,0-0.7,0.3-0.7,0.6c0,0.3,0.2,0.5,0.8,0.8c0.7,0.3,1.1,0.7,1.1,1.2
		C-2976.2,4290.3-2976.7,4290.7-2977.3,4290.8z"/>
	<path id="Path_11468" class="st25" d="M-2971,4255.1c-0.1-0.2-0.1-0.3-0.1-0.5c-0.2-0.8-0.7-1.5-1.3-2.1c-2.1-2.2-5.6-2.3-7.8-0.3
		s-2.3,5.6-0.3,7.8c1,1.1,2.5,1.8,4.1,1.8c1.8,0,3.6-0.9,4.6-2.4c0.4-0.5,0.7-1.2,0.8-1.8c0.1-0.1,0.1-0.3,0.1-0.5
		c0.1-0.3,0.1-0.6,0.1-0.9C-2970.8,4255.9-2970.9,4255.5-2971,4255.1z"/>
	<path id="Path_11469" class="st23" d="M-2976.4,4252.1c-2.4,0-4.2,1.9-4.2,4.3s1.9,4.2,4.3,4.2c2.3,0,4.2-1.9,4.2-4.3
		C-2972.1,4254-2974,4252.1-2976.4,4252.1C-2976.4,4252.1-2976.4,4252.1-2976.4,4252.1z M-2976.4,4252.6c2.1,0,3.7,1.7,3.7,3.8
		c0,2.1-1.7,3.7-3.8,3.7c-2.1,0-3.7-1.7-3.7-3.7C-2980.2,4254.3-2978.5,4252.6-2976.4,4252.6
		C-2976.4,4252.6-2976.4,4252.6-2976.4,4252.6L-2976.4,4252.6z"/>
	<path id="Path_11470" class="st23" d="M-2976.8,4258.9v-0.6c-0.4,0-0.8-0.1-1.1-0.3l0.2-0.7c0.3,0.2,0.7,0.3,1.1,0.3
		c0.4,0,0.6-0.1,0.6-0.4c0-0.3-0.2-0.4-0.7-0.5c-0.7-0.3-1.2-0.5-1.2-1.2c0-0.6,0.4-1,1.1-1.1v-0.6h0.7v0.6c0.3,0,0.6,0.1,0.9,0.2
		l-0.2,0.7c-0.3-0.1-0.6-0.2-0.9-0.2c-0.4,0-0.5,0.2-0.5,0.4s0.2,0.3,0.8,0.5c0.8,0.3,1.1,0.6,1.1,1.2c0,0.6-0.5,1.1-1.1,1.2v0.7
		h-0.7L-2976.8,4258.9z"/>
	<path id="Path_11471" d="M-2930,4272.9c0.1,14.4-11.5,26.1-25.9,26.3s-26.1-11.5-26.3-25.9s11.5-26.1,25.9-26.3c0.1,0,0.1,0,0.2,0
		C-2941.7,4247-2930.1,4258.5-2930,4272.9z"/>
	<ellipse id="Ellipse_166" class="st26" cx="-2956.1" cy="4272.9" rx="22.6" ry="22.4"/>
	<path id="Path_11472" class="st27" d="M-2969.9,4272c-0.2-0.3-0.3-0.6-0.3-0.9c0.1-0.6,0.6-1,1.2-0.9c0,0,0,0,0,0l13.3,1.6
		c0.6,0.1,1,0.6,0.9,1.2c-0.1,0.6-0.6,1-1.2,0.9l-13.3-1.6C-2969.5,4272.3-2969.7,4272.2-2969.9,4272z"/>
	<path id="Path_11473" class="st27" d="M-2956.3,4273.6c-0.3-0.2-0.3-0.6-0.2-0.9l8.6-15.9c0.2-0.3,0.7-0.4,1-0.2c0,0,0,0,0,0
		c0.4,0.2,0.5,0.7,0.3,1l-8.6,15.9c-0.2,0.3-0.7,0.4-1,0.2c0,0,0,0,0,0C-2956.1,4273.7-2956.2,4273.7-2956.3,4273.6z"/>
	<path id="Path_11474" class="st27" d="M-2945.6,4290.8L-2945.6,4290.8l-12.3-20.6c-0.1-0.3-0.1-0.6,0.2-0.7c0,0,0,0,0,0
		c0.3-0.1,0.6-0.1,0.7,0.2l12.2,20.6c0.1,0.3,0.1,0.6-0.2,0.7c0,0,0,0,0,0C-2945.2,4291.1-2945.5,4291-2945.6,4290.8z"/>
	<ellipse id="Ellipse_167" class="st27" cx="-2956.1" cy="4255.5" rx="1.2" ry="1.2"/>
	<path id="Path_11475" class="st27" d="M-2954.8,4290.4c0,0.7-0.5,1.2-1.2,1.2c-0.7,0-1.2-0.5-1.2-1.2s0.5-1.2,1.2-1.2c0,0,0,0,0,0
		C-2955.3,4289.2-2954.8,4289.7-2954.8,4290.4C-2954.8,4290.4-2954.8,4290.4-2954.8,4290.4z"/>
	<ellipse id="Ellipse_168" class="st27" cx="-2938.5" cy="4273.2" rx="1.2" ry="1.2"/>
	<ellipse id="Ellipse_169" class="st27" cx="-2973.6" cy="4273.2" rx="1.2" ry="1.2"/>
	<path id="Path_11476" class="st27" d="M-2946.5,4258c0,0.4-0.3,0.7-0.7,0.7s-0.7-0.3-0.7-0.7c0-0.4,0.3-0.7,0.7-0.7c0,0,0,0,0,0
		C-2946.8,4257.4-2946.5,4257.7-2946.5,4258z"/>
	<path id="Path_11477" class="st27" d="M-2940.1,4264.5c0,0.4-0.3,0.7-0.7,0.7c-0.3,0-0.6-0.2-0.7-0.6c0,0,0-0.1,0-0.1
		c0-0.4,0.3-0.7,0.7-0.7C-2940.4,4263.9-2940.1,4264.1-2940.1,4264.5z"/>
	<path id="Path_11478" class="st27" d="M-2940.2,4281.7c0,0.4-0.3,0.7-0.7,0.7s-0.7-0.3-0.7-0.7c0-0.4,0.3-0.7,0.7-0.7c0,0,0,0,0,0
		C-2940.4,4281.1-2940.2,4281.4-2940.2,4281.7z"/>
	<path id="Path_11479" class="st27" d="M-2946.6,4288.1c0,0.4-0.3,0.7-0.7,0.7s-0.7-0.3-0.7-0.7c0-0.4,0.3-0.7,0.7-0.7c0,0,0,0,0,0
		C-2946.9,4287.5-2946.6,4287.7-2946.6,4288.1C-2946.6,4288.1-2946.6,4288.1-2946.6,4288.1z"/>
	<ellipse id="Ellipse_170" class="st27" cx="-2964.6" cy="4288.1" rx="0.7" ry="0.7"/>
	<ellipse id="Ellipse_171" class="st27" cx="-2971" cy="4281.7" rx="0.7" ry="0.7"/>
	<path id="Path_11480" class="st27" d="M-2970.4,4264.5c0,0.4-0.3,0.7-0.7,0.7s-0.7-0.3-0.7-0.7c0-0.4,0.3-0.7,0.7-0.7c0,0,0,0,0,0
		C-2970.7,4263.9-2970.4,4264.1-2970.4,4264.5z"/>
	<path id="Path_11481" class="st27" d="M-2963.9,4258.1c0,0.4-0.3,0.7-0.7,0.7s-0.7-0.3-0.7-0.7c0-0.4,0.3-0.7,0.7-0.7c0,0,0,0,0,0
		C-2964.2,4257.4-2963.9,4257.7-2963.9,4258.1z"/>
	<path id="Path_11482" class="st25" d="M-2925.7,4264.2c-0.1-0.2-0.1-0.3-0.1-0.5c-0.2-0.8-0.7-1.5-1.3-2.1
		c-2.1-2.2-5.6-2.3-7.8-0.3c-2.2,2.1-2.3,5.6-0.3,7.8c1,1.1,2.5,1.8,4.1,1.8c1.8,0,3.6-0.9,4.6-2.4c0.4-0.5,0.7-1.2,0.8-1.8
		c0.1-0.1,0.1-0.3,0.1-0.5c0.1-0.3,0.1-0.6,0.1-0.9C-2925.6,4265-2925.6,4264.6-2925.7,4264.2z"/>
	<path id="Path_11483" class="st23" d="M-2931.2,4261.2c-2.4,0-4.2,1.9-4.2,4.3s1.9,4.2,4.3,4.2c2.3,0,4.2-1.9,4.2-4.3
		C-2926.9,4263.1-2928.8,4261.2-2931.2,4261.2C-2931.2,4261.2-2931.2,4261.2-2931.2,4261.2z M-2931.2,4261.7c2.1,0,3.7,1.7,3.7,3.8
		c0,2.1-1.7,3.7-3.8,3.7c-2.1,0-3.7-1.7-3.7-3.7C-2934.9,4263.4-2933.2,4261.7-2931.2,4261.7z"/>
	<path id="Path_11484" class="st23" d="M-2931.5,4268v-0.6c-0.4,0-0.8-0.1-1.1-0.3l0.2-0.7c0.3,0.2,0.7,0.3,1.1,0.3
		c0.4,0,0.6-0.1,0.6-0.4s-0.2-0.4-0.7-0.6c-0.7-0.3-1.2-0.5-1.2-1.2c0-0.6,0.5-1.1,1.1-1.1v-0.6h0.7v0.6c0.3,0,0.6,0.1,0.9,0.2
		l-0.2,0.7c-0.3-0.1-0.6-0.2-0.9-0.2c-0.4,0-0.5,0.2-0.5,0.3c0,0.2,0.2,0.3,0.8,0.5c0.8,0.3,1.1,0.6,1.1,1.2c0,0.6-0.5,1.1-1.1,1.2
		v0.7L-2931.5,4268z"/>
	<path id="Path_11535" class="st23" d="M-2948.1,4292.7l22-10.1l5.4,11.7l-22,10.1L-2948.1,4292.7z"/>
	<path id="Path_11485" class="st24" d="M-2944.1,4301.6l1.3,2.9l2.9-1.3c0.1-0.5,0-0.9-0.1-1.4c-0.3-0.5-0.7-1-1.3-1.2
		C-2942.3,4300.2-2943.6,4300.6-2944.1,4301.6z"/>
	<path id="Path_11486" class="st24" d="M-2946.9,4295.7c1.1,0.3,2.3-0.4,2.6-1.4c0.2-0.6,0.2-1.2-0.1-1.7c-0.2-0.5-0.6-0.8-1.1-1
		l-2.9,1.3L-2946.9,4295.7z"/>
	<path id="Path_11487" class="st24" d="M-2929.1,4284.1c-0.1,0.5-0.1,1,0.1,1.4c0.3,0.5,0.7,1,1.3,1.2c1.1,0.4,2.2-0.1,2.8-1
		l-1.3-2.9L-2929.1,4284.1z"/>
	<path id="Path_11488" class="st24" d="M-2924.8,4293c-0.2,0.6-0.2,1.2,0.1,1.8c0.2,0.4,0.5,0.8,0.9,1l3-1.4l-1.3-2.8
		C-2923.2,4291.3-2924.4,4291.9-2924.8,4293z"/>
	<path id="Path_11489" class="st24" d="M-2932.9,4297.1c-1.9,0.9-4.2,0.1-5.1-1.9c0,0,0,0,0,0c-0.9-1.9-0.1-4.2,1.8-5.1
		c0,0,0.1,0,0.1,0c1.9-0.9,4.2-0.1,5.1,1.9c0,0,0,0,0,0C-2930.1,4293.9-2931,4296.2-2932.9,4297.1z M-2927.9,4287.2
		c-0.7-0.3-1.3-0.8-1.6-1.4c-0.2-0.5-0.3-0.9-0.3-1.4l-15,6.9c0.4,0.3,0.7,0.7,0.9,1.1c0.3,0.7,0.3,1.5,0.1,2.2
		c-0.2,0.7-0.8,1.3-1.5,1.6c-0.4,0.2-0.9,0.3-1.4,0.3l2.2,4.7c0.8-1,2.1-1.4,3.2-1c0.7,0.3,1.3,0.8,1.6,1.4c0.2,0.4,0.3,0.9,0.3,1.4
		l15-6.8c-0.4-0.3-0.7-0.6-0.9-1c-0.3-0.7-0.3-1.5-0.1-2.2c0.5-1.2,1.6-1.9,2.9-1.8l-2.2-4.7c-0.3,0.4-0.7,0.7-1.1,0.9
		C-2926.4,4287.5-2927.2,4287.5-2927.9,4287.2L-2927.9,4287.2z"/>
	<path id="Path_11490" class="st24" d="M-2933.5,4295.4l0.3,0.7l-0.4,0.2l-0.3-0.7c-0.3,0.1-0.7,0.2-1.1,0.1l-0.1-0.5
		c0.4,0,0.7,0,1.1-0.1c0.5-0.2,0.6-0.6,0.4-0.9c-0.1-0.3-0.5-0.5-1-0.5c-0.7,0.1-1.3-0.1-1.5-0.6c-0.3-0.5-0.1-1.2,0.5-1.4l-0.3-0.7
		l0.4-0.2l0.3,0.6c0.3-0.1,0.6-0.2,0.9-0.1l0.1,0.5c-0.3,0-0.6,0-0.9,0.1c-0.3,0.1-0.5,0.5-0.4,0.9c0.1,0.3,0.4,0.4,1.1,0.4
		c0.8,0,1.3,0.1,1.5,0.7C-2932.7,4294.5-2932.9,4295.1-2933.5,4295.4z"/>
	<rect id="Rectangle_2526" x="-2951.2" y="4293.2" class="st23" width="24.2" height="12.8"/>
	<path id="Path_11491" class="st24" d="M-2951.2,4302.9v3.1h3.2c0.3-0.4,0.4-0.8,0.5-1.3c0-0.6-0.2-1.2-0.7-1.6
		C-2949,4302.3-2950.3,4302.2-2951.2,4302.9z"/>
	<path id="Path_11492" class="st24" d="M-2951.2,4296.3c0.9,0.7,2.2,0.6,3-0.2c0.4-0.4,0.7-1,0.7-1.6c0-0.5-0.2-1-0.5-1.4h-3.2
		V4296.3z"/>
	<path id="Path_11493" class="st24" d="M-2930.1,4293.2c-0.3,0.4-0.5,0.9-0.5,1.4c0,0.6,0.2,1.2,0.7,1.6c0.8,0.8,2.1,0.9,3,0.2v-3.2
		L-2930.1,4293.2L-2930.1,4293.2z"/>
	<path id="Path_11494" class="st24" d="M-2929.9,4303.1c-0.4,0.4-0.7,1-0.7,1.6c0,0.5,0.2,0.9,0.5,1.3h3.2v-3.1
		C-2927.8,4302.2-2929.1,4302.3-2929.9,4303.1z"/>
	<path id="Path_11495" class="st24" d="M-2939,4303.5c-2.1,0-3.9-1.7-3.9-3.9c0-2.1,1.7-3.9,3.9-3.9c2.1,0,3.9,1.7,3.9,3.8
		c0,0,0,0,0,0.1C-2935.2,4301.7-2936.9,4303.4-2939,4303.5L-2939,4303.5z M-2930.3,4296.5c-0.5-0.5-0.9-1.3-0.9-2
		c0-0.5,0.1-1,0.4-1.4h-16.6c0.3,0.4,0.4,0.9,0.4,1.4c0,0.8-0.3,1.5-0.9,2c-0.5,0.5-1.3,0.8-2,0.9c-0.5,0-1-0.1-1.4-0.4v5.2
		c1.1-0.6,2.5-0.4,3.4,0.5c0.5,0.5,0.9,1.3,0.9,2c0,0.5-0.1,0.9-0.3,1.3h16.5c-0.6-1.1-0.4-2.5,0.5-3.3c0.9-0.9,2.3-1.1,3.4-0.5
		v-5.2c-0.4,0.3-0.9,0.4-1.4,0.4C-2929,4297.4-2929.8,4297.1-2930.3,4296.5L-2930.3,4296.5z"/>
	<path id="Path_11496" class="st24" d="M-2938.8,4301.7v0.7h-0.5v-0.7c-0.4,0-0.7-0.1-1.1-0.3l0.2-0.5c0.3,0.2,0.6,0.3,1,0.3
		c0.5,0,0.8-0.3,0.8-0.7s-0.2-0.6-0.7-0.9c-0.7-0.3-1.1-0.6-1.1-1.2c0-0.6,0.5-1.1,1.1-1.1v-0.7h0.5v0.7c0.3,0,0.6,0.1,0.9,0.3
		l-0.2,0.5c-0.3-0.2-0.6-0.2-0.9-0.3c-0.5,0-0.7,0.3-0.7,0.6c0,0.3,0.2,0.5,0.8,0.8c0.7,0.3,1.1,0.7,1.1,1.2
		C-2937.7,4301.1-2938.2,4301.6-2938.8,4301.7z"/>
	<path id="Path_11497" class="st25" d="M-2957,4294.7c-0.1-0.2-0.1-0.3-0.1-0.5c-0.2-0.8-0.7-1.5-1.3-2.1c-2.1-2.2-5.6-2.3-7.8-0.3
		c-2.2,2.1-2.3,5.6-0.3,7.8c1,1.1,2.5,1.8,4.1,1.8c1.8,0,3.6-0.9,4.6-2.4c0.4-0.5,0.7-1.2,0.8-1.8c0.1-0.1,0.1-0.3,0.1-0.5
		c0.1-0.3,0.1-0.6,0.1-0.9C-2956.9,4295.4-2957,4295-2957,4294.7z"/>
	<path id="Path_11498" class="st23" d="M-2962.5,4291.6c-2.4,0-4.2,1.9-4.2,4.3s1.9,4.2,4.3,4.2c2.3,0,4.2-1.9,4.2-4.3
		C-2958.2,4293.5-2960.1,4291.6-2962.5,4291.6C-2962.4,4291.6-2962.4,4291.6-2962.5,4291.6z M-2962.5,4292.1c2.1,0,3.7,1.7,3.7,3.8
		s-1.7,3.7-3.8,3.7c-2.1,0-3.7-1.7-3.7-3.7C-2966.2,4293.8-2964.6,4292.2-2962.5,4292.1C-2962.5,4292.1-2962.5,4292.1-2962.5,4292.1
		z"/>
	<path id="Path_11499" class="st23" d="M-2962.8,4298.4v-0.6c-0.4,0-0.8-0.1-1.1-0.3l0.2-0.7c0.3,0.2,0.7,0.3,1.1,0.3
		c0.4,0,0.6-0.1,0.6-0.4s-0.2-0.4-0.7-0.6c-0.7-0.2-1.2-0.5-1.2-1.2c0-0.6,0.4-1,1.1-1.1v-0.6h0.7v0.6c0.3,0,0.6,0.1,0.9,0.2
		l-0.2,0.7c-0.3-0.1-0.6-0.2-0.9-0.2c-0.4,0-0.5,0.2-0.5,0.3c0,0.2,0.2,0.3,0.8,0.5c0.8,0.3,1.1,0.6,1.1,1.2c0,0.6-0.5,1.1-1.1,1.2
		v0.7L-2962.8,4298.4z"/>
	<g class="st14">
		<path class="st15" d="M-2938.4,4315.7c0-0.3-0.1-0.5-0.2-0.7c-0.2-0.1-0.4-0.2-0.7-0.2c-0.6,0-1.1,0.1-1.5,0.4
			c-0.5,0.3-0.7,0.6-0.7,0.9c0,0.2,0.1,0.4,0.3,0.5c0.2,0.1,0.6,0.3,1.4,0.5c0.8,0.2,1.3,0.5,1.7,0.7c0.4,0.3,0.6,0.6,0.6,1
			c0,0.6-0.5,1.2-1.4,1.7c-1,0.5-2,0.8-3,0.8c-0.3,0-0.6-0.1-0.8-0.2c-0.2-0.1-0.3-0.3-0.3-0.5c0-0.2,0-0.3,0.1-0.5
			c0.1-0.1,0.2-0.2,0.3-0.2c0.1,0,0.1,0,0.2,0c0.3,0.1,0.7,0.2,1,0.2c0.5,0,1.1-0.1,1.7-0.4c0.6-0.3,0.9-0.6,0.9-0.8
			c0-0.1-0.1-0.2-0.2-0.3c-0.2-0.1-0.5-0.2-1-0.4c-0.7-0.2-1.2-0.4-1.6-0.6s-0.6-0.3-0.8-0.6c-0.2-0.2-0.3-0.5-0.3-0.9
			c0-0.6,0.4-1.2,1.1-1.7c0.7-0.5,1.5-0.8,2.5-0.8c0.5,0,1,0.1,1.3,0.3s0.5,0.5,0.5,0.7C-2937.4,4315.4-2937.8,4315.7-2938.4,4315.7
			z"/>
		<path class="st15" d="M-2933.4,4319.3c-0.9,1.1-1.7,1.7-2.5,1.7c-0.3,0-0.5-0.1-0.8-0.3c-0.2-0.2-0.3-0.5-0.3-0.9
			c0-0.9,0.4-1.8,1.2-2.8c0.8-1,1.5-1.5,2.3-1.5c0.4,0,0.7,0.2,0.8,0.6c0.4,0,0.6,0.1,0.6,0.4c0,0.1,0,0.4-0.1,0.7
			c-0.1,0.7-0.2,1.2-0.2,1.6c0,0.4,0,0.7,0.1,0.9s0.1,0.3,0.1,0.3c0,0.1,0.1,0.1,0.2,0.2c0.1,0.1,0.2,0.1,0.2,0.3
			c0,0.2-0.1,0.3-0.3,0.4s-0.3,0.2-0.5,0.2C-2933.2,4321.1-2933.5,4320.5-2933.4,4319.3z M-2933.7,4316.6c-0.3,0-0.8,0.4-1.3,1.1
			c-0.5,0.7-0.8,1.3-0.8,1.9c0,0.3,0.1,0.4,0.2,0.4c0.4,0,0.9-0.3,1.4-1c0.6-0.7,0.8-1.3,0.8-1.8c0-0.2,0-0.3-0.1-0.4
			C-2933.5,4316.6-2933.6,4316.6-2933.7,4316.6z"/>
		<path class="st15" d="M-2930,4320.9c0-0.2-0.1-0.7-0.4-1.4c-0.5-1.4-0.8-2.4-0.8-3c0-0.5,0.2-0.8,0.6-0.8c0.4,0,0.6,0.2,0.6,0.7
			c0,0.3,0,0.5,0,0.7c0,0.1,0.1,0.4,0.2,0.7c0.1,0.3,0.2,0.6,0.3,0.9c0,0.1,0.1,0.3,0.2,0.5c0,0.1,0.1,0.2,0.1,0.3
			c0,0,0.1-0.2,0.2-0.4c0.1-0.1,0.3-0.5,0.7-1.2c0.4-0.6,0.7-1.1,1-1.5s0.5-0.6,0.7-0.7s0.3-0.1,0.5-0.1c0.2,0,0.3,0.1,0.4,0.2
			s0.2,0.2,0.2,0.4c0,0.2-0.1,0.4-0.4,0.6c-0.3,0.2-0.6,0.6-1.1,1.3s-1,1.5-1.5,2.5c-0.3,0.6-0.6,0.8-0.8,0.8
			C-2929.6,4321.3-2929.8,4321.1-2930,4320.9z"/>
		<path class="st15" d="M-2921.1,4319.2c0,0.3-0.3,0.7-0.9,1.2c-0.6,0.5-1.2,0.7-1.9,0.7c-0.6,0-1-0.2-1.3-0.5
			c-0.3-0.3-0.5-0.8-0.5-1.4c0-0.9,0.3-1.8,1-2.6s1.3-1.2,2.1-1.2c0.4,0,0.7,0.1,0.9,0.3c0.2,0.2,0.3,0.5,0.3,0.8
			c0,0.6-0.3,1.1-0.8,1.6c-0.5,0.5-1.2,0.9-2.1,1.1c-0.1,0-0.1,0.1-0.1,0.2c0,0.2,0.1,0.3,0.2,0.4c0.1,0.1,0.3,0.2,0.6,0.2
			c0.7,0,1.3-0.3,1.9-1c0.1-0.1,0.2-0.2,0.4-0.2C-2921.2,4318.9-2921.1,4319-2921.1,4319.2z M-2924.4,4318.4c0.5-0.1,1-0.3,1.4-0.7
			s0.6-0.6,0.6-0.9c0-0.1,0-0.2-0.1-0.3c-0.1-0.1-0.1-0.1-0.2-0.1c-0.3,0-0.6,0.2-0.9,0.6C-2924,4317.4-2924.2,4317.9-2924.4,4318.4
			z"/>
		<path class="st15" d="M-2912.4,4315.1c0,0-0.1,0.1-0.1,0.2c0,0.1-0.1,0.7-0.2,1.7s-0.2,1.8-0.2,2.4c0,0.2,0,0.5,0.1,0.8
			c0,0,0,0.1,0,0.2c0,0.2-0.1,0.3-0.2,0.5s-0.2,0.2-0.4,0.2c-0.1,0-0.2-0.1-0.4-0.2c-0.2-0.1-0.3-0.3-0.3-0.5c0-0.3,0-0.6,0-1
			c0-0.6,0.1-1.4,0.2-2.5c0.1-1.1,0.2-1.7,0.2-1.7c-0.1,0-0.5,0-1.1,0.1c-0.6,0-1,0.1-1.1,0.1c-0.3,0-0.6,0-0.7-0.1
			c-0.1-0.1-0.2-0.2-0.2-0.4c0-0.2,0.1-0.3,0.2-0.4s0.5-0.1,1.1-0.1c0.9,0,1.9-0.1,2.8-0.2c1-0.2,1.8-0.2,2.3-0.2
			c0.6,0,0.9,0.1,1.1,0.2c0.1,0.1,0.2,0.3,0.2,0.4c0,0.3-0.1,0.5-0.4,0.5c-0.1,0-0.2,0-0.4,0c-0.2,0-0.4,0-0.7,0
			C-2911.5,4314.9-2912.1,4315-2912.4,4315.1z"/>
		<path class="st15" d="M-2909.2,4317.7L-2909.2,4317.7c0.1-0.6,0.2-0.9,0.2-1c0-0.2,0.1-0.4,0.2-0.6s0.3-0.2,0.4-0.2
			c0.2,0,0.4,0.1,0.5,0.2c0.1,0.1,0.2,0.2,0.2,0.4s-0.1,0.4-0.2,0.8l0,0.1c-0.2,0.6-0.3,1.1-0.3,1.5c0,0.4-0.1,0.7-0.1,1
			c0,0.2,0,0.5,0.1,0.8c0,0.1,0,0.1,0,0.1c0,0.1-0.1,0.2-0.2,0.3s-0.3,0.2-0.5,0.2c-0.4,0-0.6-0.3-0.6-1c0-0.6,0.1-1.2,0.2-2
			C-2909.3,4318-2909.2,4317.8-2909.2,4317.7z M-2906.9,4313.6c0,0.2-0.1,0.4-0.3,0.6c-0.2,0.2-0.4,0.3-0.5,0.3
			c-0.2,0-0.4-0.1-0.5-0.2s-0.2-0.3-0.2-0.5c0-0.2,0.1-0.4,0.2-0.6c0.2-0.1,0.4-0.2,0.6-0.2c0.2,0,0.4,0.1,0.5,0.2
			C-2906.9,4313.3-2906.9,4313.5-2906.9,4313.6z"/>
		<path class="st15" d="M-2905.4,4320.6c0,0.3-0.2,0.5-0.6,0.5c-0.4,0-0.6-0.3-0.6-0.9c0-1,0.1-1.8,0.2-2.6c0.1-0.5,0.1-1.1,0.1-1.6
			c0-0.1,0-0.2,0.1-0.3c0.1-0.1,0.2-0.1,0.3-0.1c0.5,0,0.7,0.3,0.7,0.9c0,0.2-0.1,0.7-0.3,1.5c-0.1,0.5-0.2,0.8-0.2,1
			c0.9-2,1.8-3.1,2.5-3.1c0.3,0,0.5,0.1,0.7,0.4s0.3,0.8,0.3,1.6c0,0.8,0,1.1,0.1,1.1c0.1,0,0.3-0.4,0.6-1.1c0.4-0.8,0.7-1.3,1-1.6
			s0.6-0.4,0.9-0.4c0.4,0,0.6,0.2,0.8,0.5c0.2,0.3,0.3,0.8,0.3,1.6c0,0.6,0.1,1,0.2,1.3s0.2,0.5,0.4,0.6c0.2,0.1,0.2,0.2,0.2,0.4
			c0,0.1-0.1,0.3-0.3,0.4c-0.2,0.1-0.4,0.2-0.6,0.2c-0.3,0-0.6-0.2-0.8-0.5c-0.2-0.3-0.3-1-0.4-2c0-0.5-0.1-0.8-0.1-0.9
			c0-0.2-0.1-0.2-0.2-0.2c-0.1,0-0.2,0.1-0.3,0.3c-0.1,0.2-0.4,0.7-0.7,1.4c-0.3,0.6-0.6,1.1-0.8,1.3s-0.4,0.4-0.7,0.4
			c-0.2,0-0.4-0.1-0.6-0.2s-0.3-0.8-0.3-1.8c0-0.9-0.1-1.4-0.2-1.4c-0.1,0-0.5,0.4-1,1.2C-2904.8,4319.3-2905.1,4320-2905.4,4320.6z
			"/>
		<path class="st15" d="M-2892.3,4319.2c0,0.3-0.3,0.7-0.9,1.2c-0.6,0.5-1.2,0.7-1.9,0.7c-0.6,0-1-0.2-1.3-0.5
			c-0.3-0.3-0.5-0.8-0.5-1.4c0-0.9,0.3-1.8,1-2.6s1.3-1.2,2.1-1.2c0.4,0,0.7,0.1,0.9,0.3c0.2,0.2,0.3,0.5,0.3,0.8
			c0,0.6-0.3,1.1-0.8,1.6c-0.5,0.5-1.2,0.9-2.1,1.1c-0.1,0-0.1,0.1-0.1,0.2c0,0.2,0.1,0.3,0.2,0.4c0.1,0.1,0.3,0.2,0.6,0.2
			c0.7,0,1.3-0.3,1.9-1c0.1-0.1,0.2-0.2,0.4-0.2C-2892.4,4318.9-2892.3,4319-2892.3,4319.2z M-2895.6,4318.4c0.5-0.1,1-0.3,1.4-0.7
			s0.6-0.6,0.6-0.9c0-0.1,0-0.2-0.1-0.3c-0.1-0.1-0.1-0.1-0.2-0.1c-0.3,0-0.6,0.2-0.9,0.6
			C-2895.3,4317.4-2895.5,4317.9-2895.6,4318.4z"/>
	</g>
	<text transform="matrix(0.9985 5.397526e-002 -5.397526e-002 0.9985 -3165.2166 4204.3154)" class="st28 st29">Report</text>
</g>
</svg>
