<?xml version="1.0" encoding="utf-8"?>
<!-- Generator: Adobe Illustrator 19.1.0, SVG Export Plug-In . SVG Version: 6.00 Build 0)  -->
<svg version="1.1" id="Layer_1" xmlns="http://www.w3.org/2000/svg" xmlns:xlink="http://www.w3.org/1999/xlink" x="0px" y="0px"
	 viewBox="-427.4 252 424 290" style="enable-background:new -427.4 252 424 290;" xml:space="preserve">
<style type="text/css">
	.st0{fill:#E7E7E7;}
	.st1{enable-background:new    ;}
	.st2{fill:#26263A;}
	
		.st3{opacity:8.000000e-002;fill:none;stroke:#000002;stroke-width:2;stroke-linecap:round;stroke-linejoin:round;stroke-miterlimit:2.613;enable-background:new    ;}
	.st4{fill:none;stroke:#CBCBCB;stroke-width:2;stroke-linecap:round;stroke-linejoin:round;stroke-miterlimit:2.613;}
	.st5{fill:none;stroke:#26263A;stroke-width:2;stroke-linecap:round;stroke-linejoin:round;stroke-miterlimit:2.613;}
	.st6{fill:#E43626;}
	
		.st7{opacity:0.2;fill:none;stroke:#000002;stroke-width:2;stroke-linecap:round;stroke-linejoin:round;stroke-miterlimit:2.613;enable-background:new    ;}
	.st8{fill:#E43727;}
	.st9{fill:#FFF7EB;}
	.st10{fill:#000002;}
	.st11{opacity:0.25;fill:#000002;stroke:#26263A;enable-background:new    ;}
	.st12{fill:#E43626;stroke:#26263A;stroke-width:2;stroke-linecap:round;stroke-linejoin:round;stroke-miterlimit:2.613;}
	.st13{fill:#FFF7EB;stroke:#26263A;stroke-width:2;stroke-linecap:round;stroke-linejoin:round;stroke-miterlimit:2.613;}
	.st14{fill:#F3F3FF;stroke:#26263A;stroke-width:2;stroke-linecap:round;stroke-linejoin:round;stroke-miterlimit:2.613;}
	.st15{fill:#26263A;stroke:#26263A;stroke-width:2;stroke-linecap:round;stroke-linejoin:round;stroke-miterlimit:2.613;}
	.st16{fill:#F3F3FF;stroke:#000002;stroke-linecap:round;stroke-linejoin:round;stroke-miterlimit:2.613;stroke-dasharray:4,3;}
	.st17{fill:none;stroke:#26263A;stroke-width:2;stroke-miterlimit:2.613;}
	.st18{fill:none;stroke:#0A0915;stroke-width:2;stroke-linecap:round;stroke-linejoin:round;stroke-miterlimit:2.613;}
	.st19{fill:#FFF7EB;stroke:#26263A;stroke-miterlimit:2.613;}
	.st20{fill:#26263A;stroke:#26263A;stroke-miterlimit:2.613;}
	.st21{fill:none;stroke:#26263A;stroke-linecap:round;stroke-linejoin:round;stroke-miterlimit:2.613;}
	.st22{fill:#000002;stroke:#26263A;stroke-miterlimit:2.613;}
	.st23{fill:#26263A;stroke:#26263A;stroke-linecap:round;stroke-linejoin:round;stroke-miterlimit:2.613;}
</style>
<g id="Group_4482" transform="translate(2800.843 -1316.75)">
	<path id="Path_11233" class="st0" d="M-3148.2,1573.2c4.2-5.9,225.4-5.9,229.7,0s4.2,59.6,0,65.5c-4.2,5.9-225.4,5.9-229.7,0
		C-3152.4,1632.8-3152.4,1579.2-3148.2,1573.2z"/>
	<g id="Group" transform="translate(-2715.354 1322.28)">
		<g class="st1">
			<path class="st2" d="M-422.3,262.4c0,0.2-0.2,1-0.6,2.5c-0.2,0.7-0.3,1.2-0.3,1.7c0,0.3-0.1,0.6-0.1,1c-0.2,1.5-0.4,2.5-0.4,3.1
				c0,0.8,0,1.6,0.1,2.4c0.1,0.5,0,0.8-0.2,1s-0.4,0.3-0.7,0.3c-0.3,0-0.5-0.2-0.7-0.5c-0.1-0.4-0.2-0.9-0.2-1.7
				c0-0.8,0.1-2,0.4-3.4c0.1-0.6,0.1-0.9,0.1-1c0-0.2,0-0.4,0.1-0.6c0-0.2,0.1-0.4,0.1-0.6c0-0.5,0.1-1.3,0.3-2.1
				c0.1-0.7,0.2-1.2,0.3-1.7c0-0.4,0.1-0.6,0.1-0.7s0.2-0.3,0.4-0.4s0.4-0.2,0.5-0.2c0.2,0,0.4,0.1,0.6,0.4
				C-422.3,261.8-422.3,262.1-422.3,262.4z"/>
			<path class="st2" d="M-406.9,267.3c-0.3,0-0.6,0.2-1,0.6s-0.9,1.3-1.6,2.7c-1,1.9-1.6,2.9-1.9,3.2s-0.5,0.4-0.7,0.4
				c-0.7,0-1-0.3-1-1c0-0.3,0-0.7,0.1-1.2c0.3-1.8,0.5-3.6,0.5-5.6c0-0.2,0.1-0.5,0.3-0.7c0.2-0.3,0.4-0.4,0.5-0.4
				c0.3,0,0.5,0.1,0.7,0.3s0.2,0.6,0.2,1.1c0,0.6-0.2,1.8-0.5,3.7c-0.1,0.6-0.2,1-0.2,1.2c0,0.1,0,0.1,0.1,0.1
				c0.1,0,0.5-0.7,1.2-2.1c0.7-1.4,1.4-2.4,1.9-3s1.2-0.9,1.8-0.9c0.5,0,1,0.2,1.3,0.7s0.6,1.4,0.7,2.6c0.2,1.4,0.3,2.3,0.4,2.7
				s0.3,0.5,0.6,0.5c0.2,0,0.4-0.1,0.7-0.2c0,0,0.1,0,0.1,0c0.3,0,0.4,0.1,0.4,0.4c0,0.3-0.2,0.5-0.5,0.8c-0.3,0.3-0.8,0.4-1.2,0.4
				c-0.5,0-0.9-0.2-1.2-0.6c-0.3-0.4-0.5-1.5-0.6-3.2C-406.1,268.1-406.4,267.3-406.9,267.3z"/>
			<path class="st2" d="M-393.5,271c0,0.6-0.5,1.3-1.6,2.2s-2.1,1.3-3.3,1.3c-0.9,0-1.7-0.3-2.2-0.8s-0.8-1.3-0.8-2.3
				c0-1.7,0.6-3.3,1.7-4.8s2.4-2.3,3.7-2.3c0.4,0,0.8,0.1,1.1,0.4s0.4,0.6,0.4,1c0,0.9-0.4,1.8-1.3,2.6s-2.1,1.6-3.6,2.4
				c-0.3,0.2-0.5,0.4-0.5,0.6c0,0.5,0.1,0.9,0.4,1.2s0.7,0.4,1.2,0.4c1.3,0,2.5-0.7,3.9-2.1c0.2-0.2,0.3-0.3,0.4-0.3
				C-393.6,270.6-393.5,270.7-393.5,271z M-399.6,269.7c2.5-1.5,3.7-2.7,3.7-3.6c0-0.4-0.2-0.5-0.5-0.5c-0.5,0-1.1,0.4-1.8,1.2
				S-399.3,268.5-399.6,269.7z"/>
			<path class="st2" d="M-384.1,271c0,0.6-0.5,1.3-1.6,2.2s-2.1,1.3-3.3,1.3c-0.9,0-1.7-0.3-2.2-0.8s-0.8-1.3-0.8-2.3
				c0-1.7,0.6-3.3,1.7-4.8s2.4-2.3,3.7-2.3c0.4,0,0.8,0.1,1.1,0.4s0.4,0.6,0.4,1c0,0.9-0.4,1.8-1.3,2.6s-2.1,1.6-3.6,2.4
				c-0.3,0.2-0.5,0.4-0.5,0.6c0,0.5,0.1,0.9,0.4,1.2s0.7,0.4,1.2,0.4c1.3,0,2.5-0.7,3.9-2.1c0.2-0.2,0.3-0.3,0.4-0.3
				C-384.2,270.6-384.1,270.7-384.1,271z M-390.2,269.7c2.5-1.5,3.7-2.7,3.7-3.6c0-0.4-0.2-0.5-0.5-0.5c-0.5,0-1.1,0.4-1.8,1.2
				S-389.9,268.5-390.2,269.7z"/>
			<path class="st2" d="M-376,270.4c-0.8,1.3-1.6,2.2-2.5,2.9s-1.7,1-2.4,1c-0.6,0-1-0.2-1.3-0.7c-0.3-0.4-0.5-1-0.5-1.7
				c0-1.5,0.6-3,1.8-4.6s2.5-2.3,3.9-2.3c0.6,0,1.2,0.3,1.7,0.8l1.2-5.7c0.1-0.4,0.3-0.7,0.5-0.8s0.4-0.2,0.6-0.2
				c0.4,0,0.6,0.4,0.6,1.1c0,0.1-0.1,0.6-0.4,1.4c-0.4,1.3-0.8,2.9-1.2,4.8c-0.4,1.9-0.6,3.4-0.6,4.5c0,1.2,0.3,1.8,0.8,1.8
				c0.3,0,0.7-0.1,1-0.3c0.1-0.1,0.3-0.2,0.4-0.2c0.2,0,0.3,0.1,0.3,0.4c0,0.3-0.3,0.6-0.8,1s-1.1,0.6-1.6,0.6c-1,0-1.5-0.9-1.5-2.8
				C-376,271-376,270.7-376,270.4z M-377.1,266.3c-0.9,0-1.9,0.6-2.8,1.9s-1.4,2.5-1.4,3.6c0,0.7,0.2,1.1,0.7,1.1
				c0.5,0,1-0.2,1.7-0.7s1.3-1.2,2-2.3c0.7-1.1,1-1.8,1-2.4c0-0.3-0.1-0.5-0.4-0.8C-376.5,266.4-376.8,266.3-377.1,266.3z"/>
			<path class="st2" d="M-359.6,271.8c0.3,0,0.8,0,1.4,0c0.8,0,2,0.1,3.8,0.2c0.5,0,0.8,0,0.9,0s0.3-0.1,0.5-0.1
				c0.2-0.1,0.4-0.1,0.5-0.1c0.1,0,0.2,0.1,0.3,0.2c0.1,0.1,0.2,0.3,0.2,0.4c0,0.4-0.2,0.7-0.6,0.9c-0.4,0.2-0.8,0.3-1.1,0.3h-0.3
				c-0.6,0-1,0-1.2-0.1c-0.8-0.2-1.8-0.3-3-0.3c-1,0-1.9,0.1-2.7,0.4s-1.3,0.5-1.5,0.8c-0.3,0.3-0.5,0.5-0.6,0.6
				c-0.1,0.1-0.3,0.1-0.5,0.1c-0.5,0-0.7-0.2-0.7-0.6c0-0.6,0.3-1.2,0.8-1.6s1.4-1,2.5-1.6c0.7-0.3,1.1-0.6,1.3-0.7s0.6-0.5,1.3-1.1
				s1.2-1.2,1.6-1.6s0.6-0.9,0.8-1.2c0.2-0.4,0.2-0.7,0.2-1c0-0.4-0.2-0.8-0.7-1.3c-0.5-0.4-0.9-0.6-1.4-0.6c-0.4,0-0.9,0.2-1.6,0.7
				c-0.7,0.4-1.3,0.9-1.6,1.3c-0.2,0.3-0.6,0.4-1,0.4c-0.1,0-0.2-0.1-0.4-0.4s-0.2-0.5-0.2-0.6c0-0.1,0-0.2,0-0.2s0.3-0.3,0.9-0.7
				s1.1-0.7,1.5-1c0.4-0.3,0.9-0.5,1.3-0.7s1-0.2,1.7-0.2c0.6,0,1.2,0.3,1.7,0.8c0.5,0.5,0.9,1,1.2,1.5c0.3,0.5,0.4,0.8,0.4,0.8
				c0,0.8-0.6,1.9-1.8,3.3S-358.2,271-359.6,271.8z"/>
			<path class="st2" d="M-336.5,270.4c-0.8,1.3-1.6,2.2-2.5,2.9s-1.7,1-2.4,1c-0.6,0-1-0.2-1.3-0.7c-0.3-0.4-0.5-1-0.5-1.7
				c0-1.5,0.6-3,1.8-4.6s2.5-2.3,3.9-2.3c0.6,0,1.2,0.3,1.7,0.8l1.2-5.7c0.1-0.4,0.3-0.7,0.5-0.8s0.4-0.2,0.6-0.2
				c0.4,0,0.6,0.4,0.6,1.1c0,0.1-0.1,0.6-0.4,1.4c-0.4,1.3-0.8,2.9-1.2,4.8c-0.4,1.9-0.6,3.4-0.6,4.5c0,1.2,0.3,1.8,0.8,1.8
				c0.3,0,0.7-0.1,1-0.3c0.1-0.1,0.3-0.2,0.4-0.2c0.2,0,0.3,0.1,0.3,0.4c0,0.3-0.3,0.6-0.8,1s-1.1,0.6-1.6,0.6c-1,0-1.5-0.9-1.5-2.8
				C-336.6,271-336.6,270.7-336.5,270.4z M-337.7,266.3c-0.9,0-1.9,0.6-2.8,1.9s-1.4,2.5-1.4,3.6c0,0.7,0.2,1.1,0.7,1.1
				c0.5,0,1-0.2,1.7-0.7s1.3-1.2,2-2.3c0.7-1.1,1-1.8,1-2.4c0-0.3-0.1-0.5-0.4-0.8C-337,266.4-337.3,266.3-337.7,266.3z"/>
			<path class="st2" d="M-325,270.8c-0.8,1.1-1.6,1.9-2.4,2.5s-1.5,0.8-2.2,0.8c-0.5,0-0.8-0.2-1.2-0.6s-0.5-0.9-0.5-1.5
				c0-1.5,0.7-3.2,2.1-5s2.7-2.7,4.1-2.7c0.5,0,0.9,0.3,1.1,0.8c0.1,0.2,0.2,0.3,0.4,0.3c0.5,0,0.7,0.2,0.7,0.5c0,0.2,0,0.4-0.1,0.7
				c-0.3,1.7-0.5,2.9-0.5,3.7c0,1.4,0.3,2.3,0.8,2.5c0.3,0.1,0.4,0.3,0.4,0.5c0,0.2-0.1,0.4-0.4,0.5c-0.3,0.2-0.5,0.3-0.7,0.3
				c-0.5,0-0.8-0.3-1.1-0.9S-325,272-325,270.8z M-325.5,265.9c-0.8,0-1.7,0.7-2.7,2.2c-1,1.5-1.5,2.7-1.5,3.6c0,0.7,0.2,1,0.7,1
				c0.6,0,1.5-0.7,2.7-2s1.7-2.5,1.7-3.6C-324.7,266.3-325,265.9-325.5,265.9z"/>
			<path class="st2" d="M-313.9,270.9c-1.1,0.9-2,1.6-2.8,2s-1.4,0.6-1.9,0.6c-0.6,0-1-0.2-1.3-0.7c-0.3-0.5-0.5-1-0.5-1.7
				c0-0.9,0.2-2,0.5-3.3c0.4-1.3,0.6-2.1,0.8-2.4s0.5-0.4,0.9-0.4c0.2,0,0.3,0.1,0.4,0.3s0.2,0.4,0.2,0.7c0,0.1-0.1,0.3-0.2,0.6
				c-0.3,0.6-0.5,0.9-0.5,0.9s-0.1,0.4-0.3,1.1c-0.2,0.6-0.3,1.3-0.3,1.8c0,0.2,0,0.5,0.1,0.9s0.3,0.6,0.6,0.6
				c0.3,0,0.7-0.1,1.2-0.3c0.5-0.2,1-0.5,1.6-1s1-0.8,1.2-1.1s0.3-0.6,0.4-0.9s0.1-1.1,0.2-2.3s0.3-1.8,0.9-1.8
				c0.3,0,0.5,0.1,0.6,0.3c0.1,0.2,0.1,0.5,0.1,1c0,0.4,0,0.9-0.1,1.5c-0.1,0.7-0.1,1.3-0.1,1.6c-0.1,1.6-0.3,3.2-0.6,4.9
				c-0.3,1.6-0.8,3-1.5,4.1c-0.6,1.1-1.5,1.6-2.7,1.6c-1.1,0-2.2-0.3-3.1-0.9c-0.9-0.6-1.3-1.1-1.3-1.5c0-0.2,0-0.4,0.1-0.6
				s0.2-0.3,0.3-0.3c0.1,0,0.1,0.1,0.2,0.2c0.8,1.2,2,1.8,3.6,1.8c0.8,0,1.6-0.7,2.1-2.2s0.9-2.9,1-4.2
				C-313.9,271.4-313.9,271.2-313.9,270.9z"/>
			<path class="st2" d="M-305.3,272c0-0.4-0.5-0.8-1.4-1.3c-1.2-0.6-2-1.1-2.4-1.5c-0.4-0.4-0.6-0.8-0.6-1.2c0-1.2,0.6-2.1,1.8-2.9
				s2.1-1.2,2.9-1.2c0.5,0,0.8,0.1,1,0.2s0.3,0.4,0.3,0.9c0,0.2-0.1,0.3-0.2,0.5s-0.3,0.2-0.4,0.2c-0.1,0-0.2,0-0.4-0.1
				c-0.2-0.1-0.3-0.1-0.4-0.1c-0.3,0-0.9,0.2-1.8,0.6s-1.3,0.9-1.3,1.5c0,0.3,0.2,0.6,0.5,0.9c0.3,0.3,0.9,0.6,1.7,1
				c0.7,0.3,1.2,0.7,1.6,1c0.4,0.4,0.6,0.8,0.6,1.3c0,0.9-0.6,1.6-1.9,2.1c-1.2,0.5-2.4,0.8-3.5,0.8c-0.9,0-1.4-0.3-1.4-1
				c0-0.2,0.1-0.4,0.3-0.5s0.4-0.2,0.6-0.2c0.1,0,0.3,0,0.5,0.1c0.2,0.1,0.4,0.1,0.5,0.1c0.7,0,1.3-0.1,2.1-0.3
				S-305.5,272.3-305.3,272z"/>
			<path class="st2" d="M-288.3,267.1c-0.5,0-1.7,1.6-3.5,4.8c-0.6,1.1-1,1.7-1.1,1.8c-0.1,0.1-0.3,0.2-0.5,0.3s-0.5,0.1-0.7,0.1
				c-0.4,0-0.6-0.8-0.6-2.3c0-0.9,0.2-2.4,0.6-4.7c0.2-0.9,0.2-1.6,0.2-2c0-0.4,0.2-0.6,0.5-0.6c0.7,0,1,0.5,1,1.4
				c0,0.4-0.1,1.3-0.3,2.6c-0.3,1.5-0.4,2.4-0.4,2.7c0.4-0.4,0.9-1.1,1.6-2.3c1-1.6,1.7-2.7,2.2-3.1c0.5-0.4,1-0.7,1.5-0.7
				c0.4,0,0.7,0.3,0.9,0.8s0.4,1.7,0.4,3.6c0,0.5,0.1,0.8,0.1,1.1s0.1,0.4,0.2,0.4c0.3,0,0.9-0.9,1.8-2.8c0.5-1,1-1.7,1.4-2.3
				s1-0.8,1.6-0.8c0.5,0,0.8,0.2,1,0.7c0.2,0.5,0.4,1.2,0.5,2.2c0.1,1,0.2,1.9,0.4,2.7s0.5,1.3,1,1.6c0.3,0.2,0.5,0.3,0.5,0.6
				c0,0.2-0.1,0.4-0.4,0.6s-0.5,0.3-0.8,0.3c-0.5,0-0.9-0.3-1.3-0.9s-0.6-1.8-0.8-3.7c-0.1-0.8-0.2-1.3-0.2-1.6s-0.2-0.5-0.4-0.5
				c-0.2,0-0.5,0.2-0.9,0.7s-0.9,1.4-1.6,2.9c-0.6,1.1-1,1.9-1.3,2.2s-0.6,0.6-0.9,0.6c-0.3,0-0.5-0.1-0.7-0.3
				c-0.2-0.2-0.3-0.4-0.4-0.7s-0.1-1-0.2-2.1C-287.9,268.4-288,267.4-288.3,267.1z"/>
			<path class="st2" d="M-273.8,274.5c-0.8,0-1.5-0.3-2-0.9s-0.8-1.4-0.8-2.3c0-1.5,0.5-3,1.5-4.5c1-1.5,2.2-2.2,3.7-2.2
				c0.9,0,1.7,0.4,2.3,1.1s0.9,1.6,0.9,2.6c0,1.5-0.6,2.9-1.8,4.2S-272.5,274.5-273.8,274.5z M-275,271.1c0,0.6,0.1,1.1,0.4,1.5
				s0.6,0.6,1,0.6c0.9,0,1.7-0.5,2.6-1.4c0.9-1,1.3-2,1.3-3.2c0-0.7-0.2-1.3-0.5-1.8c-0.3-0.4-0.8-0.7-1.4-0.7
				c-0.9,0-1.8,0.6-2.4,1.7C-274.7,268.9-275,270-275,271.1z"/>
			<path class="st2" d="M-264.4,270.5c0.1-0.1,0.1-0.3,0.2-0.4c0.4-0.9,0.8-1.6,1.1-2.1c0.3-0.5,0.7-1,1.1-1.5s0.8-0.8,1.1-1.1
				s0.6-0.4,0.9-0.5c0.3-0.1,0.5-0.1,0.8-0.1c0.5,0,0.9,0.2,1.2,0.5c0.3,0.3,0.5,0.7,0.5,1.1c0,0.2-0.1,0.3-0.2,0.5
				s-0.3,0.2-0.5,0.2c-0.2,0-0.5-0.1-0.7-0.3c-0.2-0.2-0.4-0.3-0.7-0.3c-0.6,0-1.5,0.7-2.5,2.2s-1.7,3.1-2,4.9
				c-0.1,0.5-0.2,0.8-0.3,0.9s-0.4,0.2-0.7,0.2c-0.3,0-0.5-0.2-0.6-0.6s-0.2-1.1-0.2-2.2c0-0.3,0-0.9,0-1.8c0-1.1,0.1-2,0.2-2.7
				c0-0.1,0-0.4,0.1-0.8c0-0.5,0.1-0.8,0.2-0.9s0.2-0.3,0.4-0.5s0.4-0.2,0.6-0.2c0.2,0,0.4,0.1,0.5,0.2c0.1,0.1,0.2,0.3,0.2,0.4
				c0,0.2-0.1,0.6-0.2,1c-0.1,0.5-0.2,0.8-0.2,1c0,0.2,0,0.4-0.1,0.6c-0.1,0.3-0.1,0.9-0.2,2l0,0.3V270.5z"/>
			<path class="st2" d="M-249.4,271c0,0.6-0.5,1.3-1.6,2.2s-2.1,1.3-3.3,1.3c-0.9,0-1.7-0.3-2.2-0.8c-0.5-0.6-0.8-1.3-0.8-2.3
				c0-1.7,0.6-3.3,1.7-4.8c1.1-1.5,2.4-2.3,3.7-2.3c0.4,0,0.8,0.1,1.1,0.4s0.4,0.6,0.4,1c0,0.9-0.4,1.8-1.3,2.6s-2.1,1.6-3.6,2.4
				c-0.3,0.2-0.5,0.4-0.5,0.6c0,0.5,0.1,0.9,0.4,1.2s0.7,0.4,1.2,0.4c1.3,0,2.5-0.7,3.9-2.1c0.2-0.2,0.3-0.3,0.4-0.3
				C-249.5,270.6-249.4,270.7-249.4,271z M-255.5,269.7c2.5-1.5,3.7-2.7,3.7-3.6c0-0.4-0.2-0.5-0.5-0.5c-0.5,0-1.1,0.4-1.8,1.2
				S-255.3,268.5-255.5,269.7z"/>
			<path class="st2" d="M-236,272c0-0.4-0.5-0.8-1.4-1.3c-1.2-0.6-2-1.1-2.4-1.5c-0.4-0.4-0.6-0.8-0.6-1.2c0-1.2,0.6-2.1,1.8-2.9
				s2.1-1.2,2.9-1.2c0.5,0,0.8,0.1,1,0.2s0.3,0.4,0.3,0.9c0,0.2-0.1,0.3-0.2,0.5s-0.3,0.2-0.4,0.2c-0.1,0-0.2,0-0.4-0.1
				c-0.2-0.1-0.3-0.1-0.4-0.1c-0.3,0-0.9,0.2-1.8,0.6s-1.3,0.9-1.3,1.5c0,0.3,0.2,0.6,0.5,0.9c0.3,0.3,0.9,0.6,1.7,1
				c0.7,0.3,1.2,0.7,1.6,1c0.4,0.4,0.6,0.8,0.6,1.3c0,0.9-0.6,1.6-1.9,2.1c-1.2,0.5-2.4,0.8-3.5,0.8c-0.9,0-1.4-0.3-1.4-1
				c0-0.2,0.1-0.4,0.3-0.5s0.4-0.2,0.6-0.2c0.1,0,0.3,0,0.5,0.1c0.2,0.1,0.4,0.1,0.5,0.1c0.7,0,1.3-0.1,2.1-0.3
				S-236.2,272.3-236,272z"/>
			<path class="st2" d="M-231.1,272.1c0,0.4,0.1,0.9,0.2,1.5c0,0.1,0,0.2,0,0.3c0,0.1-0.1,0.2-0.3,0.4c-0.2,0.2-0.4,0.3-0.6,0.3
				c-0.6,0-0.9-0.5-0.9-1.6c0-1.1,0.2-2.8,0.7-5.1c0.2-0.8,0.2-1.3,0.2-1.5c0-0.4,0.1-0.7,0.2-0.9s0.3-0.4,0.6-0.4
				c0.3,0,0.5,0.1,0.7,0.2s0.3,0.3,0.3,0.5s0,0.4-0.1,0.7c-0.4,1.5-0.7,2.7-0.8,3.3S-231.1,271.1-231.1,272.1z M-229.9,262.2
				c-0.1,0-0.2-0.1-0.3-0.4c0-0.1-0.1-0.2-0.1-0.3c-0.2-0.4-0.2-0.7-0.2-1c0-0.2,0.1-0.5,0.4-0.7c0.3-0.2,0.6-0.4,0.9-0.4
				c0.2,0,0.4,0.1,0.6,0.2c0.2,0.1,0.3,0.3,0.3,0.4c0,0.2-0.1,0.5-0.2,1s-0.4,0.8-0.7,0.9S-229.8,262.2-229.9,262.2z"/>
			<path class="st2" d="M-225.8,270.5c0.1-0.1,0.1-0.3,0.2-0.4c0.4-0.9,0.8-1.6,1.1-2.1c0.3-0.5,0.7-1,1.1-1.5s0.8-0.8,1.1-1.1
				s0.6-0.4,0.9-0.5c0.3-0.1,0.5-0.1,0.8-0.1c0.5,0,0.9,0.2,1.2,0.5c0.3,0.3,0.5,0.7,0.5,1.1c0,0.2-0.1,0.3-0.2,0.5
				s-0.3,0.2-0.5,0.2c-0.2,0-0.5-0.1-0.7-0.3c-0.2-0.2-0.4-0.3-0.7-0.3c-0.6,0-1.5,0.7-2.5,2.2s-1.7,3.1-2,4.9
				c-0.1,0.5-0.2,0.8-0.3,0.9s-0.4,0.2-0.7,0.2c-0.3,0-0.5-0.2-0.6-0.6s-0.2-1.1-0.2-2.2c0-0.3,0-0.9,0-1.8c0-1.1,0.1-2,0.2-2.7
				c0-0.1,0-0.4,0.1-0.8c0-0.5,0.1-0.8,0.2-0.9s0.2-0.3,0.4-0.5s0.4-0.2,0.6-0.2c0.2,0,0.4,0.1,0.5,0.2c0.1,0.1,0.2,0.3,0.2,0.4
				c0,0.2-0.1,0.6-0.2,1c-0.1,0.5-0.2,0.8-0.2,1c0,0.2,0,0.4-0.1,0.6c-0.1,0.3-0.1,0.9-0.2,2l0,0.3V270.5z"/>
			<path class="st2" d="M-218.2,275.7c1.1-0.3,1.8-0.7,2.1-1.1c0.3-0.5,0.5-0.8,0.5-1.1c0-0.6-0.1-1-0.2-1.3
				c-0.1-0.1-0.1-0.2-0.1-0.3c0-0.1,0-0.2,0.1-0.4s0.2-0.2,0.2-0.2c0.1,0,0.3,0,0.6,0.1c0.3,0.1,0.4,0.2,0.5,0.2s0.1,0.3,0.2,0.7
				s0.2,0.7,0.2,0.9c0,0.1-0.1,0.4-0.3,0.9c-0.2,0.5-0.5,0.9-0.9,1.2c-0.4,0.3-0.7,0.5-1.1,0.5c-0.1,0-0.3,0.1-0.4,0.1
				c-0.5,0.2-0.8,0.3-1.1,0.3c-0.2,0-0.3-0.1-0.3-0.4C-218.3,275.8-218.3,275.7-218.2,275.7z"/>
		</g>
		<g class="st1">
			<path class="st2" d="M-420.8,300.9c0,0.1-0.2,0.3-0.3,0.4s-0.4,0.1-0.5,0.1c-0.6,0-0.9-0.4-0.9-1.3c0-0.4,0.1-1.6,0.4-3.5
				c0.2-1.2,0.3-2.1,0.3-2.7c0-0.1-0.1-0.2-0.4-0.4c-0.3-0.2-0.4-0.3-0.4-0.5c0-0.3,0.2-0.5,0.6-0.8c0.3-0.2,0.5-0.5,0.5-0.8
				s0.1-0.7,0.2-1.2c0.3-1.8,0.8-3.1,1.4-3.9s1.4-1.2,2.4-1.2c0.5,0,1,0.2,1.3,0.5s0.5,0.8,0.5,1.3c0,0.4-0.1,0.9-0.3,1.5
				s-0.4,0.8-0.7,0.8c-0.2,0-0.3-0.1-0.3-0.3l0.1-0.9c0-1.1-0.3-1.7-0.9-1.7c-0.7,0-1.3,0.7-1.7,2c-0.5,1.3-0.7,2.4-0.7,3.3
				c0,0.3,0.2,0.4,0.5,0.4c1.5,0,2.4,0,2.7,0s0.4,0.1,0.4,0.3s-0.1,0.4-0.4,0.5s-0.9,0.2-1.9,0.3c-0.8,0.1-1.3,0.2-1.4,0.2
				c-0.4,2.2-0.6,4.1-0.6,5.8c0,0.5,0,0.9,0.1,1.1C-420.8,300.7-420.8,300.9-420.8,300.9z"/>
			<path class="st2" d="M-413.3,301c-0.8,0-1.5-0.3-2-0.9s-0.8-1.4-0.8-2.3c0-1.5,0.5-3,1.5-4.5c1-1.5,2.2-2.2,3.7-2.2
				c0.9,0,1.7,0.4,2.3,1.1s0.9,1.6,0.9,2.6c0,1.5-0.6,2.9-1.8,4.2S-412,301-413.3,301z M-414.5,297.6c0,0.6,0.1,1.1,0.4,1.5
				s0.6,0.6,1,0.6c0.9,0,1.7-0.5,2.6-1.4c0.9-1,1.3-2,1.3-3.2c0-0.7-0.2-1.3-0.5-1.8c-0.3-0.4-0.8-0.7-1.4-0.7
				c-0.9,0-1.8,0.6-2.4,1.7C-414.2,295.4-414.5,296.5-414.5,297.6z"/>
			<path class="st2" d="M-403.9,297c0.1-0.1,0.1-0.3,0.2-0.4c0.4-0.9,0.8-1.6,1.1-2.1c0.3-0.5,0.7-1,1.1-1.5s0.8-0.8,1.1-1.1
				s0.6-0.4,0.9-0.5c0.3-0.1,0.5-0.1,0.8-0.1c0.5,0,0.9,0.2,1.2,0.5c0.3,0.3,0.5,0.7,0.5,1.1c0,0.2-0.1,0.3-0.2,0.5
				s-0.3,0.2-0.5,0.2c-0.2,0-0.5-0.1-0.7-0.3c-0.2-0.2-0.4-0.3-0.7-0.3c-0.6,0-1.5,0.7-2.5,2.2s-1.7,3.1-2,4.9
				c-0.1,0.5-0.2,0.8-0.3,0.9s-0.4,0.2-0.7,0.2c-0.3,0-0.5-0.2-0.6-0.6s-0.2-1.1-0.2-2.2c0-0.3,0-0.9,0-1.8c0-1.1,0.1-2,0.2-2.7
				c0-0.1,0-0.4,0.1-0.8c0-0.5,0.1-0.8,0.2-0.9s0.2-0.3,0.4-0.5s0.4-0.2,0.6-0.2c0.2,0,0.4,0.1,0.5,0.2c0.1,0.1,0.2,0.3,0.2,0.4
				c0,0.2-0.1,0.6-0.2,1c-0.1,0.5-0.2,0.8-0.2,1c0,0.2,0,0.4-0.1,0.6c-0.1,0.3-0.1,0.9-0.2,2l0,0.3V297z"/>
			<path class="st2" d="M-385.7,291.7c0.6,0,1.2-0.1,1.7-0.2c0.5-0.1,1-0.1,1.3-0.1c0.4,0,0.7,0,0.8,0.1s0.2,0.2,0.2,0.4
				c0,0.5-0.3,0.7-1,0.8c-0.8,0.1-1.6,0.1-2.3,0.2s-1.1,0.2-1.2,0.2c-0.1,0.1-0.2,0.8-0.5,2.1c-0.3,1.3-0.4,2.2-0.4,2.6
				c0,0.6,0.1,1.1,0.3,1.3c0.2,0.2,0.4,0.3,0.8,0.3c0.5,0,1.2-0.4,2.1-1.1c0.3-0.3,0.6-0.5,0.8-0.5c0.3,0,0.4,0.1,0.4,0.4
				c0,0.4-0.4,1-1.2,1.6c-0.8,0.7-1.6,1-2.5,1c-1.4,0-2.1-0.8-2.1-2.5c0-0.6,0.1-1.5,0.4-2.8c0.3-1.3,0.4-2,0.4-2.3
				c0-0.1-0.1-0.1-0.2-0.1l-0.9,0.1c-0.8,0-1.1-0.3-1.1-0.9c0-0.3,0.2-0.5,0.5-0.5h1.8c0.1,0,0.2-0.1,0.3-0.2s0.2-0.5,0.4-1.1
				s0.3-1.3,0.5-1.9c0.1-0.6,0.4-0.9,0.8-0.9c0.3,0,0.4,0.1,0.6,0.3s0.2,0.3,0.2,0.5c0,0.1-0.1,0.5-0.3,1.3L-385.7,291.7z"/>
			<path class="st2" d="M-379.4,297.9c2.2-4,4-6,5.4-6c0.4,0,0.7,0.2,0.9,0.6s0.4,1.4,0.6,2.8c0.1,1.6,0.5,2.7,1,3.4
				c0.3,0.4,0.4,0.6,0.4,0.8c0,0.2-0.1,0.3-0.3,0.4s-0.4,0.2-0.6,0.2c-0.5,0-0.9-0.3-1.2-0.8c-0.4-0.5-0.6-1.4-0.7-2.7
				c-0.1-1.2-0.2-2-0.3-2.4s-0.3-0.6-0.6-0.6c-0.6,0-1.9,1.6-3.7,4.8c-0.6,1-1,1.6-1.2,1.9c-0.3,0.3-0.5,0.4-0.7,0.4
				c-0.3,0-0.5-0.1-0.7-0.2s-0.3-0.3-0.3-0.6c0-0.2,0-0.5,0.1-0.9c0.7-3.7,1.3-7.4,1.7-11c0.1-0.8,0.2-1.4,0.5-1.7s0.4-0.4,0.5-0.4
				c0.3,0,0.5,0.1,0.7,0.3s0.3,0.5,0.3,0.9c0,1.1-0.3,2.6-0.8,4.4c-0.3,0.9-0.5,2.1-0.8,3.6s-0.4,2.3-0.4,2.7
				C-379.6,297.9-379.5,297.9-379.4,297.9L-379.4,297.9z"/>
			<path class="st2" d="M-362.1,297.5c0,0.6-0.5,1.3-1.6,2.2s-2.1,1.3-3.3,1.3c-0.9,0-1.7-0.3-2.2-0.8s-0.8-1.3-0.8-2.3
				c0-1.7,0.6-3.3,1.7-4.8s2.4-2.3,3.7-2.3c0.4,0,0.8,0.1,1.1,0.4s0.4,0.6,0.4,1c0,0.9-0.4,1.8-1.3,2.6s-2.1,1.6-3.6,2.4
				c-0.3,0.2-0.5,0.4-0.5,0.6c0,0.5,0.1,0.9,0.4,1.2s0.7,0.4,1.2,0.4c1.3,0,2.5-0.7,3.9-2.1c0.2-0.2,0.3-0.3,0.4-0.3
				C-362.2,297.1-362.1,297.2-362.1,297.5z M-368.2,296.2c2.5-1.5,3.7-2.7,3.7-3.6c0-0.4-0.2-0.5-0.5-0.5c-0.5,0-1.1,0.4-1.8,1.2
				S-367.9,295-368.2,296.2z"/>
			<path class="st2" d="M-351.4,295.5c0.8-1.4,1.6-2.5,2.7-3.3s2-1.3,2.8-1.3c0.5,0,0.9,0.2,1.2,0.6s0.5,0.9,0.5,1.6
				c0,1.8-0.7,3.5-2.1,5.1s-2.8,2.4-4.4,2.4c-0.4,0-0.8-0.1-1.1-0.3c-0.3-0.2-0.5-0.5-0.6-0.8c0-0.3-0.1-0.5-0.2-0.6
				c-0.3-0.3-0.4-0.5-0.4-0.8c0-0.5,0.1-1.7,0.4-3.4l0.9-5.3c0.3-1.8,0.5-2.9,0.7-3.3s0.3-0.7,0.5-0.8s0.4-0.2,0.7-0.2
				c0.4,0,0.6,0.4,0.6,1.1c0,0.7-0.2,1.6-0.7,2.8C-350.4,290.1-350.9,292.3-351.4,295.5z M-351.7,298.5c0.3,0.6,0.7,0.9,1.1,0.9
				c0.7,0,1.4-0.3,2.1-0.8c0.7-0.6,1.4-1.3,1.9-2.3c0.5-1,0.8-1.9,0.8-2.5c0-0.3-0.1-0.6-0.2-0.8s-0.3-0.3-0.4-0.3
				c-0.8,0-1.8,0.7-3,2S-351.2,297.1-351.7,298.5z"/>
			<path class="st2" d="M-336.4,296.7c-0.8,1.3-1.5,2.2-2.3,2.9s-1.5,1-2.2,1c-0.4,0-0.8-0.2-1.2-0.7s-0.6-1.1-0.6-2.1
				c0-0.8,0.2-1.9,0.6-3.4c0.3-1.2,0.5-2.1,0.5-2.6c0.2-0.4,0.4-0.5,0.8-0.5c0.2,0,0.4,0.1,0.6,0.3c0.1,0.2,0.2,0.4,0.2,0.5
				c0,0.4-0.1,1-0.4,1.7c-0.5,1.5-0.8,2.7-0.8,3.8c0,1,0.2,1.4,0.7,1.4c0.6,0,1.3-0.5,2.2-1.5s1.6-2.3,2.3-4
				c0.2-0.7,0.4-1.1,0.6-1.3s0.4-0.3,0.6-0.3c0.4,0,0.6,0.3,0.6,0.8c0,0.1-0.1,0.3-0.2,0.6c-0.4,1.3-0.5,2.5-0.5,3.6
				c0,1.4,0.2,2.3,0.7,2.7c0.2,0.2,0.4,0.4,0.4,0.5c0,0.2-0.1,0.3-0.4,0.4s-0.5,0.2-0.6,0.2c-0.4,0-0.7-0.3-1-0.9s-0.4-1.5-0.4-2.7
				V297C-336.4,296.9-336.4,296.8-336.4,296.7z"/>
			<path class="st2" d="M-327.2,298.5c0-0.4-0.5-0.8-1.4-1.3c-1.2-0.6-2-1.1-2.4-1.5c-0.4-0.4-0.6-0.8-0.6-1.2
				c0-1.2,0.6-2.1,1.8-2.9s2.1-1.2,2.9-1.2c0.5,0,0.8,0.1,1,0.2s0.3,0.4,0.3,0.9c0,0.2-0.1,0.3-0.2,0.5s-0.3,0.2-0.4,0.2
				c-0.1,0-0.2,0-0.4-0.1c-0.2-0.1-0.3-0.1-0.4-0.1c-0.3,0-0.9,0.2-1.8,0.6s-1.3,0.9-1.3,1.5c0,0.3,0.2,0.6,0.5,0.9
				c0.3,0.3,0.9,0.6,1.7,1c0.7,0.3,1.2,0.7,1.6,1c0.4,0.4,0.6,0.8,0.6,1.3c0,0.9-0.6,1.6-1.9,2.1c-1.2,0.5-2.4,0.8-3.5,0.8
				c-0.9,0-1.4-0.3-1.4-1c0-0.2,0.1-0.4,0.3-0.5s0.4-0.2,0.6-0.2c0.1,0,0.3,0,0.5,0.1c0.2,0.1,0.4,0.1,0.5,0.1
				c0.7,0,1.3-0.1,2.1-0.3S-327.4,298.8-327.2,298.5z"/>
			<path class="st2" d="M-322.3,298.6c0,0.4,0.1,0.9,0.2,1.5c0,0.1,0,0.2,0,0.3c0,0.1-0.1,0.2-0.3,0.4c-0.2,0.2-0.4,0.3-0.6,0.3
				c-0.6,0-0.9-0.5-0.9-1.6c0-1.1,0.2-2.8,0.7-5.1c0.2-0.8,0.2-1.3,0.2-1.5c0-0.4,0.1-0.7,0.2-0.9s0.3-0.4,0.6-0.4
				c0.3,0,0.5,0.1,0.7,0.2s0.3,0.3,0.3,0.5s0,0.4-0.1,0.7c-0.4,1.5-0.7,2.7-0.8,3.3S-322.3,297.7-322.3,298.6z M-321.1,288.8
				c-0.1,0-0.2-0.1-0.3-0.4c0-0.1-0.1-0.2-0.1-0.3c-0.2-0.4-0.2-0.7-0.2-1c0-0.2,0.1-0.5,0.4-0.7c0.3-0.2,0.6-0.4,0.9-0.4
				c0.2,0,0.4,0.1,0.6,0.2c0.2,0.1,0.3,0.3,0.3,0.4c0,0.2-0.1,0.5-0.2,1s-0.4,0.8-0.7,0.9S-321,288.8-321.1,288.8z"/>
			<path class="st2" d="M-312.8,293.8c-0.3,0-0.6,0.2-1,0.6s-0.9,1.3-1.6,2.7c-1,1.9-1.6,2.9-1.9,3.2s-0.5,0.4-0.7,0.4
				c-0.7,0-1-0.3-1-1c0-0.3,0-0.7,0.1-1.2c0.3-1.8,0.5-3.6,0.5-5.6c0-0.2,0.1-0.5,0.3-0.7c0.2-0.3,0.4-0.4,0.5-0.4
				c0.3,0,0.5,0.1,0.7,0.3s0.2,0.6,0.2,1.1c0,0.6-0.2,1.8-0.5,3.7c-0.1,0.6-0.2,1-0.2,1.2c0,0.1,0,0.1,0.1,0.1
				c0.1,0,0.5-0.7,1.2-2.1c0.7-1.4,1.4-2.4,1.9-3s1.2-0.9,1.8-0.9c0.5,0,1,0.2,1.3,0.7s0.6,1.4,0.7,2.6c0.2,1.4,0.3,2.3,0.4,2.7
				s0.3,0.5,0.6,0.5c0.2,0,0.4-0.1,0.7-0.2c0,0,0.1,0,0.1,0c0.3,0,0.4,0.1,0.4,0.4c0,0.3-0.2,0.5-0.5,0.8c-0.3,0.3-0.8,0.4-1.2,0.4
				c-0.5,0-0.9-0.2-1.2-0.6c-0.3-0.4-0.5-1.5-0.6-3.2C-311.9,294.6-312.2,293.8-312.8,293.8z"/>
			<path class="st2" d="M-299.3,297.5c0,0.6-0.5,1.3-1.6,2.2s-2.1,1.3-3.3,1.3c-0.9,0-1.7-0.3-2.2-0.8s-0.8-1.3-0.8-2.3
				c0-1.7,0.6-3.3,1.7-4.8s2.4-2.3,3.7-2.3c0.4,0,0.8,0.1,1.1,0.4s0.4,0.6,0.4,1c0,0.9-0.4,1.8-1.3,2.6s-2.1,1.6-3.6,2.4
				c-0.3,0.2-0.5,0.4-0.5,0.6c0,0.5,0.1,0.9,0.4,1.2s0.7,0.4,1.2,0.4c1.3,0,2.5-0.7,3.9-2.1c0.2-0.2,0.3-0.3,0.4-0.3
				C-299.4,297.1-299.3,297.2-299.3,297.5z M-305.4,296.2c2.5-1.5,3.7-2.7,3.7-3.6c0-0.4-0.2-0.5-0.5-0.5c-0.5,0-1.1,0.4-1.8,1.2
				S-305.1,295-305.4,296.2z"/>
			<path class="st2" d="M-293,298.5c0-0.4-0.5-0.8-1.4-1.3c-1.2-0.6-2-1.1-2.4-1.5c-0.4-0.4-0.6-0.8-0.6-1.2c0-1.2,0.6-2.1,1.8-2.9
				s2.1-1.2,2.9-1.2c0.5,0,0.8,0.1,1,0.2s0.3,0.4,0.3,0.9c0,0.2-0.1,0.3-0.2,0.5s-0.3,0.2-0.4,0.2c-0.1,0-0.2,0-0.4-0.1
				c-0.2-0.1-0.3-0.1-0.4-0.1c-0.3,0-0.9,0.2-1.8,0.6s-1.3,0.9-1.3,1.5c0,0.3,0.2,0.6,0.5,0.9c0.3,0.3,0.9,0.6,1.7,1
				c0.7,0.3,1.2,0.7,1.6,1c0.4,0.4,0.6,0.8,0.6,1.3c0,0.9-0.6,1.6-1.9,2.1c-1.2,0.5-2.4,0.8-3.5,0.8c-0.9,0-1.4-0.3-1.4-1
				c0-0.2,0.1-0.4,0.3-0.5s0.4-0.2,0.6-0.2c0.1,0,0.3,0,0.5,0.1c0.2,0.1,0.4,0.1,0.5,0.1c0.7,0,1.3-0.1,2.1-0.3
				S-293.2,298.8-293,298.5z"/>
			<path class="st2" d="M-285.4,298.5c0-0.4-0.5-0.8-1.4-1.3c-1.2-0.6-2-1.1-2.4-1.5c-0.4-0.4-0.6-0.8-0.6-1.2
				c0-1.2,0.6-2.1,1.8-2.9s2.1-1.2,2.9-1.2c0.5,0,0.8,0.1,1,0.2s0.3,0.4,0.3,0.9c0,0.2-0.1,0.3-0.2,0.5s-0.3,0.2-0.4,0.2
				c-0.1,0-0.2,0-0.4-0.1c-0.2-0.1-0.3-0.1-0.4-0.1c-0.3,0-0.9,0.2-1.8,0.6s-1.3,0.9-1.3,1.5c0,0.3,0.2,0.6,0.5,0.9
				c0.3,0.3,0.9,0.6,1.7,1c0.7,0.3,1.2,0.7,1.6,1c0.4,0.4,0.6,0.8,0.6,1.3c0,0.9-0.6,1.6-1.9,2.1c-1.2,0.5-2.4,0.8-3.5,0.8
				c-0.9,0-1.4-0.3-1.4-1c0-0.2,0.1-0.4,0.3-0.5s0.4-0.2,0.6-0.2c0.1,0,0.3,0,0.5,0.1c0.2,0.1,0.4,0.1,0.5,0.1
				c0.7,0,1.3-0.1,2.1-0.3S-285.6,298.8-285.4,298.5z"/>
			<path class="st2" d="M-273.2,297c0.1-0.1,0.1-0.3,0.2-0.4c0.4-0.9,0.8-1.6,1.1-2.1c0.3-0.5,0.7-1,1.1-1.5s0.8-0.8,1.1-1.1
				s0.6-0.4,0.9-0.5c0.3-0.1,0.5-0.1,0.8-0.1c0.5,0,0.9,0.2,1.2,0.5c0.3,0.3,0.5,0.7,0.5,1.1c0,0.2-0.1,0.3-0.2,0.5
				s-0.3,0.2-0.5,0.2c-0.2,0-0.5-0.1-0.7-0.3c-0.2-0.2-0.4-0.3-0.7-0.3c-0.6,0-1.5,0.7-2.5,2.2s-1.7,3.1-2,4.9
				c-0.1,0.5-0.2,0.8-0.3,0.9s-0.4,0.2-0.7,0.2c-0.3,0-0.5-0.2-0.6-0.6s-0.2-1.1-0.2-2.2c0-0.3,0-0.9,0-1.8c0-1.1,0.1-2,0.2-2.7
				c0-0.1,0-0.4,0.1-0.8c0-0.5,0.1-0.8,0.2-0.9s0.2-0.3,0.4-0.5s0.4-0.2,0.6-0.2c0.2,0,0.4,0.1,0.5,0.2c0.1,0.1,0.2,0.3,0.2,0.4
				c0,0.2-0.1,0.6-0.2,1c-0.1,0.5-0.2,0.8-0.2,1c0,0.2,0,0.4-0.1,0.6c-0.1,0.3-0.1,0.9-0.2,2l0,0.3V297z"/>
			<path class="st2" d="M-258.2,297.5c0,0.6-0.5,1.3-1.6,2.2s-2.1,1.3-3.3,1.3c-0.9,0-1.7-0.3-2.2-0.8s-0.8-1.3-0.8-2.3
				c0-1.7,0.6-3.3,1.7-4.8s2.4-2.3,3.7-2.3c0.4,0,0.8,0.1,1.1,0.4s0.4,0.6,0.4,1c0,0.9-0.4,1.8-1.3,2.6s-2.1,1.6-3.6,2.4
				c-0.3,0.2-0.5,0.4-0.5,0.6c0,0.5,0.1,0.9,0.4,1.2s0.7,0.4,1.2,0.4c1.3,0,2.5-0.7,3.9-2.1c0.2-0.2,0.3-0.3,0.4-0.3
				C-258.3,297.1-258.2,297.2-258.2,297.5z M-264.3,296.2c2.5-1.5,3.7-2.7,3.7-3.6c0-0.4-0.2-0.5-0.5-0.5c-0.5,0-1.1,0.4-1.8,1.2
				S-264,295-264.3,296.2z"/>
			<path class="st2" d="M-254.7,299.5c-0.3,1.1-0.6,2.5-0.8,4.4l-0.2,1.7c0,0.2-0.1,0.5-0.3,0.7c-0.2,0.2-0.3,0.3-0.5,0.3
				c-0.2,0-0.4-0.1-0.6-0.3c-0.2-0.2-0.3-0.3-0.3-0.4c0-0.3,0.1-0.8,0.2-1.3c1.1-4.3,1.6-8.1,1.6-11.4l0-0.7c0-0.6,0.1-1.1,0.3-1.4
				s0.5-0.4,0.8-0.4c0.1,0,0.3,0.1,0.4,0.3c0.1,0.2,0.2,0.5,0.2,0.9c0,0.6-0.1,1.3-0.2,2.1c-0.2,1-0.2,1.6-0.2,1.8
				c0.9-1.5,1.8-2.7,2.8-3.6s1.9-1.3,2.7-1.3c0.6,0,1.1,0.2,1.5,0.7s0.6,1,0.6,1.6c0,1.9-0.7,3.6-2.2,5.2s-2.9,2.3-4.3,2.3
				c-0.3,0-0.6-0.1-0.8-0.3S-254.5,300-254.7,299.5z M-249.2,292.4c-0.8,0-1.8,0.8-3.1,2.3s-1.8,2.8-1.8,3.6c0,0.2,0.1,0.4,0.4,0.6
				s0.5,0.3,0.9,0.3c0.8,0,1.8-0.6,2.9-1.9c1.1-1.2,1.6-2.5,1.6-3.7c0-0.4-0.1-0.8-0.3-1C-248.7,292.5-249,292.4-249.2,292.4z"/>
			<path class="st2" d="M-242.2,301c-0.8,0-1.5-0.3-2-0.9s-0.8-1.4-0.8-2.3c0-1.5,0.5-3,1.5-4.5c1-1.5,2.2-2.2,3.7-2.2
				c0.9,0,1.7,0.4,2.3,1.1s0.9,1.6,0.9,2.6c0,1.5-0.6,2.9-1.8,4.2S-240.9,301-242.2,301z M-243.4,297.6c0,0.6,0.1,1.1,0.4,1.5
				s0.6,0.6,1,0.6c0.9,0,1.7-0.5,2.6-1.4c0.9-1,1.3-2,1.3-3.2c0-0.7-0.2-1.3-0.5-1.8c-0.3-0.4-0.8-0.7-1.4-0.7
				c-0.9,0-1.8,0.6-2.4,1.7C-243.1,295.4-243.4,296.5-243.4,297.6z"/>
			<path class="st2" d="M-232.8,297c0.1-0.1,0.1-0.3,0.2-0.4c0.4-0.9,0.8-1.6,1.1-2.1c0.3-0.5,0.7-1,1.1-1.5s0.8-0.8,1.1-1.1
				s0.6-0.4,0.9-0.5c0.3-0.1,0.5-0.1,0.8-0.1c0.5,0,0.9,0.2,1.2,0.5c0.3,0.3,0.5,0.7,0.5,1.1c0,0.2-0.1,0.3-0.2,0.5
				s-0.3,0.2-0.5,0.2c-0.2,0-0.5-0.1-0.7-0.3c-0.2-0.2-0.4-0.3-0.7-0.3c-0.6,0-1.5,0.7-2.5,2.2s-1.7,3.1-2,4.9
				c-0.1,0.5-0.2,0.8-0.3,0.9s-0.4,0.2-0.7,0.2c-0.3,0-0.5-0.2-0.6-0.6s-0.2-1.1-0.2-2.2c0-0.3,0-0.9,0-1.8c0-1.1,0.1-2,0.2-2.7
				c0-0.1,0-0.4,0.1-0.8c0-0.5,0.1-0.8,0.2-0.9s0.2-0.3,0.4-0.5s0.4-0.2,0.6-0.2c0.2,0,0.4,0.1,0.5,0.2c0.1,0.1,0.2,0.3,0.2,0.4
				c0,0.2-0.1,0.6-0.2,1c-0.1,0.5-0.2,0.8-0.2,1c0,0.2,0,0.4-0.1,0.6c-0.1,0.3-0.1,0.9-0.2,2l0,0.3V297z"/>
			<path class="st2" d="M-221,291.7c0.6,0,1.2-0.1,1.7-0.2c0.5-0.1,1-0.1,1.3-0.1c0.4,0,0.7,0,0.8,0.1s0.2,0.2,0.2,0.4
				c0,0.5-0.3,0.7-1,0.8c-0.8,0.1-1.6,0.1-2.3,0.2s-1.1,0.2-1.2,0.2c-0.1,0.1-0.2,0.8-0.5,2.1c-0.3,1.3-0.4,2.2-0.4,2.6
				c0,0.6,0.1,1.1,0.3,1.3c0.2,0.2,0.4,0.3,0.8,0.3c0.5,0,1.2-0.4,2.1-1.1c0.3-0.3,0.6-0.5,0.8-0.5c0.3,0,0.4,0.1,0.4,0.4
				c0,0.4-0.4,1-1.2,1.6c-0.8,0.7-1.6,1-2.5,1c-1.4,0-2.1-0.8-2.1-2.5c0-0.6,0.1-1.5,0.4-2.8c0.3-1.3,0.4-2,0.4-2.3
				c0-0.1-0.1-0.1-0.2-0.1l-0.9,0.1c-0.8,0-1.1-0.3-1.1-0.9c0-0.3,0.2-0.5,0.5-0.5h1.8c0.1,0,0.2-0.1,0.3-0.2s0.2-0.5,0.4-1.1
				s0.3-1.3,0.5-1.9c0.1-0.6,0.4-0.9,0.8-0.9c0.3,0,0.4,0.1,0.6,0.3s0.2,0.3,0.2,0.5c0,0.1-0.1,0.5-0.3,1.3L-221,291.7z"/>
		</g>
	</g>
	<line id="Line_831" class="st3" x1="-3035.4" y1="1707.2" x2="-3035.4" y2="1828.6"/>
	<line id="Line_832" class="st3" x1="-3002.6" y1="1707.2" x2="-3002.6" y2="1828.6"/>
	<line id="Line_833" class="st3" x1="-2969.7" y1="1707.2" x2="-2969.7" y2="1828.6"/>
	<line id="Line_834" class="st3" x1="-2936.9" y1="1707.2" x2="-2936.9" y2="1828.6"/>
	<line id="Line_835" class="st3" x1="-2904.1" y1="1707.2" x2="-2904.1" y2="1828.6"/>
	<line id="Line_836" class="st3" x1="-2871.4" y1="1707.2" x2="-2871.4" y2="1828.6"/>
	<line id="Line_837" class="st3" x1="-2838.5" y1="1707.2" x2="-2838.5" y2="1828.6"/>
	<path id="Path_11234" class="st4" d="M-2805.7,1697.6v131h-271.7"/>
	<path id="Path_11235" class="st5" d="M-3068.2,1790.2c14.3,0,21.9,25.1,32.8,25.1c13.5,0,15.2-34.8,32.8-34.8
		c15,0,17.6-45.6,32.8-45.6c15.4,0,17,38.1,32.8,38.1c11.6,0,19.3-21,32.8-21s19.7,12.8,32.8,12.8c18.6,0,20.5-52,32.8-52"/>
	<path id="Path_11236" class="st6" d="M-3035.7,1813c1.3-0.2,2.5,0.6,2.7,1.9c0.2,1.3-0.6,2.5-1.9,2.7s-2.5-0.6-2.7-1.9c0,0,0,0,0,0
		C-3037.8,1814.4-3036.9,1813.2-3035.7,1813z"/>
	<path id="Path_11237" class="st6" d="M-3002.9,1778.2c1.2-0.2,2.4,0.6,2.6,1.9c0,0,0,0,0,0c0.2,1.2-0.6,2.4-1.8,2.6
		c0,0-0.1,0-0.1,0c-1.2,0.2-2.4-0.6-2.6-1.9c0,0,0,0,0,0C-3005,1779.6-3004.1,1778.4-3002.9,1778.2z"/>
	<path id="Path_11238" class="st6" d="M-2970.1,1732.6c1.3-0.2,2.5,0.6,2.7,1.9c0.2,1.3-0.6,2.5-1.9,2.7c-1.3,0.2-2.5-0.6-2.7-1.9
		c0,0,0,0,0,0C-2972.2,1734-2971.4,1732.9-2970.1,1732.6z"/>
	<path id="Path_11239" class="st6" d="M-2937.3,1770.6c1.3-0.2,2.5,0.6,2.7,1.9c0.2,1.3-0.6,2.5-1.9,2.7c-1.3,0.2-2.5-0.6-2.7-1.9
		c0,0,0,0,0,0C-2939.4,1772-2938.5,1770.9-2937.3,1770.6z"/>
	<path id="Path_11240" class="st6" d="M-2904.5,1749.7c1.2-0.2,2.4,0.6,2.6,1.8c0,0.1,0,0.1,0,0.2c0.2,1.2-0.6,2.5-1.8,2.7
		c-1.2,0.2-2.5-0.6-2.7-1.8c0,0,0-0.1,0-0.1c-0.2-1.2,0.6-2.4,1.8-2.6C-2904.6,1749.8-2904.5,1749.8-2904.5,1749.7z"/>
	<path id="Path_11241" class="st6" d="M-2838.9,1710.5c1.2-0.2,2.4,0.6,2.6,1.8c0,0.1,0,0.1,0,0.2c0.2,1.2-0.6,2.5-1.8,2.7
		c-1.2,0.2-2.5-0.6-2.7-1.8c0,0,0-0.1,0-0.1C-2841,1711.8-2840.1,1710.7-2838.9,1710.5z"/>
	<path id="Path_11242" class="st6" d="M-2871.7,1762.5c1.2-0.2,2.4,0.6,2.6,1.9c0,0,0,0,0,0c0.2,1.2-0.6,2.4-1.8,2.6
		c0,0-0.1,0-0.1,0c-1.2,0.2-2.4-0.6-2.6-1.9c0,0,0,0,0,0c-0.2-1.2,0.6-2.4,1.8-2.6C-2871.8,1762.5-2871.7,1762.5-2871.7,1762.5z"/>
	<line id="Line_838" class="st7" x1="-3019" y1="1825.5" x2="-3019" y2="1828.6"/>
	<line id="Line_839" class="st7" x1="-2986.1" y1="1825.5" x2="-2986.1" y2="1828.6"/>
	<line id="Line_840" class="st7" x1="-2953.3" y1="1825.5" x2="-2953.3" y2="1828.6"/>
	<line id="Line_841" class="st7" x1="-2920.5" y1="1825.5" x2="-2920.5" y2="1828.6"/>
	<line id="Line_842" class="st7" x1="-2887.8" y1="1825.5" x2="-2887.8" y2="1828.6"/>
	<line id="Line_843" class="st7" x1="-2854.9" y1="1825.5" x2="-2854.9" y2="1828.6"/>
	<line id="Line_844" class="st7" x1="-2822.1" y1="1825.5" x2="-2822.1" y2="1828.6"/>
	<line id="Line_845" class="st7" x1="-2805.7" y1="1795.5" x2="-2811.8" y2="1795.5"/>
	<line id="Line_846" class="st7" x1="-2805.7" y1="1812.1" x2="-2808.8" y2="1812.1"/>
	<line id="Line_847" class="st7" x1="-2805.7" y1="1779" x2="-2808.8" y2="1779"/>
	<line id="Line_848" class="st7" x1="-2805.7" y1="1762.4" x2="-2811.8" y2="1762.4"/>
	<line id="Line_849" class="st7" x1="-2805.7" y1="1745.9" x2="-2808.8" y2="1745.9"/>
	<line id="Line_850" class="st7" x1="-2805.7" y1="1729.3" x2="-2811.8" y2="1729.3"/>
	<line id="Line_851" class="st7" x1="-2805.7" y1="1712.8" x2="-2808.8" y2="1712.8"/>
	<g class="st1">
		<path class="st8" d="M-2986.8,1847c0.7,0.3,1.2,0.6,1.4,0.9s0.3,0.7,0.3,1.1c0,0.7-0.5,1.5-1.4,2.3s-2,1.2-3,1.2
			c-0.6,0-0.9-0.2-0.9-0.5c0-0.6,0.4-0.9,1.2-0.9h0.3c0.4,0,0.9-0.2,1.4-0.7s0.9-0.9,0.9-1.4c0-0.3-0.1-0.5-0.4-0.7s-0.6-0.3-1-0.3
			c0,0-0.2,0.1-0.5,0.2c-0.3,0.1-0.5,0.2-0.6,0.2c-0.4,0-0.6,0-0.7-0.1s-0.2-0.3-0.2-0.5c0-0.2,0.4-0.4,1.2-0.8
			c0.5-0.2,0.9-0.5,1.4-0.9s0.7-0.8,0.7-1.1c0-0.4-0.3-0.6-0.8-0.6c-0.5,0-1,0.1-1.6,0.2s-0.8,0.3-0.8,0.4s-0.2,1.1-0.4,2.7
			s-0.4,2.6-0.4,2.8l-0.1,0.8c0,0.4-0.1,0.7-0.3,0.8s-0.3,0.2-0.5,0.2c-0.5,0-0.8-0.3-0.8-1c0-0.1,0-0.3,0.1-0.6
			c0.2-0.7,0.3-1.7,0.5-3s0.2-1.9,0.2-2c0-0.2,0-0.3-0.1-0.3l-0.2,0c-0.1,0-0.2,0-0.3-0.1s-0.1-0.2-0.2-0.2s0-0.1,0-0.2
			c0-0.4,0.5-0.8,1.6-1.1s2.2-0.5,3.4-0.5c0.6,0,1.2,0.2,1.5,0.5s0.6,0.7,0.6,1.2c0,0.3-0.1,0.6-0.4,1S-2986.2,1846.5-2986.8,1847z"
			/>
		<path class="st8" d="M-2979.7,1849.6c-0.4,0.7-0.8,1.2-1.3,1.6s-1,0.6-1.5,0.6c-0.3,0-0.6-0.2-0.9-0.5s-0.5-0.8-0.5-1.5
			c0-0.5,0.1-1.2,0.4-2.1c0.2-0.8,0.3-1.4,0.3-1.8c0.2-0.3,0.4-0.5,0.7-0.5c0.2,0,0.4,0.1,0.5,0.2s0.2,0.3,0.2,0.5
			c0,0.3-0.1,0.7-0.3,1.2c-0.1,0.3-0.2,0.7-0.4,1.3s-0.2,0.9-0.2,1.1c0,0.5,0.1,0.8,0.3,0.8c0.3,0,0.8-0.3,1.4-1s1-1.3,1.1-2
			c0.2-0.7,0.3-1.1,0.5-1.3s0.3-0.3,0.6-0.3c0.4,0,0.6,0.2,0.6,0.7c0,0.1,0,0.2-0.1,0.4c-0.2,0.7-0.3,1.5-0.3,2.3
			c0,1,0.2,1.6,0.5,1.8c0.1,0.1,0.2,0.1,0.2,0.2c0,0.1-0.1,0.3-0.3,0.4s-0.4,0.2-0.6,0.2c-0.3,0-0.5-0.2-0.7-0.7
			S-2979.7,1850.3-2979.7,1849.6z"/>
		<path class="st8" d="M-2973.8,1850.3c0-0.2-0.4-0.5-1-0.8c-0.8-0.4-1.3-0.7-1.5-1s-0.3-0.6-0.3-0.9c0-0.7,0.4-1.3,1.2-1.8
			s1.5-0.8,2.2-0.8c0.7,0,1,0.3,1,0.9c0,0.2-0.1,0.3-0.2,0.4s-0.3,0.2-0.4,0.2c0,0-0.1,0-0.2-0.1s-0.2-0.1-0.3-0.1
			c-0.3,0-0.7,0.1-1.1,0.4s-0.6,0.5-0.6,0.8c0,0.2,0.1,0.3,0.2,0.4s0.5,0.3,0.9,0.5c0.7,0.3,1.1,0.6,1.3,0.9s0.3,0.5,0.3,0.9
			c0,0.6-0.4,1-1.2,1.4s-1.6,0.6-2.6,0.6c-0.7,0-1.1-0.3-1.1-0.8c0-0.2,0.1-0.3,0.2-0.5s0.3-0.2,0.5-0.2c0.1,0,0.2,0,0.3,0.1
			c0.2,0.1,0.3,0.1,0.4,0.1c0.4,0,0.8-0.1,1.2-0.2S-2973.9,1850.4-2973.8,1850.3z"/>
		<path class="st8" d="M-2971,1847.9L-2971,1847.9c0.1-0.7,0.2-1.1,0.2-1.2c0-0.3,0.1-0.5,0.2-0.7s0.3-0.3,0.5-0.3
			c0.3,0,0.5,0.1,0.6,0.2s0.2,0.3,0.2,0.4s-0.1,0.5-0.2,1l0,0.1c-0.2,0.8-0.3,1.4-0.4,1.8s-0.1,0.9-0.1,1.2c0,0.2,0,0.6,0.1,1
			c0,0.1,0,0.1,0,0.2c0,0.1-0.1,0.2-0.3,0.4s-0.4,0.2-0.5,0.2c-0.5,0-0.8-0.4-0.8-1.2c0-0.7,0.1-1.5,0.3-2.4
			C-2971.1,1848.2-2971.1,1848-2971,1847.9z M-2968.2,1843c0,0.3-0.1,0.5-0.4,0.7s-0.5,0.3-0.7,0.3c-0.2,0-0.4-0.1-0.6-0.3
			s-0.3-0.4-0.3-0.6c0-0.3,0.1-0.5,0.3-0.7s0.4-0.3,0.8-0.3c0.3,0,0.5,0.1,0.6,0.2S-2968.2,1842.8-2968.2,1843z"/>
		<path class="st8" d="M-2963.1,1850.9c-0.2-0.4-0.3-1-0.4-2c-0.1-1-0.3-1.5-0.6-1.5c-0.3,0-0.8,0.5-1.5,1.6s-1.1,1.8-1.3,2.3
			c0,0.1-0.1,0.3-0.2,0.4s-0.2,0.1-0.3,0.1c-0.6,0-0.9-0.3-0.9-0.8c0-0.2,0.1-0.6,0.2-1.3c0.2-0.8,0.2-1.9,0.2-3.1
			c0-0.2,0.1-0.4,0.2-0.6s0.3-0.3,0.5-0.3c0.2,0,0.4,0.1,0.5,0.2s0.2,0.4,0.2,0.9c0,0.4-0.1,1.1-0.3,2.2c0.8-2,1.8-3,2.8-3
			c0.9,0,1.4,0.7,1.6,2.1c0.2,1.5,0.3,2.2,0.5,2.2c0.1,0,0.2,0,0.3-0.1c0.1,0,0.3-0.1,0.3-0.1c0.2,0,0.3,0.1,0.3,0.3
			c0,0.2-0.1,0.4-0.4,0.6s-0.6,0.3-1,0.3C-2962.6,1851.5-2962.9,1851.3-2963.1,1850.9L-2963.1,1850.9z"/>
		<path class="st8" d="M-2954.8,1849.7c0,0.4-0.3,0.9-1,1.5s-1.5,0.8-2.3,0.8c-0.7,0-1.2-0.2-1.6-0.6s-0.6-1-0.6-1.7
			c0-1.1,0.4-2.1,1.2-3.1s1.6-1.4,2.5-1.4c0.4,0,0.8,0.1,1.1,0.4s0.4,0.6,0.4,1c0,0.7-0.3,1.3-1,1.9s-1.5,1-2.5,1.3
			c-0.1,0-0.2,0.1-0.2,0.2c0,0.2,0.1,0.4,0.2,0.5s0.4,0.3,0.7,0.3c0.8,0,1.6-0.4,2.3-1.2c0.1-0.2,0.3-0.2,0.4-0.2
			C-2955,1849.3-2954.8,1849.5-2954.8,1849.7z M-2958.8,1848.7c0.6-0.1,1.2-0.4,1.6-0.8s0.7-0.8,0.7-1.1c0-0.1,0-0.2-0.1-0.3
			s-0.2-0.1-0.3-0.1c-0.3,0-0.7,0.3-1.1,0.8S-2958.6,1848.1-2958.8,1848.7z"/>
		<path class="st8" d="M-2951.1,1850.3c0-0.2-0.4-0.5-1-0.8c-0.8-0.4-1.3-0.7-1.5-1s-0.3-0.6-0.3-0.9c0-0.7,0.4-1.3,1.2-1.8
			s1.5-0.8,2.2-0.8c0.7,0,1,0.3,1,0.9c0,0.2-0.1,0.3-0.2,0.4s-0.3,0.2-0.4,0.2c0,0-0.1,0-0.2-0.1s-0.2-0.1-0.3-0.1
			c-0.3,0-0.7,0.1-1.1,0.4s-0.6,0.5-0.6,0.8c0,0.2,0.1,0.3,0.2,0.4s0.5,0.3,0.9,0.5c0.7,0.3,1.1,0.6,1.3,0.9s0.3,0.5,0.3,0.9
			c0,0.6-0.4,1-1.2,1.4s-1.6,0.6-2.6,0.6c-0.7,0-1.1-0.3-1.1-0.8c0-0.2,0.1-0.3,0.2-0.5s0.3-0.2,0.5-0.2c0.1,0,0.2,0,0.3,0.1
			c0.2,0.1,0.3,0.1,0.4,0.1c0.4,0,0.8-0.1,1.2-0.2S-2951.2,1850.4-2951.1,1850.3z"/>
		<path class="st8" d="M-2946,1850.3c0-0.2-0.4-0.5-1-0.8c-0.8-0.4-1.3-0.7-1.5-1s-0.3-0.6-0.3-0.9c0-0.7,0.4-1.3,1.2-1.8
			s1.5-0.8,2.2-0.8c0.7,0,1,0.3,1,0.9c0,0.2-0.1,0.3-0.2,0.4s-0.3,0.2-0.4,0.2c0,0-0.1,0-0.2-0.1s-0.2-0.1-0.3-0.1
			c-0.3,0-0.7,0.1-1.1,0.4s-0.6,0.5-0.6,0.8c0,0.2,0.1,0.3,0.2,0.4s0.5,0.3,0.9,0.5c0.7,0.3,1.1,0.6,1.3,0.9s0.3,0.5,0.3,0.9
			c0,0.6-0.4,1-1.2,1.4s-1.6,0.6-2.6,0.6c-0.7,0-1.1-0.3-1.1-0.8c0-0.2,0.1-0.3,0.2-0.5s0.3-0.2,0.5-0.2c0.1,0,0.2,0,0.3,0.1
			c0.2,0.1,0.3,0.1,0.4,0.1c0.4,0,0.8-0.1,1.2-0.2S-2946.2,1850.4-2946,1850.3z"/>
		<path class="st8" d="M-2938,1844.7l-0.1-0.1c-0.1-0.2-0.2-0.3-0.2-0.4c0-0.2,0.1-0.4,0.3-0.5s0.4-0.2,0.5-0.2c0.1,0,0.2,0,0.3,0
			c0.1,0,0.2,0,0.2,0c1.2-0.2,2-0.3,2.4-0.3c0.9,0,1.6,0.2,2.1,0.6s0.8,0.9,0.8,1.5c0,0.6-0.2,1.1-0.7,1.6s-1.2,0.9-2,1.3
			c1.4,1.1,2.4,1.9,3.2,2.3c0.3,0.2,0.4,0.3,0.4,0.6c0,0.2-0.1,0.3-0.3,0.5s-0.3,0.2-0.5,0.2c-0.2,0-0.5-0.1-0.8-0.3
			s-0.7-0.5-1.2-0.9s-0.8-0.7-0.9-0.8c-0.7-0.6-1.3-1-1.6-1.2c-0.4,0-0.6-0.2-0.6-0.6c0-0.2,0.1-0.4,0.3-0.5s0.4-0.2,0.6-0.2
			c0.1,0,0.1,0,0.2,0c0.1,0,0.1,0,0.2,0c0.3,0,0.7-0.2,1.4-0.6s1-0.9,1-1.4c0-0.3-0.1-0.5-0.4-0.7s-0.6-0.3-1.1-0.3
			c-0.5,0-0.9,0-1.3,0.1s-0.5,0.1-0.5,0.1s-0.1,0.1-0.1,0.2s-0.1,0.5-0.3,1.2s-0.3,1.5-0.4,2.3s-0.2,1.5-0.2,1.9
			c0,0.3,0,0.5,0.1,0.7c0,0.2,0.1,0.4,0.1,0.5c0,0.1-0.1,0.3-0.2,0.5s-0.3,0.2-0.5,0.2c-0.5,0-0.8-0.4-0.8-1.1
			c0-0.6,0.1-1.5,0.2-2.6s0.3-2.1,0.5-2.9c0-0.1,0.1-0.3,0.1-0.4L-2938,1844.7z"/>
		<path class="st8" d="M-2925,1849.7c0,0.4-0.3,0.9-1,1.5s-1.5,0.8-2.3,0.8c-0.7,0-1.2-0.2-1.6-0.6s-0.6-1-0.6-1.7
			c0-1.1,0.4-2.1,1.2-3.1s1.6-1.4,2.5-1.4c0.4,0,0.8,0.1,1.1,0.4s0.4,0.6,0.4,1c0,0.7-0.3,1.3-1,1.9s-1.5,1-2.5,1.3
			c-0.1,0-0.2,0.1-0.2,0.2c0,0.2,0.1,0.4,0.2,0.5s0.4,0.3,0.7,0.3c0.8,0,1.6-0.4,2.3-1.2c0.1-0.2,0.3-0.2,0.4-0.2
			C-2925.1,1849.3-2925,1849.5-2925,1849.7z M-2928.9,1848.7c0.6-0.1,1.2-0.4,1.6-0.8s0.7-0.8,0.7-1.1c0-0.1,0-0.2-0.1-0.3
			s-0.2-0.1-0.3-0.1c-0.3,0-0.7,0.3-1.1,0.8S-2928.8,1848.1-2928.9,1848.7z"/>
		<path class="st8" d="M-2922.6,1851.3c-0.1,0.3-0.1,0.7-0.2,1.2l-0.3,2.3c0,0.4-0.1,0.6-0.3,0.8s-0.3,0.2-0.5,0.2
			c-0.2,0-0.3-0.1-0.5-0.2s-0.2-0.3-0.2-0.4c0-0.3,0-0.7,0.1-1.1c0.6-2.3,0.9-4.7,1-7.2v-0.1c0-0.5,0-0.9,0-1s0.1-0.3,0.3-0.5
			s0.3-0.2,0.6-0.2c0.4,0,0.6,0.3,0.6,1c0,0.3,0,0.7-0.1,1.4l-0.1,0.4c0.4-0.7,1-1.4,1.6-1.8s1.2-0.7,1.6-0.7c0.4,0,0.8,0.2,1.1,0.5
			s0.5,0.7,0.5,1.2c0,1.3-0.5,2.4-1.5,3.4s-1.9,1.5-2.9,1.5C-2922.2,1851.9-2922.5,1851.7-2922.6,1851.3z M-2919.2,1846.6
			c-0.5,0-1.1,0.5-1.9,1.4s-1.1,1.7-1.1,2.2c0,0.1,0.1,0.3,0.2,0.4s0.3,0.2,0.5,0.2c0.5,0,1.1-0.4,1.7-1.2s1-1.5,1-2.3
			c0-0.2,0-0.4-0.1-0.5S-2919.1,1846.6-2919.2,1846.6z"/>
		<path class="st8" d="M-2910.7,1848.8c-0.3,0.9-0.8,1.7-1.5,2.3s-1.5,0.9-2.2,0.9c-0.6,0-1.1-0.2-1.4-0.6s-0.6-0.9-0.6-1.6
			c0-1,0.3-2,1-3s1.5-1.5,2.5-1.5c0.7,0,1.2,0.2,1.6,0.7s0.6,1.1,0.6,1.8C-2910.6,1848.2-2910.6,1848.5-2910.7,1848.8
			L-2910.7,1848.8z M-2913.8,1846.9c-0.3,0.2-0.5,0.6-0.8,1.2s-0.4,1.1-0.4,1.6c0,0.3,0.1,0.6,0.2,0.8s0.3,0.3,0.5,0.3
			c0.5,0,1-0.3,1.5-0.9s0.8-1.2,0.8-1.9c0-0.4-0.1-0.7-0.3-1s-0.4-0.4-0.7-0.4C-2913.3,1846.6-2913.5,1846.7-2913.8,1846.9
			L-2913.8,1846.9z"/>
		<path class="st8" d="M-2908,1848.8l0.1-0.2c0.5-0.9,1-1.7,1.5-2.3s1.1-0.9,1.6-0.9c0.4,0,0.7,0.1,1,0.3s0.4,0.5,0.4,0.8
			c0,0.2,0,0.3-0.1,0.5s-0.2,0.2-0.4,0.2c-0.2,0-0.5-0.1-0.7-0.3c-0.1-0.1-0.3-0.2-0.3-0.2c-0.3,0-0.8,0.5-1.5,1.4s-1.1,1.9-1.2,3.1
			c0,0.3-0.1,0.6-0.3,0.7s-0.3,0.2-0.6,0.2c-0.3,0-0.5-0.2-0.6-0.5s-0.2-0.8-0.2-1.5c0-0.3,0-0.7,0-1.2c0-0.5,0.1-1,0.1-1.7
			c0-0.2,0-0.3,0-0.4c0-0.4,0.1-0.6,0.1-0.8s0.1-0.3,0.3-0.4s0.3-0.2,0.5-0.2c0.2,0,0.4,0.1,0.5,0.2s0.2,0.3,0.2,0.4
			c0,0.2-0.1,0.6-0.3,1.1c-0.1,0.2-0.1,0.4-0.2,0.7L-2908,1848.8z"/>
		<path class="st8" d="M-2900.5,1847c0,0-0.1,0.4-0.3,1.3s-0.3,1.4-0.3,1.6c0,0.3,0,0.5,0.1,0.7s0.2,0.2,0.3,0.2
			c0.2,0,0.4,0,0.6-0.1s0.5-0.2,0.8-0.5c0.2-0.2,0.4-0.3,0.5-0.3c0.1,0,0.2,0,0.3,0.1s0.1,0.1,0.1,0.2c0,0.3-0.3,0.7-0.8,1.2
			s-1.1,0.7-1.8,0.7c-0.5,0-0.9-0.2-1.2-0.5s-0.4-0.7-0.4-1.3c0-0.5,0.2-1.6,0.6-3.2c-0.3,0-0.4,0-0.5,0h-0.1
			c-0.2,0-0.4-0.1-0.5-0.2s-0.3-0.3-0.3-0.6c0-0.3,0.2-0.5,0.6-0.5l1.3,0c0.2-0.5,0.3-1.1,0.5-1.9c0.1-0.5,0.4-0.7,0.7-0.7
			c0.2,0,0.4,0.1,0.5,0.2s0.2,0.3,0.2,0.4c0,0.1-0.2,0.7-0.5,1.8c1.2-0.1,1.9-0.2,2-0.2c0.2,0,0.3,0,0.4,0.1s0.1,0.2,0.1,0.3
			c0,0.3-0.3,0.6-0.9,0.7L-2900.5,1847z"/>
	</g>
	<ellipse id="Ellipse_148" class="st9" cx="-2838.5" cy="1712.8" rx="5" ry="5.1"/>
	<path id="Path_11243" class="st6" d="M-2838.5,1707.1c3.1,0,5.7,2.5,5.7,5.7c0,3.1-2.5,5.7-5.7,5.7c-3.1,0-5.7-2.5-5.7-5.7
		c0,0,0,0,0,0C-2844.2,1709.6-2841.7,1707.1-2838.5,1707.1z M-2838.5,1708.7c-2.3,0-4.1,1.8-4.1,4.1c0,2.3,1.8,4.1,4.1,4.1
		c2.3,0,4.1-1.8,4.1-4.1c0,0,0,0,0,0C-2834.5,1710.5-2836.3,1708.7-2838.5,1708.7L-2838.5,1708.7z"/>
	<path id="Path_11244" class="st10" d="M-2838.1,1715.8c0.9,0,1.7-0.8,1.7-1.7c0-0.9-0.8-1.7-1.7-1.7c-0.9,0-1.6,0.8-1.7,1.7
		C-2839.8,1715-2839.1,1715.7-2838.1,1715.8C-2838.2,1715.8-2838.2,1715.8-2838.1,1715.8z"/>
	<path id="Path_11245" class="st11" d="M-3180.8,1838.5c13.1,0,23.7,2.2,23.7,4.7c0,2.7-10.6,4.7-23.7,4.7
		c-13.1,0-23.7-2.2-23.7-4.7S-3193.9,1838.5-3180.8,1838.5z"/>
	<path id="Path_11246" class="st12" d="M-3197.1,1737.3c5.1-4.9,31.8-4.2,36.6,1c4.9,5.1,4.1,32.1-1,36.9c-5.1,4.9-31.8,4.2-36.6-1
		C-3202.9,1769.1-3202.2,1742.2-3197.1,1737.3z"/>
	<path id="Path_11247" class="st5" d="M-3211.3,1734.2c-25.5,6.5-20.2,56.3,21.7,43.3"/>
	<path id="Path_11248" class="st5" d="M-3205.1,1742.3c-4.4-0.2-6.9-3.6-6.2-8c0.8-4.9,4.9-6.1,8.6-5.9"/>
	<path id="Path_11249" class="st5" d="M-3145.3,1734.2c25.5,6.5,20.2,56.3-21.7,43.3"/>
	<path id="Path_11250" class="st5" d="M-3151.5,1742.3c4.4-0.2,6.9-3.6,6.2-8c-0.8-4.9-4.9-6.1-8.6-5.9"/>
	<path id="Path_11251" class="st13" d="M-3179.2,1762c6.2,0,13.1-6.2,13.1,3.7s-8.8,2.8-13.2,2.8c-4.3,0-13.1,6.4-13.1-3.4
		C-3192.4,1755.3-3185.4,1762-3179.2,1762z"/>
	<g id="Group_4451" transform="translate(-2763.771 1497.57)">
		<g id="Group_4449" transform="translate(0)">
			<path id="Path_11252" class="st2" d="M-423.5,257.1c2.3-0.1,4.5,0.2,5,0.7c0.4,0.5-1.1,1-3.4,1.1c-2.3,0.1-4.5-0.2-5-0.7
				C-427.3,257.6-425.8,257.2-423.5,257.1z"/>
			<path id="Path_11253" class="st5" d="M-418.4,254.2c-2.8,2.1-3.9-2.3-6.5-2.2"/>
		</g>
		<g id="Group_4450" transform="translate(14.402)">
			<path id="Path_11254" class="st2" d="M-423.5,257.1c2.3-0.1,4.5,0.2,5,0.7c0.4,0.5-1.1,1-3.4,1.1c-2.3,0.1-4.5-0.2-5-0.7
				C-427.3,257.6-425.8,257.2-423.5,257.1z"/>
			<path id="Path_11255" class="st5" d="M-427,254.2c2.8,2.1,3.9-2.3,6.5-2.2"/>
		</g>
	</g>
	<path id="Path_11256" class="st14" d="M-3195.2,1781.9c4.5-5.1,28.3-4.3,32.6,1c4.3,5.4,3.7,33.3-0.8,38.5
		c-4.5,5.1-28.3,4.3-32.6-1C-3200.3,1815-3199.7,1786.9-3195.2,1781.9z"/>
	<g id="Group_4454" transform="translate(-2762.652 1572.857)">
		<g id="Group_4452" transform="translate(12.168)">
			<path id="Path_11257" class="st5" d="M-425.2,270.5c0.5-6.1,0.5-12.3,0-18.4"/>
			<path id="Path_11258" class="st5" d="M-424.9,256.5c-0.6-1.5-1.3-2.9-2.1-4.3c0.6,0,1.2-0.1,1.8-0.1c0.6-0.1,1.3-0.1,1.9-0.2
				C-424.2,253.5-424.2,254.8-424.9,256.5z"/>
			<path id="Path_11259" class="st15" d="M-425.2,266.7c0.7-0.5,4.7-0.5,5.4,0s0.7,3.3,0,3.8h-5.4V266.7z"/>
		</g>
		<g id="Group_4453" transform="translate(0)">
			<path id="Path_11260" class="st5" d="M-421,270.5c-0.5-6.1-0.5-12.3,0-18.4"/>
			<path id="Path_11261" class="st5" d="M-421.3,256.5c0.6-1.5,1.3-2.9,2.1-4.3c-0.6,0-1.2-0.1-1.8-0.1c-0.6-0.1-1.3-0.1-1.9-0.2
				C-422,253.5-422,254.8-421.3,256.5z"/>
			<path id="Path_11262" class="st15" d="M-421,266.7c-0.7-0.5-4.7-0.5-5.4,0s-0.7,3.3,0,3.8h5.4V266.7z"/>
		</g>
	</g>
	<path id="Path_11263" class="st5" d="M-3176.8,1804.5c1-10.2-0.6-19.7-0.4-20.5c1.3-0.7,3.7-3,3.3-3.1c-0.3-0.2-2.5,3.9-7.2,0.6"/>
	<path id="Path_11264" class="st16" d="M-3120.6,1720c0.8,12.6,17.6,18.3,23.7,7.1c3.1,8.5,20.1,10.6,23.7-2
		c5.3,6.4,18.5,2.3,17.4-10.3c8.9,3.5,15.6-8.4,5.3-14.7c9.8,4.6,17.1-8,6.7-13.6c11.5,0.1,11.4-17.4-1.5-14.9
		c4.8-6.7-2.7-19.2-14.9-11.6c0-7.8-12.8-14.9-19.4-3.4c-5.5-7.1-21.8-8.3-22.9,8.5c-9.2-3.1-16.3,4-11.9,14.6
		c-7.6-3.4-14.4,5.5-9.2,12.7c-8.9-2-13.2,7.2-7.9,13.1C-3139.6,1714.1-3133,1725.8-3120.6,1720z"/>
	<path id="Path_11265" class="st17" d="M-3161.2,1721.7c0.7,0,1.3-0.6,1.3-1.3s-0.6-1.3-1.3-1.3c-0.7,0-1.3,0.6-1.3,1.3c0,0,0,0,0,0
		C-3162.4,1721.1-3161.9,1721.7-3161.2,1721.7z"/>
	<path id="Path_11266" class="st17" d="M-3163.3,1725.8c0.5,0,0.9-0.4,0.9-0.9s-0.4-0.9-0.9-0.9c-0.5,0-0.9,0.4-0.9,0.9c0,0,0,0,0,0
		C-3164.2,1725.4-3163.8,1725.8-3163.3,1725.8z"/>
	<path id="Path_11267" class="st5" d="M-3157.5,1714.2c1-0.2,1.9,0.5,2.1,1.5c0,0,0,0,0,0c0.1,1-0.5,1.9-1.5,2.1
		c-1,0.2-1.9-0.5-2.1-1.5c0,0,0,0,0,0C-3159.2,1715.3-3158.5,1714.4-3157.5,1714.2z"/>
	<line id="Line_852" class="st18" x1="-3068.5" y1="1658" x2="-3058.2" y2="1634.5"/>
	<path id="Path_11268" class="st19" d="M-3090.3,1707.3c2.1,2.4,13.1,2.4,15.2,0s2.1-13.3,0-15.7s-13.1-2.4-15.2,0
		S-3092.4,1704.9-3090.3,1707.3z"/>
	<path id="Path_11269" class="st19" d="M-3091.9,1669.6c2.5-2.5,15.9-2.5,18.3,0c2.5,2.5,2.5,16,0,18.5s-15.9,2.5-18.3,0
		C-3094.4,1685.5-3094.4,1672-3091.9,1669.6z"/>
	<path id="Path_11270" class="st20" d="M-3091.9,1669.6c2.5-2.5,15.9-2.5,18.3,0c0.7,1,1.2,2.2,1.4,3.4c-0.8,0.8-2.4,1.9-3.8,1.6
		c-1.4-0.3-2.2-1.8-2.3-4.6c-0.3,2.7-0.1,4.1-2.5,4.7c-1.6,0.4-6,0.2-9.2-0.5c-1.2-0.1-2.3-0.6-3.3-1.3
		C-3093.1,1671.7-3092.6,1670.5-3091.9,1669.6z"/>
	<line id="Line_853" class="st21" x1="-3081.3" y1="1681.1" x2="-3084.1" y2="1681.7"/>
	<g id="Group_4455" transform="translate(-2660.708 1425.259)">
		<ellipse id="Ellipse_149" class="st22" cx="-417.5" cy="252.5" rx="0.5" ry="0.5"/>
		<ellipse id="Ellipse_150" class="st22" cx="-426.5" cy="252.5" rx="0.5" ry="0.5"/>
	</g>
	<g id="Group_4456" transform="translate(-2670.028 1439.722)">
		<path id="Path_11271" class="st21" d="M-425.9,265.8c1-8.2,0.2-7.2,5.6-13.7"/>
		<ellipse id="Ellipse_151" class="st20" cx="-425.9" cy="265.8" rx="1.1" ry="1.1"/>
	</g>
	<g id="Group_4457" transform="translate(-2648.122 1439.722)">
		<path id="Path_11272" class="st21" d="M-421.4,265.8c-1-8.2-0.2-7.2-5.6-13.7"/>
		<ellipse id="Ellipse_152" class="st20" cx="-421.4" cy="265.8" rx="1.1" ry="1.1"/>
	</g>
	<g id="Group_4460" transform="translate(-2663.376 1457.077)">
		<g id="Group_4458" transform="translate(8.245)">
			<path id="Path_11273" class="st21" d="M-425.8,264.6c0.3-4.1,0.3-8.3,0-12.5"/>
			<path id="Path_11274" class="st21" d="M-425.6,255.1c-0.4-1-0.8-2-1.4-2.9c0.4,0,0.8-0.1,1.2-0.1c0.4,0,0.9-0.1,1.3-0.2
				C-425.1,253.1-425.1,254-425.6,255.1z"/>
			<path id="Path_11275" class="st23" d="M-425.8,262.1c1.2-0.3,2.5-0.3,3.7,0c0.5,0.8,0.5,1.8,0,2.6h-3.7V262.1z"/>
		</g>
		<g id="Group_4459" transform="translate(0)">
			<path id="Path_11276" class="st21" d="M-423,264.6c-0.3-4.1-0.3-8.3,0-12.5"/>
			<path id="Path_11277" class="st21" d="M-423.1,255.1c0.4-1,0.8-2,1.4-2.9c-0.4,0-0.8-0.1-1.2-0.1c-0.4,0-0.9-0.1-1.3-0.2
				C-423.6,253.1-423.6,254-423.1,255.1z"/>
			<path id="Path_11278" class="st23" d="M-423,262.1c-1.2-0.3-2.5-0.3-3.7,0c-0.5,0.8-0.5,1.8,0,2.6h3.7V262.1z"/>
		</g>
	</g>
	<ellipse id="Ellipse_153" class="st5" cx="-3151.4" cy="1711.7" rx="2.9" ry="3"/>
	<path id="Path_11279" class="st5" d="M-3143.5,1702.3c2.3-0.3,4.4,1.3,4.8,3.6c0.3,2.3-1.2,4.3-3.5,4.7c-2.3,0.4-4.4-1.2-4.8-3.5
		c0,0,0,0,0-0.1C-3147.3,1704.8-3145.8,1702.6-3143.5,1702.3z"/>
</g>
</svg>
