<svg xmlns="http://www.w3.org/2000/svg" viewBox="0 0 412.745 257.879">
  <defs>
    <style>
      .cls-1, .cls-10, .cls-19 {
        fill: #dddde1;
      }

      .cls-1 {
        opacity: 0.33;
      }

      .cls-2 {
        fill: #f3f3ff;
      }

      .cls-15, .cls-17, .cls-3, .cls-5, .cls-8 {
        fill: #fff;
      }

      .cls-3, .cls-4, .cls-5, .cls-6, .cls-8 {
        stroke: #26263a;
        stroke-miterlimit: 10;
      }

      .cls-3, .cls-4, .cls-5, .cls-6 {
        stroke-width: 2px;
      }

      .cls-16, .cls-21, .cls-4, .cls-6 {
        fill: none;
      }

      .cls-5, .cls-6, .cls-8 {
        stroke-linecap: round;
      }

      .cls-7 {
        fill: #5f6b72;
        opacity: 0.15;
      }

      .cls-9 {
        fill: #e04f26;
      }

      .cls-10, .cls-11 {
        opacity: 0.59;
      }

      .cls-11 {
        fill: #9797a5;
      }

      .cls-12, .cls-13, .cls-18 {
        fill: #28283c;
      }

      .cls-12 {
        font-size: 16px;
      }

      .cls-12, .cls-13, .cls-15, .cls-18 {
        font-family: Roboto-Regular, Roboto;
      }

      .cls-13 {
        font-size: 8px;
      }

      .cls-14 {
        fill: #26263a;
      }

      .cls-15 {
        font-size: 7px;
      }

      .cls-16 {
        stroke: #dddde1;
      }

      .cls-17 {
        stroke: #ccc;
        stroke-width: 0.5px;
      }

      .cls-18 {
        font-size: 15px;
      }

      .cls-20 {
        stroke: none;
      }
    </style>
  </defs>
  <g id="Group_3889" data-name="Group 3889" transform="translate(-226 -1456)">
    <path id="Path_9456" data-name="Path 9456" class="cls-1" d="M607.021,118.625H562.8c-5.867,0-11.448-1.431-15.741-5.724-5.438-5.438-6.869-12.307-6.44-19.605.573-8.443,5.438-13.595,13.022-16.457a35.415,35.415,0,0,1,7.441-1.86c1.431-.143,1.717-.859,1.86-2A31.818,31.818,0,0,1,568.24,59.38a25.117,25.117,0,0,1,18.174-11.448c9.3-1.431,17.745.572,24.614,7.155a22.125,22.125,0,0,1,3.435,3.864,2.139,2.139,0,0,0,3.005.859c9.016-3.578,17.6-3.148,25.616,2.862,6.01,4.579,8.586,10.876,8.586,18.317,0,1,0,1.717,1.288,2,12.736,3.005,16.028,14.167,13.309,24.471-2,7.441-7.3,11.162-14.883,11.162Z" transform="translate(-46.304 1408.506)"/>
    <path id="Path_9457" data-name="Path 9457" class="cls-2" d="M685.953,224.6H397.6A16.612,16.612,0,0,1,381,208v10.59a16.612,16.612,0,0,0,16.6,16.6H686.1a16.612,16.612,0,0,0,16.6-16.6V208A16.643,16.643,0,0,1,685.953,224.6Z" transform="translate(-115.076 1477.689)"/>
    <path id="Path_9458" data-name="Path 9458" class="cls-3" d="M660.221,261.348H407.786a8.611,8.611,0,0,1-8.586-8.586V92.486a8.611,8.611,0,0,1,8.586-8.586H660.221a8.612,8.612,0,0,1,8.586,8.586V252.762A8.611,8.611,0,0,1,660.221,261.348Z" transform="translate(-106.231 1424.198)"/>
    <path id="Path_9459" data-name="Path 9459" class="cls-4" d="M688.429,235.233H395.21a14.352,14.352,0,0,1-14.31-14.31V207.9H702.6v13.022A14.14,14.14,0,0,1,688.429,235.233Z" transform="translate(-115.119 1477.646)"/>
    <path id="Path_9460" data-name="Path 9460" class="cls-2" d="M657.47,85.3h-247a9.894,9.894,0,0,0-9.874,9.874V250.441a9.894,9.894,0,0,0,9.874,9.874h247a9.894,9.894,0,0,0,9.874-9.874V95.174A9.894,9.894,0,0,0,657.47,85.3Zm.573,156.7a10.05,10.05,0,0,1-10.16,9.874H419.919A10.05,10.05,0,0,1,409.759,242V103.331a10.05,10.05,0,0,1,10.16-9.874H648.026a10.05,10.05,0,0,1,10.16,9.874V242Z" transform="translate(-106.628 1424.801)"/>
    <line id="Line_184" data-name="Line 184" class="cls-5" x2="378" transform="translate(227 1712.879)"/>
    <line id="Line_185" data-name="Line 185" class="cls-6" x2="20.893" transform="translate(616.852 1712.879)"/>
    <ellipse id="Ellipse_101" data-name="Ellipse 101" class="cls-7" cx="33.988" cy="32.697" rx="33.988" ry="32.697" transform="matrix(-0.259, -0.966, 0.966, -0.259, 276.27, 1546.825)"/>
    <ellipse id="Ellipse_102" data-name="Ellipse 102" class="cls-8" cx="31.693" cy="31.693" rx="31.693" ry="31.693" transform="matrix(-0.259, -0.966, 0.966, -0.259, 272.589, 1543.061)"/>
    <g id="Group_3228" data-name="Group 3228" transform="translate(279.676 1487.23)">
      <g id="Group_3227" data-name="Group 3227">
        <path id="Path_9475" data-name="Path 9475" class="cls-9" d="M241.344,169.1c-.578-.193-1.348-.193-1.926-.385a17.235,17.235,0,0,1-9.438-6.934,25.03,25.03,0,0,1-3.467-8.86,42.11,42.11,0,0,1-.578-9.824c0-1.156.193-2.119.193-3.274a1.221,1.221,0,0,1,.963-1.156c4.815-1.734,9.438-3.467,14.254-5.2a.86.86,0,0,1,.963,0c4.815,1.734,9.438,3.467,14.254,5.2a1.221,1.221,0,0,1,.963,1.156,65.136,65.136,0,0,1,.193,8.668,31.456,31.456,0,0,1-2.311,10.4,17.678,17.678,0,0,1-8.475,9.053,11.854,11.854,0,0,1-4.43,1.348h-.193A1.444,1.444,0,0,0,241.344,169.1ZM255.6,144.641c0-.963-.193-2.5-.193-4.045a.414.414,0,0,0-.385-.385c-4.238-1.541-8.668-3.082-12.905-4.623h-.578c-4.238,1.541-8.668,3.082-12.905,4.623-.193.193-.385.193-.385.578v1.348a43.643,43.643,0,0,0,.385,10.016,20.678,20.678,0,0,0,2.7,7.512,15.149,15.149,0,0,0,8.86,6.934,2.72,2.72,0,0,0,1.734.193,14.143,14.143,0,0,0,6.742-2.889,18.712,18.712,0,0,0,5.393-7.9A35.286,35.286,0,0,0,255.6,144.641Z" transform="translate(-225.863 -133.325)"/>
        <path id="Path_9476" data-name="Path 9476" class="cls-9" d="M242.157,144.283a1.736,1.736,0,0,1,.963.193,1.465,1.465,0,0,1,1.156,1.541v6.742a1.726,1.726,0,0,1-1.734,1.734H232.334a1.726,1.726,0,0,1-1.734-1.734v-6.549a1.93,1.93,0,0,1,1.926-1.926h.193v-3.467a3.176,3.176,0,0,1,2.889-3.275,9.282,9.282,0,0,1,2.311,0h1.348a3.477,3.477,0,0,1,2.7,3.275V143.7A1.491,1.491,0,0,1,242.157,144.283Zm-6.934,0h4.623v-3.467a1.032,1.032,0,0,0-.963-.963h-2.5a.91.91,0,0,0-.963.963A20.933,20.933,0,0,0,235.223,144.283Zm2.311,7.9c.578,0,.77,0,.77-.77v-1.926c0-.193,0-.385.193-.385a1.665,1.665,0,0,0,.578-1.156,1.442,1.442,0,0,0-1.156-1.348,1.29,1.29,0,0,0-1.348.77,1.533,1.533,0,0,0,.385,1.734.673.673,0,0,1,.193.385V151.6C236.764,152.18,236.764,152.18,237.534,152.18Z" transform="translate(-221.475 -129.499)"/>
      </g>
    </g>
    <rect id="Rectangle_1564" data-name="Rectangle 1564" class="cls-10" width="15.734" height="77.214" transform="translate(330 1592.594)"/>
    <rect id="Rectangle_1576" data-name="Rectangle 1576" class="cls-11" width="15.734" height="77.214" transform="translate(440 1592.594)"/>
    <rect id="Rectangle_1573" data-name="Rectangle 1573" class="cls-10" width="27.734" height="77.214" transform="translate(406 1592.594)"/>
    <rect id="Rectangle_1575" data-name="Rectangle 1575" class="cls-11" width="27.734" height="77.214" transform="translate(517 1592.594)"/>
    <rect id="Rectangle_1565" data-name="Rectangle 1565" class="cls-10" width="49.734" height="77.214" transform="translate(351 1592.594)"/>
    <rect id="Rectangle_1574" data-name="Rectangle 1574" class="cls-11" width="49.734" height="77.214" transform="translate(461 1592.594)"/>
    <text id="Cash_A_c" data-name="Cash A/c" class="cls-12" transform="translate(394 1539.879)"><tspan x="0" y="0">Cash A/c</tspan></text>
    <text id="Cash_is_coming_" data-name="Cash is coming " class="cls-13" transform="translate(330 1587.879)"><tspan x="0" y="0">Cash is coming </tspan></text>
    <text id="Cash_is_going_out" data-name="Cash is going out" class="cls-13" transform="translate(439 1587.879)"><tspan x="0" y="0">Cash is going out</tspan></text>
    <rect id="Rectangle_1561" data-name="Rectangle 1561" class="cls-14" width="55" height="19" rx="2" transform="translate(490 1553.879)"/>
    <text id="Bal_c_f:_50000" data-name="Bal c/f: 50000" class="cls-15" transform="translate(496 1565.879)"><tspan x="0" y="0">Bal c/f: 50000</tspan></text>
    <line id="Line_199" data-name="Line 199" class="cls-16" x2="233" transform="translate(311.5 1546.379)"/>
    <g id="Rectangle_1577" data-name="Rectangle 1577" class="cls-17" transform="translate(311 1553.879)">
      <rect class="cls-20" width="44" height="15" rx="2"/>
      <rect class="cls-21" x="0.25" y="0.25" width="43.5" height="14.5" rx="1.75"/>
    </g>
    <g id="Group_3273" data-name="Group 3273" transform="translate(14 73.879)">
      <path id="Path_9464" data-name="Path 9464" class="cls-5" d="M435.088,267.948H377.417A9.956,9.956,0,0,1,367.4,257.931V142.017A9.956,9.956,0,0,1,377.417,132h57.671a9.956,9.956,0,0,1,10.017,10.017V257.931A9.956,9.956,0,0,1,435.088,267.948Z" transform="translate(-134.938 1371.052)"/>
      <path id="Rectangle_1560" data-name="Rectangle 1560" class="cls-2" d="M10,0H65A10,10,0,0,1,75,10V30a0,0,0,0,1,0,0H0a0,0,0,0,1,0,0V10A10,10,0,0,1,10,0Z" transform="translate(234 1504)"/>
      <circle id="Ellipse_73" data-name="Ellipse 73" class="cls-2" cx="3.578" cy="3.578" r="3.578" transform="translate(266.091 1626.979)"/>
      <text id="Report" class="cls-18" transform="translate(246 1524)"><tspan x="0" y="0">Report</tspan></text>
      <g id="Group_3231" data-name="Group 3231" transform="translate(249.606 1541.472)">
        <path id="Path_9478" data-name="Path 9478" class="cls-19" d="M92.267,65.1a19.767,19.767,0,1,0,19.767,19.767H92.267Z" transform="translate(-72.5 -62.297)"/>
        <path id="Path_9479" data-name="Path 9479" class="cls-19" d="M104.5,61.2V80.967h19.767A19.756,19.756,0,0,0,104.5,61.2Z" transform="translate(-81.498 -61.2)"/>
      </g>
      <rect id="Rectangle_1532" data-name="Rectangle 1532" class="cls-10" width="63.734" height="3.929" transform="translate(239.695 1594)"/>
      <rect id="Rectangle_1533" data-name="Rectangle 1533" class="cls-10" width="63.734" height="3.929" transform="translate(239.695 1606)"/>
      <rect id="Rectangle_1534" data-name="Rectangle 1534" class="cls-10" width="63.734" height="3.929" transform="translate(239.695 1617)"/>
    </g>
    <rect id="Rectangle_1578" data-name="Rectangle 1578" class="cls-19" width="12" height="12" transform="translate(533 1526.879)"/>
    <rect id="Rectangle_1579" data-name="Rectangle 1579" class="cls-19" width="12" height="12" transform="translate(517 1526.879)"/>
  </g>
</svg>
