<svg xmlns="http://www.w3.org/2000/svg" viewBox="0 0 179.107 59.029">
  <defs>
    <style>
      .cls-1 {
        fill: #f7f7f7;
      }
    </style>
  </defs>
  <g id="Group_3297" data-name="Group 3297" transform="translate(-203.9 0.029)">
    <path id="Path_9574" data-name="Path 9574" class="cls-1" d="M338.7,7.9c6.3,1.2,13.8-2.3,17,4.9,1.3,3-.4,7.4-.8,11.8h18.3c6,.1,9.7,3,9.8,7.8.2,5-3.8,8.5-9.9,8.5H223.6c-6.5,0-9.8-3.1-9.7-8.5.1-5.1,3.3-7.9,9.6-7.9,10.8-.1,21.6,0,33.2,0-.9-1.3-1.6-2.1-2.2-2.9-4.1-6.4-.7-13.1,6.9-13.4,5-.2,10,.9,12.5-5.5.6-1.6,4.7-2.6,7.3-2.7,15.8-.1,31.6.1,47.3,0C334.1,0,337.3,2.7,338.7,7.9Z"/>
    <path id="Path_9575" data-name="Path 9575" class="cls-1" d="M305.3,48.3h56c3.7,0,7.6,0,7.7,5,.2,5.3-3.6,5.7-7.7,5.7H248.6c-4,0-8.1-.5-8.2-5.4-.1-4.5,3.6-5.3,7.6-5.3Z"/>
    <path id="Path_9576" data-name="Path 9576" class="cls-1" d="M224.3,18.6c-5.3,0-10.7.3-15.9-.2-1.6-.1-3-2.2-4.5-3.4,1.4-1.1,2.8-3.1,4.3-3.2,11.2-.3,22.5-.3,33.7,0,1.4,0,2.8,2.1,4.1,3.2-1.5,1.2-2.9,3.3-4.5,3.4C235.7,18.8,230,18.6,224.3,18.6Z"/>
  </g>
</svg>
