<svg xmlns="http://www.w3.org/2000/svg" viewBox="0 0 90 90">
  <defs>
    <style>
      .cls-1 {
        fill: #eb8066;
      }

      .cls-2 {
        fill: #f3f3ff;
      }

      .cls-3 {
        fill: #717296;
      }

      .cls-4 {
        fill: #fff;
      }

      .cls-5 {
        fill: #33335d;
      }

      .cls-6 {
        fill: #e8e8e8;
        stroke: #e9e9ed;
        stroke-width: 3px;
      }

      .cls-7 {
        fill: none;
        stroke: #fff;
        stroke-width: 2px;
      }
    </style>
  </defs>
  <g id="Group_4494" data-name="Group 4494" transform="translate(-624 -3514)">
    <path id="Path_11536" data-name="Path 11536" class="cls-1" d="M16.364.2h-.92a2.252,2.252,0,0,0-.818.1c-.409.1-.92.1-1.33.2h-.1a16.489,16.489,0,0,0-2.966.92,1.03,1.03,0,0,0-.307.1c-.307.1-.614.307-.92.409l-.614.307a2.14,2.14,0,0,0-.614.409,4.447,4.447,0,0,1-.716.409,4.077,4.077,0,0,1-.409.307A16.538,16.538,0,0,0,3.375,6.648l-.307.307c-.2.2-.307.511-.511.716a2.139,2.139,0,0,1-.409.614L1.841,8.9a3.633,3.633,0,0,0-.409.92c-.1.2-.1.307-.2.409a14.286,14.286,0,0,0-.92,2.966,7.039,7.039,0,0,0-.2,1.33A15.136,15.136,0,0,0,0,16.568a16.835,16.835,0,0,0,.2,2.148v.2c.1.818.307,1.432.409,2.045a13.308,13.308,0,0,0,1.739,3.886l.2.307a15.64,15.64,0,0,0,2.659,3.17l.307.2a17.808,17.808,0,0,1,1.432,1.227,15.774,15.774,0,0,0,9.511,3.068,16.359,16.359,0,0,0,6.443-31.4l-.1-.1c-.409-.2-.818-.307-1.227-.511l-.307-.1L20.045.409a2.32,2.32,0,0,0-.409-.1C19.227.2,18.92.2,18.511.1h-.1A.615.615,0,0,1,18,0H16.466Z" transform="translate(680 3570)"/>
    <rect id="Rectangle_1383" data-name="Rectangle 1383" class="cls-2" width="19.432" height="4.091" transform="translate(658.261 3565.136)"/>
    <path id="Path_9199" data-name="Path 9199" class="cls-3" d="M46.748,35.064a.461.461,0,0,1,.5.478v11H84.569V19.761A5.416,5.416,0,0,0,79.1,14.5H6.47A5.416,5.416,0,0,0,1,19.761V46.542H37.3v-11a.461.461,0,0,1,.5-.478Z" transform="translate(625.34 3516.549)"/>
    <g id="Group_2932" data-name="Group 2932" transform="translate(688 3579)">
      <path id="Path_9192" data-name="Path 9192" class="cls-4" d="M68.768,66.048c0,3.213-1.648,4.779-3.625,4.779-1.895,0-3.543-1.483-3.543-4.531s1.648-4.7,3.625-4.7C67.367,61.517,68.768,63.165,68.768,66.048Zm-5.52.165c-.082,1.895.659,3.378,1.977,3.378s1.977-1.4,1.977-3.46c0-1.813-.494-3.378-1.977-3.378C63.907,62.753,63.248,64.318,63.248,66.213Zm1.73,10.958,8.9-15.571h1.236L66.3,77.171ZM78.572,72.31c0,3.213-1.648,4.779-3.625,4.779-1.895,0-3.543-1.483-3.543-4.531s1.648-4.7,3.625-4.7C77.171,67.779,78.572,69.426,78.572,72.31Zm-5.52.165c0,1.895.742,3.378,1.977,3.378,1.318,0,1.977-1.4,1.977-3.46,0-1.813-.494-3.378-1.977-3.378C73.711,69.014,73.052,70.5,73.052,72.475Z" transform="translate(-61.6 -61.596)"/>
    </g>
    <path id="Subtraction_5" data-name="Subtraction 5" class="cls-5" d="M72.614,90A18.021,18.021,0,0,1,63,87.136l-.2-.205H9.716a6.634,6.634,0,0,1-6.648-6.648V50.113H.512A.484.484,0,0,1,0,49.6V20.454a6.634,6.634,0,0,1,6.648-6.648H30.681V6.648A6.634,6.634,0,0,1,37.33,0H49.6A6.634,6.634,0,0,1,56.25,6.648v7.159H80.284a6.634,6.634,0,0,1,6.648,6.648V49.6a.484.484,0,0,1-.511.511H83.863v9.308l.307.307A17.33,17.33,0,0,1,72.614,90ZM66.272,57.477a1.023,1.023,0,0,0-.306.1,3.636,3.636,0,0,0-.462.2,3.637,3.637,0,0,1-.459.2l-.614.307a2.158,2.158,0,0,0-.614.41,2.062,2.062,0,0,0-.233.146,1.915,1.915,0,0,1-.482.263,4.261,4.261,0,0,1-.41.307,16.6,16.6,0,0,0-3.272,3.272L59.113,63a1.835,1.835,0,0,0-.255.358,1.824,1.824,0,0,1-.256.358,2.15,2.15,0,0,1-.41.614l-.307.614a3.659,3.659,0,0,0-.408.915l0,.005a1.993,1.993,0,0,0-.084.2.537.537,0,0,1-.121.214,14.368,14.368,0,0,0-.92,2.966c-.018.088-.035.173-.052.256a5.376,5.376,0,0,0-.152,1.074,15.226,15.226,0,0,0-.1,2.045,12.707,12.707,0,0,0,.147,1.7c.019.142.038.289.057.443v.2a11.807,11.807,0,0,0,.249,1.291c.061.261.119.508.161.755A13.3,13.3,0,0,0,58.4,80.9l.205.306a15.49,15.49,0,0,0,2.659,3.171l.307.2A17.885,17.885,0,0,1,63,85.806a15.842,15.842,0,0,0,9.512,3.069,16.359,16.359,0,0,0,6.443-31.4l-.1-.1a6.313,6.313,0,0,0-.614-.255,6.312,6.312,0,0,1-.614-.255l-.307-.1-.612-.153-.615-.154a2.36,2.36,0,0,0-.41-.1,5.306,5.306,0,0,0-.562-.1,5.309,5.309,0,0,1-.562-.1h-.1a.622.622,0,0,1-.41-.1H72.511l-.1.2h-.92a2.25,2.25,0,0,0-.818.1,5.22,5.22,0,0,1-.665.1,5.219,5.219,0,0,0-.665.1h-.1a16.41,16.41,0,0,0-2.966.92h0ZM4.09,50.113V80.284a5.7,5.7,0,0,0,5.626,5.625H61.159L59.625,84.17a.521.521,0,0,1-.083-.11c-.037-.059-.06-.094-.121-.094a5.587,5.587,0,0,0-.355-.456,5.866,5.866,0,0,1-.361-.465,2.278,2.278,0,0,1-.307-.511,6.892,6.892,0,0,1-.715-1.126l-.205-.306a16.7,16.7,0,0,1-2.147-6.954V71.693a3.5,3.5,0,0,1,.1-1.023v-.2c.04-.2.063-.362.083-.509l0-.027,0-.033,0-.035v-.019a5.5,5.5,0,0,1,.106-.6v-.1a17.6,17.6,0,0,1,.92-3.068,1.85,1.85,0,0,0,.082-.191l0-.006,0-.007a.534.534,0,0,1,.118-.205l.1-.1c.041-.081.082-.182.122-.279l.012-.03.008-.021.011-.029,0-.007.013-.032c.039-.1.09-.22.137-.318a1.939,1.939,0,0,1,.194-.389l.006-.01,0,0,0-.006,0-.006a2.053,2.053,0,0,0,.2-.4.774.774,0,0,0,.2-.41l.307-.46.307-.46a17.6,17.6,0,0,1,3.887-3.886l.1-.1.345-.23.006,0,.142-.095.107-.071.036-.024.284-.19a1.313,1.313,0,0,1,.176-.135l.019-.014a1.405,1.405,0,0,0,.214-.158,2.088,2.088,0,0,0,.408-.2l.006,0,.01-.006.008,0a1.923,1.923,0,0,1,.386-.191,2.028,2.028,0,0,0,.392-.195l.005,0,.011-.006.006,0,0,0,.01-.006a1.973,1.973,0,0,1,.39-.193l.2-.1a.514.514,0,0,1,.2-.117l.018-.007a1.967,1.967,0,0,0,.187-.08,17.54,17.54,0,0,1,3.068-.92h.1a5.173,5.173,0,0,1,.565-.1l.016,0a5.338,5.338,0,0,0,.544-.1h.818a4.912,4.912,0,0,0,.6-.05l.02,0,.013,0,.017,0a4.864,4.864,0,0,1,.575-.046h.511a5.84,5.84,0,0,1,1.33.1h.2a15.167,15.167,0,0,1,4.807,1.33h.1a6.163,6.163,0,0,1,1.432.716,2.621,2.621,0,0,0,.511.2l1.534.92V50.113H54.715v5.626a.484.484,0,0,1-.511.511H32.728a.484.484,0,0,1-.512-.511V50.113Zm29.148,0v5.114H53.693V50.113Zm5.625-13.3h9.2a.485.485,0,0,1,.512.512V49.09H85.909V20.454a5.7,5.7,0,0,0-5.625-5.625H6.648a5.7,5.7,0,0,0-5.625,5.625V49.09h37.33V37.33A.484.484,0,0,1,38.863,36.818Zm.512,1.023V49.09h8.182V37.841ZM37.33,1.023A5.7,5.7,0,0,0,31.7,6.648v7.159H55.227V6.648A5.7,5.7,0,0,0,49.6,1.023Z" transform="translate(624 3514)"/>
    <path id="Path_11537" data-name="Path 11537" class="cls-6" d="M0,0H39.661" transform="translate(631.475 3583.498)"/>
    <path id="Path_11538" data-name="Path 11538" class="cls-6" d="M0,0H39.661" transform="translate(631.475 3591.498)"/>
    <line id="Line_887" data-name="Line 887" class="cls-7" x2="32" transform="translate(631.5 3540.5)"/>
  </g>
</svg>
