<svg xmlns="http://www.w3.org/2000/svg" viewBox="0 0 90 90">
  <defs>
    <style>
      .cls-1 {
        fill: #f3f3ff;
      }

      .cls-2 {
        fill: #ececff;
        opacity: 0.6;
      }

      .cls-3 {
        fill: #393988;
      }

      .cls-4 {
        fill: #33335d;
      }

      .cls-5 {
        fill: #26263a;
        font-size: 14px;
        font-family: Lato-Heavy, Lato;
        font-weight: 800;
      }
    </style>
  </defs>
  <g id="Group_3893" data-name="Group 3893" transform="translate(-268 -1034)">
    <g id="Group_3038" data-name="Group 3038" transform="translate(-3889 141)">
      <rect id="Rectangle_1383" data-name="Rectangle 1383" class="cls-1" width="19.432" height="4.091" transform="translate(4191.261 944.136)"/>
      <path id="Path_9199" data-name="Path 9199" class="cls-2" d="M46.748,35.064a.461.461,0,0,1,.5.478v11H84.569V19.761A5.416,5.416,0,0,0,79.1,14.5H6.47A5.416,5.416,0,0,0,1,19.761V46.542H37.3v-11a.461.461,0,0,1,.5-.478Z" transform="translate(4158.34 895.549)"/>
      <g id="Group_2932" data-name="Group 2932" transform="translate(4218.977 957.019)">
        <path id="Path_9192" data-name="Path 9192" class="cls-3" d="M70.5,67.123c0,3.989-2.045,5.932-4.5,5.932-2.352,0-4.4-1.841-4.4-5.625s2.045-5.83,4.5-5.83C68.759,61.5,70.5,63.543,70.5,67.123Zm-6.852.2c-.1,2.352.818,4.193,2.455,4.193s2.455-1.739,2.455-4.3c0-2.25-.614-4.193-2.455-4.193C64.464,63.032,63.645,64.975,63.645,67.327Zm2.148,13.6L76.839,61.6h1.534L67.43,80.93ZM82.668,74.9c0,3.989-2.045,5.932-4.5,5.932-2.352,0-4.4-1.841-4.4-5.625s2.045-5.83,4.5-5.83C80.929,69.271,82.668,71.316,82.668,74.9Zm-6.852.2c0,2.352.92,4.193,2.455,4.193,1.636,0,2.455-1.739,2.455-4.3,0-2.25-.614-4.193-2.455-4.193C76.634,70.8,75.816,72.646,75.816,75.1Z" transform="translate(-61.6 -61.596)"/>
      </g>
      <path id="Subtraction_5" data-name="Subtraction 5" class="cls-4" d="M72.614,90A18.021,18.021,0,0,1,63,87.136l-.2-.205H9.716a6.634,6.634,0,0,1-6.648-6.648V50.113H.512A.484.484,0,0,1,0,49.6V20.454a6.634,6.634,0,0,1,6.648-6.648H30.681V6.648A6.634,6.634,0,0,1,37.33,0H49.6A6.634,6.634,0,0,1,56.25,6.648v7.159H80.284a6.634,6.634,0,0,1,6.648,6.648V49.6a.484.484,0,0,1-.511.511H83.863v9.308l.307.307A17.33,17.33,0,0,1,72.614,90ZM66.272,57.477a1.023,1.023,0,0,0-.306.1,3.636,3.636,0,0,0-.462.2,3.637,3.637,0,0,1-.459.2l-.614.307a2.158,2.158,0,0,0-.614.41,2.062,2.062,0,0,0-.233.146,1.915,1.915,0,0,1-.482.263,4.261,4.261,0,0,1-.41.307,16.6,16.6,0,0,0-3.272,3.272L59.113,63a1.835,1.835,0,0,0-.255.358,1.824,1.824,0,0,1-.256.358,2.15,2.15,0,0,1-.41.614l-.307.614a3.659,3.659,0,0,0-.408.915l0,.005a1.993,1.993,0,0,0-.084.2.537.537,0,0,1-.121.214,14.368,14.368,0,0,0-.92,2.966c-.018.088-.035.173-.052.256a5.376,5.376,0,0,0-.152,1.074,15.226,15.226,0,0,0-.1,2.045,12.707,12.707,0,0,0,.147,1.7c.019.142.038.289.057.443v.2a11.807,11.807,0,0,0,.249,1.291c.061.261.119.508.161.755A13.3,13.3,0,0,0,58.4,80.9l.205.306a15.49,15.49,0,0,0,2.659,3.171l.307.2A17.885,17.885,0,0,1,63,85.806a15.842,15.842,0,0,0,9.512,3.069,16.359,16.359,0,0,0,6.443-31.4l-.1-.1a6.313,6.313,0,0,0-.614-.255,6.312,6.312,0,0,1-.614-.255l-.307-.1-.612-.153-.615-.154a2.36,2.36,0,0,0-.41-.1,5.306,5.306,0,0,0-.562-.1,5.309,5.309,0,0,1-.562-.1h-.1a.622.622,0,0,1-.41-.1H72.511l-.1.2h-.92a2.25,2.25,0,0,0-.818.1,5.22,5.22,0,0,1-.665.1,5.219,5.219,0,0,0-.665.1h-.1a16.41,16.41,0,0,0-2.966.92h0ZM4.09,50.113V80.284a5.7,5.7,0,0,0,5.626,5.625H61.159L59.625,84.17a.521.521,0,0,1-.083-.11c-.037-.059-.06-.094-.121-.094a5.587,5.587,0,0,0-.355-.456,5.866,5.866,0,0,1-.361-.465,2.278,2.278,0,0,1-.307-.511,6.892,6.892,0,0,1-.715-1.126l-.205-.306a16.7,16.7,0,0,1-2.147-6.954V71.693a3.5,3.5,0,0,1,.1-1.023v-.2c.04-.2.063-.362.083-.509l0-.027,0-.033,0-.035v-.019a5.5,5.5,0,0,1,.106-.6v-.1a17.6,17.6,0,0,1,.92-3.068,1.85,1.85,0,0,0,.082-.191l0-.006,0-.007a.534.534,0,0,1,.118-.205l.1-.1c.041-.081.082-.182.122-.279l.012-.03.008-.021.011-.029,0-.007.013-.032c.039-.1.09-.22.137-.318a1.939,1.939,0,0,1,.194-.389l.006-.01,0,0,0-.006,0-.006a2.053,2.053,0,0,0,.2-.4.774.774,0,0,0,.2-.41l.307-.46.307-.46a17.6,17.6,0,0,1,3.887-3.886l.1-.1.345-.23.006,0,.142-.095.107-.071.036-.024.284-.19a1.313,1.313,0,0,1,.176-.135l.019-.014a1.405,1.405,0,0,0,.214-.158,2.088,2.088,0,0,0,.408-.2l.006,0,.01-.006.008,0a1.923,1.923,0,0,1,.386-.191,2.028,2.028,0,0,0,.392-.195l.005,0,.011-.006.006,0,0,0,.01-.006a1.973,1.973,0,0,1,.39-.193l.2-.1a.514.514,0,0,1,.2-.117l.018-.007a1.967,1.967,0,0,0,.187-.08,17.54,17.54,0,0,1,3.068-.92h.1a5.173,5.173,0,0,1,.565-.1l.016,0a5.338,5.338,0,0,0,.544-.1h.818a4.912,4.912,0,0,0,.6-.05l.02,0,.013,0,.017,0a4.864,4.864,0,0,1,.575-.046h.511a5.84,5.84,0,0,1,1.33.1h.2a15.167,15.167,0,0,1,4.807,1.33h.1a6.163,6.163,0,0,1,1.432.716,2.621,2.621,0,0,0,.511.2l1.534.92V50.113H54.715v5.626a.484.484,0,0,1-.511.511H32.728a.484.484,0,0,1-.512-.511V50.113Zm29.148,0v5.114H53.693V50.113Zm5.625-13.3h9.2a.485.485,0,0,1,.512.512V49.09H85.909V20.454a5.7,5.7,0,0,0-5.625-5.625H6.648a5.7,5.7,0,0,0-5.625,5.625V49.09h37.33V37.33A.484.484,0,0,1,38.863,36.818Zm.512,1.023V49.09h8.182V37.841ZM37.33,1.023A5.7,5.7,0,0,0,31.7,6.648v7.159H55.227V6.648A5.7,5.7,0,0,0,49.6,1.023Z" transform="translate(4157 893)"/>
    </g>
    <text id="Tax" class="cls-5" transform="translate(287.464 1112.657)"><tspan x="-10.773" y="0">Tax</tspan></text>
  </g>
</svg>
