<svg xmlns="http://www.w3.org/2000/svg" xmlns:xlink="http://www.w3.org/1999/xlink" viewBox="0 0 90 90">
  <defs>
    <style>
      .cls-1 {
        fill: none;
      }

      .cls-2 {
        fill: #fff;
      }

      .cls-3 {
        clip-path: url(#clip-path);
      }

      .cls-4 {
        fill: #e9e9ed;
      }

      .cls-5 {
        fill: #ececff;
        stroke: #33335d;
      }

      .cls-6, .cls-9 {
        fill: #33335d;
      }

      .cls-6 {
        font-size: 20px;
        font-family: SegoeUI-Bold, Segoe UI;
        font-weight: 700;
      }

      .cls-7 {
        fill: #565b73;
      }

      .cls-8, .cls-9 {
        stroke: none;
      }
    </style>
    <clipPath id="clip-path">
      <rect class="cls-1" width="53.876" height="60"/>
    </clipPath>
  </defs>
  <g id="Group_3044" data-name="Group 3044" transform="translate(-398 -1885)">
    <g id="Group_2954" data-name="Group 2954" transform="translate(398 1885)">
      <g id="Group_2953" data-name="Group 2953">
        <g id="Group_2951" data-name="Group 2951">
          <g id="Path_9185" data-name="Path 9185" class="cls-2" transform="translate(16.961)">
            <path class="cls-8" d="M 72.53901672363281 89.5 L 0.5000025033950806 89.5 L 0.5000025033950806 0.5 L 72.53901672363281 0.5 L 72.53901672363281 89.5 Z"/>
            <path class="cls-9" d="M 72.03902435302734 89 L 72.03902435302734 1 L 0.9999958872795105 1 L 0.9999958872795105 89 L 72.03902435302734 89 M 73.03902435302734 90 L -4.13818361266749e-06 90 L -4.13818361266749e-06 0 L 73.03902435302734 0 L 73.03902435302734 90 Z"/>
          </g>
          <g id="Repeat_Grid_1" data-name="Repeat Grid 1" class="cls-3" transform="translate(26.938 23)">
            <g transform="translate(-660 -2225)">
              <rect id="Rectangle_1341" data-name="Rectangle 1341" class="cls-4" width="54" height="6" transform="translate(660 2225)"/>
            </g>
            <g transform="translate(-660 -2212)">
              <rect id="Rectangle_1341-2" data-name="Rectangle 1341" class="cls-4" width="54" height="6" transform="translate(660 2225)"/>
            </g>
            <g transform="translate(-660 -2199)">
              <rect id="Rectangle_1341-3" data-name="Rectangle 1341" class="cls-4" width="54" height="6" transform="translate(660 2225)"/>
            </g>
            <g transform="translate(-660 -2186)">
              <rect id="Rectangle_1341-4" data-name="Rectangle 1341" class="cls-4" width="54" height="6" transform="translate(660 2225)"/>
            </g>
            <g transform="translate(-660 -2173)">
              <rect id="Rectangle_1341-5" data-name="Rectangle 1341" class="cls-4" width="54" height="6" transform="translate(660 2225)"/>
            </g>
          </g>
          <g id="Rectangle_1340" data-name="Rectangle 1340" class="cls-5" transform="translate(0 26)">
            <rect class="cls-8" width="39.908" height="38"/>
            <rect class="cls-1" x="0.5" y="0.5" width="38.908" height="37"/>
          </g>
        </g>
        <text id="X" class="cls-6" transform="translate(11.972 50)"><tspan x="0" y="0">X</tspan></text>
      </g>
      <g id="Group_2865" data-name="Group 2865" transform="translate(68.842 4.395)">
        <path id="Path_9148" data-name="Path 9148" class="cls-7" d="M1.2,121.433h9.7V118.97a3.676,3.676,0,0,1,.023-.585.56.56,0,0,1,.622-.514.536.536,0,0,1,.583.553c.016,1.231.016,2.463,0,3.7a.579.579,0,0,1-.607.585,2.33,2.33,0,0,1-.233,0H.807c-.653,0-.848-.187-.848-.857,0-1.091-.008-2.182,0-3.274,0-.475.272-.74.677-.709.35.031.56.281.56.709.008.8,0,1.613,0,2.416C1.2,121.137,1.2,121.277,1.2,121.433Z" transform="translate(0.044 -108.681)"/>
        <path id="Path_9149" data-name="Path 9149" class="cls-7" d="M39.05,7.21V1.6c0-.3-.008-.6,0-.9.008-.429.249-.7.614-.7a.626.626,0,0,1,.622.694c.008,1.559,0,3.118,0,4.677V7.186a2.28,2.28,0,0,0,.257-.2c.42-.421.84-.85,1.26-1.27a.613.613,0,0,1,.925-.07.627.627,0,0,1-.031.935q-1.283,1.309-2.574,2.6a.6.6,0,0,1-.925,0c-.863-.857-1.719-1.73-2.574-2.6a.627.627,0,0,1-.031-.935.612.612,0,0,1,.925.062C38.016,6.189,38.5,6.672,39.05,7.21Z" transform="translate(-33.564)"/>
      </g>
    </g>
  </g>
</svg>
