<svg xmlns="http://www.w3.org/2000/svg" viewBox="0 0 131 91">
  <defs>
    <style>
      .cls-1 {
        fill: #fff;
        stroke: #33335d;
      }

      .cls-2 {
        fill: #eb8066;
      }

      .cls-3, .cls-5 {
        opacity: 0.6;
      }

      .cls-4, .cls-5 {
        fill: #cfcfcf;
      }

      .cls-6, .cls-7, .cls-9 {
        fill: none;
      }

      .cls-6 {
        stroke: #e2e2e2;
        stroke-width: 4px;
      }

      .cls-7 {
        stroke: #e9e9ed;
      }

      .cls-8 {
        fill: #717296;
      }

      .cls-9 {
        stroke: #fafafa;
        stroke-width: 2px;
      }
    </style>
  </defs>
  <g id="Group_21" data-name="Group 21" transform="translate(-4447.5 -892.5)">
    <g id="XMLID_67_" transform="translate(4448 893)">
      <path id="XMLID_68_" class="cls-1" d="M128.322,116.7H1.677A1.686,1.686,0,0,1,0,115.016V28.384A1.686,1.686,0,0,1,1.677,26.7H128.322A1.686,1.686,0,0,1,130,28.384v86.632A1.686,1.686,0,0,1,128.322,116.7Z" transform="translate(0 -26.7)"/>
    </g>
    <rect id="Rectangle_2185" data-name="Rectangle 2185" class="cls-2" width="37.5" height="12" rx="1" transform="translate(4532 962)"/>
    <g id="Group_2933" data-name="Group 2933" transform="translate(4459.446 929)">
      <g id="Group_2849" data-name="Group 2849" class="cls-3" transform="translate(13.843 8.831)">
        <path id="Path_9228" data-name="Path 9228" class="cls-4" d="M.012.022,15.9,0l-.012,8.629L0,8.652Z" transform="translate(18.239 8.639) rotate(160.773)"/>
        <path id="Path_9114" data-name="Path 9114" class="cls-4" d="M36.255,14.257l2.624,7.579L24.512,26.845l-2.624-7.579,14.368-5.009m.459-.857L21.1,18.87l3.083,8.765L39.8,22.165,36.714,13.4Z" transform="translate(-21.1 -13.4)"/>
      </g>
      <path id="Path_9115" data-name="Path 9115" class="cls-5" d="M33.766,50.727A6.065,6.065,0,0,1,33.7,52.9l18.829-6.591L51.873,44.4Z" transform="translate(-11.591 -15.138)"/>
      <path id="Path_9116" data-name="Path 9116" class="cls-5" d="M20.3,47.652a5.125,5.125,0,1,0,6.5,3.163A5.069,5.069,0,0,0,20.3,47.652ZM22.924,55.1a2.687,2.687,0,1,1,1.64-3.427A2.754,2.754,0,0,1,22.924,55.1Z" transform="translate(-5.801 -16.15)"/>
      <g id="Group_2850" data-name="Group 2850" class="cls-3" transform="translate(17.451 17.663)">
        <path id="Path_9117" data-name="Path 9117" class="cls-4" d="M46.61,27.657l2.952,8.436L31.324,42.485a7.157,7.157,0,0,0-1.771-2.175l-2.034-5.931L46.61,27.657M47,26.8,26.6,33.918l2.362,6.722a5.887,5.887,0,0,1,1.968,2.57l19.419-6.788L47,26.8Z" transform="translate(-26.6 -26.8)"/>
      </g>
      <g id="Group_2851" data-name="Group 2851" class="cls-3">
        <path id="Path_9118" data-name="Path 9118" class="cls-4" d="M17.779,30.448,7.742,1.648,7.807.2.066,0,0,3.427l5.9.2,9.316,26.757Z"/>
      </g>
    </g>
    <line id="Line_111" data-name="Line 111" class="cls-6" x2="47.056" transform="translate(4523.157 927.5)"/>
    <line id="Line_112" data-name="Line 112" class="cls-6" x2="47.056" transform="translate(4523.157 940)"/>
    <line id="Line_113" data-name="Line 113" class="cls-6" x2="47.056" transform="translate(4523.157 952.5)"/>
    <line id="Line_110" data-name="Line 110" class="cls-7" y2="57" transform="translate(4510.217 921.5)"/>
    <g id="XMLID_67_2" data-name="XMLID_67_" transform="translate(4452.989 898.348)">
      <path id="XMLID_68_2" data-name="XMLID_68_" class="cls-8" d="M123.4,45H1.613C.726,45,0,44.845,0,44.657V27.042c0-.188.726-.342,1.613-.342H123.4c.887,0,1.613.154,1.613.342V44.657C125.01,44.845,124.284,45,123.4,45Z" transform="translate(0 -26.7)"/>
    </g>
    <line id="Line_380" data-name="Line 380" class="cls-9" x2="32" transform="translate(4462.5 907.5)"/>
    <line id="Line_381" data-name="Line 381" class="cls-9" x2="25" transform="translate(4538.5 968.5)"/>
  </g>
</svg>
