<svg xmlns="http://www.w3.org/2000/svg" viewBox="0 0 131 91">
  <defs>
    <style>
      .cls-1, .cls-3 {
        opacity: 0.6;
      }

      .cls-2, .cls-3 {
        fill: #dddde1;
      }

      .cls-4, .cls-5, .cls-7 {
        fill: none;
      }

      .cls-4, .cls-5 {
        stroke: #e9e9ed;
      }

      .cls-4 {
        stroke-width: 4px;
      }

      .cls-6 {
        fill: #f3f3ff;
      }

      .cls-7 {
        stroke: #33335d;
      }

      .cls-8 {
        fill: #26263a;
        font-size: 13px;
        font-family: Lato-Heavy, Lato;
        font-weight: 800;
      }
    </style>
  </defs>
  <g id="Group_3040" data-name="Group 3040" transform="translate(-4447.5 -892.5)">
    <g id="Group_2933" data-name="Group 2933" transform="translate(4453.973 925)">
      <g id="Group_2849" data-name="Group 2849" class="cls-1" transform="translate(16.513 10.535)">
        <path id="Path_9228" data-name="Path 9228" class="cls-2" d="M0,0,18.948-.027l-.015,10.294-18.948.027Z" transform="translate(21.734 10.285) rotate(160.773)"/>
        <path id="Path_9114" data-name="Path 9114" class="cls-2" d="M39.178,14.422l3.13,9.041L25.17,29.438,22.039,20.4l17.139-5.975m.548-1.022L21.1,19.925l3.678,10.456L43.4,23.856,39.726,13.4Z" transform="translate(-21.1 -13.4)"/>
      </g>
      <path id="Path_9115" data-name="Path 9115" class="cls-3" d="M33.778,51.947a7.235,7.235,0,0,1-.078,2.594L56.161,46.68l-.783-2.28Z" transform="translate(-7.326 -9.494)"/>
      <path id="Path_9116" data-name="Path 9116" class="cls-3" d="M20.962,47.707a6.113,6.113,0,1,0,7.748,3.774A6.046,6.046,0,0,0,20.962,47.707Zm3.13,8.884A3.206,3.206,0,1,1,26.049,52.5,3.285,3.285,0,0,1,24.093,56.591Z" transform="translate(-3.667 -10.129)"/>
      <g id="Group_2850" data-name="Group 2850" class="cls-1" transform="translate(20.817 21.069)">
        <path id="Path_9117" data-name="Path 9117" class="cls-2" d="M50.469,27.822l3.522,10.063L32.235,45.511a8.538,8.538,0,0,0-2.113-2.594L27.7,35.841l22.774-8.019m.47-1.022L26.6,35.291l2.817,8.019a7.022,7.022,0,0,1,2.348,3.066l23.165-8.1L50.939,26.8Z" transform="translate(-26.6 -26.8)"/>
      </g>
      <g id="Group_2851" data-name="Group 2851" class="cls-1">
        <path id="Path_9118" data-name="Path 9118" class="cls-2" d="M21.209,36.321,9.235,1.965,9.313.236.078,0,0,4.088l7.043.236L18.156,36.242Z"/>
      </g>
    </g>
    <line id="Line_111" data-name="Line 111" class="cls-4" x2="47.057" transform="translate(4523.158 927.5)"/>
    <line id="Line_112" data-name="Line 112" class="cls-4" x2="47.057" transform="translate(4523.158 938.5)"/>
    <line id="Line_113" data-name="Line 113" class="cls-4" x2="47.057" transform="translate(4523.158 949.5)"/>
    <line id="Line_114" data-name="Line 114" class="cls-4" x2="47.057" transform="translate(4523.158 960.5)"/>
    <line id="Line_115" data-name="Line 115" class="cls-4" x2="19.183" transform="translate(4551.031 974.5)"/>
    <line id="Line_110" data-name="Line 110" class="cls-5" y2="57" transform="translate(4510.217 921.5)"/>
    <g id="XMLID_67_" transform="translate(4452.989 898.348)">
      <path id="XMLID_68_" class="cls-6" d="M123.4,45H1.613C.726,45,0,44.845,0,44.657V27.042c0-.188.726-.342,1.613-.342H123.4c.887,0,1.613.154,1.613.342V44.657C125.011,44.845,124.285,45,123.4,45Z" transform="translate(0 -26.7)"/>
    </g>
    <g id="XMLID_67_2" data-name="XMLID_67_" transform="translate(4448 893)">
      <path id="XMLID_68_2" data-name="XMLID_68_" class="cls-7" d="M128.323,116.7H1.677A1.686,1.686,0,0,1,0,115.016V28.384A1.686,1.686,0,0,1,1.677,26.7H128.323A1.686,1.686,0,0,1,130,28.384v86.632A1.686,1.686,0,0,1,128.323,116.7Z" transform="translate(0 -26.7)"/>
    </g>
    <text id="Stock_in_hand" data-name="Stock in hand" class="cls-8" transform="translate(4497.417 910.657)"><tspan x="-39.182" y="0">Stock in hand</tspan></text>
  </g>
</svg>
