<svg xmlns="http://www.w3.org/2000/svg" viewBox="0 0 423.499 259.875">
  <defs>
    <style>
      .cls-1 {
        fill: #dddde1;
        opacity: 0.33;
      }

      .cls-2 {
        fill: #f3f3ff;
      }

      .cls-14, .cls-17, .cls-3, .cls-5, .cls-8 {
        fill: #fff;
      }

      .cls-3, .cls-4, .cls-5, .cls-6, .cls-8 {
        stroke: #26263a;
        stroke-miterlimit: 10;
      }

      .cls-3, .cls-4, .cls-5, .cls-6 {
        stroke-width: 2px;
      }

      .cls-15, .cls-4, .cls-6 {
        fill: none;
      }

      .cls-5, .cls-6, .cls-8 {
        stroke-linecap: round;
      }

      .cls-7 {
        fill: #5f6b72;
        opacity: 0.15;
      }

      .cls-9 {
        fill: #f3f3f5;
        opacity: 0.59;
      }

      .cls-10, .cls-11, .cls-12 {
        fill: #28283c;
      }

      .cls-10 {
        font-size: 16px;
        font-family: Roboto-Medium, Roboto;
        font-weight: 500;
      }

      .cls-11 {
        font-size: 8px;
      }

      .cls-11, .cls-12, .cls-14, .cls-17 {
        font-family: Roboto-Regular, Roboto;
      }

      .cls-12, .cls-14 {
        font-size: 7px;
      }

      .cls-13 {
        fill: #26263a;
      }

      .cls-15 {
        stroke: #dddde1;
      }

      .cls-16 {
        fill: #e04f26;
      }

      .cls-17 {
        font-size: 20px;
      }
    </style>
  </defs>
  <g id="Group_3888" data-name="Group 3888" transform="translate(-741.246 -1037)">
    <g id="Group_3271" data-name="Group 3271" transform="translate(-6 59.879)">
      <path id="Path_9456" data-name="Path 9456" class="cls-1" d="M607.021,118.625H562.8c-5.867,0-11.448-1.431-15.741-5.724-5.438-5.438-6.869-12.307-6.44-19.605.573-8.443,5.438-13.595,13.022-16.457a35.415,35.415,0,0,1,7.441-1.86c1.431-.143,1.717-.859,1.86-2A31.818,31.818,0,0,1,568.24,59.38a25.117,25.117,0,0,1,18.174-11.448c9.3-1.431,17.745.572,24.614,7.155a22.125,22.125,0,0,1,3.435,3.864,2.139,2.139,0,0,0,3.005.859c9.016-3.578,17.6-3.148,25.616,2.862,6.01,4.579,8.586,10.876,8.586,18.317,0,1,0,1.717,1.288,2,12.736,3.005,16.028,14.167,13.309,24.471-2,7.441-7.3,11.162-14.883,11.162Z" transform="translate(206.696 929.627)"/>
      <path id="Path_9457" data-name="Path 9457" class="cls-2" d="M685.953,224.6H397.6A16.612,16.612,0,0,1,381,208v10.59a16.612,16.612,0,0,0,16.6,16.6H686.1a16.612,16.612,0,0,0,16.6-16.6V208A16.643,16.643,0,0,1,685.953,224.6Z" transform="translate(416.924 990.81)"/>
      <path id="Path_9458" data-name="Path 9458" class="cls-3" d="M660.221,261.348H407.786a8.611,8.611,0,0,1-8.586-8.586V92.486a8.611,8.611,0,0,1,8.586-8.586H660.221a8.612,8.612,0,0,1,8.586,8.586V252.762A8.611,8.611,0,0,1,660.221,261.348Z" transform="translate(424.769 937.319)"/>
      <path id="Path_9459" data-name="Path 9459" class="cls-4" d="M688.429,235.233H395.21a14.352,14.352,0,0,1-14.31-14.31V207.9H702.6v13.022A14.14,14.14,0,0,1,688.429,235.233Z" transform="translate(416.881 990.767)"/>
      <path id="Path_9460" data-name="Path 9460" class="cls-2" d="M657.47,85.3h-247a9.894,9.894,0,0,0-9.874,9.874V250.441a9.894,9.894,0,0,0,9.874,9.874h247a9.894,9.894,0,0,0,9.874-9.874V95.174A9.894,9.894,0,0,0,657.47,85.3Zm.573,156.7a10.05,10.05,0,0,1-10.16,9.874H419.919A10.05,10.05,0,0,1,409.759,242V103.331a10.05,10.05,0,0,1,10.16-9.874H648.026a10.05,10.05,0,0,1,10.16,9.874V242Z" transform="translate(425.372 937.923)"/>
      <line id="Line_184" data-name="Line 184" class="cls-5" x2="378" transform="translate(759 1226)"/>
      <line id="Line_185" data-name="Line 185" class="cls-6" x2="20.893" transform="translate(1148.852 1226)"/>
      <ellipse id="Ellipse_101" data-name="Ellipse 101" class="cls-7" cx="33.988" cy="32.697" rx="33.988" ry="32.697" transform="translate(1058.499 987.161)"/>
      <ellipse id="Ellipse_102" data-name="Ellipse 102" class="cls-8" cx="31.693" cy="31.693" rx="31.693" ry="31.693" transform="translate(1063.088 984.579)"/>
    </g>
    <rect id="Rectangle_1568" data-name="Rectangle 1568" class="cls-9" width="23.734" height="69.929" transform="translate(838 1171.879)"/>
    <rect id="Rectangle_1569" data-name="Rectangle 1569" class="cls-9" width="79.734" height="69.929" transform="translate(873 1171.879)"/>
    <rect id="Rectangle_1570" data-name="Rectangle 1570" class="cls-9" width="44.734" height="69.929" transform="translate(964 1171.879)"/>
    <rect id="Rectangle_1571" data-name="Rectangle 1571" class="cls-9" width="44.734" height="69.929" transform="translate(1020 1171.879)"/>
    <text id="Invoice" class="cls-10" transform="translate(838 1114.879)"><tspan x="0" y="0">Invoice</tspan></text>
    <text id="To_ABC_Ltd._Indore" data-name="To,
ABC Ltd.
Indore" class="cls-11" transform="translate(838 1131.879)"><tspan x="0" y="0">To,</tspan><tspan x="0" y="10">ABC Ltd.</tspan><tspan x="0" y="20">Indore</tspan></text>
    <text id="Inv_434_Due_Date_05_10_18" data-name="Inv #434
Due Date 05/10//18" class="cls-12" transform="translate(890 1142.879)"><tspan x="0" y="0">Inv #434</tspan><tspan x="0" y="8">Due Date 05/10//18</tspan></text>
    <rect id="Rectangle_1572" data-name="Rectangle 1572" class="cls-13" width="55" height="19" rx="2" transform="translate(1010 1130.879)"/>
    <text id="Due:_50000" data-name="Due: 50000" class="cls-14" transform="translate(1020 1142.879)"><tspan x="0" y="0">Due: 50000</tspan></text>
    <line id="Line_200" data-name="Line 200" class="cls-15" y1="1" x2="226" transform="translate(838.5 1159.379)"/>
    <g id="Group_3223" data-name="Group 3223" transform="translate(1070.794 1057.968)">
      <path id="Path_9467" data-name="Path 9467" class="cls-16" d="M420.388,170.521l.6,7.241-6.637-3.017Zm1.006,21.722a1.154,1.154,0,0,0-1.408.4,15.567,15.567,0,0,1-14.079,8.85,16.194,16.194,0,0,1-.6-32.381,16.628,16.628,0,0,1,11.062,4.023l1.81-1.408A18.794,18.794,0,0,0,405.3,166.7,18.406,18.406,0,1,0,422,193.249C422.2,193.048,422,192.444,421.393,192.243Zm-14.682-5.632v-9.051a1.207,1.207,0,1,0-2.414,0v9.051a1.207,1.207,0,1,0,2.414,0Zm9.252,0a1.3,1.3,0,0,0-1.207-1.207h-8.85a1.207,1.207,0,1,0,0,2.414h8.85A1.3,1.3,0,0,0,415.963,186.612Z" transform="translate(-387.198 -166.7)"/>
    </g>
    <path id="Path_9545" data-name="Path 9545" class="cls-13" d="M62.389,88.805c-1.548-.191-3.1-.3-4.622-.615a6.37,6.37,0,0,0-5.152,1.187c-.975.657-1.929,1.357-2.9,1.993a7.392,7.392,0,0,1-8.544.021A26.52,26.52,0,0,1,38.9,89.865a8.047,8.047,0,0,0-7.272-1.527,20.02,20.02,0,0,1-3.371.382,6.474,6.474,0,0,1-5.788-3.011A26.366,26.366,0,0,1,20.43,82.3,7.35,7.35,0,0,0,15.6,78.459a34.2,34.2,0,0,1-3.774-1.251c-2.841-1.145-4.071-3.477-4.41-6.382-.148-1.251-.17-2.5-.254-3.753a5.962,5.962,0,0,0-1.887-4.007c-.954-.912-1.972-1.781-2.926-2.714a7.2,7.2,0,0,1-1.8-8.311c.36-.912.721-1.823,1.1-2.735a7.41,7.41,0,0,0,0-6.149A30.646,30.646,0,0,1,.076,38.45a6.2,6.2,0,0,1,1.929-5.979,16.52,16.52,0,0,1,1.972-1.887c2.5-1.823,3.371-4.325,3.414-7.315A18.105,18.105,0,0,1,7.815,19.9a6.539,6.539,0,0,1,4.664-4.961c1.357-.445,2.714-.933,4.092-1.315a6.087,6.087,0,0,0,3.583-2.968c.636-1.06,1.23-2.163,1.866-3.244a7.087,7.087,0,0,1,7.612-3.583c1.272.17,2.544.382,3.816.572a6.564,6.564,0,0,0,4.813-1.336c1-.678,1.993-1.4,3.011-2.035a7.3,7.3,0,0,1,8.417.106c1.336.848,2.65,1.76,4.007,2.587a5.842,5.842,0,0,0,4.177.615c1.187-.191,2.375-.424,3.583-.572A7.21,7.21,0,0,1,68.9,7.516c.678,1.124,1.357,2.29,2.014,3.435a6.094,6.094,0,0,0,3.689,2.82c1.293.4,2.608.784,3.88,1.251,3.1,1.124,4.58,3.435,4.9,6.615.106,1.124.17,2.269.233,3.414a6.9,6.9,0,0,0,2.587,5,31.31,31.31,0,0,1,2.735,2.565,6.646,6.646,0,0,1,1.548,7.06,29.574,29.574,0,0,1-1.145,2.968,7.881,7.881,0,0,0-.042,7,22.49,22.49,0,0,1,1.4,4.177,6.4,6.4,0,0,1-1.908,6.127c-1.1,1.145-2.269,2.247-3.435,3.329a5.984,5.984,0,0,0-1.781,4.05,41.858,41.858,0,0,1-.678,5.407,6.352,6.352,0,0,1-4.6,4.749c-1.293.424-2.587.848-3.9,1.23a6.582,6.582,0,0,0-3.859,3.159c-.806,1.336-1.548,2.693-2.417,3.986A6.231,6.231,0,0,1,62.389,88.805Z" transform="translate(756.092 1204.134)"/>
    <text id="GST_Ready" data-name="GST
Ready" class="cls-17" transform="translate(802 1244.879)"><tspan x="-18.867" y="0">GST</tspan><tspan x="-27.808" y="25">Ready</tspan></text>
  </g>
</svg>
