<?xml version="1.0" encoding="utf-8"?>
<!-- Generator: Adobe Illustrator 19.0.0, SVG Export Plug-In . SVG Version: 6.00 Build 0)  -->
<svg version="1.1" id="Layer_1" xmlns="http://www.w3.org/2000/svg" xmlns:xlink="http://www.w3.org/1999/xlink" x="0px" y="0px"
	 width="180px" height="60.8px" viewBox="0 0 180 60.8" style="enable-background:new 0 0 180 60.8;" xml:space="preserve">
<style type="text/css">
	.st0{fill-rule:evenodd;clip-rule:evenodd;fill:#231F20;}
	.st1{fill-rule:evenodd;clip-rule:evenodd;fill:#FFF7EB;}
	.st2{fill-rule:evenodd;clip-rule:evenodd;fill:#ED3724;}
	.st3{fill-rule:evenodd;clip-rule:evenodd;}
</style>
<path class="st0" d="M74.9,30.6c0,2,0.6,3.6,1.7,4.8c1.1,1.2,2.6,1.9,4.3,1.9c1.7,0,3.2-0.6,4.4-1.9c1.2-1.2,1.9-2.9,1.9-4.8
	c0-2-0.6-3.6-1.9-4.8C84.1,24.6,82.7,24,81,24c-1.6,0-3.1,0.6-4.3,1.8C75.5,27,74.9,28.6,74.9,30.6L74.9,30.6z M94.3,20.7v3.4h-3.4
	v14.4c0,1.9-0.1,3.4-0.3,4.3c-0.2,0.9-0.7,1.9-1.4,2.9c-0.8,1-1.9,1.8-3.4,2.5c-1.5,0.7-3.2,1-5.1,1c-2.8,0-5.3-0.9-7.6-2.6l2.5-2.8
	c1.7,1.3,3.5,2,5.4,2c1.1,0,2.1-0.2,3-0.6c0.9-0.4,1.6-0.9,2.1-1.5c0.5-0.6,0.7-1.2,0.9-1.7c0.1-0.5,0.2-1.5,0.2-2.7v-1.8
	c-0.6,0.8-1.5,1.5-2.8,2.2c-1.3,0.7-2.7,1-4.2,1c-2.7,0-5-1-6.7-2.9c-1.7-1.9-2.6-4.3-2.6-7.1c0-3.1,1-5.5,2.9-7.4
	c1.9-1.9,4.1-2.8,6.6-2.8c2.5,0,4.8,1,6.8,3.1v-2.8H94.3z"/>
<path class="st0" d="M98.8,14.1c0-0.6,0.2-1.1,0.6-1.6c0.4-0.5,1-0.7,1.6-0.7c0.6,0,1.1,0.2,1.6,0.7c0.4,0.4,0.7,1,0.7,1.6
	c0,0.6-0.2,1.2-0.7,1.6c-0.4,0.4-1,0.7-1.6,0.7c-0.6,0-1.2-0.2-1.6-0.7C99,15.3,98.8,14.8,98.8,14.1L98.8,14.1z M99.3,36.7V24.1h-3
	v-3.4h6.7v16h3v3.4h-9.7v-3.4H99.3z"/>
<path class="st0" d="M111.5,30.4c0,2.1,0.6,3.8,1.8,4.9c1.2,1.1,2.6,1.7,4.3,1.7c1.6,0,3-0.6,4.3-1.8c1.2-1.2,1.9-2.9,1.9-5
	c0-2.1-0.6-3.8-1.9-4.9c-1.3-1.1-2.7-1.6-4.3-1.6c-1.7,0-3.1,0.6-4.3,1.9C112.1,26.9,111.5,28.5,111.5,30.4L111.5,30.4z M130.9,36.7
	v3.4h-7.2v-2.8c-1.9,2.1-4.2,3.2-6.8,3.2c-2.5,0-4.7-0.9-6.6-2.6c-1.9-1.7-2.8-4.2-2.8-7.3c0-3.2,1-5.7,2.9-7.5
	c1.9-1.8,4.1-2.8,6.6-2.8c2.6,0,4.8,1,6.8,3.1v-7.7h-3.7v-3.4h7.4v24.4H130.9z"/>
<path class="st0" d="M137.1,30.4c0,2.1,0.6,3.8,1.8,4.9c1.2,1.1,2.6,1.7,4.3,1.7c1.6,0,3-0.6,4.3-1.8c1.2-1.2,1.9-2.9,1.9-5
	c0-2.1-0.6-3.8-1.9-4.9c-1.3-1.1-2.7-1.6-4.3-1.6c-1.7,0-3.1,0.6-4.3,1.9C137.7,26.9,137.1,28.5,137.1,30.4L137.1,30.4z M156.5,36.7
	v3.4h-7.2v-2.8c-1.9,2.1-4.2,3.2-6.8,3.2c-2.5,0-4.7-0.9-6.6-2.6c-1.9-1.7-2.8-4.2-2.8-7.3c0-3.2,1-5.7,2.9-7.5
	c1.9-1.8,4.1-2.8,6.6-2.8c2.6,0,4.8,1,6.8,3.1v-7.7h-3.7v-3.4h7.4v24.4H156.5z"/>
<path class="st0" d="M161.2,36.7V15.6h-3.5v-3.4h7.2v10.7c2.3-1.8,4.4-2.8,6.4-2.8c1.3,0,2.3,0.3,3.1,0.8c0.8,0.5,1.4,1.2,1.7,2.1
	c0.3,0.9,0.4,2.1,0.4,3.8v9.8h3.3v3.4h-7V28.2c0-1.5,0-2.4-0.1-2.9c-0.1-0.5-0.3-0.9-0.8-1.2c-0.4-0.3-0.9-0.5-1.5-0.5
	c-1.5,0-3.3,0.8-5.5,2.5v10.6h3.3v3.4h-10.5v-3.4H161.2z"/>
<path class="st1" d="M30.1,3.6c14.7,0,26.5,12,26.5,26.8c0,14.8-11.8,26.8-26.5,26.8c-14.7,0-26.5-12-26.5-26.8
	C3.6,15.6,15.4,3.6,30.1,3.6z"/>
<path class="st2" d="M30.1,8.8c12,0,21.7,9.7,21.7,21.7c0,12-9.7,21.7-21.7,21.7c-12,0-21.7-9.7-21.7-21.7
	C8.4,18.4,18.1,8.8,30.1,8.8L30.1,8.8z M30.1,0.4c-16.5,0-30,13.5-30,30c0,16.5,13.5,30,30,30c16.5,0,30-13.5,30-30
	C60.1,13.9,46.6,0.4,30.1,0.4z"/>
<path class="st3" d="M31.9,46.2c5,0,9-4.1,9-9.1c0-5-4-9.1-9-9.1c-5,0-9,4.1-9,9.1C22.9,42.1,26.9,46.2,31.9,46.2z"/>
<path class="st1" d="M30.1,73.3c14.7,0,26.5,12,26.5,26.8c0,14.8-11.8,26.8-26.5,26.8c-14.7,0-26.5-12-26.5-26.8
	C3.6,85.3,15.4,73.3,30.1,73.3z"/>
<path class="st2" d="M30.1,78c12,0,21.7,9.7,21.7,21.7c0,12-9.7,21.7-21.7,21.7c-12,0-21.7-9.7-21.7-21.7C8.4,87.7,18.1,78,30.1,78
	L30.1,78z M30.1,69.7c-16.5,0-30,13.5-30,30c0,16.5,13.5,30,30,30c16.5,0,30-13.5,30-30C60.1,83.2,46.6,69.7,30.1,69.7z"/>
<path class="st3" d="M31.9,115.9c5,0,9-4.1,9-9.1c0-5-4-9.1-9-9.1c-5,0-9,4.1-9,9.1C22.9,111.8,26.9,115.9,31.9,115.9z"/>
</svg>
