<svg xmlns="http://www.w3.org/2000/svg" viewBox="0 0 91 91">
  <defs>
    <style>
      .cls-1, .cls-7 {
        fill: #717296;
      }

      .cls-1, .cls-5 {
        stroke: #33335d;
      }

      .cls-1, .cls-5, .cls-6 {
        stroke-miterlimit: 10;
      }

      .cls-2 {
        fill: #fff;
      }

      .cls-3 {
        fill: #565b73;
      }

      .cls-4 {
        fill: #eb8066;
      }

      .cls-5, .cls-6 {
        fill: none;
      }

      .cls-6 {
        stroke: #717296;
        stroke-linecap: round;
      }
    </style>
  </defs>
  <g id="Group_4498" data-name="Group 4498" transform="translate(-4199.5 -1021.5)">
    <ellipse id="Ellipse_38" data-name="Ellipse 38" class="cls-1" cx="15.557" cy="15.497" rx="15.557" ry="15.497" transform="translate(4229.462 1022)"/>
    <g id="Group_2875" data-name="Group 2875" transform="translate(4240.266 1030.587)">
      <g id="Group_2870" data-name="Group 2870">
        <g id="Group_2869" data-name="Group 2869">
          <path id="Path_9151" data-name="Path 9151" class="cls-2" d="M100.51,15.919h3.774a1.039,1.039,0,0,1,.293.059l.263.088a.152.152,0,0,1,.117.059c.029,0,.029.029.059.029s.117.059.029,0c.176.088.351.176.5.263.088.059.146.088.234.146-.088-.059.029.029.059.029.029.029.088.059.117.117a2.527,2.527,0,0,1,.38.41h0c0,.029.029.029.029.059.029.029.059.088.088.117a1.186,1.186,0,0,1,.146.263,1.724,1.724,0,0,1,.117.234c0,.029.029.088,0,0,0,.029.029.029.029.059.029.059.029.088.059.146a3.9,3.9,0,0,1,.146.556v.059c-.029-.117,0-.029,0,0v.468a1,1,0,0,1-.029.293v.059h0c0,.059-.029.117-.029.176a2.039,2.039,0,0,1-.176.556c0,.029-.029.029-.029.059h0c-.029.029-.029.088-.059.117a1.186,1.186,0,0,1-.146.263c-.059.088-.088.146-.146.234-.029.029-.117.146-.029.059-.029.029-.059.088-.088.117a5.4,5.4,0,0,1-.41.41.4.4,0,0,1-.117.088c.088-.059-.029.029-.059.029a2.7,2.7,0,0,1-.234.146.876.876,0,0,1-.234.117c-.029.029-.088.029-.117.059h0c-.029,0-.059.029-.088.029a3.9,3.9,0,0,1-.556.146c-.059,0-.088.029-.146.029H104.2c-.117,0-.2.029-.322.029h-3.423a.356.356,0,0,0-.351.351v.322a.376.376,0,0,0,.117.293l.117.117c.176.2.38.439.556.644.644.761,1.316,1.521,1.96,2.282.7.819,1.433,1.667,2.136,2.487.41.468.79.907,1.2,1.375l.029.029a.37.37,0,0,0,.527,0,.4.4,0,0,0,0-.527c-.322-.351-.614-.731-.936-1.082-.7-.79-1.375-1.609-2.077-2.4s-1.375-1.58-2.077-2.4c-.322-.351-.614-.7-.936-1.082a1.039,1.039,0,0,0,.117.263v-.351l-.351.351h3.569a4.2,4.2,0,0,0,2.311-.907,3.811,3.811,0,0,0,1.229-2.048,3.921,3.921,0,0,0-.263-2.516,3.744,3.744,0,0,0-1.638-1.726,3.9,3.9,0,0,0-1.9-.468H100.48a.356.356,0,0,0-.351.351c.029.293.2.468.38.468Z" transform="translate(-100.1 -15.1)"/>
        </g>
      </g>
      <g id="Group_2872" data-name="Group 2872" transform="translate(0.059 3.686)">
        <g id="Group_2871" data-name="Group 2871">
          <path id="Path_9152" data-name="Path 9152" class="cls-2" d="M110.1,27.7h-9.449a.351.351,0,0,0,0,.7H110.1a.351.351,0,1,0,0-.7Z" transform="translate(-100.3 -27.7)"/>
        </g>
      </g>
      <g id="Group_2874" data-name="Group 2874" transform="translate(0.059 0.117)">
        <g id="Group_2873" data-name="Group 2873">
          <path id="Path_9153" data-name="Path 9153" class="cls-2" d="M100.651,16.2H110.1a.351.351,0,1,0,0-.7h-9.449a.356.356,0,0,0-.351.351.378.378,0,0,0,.351.351Z" transform="translate(-100.3 -15.5)"/>
        </g>
      </g>
    </g>
    <g id="Group_2884" data-name="Group 2884" transform="translate(4209.355 1059.354)">
      <g id="Group_2877" data-name="Group 2877">
        <g id="Group_2876" data-name="Group 2876">
          <path id="Path_9154" data-name="Path 9154" class="cls-3" d="M32.247,92.888c-.3.385-.592.8-.888,1.184l-1.953,2.575c-.621.829-1.273,1.687-1.894,2.516-.266.355-.5.681-.769,1.036h.621c-.3-.385-.592-.769-.888-1.184l-1.953-2.575c-.621-.829-1.273-1.687-1.894-2.516-.266-.355-.533-.681-.769-1.036a.378.378,0,0,0-.5-.118c-.148.089-.266.355-.118.5.3.385.592.769.888,1.184l1.953,2.575c.621.829,1.273,1.687,1.894,2.516.266.355.533.681.769,1.036a.371.371,0,0,0,.326.178.451.451,0,0,0,.326-.178c.3-.385.592-.8.888-1.184l1.953-2.575c.621-.829,1.273-1.687,1.894-2.516.266-.355.5-.681.769-1.036a.378.378,0,0,0-.118-.5.407.407,0,0,0-.533.118Z" transform="translate(-21.17 -92.715)"/>
        </g>
      </g>
      <g id="Group_2879" data-name="Group 2879" transform="translate(5.543 7.305)">
        <g id="Group_2878" data-name="Group 2878">
          <path id="Path_9155" data-name="Path 9155" class="cls-3" d="M40.61,124.739v-6.984a.36.36,0,0,0-.355-.355.382.382,0,0,0-.355.355v6.984a.355.355,0,1,0,.71,0Z" transform="translate(-39.9 -117.4)"/>
        </g>
      </g>
      <g id="Group_2881" data-name="Group 2881" transform="translate(2.11 7.158)">
        <g id="Group_2880" data-name="Group 2880">
          <path id="Path_9156" data-name="Path 9156" class="cls-3" d="M28.655,117.61h6.777a.355.355,0,1,0,0-.71H28.655a.36.36,0,0,0-.355.355.382.382,0,0,0,.355.355Z" transform="translate(-28.3 -116.9)"/>
        </g>
      </g>
      <g id="Group_2883" data-name="Group 2883" transform="translate(2.11 9.525)">
        <g id="Group_2882" data-name="Group 2882">
          <path id="Path_9157" data-name="Path 9157" class="cls-3" d="M28.655,125.61h6.777a.355.355,0,1,0,0-.71H28.655a.36.36,0,0,0-.355.355.382.382,0,0,0,.355.355Z" transform="translate(-28.3 -124.9)"/>
        </g>
      </g>
    </g>
    <g id="Group_2891" data-name="Group 2891" transform="translate(4271.138 1059.989)">
      <g id="Group_2886" data-name="Group 2886" transform="translate(0 1.525)">
        <g id="Group_2885" data-name="Group 2885">
          <path id="Path_9158" data-name="Path 9158" class="cls-3" d="M189.415,100.977a3.7,3.7,0,0,0-.06-.6,2.849,2.849,0,0,0-.571-1.172,2.678,2.678,0,0,0-1.563-.9,4.715,4.715,0,0,0-1.293-.12,3.932,3.932,0,0,0-1.323.21,2.836,2.836,0,0,0-1.593,1.232,3.207,3.207,0,0,0-.421,1.563,2.622,2.622,0,0,0,.391,1.5,3.666,3.666,0,0,0,1.563,1.383,5.117,5.117,0,0,0,1.353.451,6.328,6.328,0,0,1,.721.18c.09.03.21.06.3.09.06.03.09.03.15.06a.1.1,0,0,1,.06.03c.03.03.03,0-.03,0,.03,0,.03,0,.06.03.18.09.361.18.511.271a.914.914,0,0,1,.21.15c.03.03.06.06.09.06-.09-.09.03.03.06.03a1.723,1.723,0,0,1,.331.331c.03.03.06.06.06.09.03.03.06.09-.03-.03l.03.03c.03.06.09.12.12.18l.09.18c0,.03.03.06.03.09a.029.029,0,0,0,.03.03c.03.09-.03-.09,0-.03a1.694,1.694,0,0,1,.12.361,1.3,1.3,0,0,0,.03.15c.03.09,0-.09,0,0v.691c.03-.15,0-.06,0-.03a1.587,1.587,0,0,1-.09.361c-.03.06-.03.12-.06.18,0,.03-.03.06-.03.09a.029.029,0,0,1-.03.03c-.03.09.03-.06,0-.03l-.18.361a.3.3,0,0,1-.12.15h0l-.09.09-.15.15c-.03.03-.06.06-.09.06-.06.03.06-.06.03,0-.03,0-.03.03-.06.03a1.917,1.917,0,0,1-.421.24c-.03,0-.09.03,0,0-.03,0-.03.03-.06.03a.181.181,0,0,1-.12.03l-.271.09c-.09.03-.18.03-.271.06h-.06c.12-.03.03,0,0,0a.381.381,0,0,0-.18.03,2.662,2.662,0,0,1-.691,0,1.022,1.022,0,0,1-.3-.03h-.06a1.3,1.3,0,0,1-.15-.03c-.18-.03-.331-.09-.511-.12-.03,0-.06-.03-.12-.03-.03,0-.03,0-.06-.03-.06-.03.09.03.03,0s-.15-.06-.21-.09l-.18-.09c-.03-.03-.06-.03-.09-.06l-.03-.03c-.06-.03.09.06,0,0-.09-.09-.18-.15-.271-.24l-.06-.06-.03-.03c-.03-.06.06.09.03.03a.657.657,0,0,1-.09-.15c-.06-.09-.09-.18-.15-.271,0-.03-.06-.12,0,.03,0-.03-.03-.03-.03-.06-.03-.03-.03-.09-.06-.12-.03-.09-.03-.15-.06-.24a.11.11,0,0,0-.03-.09v-.06c0-.06.03.12,0,.06v-.03a1.007,1.007,0,0,1,0-.3.361.361,0,0,0-.721,0,4.076,4.076,0,0,0,.06.6,2.522,2.522,0,0,0,.571,1.172,2.922,2.922,0,0,0,1.533.932,4.748,4.748,0,0,0,1.293.15,4.844,4.844,0,0,0,1.323-.18,2.836,2.836,0,0,0,1.593-1.232,3.241,3.241,0,0,0,.451-1.563,2.6,2.6,0,0,0-.361-1.5,3.769,3.769,0,0,0-1.533-1.383,5.293,5.293,0,0,0-1.323-.451,6.325,6.325,0,0,1-.721-.18c-.12-.03-.21-.06-.3-.09-.06-.03-.09-.03-.15-.06a.1.1,0,0,1-.06-.03c-.03,0-.12-.06-.03,0a2.751,2.751,0,0,1-.511-.271.914.914,0,0,1-.21-.15c-.03-.03-.06-.06-.09-.06s-.09-.06,0,0l-.06-.06a1.723,1.723,0,0,1-.331-.331c-.03-.03-.06-.06-.06-.09l-.03-.03c-.03-.06.06.09.03.03s-.09-.12-.12-.18l-.18-.361c.06.12,0,.03,0,0s-.03-.06-.03-.09c-.03-.06-.03-.12-.06-.18a1.3,1.3,0,0,0-.03-.15c0-.03-.03-.15,0,0v-.691c0-.06-.03.12,0,.03.03-.12.03-.24.06-.361.03-.06.03-.12.06-.18,0-.03.03-.06.03-.09s.06-.15,0-.03l.18-.361a.3.3,0,0,1,.12-.15c.03-.06-.06.09-.03.03l.03-.03.09-.09.15-.15c.03-.03.06-.06.09-.06.03-.03.09-.06-.03,0,.03,0,.03-.03.06-.03a1.917,1.917,0,0,1,.421-.24c.03,0,.03-.03.06-.03.06-.03-.09.03,0,0a.181.181,0,0,1,.12-.03l.271-.09c.09-.03.18-.03.271-.06.03,0,.18-.03.09,0a.381.381,0,0,0,.18-.03,5.321,5.321,0,0,1,.691-.03,1.023,1.023,0,0,1,.3.03c.03,0,.18.03.06,0a1.3,1.3,0,0,1,.15.03,3.145,3.145,0,0,1,.511.12c.03,0,.06.03.12.03.03,0,.15.06.03,0,.06.03.15.06.21.09l.18.09c.03.03.06.03.09.06l.03.03h0c.09.09.18.15.271.24l.06.06c.03.03.09.12,0,0,.03.06.06.09.09.15.06.09.09.18.15.271,0,.03.03.03.03.06-.06-.15-.03-.06,0-.03s.03.09.06.12a.707.707,0,0,1,.06.24.11.11,0,0,0,.03.09v.03c0,.09.03.21.03.3a.366.366,0,0,0,.361.361c.12.03.271-.15.271-.361Z" transform="translate(-182.587 -98.174)"/>
        </g>
      </g>
      <g id="Group_2888" data-name="Group 2888" transform="translate(3.16)">
        <g id="Group_2887" data-name="Group 2887">
          <path id="Path_9159" data-name="Path 9159" class="cls-3" d="M193.821,94.994V93.461a.366.366,0,0,0-.361-.361.388.388,0,0,0-.361.361v1.533a.361.361,0,1,0,.721,0Z" transform="translate(-193.1 -93.1)"/>
        </g>
      </g>
      <g id="Group_2890" data-name="Group 2890" transform="translate(3.16 12.776)">
        <g id="Group_2889" data-name="Group 2889">
          <path id="Path_9160" data-name="Path 9160" class="cls-3" d="M193.821,137.464v-1.5a.366.366,0,0,0-.361-.361.388.388,0,0,0-.361.361v1.5a.361.361,0,1,0,.721,0Z" transform="translate(-193.1 -135.6)"/>
        </g>
      </g>
    </g>
    <g id="Group_2892" data-name="Group 2892" transform="translate(4239.15 1088.592)">
      <path id="Path_9161" data-name="Path 9161" class="cls-4" d="M99.137,184.3a.437.437,0,0,1,0-.874h1.689V177.4H99.137a.437.437,0,1,1,0-.874h1.689V172.5a3.368,3.368,0,0,1,1.019-2.272,3.448,3.448,0,0,1,2.3-.932h2.359a3.243,3.243,0,0,1,2.272,1.019,3.331,3.331,0,0,1,.932,2.33.517.517,0,0,1-.117.291.374.374,0,0,1-.291.117.448.448,0,0,1-.437-.437,1.306,1.306,0,0,0-.029-.32h0a2.626,2.626,0,0,0-.175-.641h0a3.433,3.433,0,0,0-.32-.553h0a3.091,3.091,0,0,0-.437-.437h0a3.432,3.432,0,0,0-.553-.32h0a2.314,2.314,0,0,0-.641-.175h0c-.117,0-.233-.029-.35-.029H104.38a3,3,0,0,0-.553.029h0a2.314,2.314,0,0,0-.641.175h0a3.431,3.431,0,0,0-.553.32h0a3.091,3.091,0,0,0-.437.437h0a3.433,3.433,0,0,0-.32.553h0a2.314,2.314,0,0,0-.175.641h0a3.344,3.344,0,0,0-.029.553v3.67h4.019a.437.437,0,1,1,0,.874h-4.019v6.029H109.3a.437.437,0,0,1,0,.874Z" transform="translate(-98.7 -169.3)"/>
    </g>
    <ellipse id="Ellipse_39" data-name="Ellipse 39" class="cls-5" cx="15.557" cy="15.497" rx="15.557" ry="15.497" transform="translate(4229.613 1081.005)"/>
    <ellipse id="Ellipse_40" data-name="Ellipse 40" class="cls-5" cx="15.557" cy="15.497" rx="15.557" ry="15.497" transform="translate(4258.886 1051.502)"/>
    <ellipse id="Ellipse_41" data-name="Ellipse 41" class="cls-5" cx="15.557" cy="15.497" rx="15.557" ry="15.497" transform="translate(4200 1051.502)"/>
    <g id="Group_2895" data-name="Group 2895" transform="translate(4265.109 1038.951)">
      <g id="Group_2894" data-name="Group 2894">
        <path id="Path_9162" data-name="Path 9162" class="cls-6" d="M170,44.8s6.761.383,9.1,6.122" transform="translate(-170 -44.8)"/>
        <g id="Group_2893" data-name="Group 2893" transform="translate(7.029 4.668)">
          <path id="Path_9163" data-name="Path 9163" class="cls-7" d="M190.95,60.673a12.362,12.362,0,0,0-2.65-2.64l1.921.115L191.8,57A11.913,11.913,0,0,0,190.95,60.673Z" transform="translate(-188.3 -57)"/>
        </g>
      </g>
    </g>
    <g id="Group_2898" data-name="Group 2898" transform="translate(4263.418 1084.985)">
      <g id="Group_2897" data-name="Group 2897">
        <path id="Path_9164" data-name="Path 9164" class="cls-6" d="M177.546,165.1s-.384,6.735-6.146,9.069" transform="translate(-169.172 -165.1)"/>
        <g id="Group_2896" data-name="Group 2896" transform="translate(0 7.003)">
          <path id="Path_9165" data-name="Path 9165" class="cls-7" d="M165.6,186.04a12.362,12.362,0,0,0,2.65-2.64l-.115,1.913,1.152,1.569A13.263,13.263,0,0,0,165.6,186.04Z" transform="translate(-165.6 -183.4)"/>
        </g>
      </g>
    </g>
    <g id="Group_2901" data-name="Group 2901" transform="translate(4217.516 1084.985)">
      <g id="Group_2900" data-name="Group 2900">
        <path id="Path_9166" data-name="Path 9166" class="cls-6" d="M58.9,177.022s-6.761-.383-9.1-6.122" transform="translate(-48.379 -168.681)"/>
        <g id="Group_2899" data-name="Group 2899">
          <path id="Path_9167" data-name="Path 9167" class="cls-7" d="M46.945,165.1a12.362,12.362,0,0,0,2.65,2.64l-1.921-.115L46.1,168.773A11.913,11.913,0,0,0,46.945,165.1Z" transform="translate(-46.1 -165.1)"/>
        </g>
      </g>
    </g>
    <g id="Group_2904" data-name="Group 2904" transform="translate(4217.017 1037.459)">
      <g id="Group_2903" data-name="Group 2903">
        <path id="Path_9168" data-name="Path 9168" class="cls-6" d="M44.8,53.669s.384-6.735,6.146-9.069" transform="translate(-44.8 -43.184)"/>
        <g id="Group_2902" data-name="Group 2902" transform="translate(4.686)">
          <path id="Path_9169" data-name="Path 9169" class="cls-7" d="M60.688,41.742a12.362,12.362,0,0,0-2.65,2.64l.115-1.913L57,40.9A13.263,13.263,0,0,0,60.688,41.742Z" transform="translate(-57 -40.9)"/>
        </g>
      </g>
    </g>
  </g>
</svg>
