<?xml version="1.0" encoding="utf-8"?>
<!-- Generator: Adobe Illustrator 19.1.0, SVG Export Plug-In . SVG Version: 6.00 Build 0)  -->
<svg version="1.1" id="Layer_1" xmlns="http://www.w3.org/2000/svg" xmlns:xlink="http://www.w3.org/1999/xlink" x="0px" y="0px"
	 viewBox="-422 252 434 290" style="enable-background:new -422 252 434 290;" xml:space="preserve">
<style type="text/css">
	.st0{fill:#F3F3FF;stroke:#26263A;stroke-width:2;stroke-linecap:round;stroke-linejoin:round;stroke-miterlimit:2.613;}
	.st1{fill:#E7E7E7;}
	.st2{fill:none;stroke:#26263A;stroke-width:2;stroke-linecap:round;stroke-linejoin:round;stroke-miterlimit:2.613;}
	.st3{fill:none;stroke:#26263A;stroke-width:2;stroke-miterlimit:2.613;}
	.st4{fill:#26263A;}
	.st5{fill:#F3F3FF;stroke:#26263A;stroke-width:2;stroke-miterlimit:2.613;}
	.st6{fill:#26263A;stroke:#26263A;stroke-width:2;stroke-miterlimit:2.613;}
	.st7{fill:#E43626;}
	.st8{fill:#0F0F27;}
	.st9{opacity:0.25;fill:#000002;enable-background:new    ;}
	.st10{enable-background:new    ;}
	.st11{fill:#FFF7EB;}
	.st12{fill:#000002;}
	.st13{fill:#26263A;stroke:#26263A;stroke-width:2;stroke-linecap:round;stroke-linejoin:round;stroke-miterlimit:2.613;}
</style>
<g id="Group_4481" transform="translate(2262.65 -1932.8)">
	<path id="Path_11373" class="st0" d="M-2402.8,2310c6.2-6.3,39.9-6.3,46.2,0c6.2,6.3,6.2,40.2,0,46.5s-39.9,6.3-46.2,0
		C-2409,2350.2-2409,2316.3-2402.8,2310z"/>
	<path id="Path_11374" class="st1" d="M-2483.1,2222.9c4.2-5.2,224.9-5.2,229.1,0c4.2,5.2,4.2,52.2,0,57.4s-224.9,5.2-229.1,0
		C-2487.4,2275.1-2487.4,2228.1-2483.1,2222.9z"/>
	<line id="Line_881" class="st2" x1="-2357.9" y1="2283" x2="-2362.6" y2="2300.1"/>
	<path id="Path_11375" class="st2" d="M-2338.4,2355.5c-10.7,13.8-18.1,17.4-38.3,16.2"/>
	<g id="Group_4464" transform="translate(-1985.671 2051.875)">
		<path id="Path_11376" class="st3" d="M-417.1,258.2c6.2-6.3,39.9-6.3,46.2,0c6.2,6.3-4.6,18.6-27.7,18.6
			c0,18.6-12.2,34.2-18.5,27.9C-423.4,298.3-423.4,264.4-417.1,258.2z"/>
		<path id="Path_11377" class="st4" d="M-417.1,258.2c6.2-6.3,39.9-6.3,46.2,0c6.2,6.3-4.6,18.6-27.7,18.6
			c0,18.6-12.2,34.2-18.5,27.9C-423.4,298.3-423.4,264.4-417.1,258.2z"/>
	</g>
	<path id="Path_11378" class="st5" d="M-2398.9,2413.1c5.2,5.2,33.2,5.2,38.4,0s5.2-42.7,0-47.9s-33.2-5.2-38.4,0
		S-2404.1,2407.9-2398.9,2413.1z"/>
	<path id="Path_11380" class="st2" d="M-2373.5,2423.2c-0.8-2.1-1.8-4.2-3-6.2c0.9,0,1.8-0.2,2.6-0.2c0.9-0.1,1.9-0.2,2.8-0.2
		C-2372.4,2418.7-2372.4,2420.9-2373.5,2423.2z"/>
	<path id="Path_11383" class="st2" d="M-2385.1,2423.2c0.9-2.3,1-4.1,2.2-6.2c-0.9,0-1.7-0.2-2.6-0.2c-0.9-0.1-1.9-0.2-2.8-0.2
		C-2387.1,2418.7-2386,2420.9-2385.1,2423.2z"/>
	<path id="Path_11385" class="st6" d="M-2361.2,2337.8c0.6,0,1.1-0.5,1.1-1.1s-0.5-1.1-1.1-1.1s-1.1,0.5-1.1,1.1l0,0
		c0,0.6,0.4,1.1,1,1.1H-2361.2z"/>
	<path id="Path_11386" class="st2" d="M-2362,2346.9c1.5-0.4,3.4-0.2,5.3,1.9"/>
	<path id="Path_11387" class="st5" d="M-2335.6,2333.1c0.9-0.7,35.5-0.7,36.5,0.3c1.1,1.1-3.3,42-4.3,42.7c-0.9,0.7-35.2-6.1-35.9-7
		S-2336.4,2333.8-2335.6,2333.1z"/>
	<path id="Path_11533" class="st7" d="M-2328.7,2351c0.6-5.6,5.2-9.6,10.2-9.1c5,0.6,8.5,5.6,7.9,11.2c-0.6,5.6-5.2,9.6-10.2,9.1
		C-2325.8,2361.6-2329.3,2356.6-2328.7,2351z"/>
	<path id="Path_11388" class="st8" d="M-2319.7,2352.1l-1.1,10.1c-5-0.6-8.5-5.5-7.9-11.2c0.6-5.6,5.2-9.6,10.2-9s8.5,5.5,7.9,11.2
		L-2319.7,2352.1z"/>
	<ellipse id="Ellipse_158" class="st6" cx="-2338.4" cy="2355.5" rx="2.3" ry="2.4"/>
	<path id="Path_11389" class="st2" d="M-2360.9,2353.3c2.8,30.5-4.1,26.6-18.8,17.3"/>
	<ellipse id="Ellipse_159" class="st6" cx="-2360.9" cy="2353.3" rx="2.3" ry="2.4"/>
	<path id="Path_11390" class="st2" d="M-2357.5,2334.1c-2.7,1.6-2.3-2-5.9-2"/>
	<ellipse id="Ellipse_160" class="st9" cx="-2376.4" cy="2444.2" rx="27.7" ry="5.5"/>
	<g class="st10">
		<path class="st7" d="M-2421.9,2464.2L-2421.9,2464.2c-0.1,0.4-0.2,0.9-0.3,1.5s-0.2,1.1-0.2,1.4c0,0.5,0,0.9,0,1.1s0,0.4-0.1,0.5
			s-0.2,0.2-0.3,0.3s-0.3,0.1-0.4,0.1c-0.2,0-0.5-0.1-0.7-0.3s-0.3-0.4-0.3-0.6c0-0.1,0.1-0.4,0.2-1c0.1-0.5,0.2-1,0.3-1.3
			c-1.5,1.1-2.9,1.7-4.1,1.7c-0.8,0-1.5-0.2-1.9-0.7c-0.5-0.5-0.7-1.1-0.7-1.9c0-1.3,0.4-2.6,1.2-3.8l0,0c0.8-1.2,1.8-2.2,3-3
			c1.1-0.7,2.3-1.1,3.4-1.1c0.6,0,1.1,0.1,1.4,0.3c0.3,0.2,0.5,0.5,0.5,0.8s-0.1,0.6-0.4,0.9c-0.2,0.3-0.5,0.5-0.7,0.5
			s-0.3,0-0.3-0.1c-0.1-0.1-0.1-0.2-0.2-0.4c-0.1-0.2-0.2-0.3-0.3-0.4c-0.1-0.1-0.3-0.1-0.5-0.1c-0.7,0-1.5,0.3-2.4,1
			s-1.6,1.5-2.2,2.4c-0.6,0.9-0.8,1.8-0.8,2.7s0.4,1.3,1.1,1.3c0.4,0,0.9-0.1,1.4-0.3c0.6-0.2,1.1-0.5,1.8-1c0.6-0.4,1-0.8,1.1-1.2
			s0.2-0.8,0.3-1.2c0-0.3,0.1-0.4,0.3-0.5s0.4-0.1,0.6-0.1c0.6,0,0.9,0.2,0.9,0.6c0,0.2-0.1,0.4-0.2,0.8
			C-2421.7,2463.5-2421.8,2463.8-2421.9,2464.2z"/>
		<path class="st7" d="M-2413.6,2465.2c0,0.5-0.4,1-1.2,1.7s-1.7,1-2.7,1c-0.8,0-1.4-0.2-1.8-0.7c-0.4-0.5-0.7-1.2-0.7-2
			c0-1.3,0.5-2.5,1.4-3.6s1.9-1.7,2.9-1.7c0.5,0,0.9,0.2,1.2,0.5s0.5,0.7,0.5,1.2c0,0.8-0.4,1.5-1.1,2.3c-0.8,0.7-1.7,1.2-2.9,1.5
			c-0.1,0-0.2,0.1-0.2,0.2c0,0.2,0.1,0.4,0.3,0.6c0.2,0.2,0.5,0.3,0.8,0.3c0.9,0,1.8-0.5,2.7-1.4c0.2-0.2,0.3-0.3,0.5-0.3
			C-2413.7,2464.8-2413.6,2464.9-2413.6,2465.2z M-2418.2,2464c0.7-0.1,1.4-0.5,1.9-0.9c0.5-0.5,0.8-0.9,0.8-1.3
			c0-0.2,0-0.3-0.1-0.4c-0.1-0.1-0.2-0.2-0.3-0.2c-0.4,0-0.8,0.3-1.3,0.9C-2417.7,2462.7-2418,2463.4-2418.2,2464z"/>
		<path class="st7" d="M-2406.7,2466.6c-0.2-0.4-0.4-1.2-0.5-2.3c-0.1-1.2-0.3-1.8-0.7-1.8c-0.3,0-0.9,0.6-1.7,1.8s-1.3,2.1-1.5,2.7
			c0,0.2-0.1,0.3-0.2,0.4c-0.1,0.1-0.2,0.2-0.3,0.2c-0.7,0-1-0.3-1-1c0-0.2,0.1-0.7,0.2-1.5c0.2-1,0.3-2.2,0.3-3.6
			c0-0.2,0.1-0.4,0.3-0.7c0.2-0.2,0.4-0.4,0.6-0.4c0.3,0,0.5,0.1,0.6,0.2c0.1,0.1,0.2,0.5,0.2,1.1c0,0.4-0.1,1.3-0.4,2.5
			c1-2.3,2.1-3.5,3.3-3.5c1.1,0,1.7,0.8,1.9,2.5s0.4,2.5,0.6,2.5c0.1,0,0.2,0,0.4-0.1s0.3-0.1,0.4-0.1c0.2,0,0.3,0.1,0.3,0.4
			c0,0.2-0.2,0.5-0.5,0.7c-0.3,0.3-0.7,0.4-1.1,0.4C-2406.1,2467.3-2406.5,2467-2406.7,2466.6L-2406.7,2466.6z"/>
		<path class="st7" d="M-2397.1,2465.2c0,0.5-0.4,1-1.2,1.7s-1.7,1-2.7,1c-0.8,0-1.4-0.2-1.8-0.7c-0.4-0.5-0.7-1.2-0.7-2
			c0-1.3,0.5-2.5,1.4-3.6s1.9-1.7,2.9-1.7c0.5,0,0.9,0.2,1.2,0.5s0.5,0.7,0.5,1.2c0,0.8-0.4,1.5-1.1,2.3c-0.8,0.7-1.7,1.2-2.9,1.5
			c-0.1,0-0.2,0.1-0.2,0.2c0,0.2,0.1,0.4,0.3,0.6c0.2,0.2,0.5,0.3,0.8,0.3c0.9,0,1.8-0.5,2.7-1.4c0.2-0.2,0.3-0.3,0.5-0.3
			C-2397.2,2464.8-2397.1,2464.9-2397.1,2465.2z M-2401.6,2464c0.7-0.1,1.4-0.5,1.9-0.9c0.5-0.5,0.8-0.9,0.8-1.3
			c0-0.2,0-0.3-0.1-0.4c-0.1-0.1-0.2-0.2-0.3-0.2c-0.4,0-0.8,0.3-1.3,0.9C-2401.2,2462.7-2401.5,2463.4-2401.6,2464z"/>
		<path class="st7" d="M-2394.2,2464.2l0.1-0.2c0.6-1.1,1.1-2,1.8-2.7c0.6-0.7,1.3-1,1.9-1c0.5,0,0.8,0.1,1.1,0.4s0.4,0.6,0.4,0.9
			c0,0.2-0.1,0.4-0.2,0.6c-0.1,0.2-0.2,0.2-0.4,0.2c-0.3,0-0.5-0.1-0.8-0.3c-0.2-0.2-0.3-0.2-0.4-0.2c-0.3,0-0.9,0.5-1.7,1.6
			s-1.3,2.3-1.4,3.6c-0.1,0.4-0.2,0.7-0.3,0.8c-0.2,0.2-0.4,0.2-0.7,0.2s-0.5-0.2-0.7-0.5c-0.1-0.4-0.2-0.9-0.2-1.8
			c0-0.3,0-0.8,0-1.3s0.1-1.2,0.2-2c0-0.2,0-0.4,0-0.5c0-0.4,0.1-0.8,0.1-0.9c0.1-0.2,0.2-0.3,0.4-0.5s0.4-0.2,0.6-0.2
			c0.2,0,0.4,0.1,0.6,0.2c0.1,0.1,0.2,0.3,0.2,0.5s-0.1,0.7-0.3,1.3c-0.1,0.2-0.1,0.5-0.2,0.8L-2394.2,2464.2z"/>
		<path class="st7" d="M-2384.1,2465.3c-1.2,1.6-2.4,2.4-3.5,2.4c-0.4,0-0.8-0.2-1.1-0.5s-0.4-0.7-0.4-1.2c0-1.2,0.5-2.5,1.6-3.9
			s2.2-2,3.3-2c0.6,0,0.9,0.3,1.1,0.8c0.5,0,0.8,0.2,0.8,0.6c0,0.2-0.1,0.5-0.2,1c-0.2,0.9-0.3,1.7-0.3,2.2c0,0.6,0,1,0.1,1.2
			s0.1,0.4,0.2,0.5c0,0.1,0.1,0.2,0.3,0.2c0.2,0.1,0.3,0.2,0.3,0.4s-0.1,0.4-0.4,0.6c-0.2,0.2-0.5,0.2-0.7,0.2
			C-2383.8,2467.9-2384.2,2467-2384.1,2465.3z M-2384.5,2461.5c-0.5,0-1.1,0.5-1.8,1.5s-1.1,1.9-1.1,2.6c0,0.4,0.1,0.6,0.2,0.6
			c0.5,0,1.2-0.5,2-1.4c0.8-1,1.2-1.8,1.2-2.5c0-0.2-0.1-0.4-0.2-0.5C-2384.3,2461.6-2384.4,2461.5-2384.5,2461.5z"/>
		<path class="st7" d="M-2378.1,2456c0.5,0,0.7,0.3,0.7,0.8c0,0.2,0,0.5-0.1,0.8s-0.3,1-0.6,2.1c-0.2,0.8-0.4,1.7-0.5,2.7
			s-0.2,1.7-0.2,2.3s0,1.3,0.1,2.1c0,0.2,0,0.3,0,0.4c0,0.3-0.1,0.5-0.3,0.7s-0.4,0.3-0.7,0.3s-0.6-0.2-0.7-0.5
			c-0.1-0.3-0.2-0.8-0.2-1.6c0-1.6,0.2-3.5,0.6-5.7s0.7-3.5,0.9-3.8S-2378.4,2456-2378.1,2456z"/>
		<path class="st7" d="M-2369.2,2467.2c-0.1,0.5-0.3,0.7-0.8,0.7c-0.6,0-0.9-0.4-0.9-1.3c0-1.4,0.1-2.6,0.2-3.6
			c0.1-0.8,0.2-1.5,0.2-2.3c0-0.2,0.1-0.3,0.2-0.4c0.1-0.1,0.3-0.2,0.5-0.2c0.7,0,1,0.4,1,1.2c0,0.3-0.1,1-0.4,2.1
			c-0.1,0.7-0.2,1.1-0.2,1.4c1.3-2.9,2.5-4.3,3.5-4.3c0.4,0,0.8,0.2,1,0.5c0.3,0.3,0.4,1.1,0.4,2.2c0,1.1,0.1,1.6,0.2,1.6
			c0.1,0,0.4-0.5,0.9-1.5c0.5-1.1,1-1.9,1.4-2.2c0.4-0.4,0.8-0.5,1.2-0.5c0.5,0,0.9,0.2,1.1,0.7c0.2,0.4,0.4,1.2,0.5,2.2
			c0.1,0.8,0.2,1.4,0.3,1.9s0.3,0.7,0.6,0.8c0.2,0.1,0.3,0.3,0.3,0.5s-0.1,0.4-0.4,0.6c-0.3,0.2-0.5,0.3-0.8,0.3
			c-0.5,0-0.8-0.2-1.1-0.7s-0.4-1.4-0.5-2.8c-0.1-0.7-0.1-1.1-0.2-1.3c-0.1-0.2-0.1-0.3-0.3-0.3c-0.1,0-0.2,0.2-0.4,0.5
			s-0.5,1-1,1.9c-0.4,0.9-0.8,1.5-1.1,1.8s-0.6,0.5-1,0.5c-0.3,0-0.5-0.1-0.8-0.3s-0.4-1.1-0.4-2.5c0-1.3-0.1-1.9-0.2-1.9
			c-0.2,0-0.7,0.6-1.4,1.7C-2368.3,2465.3-2368.9,2466.3-2369.2,2467.2z"/>
		<path class="st7" d="M-2352.4,2465.3c-1.2,1.6-2.4,2.4-3.5,2.4c-0.4,0-0.8-0.2-1.1-0.5s-0.4-0.7-0.4-1.2c0-1.2,0.5-2.5,1.6-3.9
			s2.2-2,3.3-2c0.6,0,0.9,0.3,1.1,0.8c0.5,0,0.8,0.2,0.8,0.6c0,0.2-0.1,0.5-0.2,1c-0.2,0.9-0.3,1.7-0.3,2.2c0,0.6,0,1,0.1,1.2
			s0.1,0.4,0.2,0.5c0,0.1,0.1,0.2,0.3,0.2c0.2,0.1,0.3,0.2,0.3,0.4s-0.1,0.4-0.4,0.6c-0.2,0.2-0.5,0.2-0.7,0.2
			C-2352.1,2467.9-2352.5,2467-2352.4,2465.3z M-2352.8,2461.5c-0.5,0-1.1,0.5-1.8,1.5s-1.1,1.9-1.1,2.6c0,0.4,0.1,0.6,0.2,0.6
			c0.5,0,1.2-0.5,2-1.4c0.8-1,1.2-1.8,1.2-2.5c0-0.2-0.1-0.4-0.2-0.5C-2352.5,2461.6-2352.7,2461.5-2352.8,2461.5z"/>
		<path class="st7" d="M-2343.1,2466.6c-0.2-0.4-0.4-1.2-0.5-2.3c-0.1-1.2-0.3-1.8-0.7-1.8c-0.3,0-0.9,0.6-1.7,1.8s-1.3,2.1-1.5,2.7
			c0,0.2-0.1,0.3-0.2,0.4c-0.1,0.1-0.2,0.2-0.3,0.2c-0.7,0-1-0.3-1-1c0-0.2,0.1-0.7,0.2-1.5c0.2-1,0.3-2.2,0.3-3.6
			c0-0.2,0.1-0.4,0.3-0.7c0.2-0.2,0.4-0.4,0.6-0.4c0.3,0,0.5,0.1,0.6,0.2c0.1,0.1,0.2,0.5,0.2,1.1c0,0.4-0.1,1.3-0.4,2.5
			c1-2.3,2.1-3.5,3.3-3.5c1.1,0,1.7,0.8,1.9,2.5s0.4,2.5,0.6,2.5c0.1,0,0.2,0,0.4-0.1s0.3-0.1,0.4-0.1c0.2,0,0.3,0.1,0.3,0.4
			c0,0.2-0.2,0.5-0.5,0.7c-0.3,0.3-0.7,0.4-1.1,0.4C-2342.5,2467.3-2342.9,2467-2343.1,2466.6L-2343.1,2466.6z"/>
		<path class="st7" d="M-2334.9,2465.3c-1.2,1.6-2.4,2.4-3.5,2.4c-0.4,0-0.8-0.2-1.1-0.5s-0.4-0.7-0.4-1.2c0-1.2,0.5-2.5,1.6-3.9
			s2.2-2,3.3-2c0.6,0,0.9,0.3,1.1,0.8c0.5,0,0.8,0.2,0.8,0.6c0,0.2-0.1,0.5-0.2,1c-0.2,0.9-0.3,1.7-0.3,2.2c0,0.6,0,1,0.1,1.2
			s0.1,0.4,0.2,0.5c0,0.1,0.1,0.2,0.3,0.2c0.2,0.1,0.3,0.2,0.3,0.4s-0.1,0.4-0.4,0.6c-0.2,0.2-0.5,0.2-0.7,0.2
			C-2334.6,2467.9-2335,2467-2334.9,2465.3z M-2335.3,2461.5c-0.5,0-1.1,0.5-1.8,1.5s-1.1,1.9-1.1,2.6c0,0.4,0.1,0.6,0.2,0.6
			c0.5,0,1.2-0.5,2-1.4c0.8-1,1.2-1.8,1.2-2.5c0-0.2-0.1-0.4-0.2-0.5C-2335.1,2461.6-2335.2,2461.5-2335.3,2461.5z"/>
		<path class="st7" d="M-2326.7,2465.5c-0.5,0.6-1.1,1-1.8,1.4s-1.3,0.6-1.7,0.6c-0.5,0-0.9-0.1-1.1-0.4s-0.4-0.7-0.4-1.2
			c0-0.7,0.3-1.5,0.8-2.4s1.3-1.6,2.2-2.3c1-0.6,1.8-1,2.6-1c0.4,0,0.8,0.1,1.1,0.3c0.1,0.1,0.1,0.1,0.2,0.1
			c0.1,0.1,0.2,0.2,0.3,0.4s0.1,0.4,0.1,0.5s-0.1,0.4-0.3,0.8c-0.2,0.5-0.3,1-0.4,1.4c-0.1,0.5-0.2,1.6-0.4,3.4
			c-0.2,1.6-0.6,2.8-1.3,3.5s-1.5,1.1-2.3,1.1c-0.9,0-1.8-0.3-2.6-0.9c-0.8-0.6-1.3-1.1-1.3-1.5c0-0.3,0.2-0.5,0.5-0.5
			c0.1,0,0.4,0.1,0.8,0.4c1,0.7,1.9,1,2.7,1c0.6,0,1-0.4,1.4-1.1C-2327.3,2468.7-2327,2467.4-2326.7,2465.5z M-2326.6,2461.7
			c-0.3,0-0.8,0.2-1.3,0.6c-0.5,0.4-1.1,0.9-1.5,1.6s-0.7,1.3-0.7,1.7c0,0.2,0.1,0.4,0.3,0.4c0.6,0,1.2-0.2,1.8-0.7s1-1,1.4-1.6
			s0.5-1.1,0.5-1.4c0-0.2,0-0.3-0.1-0.4S-2326.5,2461.7-2326.6,2461.7z"/>
		<path class="st7" d="M-2317.3,2465.2c0,0.5-0.4,1-1.2,1.7s-1.7,1-2.7,1c-0.8,0-1.4-0.2-1.8-0.7c-0.4-0.5-0.7-1.2-0.7-2
			c0-1.3,0.5-2.5,1.4-3.6s1.9-1.7,2.9-1.7c0.5,0,0.9,0.2,1.2,0.5s0.5,0.7,0.5,1.2c0,0.8-0.4,1.5-1.1,2.3c-0.8,0.7-1.7,1.2-2.9,1.5
			c-0.1,0-0.2,0.1-0.2,0.2c0,0.2,0.1,0.4,0.3,0.6c0.2,0.2,0.5,0.3,0.8,0.3c0.9,0,1.8-0.5,2.7-1.4c0.2-0.2,0.3-0.3,0.5-0.3
			S-2317.3,2464.9-2317.3,2465.2z M-2321.9,2464c0.7-0.1,1.4-0.5,1.9-0.9c0.5-0.5,0.8-0.9,0.8-1.3c0-0.2,0-0.3-0.1-0.4
			c-0.1-0.1-0.2-0.2-0.3-0.2c-0.4,0-0.8,0.3-1.3,0.9C-2321.4,2462.7-2321.7,2463.4-2321.9,2464z"/>
		<path class="st7" d="M-2314.4,2464.2l0.1-0.2c0.6-1.1,1.1-2,1.8-2.7c0.6-0.7,1.3-1,1.9-1c0.5,0,0.8,0.1,1.1,0.4s0.4,0.6,0.4,0.9
			c0,0.2-0.1,0.4-0.2,0.6c-0.1,0.2-0.2,0.2-0.4,0.2c-0.3,0-0.5-0.1-0.8-0.3c-0.2-0.2-0.3-0.2-0.4-0.2c-0.3,0-0.9,0.5-1.7,1.6
			s-1.3,2.3-1.4,3.6c-0.1,0.4-0.2,0.7-0.3,0.8c-0.2,0.2-0.4,0.2-0.7,0.2s-0.5-0.2-0.7-0.5c-0.1-0.4-0.2-0.9-0.2-1.8
			c0-0.3,0-0.8,0-1.3s0.1-1.2,0.2-2c0-0.2,0-0.4,0-0.5c0-0.4,0.1-0.8,0.1-0.9c0.1-0.2,0.2-0.3,0.4-0.5s0.4-0.2,0.6-0.2
			c0.2,0,0.4,0.1,0.6,0.2c0.1,0.1,0.2,0.3,0.2,0.5s-0.1,0.7-0.3,1.3c-0.1,0.2-0.1,0.5-0.2,0.8L-2314.4,2464.2z"/>
	</g>
	<path id="Path_11391" class="st11" d="M-2305,2336.2c1.6,0,2.9,1.3,3,2.9c0,1.6-1.3,2.9-2.9,3s-2.9-1.3-3-2.9l0,0
		C-2307.9,2337.5-2306.6,2336.2-2305,2336.2L-2305,2336.2z"/>
	<path id="Path_11392" class="st7" d="M-2305,2335.8c1.8,0,3.3,1.5,3.4,3.3c0,1.8-1.5,3.3-3.3,3.4c-1.8,0-3.3-1.5-3.4-3.3l0,0
		C-2308.3,2337.3-2306.9,2335.8-2305,2335.8L-2305,2335.8z M-2305,2336.7c-1.4,0-2.4,1.1-2.4,2.5c0,1.3,1.1,2.4,2.4,2.4
		c1.3,0,2.4-1,2.4-2.4v-0.1C-2302.5,2337.8-2303.6,2336.7-2305,2336.7z"/>
	<ellipse id="Ellipse_161" class="st12" cx="-2304.7" cy="2339.9" rx="1" ry="1"/>
	<g id="Group" transform="translate(-2045.152 1972.613)">
		<g class="st10">
			<path class="st4" d="M-389.1,266.7c-0.2,0.2-0.5,0.7-0.9,1.5c-1.9,3.3-2.9,5-3.1,5c-0.3,0-0.6-0.2-0.8-0.6
				c-0.2-0.4-0.5-1.4-0.8-3.1c-0.4-1.7-0.7-3.3-0.9-4.8c-0.1-0.4-0.2-0.8-0.3-1.1c-0.1-0.4-0.2-0.6-0.2-0.8c0-0.2,0.1-0.4,0.2-0.5
				c0.1-0.2,0.3-0.2,0.5-0.2c0.2,0,0.4,0.2,0.6,0.5c0.2,0.3,0.3,1.1,0.5,2.4c0.4,2.8,0.8,4.8,1.3,6.3c1.2-1.9,2-3.2,2.3-3.7
				c0.3-0.5,0.7-1.4,1.3-2.6c0.1-0.3,0.3-0.4,0.6-0.4c0.1,0,0.2,0.1,0.4,0.3c0.1,0.2,0.4,0.8,0.7,1.8c0.8,2.4,1.4,3.8,1.7,4.3
				c1.7-2.8,2.7-5.8,3-8.8c0-0.1,0.1-0.2,0.2-0.3c0.1-0.1,0.3-0.2,0.4-0.2c0.4,0,0.6,0.2,0.6,0.7c0,0.5-0.1,1.3-0.4,2.3
				c-0.3,1-0.6,2-0.9,2.9c-0.4,0.9-1,2.2-1.8,4c-0.1,0.3-0.3,0.5-0.4,0.8c0,0.1-0.1,0.2-0.3,0.2c-0.1,0.1-0.3,0.1-0.3,0.1
				c-0.2,0-0.4-0.1-0.6-0.3s-0.5-0.9-1-2c-0.4-1.1-0.8-2-1-2.5C-388.8,267.4-389,267-389.1,266.7z"/>
			<path class="st4" d="M-375,270c0,0.5-0.4,1.1-1.3,1.8c-0.9,0.7-1.8,1.1-2.7,1.1c-0.8,0-1.4-0.2-1.8-0.7s-0.6-1.1-0.6-1.9
				c0-1.4,0.5-2.7,1.4-4s2-1.9,3.1-1.9c0.4,0,0.7,0.1,0.9,0.4s0.3,0.5,0.3,0.9c0,0.8-0.4,1.5-1.1,2.2c-0.7,0.7-1.7,1.4-3,2
				c-0.3,0.1-0.4,0.3-0.4,0.5c0,0.4,0.1,0.7,0.4,1c0.2,0.2,0.6,0.4,1,0.4c1,0,2.1-0.6,3.2-1.7c0.2-0.2,0.3-0.2,0.4-0.2
				C-375,269.6-375,269.7-375,270z M-380,268.8c2.1-1.2,3.1-2.2,3.1-3c0-0.3-0.1-0.4-0.4-0.4c-0.4,0-1,0.3-1.5,1
				C-379.4,267.1-379.8,267.9-380,268.8z"/>
			<path class="st4" d="M-365.4,272.9c-0.7,0-1.3-0.2-1.7-0.6c-0.4-0.4-0.6-1-0.6-1.8c0-1.3,0.5-2.6,1.5-4c1-1.4,2-2.1,2.8-2.1
				c0.4,0,0.7,0.2,1,0.6c0.3,0.4,0.4,0.9,0.4,1.4c0,0.3-0.1,0.5-0.2,0.7c-0.1,0.2-0.3,0.3-0.4,0.3c-0.3,0-0.5-0.3-0.6-0.9
				c-0.1-0.6-0.3-0.9-0.6-0.9c-0.5,0-1.1,0.6-1.8,1.8c-0.7,1.2-1,2.2-1,3.1s0.5,1.2,1.4,1.2c0.7,0,1.6-0.3,2.5-1
				c0.3-0.2,0.6-0.4,0.8-0.4c0.2,0,0.2,0.1,0.2,0.3c0,0.4-0.4,0.8-1.3,1.4C-363.7,272.6-364.6,272.9-365.4,272.9z"/>
			<path class="st4" d="M-357.7,272.8c-0.7,0-1.2-0.3-1.7-0.8s-0.7-1.1-0.7-1.9c0-1.3,0.4-2.5,1.3-3.7c0.8-1.2,1.9-1.8,3-1.8
				c0.8,0,1.4,0.3,1.9,0.9c0.5,0.6,0.7,1.3,0.7,2.1c0,1.3-0.5,2.4-1.5,3.5C-355.6,272.3-356.6,272.8-357.7,272.8z M-358.7,270
				c0,0.5,0.1,0.9,0.3,1.2c0.2,0.3,0.5,0.5,0.8,0.5c0.7,0,1.5-0.4,2.2-1.2c0.7-0.8,1.1-1.7,1.1-2.7c0-0.6-0.1-1.1-0.4-1.5
				c-0.3-0.4-0.7-0.6-1.1-0.6c-0.8,0-1.5,0.5-2,1.4C-358.4,268.2-358.7,269.1-358.7,270z"/>
			<path class="st4" d="M-346.2,269.3c-0.6,1-1.3,1.9-1.9,2.4s-1.3,0.9-1.8,0.9c-0.3,0-0.7-0.2-1-0.6c-0.3-0.4-0.5-1-0.5-1.7
				c0-0.6,0.2-1.6,0.5-2.8c0.3-1,0.4-1.8,0.4-2.2c0.1-0.3,0.4-0.4,0.7-0.4c0.2,0,0.4,0.1,0.5,0.2c0.1,0.1,0.2,0.3,0.2,0.5
				c0,0.3-0.1,0.8-0.4,1.5c-0.5,1.2-0.7,2.3-0.7,3.2c0,0.8,0.2,1.2,0.6,1.2c0.5,0,1.1-0.4,1.8-1.2c0.7-0.8,1.4-1.9,1.9-3.4
				c0.2-0.6,0.4-1,0.5-1.1c0.1-0.2,0.3-0.3,0.5-0.3c0.3,0,0.5,0.2,0.5,0.7c0,0.1,0,0.2-0.1,0.5c-0.3,1.1-0.4,2.1-0.4,3
				c0,1.1,0.2,1.9,0.6,2.2c0.2,0.2,0.3,0.3,0.3,0.4c0,0.1-0.1,0.3-0.3,0.4c-0.2,0.1-0.4,0.2-0.5,0.2c-0.3,0-0.6-0.3-0.8-0.8
				s-0.3-1.3-0.3-2.2v-0.2C-346.2,269.4-346.2,269.4-346.2,269.3z"/>
			<path class="st4" d="M-339.6,260.1c0.4,0,0.5,0.2,0.5,0.7c0,0.4-0.2,1.4-0.6,2.9c-0.3,0.9-0.5,2-0.6,3.1s-0.2,2-0.2,2.7
				c0,0.8,0.1,1.6,0.2,2.4c0,0.2,0,0.3,0,0.3c0,0.2-0.1,0.5-0.2,0.6s-0.3,0.3-0.5,0.3c-0.3,0-0.4-0.2-0.5-0.5
				c-0.1-0.3-0.2-0.8-0.2-1.6c0-1.6,0.2-3.7,0.6-6.1c0.4-2.4,0.7-3.8,0.9-4.2C-340.1,260.3-339.9,260.1-339.6,260.1z"/>
			<path class="st4" d="M-332.7,269.4c-0.7,1-1.3,1.9-2.1,2.4c-0.7,0.6-1.4,0.9-2,0.9c-0.5,0-0.8-0.2-1.1-0.5
				c-0.3-0.4-0.4-0.8-0.4-1.5c0-1.2,0.5-2.5,1.5-3.8c1-1.3,2.1-1.9,3.2-1.9c0.5,0,1,0.2,1.4,0.7l1-4.8c0.1-0.3,0.2-0.5,0.4-0.7
				c0.2-0.1,0.4-0.2,0.5-0.2c0.3,0,0.5,0.3,0.5,0.9c0,0.1-0.1,0.5-0.3,1.2c-0.4,1.1-0.7,2.4-1,4c-0.3,1.6-0.5,2.8-0.5,3.8
				c0,1,0.2,1.5,0.6,1.5c0.3,0,0.6-0.1,0.8-0.3c0.1-0.1,0.2-0.1,0.3-0.1c0.2,0,0.2,0.1,0.2,0.3c0,0.2-0.2,0.5-0.7,0.9
				s-0.9,0.5-1.3,0.5c-0.8,0-1.2-0.8-1.2-2.3C-332.7,270-332.7,269.7-332.7,269.4z M-333.6,266c-0.8,0-1.6,0.5-2.4,1.6
				c-0.8,1.1-1.2,2.1-1.2,3c0,0.6,0.2,0.9,0.6,0.9c0.4,0,0.8-0.2,1.4-0.6s1.1-1,1.7-1.9c0.6-0.9,0.9-1.5,0.9-2
				c0-0.2-0.1-0.4-0.3-0.7C-333.1,266.1-333.3,266-333.6,266z"/>
			<path class="st4" d="M-316.7,269.4c-0.7,1-1.3,1.9-2.1,2.4c-0.7,0.6-1.4,0.9-2,0.9c-0.5,0-0.8-0.2-1.1-0.5
				c-0.3-0.4-0.4-0.8-0.4-1.5c0-1.2,0.5-2.5,1.5-3.8c1-1.3,2.1-1.9,3.2-1.9c0.5,0,1,0.2,1.4,0.7l1-4.8c0.1-0.3,0.2-0.5,0.4-0.7
				c0.2-0.1,0.4-0.2,0.5-0.2c0.3,0,0.5,0.3,0.5,0.9c0,0.1-0.1,0.5-0.3,1.2c-0.4,1.1-0.7,2.4-1,4c-0.3,1.6-0.5,2.8-0.5,3.8
				c0,1,0.2,1.5,0.6,1.5c0.3,0,0.6-0.1,0.8-0.3c0.1-0.1,0.2-0.1,0.3-0.1c0.2,0,0.2,0.1,0.2,0.3c0,0.2-0.2,0.5-0.7,0.9
				s-0.9,0.5-1.3,0.5c-0.8,0-1.2-0.8-1.2-2.3C-316.8,270-316.8,269.7-316.7,269.4z M-317.7,266c-0.8,0-1.6,0.5-2.4,1.6
				c-0.8,1.1-1.2,2.1-1.2,3c0,0.6,0.2,0.9,0.6,0.9c0.4,0,0.8-0.2,1.4-0.6s1.1-1,1.7-1.9c0.6-0.9,0.9-1.5,0.9-2
				c0-0.2-0.1-0.4-0.3-0.7C-317.2,266.1-317.4,266-317.7,266z"/>
			<path class="st4" d="M-309.9,272.8c-0.7,0-1.2-0.3-1.7-0.8s-0.7-1.1-0.7-1.9c0-1.3,0.4-2.5,1.3-3.7c0.8-1.2,1.9-1.8,3-1.8
				c0.8,0,1.4,0.3,1.9,0.9c0.5,0.6,0.7,1.3,0.7,2.1c0,1.3-0.5,2.4-1.5,3.5C-307.8,272.3-308.8,272.8-309.9,272.8z M-311,270
				c0,0.5,0.1,0.9,0.3,1.2c0.2,0.3,0.5,0.5,0.8,0.5c0.7,0,1.5-0.4,2.2-1.2c0.7-0.8,1.1-1.7,1.1-2.7c0-0.6-0.1-1.1-0.4-1.5
				c-0.3-0.4-0.7-0.6-1.1-0.6c-0.8,0-1.5,0.5-2,1.4C-310.7,268.2-311,269.1-311,270z"/>
			<path class="st4" d="M-296.3,268.3c0.6-1.1,1.4-2.1,2.2-2.8c0.9-0.7,1.7-1.1,2.4-1.1c0.4,0,0.7,0.2,1,0.5s0.4,0.8,0.4,1.3
				c0,1.5-0.6,2.9-1.7,4.3c-1.1,1.3-2.4,2-3.6,2c-0.3,0-0.7-0.1-1-0.3c-0.3-0.2-0.5-0.4-0.5-0.7c0-0.2-0.1-0.4-0.2-0.5
				c-0.2-0.2-0.3-0.4-0.3-0.7c0-0.4,0.1-1.4,0.4-2.8l0.8-4.4c0.3-1.5,0.4-2.4,0.6-2.7s0.3-0.6,0.4-0.7s0.3-0.2,0.5-0.2
				c0.3,0,0.5,0.3,0.5,0.9c0,0.6-0.2,1.3-0.6,2.4C-295.4,263.8-295.8,265.6-296.3,268.3z M-296.4,270.7c0.3,0.5,0.6,0.7,0.9,0.7
				c0.6,0,1.1-0.2,1.8-0.7c0.6-0.5,1.2-1.1,1.6-1.9c0.5-0.8,0.7-1.5,0.7-2.1c0-0.3,0-0.5-0.1-0.7s-0.2-0.3-0.4-0.3
				c-0.7,0-1.5,0.6-2.5,1.7C-295.4,268.5-296.1,269.6-296.4,270.7z"/>
			<path class="st4" d="M-282.6,270c0,0.5-0.4,1.1-1.3,1.8c-0.9,0.7-1.8,1.1-2.7,1.1c-0.8,0-1.4-0.2-1.8-0.7s-0.6-1.1-0.6-1.9
				c0-1.4,0.5-2.7,1.4-4s2-1.9,3.1-1.9c0.4,0,0.7,0.1,0.9,0.4s0.3,0.5,0.3,0.9c0,0.8-0.4,1.5-1.1,2.2c-0.7,0.7-1.7,1.4-3,2
				c-0.3,0.1-0.4,0.3-0.4,0.5c0,0.4,0.1,0.7,0.4,1c0.2,0.2,0.6,0.4,1,0.4c1,0,2.1-0.6,3.2-1.7c0.2-0.2,0.3-0.2,0.4-0.2
				C-282.7,269.6-282.6,269.7-282.6,270z M-287.7,268.8c2.1-1.2,3.1-2.2,3.1-3c0-0.3-0.1-0.4-0.4-0.4c-0.4,0-1,0.3-1.5,1
				C-287.1,267.1-287.5,267.9-287.7,268.8z"/>
			<path class="st4" d="M-278.1,265.1c0.5,0,1-0.1,1.4-0.1c0.4,0,0.8-0.1,1.1-0.1c0.4,0,0.6,0,0.7,0.1s0.1,0.2,0.1,0.4
				c0,0.4-0.3,0.6-0.8,0.6c-0.7,0-1.4,0.1-2,0.2s-0.9,0.1-1,0.2c0,0.1-0.2,0.6-0.4,1.7c-0.2,1.1-0.4,1.8-0.4,2.2
				c0,0.5,0.1,0.9,0.2,1.1c0.1,0.2,0.4,0.3,0.6,0.3c0.4,0,1-0.3,1.8-0.9c0.3-0.3,0.5-0.4,0.7-0.4c0.2,0,0.3,0.1,0.3,0.3
				c0,0.4-0.3,0.8-1,1.4c-0.7,0.6-1.4,0.8-2.1,0.8c-1.2,0-1.8-0.7-1.8-2.1c0-0.5,0.1-1.3,0.4-2.3c0.2-1,0.4-1.7,0.4-1.9
				c0-0.1-0.1-0.1-0.2-0.1l-0.8,0.1c-0.6,0-0.9-0.2-0.9-0.7c0-0.3,0.1-0.4,0.4-0.4h1.5c0.1,0,0.2,0,0.3-0.1c0.1-0.1,0.2-0.4,0.3-0.9
				c0.2-0.5,0.3-1.1,0.4-1.6c0.1-0.5,0.3-0.8,0.7-0.8c0.2,0,0.4,0.1,0.5,0.2s0.2,0.3,0.2,0.4c0,0.1-0.1,0.4-0.3,1L-278.1,265.1z"/>
			<path class="st4" d="M-271,265.1c0.5,0,1-0.1,1.4-0.1c0.4,0,0.8-0.1,1.1-0.1c0.4,0,0.6,0,0.7,0.1s0.1,0.2,0.1,0.4
				c0,0.4-0.3,0.6-0.8,0.6c-0.7,0-1.4,0.1-2,0.2s-0.9,0.1-1,0.2c0,0.1-0.2,0.6-0.4,1.7c-0.2,1.1-0.4,1.8-0.4,2.2
				c0,0.5,0.1,0.9,0.2,1.1c0.1,0.2,0.4,0.3,0.6,0.3c0.4,0,1-0.3,1.8-0.9c0.3-0.3,0.5-0.4,0.7-0.4c0.2,0,0.3,0.1,0.3,0.3
				c0,0.4-0.3,0.8-1,1.4c-0.7,0.6-1.4,0.8-2.1,0.8c-1.2,0-1.8-0.7-1.8-2.1c0-0.5,0.1-1.3,0.4-2.3c0.2-1,0.4-1.7,0.4-1.9
				c0-0.1-0.1-0.1-0.2-0.1l-0.8,0.1c-0.6,0-0.9-0.2-0.9-0.7c0-0.3,0.1-0.4,0.4-0.4h1.5c0.1,0,0.2,0,0.3-0.1c0.1-0.1,0.2-0.4,0.3-0.9
				c0.2-0.5,0.3-1.1,0.4-1.6c0.1-0.5,0.3-0.8,0.7-0.8c0.2,0,0.4,0.1,0.5,0.2s0.2,0.3,0.2,0.4c0,0.1-0.1,0.4-0.3,1L-271,265.1z"/>
			<path class="st4" d="M-260.7,270c0,0.5-0.4,1.1-1.3,1.8c-0.9,0.7-1.8,1.1-2.7,1.1c-0.8,0-1.4-0.2-1.8-0.7s-0.6-1.1-0.6-1.9
				c0-1.4,0.5-2.7,1.4-4s2-1.9,3.1-1.9c0.4,0,0.7,0.1,0.9,0.4s0.3,0.5,0.3,0.9c0,0.8-0.4,1.5-1.1,2.2c-0.7,0.7-1.7,1.4-3,2
				c-0.3,0.1-0.4,0.3-0.4,0.5c0,0.4,0.1,0.7,0.4,1c0.2,0.2,0.6,0.4,1,0.4c1,0,2.1-0.6,3.2-1.7c0.2-0.2,0.3-0.2,0.4-0.2
				C-260.8,269.6-260.7,269.7-260.7,270z M-265.8,268.8c2.1-1.2,3.1-2.2,3.1-3c0-0.3-0.1-0.4-0.4-0.4c-0.4,0-1,0.3-1.5,1
				C-265.2,267.1-265.6,267.9-265.8,268.8z"/>
			<path class="st4" d="M-257.7,269.6c0-0.1,0.1-0.2,0.2-0.4c0.3-0.8,0.6-1.4,0.9-1.8c0.3-0.4,0.6-0.8,0.9-1.2
				c0.3-0.4,0.6-0.7,0.9-0.9c0.3-0.2,0.5-0.3,0.8-0.4c0.2-0.1,0.4-0.1,0.7-0.1c0.4,0,0.8,0.1,1,0.4c0.3,0.3,0.4,0.6,0.4,0.9
				c0,0.2,0,0.3-0.1,0.4c-0.1,0.1-0.2,0.2-0.4,0.2c-0.2,0-0.4-0.1-0.6-0.3c-0.2-0.2-0.4-0.3-0.5-0.3c-0.5,0-1.2,0.6-2.1,1.8
				s-1.4,2.6-1.6,4.1c0,0.4-0.1,0.6-0.3,0.8c-0.1,0.1-0.3,0.2-0.6,0.2c-0.2,0-0.4-0.2-0.5-0.5c-0.1-0.4-0.2-1-0.2-1.8
				c0-0.2,0-0.7,0-1.5c0-0.9,0.1-1.7,0.2-2.2c0-0.1,0-0.3,0.1-0.7c0-0.4,0.1-0.6,0.1-0.8c0.1-0.1,0.2-0.3,0.3-0.4
				c0.2-0.1,0.3-0.2,0.5-0.2c0.2,0,0.3,0.1,0.4,0.2c0.1,0.1,0.1,0.2,0.1,0.4c0,0.2,0,0.5-0.1,0.8c-0.1,0.4-0.2,0.7-0.2,0.8
				c0,0.2,0,0.3-0.1,0.5c0,0.2-0.1,0.8-0.1,1.7l0,0.3V269.6z"/>
		</g>
		<g class="st10">
			<path class="st4" d="M-419.4,289.6c0,0.4,0.1,0.8,0.2,1.3c0,0.1,0,0.2,0,0.2c0,0.1-0.1,0.2-0.2,0.3c-0.2,0.1-0.3,0.2-0.5,0.2
				c-0.5,0-0.7-0.4-0.7-1.3s0.2-2.3,0.6-4.3c0.1-0.7,0.2-1.1,0.2-1.3c0-0.3,0.1-0.6,0.2-0.8c0.1-0.2,0.3-0.3,0.5-0.3
				s0.4,0.1,0.6,0.2c0.1,0.1,0.2,0.3,0.2,0.4s0,0.3-0.1,0.6c-0.4,1.3-0.6,2.2-0.7,2.8S-419.4,288.8-419.4,289.6z M-418.5,281.4
				c-0.1,0-0.2-0.1-0.2-0.3c0-0.1,0-0.1-0.1-0.2c-0.1-0.3-0.2-0.6-0.2-0.8c0-0.2,0.1-0.4,0.3-0.6c0.2-0.2,0.5-0.3,0.8-0.3
				c0.1,0,0.3,0.1,0.5,0.2s0.3,0.2,0.3,0.3c0,0.2-0.1,0.4-0.2,0.8s-0.3,0.6-0.6,0.8C-418.1,281.3-418.3,281.4-418.5,281.4z"/>
			<path class="st4" d="M-415,291.5c0,0.1-0.1,0.2-0.3,0.3s-0.3,0.1-0.5,0.1c-0.5,0-0.7-0.4-0.7-1.1c0-0.3,0.1-1.3,0.3-2.9
				c0.1-1,0.2-1.7,0.2-2.3c0-0.1-0.1-0.2-0.3-0.3c-0.2-0.1-0.3-0.3-0.3-0.4c0-0.2,0.2-0.4,0.5-0.7c0.2-0.2,0.4-0.4,0.5-0.6
				s0.1-0.6,0.2-1c0.2-1.5,0.6-2.6,1.2-3.3c0.5-0.7,1.2-1,2-1c0.4,0,0.8,0.1,1.1,0.4c0.3,0.3,0.5,0.7,0.5,1.1s-0.1,0.8-0.3,1.2
				c-0.2,0.5-0.4,0.7-0.6,0.7s-0.2-0.1-0.2-0.2l0.1-0.7c0-0.9-0.3-1.4-0.8-1.4c-0.6,0-1,0.6-1.4,1.7s-0.6,2-0.6,2.7
				c0,0.2,0.1,0.3,0.4,0.3c1.3,0,2,0,2.3,0c0.2,0,0.3,0.1,0.3,0.3c0,0.2-0.1,0.4-0.4,0.5c-0.2,0.1-0.8,0.2-1.6,0.3
				c-0.7,0.1-1.1,0.1-1.2,0.2c-0.3,1.8-0.5,3.4-0.5,4.9c0,0.4,0,0.7,0.1,0.9C-415,291.4-415,291.5-415,291.5z"/>
			<path class="st4" d="M-401.2,289.5c0-0.3-0.4-0.7-1.2-1.1c-1-0.5-1.7-0.9-2-1.2c-0.3-0.3-0.5-0.6-0.5-1c0-1,0.5-1.8,1.5-2.4
				s1.8-1,2.4-1c0.4,0,0.7,0.1,0.9,0.2c0.2,0.1,0.3,0.4,0.3,0.7c0,0.2-0.1,0.3-0.2,0.4s-0.2,0.2-0.3,0.2c-0.1,0-0.2,0-0.3-0.1
				c-0.2-0.1-0.3-0.1-0.3-0.1c-0.2,0-0.7,0.2-1.5,0.5s-1.1,0.8-1.1,1.2c0,0.3,0.1,0.5,0.4,0.7s0.7,0.5,1.4,0.8
				c0.6,0.3,1,0.5,1.3,0.8s0.5,0.7,0.5,1.1c0,0.7-0.5,1.3-1.5,1.8c-1,0.4-2,0.6-3,0.6c-0.8,0-1.2-0.3-1.2-0.8c0-0.2,0.1-0.3,0.3-0.4
				c0.2-0.1,0.4-0.1,0.5-0.1s0.2,0,0.4,0.1c0.2,0,0.3,0.1,0.4,0.1c0.5,0,1.1-0.1,1.7-0.3C-401.7,290-401.4,289.8-401.2,289.5z"/>
			<path class="st4" d="M-393.6,288.5c-0.7,0.9-1.4,1.6-2,2.1s-1.3,0.7-1.8,0.7c-0.4,0-0.7-0.2-1-0.5s-0.4-0.7-0.4-1.2
				c0-1.3,0.6-2.7,1.7-4.1c1.1-1.5,2.3-2.2,3.4-2.2c0.4,0,0.7,0.2,0.9,0.7c0.1,0.2,0.2,0.2,0.3,0.2c0.4,0,0.6,0.2,0.6,0.5
				c0,0.2,0,0.4-0.1,0.6c-0.3,1.4-0.4,2.5-0.4,3c0,1.2,0.2,1.9,0.7,2.1c0.2,0.1,0.3,0.3,0.3,0.4c0,0.2-0.1,0.3-0.3,0.5
				c-0.2,0.2-0.4,0.2-0.6,0.2c-0.4,0-0.7-0.3-0.9-0.8S-393.6,289.5-393.6,288.5z M-394,284.4c-0.6,0-1.4,0.6-2.2,1.8
				c-0.9,1.2-1.3,2.2-1.3,3c0,0.6,0.2,0.8,0.6,0.8c0.5,0,1.3-0.5,2.2-1.6s1.4-2.1,1.4-3C-393.4,284.7-393.6,284.4-394,284.4z"/>
			<path class="st4" d="M-387.2,278.8c0.4,0,0.5,0.2,0.5,0.7c0,0.4-0.2,1.4-0.6,2.9c-0.3,0.9-0.5,2-0.6,3.1s-0.2,2-0.2,2.7
				c0,0.8,0.1,1.6,0.2,2.4c0,0.2,0,0.3,0,0.3c0,0.2-0.1,0.5-0.2,0.6s-0.3,0.3-0.5,0.3c-0.3,0-0.4-0.2-0.5-0.5s-0.2-0.8-0.2-1.6
				c0-1.6,0.2-3.7,0.6-6.1s0.7-3.8,0.9-4.2C-387.6,279-387.4,278.8-387.2,278.8z"/>
			<path class="st4" d="M-379.2,288.7c0,0.5-0.4,1.1-1.3,1.8c-0.9,0.7-1.8,1.1-2.7,1.1c-0.8,0-1.4-0.2-1.8-0.7s-0.6-1.1-0.6-1.9
				c0-1.4,0.5-2.7,1.4-4s2-1.9,3.1-1.9c0.4,0,0.7,0.1,0.9,0.4c0.2,0.2,0.3,0.5,0.3,0.9c0,0.8-0.4,1.5-1.1,2.2s-1.7,1.4-3,2
				c-0.3,0.1-0.4,0.3-0.4,0.5c0,0.4,0.1,0.7,0.4,1c0.2,0.2,0.6,0.4,1,0.4c1,0,2.1-0.6,3.2-1.7c0.2-0.2,0.3-0.2,0.4-0.2
				C-379.3,288.3-379.2,288.5-379.2,288.7z M-384.3,287.6c2.1-1.2,3.1-2.2,3.1-3c0-0.3-0.1-0.4-0.4-0.4c-0.4,0-1,0.3-1.5,1
				C-383.6,285.8-384,286.6-384.3,287.6z"/>
			<path class="st4" d="M-374,289.5c0-0.3-0.4-0.7-1.2-1.1c-1-0.5-1.7-0.9-2-1.2c-0.3-0.3-0.5-0.6-0.5-1c0-1,0.5-1.8,1.5-2.4
				s1.8-1,2.4-1c0.4,0,0.7,0.1,0.9,0.2c0.2,0.1,0.3,0.4,0.3,0.7c0,0.2-0.1,0.3-0.2,0.4s-0.2,0.2-0.3,0.2c-0.1,0-0.2,0-0.3-0.1
				c-0.2-0.1-0.3-0.1-0.3-0.1c-0.2,0-0.7,0.2-1.5,0.5s-1.1,0.8-1.1,1.2c0,0.3,0.1,0.5,0.4,0.7s0.7,0.5,1.4,0.8
				c0.6,0.3,1,0.5,1.3,0.8s0.5,0.7,0.5,1.1c0,0.7-0.5,1.3-1.5,1.8c-1,0.4-2,0.6-3,0.6c-0.8,0-1.2-0.3-1.2-0.8c0-0.2,0.1-0.3,0.3-0.4
				c0.2-0.1,0.4-0.1,0.5-0.1s0.2,0,0.4,0.1c0.2,0,0.3,0.1,0.4,0.1c0.5,0,1.1-0.1,1.7-0.3C-374.5,290-374.1,289.8-374,289.5z"/>
			<path class="st4" d="M-363.9,289.6c0,0.4,0.1,0.8,0.2,1.3c0,0.1,0,0.2,0,0.2c0,0.1-0.1,0.2-0.2,0.3c-0.2,0.1-0.3,0.2-0.5,0.2
				c-0.5,0-0.7-0.4-0.7-1.3s0.2-2.3,0.6-4.3c0.1-0.7,0.2-1.1,0.2-1.3c0-0.3,0.1-0.6,0.2-0.8c0.1-0.2,0.3-0.3,0.5-0.3
				s0.4,0.1,0.6,0.2c0.1,0.1,0.2,0.3,0.2,0.4s0,0.3-0.1,0.6c-0.4,1.3-0.6,2.2-0.7,2.8S-363.9,288.8-363.9,289.6z M-362.9,281.4
				c-0.1,0-0.2-0.1-0.2-0.3c0-0.1,0-0.1-0.1-0.2c-0.1-0.3-0.2-0.6-0.2-0.8c0-0.2,0.1-0.4,0.3-0.6c0.2-0.2,0.5-0.3,0.8-0.3
				c0.1,0,0.3,0.1,0.5,0.2s0.3,0.2,0.3,0.3c0,0.2-0.1,0.4-0.2,0.8s-0.3,0.6-0.6,0.8C-362.6,281.3-362.8,281.4-362.9,281.4z"/>
			<path class="st4" d="M-356,285.6c-0.3,0-0.5,0.2-0.8,0.5s-0.8,1.1-1.4,2.2c-0.8,1.6-1.3,2.4-1.6,2.7c-0.2,0.2-0.4,0.3-0.6,0.3
				c-0.6,0-0.9-0.3-0.9-0.8c0-0.2,0-0.6,0.1-1c0.3-1.5,0.4-3,0.4-4.7c0-0.2,0.1-0.4,0.2-0.6c0.2-0.2,0.3-0.3,0.5-0.3
				c0.3,0,0.4,0.1,0.5,0.2s0.2,0.5,0.2,0.9c0,0.5-0.1,1.5-0.4,3c-0.1,0.5-0.1,0.8-0.1,1c0,0.1,0,0.1,0.1,0.1s0.4-0.6,1-1.8
				c0.6-1.2,1.1-2,1.6-2.5s1-0.7,1.5-0.7c0.4,0,0.8,0.2,1.1,0.6c0.3,0.4,0.5,1.1,0.6,2.2c0.1,1.2,0.3,2,0.4,2.3s0.3,0.4,0.5,0.4
				s0.3-0.1,0.6-0.2h0.1c0.2,0,0.3,0.1,0.3,0.4c0,0.2-0.1,0.4-0.4,0.7c-0.3,0.2-0.6,0.4-1,0.4s-0.7-0.2-1-0.5
				c-0.2-0.3-0.4-1.2-0.5-2.6C-355.2,286.3-355.5,285.6-356,285.6z"/>
			<path class="st4" d="M-349,291.6c-0.7,0-1.3-0.2-1.7-0.6c-0.4-0.4-0.6-1-0.6-1.8c0-1.3,0.5-2.6,1.5-4s2-2.1,2.8-2.1
				c0.4,0,0.7,0.2,1,0.6s0.4,0.9,0.4,1.4c0,0.3-0.1,0.5-0.2,0.7s-0.3,0.3-0.4,0.3c-0.3,0-0.5-0.3-0.6-0.9s-0.3-0.9-0.6-0.9
				c-0.5,0-1.1,0.6-1.8,1.8c-0.7,1.2-1,2.2-1,3.1s0.5,1.2,1.4,1.2c0.7,0,1.6-0.3,2.5-1c0.3-0.2,0.6-0.4,0.8-0.4
				c0.2,0,0.2,0.1,0.2,0.3c0,0.4-0.4,0.8-1.3,1.4C-347.3,291.3-348.2,291.6-349,291.6z"/>
			<path class="st4" d="M-341.9,288.3c0-0.1,0.1-0.2,0.2-0.4c0.3-0.8,0.6-1.4,0.9-1.8s0.6-0.8,0.9-1.2c0.3-0.4,0.6-0.7,0.9-0.9
				c0.3-0.2,0.5-0.3,0.8-0.4c0.2-0.1,0.4-0.1,0.7-0.1c0.4,0,0.8,0.1,1,0.4c0.3,0.3,0.4,0.6,0.4,0.9c0,0.2,0,0.3-0.1,0.4
				s-0.2,0.2-0.4,0.2c-0.2,0-0.4-0.1-0.6-0.3c-0.2-0.2-0.4-0.3-0.5-0.3c-0.5,0-1.2,0.6-2.1,1.8s-1.4,2.6-1.6,4.1
				c0,0.4-0.1,0.6-0.3,0.8c-0.1,0.1-0.3,0.2-0.6,0.2c-0.2,0-0.4-0.2-0.5-0.5c-0.1-0.4-0.2-1-0.2-1.8c0-0.2,0-0.7,0-1.5
				c0-0.9,0.1-1.7,0.2-2.2c0-0.1,0-0.3,0.1-0.7c0-0.4,0.1-0.6,0.1-0.8c0.1-0.1,0.2-0.3,0.3-0.4c0.2-0.1,0.3-0.2,0.5-0.2
				s0.3,0.1,0.4,0.2s0.1,0.2,0.1,0.4c0,0.2,0,0.5-0.1,0.8c-0.1,0.4-0.2,0.7-0.2,0.8c0,0.2,0,0.3-0.1,0.5c0,0.2-0.1,0.8-0.1,1.7
				L-341.9,288.3L-341.9,288.3L-341.9,288.3z"/>
			<path class="st4" d="M-329.4,288.7c0,0.5-0.4,1.1-1.3,1.8c-0.9,0.7-1.8,1.1-2.7,1.1c-0.8,0-1.4-0.2-1.8-0.7s-0.6-1.1-0.6-1.9
				c0-1.4,0.5-2.7,1.4-4s2-1.9,3.1-1.9c0.4,0,0.7,0.1,0.9,0.4c0.2,0.2,0.3,0.5,0.3,0.9c0,0.8-0.4,1.5-1.1,2.2s-1.7,1.4-3,2
				c-0.3,0.1-0.4,0.3-0.4,0.5c0,0.4,0.1,0.7,0.4,1c0.2,0.2,0.6,0.4,1,0.4c1,0,2.1-0.6,3.2-1.7c0.2-0.2,0.3-0.2,0.4-0.2
				C-329.5,288.3-329.4,288.5-329.4,288.7z M-334.5,287.6c2.1-1.2,3.1-2.2,3.1-3c0-0.3-0.1-0.4-0.4-0.4c-0.4,0-1,0.3-1.5,1
				C-333.9,285.8-334.3,286.6-334.5,287.6z"/>
			<path class="st4" d="M-322.9,288.5c-0.7,0.9-1.4,1.6-2,2.1s-1.3,0.7-1.8,0.7c-0.4,0-0.7-0.2-1-0.5s-0.4-0.7-0.4-1.2
				c0-1.3,0.6-2.7,1.7-4.1c1.1-1.5,2.3-2.2,3.4-2.2c0.4,0,0.7,0.2,0.9,0.7c0.1,0.2,0.2,0.2,0.3,0.2c0.4,0,0.6,0.2,0.6,0.5
				c0,0.2,0,0.4-0.1,0.6c-0.3,1.4-0.4,2.5-0.4,3c0,1.2,0.2,1.9,0.7,2.1c0.2,0.1,0.3,0.3,0.3,0.4c0,0.2-0.1,0.3-0.3,0.5
				c-0.2,0.2-0.4,0.2-0.6,0.2c-0.4,0-0.7-0.3-0.9-0.8S-322.9,289.5-322.9,288.5z M-323.4,284.4c-0.6,0-1.4,0.6-2.2,1.8
				c-0.9,1.2-1.3,2.2-1.3,3c0,0.6,0.2,0.8,0.6,0.8c0.5,0,1.3-0.5,2.2-1.6s1.4-2.1,1.4-3C-322.7,284.7-322.9,284.4-323.4,284.4z"/>
			<path class="st4" d="M-315.4,289.5c0-0.3-0.4-0.7-1.2-1.1c-1-0.5-1.7-0.9-2-1.2c-0.3-0.3-0.5-0.6-0.5-1c0-1,0.5-1.8,1.5-2.4
				s1.8-1,2.4-1c0.4,0,0.7,0.1,0.9,0.2c0.2,0.1,0.3,0.4,0.3,0.7c0,0.2-0.1,0.3-0.2,0.4s-0.2,0.2-0.3,0.2c-0.1,0-0.2,0-0.3-0.1
				c-0.2-0.1-0.3-0.1-0.3-0.1c-0.2,0-0.7,0.2-1.5,0.5s-1.1,0.8-1.1,1.2c0,0.3,0.1,0.5,0.4,0.7s0.7,0.5,1.4,0.8
				c0.6,0.3,1,0.5,1.3,0.8s0.5,0.7,0.5,1.1c0,0.7-0.5,1.3-1.5,1.8c-1,0.4-2,0.6-3,0.6c-0.8,0-1.2-0.3-1.2-0.8c0-0.2,0.1-0.3,0.3-0.4
				c0.2-0.1,0.4-0.1,0.5-0.1s0.2,0,0.4,0.1c0.2,0,0.3,0.1,0.4,0.1c0.5,0,1.1-0.1,1.7-0.3C-315.9,290-315.5,289.8-315.4,289.5z"/>
			<path class="st4" d="M-306.4,288.7c0,0.5-0.4,1.1-1.3,1.8c-0.9,0.7-1.8,1.1-2.7,1.1c-0.8,0-1.4-0.2-1.8-0.7s-0.6-1.1-0.6-1.9
				c0-1.4,0.5-2.7,1.4-4s2-1.9,3.1-1.9c0.4,0,0.7,0.1,0.9,0.4c0.2,0.2,0.3,0.5,0.3,0.9c0,0.8-0.4,1.5-1.1,2.2s-1.7,1.4-3,2
				c-0.3,0.1-0.4,0.3-0.4,0.5c0,0.4,0.1,0.7,0.4,1c0.2,0.2,0.6,0.4,1,0.4c1,0,2.1-0.6,3.2-1.7c0.2-0.2,0.3-0.2,0.4-0.2
				C-306.5,288.3-306.4,288.5-306.4,288.7z M-311.5,287.6c2.1-1.2,3.1-2.2,3.1-3c0-0.3-0.1-0.4-0.4-0.4c-0.4,0-1,0.3-1.5,1
				C-310.9,285.8-311.3,286.6-311.5,287.6z"/>
			<path class="st4" d="M-301.2,289.5c0-0.3-0.4-0.7-1.2-1.1c-1-0.5-1.7-0.9-2-1.2c-0.3-0.3-0.5-0.6-0.5-1c0-1,0.5-1.8,1.5-2.4
				s1.8-1,2.4-1c0.4,0,0.7,0.1,0.9,0.2c0.2,0.1,0.3,0.4,0.3,0.7c0,0.2-0.1,0.3-0.2,0.4s-0.2,0.2-0.3,0.2c-0.1,0-0.2,0-0.3-0.1
				c-0.2-0.1-0.3-0.1-0.3-0.1c-0.2,0-0.7,0.2-1.5,0.5s-1.1,0.8-1.1,1.2c0,0.3,0.1,0.5,0.4,0.7s0.7,0.5,1.4,0.8
				c0.6,0.3,1,0.5,1.3,0.8s0.5,0.7,0.5,1.1c0,0.7-0.5,1.3-1.5,1.8c-1,0.4-2,0.6-3,0.6c-0.8,0-1.2-0.3-1.2-0.8c0-0.2,0.1-0.3,0.3-0.4
				c0.2-0.1,0.4-0.1,0.5-0.1s0.2,0,0.4,0.1c0.2,0,0.3,0.1,0.4,0.1c0.5,0,1.1-0.1,1.7-0.3C-301.8,290-301.4,289.8-301.2,289.5z"/>
			<path class="st4" d="M-291.2,287c0.6-1.1,1.4-2.1,2.2-2.8c0.9-0.7,1.7-1.1,2.4-1.1c0.4,0,0.7,0.2,1,0.5s0.4,0.8,0.4,1.3
				c0,1.5-0.6,2.9-1.7,4.3c-1.1,1.3-2.4,2-3.6,2c-0.3,0-0.7-0.1-1-0.3c-0.3-0.2-0.5-0.4-0.5-0.7c0-0.2-0.1-0.4-0.2-0.5
				c-0.2-0.2-0.3-0.4-0.3-0.7c0-0.4,0.1-1.4,0.4-2.8l0.8-4.4c0.3-1.5,0.4-2.4,0.6-2.7c0.1-0.3,0.3-0.6,0.4-0.7s0.3-0.2,0.5-0.2
				c0.3,0,0.5,0.3,0.5,0.9s-0.2,1.3-0.6,2.4C-290.3,282.5-290.7,284.3-291.2,287z M-291.4,289.5c0.3,0.5,0.6,0.7,0.9,0.7
				c0.6,0,1.1-0.2,1.8-0.7c0.6-0.5,1.2-1.1,1.6-1.9c0.5-0.8,0.7-1.5,0.7-2.1c0-0.3,0-0.5-0.1-0.7s-0.2-0.3-0.4-0.3
				c-0.7,0-1.5,0.6-2.5,1.7C-290.4,287.2-291,288.4-291.4,289.5z"/>
			<path class="st4" d="M-278.4,288.6c-0.9,0.8-1.7,1.3-2.4,1.7c-0.7,0.4-1.2,0.5-1.6,0.5c-0.5,0-0.9-0.2-1.1-0.6
				c-0.3-0.4-0.4-0.9-0.4-1.4c0-0.8,0.2-1.7,0.5-2.8c0.3-1.1,0.5-1.8,0.7-2c0.1-0.2,0.4-0.3,0.7-0.3c0.1,0,0.2,0.1,0.3,0.2
				s0.1,0.3,0.1,0.5c0,0.1-0.1,0.3-0.2,0.5c-0.3,0.5-0.4,0.7-0.4,0.8c0,0-0.1,0.3-0.3,0.9c-0.2,0.5-0.3,1-0.3,1.5
				c0,0.2,0,0.4,0.1,0.8s0.2,0.5,0.5,0.5s0.6-0.1,1-0.2c0.4-0.2,0.8-0.4,1.3-0.8s0.8-0.7,1-0.9s0.3-0.5,0.4-0.8s0.1-0.9,0.2-1.9
				c0-1,0.3-1.5,0.7-1.5c0.3,0,0.4,0.1,0.5,0.2s0.1,0.4,0.1,0.8c0,0.3,0,0.7-0.1,1.2c-0.1,0.6-0.1,1-0.1,1.3c-0.1,1.3-0.2,2.7-0.5,4
				c-0.3,1.4-0.7,2.5-1.2,3.4s-1.3,1.4-2.2,1.4c-1,0-1.8-0.3-2.6-0.8c-0.7-0.5-1.1-0.9-1.1-1.3c0-0.2,0-0.3,0.1-0.5s0.2-0.2,0.3-0.2
				c0.1,0,0.1,0,0.2,0.1c0.6,1,1.6,1.5,3,1.5c0.7,0,1.3-0.6,1.8-1.9c0.5-1.2,0.7-2.4,0.8-3.5C-278.5,289-278.4,288.8-278.4,288.6z"
				/>
			<path class="st4" d="M-263.8,290.3v0.4c0,0.3-0.3,0.4-1,0.4c-0.1,0-0.2-0.1-0.3-0.2c-0.1-0.2-0.2-0.2-0.3-0.2
				c-0.1,0-0.3,0.1-0.8,0.2s-0.8,0.2-0.9,0.3c-0.6,0.2-1,0.3-1.2,0.3s-0.4-0.1-0.5-0.2c-0.1-0.2-0.2-0.3-0.2-0.4
				c0-0.3,0.2-0.4,0.7-0.6c0.4-0.1,0.8-0.2,1.2-0.3c1-0.2,1.7-0.4,1.8-0.5c0.1-0.9,0.2-2,0.3-3.2l0.4-3.1c-0.3,0-0.7,0.2-1.2,0.5
				c-0.9,0.6-1.7,0.9-2.4,0.9c-0.2,0-0.3-0.2-0.3-0.5c0-0.2,0-0.3,0.1-0.4s0.4-0.2,1-0.5s1.4-0.7,2.3-1.2s1.4-0.8,1.5-0.8
				c0.2,0,0.3,0.1,0.4,0.3s0.2,0.4,0.2,0.6c0,0.1-0.1,0.3-0.2,0.4c-0.5,2.1-0.8,3.7-0.8,4.8c-0.1,1.1-0.1,1.8,0,1.9
				c0.4,0,0.9-0.1,1.6-0.3c1-0.3,1.7-0.4,2.3-0.4c0.1,0.2,0.2,0.4,0.2,0.6s0,0.3-0.1,0.3c0,0-0.2,0.1-0.5,0.2s-0.7,0.2-1.4,0.3
				C-262.8,290-263.4,290.1-263.8,290.3z"/>
			<path class="st4" d="M-256.4,291.4c-0.8,0-1.4-0.3-1.8-0.8s-0.6-1.2-0.6-2c0-1,0.3-2,0.9-3.2s1.5-2.1,2.6-2.9s2.1-1.1,3-1.1
				c0.6,0,1.3,0.2,2.1,0.6c0.7,0.4,1.2,0.9,1.5,1.4s0.4,1.2,0.4,2.1c0,1.3-0.8,2.6-2.5,3.9S-254.4,291.4-256.4,291.4z M-251.2,282.8
				c-0.1,0.1-0.3,0.2-0.5,0.2c0,0-0.1-0.1-0.3-0.2s-0.3-0.2-0.4-0.2c-0.6,0-1.1,0.1-1.4,0.3c-0.4,0.2-0.8,0.6-1.4,1.2
				c-0.6,0.6-1.1,1.2-1.5,1.9c-0.4,0.7-0.6,1.4-0.6,2.1c0,0.9,0.2,1.4,0.6,1.6s0.8,0.3,1.3,0.3c0.6,0,1.4-0.2,2.3-0.7
				s1.7-1.1,2.5-1.9s1.2-1.4,1.2-1.9c0-0.3,0-0.6-0.1-1s-0.2-0.6-0.3-0.8c-0.1-0.1-0.3-0.4-0.6-0.7
				C-250.8,283-251.1,282.9-251.2,282.8z"/>
			<path class="st4" d="M-240,282.4c-0.3,0.6-0.8,1.3-1.4,2.3c-0.7,1.1-1.2,1.9-1.5,2.4s-0.6,1.1-1,1.9c-0.3,0.7-0.5,1.2-0.6,1.4
				c-0.1,0.2-0.2,0.3-0.3,0.4s-0.2,0.1-0.2,0.1c-0.3,0-0.4-0.2-0.4-0.5s0.2-0.9,0.6-1.8s0.9-1.8,1.5-2.6c0.4-0.6,1.1-1.6,1.9-3
				c0.1-0.2,0.2-0.4,0.3-0.5c-0.7-0.2-1.5-0.3-2.3-0.2c0.1,0.2,0.1,0.5,0.1,0.7c0,0.4-0.1,0.8-0.4,1.3c-0.3,0.5-0.6,0.8-1.1,1.1
				s-0.9,0.4-1.2,0.4c-0.7,0-1-0.5-1-1.6c0-0.2,0.1-0.6,0.3-1.2s0.5-1.1,1-1.4c0.4-0.4,0.9-0.5,1.5-0.5c0.2,0,0.4,0.1,0.7,0.4
				c0.1,0,1.4,0.1,3.8,0.3c0.1,0.1,0.1,0.2,0.1,0.3C-239.5,282.1-239.7,282.3-240,282.4z M-244.4,282c-0.1,0-0.1,0-0.2,0
				c-0.1,0-0.2,0-0.2,0c-0.2,0-0.5,0.3-0.8,0.8s-0.4,0.9-0.4,1.2c0,0.2,0,0.4,0,0.4s0.1,0.1,0.2,0.2c0.1,0.1,0.3,0.1,0.5,0.1
				c0.3,0,0.6-0.2,0.8-0.5c0.2-0.4,0.4-0.7,0.4-1C-244.1,283-244.2,282.6-244.4,282z M-240.6,290.8c-0.5,0-0.9-0.2-1.1-0.5
				s-0.2-0.6-0.2-0.9c0-0.5,0.2-1.1,0.6-1.7c0.4-0.6,0.8-0.9,1.2-0.9c0.6,0,1.1,0.2,1.6,0.5c0.4,0.3,0.7,0.7,0.7,1.2
				c0,0.3,0,0.5-0.1,0.8c-0.1,0.2-0.2,0.4-0.5,0.7c-0.2,0.2-0.5,0.4-0.9,0.6C-239.7,290.7-240.1,290.8-240.6,290.8z M-240.7,289.9
				c0.1,0,0.3,0,0.4,0h0.3c0.1,0,0.3-0.1,0.7-0.3c0.4-0.2,0.6-0.5,0.6-1c0-0.1,0-0.2-0.2-0.3c-0.1-0.1-0.2-0.2-0.3-0.2
				s-0.2-0.1-0.3-0.2c-0.2-0.1-0.3-0.1-0.3-0.1c-0.2,0-0.5,0.2-0.7,0.5s-0.3,0.7-0.3,1.1C-240.9,289.6-240.8,289.8-240.7,289.9z"/>
		</g>
	</g>
	<path id="Path_11393" class="st1" d="M-2681.9,2191.9c3.4-7.5,179.3-7.5,182.6,0s3.3,75.4,0,82.9s-179.3,7.5-182.6,0
		C-2685.3,2267.2-2685.3,2199.4-2681.9,2191.9z"/>
	<g class="st10">
		<path class="st7" d="M-2666,2461.8c0-0.5-0.1-0.8-0.3-0.9s-0.6-0.3-1-0.3c-0.8,0-1.5,0.2-2.1,0.6c-0.7,0.4-1,0.8-1,1.2
			c0,0.3,0.1,0.5,0.4,0.7c0.2,0.2,0.9,0.5,1.9,0.8c1.1,0.3,1.9,0.7,2.4,1c0.5,0.4,0.8,0.8,0.8,1.4c0,0.9-0.7,1.7-2,2.4
			s-2.7,1.1-4.2,1.1c-0.5,0-0.8-0.1-1.1-0.3s-0.4-0.4-0.4-0.7c0-0.2,0.1-0.4,0.2-0.6c0.1-0.2,0.3-0.3,0.5-0.3c0.1,0,0.2,0,0.3,0.1
			c0.5,0.2,0.9,0.3,1.3,0.3c0.7,0,1.5-0.2,2.4-0.6s1.3-0.8,1.3-1.2c0-0.2-0.1-0.3-0.3-0.5c-0.2-0.1-0.7-0.3-1.4-0.6
			c-1-0.3-1.7-0.6-2.2-0.8s-0.9-0.5-1.1-0.8s-0.4-0.7-0.4-1.2c0-0.9,0.5-1.6,1.5-2.4c1-0.7,2.2-1.1,3.5-1.1c0.8,0,1.4,0.2,1.8,0.5
			c0.4,0.3,0.7,0.7,0.7,1C-2664.6,2461.4-2665.1,2461.8-2666,2461.8z"/>
		<path class="st7" d="M-2659,2466.8c-1.2,1.6-2.4,2.4-3.5,2.4c-0.4,0-0.8-0.2-1.1-0.5s-0.4-0.7-0.4-1.2c0-1.2,0.5-2.5,1.6-3.9
			s2.2-2,3.3-2c0.6,0,0.9,0.3,1.1,0.8c0.5,0,0.8,0.2,0.8,0.6c0,0.2-0.1,0.5-0.2,1c-0.2,0.9-0.3,1.7-0.3,2.3s0,1,0.1,1.2
			s0.1,0.4,0.2,0.5c0,0.1,0.1,0.2,0.3,0.2c0.2,0.1,0.3,0.2,0.3,0.4s-0.1,0.4-0.4,0.6c-0.2,0.2-0.5,0.2-0.7,0.2
			C-2658.7,2469.4-2659.1,2468.5-2659,2466.8z M-2659.4,2463c-0.5,0-1.1,0.5-1.8,1.5s-1.1,1.9-1.1,2.6c0,0.4,0.1,0.6,0.2,0.6
			c0.5,0,1.2-0.5,2-1.4s1.2-1.8,1.2-2.5c0-0.2-0.1-0.4-0.2-0.5S-2659.3,2463-2659.4,2463z"/>
		<path class="st7" d="M-2653,2457.5c0.5,0,0.7,0.3,0.7,0.8c0,0.2,0,0.5-0.1,0.8s-0.3,1-0.6,2.1c-0.2,0.8-0.4,1.7-0.5,2.7
			s-0.2,1.7-0.2,2.3s0,1.3,0.1,2.1c0,0.2,0,0.3,0,0.4c0,0.3-0.1,0.5-0.3,0.7s-0.4,0.3-0.7,0.3s-0.6-0.2-0.7-0.5
			c-0.1-0.3-0.2-0.8-0.2-1.6c0-1.6,0.2-3.5,0.6-5.7c0.4-2.2,0.7-3.4,0.9-3.8C-2653.5,2457.7-2653.3,2457.5-2653,2457.5z"/>
		<path class="st7" d="M-2645.4,2466.7c0,0.5-0.4,1-1.2,1.7s-1.7,1-2.7,1c-0.8,0-1.4-0.2-1.8-0.7c-0.4-0.5-0.7-1.2-0.7-2
			c0-1.3,0.5-2.5,1.4-3.6s1.9-1.7,2.9-1.7c0.5,0,0.9,0.2,1.2,0.5s0.5,0.7,0.5,1.2c0,0.8-0.4,1.5-1.1,2.3c-0.8,0.7-1.7,1.2-2.9,1.5
			c-0.1,0-0.2,0.1-0.2,0.2c0,0.2,0.1,0.4,0.3,0.6c0.2,0.2,0.5,0.3,0.8,0.3c0.9,0,1.8-0.5,2.7-1.4c0.2-0.2,0.3-0.3,0.5-0.3
			C-2645.5,2466.3-2645.4,2466.4-2645.4,2466.7z M-2650,2465.5c0.7-0.1,1.4-0.5,1.9-0.9c0.5-0.5,0.8-0.9,0.8-1.3
			c0-0.2,0-0.3-0.1-0.4c-0.1-0.1-0.2-0.2-0.3-0.2c-0.4,0-0.8,0.3-1.3,0.9C-2649.5,2464.3-2649.8,2464.9-2650,2465.5z"/>
		<path class="st7" d="M-2641,2467.4c0-0.2-0.4-0.5-1.2-0.9c-0.9-0.5-1.5-0.8-1.8-1.2s-0.4-0.7-0.4-1.1c0-0.8,0.5-1.5,1.4-2.1
			s1.7-0.9,2.5-0.9s1.2,0.3,1.2,1c0,0.2-0.1,0.3-0.3,0.5c-0.2,0.1-0.3,0.2-0.4,0.2c-0.1,0-0.1,0-0.3-0.1c-0.1-0.1-0.2-0.1-0.3-0.1
			c-0.4,0-0.9,0.1-1.3,0.4s-0.7,0.6-0.7,1c0,0.2,0.1,0.3,0.3,0.5s0.5,0.4,1.1,0.6c0.8,0.4,1.3,0.7,1.6,1s0.4,0.6,0.4,1
			c0,0.7-0.5,1.2-1.4,1.7c-0.9,0.4-1.9,0.7-3,0.7c-0.8,0-1.2-0.3-1.2-0.9c0-0.2,0.1-0.4,0.3-0.6c0.2-0.2,0.4-0.2,0.6-0.2
			c0.1,0,0.2,0,0.4,0.1s0.4,0.1,0.5,0.1c0.4,0,0.9-0.1,1.3-0.2S-2641.2,2467.6-2641,2467.4z"/>
		<path class="st7" d="M-2624.1,2465.7L-2624.1,2465.7c-0.1,0.4-0.2,0.9-0.3,1.5s-0.2,1.1-0.2,1.4c0,0.5,0,0.9,0,1.1
			c0,0.2,0,0.4-0.1,0.5s-0.2,0.2-0.3,0.3s-0.3,0.1-0.4,0.1c-0.2,0-0.5-0.1-0.7-0.3s-0.3-0.4-0.3-0.6c0-0.1,0.1-0.4,0.2-1
			c0.1-0.5,0.2-1,0.3-1.3c-1.5,1.1-2.9,1.7-4.1,1.7c-0.8,0-1.5-0.2-1.9-0.7c-0.5-0.5-0.7-1.1-0.7-1.9c0-1.3,0.4-2.6,1.2-3.8l0,0
			c0.8-1.3,1.8-2.2,3-3c1.1-0.7,2.3-1.1,3.4-1.1c0.6,0,1.1,0.1,1.4,0.3s0.5,0.5,0.5,0.8s-0.1,0.6-0.4,0.9c-0.2,0.3-0.5,0.5-0.7,0.5
			s-0.3,0-0.3-0.1c-0.1-0.1-0.1-0.2-0.2-0.4c-0.1-0.2-0.2-0.3-0.3-0.4c-0.1-0.1-0.3-0.1-0.5-0.1c-0.7,0-1.5,0.3-2.4,1
			s-1.6,1.5-2.2,2.4s-0.8,1.8-0.8,2.7s0.4,1.3,1.1,1.3c0.4,0,0.9-0.1,1.4-0.3s1.1-0.5,1.8-1s1-0.8,1.1-1.2s0.2-0.8,0.3-1.2
			c0-0.3,0.1-0.4,0.3-0.5s0.4-0.1,0.6-0.1c0.6,0,0.9,0.2,0.9,0.6c0,0.2-0.1,0.4-0.2,0.8C-2623.9,2465-2624,2465.3-2624.1,2465.7z"/>
		<path class="st7" d="M-2617.1,2466.6c-0.4,0.8-0.9,1.4-1.5,1.9s-1.2,0.7-1.8,0.7c-0.4,0-0.7-0.2-1.1-0.6s-0.5-0.9-0.5-1.7
			c0-0.5,0.1-1.4,0.4-2.5c0.2-0.9,0.4-1.6,0.4-2.1c0.2-0.4,0.5-0.6,0.9-0.6c0.3,0,0.5,0.1,0.6,0.3s0.2,0.4,0.2,0.5
			c0,0.3-0.1,0.8-0.3,1.4c-0.1,0.4-0.3,0.9-0.4,1.5c-0.2,0.7-0.2,1.1-0.2,1.2c0,0.6,0.1,0.9,0.4,0.9c0.4,0,0.9-0.4,1.6-1.1
			c0.7-0.8,1.1-1.5,1.3-2.3s0.4-1.3,0.5-1.5c0.2-0.2,0.4-0.4,0.7-0.4c0.5,0,0.7,0.3,0.7,0.8c0,0.1,0,0.2-0.1,0.5
			c-0.3,0.8-0.4,1.7-0.4,2.7c0,1.2,0.2,1.9,0.6,2.1c0.1,0.1,0.2,0.2,0.2,0.3c0,0.2-0.1,0.3-0.3,0.5c-0.2,0.1-0.5,0.2-0.7,0.2
			c-0.4,0-0.6-0.3-0.8-0.8S-2617.1,2467.5-2617.1,2466.6z"/>
		<path class="st7" d="M-2606.8,2465.1c-0.1,1.1-0.2,2.2-0.4,3.2s-0.5,2-0.8,2.8s-0.7,1.4-1.2,1.7c-0.4,0.3-0.9,0.5-1.5,0.5
			s-1.2-0.1-1.8-0.3l0,0c-0.5-0.2-0.9-0.5-1.3-0.8c-0.4-0.3-0.5-0.6-0.5-0.9c0-0.2,0.1-0.4,0.2-0.5c0.1-0.1,0.2-0.2,0.4-0.2
			s0.3,0.1,0.4,0.2c0.6,0.8,1.4,1.1,2.5,1.1c0.5,0,0.9-0.5,1.3-1.4s0.7-2.1,0.8-3.4c-1.4,1.1-2.5,1.7-3.3,1.7
			c-0.5,0-0.9-0.2-1.2-0.6c-0.3-0.4-0.4-0.9-0.4-1.4c0-0.6,0.1-1.4,0.4-2.4s0.5-1.7,0.7-2s0.5-0.4,0.9-0.4c0.2,0,0.4,0.1,0.5,0.3
			s0.2,0.4,0.2,0.6c0,0.1-0.2,0.5-0.5,1.2c-0.4,0.9-0.6,1.6-0.6,2.2c0,0.3,0,0.6,0.1,0.7c0.1,0.2,0.2,0.2,0.3,0.2
			c0.2,0,0.5-0.1,0.8-0.2c0.3-0.1,0.7-0.4,1.1-0.7s0.7-0.6,0.8-0.7c0.1-0.2,0.2-0.4,0.3-0.7s0.1-0.9,0.2-1.8c0-0.5,0-0.9,0.1-1
			s0.1-0.3,0.2-0.4c0.1-0.1,0.3-0.2,0.5-0.2c0.3,0,0.5,0.1,0.6,0.2c0.1,0.1,0.2,0.4,0.2,0.9V2465.1z"/>
	</g>
	<g id="Group-2" transform="translate(-2250.645 1944.451)">
		<g class="st10">
			<path class="st4" d="M-416.9,268c-0.4-0.4-1-1.1-1.7-2.1c-0.5-0.7-0.9-1.1-1.1-1.3c-0.2-0.2-0.5-0.5-0.9-0.8
				c-0.5-0.4-0.8-0.6-0.9-0.8c-0.1-0.2-0.2-0.3-0.2-0.5c0-0.1,0.1-0.2,0.2-0.3c0.2-0.1,0.3-0.2,0.4-0.2c0.3,0,0.7,0.2,1.3,0.7
				c0.5,0.5,1,1,1.4,1.5c1.3,1.6,2.1,2.5,2.4,2.7c0.3-0.3,0.6-0.7,1-1c1.7-1.8,2.8-2.9,3.1-3.5c0.4-0.6,0.8-0.9,1.2-0.9
				c0.2,0,0.3,0.1,0.4,0.2c0.1,0.1,0.1,0.3,0.1,0.4c0,0.1-0.2,0.4-0.6,0.9c-0.4,0.5-1.4,1.6-3.1,3.3c-0.8,0.8-1.3,1.4-1.4,1.6
				s-0.3,1-0.4,2.1c-0.1,1.2-0.2,2.1-0.3,2.8c0,0.4-0.1,0.6-0.1,0.7c-0.1,0.1-0.2,0.1-0.3,0.2c-0.2,0.1-0.3,0.1-0.4,0.1
				c-0.4,0-0.6-0.3-0.6-1c0-0.4,0.1-1.1,0.3-2.2c0.2-1,0.2-1.7,0.2-2C-416.8,268.5-416.8,268.2-416.9,268z"/>
			<path class="st4" d="M-404.1,270.8c0,0.5-0.5,1.2-1.4,1.9c-0.9,0.8-1.9,1.1-2.9,1.1c-0.8,0-1.5-0.2-1.9-0.7
				c-0.5-0.5-0.7-1.2-0.7-2.1c0-1.5,0.5-2.9,1.5-4.3c1-1.3,2.1-2,3.3-2c0.4,0,0.7,0.1,1,0.4c0.2,0.3,0.4,0.6,0.4,0.9
				c0,0.8-0.4,1.6-1.2,2.3c-0.8,0.7-1.8,1.5-3.2,2.2c-0.3,0.1-0.4,0.3-0.4,0.5c0,0.4,0.1,0.8,0.4,1s0.6,0.4,1.1,0.4
				c1.1,0,2.3-0.6,3.4-1.9c0.2-0.2,0.3-0.3,0.4-0.3C-404.2,270.4-404.1,270.5-404.1,270.8z M-409.5,269.6c2.2-1.3,3.3-2.4,3.3-3.2
				c0-0.3-0.1-0.5-0.4-0.5c-0.5,0-1,0.4-1.6,1.1S-409.3,268.6-409.5,269.6z"/>
			<path class="st4" d="M-398.6,271.7c0-0.3-0.4-0.7-1.3-1.2c-1.1-0.5-1.8-1-2.1-1.3c-0.4-0.3-0.6-0.7-0.6-1.1c0-1,0.5-1.9,1.6-2.6
				s1.9-1,2.5-1c0.4,0,0.7,0.1,0.9,0.2c0.2,0.1,0.3,0.4,0.3,0.8c0,0.2-0.1,0.3-0.2,0.4c-0.1,0.1-0.2,0.2-0.3,0.2
				c-0.1,0-0.2,0-0.3-0.1c-0.2-0.1-0.3-0.1-0.3-0.1c-0.3,0-0.8,0.2-1.6,0.6s-1.2,0.8-1.2,1.3c0,0.3,0.1,0.6,0.4,0.8s0.8,0.5,1.5,0.9
				c0.6,0.3,1.1,0.6,1.4,0.9s0.5,0.7,0.5,1.1c0,0.8-0.5,1.4-1.6,1.9c-1.1,0.5-2.1,0.7-3.1,0.7c-0.8,0-1.3-0.3-1.3-0.9
				c0-0.2,0.1-0.3,0.3-0.4c0.2-0.1,0.4-0.1,0.6-0.1c0.1,0,0.2,0,0.4,0.1c0.2,0.1,0.4,0.1,0.4,0.1c0.6,0,1.2-0.1,1.9-0.3
				C-399.1,272.2-398.7,272-398.6,271.7z"/>
			<path class="st4" d="M-394,271.9c0,0.5-0.1,0.9-0.4,1.1s-0.5,0.3-0.7,0.3c-0.4,0-0.6-0.3-0.6-0.8c0-0.2,0.1-0.4,0.3-0.7
				s0.4-0.4,0.6-0.4c0.1,0,0.3,0.1,0.5,0.2S-394,271.8-394,271.9z M-394,269.6c-0.1,0-0.3,0-0.5-0.1c-0.2,0-0.4-0.1-0.5-0.2
				c-0.1-0.6,0.1-1.6,0.4-3.1c0.3-1.2,0.4-2.1,0.4-2.6c0-0.7,0.1-1.2,0.4-1.4c0.3-0.2,0.5-0.4,0.6-0.4c0.1,0,0.3,0.1,0.4,0.2
				c0.1,0.1,0.2,0.2,0.2,0.4c0,0.1-0.3,1.4-0.9,4c-0.2,1.1-0.4,1.9-0.4,2.4C-393.8,269.1-393.9,269.4-394,269.6z"/>
			<path class="st4" d="M-380.9,263.1c0,0.2-0.2,0.9-0.5,2.2c-0.2,0.6-0.3,1.1-0.3,1.5c0,0.3-0.1,0.6-0.1,0.9
				c-0.2,1.3-0.3,2.2-0.3,2.7c0,0.7,0,1.5,0.1,2.2c0.1,0.4,0,0.7-0.2,0.9c-0.2,0.2-0.4,0.3-0.6,0.3c-0.3,0-0.5-0.2-0.6-0.5
				s-0.2-0.8-0.2-1.5c0-0.7,0.1-1.8,0.3-3c0.1-0.5,0.1-0.8,0.1-0.9c0-0.2,0-0.4,0.1-0.5c0-0.2,0-0.4,0.1-0.5c0-0.5,0.1-1.1,0.3-1.9
				c0.1-0.6,0.2-1.1,0.3-1.6c0-0.3,0.1-0.5,0.1-0.6s0.2-0.2,0.4-0.4s0.3-0.2,0.4-0.2c0.2,0,0.4,0.1,0.5,0.3
				S-380.9,262.8-380.9,263.1z"/>
			<path class="st4" d="M-367,270.2c-0.7,1.1-1.4,2-2.2,2.6s-1.5,0.9-2.2,0.9c-0.5,0-0.9-0.2-1.2-0.6c-0.3-0.4-0.4-0.9-0.4-1.6
				c0-1.3,0.5-2.7,1.6-4.1s2.2-2.1,3.5-2.1c0.5,0,1,0.2,1.5,0.7l1.1-5.1c0.1-0.3,0.2-0.6,0.4-0.7s0.4-0.2,0.5-0.2
				c0.4,0,0.5,0.3,0.5,1c0,0.1-0.1,0.5-0.4,1.3c-0.4,1.1-0.7,2.6-1.1,4.2c-0.3,1.7-0.5,3-0.5,4c0,1,0.2,1.6,0.7,1.6
				c0.3,0,0.6-0.1,0.9-0.3c0.1-0.1,0.3-0.1,0.4-0.1c0.2,0,0.3,0.1,0.3,0.3c0,0.3-0.2,0.6-0.7,0.9c-0.5,0.3-0.9,0.5-1.4,0.5
				c-0.9,0-1.3-0.8-1.3-2.5C-367.1,270.8-367.1,270.5-367,270.2z M-368.1,266.6c-0.8,0-1.7,0.6-2.5,1.7s-1.2,2.2-1.2,3.2
				c0,0.7,0.2,1,0.6,1c0.4,0,0.9-0.2,1.5-0.6c0.6-0.4,1.2-1.1,1.8-2c0.6-0.9,0.9-1.6,0.9-2.1c0-0.2-0.1-0.5-0.3-0.7
				S-367.8,266.6-368.1,266.6z"/>
			<path class="st4" d="M-360.6,271.7c0,0.4,0.1,0.8,0.2,1.3c0,0.1,0,0.2,0,0.2c0,0.1-0.1,0.2-0.3,0.4s-0.4,0.2-0.5,0.2
				c-0.5,0-0.8-0.5-0.8-1.4c0-1,0.2-2.5,0.6-4.5c0.1-0.7,0.2-1.2,0.2-1.3c0-0.3,0.1-0.6,0.2-0.8c0.1-0.2,0.3-0.3,0.5-0.3
				c0.3,0,0.5,0.1,0.6,0.2c0.2,0.1,0.2,0.3,0.2,0.4s0,0.4-0.1,0.6c-0.4,1.4-0.6,2.4-0.7,3S-360.6,270.9-360.6,271.7z M-359.5,263
				c-0.1,0-0.2-0.1-0.3-0.4c0-0.1,0-0.2-0.1-0.2c-0.1-0.3-0.2-0.6-0.2-0.9c0-0.2,0.1-0.4,0.4-0.6c0.2-0.2,0.5-0.3,0.8-0.3
				c0.2,0,0.3,0.1,0.5,0.2s0.3,0.2,0.3,0.3c0,0.2-0.1,0.5-0.2,0.9c-0.1,0.4-0.3,0.7-0.6,0.8C-359.2,262.9-359.4,263-359.5,263z"/>
			<path class="st4" d="M-351.8,270.2c-0.7,1.1-1.4,2-2.2,2.6s-1.5,0.9-2.2,0.9c-0.5,0-0.9-0.2-1.2-0.6c-0.3-0.4-0.4-0.9-0.4-1.6
				c0-1.3,0.5-2.7,1.6-4.1s2.2-2.1,3.5-2.1c0.5,0,1,0.2,1.5,0.7l1.1-5.1c0.1-0.3,0.2-0.6,0.4-0.7s0.4-0.2,0.5-0.2
				c0.4,0,0.5,0.3,0.5,1c0,0.1-0.1,0.5-0.4,1.3c-0.4,1.1-0.7,2.6-1.1,4.2c-0.3,1.7-0.5,3-0.5,4c0,1,0.2,1.6,0.7,1.6
				c0.3,0,0.6-0.1,0.9-0.3c0.1-0.1,0.3-0.1,0.4-0.1c0.2,0,0.3,0.1,0.3,0.3c0,0.3-0.2,0.6-0.7,0.9c-0.5,0.3-0.9,0.5-1.4,0.5
				c-0.9,0-1.3-0.8-1.3-2.5C-351.9,270.8-351.9,270.5-351.8,270.2z M-352.9,266.6c-0.8,0-1.7,0.6-2.5,1.7s-1.2,2.2-1.2,3.2
				c0,0.7,0.2,1,0.6,1c0.4,0,0.9-0.2,1.5-0.6c0.6-0.4,1.2-1.1,1.8-2c0.6-0.9,0.9-1.6,0.9-2.1c0-0.2-0.1-0.5-0.3-0.7
				S-352.6,266.6-352.9,266.6z"/>
			<path class="st4" d="M-335.2,270.6c-0.7,1-1.5,1.7-2.2,2.2c-0.7,0.5-1.4,0.7-2,0.7c-0.4,0-0.7-0.2-1-0.5
				c-0.3-0.3-0.4-0.8-0.4-1.3c0-1.4,0.6-2.8,1.8-4.4c1.2-1.6,2.4-2.4,3.6-2.4c0.4,0,0.8,0.3,1,0.8c0.1,0.2,0.2,0.3,0.3,0.3
				c0.4,0,0.6,0.2,0.6,0.5c0,0.2,0,0.4-0.1,0.7c-0.3,1.5-0.4,2.6-0.4,3.3c0,1.3,0.2,2,0.7,2.3c0.2,0.1,0.3,0.3,0.3,0.5
				c0,0.2-0.1,0.3-0.3,0.5c-0.2,0.2-0.4,0.2-0.6,0.2c-0.4,0-0.7-0.3-1-0.8C-335.1,272.4-335.2,271.6-335.2,270.6z M-335.7,266.2
				c-0.7,0-1.5,0.6-2.4,1.9c-0.9,1.3-1.4,2.4-1.4,3.2c0,0.6,0.2,0.9,0.6,0.9c0.6,0,1.4-0.6,2.4-1.7s1.5-2.2,1.5-3.2
				C-334.9,266.6-335.2,266.2-335.7,266.2z"/>
			<path class="st4" d="M-324.9,268.3c-0.1,0-0.5,0.6-1.1,1.8c-0.5,1-0.9,1.9-1.4,2.7c-0.5,0.8-0.8,1.2-1.1,1.2
				c-0.6,0-1.2-1-1.8-2.9c-0.5-1.9-0.8-3.5-0.8-4.6c0-0.4,0.1-0.7,0.3-0.9c0.2-0.3,0.4-0.4,0.7-0.4c0,0,0.1,0,0.2,0s0.2,0.1,0.3,0.3
				c0.1,0.2,0.2,0.3,0.2,0.5v0c0,0.1,0,0.3-0.1,0.8c0,0.3-0.1,0.8-0.1,1.2c0,0.8,0.1,1.6,0.4,2.6s0.5,1.4,0.8,1.4
				c0.1,0,0.6-0.8,1.4-2.4c0.5-1,0.9-1.7,1.1-2.1l0.3-0.5c0.4-0.7,0.7-1.2,1-1.4c0.4,0.1,0.7,0.3,0.7,0.7c0,0.1,0,0.2,0,0.3
				c0,0.1,0,0.2,0,0.3c0,1,0.3,2,0.8,3s0.9,1.6,1.1,1.6c0.2,0,0.4-0.6,0.7-1.7c0.5-1.5,0.9-2.6,1.3-3.4c0.4-0.8,0.7-1.2,0.9-1.3
				c0.2-0.1,0.4-0.2,0.6-0.2c0.1,0,0.2,0.1,0.3,0.2c0.1,0.1,0.1,0.2,0.1,0.4c0,0.2,0,0.3-0.1,0.4c-0.6,0.8-1.3,2.2-1.9,4
				c-0.5,1.5-0.9,2.5-1,2.9s-0.3,0.6-0.5,0.6c-0.6,0-1.1-0.2-1.5-0.7c-0.4-0.5-0.9-1.7-1.6-3.7
				C-324.7,268.7-324.8,268.5-324.9,268.3z"/>
			<path class="st4" d="M-310.3,270.8c0,0.5-0.5,1.2-1.4,1.9c-0.9,0.8-1.9,1.1-2.9,1.1c-0.8,0-1.5-0.2-1.9-0.7
				c-0.5-0.5-0.7-1.2-0.7-2.1c0-1.5,0.5-2.9,1.5-4.3c1-1.3,2.1-2,3.3-2c0.4,0,0.7,0.1,1,0.4c0.2,0.3,0.4,0.6,0.4,0.9
				c0,0.8-0.4,1.6-1.2,2.3c-0.8,0.7-1.8,1.5-3.2,2.2c-0.3,0.1-0.4,0.3-0.4,0.5c0,0.4,0.1,0.8,0.4,1s0.6,0.4,1.1,0.4
				c1.1,0,2.3-0.6,3.4-1.9c0.2-0.2,0.3-0.3,0.4-0.3C-310.4,270.4-310.3,270.5-310.3,270.8z M-315.7,269.6c2.2-1.3,3.3-2.4,3.3-3.2
				c0-0.3-0.1-0.5-0.4-0.5c-0.5,0-1,0.4-1.6,1.1S-315.5,268.6-315.7,269.6z"/>
			<path class="st4" d="M-304.7,271.7c0-0.3-0.4-0.7-1.3-1.2c-1.1-0.5-1.8-1-2.1-1.3c-0.4-0.3-0.6-0.7-0.6-1.1c0-1,0.5-1.9,1.6-2.6
				s1.9-1,2.5-1c0.4,0,0.7,0.1,0.9,0.2c0.2,0.1,0.3,0.4,0.3,0.8c0,0.2-0.1,0.3-0.2,0.4c-0.1,0.1-0.2,0.2-0.3,0.2
				c-0.1,0-0.2,0-0.3-0.1c-0.2-0.1-0.3-0.1-0.3-0.1c-0.3,0-0.8,0.2-1.6,0.6s-1.2,0.8-1.2,1.3c0,0.3,0.1,0.6,0.4,0.8s0.8,0.5,1.5,0.9
				c0.6,0.3,1.1,0.6,1.4,0.9s0.5,0.7,0.5,1.1c0,0.8-0.5,1.4-1.6,1.9c-1.1,0.5-2.1,0.7-3.1,0.7c-0.8,0-1.3-0.3-1.3-0.9
				c0-0.2,0.1-0.3,0.3-0.4c0.2-0.1,0.4-0.1,0.6-0.1c0.1,0,0.2,0,0.4,0.1c0.2,0.1,0.4,0.1,0.4,0.1c0.6,0,1.2-0.1,1.9-0.3
				C-305.3,272.2-304.9,272-304.7,271.7z"/>
			<path class="st4" d="M-299.6,273.9c-0.7,0-1.3-0.3-1.8-0.8c-0.5-0.5-0.7-1.2-0.7-2c0-1.3,0.5-2.7,1.4-4c0.9-1.3,2-2,3.2-2
				c0.8,0,1.5,0.3,2,1c0.5,0.6,0.8,1.4,0.8,2.3c0,1.4-0.5,2.6-1.6,3.8S-298.4,273.9-299.6,273.9z M-300.7,270.8c0,0.5,0.1,1,0.3,1.3
				c0.2,0.3,0.5,0.5,0.9,0.5c0.8,0,1.6-0.4,2.3-1.3s1.2-1.8,1.2-2.8c0-0.6-0.1-1.2-0.4-1.6c-0.3-0.4-0.7-0.6-1.2-0.6
				c-0.8,0-1.6,0.5-2.2,1.5S-300.7,269.9-300.7,270.8z"/>
			<path class="st4" d="M-286.9,267.3c-0.5,0-1.5,1.4-3.1,4.3c-0.5,1-0.8,1.5-0.9,1.6c-0.1,0.1-0.3,0.2-0.5,0.2
				c-0.2,0.1-0.4,0.1-0.6,0.1c-0.3,0-0.5-0.7-0.5-2c0-0.8,0.2-2.2,0.5-4.2c0.1-0.8,0.2-1.4,0.2-1.7c0-0.3,0.2-0.5,0.5-0.5
				c0.6,0,0.9,0.4,0.9,1.3c0,0.4-0.1,1.2-0.3,2.3c-0.2,1.3-0.3,2.1-0.3,2.4c0.3-0.3,0.8-1,1.4-2.1c0.9-1.4,1.5-2.4,2-2.8
				c0.4-0.4,0.9-0.6,1.3-0.6c0.3,0,0.6,0.2,0.8,0.7c0.2,0.5,0.3,1.5,0.4,3.2c0,0.4,0,0.7,0.1,1c0.1,0.2,0.1,0.3,0.1,0.3
				c0.2,0,0.8-0.8,1.6-2.5c0.4-0.9,0.9-1.5,1.3-2s0.9-0.7,1.4-0.7c0.4,0,0.7,0.2,0.9,0.7c0.2,0.4,0.3,1.1,0.4,1.9
				c0.1,0.9,0.2,1.7,0.4,2.4s0.5,1.2,0.9,1.4c0.3,0.1,0.4,0.3,0.4,0.5c0,0.2-0.1,0.4-0.4,0.6s-0.5,0.3-0.7,0.3
				c-0.4,0-0.8-0.3-1.1-0.8s-0.6-1.6-0.7-3.3c-0.1-0.7-0.1-1.2-0.2-1.5c-0.1-0.3-0.2-0.4-0.3-0.4c-0.2,0-0.5,0.2-0.8,0.6
				c-0.3,0.4-0.8,1.3-1.4,2.5c-0.5,1-0.9,1.7-1.2,2c-0.3,0.3-0.5,0.5-0.8,0.5c-0.2,0-0.4-0.1-0.6-0.3c-0.2-0.2-0.3-0.4-0.3-0.6
				s-0.1-0.9-0.1-1.9C-286.6,268.5-286.7,267.6-286.9,267.3z"/>
			<path class="st4" d="M-269.7,270.8c0,0.5-0.5,1.2-1.4,1.9c-0.9,0.8-1.9,1.1-2.9,1.1c-0.8,0-1.5-0.2-1.9-0.7
				c-0.5-0.5-0.7-1.2-0.7-2.1c0-1.5,0.5-2.9,1.5-4.3c1-1.3,2.1-2,3.3-2c0.4,0,0.7,0.1,1,0.4c0.2,0.3,0.4,0.6,0.4,0.9
				c0,0.8-0.4,1.6-1.2,2.3c-0.8,0.7-1.8,1.5-3.2,2.2c-0.3,0.1-0.4,0.3-0.4,0.5c0,0.4,0.1,0.8,0.4,1s0.6,0.4,1.1,0.4
				c1.1,0,2.3-0.6,3.4-1.9c0.2-0.2,0.3-0.3,0.4-0.3C-269.8,270.4-269.7,270.5-269.7,270.8z M-275.1,269.6c2.2-1.3,3.3-2.4,3.3-3.2
				c0-0.3-0.1-0.5-0.4-0.5c-0.5,0-1,0.4-1.6,1.1S-274.9,268.6-275.1,269.6z"/>
		</g>
		<g class="st10">
			<path class="st4" d="M-412,284.3c0,0.1,0.1,0.1,0.2,0.2c0.6,0.2,1.1,0.5,1.5,0.9c0.4,0.5,0.6,1,0.6,1.7c0,1-0.6,2-1.9,3
				c-1.3,1-2.6,1.6-4,1.6c-0.4,0-0.7-0.1-0.9-0.2c-0.2-0.1-0.3-0.2-0.3-0.4c0-0.7,0.5-1,1.4-1c0.1,0,0.3,0,0.6,0s0.6-0.1,0.9-0.2
				c0.4-0.1,0.7-0.3,1-0.6c0.3-0.2,0.6-0.5,0.9-0.7s0.4-0.5,0.6-0.8s0.2-0.5,0.2-0.8c0-0.4-0.2-0.8-0.6-1.2
				c-0.4-0.3-0.9-0.5-1.6-0.5c-0.1,0-0.4,0.1-0.7,0.3c-0.4,0.2-0.6,0.3-0.8,0.3c-0.4,0-0.7-0.1-0.8-0.2s-0.2-0.3-0.2-0.6
				c0-0.2,0.4-0.4,1.3-0.8c0.7-0.3,1.4-0.8,2.1-1.4c0.7-0.7,1-1.2,1-1.7c0-0.3-0.1-0.6-0.4-0.8c-0.3-0.2-0.6-0.3-1.1-0.3
				c-0.8,0-1.5,0.1-2.3,0.3s-1.2,0.4-1.3,0.5c-0.1,0.2-0.3,1.4-0.6,3.8c-0.3,2.4-0.5,3.7-0.5,4.1c0,0.4,0,0.7,0,1s0,0.6-0.2,0.8
				c-0.1,0.2-0.3,0.3-0.7,0.3c-0.3,0-0.5-0.1-0.7-0.3c-0.2-0.2-0.2-0.5-0.2-0.8c0-0.1,0-0.2,0.1-0.4c0.3-1.1,0.5-2.6,0.8-4.3
				c0.2-1.7,0.4-2.8,0.4-3c0-0.2,0-0.4-0.1-0.5c-0.1-0.1-0.2-0.2-0.4-0.2c-0.1,0-0.2,0-0.2,0c-0.1,0-0.2,0-0.2-0.1
				c-0.1-0.1-0.1-0.2-0.1-0.4c0-0.5,0.7-0.9,2.2-1.4c1.5-0.4,3-0.7,4.5-0.7c0.8,0,1.4,0.2,1.9,0.6c0.5,0.4,0.7,0.9,0.7,1.5
				c0,0.4-0.2,0.9-0.6,1.5C-410.7,283.2-411.3,283.7-412,284.3z"/>
			<path class="st4" d="M-402.2,287.3c-0.7,1.1-1.3,2-2,2.6c-0.7,0.6-1.3,0.9-1.9,0.9c-0.3,0-0.7-0.2-1.1-0.6
				c-0.4-0.4-0.5-1-0.5-1.9c0-0.7,0.2-1.7,0.5-3c0.3-1.1,0.4-1.9,0.4-2.3c0.2-0.3,0.4-0.5,0.7-0.5c0.2,0,0.4,0.1,0.5,0.2
				c0.1,0.2,0.2,0.3,0.2,0.5c0,0.4-0.1,0.9-0.4,1.6c-0.5,1.3-0.7,2.4-0.7,3.4c0,0.9,0.2,1.3,0.6,1.3c0.5,0,1.1-0.4,1.9-1.3
				s1.5-2.1,2-3.6c0.2-0.6,0.4-1,0.5-1.2c0.1-0.2,0.3-0.3,0.6-0.3c0.4,0,0.5,0.2,0.5,0.7c0,0.1,0,0.2-0.1,0.6
				c-0.3,1.1-0.5,2.2-0.5,3.2c0,1.2,0.2,2,0.6,2.4c0.2,0.2,0.3,0.3,0.3,0.5c0,0.1-0.1,0.3-0.3,0.4s-0.4,0.2-0.6,0.2
				c-0.4,0-0.7-0.3-0.9-0.8c-0.2-0.5-0.3-1.3-0.3-2.4v-0.3C-402.2,287.4-402.2,287.3-402.2,287.3z"/>
			<path class="st4" d="M-394.8,282.8c0.5,0,1-0.1,1.5-0.1c0.5-0.1,0.9-0.1,1.2-0.1c0.4,0,0.6,0,0.8,0.1c0.1,0.1,0.2,0.2,0.2,0.4
				c0,0.4-0.3,0.7-0.9,0.7c-0.8,0-1.5,0.1-2.1,0.2c-0.6,0.1-1,0.2-1,0.2c0,0.1-0.2,0.7-0.5,1.9s-0.4,2-0.4,2.3c0,0.6,0.1,1,0.2,1.1
				c0.2,0.2,0.4,0.3,0.7,0.3c0.4,0,1.1-0.3,1.9-1c0.3-0.3,0.5-0.4,0.7-0.4c0.2,0,0.3,0.1,0.3,0.4c0,0.4-0.4,0.9-1.1,1.5
				c-0.7,0.6-1.5,0.9-2.2,0.9c-1.3,0-1.9-0.7-1.9-2.2c0-0.5,0.1-1.4,0.4-2.5c0.3-1.1,0.4-1.8,0.4-2c0-0.1-0.1-0.1-0.2-0.1l-0.8,0.1
				c-0.7,0-1-0.3-1-0.8c0-0.3,0.2-0.5,0.5-0.5h1.6c0.1,0,0.2,0,0.3-0.1c0.1-0.1,0.2-0.4,0.4-1c0.2-0.6,0.3-1.1,0.4-1.7
				c0.1-0.5,0.4-0.8,0.7-0.8c0.2,0,0.4,0.1,0.5,0.2s0.2,0.3,0.2,0.4c0,0.1-0.1,0.4-0.3,1.1L-394.8,282.8z"/>
			<path class="st4" d="M-376.6,284.3c0,0.1,0.1,0.1,0.2,0.2c0.6,0.2,1.1,0.5,1.5,0.9c0.4,0.5,0.6,1,0.6,1.7c0,1-0.6,2-1.9,3
				c-1.3,1-2.6,1.6-4,1.6c-0.4,0-0.7-0.1-0.9-0.2c-0.2-0.1-0.3-0.2-0.3-0.4c0-0.7,0.5-1,1.4-1c0.1,0,0.3,0,0.6,0s0.6-0.1,0.9-0.2
				c0.4-0.1,0.7-0.3,1-0.6c0.3-0.2,0.6-0.5,0.9-0.7s0.4-0.5,0.6-0.8s0.2-0.5,0.2-0.8c0-0.4-0.2-0.8-0.6-1.2
				c-0.4-0.3-0.9-0.5-1.6-0.5c-0.1,0-0.4,0.1-0.7,0.3c-0.4,0.2-0.6,0.3-0.8,0.3c-0.4,0-0.7-0.1-0.8-0.2s-0.2-0.3-0.2-0.6
				c0-0.2,0.4-0.4,1.3-0.8c0.7-0.3,1.4-0.8,2.1-1.4c0.7-0.7,1-1.2,1-1.7c0-0.3-0.1-0.6-0.4-0.8c-0.3-0.2-0.6-0.3-1.1-0.3
				c-0.8,0-1.5,0.1-2.3,0.3s-1.2,0.4-1.3,0.5c-0.1,0.2-0.3,1.4-0.6,3.8c-0.3,2.4-0.5,3.7-0.5,4.1c0,0.4,0,0.7,0,1s0,0.6-0.2,0.8
				c-0.1,0.2-0.3,0.3-0.7,0.3c-0.3,0-0.5-0.1-0.7-0.3c-0.2-0.2-0.2-0.5-0.2-0.8c0-0.1,0-0.2,0.1-0.4c0.3-1.1,0.5-2.6,0.8-4.3
				c0.2-1.7,0.4-2.8,0.4-3c0-0.2,0-0.4-0.1-0.5c-0.1-0.1-0.2-0.2-0.4-0.2c-0.1,0-0.2,0-0.2,0c-0.1,0-0.2,0-0.2-0.1
				c-0.1-0.1-0.1-0.2-0.1-0.4c0-0.5,0.7-0.9,2.2-1.4c1.5-0.4,3-0.7,4.5-0.7c0.8,0,1.4,0.2,1.9,0.6c0.5,0.4,0.7,0.9,0.7,1.5
				c0,0.4-0.2,0.9-0.6,1.5C-375.3,283.2-375.9,283.7-376.6,284.3z"/>
			<path class="st4" d="M-370,291c-0.7,0-1.3-0.3-1.8-0.8c-0.5-0.5-0.7-1.2-0.7-2c0-1.3,0.5-2.7,1.4-4c0.9-1.3,2-2,3.2-2
				c0.8,0,1.5,0.3,2,1c0.5,0.6,0.8,1.4,0.8,2.3c0,1.4-0.5,2.6-1.6,3.8S-368.9,291-370,291z M-371.1,288c0,0.5,0.1,1,0.3,1.3
				c0.2,0.3,0.5,0.5,0.9,0.5c0.8,0,1.6-0.4,2.3-1.3s1.2-1.8,1.2-2.8c0-0.6-0.1-1.2-0.4-1.6c-0.3-0.4-0.7-0.6-1.2-0.6
				c-0.8,0-1.6,0.5-2.2,1.5S-371.1,287.1-371.1,288z"/>
			<path class="st4" d="M-361.8,286.2c0.7-1.2,1.5-2.2,2.4-2.9c0.9-0.8,1.8-1.1,2.5-1.1c0.4,0,0.8,0.2,1,0.6
				c0.3,0.4,0.4,0.8,0.4,1.4c0,1.6-0.6,3.1-1.8,4.6c-1.2,1.4-2.5,2.1-3.9,2.1c-0.4,0-0.7-0.1-1-0.3c-0.3-0.2-0.5-0.5-0.5-0.8
				c0-0.2-0.1-0.4-0.2-0.5c-0.2-0.2-0.3-0.5-0.3-0.7c0-0.5,0.1-1.5,0.4-3l0.8-4.7c0.3-1.6,0.5-2.5,0.6-2.9c0.1-0.4,0.3-0.6,0.4-0.7
				s0.3-0.2,0.6-0.2c0.4,0,0.5,0.3,0.5,0.9c0,0.6-0.2,1.4-0.6,2.5C-360.9,281.4-361.3,283.4-361.8,286.2z M-362,288.8
				c0.3,0.5,0.6,0.8,1,0.8c0.6,0,1.2-0.2,1.9-0.7c0.7-0.5,1.2-1.2,1.7-2.1c0.5-0.9,0.7-1.6,0.7-2.3c0-0.3,0-0.5-0.1-0.7
				c-0.1-0.2-0.2-0.3-0.4-0.3c-0.7,0-1.6,0.6-2.7,1.8C-360.9,286.4-361.6,287.6-362,288.8z"/>
			<path class="st4" d="M-343.6,288.9c0-0.3-0.4-0.7-1.3-1.2c-1.1-0.5-1.8-1-2.1-1.3c-0.4-0.3-0.6-0.7-0.6-1.1c0-1,0.5-1.9,1.6-2.6
				s1.9-1,2.5-1c0.4,0,0.7,0.1,0.9,0.2c0.2,0.1,0.3,0.4,0.3,0.8c0,0.2-0.1,0.3-0.2,0.4c-0.1,0.1-0.2,0.2-0.3,0.2
				c-0.1,0-0.2,0-0.3-0.1c-0.2-0.1-0.3-0.1-0.3-0.1c-0.3,0-0.8,0.2-1.6,0.6s-1.2,0.8-1.2,1.3c0,0.3,0.1,0.6,0.4,0.8s0.8,0.5,1.5,0.9
				c0.6,0.3,1.1,0.6,1.4,0.9s0.5,0.7,0.5,1.1c0,0.8-0.5,1.4-1.6,1.9c-1.1,0.5-2.1,0.7-3.1,0.7c-0.8,0-1.3-0.3-1.3-0.9
				c0-0.2,0.1-0.3,0.3-0.4c0.2-0.1,0.4-0.1,0.6-0.1c0.1,0,0.2,0,0.4,0.1c0.2,0.1,0.4,0.1,0.4,0.1c0.6,0,1.2-0.1,1.9-0.3
				C-344.2,289.4-343.8,289.2-343.6,288.9z"/>
			<path class="st4" d="M-337.6,282.8c0.5,0,1-0.1,1.5-0.1c0.5-0.1,0.9-0.1,1.2-0.1c0.4,0,0.6,0,0.8,0.1c0.1,0.1,0.2,0.2,0.2,0.4
				c0,0.4-0.3,0.7-0.9,0.7c-0.8,0-1.5,0.1-2.1,0.2c-0.6,0.1-1,0.2-1,0.2c0,0.1-0.2,0.7-0.5,1.9s-0.4,2-0.4,2.3c0,0.6,0.1,1,0.2,1.1
				c0.2,0.2,0.4,0.3,0.7,0.3c0.4,0,1.1-0.3,1.9-1c0.3-0.3,0.5-0.4,0.7-0.4c0.2,0,0.3,0.1,0.3,0.4c0,0.4-0.4,0.9-1.1,1.5
				c-0.7,0.6-1.5,0.9-2.2,0.9c-1.3,0-1.9-0.7-1.9-2.2c0-0.5,0.1-1.4,0.4-2.5c0.3-1.1,0.4-1.8,0.4-2c0-0.1-0.1-0.1-0.2-0.1l-0.8,0.1
				c-0.7,0-1-0.3-1-0.8c0-0.3,0.2-0.5,0.5-0.5h1.6c0.1,0,0.2,0,0.3-0.1c0.1-0.1,0.2-0.4,0.4-1c0.2-0.6,0.3-1.1,0.4-1.7
				c0.1-0.5,0.4-0.8,0.7-0.8c0.2,0,0.4,0.1,0.5,0.2s0.2,0.3,0.2,0.4c0,0.1-0.1,0.4-0.3,1.1L-337.6,282.8z"/>
			<path class="st4" d="M-331.8,288.9c0,0.4,0.1,0.8,0.2,1.3c0,0.1,0,0.2,0,0.2c0,0.1-0.1,0.2-0.3,0.4s-0.4,0.2-0.5,0.2
				c-0.5,0-0.8-0.5-0.8-1.4c0-1,0.2-2.5,0.6-4.5c0.1-0.7,0.2-1.2,0.2-1.3c0-0.3,0.1-0.6,0.2-0.8c0.1-0.2,0.3-0.3,0.5-0.3
				c0.3,0,0.5,0.1,0.6,0.2c0.2,0.1,0.2,0.3,0.2,0.4s0,0.4-0.1,0.6c-0.4,1.4-0.6,2.4-0.7,3S-331.8,288.1-331.8,288.9z M-330.7,280.2
				c-0.1,0-0.2-0.1-0.3-0.4c0-0.1,0-0.2-0.1-0.2c-0.1-0.3-0.2-0.6-0.2-0.9c0-0.2,0.1-0.4,0.4-0.6c0.2-0.2,0.5-0.3,0.8-0.3
				c0.2,0,0.3,0.1,0.5,0.2s0.3,0.2,0.3,0.3c0,0.2-0.1,0.5-0.2,0.9c-0.1,0.4-0.3,0.7-0.6,0.8C-330.4,280.1-330.6,280.2-330.7,280.2z"
				/>
			<path class="st4" d="M-325.9,277.4c0.4,0,0.6,0.2,0.6,0.7c0,0.4-0.2,1.4-0.7,3c-0.3,1-0.5,2.1-0.7,3.3s-0.2,2.2-0.2,2.9
				c0,0.9,0.1,1.7,0.2,2.6c0,0.2,0,0.3,0,0.4c0,0.3-0.1,0.5-0.3,0.7c-0.2,0.2-0.4,0.3-0.6,0.3c-0.3,0-0.5-0.2-0.6-0.5
				c-0.1-0.3-0.2-0.9-0.2-1.7c0-1.7,0.2-3.9,0.6-6.5c0.4-2.6,0.8-4.1,1-4.5C-326.4,277.6-326.2,277.4-325.9,277.4z"/>
			<path class="st4" d="M-321.3,277.4c0.4,0,0.6,0.2,0.6,0.7c0,0.4-0.2,1.4-0.7,3c-0.3,1-0.5,2.1-0.7,3.3s-0.2,2.2-0.2,2.9
				c0,0.9,0.1,1.7,0.2,2.6c0,0.2,0,0.3,0,0.4c0,0.3-0.1,0.5-0.3,0.7c-0.2,0.2-0.4,0.3-0.6,0.3c-0.3,0-0.5-0.2-0.6-0.5
				c-0.1-0.3-0.2-0.9-0.2-1.7c0-1.7,0.2-3.9,0.6-6.5c0.4-2.6,0.8-4.1,1-4.5C-321.8,277.6-321.6,277.4-321.3,277.4z"/>
			<path class="st4" d="M-310.8,291c-0.7,0-1.3-0.3-1.8-0.8c-0.5-0.5-0.7-1.2-0.7-2c0-1.3,0.5-2.7,1.4-4c0.9-1.3,2-2,3.2-2
				c0.8,0,1.5,0.3,2,1c0.5,0.6,0.8,1.4,0.8,2.3c0,1.4-0.5,2.6-1.6,3.8S-309.6,291-310.8,291z M-311.9,288c0,0.5,0.1,1,0.3,1.3
				c0.2,0.3,0.5,0.5,0.9,0.5c0.8,0,1.6-0.4,2.3-1.3s1.2-1.8,1.2-2.8c0-0.6-0.1-1.2-0.4-1.6c-0.3-0.4-0.7-0.6-1.2-0.6
				c-0.8,0-1.6,0.5-2.2,1.5S-311.9,287.1-311.9,288z"/>
			<path class="st4" d="M-297.8,285.5c-0.1,0-0.5,0.6-1.1,1.8c-0.5,1-0.9,1.9-1.4,2.7c-0.5,0.8-0.8,1.2-1.1,1.2
				c-0.6,0-1.2-1-1.8-2.9c-0.5-1.9-0.8-3.5-0.8-4.6c0-0.4,0.1-0.7,0.3-0.9c0.2-0.3,0.4-0.4,0.7-0.4c0,0,0.1,0,0.2,0s0.2,0.1,0.3,0.3
				c0.1,0.2,0.2,0.3,0.2,0.5v0c0,0.1,0,0.3-0.1,0.8c0,0.3-0.1,0.8-0.1,1.2c0,0.8,0.1,1.6,0.4,2.6s0.5,1.4,0.8,1.4
				c0.1,0,0.6-0.8,1.4-2.4c0.5-1,0.9-1.7,1.1-2.1l0.3-0.5c0.4-0.7,0.7-1.2,1-1.4c0.4,0.1,0.7,0.3,0.7,0.7c0,0.1,0,0.2,0,0.3
				c0,0.1,0,0.2,0,0.3c0,1,0.3,2,0.8,3s0.9,1.6,1.1,1.6c0.2,0,0.4-0.6,0.7-1.7c0.5-1.5,0.9-2.6,1.3-3.4c0.4-0.8,0.7-1.2,0.9-1.3
				c0.2-0.1,0.4-0.2,0.6-0.2c0.1,0,0.2,0.1,0.3,0.2c0.1,0.1,0.1,0.2,0.1,0.4c0,0.2,0,0.3-0.1,0.4c-0.6,0.8-1.3,2.2-1.9,4
				c-0.5,1.5-0.9,2.5-1,2.9s-0.3,0.6-0.5,0.6c-0.6,0-1.1-0.2-1.5-0.7c-0.4-0.5-0.9-1.7-1.6-3.7
				C-297.7,285.9-297.8,285.7-297.8,285.5z"/>
			<path class="st4" d="M-283.2,288c0,0.5-0.5,1.2-1.4,1.9c-0.9,0.8-1.9,1.1-2.9,1.1c-0.8,0-1.5-0.2-1.9-0.7
				c-0.5-0.5-0.7-1.2-0.7-2.1c0-1.5,0.5-2.9,1.5-4.3c1-1.3,2.1-2,3.3-2c0.4,0,0.7,0.1,1,0.4c0.2,0.3,0.4,0.6,0.4,0.9
				c0,0.8-0.4,1.6-1.2,2.3c-0.8,0.7-1.8,1.5-3.2,2.2c-0.3,0.1-0.4,0.3-0.4,0.5c0,0.4,0.1,0.8,0.4,1s0.6,0.4,1.1,0.4
				c1.1,0,2.3-0.6,3.4-1.9c0.2-0.2,0.3-0.3,0.4-0.3C-283.3,287.6-283.2,287.7-283.2,288z M-288.7,286.8c2.2-1.3,3.3-2.4,3.3-3.2
				c0-0.3-0.1-0.5-0.4-0.5c-0.5,0-1,0.4-1.6,1.1S-288.4,285.8-288.7,286.8z"/>
			<path class="st4" d="M-277.7,288.9c0-0.3-0.4-0.7-1.3-1.2c-1.1-0.5-1.8-1-2.1-1.3c-0.4-0.3-0.6-0.7-0.6-1.1c0-1,0.5-1.9,1.6-2.6
				s1.9-1,2.5-1c0.4,0,0.7,0.1,0.9,0.2c0.2,0.1,0.3,0.4,0.3,0.8c0,0.2-0.1,0.3-0.2,0.4c-0.1,0.1-0.2,0.2-0.3,0.2
				c-0.1,0-0.2,0-0.3-0.1c-0.2-0.1-0.3-0.1-0.3-0.1c-0.3,0-0.8,0.2-1.6,0.6s-1.2,0.8-1.2,1.3c0,0.3,0.1,0.6,0.4,0.8s0.8,0.5,1.5,0.9
				c0.6,0.3,1.1,0.6,1.4,0.9s0.5,0.7,0.5,1.1c0,0.8-0.5,1.4-1.6,1.9c-1.1,0.5-2.1,0.7-3.1,0.7c-0.8,0-1.3-0.3-1.3-0.9
				c0-0.2,0.1-0.3,0.3-0.4c0.2-0.1,0.4-0.1,0.6-0.1c0.1,0,0.2,0,0.4,0.1c0.2,0.1,0.4,0.1,0.4,0.1c0.6,0,1.2-0.1,1.9-0.3
				C-278.2,289.4-277.8,289.2-277.7,288.9z"/>
		</g>
		<g class="st10">
			<path class="st4" d="M-377.5,301.6c-0.5,0-1.5,1.4-3.1,4.3c-0.5,1-0.8,1.5-0.9,1.6s-0.3,0.2-0.5,0.2c-0.2,0.1-0.4,0.1-0.6,0.1
				c-0.3,0-0.5-0.7-0.5-2c0-0.8,0.2-2.2,0.5-4.2c0.1-0.8,0.2-1.4,0.2-1.7c0-0.3,0.2-0.5,0.5-0.5c0.6,0,0.9,0.4,0.9,1.3
				c0,0.4-0.1,1.2-0.3,2.3c-0.2,1.3-0.3,2.1-0.3,2.4c0.3-0.3,0.8-1,1.4-2.1c0.9-1.4,1.5-2.4,2-2.8c0.4-0.4,0.9-0.6,1.3-0.6
				c0.3,0,0.6,0.2,0.8,0.7c0.2,0.5,0.3,1.5,0.4,3.2c0,0.4,0,0.7,0.1,1c0.1,0.2,0.1,0.3,0.1,0.3c0.2,0,0.8-0.8,1.6-2.5
				c0.4-0.9,0.9-1.5,1.3-2s0.9-0.7,1.4-0.7c0.4,0,0.7,0.2,0.9,0.7c0.2,0.4,0.3,1.1,0.4,1.9c0.1,0.9,0.2,1.7,0.4,2.4s0.5,1.2,0.9,1.4
				c0.3,0.1,0.4,0.3,0.4,0.5s-0.1,0.4-0.4,0.6s-0.5,0.3-0.7,0.3c-0.4,0-0.8-0.3-1.1-0.8s-0.6-1.6-0.7-3.3c-0.1-0.7-0.1-1.2-0.2-1.5
				s-0.2-0.4-0.3-0.4c-0.2,0-0.5,0.2-0.8,0.6s-0.8,1.3-1.4,2.5c-0.5,1-0.9,1.7-1.2,2c-0.3,0.3-0.5,0.5-0.8,0.5
				c-0.2,0-0.4-0.1-0.6-0.3c-0.2-0.2-0.3-0.4-0.3-0.6s-0.1-0.9-0.1-1.9C-377.2,302.8-377.3,301.8-377.5,301.6z"/>
			<path class="st4" d="M-360.3,305.1c0,0.5-0.5,1.2-1.4,1.9c-0.9,0.8-1.9,1.1-2.9,1.1c-0.8,0-1.5-0.2-1.9-0.7
				c-0.5-0.5-0.7-1.2-0.7-2.1c0-1.5,0.5-2.9,1.5-4.3c1-1.3,2.1-2,3.3-2c0.4,0,0.7,0.1,1,0.4c0.2,0.3,0.4,0.6,0.4,0.9
				c0,0.8-0.4,1.6-1.2,2.3c-0.8,0.7-1.8,1.5-3.2,2.2c-0.3,0.1-0.4,0.3-0.4,0.5c0,0.4,0.1,0.8,0.4,1s0.6,0.4,1.1,0.4
				c1.1,0,2.3-0.6,3.4-1.9c0.2-0.2,0.3-0.3,0.4-0.3C-360.4,304.7-360.3,304.8-360.3,305.1z M-365.7,303.9c2.2-1.3,3.3-2.4,3.3-3.2
				c0-0.3-0.1-0.5-0.4-0.5c-0.5,0-1,0.4-1.6,1.1S-365.5,302.9-365.7,303.9z"/>
			<path class="st4" d="M-346.7,306.8v0.5c0,0.3-0.3,0.4-1,0.4c-0.1,0-0.2-0.1-0.3-0.3c-0.1-0.2-0.2-0.2-0.3-0.2
				c-0.1,0-0.3,0.1-0.9,0.2c-0.5,0.1-0.8,0.2-0.9,0.3c-0.6,0.2-1.1,0.3-1.3,0.3c-0.2,0-0.4-0.1-0.6-0.2c-0.1-0.2-0.2-0.3-0.2-0.5
				c0-0.3,0.2-0.5,0.7-0.6s0.9-0.2,1.2-0.3c1.1-0.2,1.8-0.4,2-0.5c0.1-1,0.2-2.1,0.4-3.4l0.4-3.3c-0.3,0-0.7,0.2-1.3,0.5
				c-1,0.6-1.8,0.9-2.5,0.9c-0.2,0-0.4-0.2-0.4-0.5c0-0.2,0-0.3,0.1-0.4s0.4-0.2,1.1-0.5c0.6-0.3,1.5-0.7,2.4-1.3
				c1-0.6,1.5-0.9,1.6-0.9c0.2,0,0.3,0.1,0.4,0.3c0.1,0.2,0.2,0.4,0.2,0.6c0,0.1-0.1,0.3-0.2,0.4c-0.5,2.2-0.8,3.9-0.9,5.1
				s-0.1,1.9,0,2.1c0.4,0,1-0.1,1.7-0.3c1-0.3,1.9-0.4,2.5-0.4c0.1,0.2,0.2,0.4,0.2,0.6s0,0.3-0.1,0.3c-0.1,0.1-0.2,0.1-0.5,0.2
				s-0.8,0.2-1.5,0.3C-345.7,306.4-346.4,306.6-346.7,306.8z"/>
			<path class="st4" d="M-338.8,307.9c-0.8,0-1.5-0.3-1.9-0.9s-0.7-1.3-0.7-2.1c0-1,0.3-2.2,1-3.4c0.6-1.3,1.6-2.3,2.8-3.1
				c1.2-0.8,2.3-1.2,3.2-1.2c0.7,0,1.4,0.2,2.2,0.7s1.3,1,1.6,1.5s0.5,1.3,0.5,2.2c0,1.4-0.9,2.8-2.7,4.2
				C-334.7,307.2-336.7,307.9-338.8,307.9z M-333.3,298.8c-0.1,0.2-0.3,0.2-0.6,0.2c0,0-0.1-0.1-0.3-0.2c-0.2-0.1-0.3-0.2-0.5-0.2
				c-0.6,0-1.1,0.1-1.5,0.3s-0.9,0.6-1.5,1.2c-0.7,0.6-1.2,1.3-1.6,2.1c-0.4,0.8-0.6,1.5-0.6,2.3c0,0.9,0.2,1.5,0.6,1.7
				s0.9,0.4,1.4,0.4c0.6,0,1.5-0.3,2.4-0.8s1.9-1.2,2.7-2c0.8-0.8,1.2-1.5,1.2-2c0-0.3,0-0.6-0.1-1s-0.2-0.7-0.3-0.8
				c-0.1-0.1-0.3-0.4-0.6-0.7S-333.2,298.9-333.3,298.8z"/>
			<path class="st4" d="M-327.4,304.1c0.1-0.1,0.5-0.5,1.4-1.3c0.8-0.7,1.4-1.2,1.7-1.6c1.2-1.2,2.1-1.8,2.6-1.8
				c0.4,0,0.6,0.2,0.6,0.6s-0.2,0.8-0.6,1c-0.5,0.3-1.2,0.7-2.1,1.3c-0.9,0.6-1.3,1.1-1.3,1.3c0,0.1,0.3,0.5,0.9,1.2
				s1.1,1.2,1.6,1.5c0.4,0.3,0.9,0.5,1.3,0.5h0.3c0.2,0,0.3,0.1,0.3,0.2c0,0.2-0.1,0.5-0.4,0.7s-0.7,0.4-1.1,0.4
				c-0.3,0-0.6-0.1-0.9-0.3c-0.3-0.2-0.9-0.8-1.7-1.7c-0.6-0.8-1-1.2-1.2-1.4s-0.3-0.2-0.4-0.2s-0.2,0.1-0.5,0.4s-0.5,0.5-0.5,0.6
				s0,0.7,0,1.6v0.4c0,0.2-0.1,0.4-0.3,0.5c-0.2,0.2-0.4,0.2-0.6,0.2s-0.4-0.1-0.5-0.2s-0.2-0.3-0.2-0.4c0-0.2,0.1-0.6,0.2-1.3
				c0.2-1,0.4-2.4,0.5-4c0.4-4,0.7-6.2,0.9-6.8c0.2-0.5,0.5-0.8,0.9-0.8c0.1,0,0.2,0.1,0.3,0.2c0.1,0.1,0.1,0.3,0.1,0.6
				c0,0.4-0.2,1.5-0.5,3.3C-326.9,300.6-327.2,302.4-327.4,304.1z"/>
			<path class="st4" d="M-320,308.8c-0.1,0-0.3-0.1-0.4-0.2s-0.2-0.3-0.2-0.4s0.1-0.4,0.4-1s0.7-1.2,1.2-2.1
				c0.6-0.9,1.1-1.6,1.5-2.2c0-0.1,0.1-0.1,0.1-0.2c0.3-0.5,0.8-1.3,1.5-2.2c0.7-1,1.3-1.9,1.9-2.8c0.3-0.4,0.6-0.9,1-1.4
				s0.7-0.8,0.9-0.8c0.1,0,0.2,0.1,0.4,0.3s0.2,0.3,0.2,0.5s-0.4,0.8-1.1,1.8c-1.5,2.1-3,4.2-4.4,6.3c-0.2,0.3-0.4,0.6-0.7,1.1
				c-0.5,0.8-0.8,1.3-1,1.6c-0.1,0.3-0.3,0.7-0.7,1.2S-319.9,308.8-320,308.8z"/>
			<path class="st4" d="M-306.2,302.7h0.6c1,0,1.7,0,2.2-0.1c0.2,0,0.5,0,0.7,0c0.1,0,0.3,0.1,0.6,0.2s0.5,0.2,0.5,0.3
				c0.1,0.1,0.1,0.2,0.1,0.3c0,0.2,0,0.3-0.1,0.4s-0.2,0.1-0.5,0.1c-0.1,0-0.3,0-0.5-0.1s-0.4-0.1-0.5-0.1s-0.2,0-0.6,0
				c-0.2,0-0.5,0-0.9,0c-0.3,0-0.6,0-0.8,0c-0.2,0-0.6,0-1.1,0s-0.9,0-1.1,0s-0.5,0-0.6-0.1c-0.2-0.1-0.2-0.2-0.2-0.4
				c0-0.1,0-0.2,0.1-0.3s0.3-0.2,0.7-0.3s0.7-0.1,0.9-0.1L-306.2,302.7z"/>
		</g>
	</g>
	<line id="Line_882" class="st2" x1="-2628.6" y1="2278.6" x2="-2633.2" y2="2295.7"/>
	<path id="Path_11394" class="st9" d="M-2640.1,2440.3c15.9,0,28.8,2.6,28.8,5.8s-12.9,5.8-28.8,5.8c-15.9,0-28.8-2.6-28.8-5.8
		S-2656,2440.3-2640.1,2440.3z"/>
	<path id="Path_11395" class="st2" d="M-2597.2,2356.5c-11.1,14.3-18.9,18-39.8,16.8"/>
	<path id="Path_11396" class="st0" d="M-2664.1,2309.2c6.6-6.5,41.5-6.5,48,0c6.5,6.6,6.5,41.8,0,48.3c-6.5,6.6-41.5,6.6-48,0
		C-2670.6,2350.9-2670.6,2315.7-2664.1,2309.2z"/>
	<path id="Path_11397" class="st13" d="M-2664.1,2309.2c6.6-6.5,41.5-6.5,48,0c6.5,6.6-4.8,19.3-28.8,19.3c0,19.3-12.7,35.5-19.2,29
		C-2670.6,2350.9-2670.6,2315.7-2664.1,2309.2z"/>
	<path id="Path_11398" class="st0" d="M-2660,2416.4c5.4,5.5,34.5,5.5,39.9,0s5.4-44.4,0-49.9s-34.5-5.5-39.9,0
		S-2665.5,2410.9-2660,2416.4z"/>
	<path id="Path_11399" class="st13" d="M-2634.6,2441.7c1.1-0.7,7.1-0.7,8.3,0s1.1,4.9,0,5.7h-8.3V2441.7z"/>
	<path id="Path_11400" class="st2" d="M-2646.6,2443.5c6.5-12.6,3.6-13.1,0-23.3"/>
	<path id="Path_11401" class="st13" d="M-2644.1,2426.3c0.6-3,0.8-3.8,0.6-5.9c-0.9-0.1-1.8-0.2-2.7-0.2c-1-0.1-3.2-0.3-4.1-0.4
		C-2648.9,2422-2646.9,2423.7-2644.1,2426.3z"/>
	<path id="Path_11402" class="st13" d="M-2646.6,2441.7c1.1-0.7,7.1-0.7,8.3,0c1.1,0.7,1.1,4.9,0,5.7h-8.3V2441.7z"/>
	<path id="Path_11403" class="st13" d="M-2620.9,2338.1c0.7,0,1.2-0.5,1.2-1.2s-0.5-1.2-1.2-1.2s-1.2,0.5-1.2,1.2l0,0
		C-2622.1,2337.5-2621.6,2338-2620.9,2338.1L-2620.9,2338.1z"/>
	<path id="Path_11404" class="st0" d="M-2594.3,2333.2c0.9-0.7,36.9-0.8,38,0.3s-3.5,43.6-4.5,44.4s-36.5-6.4-37.3-7.3
		C-2598.8,2369.6-2595.2,2333.9-2594.3,2333.2z"/>
	<path id="Path_11405" class="st13" d="M-2597.6,2354.1c1.3-0.2,2.6,0.7,2.8,2s-0.7,2.6-2,2.8s-2.6-0.7-2.8-2l0,0
		C-2599.8,2355.6-2598.9,2354.3-2597.6,2354.1z"/>
	<path id="Path_11406" class="st2" d="M-2622.2,2386.9c-9,5.9-24.2,12.5-17.8-14.8"/>
	<path id="Path_11407" class="st13" d="M-2619.9,2386.6c0,1.3-1,2.5-2.4,2.5c-1.3,0-2.5-1-2.5-2.4c0-1.3,1-2.5,2.3-2.5
		C-2621,2384.2-2619.9,2385.3-2619.9,2386.6z"/>
	<path id="Path_11408" class="st3" d="M-2611.8,2344.3c0,0-1.7,0.8-7.3,0.6s2.4,7.2,5.2,9
		C-2612.9,2350.8-2612.2,2347.6-2611.8,2344.3z"/>
	<path id="Path_11409" class="st2" d="M-2634.6,2443.5c6.5-12.6,3.6-13.1,0-23.3"/>
	<path id="Path_11410" class="st13" d="M-2632,2426.6c0.6-2.2,0.7-4.4,0.5-6.7c-2.1,0.3-4.2,0.4-6.3,0.4
		C-2636.5,2422.6-2634.8,2424-2632,2426.6z"/>
	<g id="Group_4466" transform="translate(-2144.282 2082.494)">
		<ellipse id="Ellipse_162" class="st11" cx="-418.3" cy="257" rx="3.1" ry="3.1"/>
		<g id="Group_4465" transform="translate(0)">
			<path id="Path_11411" class="st7" d="M-418.3,253.4c1.9,0,3.5,1.6,3.5,3.5s-1.6,3.5-3.5,3.5s-3.5-1.6-3.5-3.5l0,0
				C-421.8,255-420.2,253.5-418.3,253.4z M-418.3,254.4c-1.4,0-2.5,1.1-2.5,2.5s1.1,2.5,2.5,2.5s2.5-1.1,2.5-2.5l0,0
				C-415.8,255.6-416.9,254.4-418.3,254.4z"/>
			<path id="Path_11412" class="st12" d="M-418.1,258.7c0.6,0,1.1-0.5,1.1-1.1s-0.5-1.1-1.1-1.1s-1.1,0.5-1.1,1.1l0,0
				C-419.1,258.3-418.7,258.7-418.1,258.7z"/>
		</g>
	</g>
	<g id="Group_4467" transform="translate(-2169.061 2089.038)">
		<g class="st10">
			<path class="st12" d="M-421,259c0-0.1,0.1-0.3,0.1-0.5c0.1-0.7,0.2-1.4,0.4-2.1c0-0.2,0.1-0.3,0.1-0.4v-0.1
				c-0.2-0.1-0.3-0.2-0.3-0.3s0.1-0.2,0.1-0.3c0.1-0.1,0.2-0.1,0.3-0.1h0.4c0.2,0,0.4,0,0.7,0c0.3,0,0.5,0,0.7,0
				c0.5,0,1,0.2,1.3,0.5c0.3,0.3,0.5,0.7,0.4,1.2c0,0.6-0.3,1.1-0.9,1.5c-0.5,0.4-1.2,0.7-1.9,0.8c-0.2,0-0.3,0.1-0.4,0.1
				s-0.2,0.1-0.3,0.1c-0.1,0.1-0.3,0.1-0.4,0.1s-0.2-0.1-0.3-0.2C-421.1,259.2-421.1,259.1-421,259c-0.1,0.1-0.1,0,0-0.1L-421,259z
				 M-420.2,258.9c0.1,0,0.4-0.1,0.9-0.2s0.9-0.3,1.2-0.6c0.3-0.3,0.5-0.6,0.5-1c0-0.3-0.1-0.6-0.3-0.8c-0.2-0.2-0.5-0.3-0.9-0.3
				c-0.2,0-0.6,0-0.9,0h-0.1c-0.3,1.3-0.5,2.2-0.5,2.7C-420.3,258.8-420.3,258.9-420.2,258.9z"/>
			<path class="st12" d="M-415.7,258.4L-415.7,258.4c0.3-0.5,0.6-0.9,0.9-1.2c0.3-0.3,0.6-0.4,0.8-0.4c0.2,0,0.4,0.1,0.5,0.2
				c0.1,0.1,0.2,0.3,0.2,0.4s0,0.2-0.1,0.2s-0.1,0.1-0.2,0.1s-0.2-0.1-0.3-0.2c-0.1-0.1-0.1-0.1-0.2-0.1s-0.4,0.2-0.8,0.6
				s-0.6,0.9-0.7,1.5c0,0.2-0.1,0.3-0.2,0.3c-0.1,0.1-0.2,0.1-0.3,0.1c-0.1,0-0.2-0.1-0.3-0.2c0-0.2-0.1-0.4,0-0.8
				c0-0.1,0-0.3,0-0.6c0-0.2,0.1-0.5,0.1-0.8c0-0.1,0-0.2,0-0.2c0-0.2,0.1-0.3,0.1-0.4s0.1-0.1,0.2-0.2c0.1-0.1,0.2-0.1,0.3-0.1
				c0.1,0,0.2,0,0.2,0.1c0.1,0.1,0.1,0.1,0.1,0.2c0,0.1-0.1,0.3-0.2,0.6c0,0.1-0.1,0.2-0.1,0.4V258.4z"/>
			<path class="st12" d="M-413.2,259.9c-0.1,0-0.2,0-0.3-0.1c-0.1,0-0.1-0.2-0.1-0.4c0-0.1,0-0.2,0-0.2c0-0.1,0.1-0.1,0.2-0.1
				s0.2,0,0.4,0c0.1,0,0.2,0,0.3,0.1c0.1,0.1,0.1,0.1,0.1,0.2s0,0.2-0.1,0.2c0,0.1-0.1,0.1-0.2,0.2
				C-413,259.9-413.1,259.9-413.2,259.9z"/>
			<path class="st12" d="M-404.1,259.5c0.1,0,0.2,0.1,0.2,0.2c0,0.2-0.2,0.4-0.7,0.6c-0.4,0.2-0.9,0.3-1.3,0.3s-0.7-0.2-1-0.4
				c-0.3-0.3-0.4-0.6-0.4-1c0-0.5,0.2-0.9,0.6-1.5c0.3-0.5,0.8-1,1.2-1.3c0.4-0.3,0.9-0.5,1.4-0.4c0.3,0,0.5,0.1,0.6,0.3
				c0.1,0.2,0.2,0.4,0.2,0.6s0,0.4-0.1,0.5c0,0.1-0.1,0.2-0.2,0.2c-0.1,0.1-0.2,0.1-0.3,0.1c-0.1,0-0.1,0-0.2-0.1s-0.1-0.1-0.1-0.2
				s0-0.2,0.1-0.3c0-0.1,0.1-0.2,0.1-0.3s0-0.2-0.1-0.2c-0.3,0-0.6,0.1-1,0.4c-0.4,0.3-0.7,0.6-1,1.1c-0.3,0.4-0.4,0.8-0.4,1.2
				c0,0.2,0,0.4,0.2,0.6c0.1,0.2,0.3,0.3,0.6,0.3c0.1,0,0.3,0,0.6-0.1c0.2-0.1,0.4-0.2,0.6-0.3
				C-404.3,259.6-404.2,259.5-404.1,259.5z"/>
			<path class="st12" d="M-402.2,259.2L-402.2,259.2c0.3-0.5,0.6-0.9,0.9-1.2c0.3-0.3,0.6-0.4,0.8-0.4c0.2,0,0.4,0.1,0.5,0.2
				s0.2,0.3,0.2,0.4s0,0.2-0.1,0.2c0,0.1-0.1,0.1-0.2,0.1s-0.2-0.1-0.3-0.2c-0.1-0.1-0.1-0.1-0.2-0.1s-0.4,0.2-0.8,0.6
				s-0.6,0.9-0.7,1.5c0,0.2-0.1,0.3-0.2,0.3c-0.1,0.1-0.2,0.1-0.3,0.1c-0.1,0-0.2-0.1-0.3-0.2c0-0.2-0.1-0.4,0-0.8
				c0-0.1,0-0.3,0-0.6c0-0.2,0.1-0.5,0.1-0.8c0-0.1,0-0.2,0-0.2c0-0.2,0.1-0.3,0.1-0.4s0.1-0.1,0.2-0.2s0.2-0.1,0.3-0.1
				c0.1,0,0.2,0,0.2,0.1c0.1,0.1,0.1,0.1,0.1,0.2s-0.1,0.3-0.2,0.6c0,0.1-0.1,0.2-0.1,0.4V259.2z"/>
			<path class="st12" d="M-399.7,260.8c-0.1,0-0.2,0-0.3-0.1c-0.1,0-0.1-0.2-0.1-0.4c0-0.1,0-0.2,0-0.2c0-0.1,0.1-0.1,0.2-0.1
				s0.2,0,0.4,0c0.1,0,0.2,0,0.3,0.1s0.1,0.1,0.1,0.2s0,0.2-0.1,0.2c0,0.1-0.1,0.1-0.2,0.2C-399.5,260.7-399.6,260.8-399.7,260.8z"
				/>
		</g>
		<path id="Path_11413" class="st2" d="M-408.4,254.9c0,0-0.6,11.6-2.5,26"/>
		<path id="Path_11414" class="st2" d="M-421.1,262c0,0,23.3,1.6,24.5,1.2"/>
		<path id="Path_11415" class="st2" d="M-406.7,267.3c0,0,9.2,0.7,9.5,0.7"/>
		<path id="Path_11416" class="st2" d="M-402.5,272.2c0,0,4.2,0.5,4.6,0.4"/>
		<path id="Path_11417" class="st2" d="M-421.6,265.8c0,0,4.3,0.4,4.6,0.3"/>
	</g>
	<path id="Path_11379" class="st2" d="M-2373.9,2443.4c0.7-8.8,0.7-17.7,0-26.6"/>
	<path id="Path_11381" class="st13" d="M-2373.9,2438c1.1-0.7,6.8-0.7,7.9,0c1.1,0.7,1.1,4.7,0,5.5h-7.9V2438z"/>
	<path id="Path_11382" class="st2" d="M-2385.5,2443.4c0.7-8.8,0.7-17.7,0-26.6"/>
	<path id="Path_11384" class="st13" d="M-2385.5,2438c1.1-0.7,6.8-0.7,7.9,0c1.1,0.7,1.1,4.7,0,5.5h-7.9V2438z"/>
</g>
</svg>
