<?xml version="1.0" encoding="utf-8"?>
<!-- Generator: Adobe Illustrator 19.1.0, SVG Export Plug-In . SVG Version: 6.00 Build 0)  -->
<svg version="1.1" id="Layer_1" xmlns="http://www.w3.org/2000/svg" xmlns:xlink="http://www.w3.org/1999/xlink" x="0px" y="0px"
	 viewBox="0 0 268 82" style="enable-background:new 0 0 268 82;" xml:space="preserve">
<style type="text/css">
	.st0{fill:#E2E2E2;}
	.st1{fill:#27273B;}
	.st2{fill:#FFF7EA;}
	.st3{fill:#FFD400;}
	.st4{opacity:5.000000e-002;fill:#DFECF8;}
	.st5{fill:#FF5F00;}
	.st6{opacity:0.7;}
	.st7{fill:none;}
	.st8{fill-rule:evenodd;clip-rule:evenodd;fill:#FFD400;}
	.st9{fill-rule:evenodd;clip-rule:evenodd;fill:#E0B70A;}
	.st10{fill:#FFFFFF;stroke:#231F20;stroke-linecap:round;stroke-miterlimit:10;}
	.st11{fill:none;stroke:#FFFFFF;stroke-linecap:round;stroke-miterlimit:10;}
	.st12{fill:#FFFFFF;}
	.st13{fill:#FAFAFA;}
	.st14{fill:none;stroke:#949494;stroke-width:0.25;stroke-miterlimit:10;}
	.st15{fill:none;stroke:#4D4D4D;stroke-width:1.5;stroke-linecap:round;stroke-miterlimit:10;}
	.st16{fill:#C45022;}
	.st17{fill:#D37C59;}
	.st18{fill:none;stroke:#BFBFBF;stroke-width:0.75;stroke-miterlimit:10;}
	.st19{fill:#4D4D4D;}
	.st20{fill:#D25F29;}
	.st21{fill:none;stroke:#333349;stroke-miterlimit:10;}
	.st22{fill:#333349;}
	.st23{fill:none;stroke:#D37C59;stroke-linecap:round;stroke-miterlimit:10;}
	.st24{fill:none;stroke:#C45022;stroke-width:0.5;stroke-miterlimit:10;}
	.st25{fill:none;stroke:#737373;stroke-linecap:round;stroke-miterlimit:10;}
	.st26{fill:none;stroke:#4D4D4D;stroke-width:0.5;stroke-miterlimit:10;}
	.st27{fill:none;stroke:#10AAE0;stroke-linecap:round;stroke-miterlimit:10;}
	.st28{fill:none;stroke:#D37C59;stroke-width:2;stroke-linecap:round;stroke-miterlimit:10;}
	.st29{fill:#AEAEC4;}
	.st30{fill:none;stroke:#B3B3B3;stroke-width:1.5;stroke-miterlimit:10;}
	.st31{fill:#8C8C8C;}
	.st32{fill:#28283C;}
	.st33{fill-rule:evenodd;clip-rule:evenodd;fill:#A3A3A3;}
	.st34{fill-rule:evenodd;clip-rule:evenodd;fill:#FF5F00;}
	.st35{fill:none;stroke:#FFFFFF;stroke-width:0.75;stroke-linecap:round;stroke-miterlimit:10;}
	.st36{fill:#949494;}
	.st37{fill:none;stroke:#BABABA;stroke-linecap:round;stroke-miterlimit:10;}
	.st38{fill:#F7F7F7;}
	.st39{fill:#F8F7F2;}
	.st40{fill:url(#SVGID_9_);}
	.st41{fill:#A6A6A6;}
	.st42{fill:#929292;}
	.st43{fill:#2F2F2F;}
	.st44{fill:#3D3D3D;}
	.st45{fill:#545454;}
	.st46{fill:#595959;stroke:#898989;stroke-width:0.25;stroke-miterlimit:10;}
	.st47{fill:#B3B3B3;}
	.st48{fill:none;stroke:#A6A6A6;stroke-linecap:round;stroke-miterlimit:10;}
	.st49{fill:none;stroke:#D9D9D9;stroke-linecap:round;stroke-miterlimit:10;}
	.st50{fill:#707070;}
	.st51{fill:#BFBFBF;}
	.st52{fill:#9F9F9F;}
	.st53{fill:#414141;}
	.st54{fill-rule:evenodd;clip-rule:evenodd;fill:#231F20;}
	.st55{fill-rule:evenodd;clip-rule:evenodd;fill:#FFF7EB;}
	.st56{fill-rule:evenodd;clip-rule:evenodd;fill:#ED3724;}
	.st57{fill-rule:evenodd;clip-rule:evenodd;}
	.st58{fill:none;stroke:#28283C;stroke-miterlimit:10;}
	.st59{fill:#FFFFFF;stroke:#CCCCCC;stroke-miterlimit:10;}
	.st60{fill:url(#SVGID_10_);}
	.st61{fill:url(#SVGID_11_);}
	.st62{fill:url(#SVGID_12_);}
	.st63{font-family:'MyriadPro-Regular';}
	.st64{font-size:12.9443px;}
	.st65{font-size:12.9441px;}
	.st66{font-size:12.9442px;}
	.st67{font-size:12.9444px;}
	.st68{fill:url(#SVGID_17_);}
	.st69{clip-path:url(#SVGID_21_);}
	.st70{fill:none;stroke:#E6E6E6;stroke-miterlimit:10;}
</style>
<g>
	<g>
		<g>
			<path class="st8" d="M189.1,18.3c18.1-0.8,35.9-1.6,53.7-2.5c0-0.1,0-0.2,0-0.3c-1.7-0.1-3.5-0.1-5.2-0.2
				c-7-0.2-13.9-0.3-20.9-0.5c-5.4-0.1-10.8-0.3-16.3-0.4c-4.1-0.1-8.3-0.1-12.4-0.3c-0.6,0-1.4-0.3-1.8-0.7
				c-3.9-4-7.7-8.1-11.6-12.2c-0.1-0.1-0.2-0.3-0.6-0.8c31.2,4.7,62,9.3,92.8,13.9c0,0.1,0.1,0.2,0.1,0.4
				c-19.5,12.4-39,24.7-58.6,37.2C201.9,40.8,195.6,29.7,189.1,18.3z"/>
			<path class="st9" d="M181,39.1c2.1-6.3,4-12.2,5.9-18.1c0.1,0,0.3,0,0.4-0.1c2.5,4.6,5,9.2,7.7,14
				C190.4,36.3,185.9,37.6,181,39.1z"/>
		</g>
		<line class="st10" x1="134.3" y1="32.3" x2="154" y2="25.8"/>
		<line class="st11" x1="154.6" y1="25.6" x2="163.8" y2="22.6"/>
		<line class="st10" x1="121.6" y1="44.9" x2="154.2" y2="34.6"/>
		<line class="st10" x1="141" y1="46.7" x2="154.1" y2="42.7"/>
		<line class="st11" x1="154.5" y1="34.5" x2="163.8" y2="31.7"/>
		<line class="st11" x1="154.1" y1="42.6" x2="169.7" y2="37.5"/>
	</g>
	<text transform="matrix(0.9822 -0.1877 0.1877 0.9822 3.0339 65.2244)" class="st63 st64">0</text>
	<text transform="matrix(0.9822 -0.1877 0.1877 0.9822 22.0436 41.1361)" class="st63 st64">1</text>
	<text transform="matrix(0.484 0.8751 -0.8751 0.484 51.504 51.8825)" class="st63 st65">0</text>
	<text transform="matrix(0.9682 -0.2502 0.2502 0.9682 93.5068 74.337)" class="st63 st66">0</text>
	<text transform="matrix(0.9409 -0.3387 0.3387 0.9409 83.6683 51.9649)" class="st63 st65">1</text>
	<text transform="matrix(-0.1952 0.9808 -0.9808 -0.1952 104.126 33.6098)" class="st63 st66">1</text>
	<text transform="matrix(0.9822 -0.1877 0.1877 0.9822 107.0367 21.8551)" class="st63 st64">0</text>
	<text transform="matrix(0.4714 -0.8819 0.8819 0.4714 60.1803 32.2351)" class="st63 st65">1</text>
	<text transform="matrix(0.8891 -0.4578 0.4578 0.8891 36.2514 78.5879)" class="st63 st67">1</text>
</g>
</svg>
