<svg xmlns="http://www.w3.org/2000/svg" viewBox="0 0 232.5 91">
  <defs>
    <style>
      .cls-1, .cls-2, .cls-4, .cls-7 {
        fill: none;
      }

      .cls-1 {
        stroke: #e8e8e8;
      }

      .cls-1, .cls-7 {
        stroke-width: 4px;
      }

      .cls-2, .cls-4, .cls-5 {
        stroke: #33335d;
        stroke-miterlimit: 10;
      }

      .cls-2 {
        stroke-linecap: round;
        stroke-linejoin: round;
      }

      .cls-3 {
        fill: #565b73;
      }

      .cls-5 {
        fill: #fff;
      }

      .cls-6 {
        fill: #ececff;
      }

      .cls-7 {
        stroke: #e9e9ed;
      }

      .cls-8 {
        fill: #26263a;
        font-size: 13px;
        font-family: Lato-Heavy, Lato;
        font-weight: 800;
      }

      .cls-9 {
        fill: #dddde1;
        font-size: 11px;
        font-family: Lato-Regular, Lato;
      }

      .cls-10 {
        fill: green;
      }

      .cls-11 {
        fill: #33335d;
      }

      .cls-12 {
        fill: #e9e9ed;
      }
    </style>
  </defs>
  <g id="Group_3042" data-name="Group 3042" transform="translate(-4336.5 -1031.5)">
    <line id="Line_118" data-name="Line 118" class="cls-1" x2="114.221" transform="translate(4360.458 1095.5)"/>
    <path id="XMLID_111_" class="cls-2" d="M177.956,382.985H33.07A8.593,8.593,0,0,1,24.5,374.4H186.6A8.655,8.655,0,0,1,177.956,382.985Z" transform="translate(4312.5 739.015)"/>
    <path id="XMLID_110_" class="cls-3" d="M144.259,375.664h-27.6A1.148,1.148,0,0,1,115.5,374.5h29.994A1.388,1.388,0,0,1,144.259,375.664Z" transform="translate(4287.588 738.988)"/>
    <path id="XMLID_109_" class="cls-4" d="M177.249,343.915H45v-72.32a9.09,9.09,0,0,1,9.078-9.095H168.026a9.245,9.245,0,0,1,9.223,9.24v72.175Z" transform="translate(4306.888 769.5)"/>
    <path id="XMLID_108_" class="cls-5" d="M51.9,345.295V274.866a6.05,6.05,0,0,1,6.028-5.966H168.1a6.1,6.1,0,0,1,6.028,5.966v70.429" transform="translate(4304.999 767.757)"/>
    <path id="Path_9203" data-name="Path 9203" class="cls-6" d="M0,0H116.046V19.235H0Z" transform="translate(4360.475 1042.259)"/>
    <line id="Line_120" data-name="Line 120" class="cls-7" x2="114.221" transform="translate(4360.458 1099.5)"/>
    <line id="Line_119" data-name="Line 119" class="cls-7" x2="114.221" transform="translate(4360.458 1090.5)"/>
    <line id="Line_121" data-name="Line 121" class="cls-7" x2="114.221" transform="translate(4360.458 1108.5)"/>
    <text id="Bank_A_c" data-name="Bank A/c" class="cls-8" transform="translate(4391.949 1056)"><tspan x="-26.604" y="0">Bank A/c</tspan></text>
    <text id="Balance:_5000" data-name="Balance: 5000" class="cls-9" transform="translate(4434.813 1075.27)"><tspan x="-34.26" y="0">Balance: 5000</tspan></text>
    <rect id="Rectangle_1335" data-name="Rectangle 1335" class="cls-6" width="41.991" height="7.4" transform="translate(4507.365 1050.3)"/>
    <path id="Path_9136" data-name="Path 9136" class="cls-10" d="M0,19.693a7.58,7.58,0,0,1,3.043-2.431,3.062,3.062,0,0,1,3.269.659,8.16,8.16,0,0,1,2.056,3.069c.37.865.7,1.772,1.049,2.657.062.144.1.268.185.474A77.317,77.317,0,0,1,33.167,0c.247.247.432.453.617.639.185.206.37.412.576.639-.658.536-1.3,1.03-1.912,1.545A68.822,68.822,0,0,0,20.912,15.244a121.245,121.245,0,0,0-8.348,13.472,2.027,2.027,0,0,1-.617.639c-1.378,1.009-2.755,1.978-4.133,2.966-.123.1-.267.185-.411.309C6.045,27.666,4.03,23.134,0,19.693Z" transform="translate(4534.64 1071.77)"/>
    <path id="Path_9139" data-name="Path 9139" class="cls-6" d="M1,74.757a7.773,7.773,0,0,0,7.743,7.757H48.775l-1.549-1.4a8.462,8.462,0,0,1-2.865-6.361V67H1Z" transform="translate(4489.279 1027.928)"/>
    <path id="Path_9140" data-name="Path 9140" class="cls-11" d="M8.517,68.263A8.5,8.5,0,0,1,0,59.73V51.585A.366.366,0,0,1,.387,51.2H16.261V8.533A8.5,8.5,0,0,1,24.778,0H68.139V.853a7.8,7.8,0,0,0-6.969,7.68v51.2a8.529,8.529,0,0,1-7.433,8.455l-.542.078ZM24.778.776a7.773,7.773,0,0,0-7.743,7.757V51.2H44.523a.366.366,0,0,1,.387.388V59.73a7.743,7.743,0,1,0,15.486,0V8.533a8.462,8.462,0,0,1,2.865-6.361L64.81.776H24.778ZM.774,59.73a7.773,7.773,0,0,0,7.743,7.757H48.549L47,66.091a8.462,8.462,0,0,1-2.865-6.361V51.973H.774Z" transform="translate(4489.504 1042.955)"/>
    <rect id="Rectangle_1321" data-name="Rectangle 1321" class="cls-12" width="21.681" height="1.5" transform="translate(4517.379 1047.609)"/>
    <rect id="Rectangle_1323" data-name="Rectangle 1323" class="cls-12" width="10.066" height="1.5" transform="translate(4512.733 1059.245)"/>
    <rect id="Rectangle_1324" data-name="Rectangle 1324" class="cls-12" width="7.743" height="1.5" transform="translate(4512.733 1063.899)"/>
    <rect id="Rectangle_1325" data-name="Rectangle 1325" class="cls-12" width="12.389" height="1.5" transform="translate(4512.733 1068.554)"/>
    <rect id="Rectangle_1326" data-name="Rectangle 1326" class="cls-12" width="5.42" height="1.5" transform="translate(4512.733 1073.208)"/>
    <rect id="Rectangle_1327" data-name="Rectangle 1327" class="cls-12" width="10.066" height="1.5" transform="translate(4512.733 1077.862)"/>
    <rect id="Rectangle_1328" data-name="Rectangle 1328" class="cls-12" width="3.097" height="1.5" transform="translate(4540.609 1059.245)"/>
    <rect id="Rectangle_1329" data-name="Rectangle 1329" class="cls-12" width="3.097" height="1.5" transform="translate(4540.609 1063.899)"/>
    <rect id="Rectangle_1330" data-name="Rectangle 1330" class="cls-12" width="3.097" height="1.5" transform="translate(4540.609 1068.554)"/>
    <rect id="Rectangle_1331" data-name="Rectangle 1331" class="cls-12" width="3.097" height="1.5" transform="translate(4540.609 1073.208)"/>
    <rect id="Rectangle_1332" data-name="Rectangle 1332" class="cls-12" width="3.097" height="1.5" transform="translate(4540.609 1077.862)"/>
    <path id="Path_9141" data-name="Path 9141" class="cls-11" d="M9.7,81.71V80.158H9.158A1.886,1.886,0,0,1,7.3,78.3v-.233h.542V78.3a1.358,1.358,0,0,0,1.316,1.319h1.549A1.358,1.358,0,0,0,12.023,78.3V76.745a1.358,1.358,0,0,0-1.316-1.319H9.158A1.886,1.886,0,0,1,7.3,73.565V72.013a1.886,1.886,0,0,1,1.858-1.862H9.7V68.6h.542v1.551h.542a1.886,1.886,0,0,1,1.858,1.862v.233H12.1v-.233a1.358,1.358,0,0,0-1.316-1.319H9.236a1.375,1.375,0,0,0-1.394,1.319v1.551a1.358,1.358,0,0,0,1.316,1.319h1.549a1.886,1.886,0,0,1,1.858,1.862V78.3a1.886,1.886,0,0,1-1.858,1.862h-.542V81.71Z" transform="translate(4487.856 1027.569)"/>
    <rect id="Rectangle_1333" data-name="Rectangle 1333" class="cls-12" width="17.035" height="1.5" transform="translate(4512.733 1089.498)"/>
    <rect id="Rectangle_1334" data-name="Rectangle 1334" class="cls-12" width="17.035" height="1.5" transform="translate(4512.733 1084.844)"/>
    <g id="Group_2860" data-name="Group 2860" transform="translate(4502.357 1097.953)">
      <path id="Path_9142" data-name="Path 9142" class="cls-11" d="M21.865,72.186H18.458l-.31,2.327c.232,0,.387-.078.774-.078a3.97,3.97,0,0,1,1.936.465,2.578,2.578,0,0,1,1.316,2.327,3.121,3.121,0,0,1-3.33,3.1,4.983,4.983,0,0,1-2.245-.543l.31-.931a3.923,3.923,0,0,0,1.936.465,2.025,2.025,0,0,0,2.168-1.939c0-1.164-.774-2.017-2.633-2.017-.542,0-.929.078-1.239.078l.619-4.344H22.1v1.086Z" transform="translate(-16.6 -70.945)"/>
      <path id="Path_9143" data-name="Path 9143" class="cls-11" d="M31.594,75.554c0,3.1-1.161,4.732-3.175,4.732-1.781,0-2.942-1.629-3.02-4.654,0-3.025,1.316-4.732,3.175-4.732C30.51,70.978,31.594,72.684,31.594,75.554Zm-4.878.155c0,2.327.7,3.723,1.858,3.723,1.239,0,1.858-1.474,1.858-3.8,0-2.25-.542-3.723-1.858-3.723C27.491,71.908,26.716,73.227,26.716,75.709Z" transform="translate(-18.586 -70.9)"/>
      <path id="Path_9144" data-name="Path 9144" class="cls-11" d="M40.794,75.554c0,3.1-1.161,4.732-3.175,4.732-1.781,0-2.942-1.629-3.02-4.654,0-3.025,1.316-4.732,3.175-4.732C39.71,70.978,40.794,72.684,40.794,75.554Zm-4.878.155c0,2.327.7,3.723,1.858,3.723,1.239,0,1.858-1.474,1.858-3.8,0-2.25-.542-3.723-1.858-3.723C36.691,71.908,35.916,73.227,35.916,75.709Z" transform="translate(-20.662 -70.9)"/>
      <path id="Path_9145" data-name="Path 9145" class="cls-11" d="M49.994,75.554c0,3.1-1.161,4.732-3.175,4.732-1.781,0-2.942-1.629-3.02-4.654,0-3.025,1.316-4.732,3.175-4.732C48.91,70.978,49.994,72.684,49.994,75.554Zm-4.878.155c0,2.327.7,3.723,1.858,3.723,1.239,0,1.858-1.474,1.858-3.8,0-2.25-.542-3.723-1.858-3.723C45.891,71.908,45.116,73.227,45.116,75.709Z" transform="translate(-22.739 -70.9)"/>
    </g>
  </g>
</svg>
