<svg xmlns="http://www.w3.org/2000/svg" xmlns:xlink="http://www.w3.org/1999/xlink" viewBox="0 0 424 252.998">
  <defs>
    <style>
      .cls-1, .cls-16, .cls-7 {
        fill: none;
      }

      .cls-2 {
        fill: #f4f5f9;
      }

      .cls-13, .cls-3, .cls-5, .cls-6, .cls-9 {
        fill: #fff;
      }

      .cls-3, .cls-5, .cls-6, .cls-7, .cls-9 {
        stroke-miterlimit: 10;
      }

      .cls-4 {
        fill: #f3f3ff;
      }

      .cls-5, .cls-6, .cls-7, .cls-9 {
        stroke: #26263a;
      }

      .cls-5, .cls-6, .cls-7 {
        stroke-width: 2px;
      }

      .cls-6, .cls-7, .cls-9 {
        stroke-linecap: round;
      }

      .cls-8 {
        fill: #5f6b72;
        opacity: 0.15;
      }

      .cls-10 {
        fill: #e34b26;
      }

      .cls-11 {
        clip-path: url(#clip-path);
      }

      .cls-12, .cls-18 {
        fill: #26263a;
      }

      .cls-13 {
        font-size: 8px;
        font-family: Roboto-Regular, Roboto;
      }

      .cls-14 {
        fill: #36376a;
      }

      .cls-15 {
        fill: #f3f3f5;
        opacity: 0.59;
      }

      .cls-16 {
        stroke: #dddde1;
      }

      .cls-17, .cls-18 {
        stroke: none;
      }
    </style>
    <clipPath id="clip-path">
      <rect class="cls-1" width="29" height="6"/>
    </clipPath>
  </defs>
  <g id="Group_26" data-name="Group 26" transform="translate(-785 -2468)">
    <path id="Path_9456" data-name="Path 9456" class="cls-2" d="M607.1,118.659H562.829c-5.874,0-11.462-1.432-15.76-5.727-5.444-5.441-6.877-12.313-6.447-19.615.573-8.447,5.444-13.6,13.038-16.465a35.478,35.478,0,0,1,7.45-1.861c1.433-.143,1.719-.859,1.862-2a31.82,31.82,0,0,1,5.3-13.6,25.148,25.148,0,0,1,18.2-11.454c9.313-1.432,17.766.573,24.643,7.159a22.137,22.137,0,0,1,3.439,3.866,2.142,2.142,0,0,0,3.009.859c9.026-3.579,17.623-3.15,25.646,2.863,6.017,4.582,8.6,10.881,8.6,18.326,0,1,0,1.718,1.29,2,12.751,3.007,16.047,14.174,13.324,24.482-2.006,7.445-7.307,11.167-14.9,11.167Z" transform="translate(244.45 2420.506)"/>
    <g id="Path_9459" data-name="Path 9459" class="cls-3" transform="translate(454.695 2483.752)">
      <path class="cls-17" d="M 688.7937622070313 236.2459259033203 L 395.2273864746094 236.2459259033203 C 393.166748046875 236.2459259033203 391.16357421875 235.8390960693359 389.2735290527344 235.0366821289063 C 387.4503784179688 234.2626800537109 385.8112487792969 233.1560516357422 384.4017944335938 231.7475891113281 C 382.9922485351563 230.3390502929688 381.8847961425781 228.7010040283203 381.1101989746094 226.8790435791016 C 380.30712890625 224.9900970458984 379.8999633789063 222.9881286621094 379.8999633789063 220.9286804199219 L 379.8999633789063 207.9000091552734 L 379.8999633789063 206.9000091552734 L 380.8999633789063 206.9000091552734 L 702.9778442382813 206.9000091552734 L 703.9778442382813 206.9000091552734 L 703.9778442382813 207.9000091552734 L 703.9778442382813 220.9200439453125 C 704.0487060546875 224.9564971923828 702.5183715820313 228.7774810791016 699.6681518554688 231.6800537109375 C 698.2656860351563 233.1082611083984 696.6239624023438 234.2313842773438 694.7885131835938 235.0182647705078 C 692.8883666992188 235.8328857421875 690.8714599609375 236.2459259033203 688.7937622070313 236.2459259033203 Z"/>
      <path class="cls-18" d="M 688.7937622070313 235.2459259033203 C 696.6738891601563 235.2459259033203 703.12109375 228.8031005859375 702.9778442382813 220.9286499023438 L 702.9778442382813 207.9000091552734 L 380.8999633789063 207.9000091552734 L 380.8999633789063 220.9286499023438 C 380.8999633789063 228.8031005859375 387.3473205566406 235.2459259033203 395.2273559570313 235.2459259033203 L 688.7937622070313 235.2459259033203 M 688.7937622070313 237.2459259033203 L 395.2273559570313 237.2459259033203 C 393.03173828125 237.2459259033203 390.8970947265625 236.8123321533203 388.8827819824219 235.9571533203125 C 386.9410095214844 235.1328277587891 385.195556640625 233.9544677734375 383.6949157714844 232.4549255371094 C 382.1942138671875 230.9552459716797 381.0149536132813 229.2108764648438 380.1899108886719 227.2702331542969 C 379.3339538574219 225.2569274902344 378.8999633789063 223.123291015625 378.8999633789063 220.9286499023438 L 378.8999633789063 207.9000091552734 L 378.8999633789063 205.9000091552734 L 380.8999633789063 205.9000091552734 L 702.9778442382813 205.9000091552734 L 704.9778442382813 205.9000091552734 L 704.9778442382813 207.9000091552734 L 704.9778442382813 220.9105682373047 C 705.0150146484375 223.0854034423828 704.6177978515625 225.2034301757813 703.7973022460938 227.2060089111328 C 703.0059814453125 229.1375122070313 701.8567504882813 230.8785552978516 700.3816528320313 232.3806915283203 C 698.8875122070313 233.9022827148438 697.1382446289063 235.0989227294922 695.1826171875 235.9373321533203 C 693.1571655273438 236.8056488037109 691.0076904296875 237.2459259033203 688.7937622070313 237.2459259033203 Z"/>
    </g>
    <path id="Path_9457" data-name="Path 9457" class="cls-4" d="M686.315,224.608H397.62A16.626,16.626,0,0,1,381,208v10.595A16.626,16.626,0,0,0,397.62,235.2H686.458a16.626,16.626,0,0,0,16.62-16.608V208A16.657,16.657,0,0,1,686.315,224.608Z" transform="translate(454.739 2483.796)"/>
    <path id="Path_9458" data-name="Path 9458" class="cls-5" d="M660.53,261.433H407.8a8.619,8.619,0,0,1-8.6-8.59V92.49a8.619,8.619,0,0,1,8.6-8.59H660.53a8.619,8.619,0,0,1,8.6,8.59V252.843A8.619,8.619,0,0,1,660.53,261.433Z" transform="translate(462.614 2428.219)"/>
    <path id="Path_9460" data-name="Path 9460" class="cls-4" d="M657.775,85.3H410.486a9.9,9.9,0,0,0-9.886,9.879V250.521a9.9,9.9,0,0,0,9.886,9.879H657.775a9.9,9.9,0,0,0,9.886-9.879V95.179A9.9,9.9,0,0,0,657.775,85.3Zm.573,156.773a10.058,10.058,0,0,1-10.172,9.879H419.942a10.058,10.058,0,0,1-10.172-9.879V103.34a10.058,10.058,0,0,1,10.172-9.879H648.319a10.058,10.058,0,0,1,10.172,9.879V242.074Z" transform="translate(463.22 2428.823)"/>
    <line id="Line_184" data-name="Line 184" class="cls-6" x2="378.448" transform="translate(796.768 2719.998)"/>
    <line id="Line_185" data-name="Line 185" class="cls-7" x2="20.918" transform="translate(1187.082 2719.998)"/>
    <rect id="Rectangle_2165" data-name="Rectangle 2165" class="cls-4" width="232" height="22" transform="translate(881 2531)"/>
    <g id="Group_3953" data-name="Group 3953" transform="translate(785 2468)">
      <ellipse id="Ellipse_101" data-name="Ellipse 101" class="cls-8" cx="34.028" cy="32.713" rx="34.028" ry="32.713" transform="translate(311.622 10.044)"/>
      <ellipse id="Ellipse_102" data-name="Ellipse 102" class="cls-9" cx="31.731" cy="31.709" rx="31.731" ry="31.709" transform="translate(316.216 7.462)"/>
      <g id="Group_3996" data-name="Group 3996" transform="translate(326.307 18.479)">
        <ellipse id="Ellipse_128" data-name="Ellipse 128" class="cls-10" cx="6.785" cy="6.741" rx="6.785" ry="6.741" transform="translate(16.128 13.881)"/>
        <path id="Path_10039" data-name="Path 10039" class="cls-10" d="M241.414,13.482a1.041,1.041,0,0,0,.553.155,1.105,1.105,0,0,0,.9-.5l3.2-5.291a4.161,4.161,0,0,0,1.35.255,4.02,4.02,0,0,0,4.04-4.04,4.04,4.04,0,1,0-8.081-.022,4.249,4.249,0,0,0,1,2.646l-3.243,5.391A.955.955,0,0,0,241.414,13.482Z" transform="translate(-214.261)"/>
        <path id="Path_10040" data-name="Path 10040" class="cls-10" d="M290.785,163.3a4.034,4.034,0,0,0-3.9,3h-4.837a1.048,1.048,0,0,0-1.052,1,1.012,1.012,0,0,0,1.052,1h4.793a4.036,4.036,0,0,0,7.937-1.04A3.909,3.909,0,0,0,290.785,163.3Z" transform="translate(-249.896 -145.224)"/>
        <path id="Path_10041" data-name="Path 10041" class="cls-10" d="M211.1,262.227l-1.2-4.638a1.032,1.032,0,0,0-2,.5l1.2,4.693a3.968,3.968,0,1,0,2-.553Z" transform="translate(-184.087 -228.377)"/>
        <path id="Path_10042" data-name="Path 10042" class="cls-10" d="M13.526,202l-6.343,2.192A4.067,4.067,0,0,0,4.04,202.7a4.04,4.04,0,1,0,4.04,4.04c0-.2-.055-.454-.055-.653l6.143-2.147a1.048,1.048,0,0,0,.653-1.3A.981.981,0,0,0,13.526,202Z" transform="translate(0 -179.587)"/>
        <path id="Path_10043" data-name="Path 10043" class="cls-10" d="M71.284,60.039,69.093,58.39a4.066,4.066,0,0,0,.3-1.55,4.046,4.046,0,1,0-4.051,4.04,4.334,4.334,0,0,0,2.5-.852l2.192,1.694a.925.925,0,0,0,.6.2,1.058,1.058,0,0,0,.8-.4A1.011,1.011,0,0,0,71.284,60.039Z" transform="translate(-54.515 -46.955)"/>
      </g>
    </g>
    <g id="Repeat_Grid_17" data-name="Repeat Grid 17" class="cls-11" transform="translate(889 2539)">
      <g transform="translate(-889 -1794)">
        <circle id="Ellipse_126" data-name="Ellipse 126" class="cls-12" cx="3" cy="3" r="3" transform="translate(889 1794)"/>
      </g>
      <g transform="translate(-878 -1794)">
        <circle id="Ellipse_126-2" data-name="Ellipse 126" class="cls-12" cx="3" cy="3" r="3" transform="translate(889 1794)"/>
      </g>
      <g transform="translate(-867 -1794)">
        <circle id="Ellipse_126-3" data-name="Ellipse 126" class="cls-12" cx="3" cy="3" r="3" transform="translate(889 1794)"/>
      </g>
    </g>
    <rect id="Rectangle_1572" data-name="Rectangle 1572" class="cls-12" width="55.065" height="19.009" rx="2" transform="translate(1058 2561)"/>
    <text id="Integrate" class="cls-13" transform="translate(1070 2573)"><tspan x="0" y="0">Integrate</tspan></text>
    <g id="Group_3995" data-name="Group 3995" transform="translate(889 2567)">
      <path id="Path_10035" data-name="Path 10035" class="cls-14" d="M10.4,6.1H8.6a5.638,5.638,0,0,0-.4-1.2c-.1-.2-.3-.4-.4-.6h2.6a.789.789,0,0,0,.8-.8.839.839,0,0,0-.9-.9H5.2a3.4,3.4,0,0,0-1-.1H.9a.839.839,0,0,0-.9.9.6.6,0,0,0,.1.4,1,1,0,0,0,.4.5c.1,0,.1,0,.2.1H5l.1.1h.3c.1.1.2.1.3.2l.2.1.1.1H6c.1.1.2.2.2.3h0l.1.1.1.1a.349.349,0,0,1,.1.2.1.1,0,0,0,.1.1c0,.1,0,.1.1.1V6H.8a.864.864,0,0,0-.6.3,2.2,2.2,0,0,0-.1.8.86.86,0,0,0,.8.8H6.6v.2c0,.1,0,.1-.1.2l-.2.1-.2.3h0l-.2.2h0L5.7,9a.349.349,0,0,1-.2.1.1.1,0,0,0-.1.1H5.2c-.2.1-.3.2-.4.2H.8a.961.961,0,0,0-.8.9v.3a.908.908,0,0,0,.3.7l.1.1s1.2,1.4,1.5,1.8.7.8,1,1.2L5,16.8l1.2,1.4a.864.864,0,0,0,.6.3.864.864,0,0,0,.6-.3.91.91,0,0,0,0-1.2l-.5-.5c-.2-.2-.3-.4-.5-.6-.3-.4-.7-.8-1-1.2-.4-.4-.7-.8-1.1-1.2-.6-.7-1.3-1.4-1.9-2.2l-.2-.2H4.3a5.238,5.238,0,0,0,2.6-1A4.254,4.254,0,0,0,8.3,7.8h1.9A.789.789,0,0,0,11,7C11.3,6.6,10.9,6.2,10.4,6.1Z" transform="translate(0 -2)"/>
      <path id="Path_10036" data-name="Path 10036" class="cls-14" d="M41.7.1a.6.6,0,0,0-.4-.1.764.764,0,0,0-.5.2h0l-.2.2c-.2.2-.3.4-.5.6-.1.2-.3.4-.4.6l-2,2.6-2,2.6c-.1-.1-.1-.2-.2-.2L33.5,4,31.4,1.2a3.039,3.039,0,0,1-.5-.7.64.64,0,0,0-.7-.5c-.2,0-.3,0-.4.1a.842.842,0,0,0-.4.7,1.072,1.072,0,0,0,.2.6l.9,1.2,2,2.6,1.5,2H32.4a.817.817,0,0,0-.8.9.882.882,0,0,0,.9.8h2.6v.7H32.5a.817.817,0,0,0-.8.9.882.882,0,0,0,.9.8h2.6v3.9a1.421,1.421,0,0,0,.2.6.864.864,0,0,0,.6.3h0a.9.9,0,0,0,.9-.9V11.3h2.5a1.061,1.061,0,0,0,.9-.9,1.421,1.421,0,0,0-.2-.6.864.864,0,0,0-.6-.3H37V8.9h2.5a.864.864,0,0,0,.6-.3c-.2-.1-.1-.4-.1-.6a1.421,1.421,0,0,0-.2-.6.864.864,0,0,0-.6-.3H37.7l1.7-2.3,1.9-2.5.7-1A.856.856,0,0,0,41.7.1Z" transform="translate(-7.4)"/>
      <path id="Path_10037" data-name="Path 10037" class="cls-14" d="M54.2,8.8a6.606,6.606,0,0,0-1.5-.5,2.544,2.544,0,0,1-.7-.2.349.349,0,0,1-.2-.1c-.1,0-.1,0-.1-.1l-.1.1h-.2c-.1,0-.2-.1-.3-.2a.1.1,0,0,1-.1-.1.349.349,0,0,0-.2-.1h0l-.2-.2h0c0-.1-.1-.1-.1-.2l-.1-.3h0l-.1-.1V5.5l.1-.1h0V5.3l.1-.1.1-.2.1-.1h0l.1-.1.1-.1a.1.1,0,0,0,.1-.1h.1l.1-.1.4-.1H53c.1,0,.3.1.4.1h.2l.2.1.3.3a.1.1,0,0,1,.1.1v.1l.1.2v.1l.1.1V6a.961.961,0,0,0,.8.9h.1a.864.864,0,0,0,.6-.3c.1-.2.2-.3.2-.5V6h0a1.268,1.268,0,0,0-.1-.6A2.666,2.666,0,0,0,55.3,4a3.412,3.412,0,0,0-1.8-1.1.756.756,0,0,1-.4-.1V1.9c0-.5-.4-.8-.9-.9a.882.882,0,0,0-.8.9v.7a2.353,2.353,0,0,0-.8.2,3.484,3.484,0,0,0-1.9,1.5,3.743,3.743,0,0,0-.5,1.8,3.085,3.085,0,0,0,.5,1.8,4.034,4.034,0,0,0,1.8,1.6A8.8,8.8,0,0,0,52,10a2.544,2.544,0,0,1,.7.2l.2.1H53c.1,0,.1,0,.2.1h.1c.2.1.3.2.5.3a.1.1,0,0,1,.1.1l.2.2.2.2.1.1.1.1a.349.349,0,0,1,.1.2l.2.4v.8c0,.1-.1.1-.1.2h0l-.2.4-.2.2-.2.2h0a.349.349,0,0,1-.2.1l-.4.1H51.8c-.1,0-.1,0-.2-.1a1.007,1.007,0,0,0-.3-.1l-.2-.1-.2-.2-.1-.1-.3-.4h0v-.1l-.2-.4v-.3a.817.817,0,0,0-.9-.8h0a.882.882,0,0,0-.8.9,1.7,1.7,0,0,0,.1.7,2.666,2.666,0,0,0,.7,1.4,4.185,4.185,0,0,0,1.8,1.1c.2,0,.3.1.5.1v.6a1.072,1.072,0,0,0,.2.6.864.864,0,0,0,.6.3h0c.5,0,.8-.4.9-.9v-.6c.2,0,.5-.1.7-.1A3.484,3.484,0,0,0,56,14a3.743,3.743,0,0,0,.5-1.8,3.922,3.922,0,0,0-.4-1.8A7.045,7.045,0,0,0,54.2,8.8Z" transform="translate(-2.2 -1)"/>
      <path id="Path_10038" data-name="Path 10038" class="cls-14" d="M76.2,16.1H69v-5h3.5a1.025,1.025,0,0,0,1-1,.9.9,0,0,0-.9-.9H69V5.6c0-.2.1-.3.1-.5a1.38,1.38,0,0,1,.3-.4c.1-.1.2-.3.3-.3a2.186,2.186,0,0,1,.5-.3.9.9,0,0,1,.5-.1h2.8c.2-.1.4,0,.5,0a1.38,1.38,0,0,1,.4.3c.1.1.3.2.3.3a2.186,2.186,0,0,1,.3.5,1.083,1.083,0,0,1,.1.6v.2a.923.923,0,0,0,1,.9,1.08,1.08,0,0,0,.7-.3,1.421,1.421,0,0,0,.2-.6,3.864,3.864,0,0,0-1.1-2.7A3.338,3.338,0,0,0,73.4,2H71a3.631,3.631,0,0,0-2.6,1.1,4.2,4.2,0,0,0-1.2,2.6V9.2H66a1.025,1.025,0,0,0-1,1,.9.9,0,0,0,.9.9h1.2v5H66a.9.9,0,0,0-.9.9,1.025,1.025,0,0,0,1,1H76.3a.9.9,0,0,0,.9-.9A1.166,1.166,0,0,0,76.2,16.1Z" transform="translate(0 -2)"/>
    </g>
    <rect id="Rectangle_2190" data-name="Rectangle 2190" class="cls-15" width="23.763" height="69.962" transform="translate(885.869 2606.943)"/>
    <rect id="Rectangle_2191" data-name="Rectangle 2191" class="cls-15" width="79.829" height="69.962" transform="translate(920.91 2606.943)"/>
    <rect id="Rectangle_2192" data-name="Rectangle 2192" class="cls-15" width="44.787" height="69.962" transform="translate(1012.018 2606.943)"/>
    <rect id="Rectangle_2193" data-name="Rectangle 2193" class="cls-15" width="44.787" height="69.962" transform="translate(1068.085 2606.943)"/>
    <line id="Line_387" data-name="Line 387" class="cls-16" y1="1" x2="226.268" transform="translate(886.37 2594.438)"/>
  </g>
</svg>
