<svg xmlns="http://www.w3.org/2000/svg" viewBox="0 0 419.335 258">
  <defs>
    <style>
      .cls-1 {
        fill: #f4f5f9;
      }

      .cls-2 {
        fill: #f3f3ff;
      }

      .cls-12, .cls-13, .cls-18, .cls-3, .cls-5 {
        fill: #fff;
      }

      .cls-18, .cls-3, .cls-4, .cls-5, .cls-6 {
        stroke: #26263a;
        stroke-miterlimit: 10;
      }

      .cls-3, .cls-4, .cls-5, .cls-6 {
        stroke-width: 2px;
      }

      .cls-21, .cls-4, .cls-6 {
        fill: none;
      }

      .cls-18, .cls-5, .cls-6 {
        stroke-linecap: round;
      }

      .cls-15, .cls-7 {
        fill: #dddde1;
      }

      .cls-7 {
        opacity: 0.59;
      }

      .cls-8 {
        fill: #9797a5;
        opacity: 0.35;
      }

      .cls-11, .cls-9 {
        fill: #26263a;
      }

      .cls-9 {
        font-size: 12px;
        font-family: Roboto-Bold, Roboto;
        font-weight: 700;
      }

      .cls-10, .cls-14 {
        fill: #28283c;
      }

      .cls-10 {
        font-size: 7px;
      }

      .cls-10, .cls-12, .cls-14 {
        font-family: Roboto-Regular, Roboto;
      }

      .cls-12 {
        font-size: 6px;
      }

      .cls-13 {
        stroke: #ccc;
        stroke-width: 0.5px;
      }

      .cls-14 {
        font-size: 14px;
      }

      .cls-16 {
        fill: #37374e;
      }

      .cls-17 {
        fill: #5f6b72;
        opacity: 0.15;
      }

      .cls-19 {
        fill: #e04f26;
      }

      .cls-20 {
        stroke: none;
      }
    </style>
  </defs>
  <g id="Group_17" data-name="Group 17" transform="translate(-224.665 -1459)">
    <path id="Path_9456" data-name="Path 9456" class="cls-1" d="M607.872,119.489H563.087c-5.942,0-11.595-1.448-15.943-5.794-5.508-5.5-6.957-12.456-6.522-19.843.58-8.546,5.507-13.76,13.189-16.657a35.887,35.887,0,0,1,7.537-1.883c1.449-.145,1.739-.869,1.884-2.028a32.194,32.194,0,0,1,5.363-13.76A25.44,25.44,0,0,1,587,47.937c9.421-1.448,17.972.579,24.929,7.242a22.4,22.4,0,0,1,3.479,3.911,2.167,2.167,0,0,0,3.043.869c9.131-3.621,17.827-3.187,25.943,2.9,6.087,4.635,8.7,11.008,8.7,18.54,0,1.014,0,1.738,1.3,2.028,12.9,3.042,16.233,14.339,13.479,24.768-2.029,7.532-7.392,11.3-15.073,11.3Z" transform="translate(-315.885 1411.506)"/>
    <path id="Path_9457" data-name="Path 9457" class="cls-2" d="M689.855,224.8H397.812A16.819,16.819,0,0,1,381,208v10.718a16.819,16.819,0,0,0,16.812,16.8H690a16.819,16.819,0,0,0,16.812-16.8V208A16.851,16.851,0,0,1,689.855,224.8Z" transform="translate(-114.578 1480.48)"/>
    <path id="Path_9458" data-name="Path 9458" class="cls-3" d="M663.56,263.5H407.9a8.719,8.719,0,0,1-8.7-8.691V92.591a8.719,8.719,0,0,1,8.7-8.691H663.56a8.719,8.719,0,0,1,8.7,8.691V254.814A8.719,8.719,0,0,1,663.56,263.5Z" transform="translate(-105.387 1424.831)"/>
    <path id="Path_9459" data-name="Path 9459" class="cls-4" d="M692.364,235.565H395.393A14.532,14.532,0,0,1,380.9,221.081V207.9H706.712v13.181A14.316,14.316,0,0,1,692.364,235.565Z" transform="translate(-114.623 1480.435)"/>
    <path id="Path_9460" data-name="Path 9460" class="cls-2" d="M660.757,85.3H410.6a10.017,10.017,0,0,0-10,9.994V252.448a10.017,10.017,0,0,0,10,9.994H660.757a10.017,10.017,0,0,0,10-9.994V95.294A10.017,10.017,0,0,0,660.757,85.3Zm.58,158.6a10.175,10.175,0,0,1-10.29,9.994H420.166a10.175,10.175,0,0,1-10.29-9.994V103.55a10.175,10.175,0,0,1,10.29-9.994H651.191a10.175,10.175,0,0,1,10.29,9.994V243.9Z" transform="translate(-105.771 1425.459)"/>
    <line id="Line_184" data-name="Line 184" class="cls-5" x2="382.836" transform="translate(227 1716)"/>
    <line id="Line_185" data-name="Line 185" class="cls-6" x2="21.16" transform="translate(621.84 1716)"/>
    <rect id="Rectangle_1564" data-name="Rectangle 1564" class="cls-7" width="15.936" height="78.152" transform="translate(331.318 1594.253)"/>
    <rect id="Rectangle_1576" data-name="Rectangle 1576" class="cls-8" width="15.936" height="78.152" transform="translate(442.725 1594.253)"/>
    <rect id="Rectangle_1573" data-name="Rectangle 1573" class="cls-7" width="28.089" height="78.152" transform="translate(408.29 1594.253)"/>
    <rect id="Rectangle_1575" data-name="Rectangle 1575" class="cls-8" width="28.089" height="78.152" transform="translate(520.71 1594.253)"/>
    <rect id="Rectangle_2169" data-name="Rectangle 2169" class="cls-2" width="232" height="22" transform="translate(312 1524)"/>
    <rect id="Rectangle_1565" data-name="Rectangle 1565" class="cls-7" width="50.371" height="78.152" transform="translate(352.586 1594.253)"/>
    <rect id="Rectangle_1574" data-name="Rectangle 1574" class="cls-8" width="50.371" height="78.152" transform="translate(463.994 1594.253)"/>
    <text id="Cash_A_c" data-name="Cash A/c" class="cls-9" transform="translate(318.137 1539.716)"><tspan x="0" y="0">Cash A/c</tspan></text>
    <text id="Cash_is_coming_" data-name="Cash is coming " class="cls-10" transform="translate(331.318 1588.384)"><tspan x="0" y="0">Cash is coming </tspan></text>
    <text id="Cash_is_going_out" data-name="Cash is going out" class="cls-10" transform="translate(441.712 1588.384)"><tspan x="0" y="0">Cash is going out</tspan></text>
    <rect id="Rectangle_1561" data-name="Rectangle 1561" class="cls-11" width="55.704" height="19.231" rx="2" transform="translate(493.365 1555.068)"/>
    <text id="Bal_c_f:_50000" data-name="Bal c/f: 50000" class="cls-12" transform="translate(499.442 1566.129)"><tspan x="0" y="0">Bal c/f: 50000</tspan></text>
    <g id="Rectangle_1577" data-name="Rectangle 1577" class="cls-13" transform="translate(312.075 1555.068)">
      <rect class="cls-20" width="44.563" height="15.182" rx="2"/>
      <rect class="cls-21" x="0.25" y="0.25" width="44.063" height="14.682" rx="1.75"/>
    </g>
    <g id="Group_3273" data-name="Group 3273" transform="translate(246.711 1578.4)">
      <path id="Path_9464" data-name="Path 9464" class="cls-5" d="M435.954,269.6H377.545A10.08,10.08,0,0,1,367.4,259.461V142.139A10.08,10.08,0,0,1,377.545,132h58.408A10.08,10.08,0,0,1,446.1,142.139V259.461A10.08,10.08,0,0,1,435.954,269.6Z" transform="translate(-367.4 -132)"/>
      <path id="Rectangle_1560" data-name="Rectangle 1560" class="cls-2" d="M10,0H65.96a10,10,0,0,1,10,10V30.365a0,0,0,0,1,0,0H0a0,0,0,0,1,0,0V10A10,10,0,0,1,10,0Z" transform="translate(1.557 0.96)"/>
      <ellipse id="Ellipse_73" data-name="Ellipse 73" class="cls-2" cx="3.623" cy="3.621" rx="3.623" ry="3.621" transform="translate(34.059 125.434)"/>
      <text id="Report" class="cls-14" transform="translate(13.711 20.033)"><tspan x="0" y="0">Report</tspan></text>
      <g id="Group_3231" data-name="Group 3231" transform="translate(17.364 38.887)">
        <path id="Path_9478" data-name="Path 9478" class="cls-15" d="M92.52,65.1a20.007,20.007,0,1,0,20.02,20.007H92.52Z" transform="translate(-72.5 -62.263)"/>
        <path id="Path_9479" data-name="Path 9479" class="cls-15" d="M104.5,61.2V81.207h20.02A20,20,0,0,0,104.5,61.2Z" transform="translate(-81.204 -61.2)"/>
      </g>
      <rect id="Rectangle_1532" data-name="Rectangle 1532" class="cls-7" width="64.55" height="3.976" transform="translate(7.325 92.053)"/>
      <rect id="Rectangle_1533" data-name="Rectangle 1533" class="cls-7" width="64.55" height="3.976" transform="translate(7.325 104.199)"/>
      <rect id="Rectangle_1534" data-name="Rectangle 1534" class="cls-7" width="64.55" height="3.976" transform="translate(7.325 115.333)"/>
    </g>
    <rect id="Rectangle_1578" data-name="Rectangle 1578" class="cls-16" width="6.78" height="6.776" transform="translate(526.019 1531.425)"/>
    <rect id="Rectangle_1579" data-name="Rectangle 1579" class="cls-16" width="6.78" height="6.776" transform="translate(512.979 1531.425)"/>
    <ellipse id="Ellipse_101" data-name="Ellipse 101" class="cls-17" cx="34.397" cy="33.109" rx="34.397" ry="33.109" transform="matrix(-0.259, -0.966, 0.966, -0.259, 543.9, 1544.929)"/>
    <ellipse id="Ellipse_102" data-name="Ellipse 102" class="cls-18" cx="32.075" cy="32.092" rx="32.075" ry="32.092" transform="matrix(-0.259, -0.966, 0.966, -0.259, 549.172, 1540.118)"/>
    <g id="Group_3228" data-name="Group 3228" transform="translate(556.35 1483.609)">
      <g id="Group_3227" data-name="Group 3227">
        <path id="Path_9475" data-name="Path 9475" class="cls-19" d="M241.542,169.538c-.585-.195-1.366-.195-1.951-.39a17.455,17.455,0,0,1-9.559-7.019,25.325,25.325,0,0,1-3.511-8.968,42.594,42.594,0,0,1-.585-9.943c0-1.17.2-2.145.2-3.314a1.236,1.236,0,0,1,.975-1.17c4.877-1.755,9.559-3.509,14.436-5.264a.871.871,0,0,1,.975,0c4.877,1.755,9.559,3.509,14.436,5.264a1.236,1.236,0,0,1,.975,1.17,65.888,65.888,0,0,1,.2,8.773,31.821,31.821,0,0,1-2.341,10.528,17.9,17.9,0,0,1-8.584,9.163,12.011,12.011,0,0,1-4.487,1.365h-.2A1.463,1.463,0,0,0,241.542,169.538Zm14.436-24.76c0-.975-.2-2.534-.2-4.094a.419.419,0,0,0-.39-.39c-4.292-1.56-8.779-3.119-13.071-4.679h-.585c-4.292,1.56-8.779,3.119-13.07,4.679-.2.195-.39.195-.39.585v1.365a44.146,44.146,0,0,0,.39,10.138,20.92,20.92,0,0,0,2.731,7.6A15.342,15.342,0,0,0,240.372,167a2.756,2.756,0,0,0,1.756.195,14.329,14.329,0,0,0,6.828-2.924,18.939,18.939,0,0,0,5.462-7.993A35.692,35.692,0,0,0,255.978,144.779Z" transform="translate(-225.863 -133.325)"/>
        <path id="Path_9476" data-name="Path 9476" class="cls-19" d="M242.3,144.366a1.76,1.76,0,0,1,.975.195,1.483,1.483,0,0,1,1.171,1.56v6.824A1.748,1.748,0,0,1,242.7,154.7H232.356a1.748,1.748,0,0,1-1.756-1.755v-6.629a1.954,1.954,0,0,1,1.951-1.95h.2v-3.509a3.215,3.215,0,0,1,2.926-3.314,9.407,9.407,0,0,1,2.341,0h1.366a3.52,3.52,0,0,1,2.731,3.314v2.924A1.508,1.508,0,0,1,242.3,144.366Zm-7.023,0h4.682v-3.509a1.045,1.045,0,0,0-.975-.975h-2.536a.921.921,0,0,0-.975.975A21.175,21.175,0,0,0,235.282,144.366Zm2.341,7.993c.585,0,.78,0,.78-.78v-1.95c0-.195,0-.39.2-.39a1.685,1.685,0,0,0,.585-1.17,1.46,1.46,0,0,0-1.17-1.365,1.306,1.306,0,0,0-1.366.78,1.551,1.551,0,0,0,.39,1.755.681.681,0,0,1,.2.39v2.145C236.843,152.359,236.843,152.359,237.623,152.359Z" transform="translate(-221.358 -129.403)"/>
      </g>
    </g>
  </g>
</svg>
