<svg xmlns="http://www.w3.org/2000/svg" viewBox="0 0 1365.773 296.5">
  <defs>
    <style>
      .cls-1 {
        fill: #3f3f58;
      }
    </style>
  </defs>
  <path id="Subtraction_2" data-name="Subtraction 2" class="cls-1" d="M1429.857,296.5H64.112V22.54c0-.4,0-.8-.006-1.2v-.028a35.094,35.094,0,0,1,.325-6.228c.56-2.463,2.684-2.887,4.471-2.981,1.853-.177,3.679-.267,5.426-.267A41.724,41.724,0,0,1,88.76,14.246a35.992,35.992,0,0,1,12.612,7.974c1.52,1.465,2.638,2.09,3.737,2.09,1.139,0,2.313-.689,3.929-2.3C124.328,7.4,141.242,0,159.308,0a75.241,75.241,0,0,1,24.249,4.229,78.116,78.116,0,0,1,18.66,9.124,65.15,65.15,0,0,1,14.209,13.006,68.7,68.7,0,0,1,9.858,16.659A88.672,88.672,0,0,1,231.89,63.1a10.585,10.585,0,0,0,1.743,4.83,8.429,8.429,0,0,0,4.218,2.834,45.958,45.958,0,0,1,20.334,14.053c1.433,1.628,2.676,2.354,4.031,2.354a5.9,5.9,0,0,0,3.208-1.184c7.02-4.644,13.8-6.9,20.718-6.9.789,0,1.591.03,2.383.088.22.018.435.027.639.027a3.36,3.36,0,0,0,3.189-1.571,11.235,11.235,0,0,0,1.063-3.743l.006-.035A31.237,31.237,0,0,1,296.787,63.8a27.5,27.5,0,0,1,6.111-7.648,26.493,26.493,0,0,1,8.2-4.865,27.565,27.565,0,0,1,9.625-1.706A31.33,31.33,0,0,1,331.641,51.6l.322.106a6.327,6.327,0,0,1,2.552,1.278c2.181,2.224,4.193,3.26,6.332,3.26a8.968,8.968,0,0,0,4.08-1.134,32.839,32.839,0,0,0,4.386-2.871,48.855,48.855,0,0,1,29.777-10.3,47.476,47.476,0,0,1,25.724,7.593,49.292,49.292,0,0,1,10.57,9.177,52.818,52.818,0,0,1,8.024,12.484,28.567,28.567,0,0,0,2.808,5.179,3.4,3.4,0,0,0,2.642,1.684c1.659,0,3.708-1.7,6.686-4.628A65.985,65.985,0,0,1,444.7,65.82a57.136,57.136,0,0,1,9.994-5.476,55.4,55.4,0,0,1,10.842-3.311,60.762,60.762,0,0,1,11.7-1.111c.82,0,1.658.016,2.49.047.41.02.776.029,1.118.029,1.934,0,3.078-.336,3.826-1.125.787-.831,1.187-2.191,1.337-4.547,1.07-16.8,9.758-28.984,25.125-35.237a42.659,42.659,0,0,1,16.178-3.368c9.46,0,18.38,3.569,26.511,10.607,1.667,1.437,2.789,2.023,3.872,2.023,1.11,0,2.244-.637,3.792-2.129C576.733,7.58,593.662.156,611.8.156A75.881,75.881,0,0,1,636,4.335a78.6,78.6,0,0,1,18.509,9.009A65.345,65.345,0,0,1,668.7,26.185a67.94,67.94,0,0,1,9.9,16.474,86.312,86.312,0,0,1,5.634,19.907,11.881,11.881,0,0,0,1.943,5.323,9.168,9.168,0,0,0,4.658,3.087,41.614,41.614,0,0,1,10.832,5.6,56.087,56.087,0,0,1,9.076,8.237c1.461,1.66,2.711,2.4,4.053,2.4a5.643,5.643,0,0,0,3.185-1.229c7.021-4.644,13.772-6.9,20.639-6.9.781,0,1.574.03,2.356.088.242.022.475.033.695.033,2.82,0,3.676-1.769,4.2-4.824a31.25,31.25,0,0,1,6.52-15.157,27.65,27.65,0,0,1,14.026-8.69A25.711,25.711,0,0,1,789.621,54.9a7.438,7.438,0,0,0,4.361,1.878c1.385,0,2.83-.678,4.688-2.2a54.617,54.617,0,0,1,16.131-9.6,48.181,48.181,0,0,1,16.991-3.126,46.718,46.718,0,0,1,26.136,8,49.976,49.976,0,0,1,10.683,9.729,56.154,56.154,0,0,1,8.092,13.3c1.567,3.572,2.736,4.963,4.17,4.963,1.186,0,2.645-.975,4.879-3.259a69.422,69.422,0,0,1,9.478-8.152A58.883,58.883,0,0,1,905.6,60.552a56.12,56.12,0,0,1,11.274-3.578,60.958,60.958,0,0,1,12.2-1.206c1.158,0,2.345.031,3.526.092.247.013.481.02.7.02,1.628,0,2.62-.361,3.216-1.17a7,7,0,0,0,.877-3.641c.534-8.6,2.947-16.023,7.173-22.076a39.829,39.829,0,0,1,18.27-14.013,43.221,43.221,0,0,1,16.039-3.28c9.53,0,18.461,3.647,26.544,10.839,1.552,1.38,2.6,1.943,3.619,1.943,1.045,0,2.128-.613,3.62-2.049C1028.033,7.662,1045.044.172,1063.209.172a75.447,75.447,0,0,1,24.387,4.27,78.346,78.346,0,0,1,18.626,9.124,65.167,65.167,0,0,1,14.215,13.006c7.944,9.831,13.084,22.192,15.277,36.741a9.862,9.862,0,0,0,1.836,4.818,9.107,9.107,0,0,0,4.231,2.741A45.462,45.462,0,0,1,1161.69,84.6c1.6,1.782,2.954,2.576,4.4,2.576a6.8,6.8,0,0,0,3.69-1.405,43.118,43.118,0,0,1,9.167-4.683A29.473,29.473,0,0,1,1189,79.3c.755,0,1.523.031,2.283.091.324.028.634.042.922.042,2.945,0,4.328-1.415,4.933-5.046a30.553,30.553,0,0,1,6.361-14.931,25.329,25.329,0,0,1,5.945-5.19,31.438,31.438,0,0,1,7.921-3.513,25.65,25.65,0,0,1,23.208,4.046,8.17,8.17,0,0,0,4.668,1.866c1.547,0,3.095-.707,5.019-2.292a54.769,54.769,0,0,1,15.856-9.312,47.943,47.943,0,0,1,16.824-3.081,46.753,46.753,0,0,1,19.222,4.136,52.538,52.538,0,0,1,16.976,12.3c3.617,3.895,6.526,8.8,9.156,15.437a7.7,7.7,0,0,0,2.155,3.233,7.441,7.441,0,0,0,3.593,1.557,30.428,30.428,0,0,1,6.906,1.89,25.074,25.074,0,0,1,6.188,3.646,5.665,5.665,0,0,0,3.557,1.548c1.288,0,2.588-.642,4.215-2.081a59.256,59.256,0,0,1,15.739-9.694,44.986,44.986,0,0,1,16.929-3.35,50.5,50.5,0,0,1,18.432,3.675,49.833,49.833,0,0,1,13.892,8.051,36.9,36.9,0,0,1,5.509,5.767,35.672,35.672,0,0,1,4.232,7.154,37.375,37.375,0,0,1,.222,5.521v.007c0,.454-.009.924-.009,1.392V296.5Z" transform="translate(-64.101 0)"/>
</svg>
