<svg xmlns="http://www.w3.org/2000/svg" viewBox="0 0 503.796 289.97">
  <defs>
    <style>
      .cls-1, .cls-14 {
        fill: #f3f3ff;
      }

      .cls-1, .cls-13, .cls-14, .cls-15, .cls-2, .cls-3, .cls-4, .cls-5, .cls-6, .cls-7, .cls-8 {
        stroke: #26263a;
        stroke-miterlimit: 2.613;
        stroke-width: 2px;
      }

      .cls-1, .cls-10, .cls-11, .cls-12, .cls-13, .cls-14, .cls-16, .cls-2, .cls-3, .cls-5, .cls-7, .cls-8 {
        fill-rule: evenodd;
      }

      .cls-16, .cls-2, .cls-5, .cls-9 {
        fill: #26263a;
      }

      .cls-13, .cls-3, .cls-6, .cls-8 {
        fill: none;
      }

      .cls-13, .cls-14, .cls-15, .cls-3, .cls-5, .cls-6 {
        stroke-linecap: round;
        stroke-linejoin: round;
      }

      .cls-12, .cls-4, .cls-7 {
        fill: #000002;
      }

      .cls-9 {
        font-size: 28px;
        font-family: SegoeUI, Segoe UI;
      }

      .cls-10 {
        fill: #fff7eb;
      }

      .cls-11, .cls-17, .cls-18, .cls-19 {
        fill: #e43626;
      }

      .cls-13 {
        stroke-dasharray: 2 3;
      }

      .cls-15 {
        fill: #e7e7e7;
      }

      .cls-17 {
        font-size: 21px;
      }

      .cls-17, .cls-19 {
        font-family: SegoePrint, Segoe Print;
      }

      .cls-18, .cls-19 {
        font-size: 18px;
      }

      .cls-18 {
        font-family: Cambria;
      }
    </style>
  </defs>
  <g id="Group_4479" data-name="Group 4479" transform="translate(2261.7 -3223.675)">
    <path id="Path_11319" data-name="Path 11319" class="cls-1" d="M1107.073,3606.077c5.5-5.5,34.692-5.5,40.189,0s5.5,34.725,0,40.228-34.692,5.5-40.189,0C1101.576,3640.9,1101.576,3611.58,1107.073,3606.077Z" transform="translate(-3234.125 -238.545)"/>
    <path id="Path_11320" data-name="Path 11320" class="cls-2" d="M1107.138,3606.077c5.5-5.5,34.692-5.5,40.189,0,1.706,1.8,2.37,4.554,2.938,7.305-1.706,1.708-5.308,4.27-8.341,3.51-3.128-.759-4.929-4.08-5.024-9.867-.663,5.788-.284,8.824-5.5,10.152-3.507.854-13.08.38-20-1.044-3.318-.664-6.066-1.613-7.2-2.751C1104.674,3611.011,1105.337,3608.069,1107.138,3606.077Z" transform="translate(-3234.19 -238.545)"/>
    <path id="Path_11321" data-name="Path 11321" class="cls-1" d="M1110.616,3697.877c4.55,4.554,28.815,4.554,33.365,0s4.55-36.907,0-41.461-28.815-4.554-33.365,0C1106.161,3660.97,1106.161,3693.323,1110.616,3697.877Z" transform="translate(-3234.351 -241.16)"/>
    <path id="Path_11322" data-name="Path 11322" class="cls-3" d="M1133.337,3640.3c-3.223,2.087-6.635,2.182-10.237,0" transform="translate(-3235.176 -240.51)"/>
    <path id="Path_11323" data-name="Path 11323" class="cls-3" d="M1129.008,3685.2c1.327-12.713-.758-24.573-.474-25.712,1.706-.854,4.645-3.7,4.265-3.985-.379-.19-3.128,4.839-9.1.664" transform="translate(-3235.207 -241.288)"/>
    <ellipse id="Ellipse_155" data-name="Ellipse 155" class="cls-4" cx="1.043" cy="1.044" rx="1.043" ry="1.044" transform="translate(-2098.142 3388.595)"/>
    <ellipse id="Ellipse_156" data-name="Ellipse 156" class="cls-4" cx="1.043" cy="1.044" rx="1.043" ry="1.044" transform="translate(-2117.953 3388.595)"/>
    <path id="Path_11324" data-name="Path 11324" class="cls-3" d="M1133.8,3726.66a142.839,142.839,0,0,0,0-22.96" transform="translate(-3235.734 -243.757)"/>
    <path id="Path_11325" data-name="Path 11325" class="cls-3" d="M1133.954,3709.193a27.814,27.814,0,0,0-2.654-5.313,18.468,18.468,0,0,0,2.275-.19,19.863,19.863,0,0,1,2.37-.19C1134.9,3705.3,1134.9,3707.105,1133.954,3709.193Z" transform="translate(-3235.604 -243.747)"/>
    <path id="Path_11326" data-name="Path 11326" class="cls-5" d="M1133.8,3722.973c.948-.664,5.972-.664,6.919,0s.948,4.08,0,4.744H1133.8Z" transform="translate(-3235.734 -244.719)"/>
    <path id="Path_11327" data-name="Path 11327" class="cls-3" d="M1123.074,3726.66a142.853,142.853,0,0,1,0-22.96" transform="translate(-3235.15 -243.757)"/>
    <path id="Path_11328" data-name="Path 11328" class="cls-3" d="M1122.59,3709.193a27.814,27.814,0,0,1,2.654-5.313,18.468,18.468,0,0,1-2.275-.19,19.863,19.863,0,0,0-2.37-.19C1121.738,3705.3,1121.738,3707.105,1122.59,3709.193Z" transform="translate(-3235.046 -243.747)"/>
    <path id="Path_11329" data-name="Path 11329" class="cls-5" d="M1122.68,3722.973c-.948-.664-5.972-.664-6.919,0s-.948,4.08,0,4.744h6.919Z" transform="translate(-3234.756 -244.719)"/>
    <path id="Path_11330" data-name="Path 11330" class="cls-3" d="M1148.47,3691.42c17.82-9.2,11.564-21.822-2.37-34.82" transform="translate(-3236.375 -241.344)"/>
    <line id="Line_867" data-name="Line 867" class="cls-6" x2="1.043" y2="1.803" transform="translate(-2087.242 3448.557)"/>
    <path id="Path_11331" data-name="Path 11331" class="cls-3" d="M1107.6,3691.42c-17.82-9.2-11.564-21.822,2.37-34.82" transform="translate(-3233.797 -241.344)"/>
    <line id="Line_868" data-name="Line 868" class="cls-6" x1="1.043" y2="1.803" transform="translate(-2127.905 3448.557)"/>
    <path id="Path_11332" data-name="Path 11332" class="cls-1" d="M1311.077,3606.081c5.4-5.408,34.312-5.408,39.715,0s5.4,34.345,0,39.753-34.312,5.408-39.715,0S1305.674,3611.489,1311.077,3606.081Z" transform="translate(-3244.766 -238.549)"/>
    <path id="Path_11333" data-name="Path 11333" class="cls-2" d="M1311.138,3606.081c5.4-5.408,34.312-5.408,39.715,0,1.706,1.8,2.37,4.459,2.938,7.211-1.706,1.708-5.213,4.174-8.246,3.416s-4.834-3.985-5.024-9.772c-.663,5.788-.284,8.729-5.4,10.057-3.507.854-12.986.379-19.81-1.044-3.318-.664-5.972-1.613-7.109-2.751C1308.769,3610.92,1309.432,3607.979,1311.138,3606.081Z" transform="translate(-3244.827 -238.549)"/>
    <path id="Path_11334" data-name="Path 11334" class="cls-1" d="M1314.616,3696.906c4.455,4.459,28.53,4.459,32.985,0s4.455-36.528,0-40.987-28.531-4.459-32.985,0S1310.161,3692.447,1314.616,3696.906Z" transform="translate(-3244.988 -241.138)"/>
    <path id="Path_11335" data-name="Path 11335" class="cls-3" d="M1337.042,3639.9c-3.128,2.087-6.54,2.182-10.142,0" transform="translate(-3245.802 -240.489)"/>
    <path id="Path_11336" data-name="Path 11336" class="cls-3" d="M1332.808,3684.317c1.327-12.619-.758-24.383-.474-25.427,1.611-.854,4.55-3.7,4.171-3.89s-3.128,4.839-9,.664" transform="translate(-3245.833 -241.262)"/>
    <path id="Path_11337" data-name="Path 11337" class="cls-7" d="M1342.548,3630.2a.95.95,0,0,0,.948-.949,1.02,1.02,0,0,0-.948-.949.949.949,0,0,0,0,1.9Z" transform="translate(-3246.569 -239.895)"/>
    <path id="Path_11338" data-name="Path 11338" class="cls-7" d="M1321.948,3630.2a.95.95,0,0,0,.948-.949,1.02,1.02,0,0,0-.948-.949.949.949,0,0,0,0,1.9Z" transform="translate(-3245.495 -239.895)"/>
    <path id="Path_11339" data-name="Path 11339" class="cls-3" d="M1337.5,3725.371a140.5,140.5,0,0,0,0-22.771" transform="translate(-3246.355 -243.701)"/>
    <path id="Path_11340" data-name="Path 11340" class="cls-3" d="M1337.759,3708a34.315,34.315,0,0,0-2.559-5.313c.758,0,1.516-.095,2.275-.095a19.863,19.863,0,0,1,2.37-.19C1338.612,3704.2,1338.612,3706.006,1337.759,3708Z" transform="translate(-3246.235 -243.691)"/>
    <path id="Path_11341" data-name="Path 11341" class="cls-5" d="M1337.5,3721.673c.948-.664,5.877-.664,6.825,0s.948,4.08,0,4.649H1337.5Z" transform="translate(-3246.355 -244.652)"/>
    <path id="Path_11342" data-name="Path 11342" class="cls-3" d="M1326.974,3725.371a140.51,140.51,0,0,1,0-22.771" transform="translate(-3245.782 -243.701)"/>
    <path id="Path_11343" data-name="Path 11343" class="cls-3" d="M1326.485,3708a34.327,34.327,0,0,1,2.559-5.313c-.758,0-1.517-.095-2.275-.095a19.865,19.865,0,0,0-2.37-.19C1325.632,3704.2,1325.632,3706.006,1326.485,3708Z" transform="translate(-3245.672 -243.691)"/>
    <path id="Path_11344" data-name="Path 11344" class="cls-5" d="M1326.585,3721.673c-.948-.664-5.877-.664-6.824,0s-.948,4.08,0,4.649h6.824Z" transform="translate(-3245.393 -244.652)"/>
    <path id="Path_11345" data-name="Path 11345" class="cls-3" d="M1352.069,3690.535c17.63-9.108,11.469-21.537-2.37-34.535" transform="translate(-3246.991 -241.314)"/>
    <line id="Line_869" data-name="Line 869" class="cls-6" x2="1.043" y2="1.708" transform="translate(-1894.258 3447.704)"/>
    <path id="Path_11346" data-name="Path 11346" class="cls-3" d="M1311.7,3690.535c-17.63-9.108-11.469-21.537,2.37-34.535" transform="translate(-3244.446 -241.314)"/>
    <line id="Line_870" data-name="Line 870" class="cls-6" x1="1.043" y2="1.708" transform="translate(-1934.542 3447.704)"/>
    <path id="Path_11347" data-name="Path 11347" class="cls-8" d="M1321.661,3635.134a6.167,6.167,0,1,0-6.161-6.167A6.152,6.152,0,0,0,1321.661,3635.134Z" transform="translate(-3245.208 -239.613)"/>
    <path id="Path_11348" data-name="Path 11348" class="cls-8" d="M1342.261,3635.134a6.167,6.167,0,1,0-6.161-6.167A6.152,6.152,0,0,0,1342.261,3635.134Z" transform="translate(-3246.282 -239.613)"/>
    <path id="Path_11349" data-name="Path 11349" class="cls-3" d="M1335.7,3629.939c-2.275-1.518-4.645-1.518-7.3,0" transform="translate(-3245.881 -239.921)"/>
    <text id="giddh" class="cls-9" transform="translate(-2031.802 3338.827)"><tspan x="0" y="0">giddh</tspan></text>
    <path id="Path_11350" data-name="Path 11350" class="cls-10" d="M1248.234,3510.8a15.75,15.75,0,1,1-15.734,15.75A15.7,15.7,0,0,1,1248.234,3510.8Z" transform="translate(-3240.88 -233.875)"/>
    <path id="Path_11351" data-name="Path 11351" class="cls-11" d="M1248.12,3508.6a17.837,17.837,0,1,1-17.82,17.837,17.808,17.808,0,0,1,17.82-17.837Zm0,5.028a12.9,12.9,0,1,0,12.891,12.9A12.911,12.911,0,0,0,1248.12,3513.628Z" transform="translate(-3240.765 -233.763)"/>
    <path id="Path_11352" data-name="Path 11352" class="cls-12" d="M1249.908,3536.626a5.313,5.313,0,1,0-5.308-5.313A5.3,5.3,0,0,0,1249.908,3536.626Z" transform="translate(-3241.511 -234.654)"/>
    <path id="Path_11353" data-name="Path 11353" class="cls-13" d="M1092.2,3548.114a78.883,78.883,0,0,1,85.971-25.427,77.8,77.8,0,0,1,15.64,7.021" transform="translate(-3233.565 -234.282)"/>
    <path id="Path_11354" data-name="Path 11354" class="cls-3" d="M1193.6,3530.049a27.036,27.036,0,0,1,2.749-.284,14.625,14.625,0,0,1,2.844.379c-.569-.759-1.137-1.423-1.611-2.182a20.945,20.945,0,0,1-1.137-2.562" transform="translate(-3238.852 -234.623)"/>
    <path id="Path_11355" data-name="Path 11355" class="cls-3" d="M1093.343,3544a26.843,26.843,0,0,1-.19,2.751,21.781,21.781,0,0,1-.853,2.657c.853-.379,1.611-.854,2.464-1.139a23.471,23.471,0,0,1,2.749-.569" transform="translate(-3233.57 -235.576)"/>
    <path id="Path_11356" data-name="Path 11356" class="cls-13" d="M1370.995,3545.122a63.709,63.709,0,0,0-81.9-14.8" transform="translate(-3243.831 -234.421)"/>
    <path id="Path_11357" data-name="Path 11357" class="cls-3" d="M1293.555,3530.59a17.126,17.126,0,0,0-2.18-.285,18.613,18.613,0,0,0-2.275.285,12.613,12.613,0,0,0,1.327-1.8,19.276,19.276,0,0,0,.853-2.087" transform="translate(-3243.831 -234.69)"/>
    <path id="Path_11358" data-name="Path 11358" class="cls-3" d="M1374.312,3541.8a15.591,15.591,0,0,0,.189,2.182c.19.759.474,1.423.663,2.182a18.968,18.968,0,0,0-1.99-.949,19.476,19.476,0,0,0-2.275-.474" transform="translate(-3248.096 -235.464)"/>
    <path id="Path_11359" data-name="Path 11359" class="cls-14" d="M966.3,3572.942h18.009a49.458,49.458,0,0,1,81.516,0h18.009V3721.52H966.3Z" transform="translate(-3226.811 -235.96)"/>
    <rect id="Rectangle_2470" data-name="Rectangle 2470" class="cls-6" width="14.123" height="14.137" transform="translate(-2242.596 3471.518)"/>
    <rect id="Rectangle_2471" data-name="Rectangle 2471" class="cls-6" width="14.123" height="14.137" transform="translate(-2175.108 3471.518)"/>
    <rect id="Rectangle_2472" data-name="Rectangle 2472" class="cls-6" width="14.123" height="14.137" transform="translate(-2242.596 3443.244)"/>
    <rect id="Rectangle_2473" data-name="Rectangle 2473" class="cls-15" width="36.587" height="42.41" transform="translate(-2220.132 3443.244)"/>
    <rect id="Rectangle_2474" data-name="Rectangle 2474" class="cls-6" width="14.123" height="14.137" transform="translate(-2175.108 3443.244)"/>
    <rect id="Rectangle_2475" data-name="Rectangle 2475" class="cls-6" width="14.123" height="14.137" transform="translate(-2242.596 3414.971)"/>
    <rect id="Rectangle_2476" data-name="Rectangle 2476" class="cls-6" width="14.123" height="14.137" transform="translate(-2220.132 3414.971)"/>
    <rect id="Rectangle_2477" data-name="Rectangle 2477" class="cls-6" width="14.123" height="14.137" transform="translate(-2197.667 3414.971)"/>
    <rect id="Rectangle_2478" data-name="Rectangle 2478" class="cls-6" width="14.123" height="14.137" transform="translate(-2175.108 3414.971)"/>
    <rect id="Rectangle_2479" data-name="Rectangle 2479" class="cls-6" width="14.123" height="14.137" transform="translate(-2242.596 3386.698)"/>
    <rect id="Rectangle_2480" data-name="Rectangle 2480" class="cls-6" width="14.123" height="14.137" transform="translate(-2220.132 3386.698)"/>
    <rect id="Rectangle_2481" data-name="Rectangle 2481" class="cls-6" width="14.123" height="14.137" transform="translate(-2197.667 3386.698)"/>
    <rect id="Rectangle_2482" data-name="Rectangle 2482" class="cls-6" width="14.123" height="14.137" transform="translate(-2175.108 3386.698)"/>
    <path id="Path_11360" data-name="Path 11360" class="cls-3" d="M966.3,3572.942h18.009a49.458,49.458,0,0,1,81.516,0h18.009V3721.52H966.3Z" transform="translate(-3227 -235.96)"/>
    <line id="Line_871" data-name="Line 871" class="cls-6" y2="7.306" transform="translate(-2201.838 3308.234)"/>
    <line id="Line_872" data-name="Line 872" class="cls-6" x1="1.896" y2="6.926" transform="translate(-2187.43 3310.701)"/>
    <line id="Line_873" data-name="Line 873" class="cls-6" x1="3.412" y2="5.977" transform="translate(-2176.246 3316.678)"/>
    <line id="Line_874" data-name="Line 874" class="cls-6" x2="1.801" y2="6.926" transform="translate(-2218.046 3310.701)"/>
    <line id="Line_875" data-name="Line 875" class="cls-6" x2="3.412" y2="5.977" transform="translate(-2230.748 3316.678)"/>
    <path id="Path_11361" data-name="Path 11361" class="cls-16" d="M1028.077,3534.4l1.516,4.175,4.455.095-3.507,2.751,1.232,4.175-3.7-2.467-3.6,2.467,1.232-4.175-3.507-2.751,4.455-.095Z" transform="translate(-3229.915 -235.084)"/>
    <path id="Path_11362" data-name="Path 11362" class="cls-16" d="M1047.287,3539.1l.284,3.6,3.507,1.044-3.412,1.423.095,3.605-2.37-2.752-3.412,1.233,1.9-3.131-2.275-2.941,3.6.854Z" transform="translate(-3230.926 -235.325)"/>
    <path id="Path_11363" data-name="Path 11363" class="cls-16" d="M1061.5,3547.8l-.474,2.657,2.37,1.423-2.749.379-.664,2.656-1.137-2.467-2.749.19,1.99-1.9-1.043-2.467,2.464,1.233Z" transform="translate(-3231.682 -235.771)"/>
    <path id="Path_11364" data-name="Path 11364" class="cls-16" d="M1009.091,3539.1l-.284,3.6-3.507,1.044,3.412,1.423-.19,3.605,2.464-2.752,3.412,1.233-1.9-3.131,2.18-2.846-3.507.759Z" transform="translate(-3229.033 -235.325)"/>
    <path id="Path_11365" data-name="Path 11365" class="cls-16" d="M994.9,3547.8l.474,2.657-2.275,1.423,2.749.379.569,2.656,1.232-2.467,2.654.19-1.991-1.9,1.137-2.467-2.464,1.233Z" transform="translate(-3228.397 -235.771)"/>
    <text id="Synced_with_Gidhh" data-name="Synced with Gidhh" class="cls-17" transform="translate(-2105.112 3249.675)"><tspan x="0" y="0">Synced with Gidhh</tspan></text>
    <path id="Path_11366" data-name="Path 11366" class="cls-14" d="M1371.595,3572.942H1389.6a49.548,49.548,0,0,1,81.61,0h18.009V3721.52H1371.5V3572.942Z" transform="translate(-3248.128 -235.96)"/>
    <rect id="Rectangle_2483" data-name="Rectangle 2483" class="cls-6" width="14.123" height="14.137" transform="translate(-1858.524 3471.518)"/>
    <rect id="Rectangle_2484" data-name="Rectangle 2484" class="cls-6" width="14.123" height="14.137" transform="translate(-1791.036 3471.518)"/>
    <rect id="Rectangle_2485" data-name="Rectangle 2485" class="cls-6" width="14.123" height="14.137" transform="translate(-1858.524 3443.244)"/>
    <rect id="Rectangle_2486" data-name="Rectangle 2486" class="cls-15" width="36.587" height="42.41" transform="translate(-1835.965 3443.244)"/>
    <rect id="Rectangle_2487" data-name="Rectangle 2487" class="cls-6" width="14.123" height="14.137" transform="translate(-1791.036 3443.244)"/>
    <rect id="Rectangle_2488" data-name="Rectangle 2488" class="cls-6" width="14.123" height="14.137" transform="translate(-1858.524 3414.971)"/>
    <rect id="Rectangle_2489" data-name="Rectangle 2489" class="cls-6" width="14.123" height="14.137" transform="translate(-1835.965 3414.971)"/>
    <rect id="Rectangle_2490" data-name="Rectangle 2490" class="cls-6" width="14.123" height="14.137" transform="translate(-1813.501 3414.971)"/>
    <rect id="Rectangle_2491" data-name="Rectangle 2491" class="cls-6" width="14.123" height="14.137" transform="translate(-1791.036 3414.971)"/>
    <rect id="Rectangle_2492" data-name="Rectangle 2492" class="cls-6" width="14.123" height="14.137" transform="translate(-1858.524 3386.698)"/>
    <rect id="Rectangle_2493" data-name="Rectangle 2493" class="cls-6" width="14.123" height="14.137" transform="translate(-1835.965 3386.698)"/>
    <rect id="Rectangle_2494" data-name="Rectangle 2494" class="cls-6" width="14.123" height="14.137" transform="translate(-1813.501 3386.698)"/>
    <rect id="Rectangle_2495" data-name="Rectangle 2495" class="cls-6" width="14.123" height="14.137" transform="translate(-1791.036 3386.698)"/>
    <path id="Path_11367" data-name="Path 11367" class="cls-3" d="M1371.595,3572.942H1389.6a49.548,49.548,0,0,1,81.61,0h18.009V3721.52H1371.5V3572.942Z" transform="translate(-3248.128 -235.96)"/>
    <line id="Line_876" data-name="Line 876" class="cls-6" y2="7.306" transform="translate(-1817.671 3308.234)"/>
    <line id="Line_877" data-name="Line 877" class="cls-6" x1="1.896" y2="6.926" transform="translate(-1803.264 3310.701)"/>
    <line id="Line_878" data-name="Line 878" class="cls-6" x1="3.507" y2="5.977" transform="translate(-1792.174 3316.678)"/>
    <line id="Line_879" data-name="Line 879" class="cls-6" x2="1.896" y2="6.926" transform="translate(-1833.974 3310.701)"/>
    <line id="Line_880" data-name="Line 880" class="cls-6" x2="3.507" y2="5.977" transform="translate(-1846.676 3316.678)"/>
    <path id="Path_11368" data-name="Path 11368" class="cls-16" d="M1433.377,3534.4l1.517,4.175,4.36.095-3.507,2.751,1.327,4.175-3.7-2.467-3.6,2.467,1.232-4.175-3.507-2.751,4.455-.095Z" transform="translate(-3251.048 -235.084)"/>
    <path id="Path_11369" data-name="Path 11369" class="cls-16" d="M1452.492,3539.1l.379,3.6,3.412,1.044-3.318,1.423.095,3.605-2.37-2.752-3.507,1.233,1.991-3.131-2.275-2.941,3.6.854Z" transform="translate(-3252.059 -235.325)"/>
    <path id="Path_11370" data-name="Path 11370" class="cls-16" d="M1466.8,3547.8l-.474,2.657,2.37,1.423-2.749.379-.663,2.656-1.137-2.467-2.749.19,1.99-1.9-1.043-2.467,2.37,1.233Z" transform="translate(-3252.815 -235.771)"/>
    <path id="Path_11371" data-name="Path 11371" class="cls-16" d="M1414.391,3539.1l-.379,3.6-3.412,1.044,3.318,1.423-.095,3.605,2.37-2.752,3.507,1.233-1.99-3.131,2.275-2.846-3.6.759Z" transform="translate(-3250.167 -235.325)"/>
    <path id="Path_11372" data-name="Path 11372" class="cls-16" d="M1400.2,3547.8l.474,2.657-2.37,1.423,2.749.379.664,2.656,1.137-2.467,2.749.19-1.99-1.9,1.043-2.467-2.37,1.233Z" transform="translate(-3249.525 -235.771)"/>
    <text id="Sayaji" class="cls-18" transform="translate(-2225.914 3354.827)"><tspan x="0" y="0">Sayaji</tspan></text>
    <text id="Indore" class="cls-18" transform="translate(-2228.757 3373.918)"><tspan x="0" y="0">Indore</tspan></text>
    <text id="Sayaji-2" data-name="Sayaji" class="cls-18" transform="translate(-1841.083 3354.372)"><tspan x="0" y="0">Sayaji</tspan></text>
    <text id="Banglore" class="cls-18" transform="translate(-1854.353 3373.455)"><tspan x="0" y="0">Banglore</tspan></text>
    <text id="Manager" class="cls-19" transform="translate(-2143.964 3504.645)"><tspan x="0" y="0">Manager</tspan></text>
    <text id="Manager-2" data-name="Manager" class="cls-19" transform="translate(-1956.903 3503.622)"><tspan x="0" y="0">Manager</tspan></text>
  </g>
</svg>
