<svg xmlns="http://www.w3.org/2000/svg" viewBox="0 0 98.462 90.423">
  <defs>
    <style>
      .cls-1 {
        fill: #eb8066;
      }

      .cls-2 {
        fill: #717296;
      }

      .cls-3 {
        fill: #fff;
      }

      .cls-4 {
        fill: none;
        stroke: #33335d;
      }
    </style>
  </defs>
  <g id="Group_4499" data-name="Group 4499" transform="translate(-4277.538 -746)">
    <path id="Path_9210" data-name="Path 9210" class="cls-1" d="M55.259,20.7c12.451,0,22.413,8.01,22.413,17.767a14.008,14.008,0,0,1-2.051,7.282c2.344,6.845,7.178,8.883,7.178,8.883-8.2.437-11.28-1.893-12.3-3.35a26.094,26.094,0,0,1-15.381,4.806c-12.451,0-22.413-8.01-22.413-17.767C32.7,28.71,42.808,20.7,55.259,20.7Z" transform="translate(4293.201 755.446)"/>
    <path id="Path_9211" data-name="Path 9211" class="cls-2" d="M50.957,0C35.283,0,22.538,10.049,22.538,22.573a18.9,18.9,0,0,0,2.49,9.32C22.1,40.485,15.8,43.252,15.8,43.252c10.254.583,14.209-2.476,15.674-4.223A32.519,32.519,0,0,0,50.81,45.146c15.674,0,28.419-10.049,28.419-22.573C79.375,10.049,66.631,0,50.957,0Z" transform="translate(4285.345 746)"/>
    <g id="Group_2971" data-name="Group 2971" transform="translate(4325.755 754.15)">
      <path id="Path_9212" data-name="Path 9212" class="cls-3" d="M52.669,13.174c0,5.1-6.445,6.553-6.445,8.592v.728H39.778V20.6c0-2.767,4.834-4.369,4.834-7.282a2.414,2.414,0,0,0-2.49-2.621c-2.051,0-2.49,1.6-2.49,3.2v1.019H32.746c0-.437-.146-.874-.146-1.456C32.6,8.66,36.995,5.6,42.854,5.6,48.86,5.456,52.669,8.514,52.669,13.174Zm-5.859,18.5H39.338v-6.99h7.471Z" transform="translate(-32.6 -5.597)"/>
    </g>
    <g id="Group_2972" data-name="Group 2972" transform="translate(4340.404 799.447)">
      <ellipse id="Ellipse_58" data-name="Ellipse 58" class="cls-3" cx="2.197" cy="2.184" rx="2.197" ry="2.184"/>
      <ellipse id="Ellipse_59" data-name="Ellipse 59" class="cls-3" cx="2.197" cy="2.184" rx="2.197" ry="2.184" transform="translate(6.445)"/>
      <ellipse id="Ellipse_60" data-name="Ellipse 60" class="cls-3" cx="2.197" cy="2.184" rx="2.197" ry="2.184" transform="translate(13.037)"/>
    </g>
    <path id="Path_9209" data-name="Path 9209" class="cls-4" d="M63.429,77.283,50.392,60.39a.906.906,0,0,0-1.025-.146l-6.738,5.1a.893.893,0,0,0-.146,1.019l.146.146C37.94,66.07,29.59,60.245,24.61,53.982c-4.834-6.408-8.35-16.019-7.617-20.534l.146.146a.906.906,0,0,0,1.025.146l6.738-5.1a.893.893,0,0,0,.146-1.019L11.865,10.876a.906.906,0,0,0-1.025-.146L4.1,15.827a.893.893,0,0,0-.146,1.019h0C.439,20.487-.732,24.711.439,30.827c.586,3.058,2.2,15.146,14.356,30.728S38.38,81.8,41.163,83.109c5.567,2.767,9.961,2.621,14.5.146h0a.906.906,0,0,0,1.025.146l6.738-5.1A1.237,1.237,0,0,0,63.429,77.283Z" transform="translate(4278 750.853)"/>
  </g>
</svg>
