<?xml version="1.0" encoding="utf-8"?>
<!-- Generator: Adobe Illustrator 19.1.0, SVG Export Plug-In . SVG Version: 6.00 Build 0)  -->
<svg version="1.1" id="Layer_1" xmlns="http://www.w3.org/2000/svg" xmlns:xlink="http://www.w3.org/1999/xlink" x="0px" y="0px"
	 viewBox="-462 251.5 354.9 290" style="enable-background:new -462 251.5 354.9 290;" xml:space="preserve">
<style type="text/css">
	.st0{opacity:0.25;fill:#000002;stroke:#000002;stroke-width:2;stroke-miterlimit:2.613;enable-background:new    ;}
	.st1{fill:#F3F3FF;stroke:#26263A;stroke-linecap:round;stroke-linejoin:round;stroke-miterlimit:2.613;}
	.st2{fill:#28283C;stroke:#000002;stroke-linecap:round;stroke-linejoin:round;stroke-miterlimit:2.613;}
	.st3{fill:none;stroke:#26263A;stroke-linecap:round;stroke-linejoin:round;stroke-miterlimit:2.613;}
	.st4{fill:none;stroke:#28283C;stroke-linecap:round;stroke-linejoin:round;stroke-miterlimit:2.613;stroke-dasharray:2,3;}
	.st5{fill:none;stroke:#000000;stroke-linecap:round;stroke-linejoin:round;stroke-miterlimit:2.613;}
	.st6{opacity:0.25;fill:#000002;enable-background:new    ;}
	.st7{fill:#26263A;stroke:#26263A;stroke-linecap:round;stroke-linejoin:round;stroke-miterlimit:2.613;}
	.st8{fill:#28283C;stroke:#000000;stroke-miterlimit:2.613;}
	.st9{enable-background:new    ;}
	.st10{fill:#28283C;}
	.st11{fill:#FFF7EB;}
	.st12{fill:#E43626;}
	.st13{fill:#000002;}
	.st14{fill:#FFF7EB;stroke:#000002;stroke-linecap:round;stroke-linejoin:round;stroke-miterlimit:2.613;}
	.st15{fill:none;stroke:#000002;stroke-linecap:round;stroke-linejoin:round;stroke-miterlimit:2.613;}
	.st16{fill:none;stroke:#000002;stroke-width:2;stroke-linecap:round;stroke-linejoin:round;stroke-miterlimit:2.613;}
	.st17{fill:#000002;stroke:#000002;stroke-linecap:round;stroke-linejoin:round;stroke-miterlimit:2.613;}
	.st18{fill:#E43626;stroke:#000002;stroke-linecap:round;stroke-linejoin:round;stroke-miterlimit:2.613;}
	.st19{fill:#000002;stroke:#000002;stroke-width:0.5;stroke-linecap:round;stroke-linejoin:round;stroke-miterlimit:2.613;}
	.st20{fill:#F3F3FF;stroke:#28283C;stroke-linecap:round;stroke-linejoin:round;stroke-miterlimit:2.613;}
	.st21{fill:none;stroke:#28283C;stroke-linecap:round;stroke-linejoin:round;stroke-miterlimit:2.613;}
</style>
<ellipse id="Ellipse_172" class="st0" cx="-150.4" cy="319.3" rx="40.3" ry="3.8"/>
<rect id="Rectangle_2529" x="-185.1" y="275.7" class="st1" width="69.4" height="43.6"/>
<path id="Path_11503" class="st2" d="M-159.4,289.5h17.9c0.6,0,1,0.5,1,1v28.8h-19.8v-28.8C-160.3,290-159.9,289.5-159.4,289.5z"/>
<path id="Path_11500" class="st3" d="M-174.5,266.2h48.2c1.8,0,3.2,1.4,3.2,3.2v6.2h-54.7v-6.2
	C-177.7,267.6-176.3,266.2-174.5,266.2z"/>
<path id="Path_11507" class="st4" d="M-214.1,493.6c-10.4-27.4-36.7-45.6-66-45.6c-5.1,0-10.3,0.5-15.3,1.7"/>
<path id="Path_11511" class="st5" d="M-290.7,451.2c-0.7-0.3-1.5-0.7-2.2-1c-0.8-0.2-1.6-0.4-2.5-0.5c0.7-0.4,1.4-0.9,2-1.4
	c0.6-0.6,1.2-1.2,1.7-1.9"/>
<path id="Path_11508" class="st5" d="M-213.6,488.7c-0.3,0.8-0.4,1.6-0.5,2.4c-0.1,0.8,0,1.7,0,2.6c-0.6-0.6-1.2-1.2-1.8-1.7
	c-0.7-0.5-1.5-0.9-2.2-1.3"/>
<path id="Path_11514" class="st6" d="M-384.8,455.1c42.6,0,77.2,2.4,77.2,5.2c0,2.9-34.5,5.2-77.2,5.2s-77.2-2.3-77.2-5.2
	C-462,457.4-427.5,455.1-384.8,455.1z"/>
<rect id="Rectangle_2534" x="-451.1" y="375.4" class="st1" width="132.5" height="83.3"/>
<rect id="Rectangle_2535" x="-453.1" y="375.4" class="st7" width="136.3" height="7.6"/>
<path id="Path_11516" class="st8" d="M-401.9,401.8h34.1c1,0,1.9,0.9,1.9,1.9v54.9h-37.8v-54.9C-403.8,402.7-403,401.8-401.9,401.8
	C-401.9,401.8-401.9,401.8-401.9,401.8z"/>
<path id="Path_11515" class="st3" d="M-430.8,357.3h91.9c3.4,0,6.2,2.8,6.3,6.3v11.8h-104.4v-11.8
	C-437.1,360.1-434.3,357.3-430.8,357.3C-430.8,357.3-430.8,357.3-430.8,357.3z"/>
<g class="st9">
	<path class="st10" d="M-385.5,354.2c0,1.6-0.5,2.8-1.4,3.7s-2.2,1.3-4,1.3c-1.1,0-2.1-0.2-2.7-0.5v-2.2c0.9,0.5,1.8,0.8,2.6,0.8
		c0.9,0,1.6-0.2,2.1-0.7s0.7-1.1,0.7-1.9V354h0c-0.6,1-1.5,1.4-2.6,1.4c-1.1,0-1.9-0.4-2.6-1.1s-1-1.8-1-3.1c0-1.4,0.4-2.6,1.1-3.4
		s1.6-1.3,2.8-1.3c1,0,1.8,0.4,2.3,1.2h0v-1h2.6V354.2z M-388,351.1v-0.7c0-0.5-0.2-1-0.5-1.4c-0.3-0.4-0.7-0.6-1.2-0.6
		c-0.6,0-1,0.2-1.4,0.7c-0.3,0.5-0.5,1.1-0.5,1.9c0,0.7,0.2,1.3,0.5,1.7s0.7,0.6,1.3,0.6c0.5,0,1-0.2,1.3-0.6
		C-388.2,352.3-388,351.8-388,351.1z"/>
	<path class="st10" d="M-381.9,345.3c-0.4,0-0.8-0.1-1.1-0.4s-0.4-0.6-0.4-1c0-0.4,0.1-0.7,0.4-1s0.6-0.4,1.1-0.4
		c0.4,0,0.8,0.1,1.1,0.4c0.3,0.2,0.4,0.6,0.4,1c0,0.4-0.1,0.7-0.4,1C-381.1,345.2-381.5,345.3-381.9,345.3z M-380.6,355.2h-2.6v-8.5
		h2.6V355.2z"/>
	<path class="st10" d="M-370.1,355.2h-2.6V354h0c-0.6,0.9-1.5,1.4-2.6,1.4c-1.1,0-1.9-0.4-2.6-1.1s-1-1.8-1-3.1
		c0-1.4,0.4-2.5,1.1-3.4s1.6-1.3,2.8-1.3c1.1,0,1.9,0.4,2.3,1.2h0v-5.1h2.6V355.2z M-372.7,351.1v-0.6c0-0.6-0.2-1-0.5-1.4
		s-0.7-0.5-1.3-0.5c-0.6,0-1,0.2-1.4,0.7c-0.3,0.5-0.5,1.1-0.5,1.9c0,0.7,0.2,1.3,0.5,1.7s0.8,0.6,1.3,0.6c0.5,0,1-0.2,1.3-0.6
		C-372.9,352.3-372.7,351.8-372.7,351.1z"/>
	<path class="st10" d="M-359.6,355.2h-2.6V354h0c-0.6,0.9-1.5,1.4-2.6,1.4c-1.1,0-1.9-0.4-2.6-1.1s-1-1.8-1-3.1
		c0-1.4,0.4-2.5,1.1-3.4s1.6-1.3,2.8-1.3c1.1,0,1.9,0.4,2.3,1.2h0v-5.1h2.6V355.2z M-362.2,351.1v-0.6c0-0.6-0.2-1-0.5-1.4
		s-0.7-0.5-1.3-0.5c-0.6,0-1,0.2-1.4,0.7c-0.3,0.5-0.5,1.1-0.5,1.9c0,0.7,0.2,1.3,0.5,1.7s0.8,0.6,1.3,0.6c0.5,0,1-0.2,1.3-0.6
		C-362.3,352.3-362.2,351.8-362.2,351.1z"/>
	<path class="st10" d="M-349.2,355.2h-2.6v-4.8c0-1.2-0.5-1.9-1.4-1.9c-0.5,0-0.8,0.2-1.1,0.5s-0.4,0.8-0.4,1.3v4.8h-2.6v-12.6h2.6
		v5.3h0c0.6-1,1.5-1.5,2.6-1.5c1.9,0,2.9,1.2,2.9,3.5V355.2z"/>
</g>
<path id="Path_11517" class="st11" d="M-415,340c7.4,0,13.4,6,13.4,13.4c0,7.4-6,13.4-13.4,13.4s-13.4-6-13.4-13.4l0,0
	C-428.3,346-422.4,340-415,340C-415,340-415,340-415,340z"/>
<path id="Path_11518" class="st12" d="M-415,338.3c8.4,0,15.1,6.8,15.1,15.1c0,8.4-6.8,15.1-15.1,15.1c-8.4,0-15.1-6.8-15.1-15.1
	C-430.1,345-423.3,338.3-415,338.3z M-415,342.4c-6,0-10.9,4.9-11,10.9c0,6,4.9,10.9,10.9,11s10.9-4.9,11-10.9c0,0,0,0,0,0
	C-404,347.4-408.9,342.4-415,342.4C-414.9,342.4-414.9,342.4-415,342.4z"/>
<path id="Path_11532" class="st13" d="M-414,361.2c2.5,0,4.6-2,4.6-4.6c0-2.5-2-4.6-4.6-4.6c-2.5,0-4.6,2-4.6,4.6
	C-418.6,359.2-416.5,361.2-414,361.2z"/>
<path id="Path_11519" class="st14" d="M-403.9,408.5c2.4-2.4,15.1-2.4,17.5,0s2.4,15.1,0,17.5s-15.1,2.4-17.5,0
	C-406.3,423.6-406.3,410.8-403.9,408.5z"/>
<path id="Path_11520" class="st15" d="M-393,458.6c0.3-3.3,0.3-6.7,0-10"/>
<path id="Path_11521" class="st16" d="M-392.8,451c-0.3-0.8-0.7-1.6-1.1-2.4c0.3,0,0.7-0.1,1-0.1s0.7-0.1,1.1-0.1
	C-392.3,449.3-392.6,450.2-392.8,451z"/>
<path id="Path_11522" class="st17" d="M-393,456.5c1-0.3,2-0.3,3,0c0.4,0.6,0.4,1.4,0,2.1h-3V456.5z"/>
<path id="Path_11523" class="st15" d="M-397.4,458.6c0.3-3.3,0.3-6.7,0-10"/>
<path id="Path_11524" class="st16" d="M-397.3,451c0.2-0.8,0.5-1.6,0.8-2.4c-0.3,0-0.7-0.1-1-0.1s-0.7-0.1-1.1-0.1
	C-398,449.3-397.6,450.1-397.3,451z"/>
<path id="Path_11525" class="st17" d="M-397.4,456.5c1-0.3,2-0.3,3,0c0.4,0.6,0.4,1.4,0,2.1h-3V456.5z"/>
<path id="Path_11526" class="st17" d="M-388.2,418.9c0.2,0,0.4-0.2,0.4-0.4c0,0,0,0,0,0c0-0.2-0.2-0.4-0.4-0.5
	c-0.3,0-0.5,0.2-0.5,0.4c0,0,0,0,0,0C-388.6,418.7-388.4,418.9-388.2,418.9z"/>
<path id="Path_11527" class="st15" d="M-388.2,422.9c0.7,0.3,1.5,0.5,2.3,0.5"/>
<path id="Path_11528" class="st18" d="M-402.8,447.3c1.9,1.9,12.6,1.9,14.5,0s1.9-16.1,0-18s-12.6-1.9-14.5,0
	S-404.7,445.2-402.8,447.3z"/>
<path id="Path_11529" class="st19" d="M-403.9,408.5c2.4-2.4,15.1-2.4,17.5,0s-1.7,7-10.5,7c0,7-4.6,12.9-7,10.5
	C-406.3,423.6-406.3,410.8-403.9,408.5z"/>
<path id="Path_11530" class="st15" d="M-395.5,432.6c-0.4,3.7-0.4,7.5,0,11.2"/>
<path id="Path_11531" class="st17" d="M-395.7,443c-0.5,0.1-0.7,0.6-0.6,1.1c0.1,0.5,0.6,0.7,1.1,0.6c0.5-0.1,0.7-0.6,0.6-1.1
	c0,0,0,0,0,0C-394.8,443.1-395.3,442.8-395.7,443C-395.7,443-395.7,443-395.7,443z"/>
<g id="Group_4471" transform="translate(-669.53 646.5)">
	<path id="Path_11168" class="st10" d="M284.7-183.7c-0.1,0-0.3-0.1-0.4-0.1c-0.2-0.1-0.2-0.3-0.3-0.5v-63.7c0-0.2,0.1-0.4,0.3-0.5
		c0.1-0.1,0.3-0.2,0.4-0.1h0.1l19,3.4c0.3,0.1,0.6,0.3,0.5,0.7v56.8c0,0.3-0.2,0.6-0.5,0.7l-19,3.4
		C284.8-183.8,284.7-183.7,284.7-183.7z"/>
	<path id="Path_11169" d="M284.7-248.2l19,3.4v56.8l-19,3.4V-248.2 M284.7-249.5c-0.3,0-0.6,0.1-0.9,0.3c-0.3,0.2-0.5,0.6-0.5,1
		v63.7c0,0.4,0.2,0.8,0.5,1c0.2,0.2,0.6,0.3,0.9,0.3h0.3l19-3.4c0.6-0.1,1.1-0.7,1.1-1.3v-56.8c0-0.6-0.4-1.2-1.1-1.3l-19-3.4
		C284.8-249.4,284.8-249.5,284.7-249.5z"/>
</g>
<g class="st9">
	<path class="st12" d="M-450.2,480.5c0-0.4-0.1-0.6-0.3-0.7s-0.5-0.2-0.8-0.2c-0.6,0-1.2,0.1-1.7,0.4c-0.5,0.3-0.8,0.6-0.8,1
		c0,0.2,0.1,0.4,0.3,0.6c0.2,0.2,0.7,0.4,1.5,0.6c0.9,0.2,1.5,0.5,1.9,0.8c0.4,0.3,0.6,0.7,0.6,1.1c0,0.7-0.5,1.3-1.6,1.9
		c-1.1,0.6-2.1,0.9-3.3,0.9c-0.4,0-0.7-0.1-0.9-0.2s-0.3-0.3-0.3-0.6c0-0.2,0.1-0.3,0.2-0.5c0.1-0.2,0.2-0.2,0.4-0.2
		c0.1,0,0.2,0,0.2,0c0.4,0.2,0.7,0.2,1.1,0.2c0.6,0,1.2-0.2,1.9-0.5c0.7-0.3,1-0.6,1-0.9c0-0.1-0.1-0.2-0.3-0.4
		c-0.2-0.1-0.5-0.3-1.1-0.4c-0.8-0.3-1.4-0.5-1.8-0.6c-0.4-0.2-0.7-0.4-0.9-0.6c-0.2-0.3-0.3-0.6-0.3-1c0-0.7,0.4-1.3,1.2-1.9
		s1.7-0.9,2.8-0.9c0.6,0,1.1,0.1,1.4,0.4c0.3,0.2,0.5,0.5,0.5,0.8C-449.2,480.2-449.6,480.5-450.2,480.5z"/>
	<path class="st12" d="M-443.1,483.1c-0.1,0.9-0.2,1.7-0.3,2.5c-0.1,0.8-0.4,1.6-0.6,2.2c-0.3,0.7-0.6,1.1-0.9,1.4
		c-0.3,0.2-0.7,0.4-1.2,0.4c-0.5,0-0.9-0.1-1.4-0.3h0c-0.4-0.2-0.7-0.4-1-0.6c-0.3-0.3-0.4-0.5-0.4-0.7c0-0.2,0-0.3,0.1-0.4
		c0.1-0.1,0.2-0.2,0.3-0.2c0.1,0,0.2,0,0.3,0.2c0.5,0.6,1.1,0.9,2,0.9c0.4,0,0.7-0.4,1-1.1c0.3-0.7,0.5-1.6,0.6-2.7
		c-1.1,0.9-2,1.3-2.6,1.3c-0.4,0-0.7-0.2-0.9-0.5s-0.3-0.7-0.3-1.1c0-0.4,0.1-1.1,0.3-1.9c0.2-0.8,0.4-1.3,0.5-1.5
		c0.1-0.2,0.4-0.3,0.7-0.3c0.2,0,0.3,0.1,0.4,0.2s0.1,0.3,0.1,0.5c0,0.1-0.1,0.4-0.4,0.9c-0.3,0.7-0.5,1.3-0.5,1.7
		c0,0.3,0,0.4,0.1,0.6c0.1,0.1,0.1,0.2,0.2,0.2c0.2,0,0.4-0.1,0.6-0.2c0.2-0.1,0.5-0.3,0.9-0.5c0.3-0.3,0.5-0.5,0.6-0.6
		c0.1-0.1,0.2-0.3,0.2-0.5c0.1-0.2,0.1-0.7,0.1-1.4c0-0.4,0-0.7,0.1-0.8c0-0.1,0.1-0.2,0.2-0.3c0.1-0.1,0.2-0.1,0.4-0.1
		c0.2,0,0.4,0,0.5,0.2c0.1,0.1,0.1,0.3,0.1,0.7L-443.1,483.1z"/>
	<path class="st12" d="M-437.3,485.5c-0.2-0.3-0.3-0.9-0.4-1.8c-0.1-0.9-0.3-1.4-0.5-1.4c-0.3,0-0.7,0.5-1.3,1.4s-1,1.7-1.2,2.1
		c0,0.1-0.1,0.2-0.2,0.3c-0.1,0.1-0.2,0.1-0.3,0.1c-0.5,0-0.8-0.2-0.8-0.7c0-0.2,0.1-0.6,0.2-1.1c0.1-0.8,0.2-1.7,0.2-2.8
		c0-0.2,0.1-0.3,0.2-0.5s0.3-0.3,0.5-0.3c0.2,0,0.4,0.1,0.5,0.2s0.2,0.4,0.2,0.8c0,0.3-0.1,1-0.3,2c0.8-1.8,1.6-2.7,2.6-2.7
		c0.8,0,1.3,0.7,1.5,2c0.1,1.3,0.3,2,0.5,2c0.1,0,0.2,0,0.3-0.1c0.1,0,0.2-0.1,0.3-0.1c0.2,0,0.3,0.1,0.3,0.3c0,0.2-0.1,0.4-0.4,0.6
		s-0.5,0.3-0.9,0.3C-436.9,486-437.2,485.8-437.3,485.5L-437.3,485.5z"/>
	<path class="st12" d="M-433,486.5c-0.6,0-1-0.2-1.3-0.5s-0.5-0.8-0.5-1.3c0-0.9,0.4-1.9,1.1-2.9s1.5-1.6,2.2-1.6
		c0.3,0,0.6,0.2,0.9,0.5c0.2,0.3,0.4,0.7,0.4,1.1c0,0.3-0.1,0.6-0.2,0.7c-0.1,0.1-0.2,0.2-0.4,0.2c-0.3,0-0.5-0.2-0.6-0.7
		c0-0.4-0.1-0.5-0.3-0.5c-0.3,0-0.6,0.4-1.1,1.2s-0.7,1.5-0.7,2.1c0,0.5,0.3,0.7,0.8,0.7c0.6,0,1.2-0.2,1.7-0.6
		c0.3-0.2,0.5-0.3,0.7-0.3c0.2,0,0.3,0.1,0.3,0.3c0,0.3-0.3,0.6-0.9,1.1C-431.6,486.3-432.3,486.5-433,486.5z"/>
	<path class="st12" d="M-424.2,484.4c0,0.4-0.3,0.8-0.9,1.3s-1.3,0.8-2.1,0.8c-0.6,0-1.1-0.2-1.4-0.6c-0.3-0.4-0.5-0.9-0.5-1.6
		c0-1,0.4-1.9,1.1-2.8c0.7-0.9,1.5-1.3,2.3-1.3c0.4,0,0.7,0.1,1,0.4c0.2,0.3,0.4,0.6,0.4,0.9c0,0.6-0.3,1.2-0.9,1.8
		c-0.6,0.6-1.4,1-2.3,1.2c-0.1,0-0.2,0.1-0.2,0.2c0,0.2,0.1,0.3,0.2,0.5c0.2,0.2,0.4,0.2,0.6,0.2c0.7,0,1.4-0.4,2.1-1.1
		c0.1-0.1,0.3-0.2,0.4-0.2C-424.3,484-424.2,484.2-424.2,484.4z M-427.8,483.5c0.6-0.1,1.1-0.4,1.5-0.7c0.4-0.4,0.6-0.7,0.6-1
		c0-0.1,0-0.2-0.1-0.3c-0.1-0.1-0.2-0.1-0.3-0.1c-0.3,0-0.7,0.2-1,0.7C-427.4,482.4-427.7,482.9-427.8,483.5z"/>
	<path class="st12" d="M-419.5,484.5c-0.9,1.3-1.9,2-2.8,2c-0.4,0-0.7-0.2-0.9-0.4s-0.3-0.7-0.3-1.1c0-0.9,0.4-1.9,1.1-2.8
		c0.8-0.9,1.5-1.4,2.3-1.4c0.5,0,0.8,0.1,1,0.4c0.3-1.2,0.4-1.9,0.5-2.2c0.1-0.5,0.2-0.9,0.3-1.1s0.2-0.3,0.3-0.4s0.3-0.1,0.4-0.1
		c0.2,0,0.3,0.1,0.4,0.2s0.1,0.3,0.1,0.6c0,0.1-0.1,0.4-0.2,0.9c-0.3,0.8-0.5,1.7-0.7,2.8c-0.2,1.1-0.3,2-0.3,2.6
		c0,0.6,0.1,0.9,0.4,0.9c0.1,0,0.3,0,0.4-0.1c0.2-0.1,0.3-0.1,0.3-0.1c0.2,0,0.3,0.1,0.3,0.3c0,0.2-0.2,0.5-0.5,0.7
		c-0.4,0.2-0.7,0.4-1,0.4c-0.3,0-0.6-0.2-0.8-0.6C-419.5,485.4-419.6,485-419.5,484.5z M-420.1,481.7c-0.5,0-1,0.4-1.5,1.1
		c-0.5,0.7-0.8,1.4-0.8,2c0,0.3,0.1,0.5,0.4,0.5c0.4,0,1-0.4,1.6-1.2c0.6-0.8,0.9-1.4,0.9-1.8c0-0.1-0.1-0.3-0.2-0.4
		S-419.9,481.7-420.1,481.7z"/>
	<path class="st12" d="M-407.3,482.9c0,0.1-0.3,0.6-0.8,1.7c0,0.1-0.1,0.1-0.1,0.2c-0.6,1.2-1.1,1.8-1.4,1.8c-0.5,0-1-0.6-1.4-1.9
		s-0.6-2.3-0.6-3.2c0-0.3,0.1-0.6,0.2-0.7c0.1-0.2,0.4-0.3,0.6-0.3c0.2,0,0.3,0.1,0.4,0.2c0.1,0.1,0.2,0.3,0.2,0.4l0,0.7
		c0,0.2,0,0.4,0,0.6c0,0.4,0.1,0.9,0.2,1.5c0.2,0.6,0.3,0.9,0.3,0.9c0,0,0.2-0.3,0.5-1c0.4-0.8,0.7-1.5,1-1.9h0
		c0.4-0.7,0.7-1.1,1-1.3c0.2,0,0.4,0.1,0.6,0.2c0.1,0.1,0.2,0.2,0.2,0.4c0,0.1,0,0.2,0,0.3c0,0.1,0,0.1,0,0.2c0,1.1,0.3,2.1,0.9,2.9
		c0,0,0.1,0,0.1-0.1c0-0.1,0.1-0.4,0.2-0.8c0.2-0.8,0.5-1.5,0.7-2.2s0.5-1,0.7-1.1c0.2-0.1,0.4-0.2,0.6-0.2c0.1,0,0.3,0.1,0.4,0.2
		c0.1,0.1,0.2,0.2,0.2,0.3c0,0.2,0,0.3-0.1,0.4c-0.5,0.6-0.9,1.5-1.2,2.6c-0.4,1.1-0.6,1.8-0.8,2.1c-0.1,0.3-0.3,0.4-0.4,0.4
		c-0.3,0-0.6-0.1-0.8-0.2c-0.2-0.1-0.4-0.4-0.6-0.7c-0.2-0.3-0.4-0.8-0.5-1.3C-407.2,483.5-407.3,483.1-407.3,482.9z"/>
	<path class="st12" d="M-401.6,482.7L-401.6,482.7c0.1-0.6,0.2-1,0.2-1.1c0-0.3,0.1-0.5,0.2-0.7c0.1-0.2,0.3-0.3,0.5-0.3
		c0.2,0,0.4,0.1,0.6,0.2c0.1,0.1,0.2,0.2,0.2,0.4c0,0.1-0.1,0.4-0.2,0.9l0,0.1c-0.2,0.7-0.3,1.3-0.4,1.7c0,0.4-0.1,0.8-0.1,1.1
		c0,0.2,0,0.5,0.1,0.9c0,0.1,0,0.1,0,0.2c0,0.1-0.1,0.2-0.2,0.3c-0.2,0.1-0.3,0.2-0.5,0.2c-0.5,0-0.7-0.4-0.7-1.1
		c0-0.6,0.1-1.3,0.3-2.2C-401.7,483-401.6,482.9-401.6,482.7z M-399,478.3c0,0.3-0.1,0.5-0.3,0.7s-0.4,0.3-0.6,0.3
		c-0.2,0-0.4-0.1-0.6-0.3c-0.2-0.2-0.2-0.4-0.2-0.5c0-0.3,0.1-0.5,0.2-0.6s0.4-0.2,0.7-0.2c0.2,0,0.4,0.1,0.6,0.2
		C-399.1,477.9-399,478.1-399,478.3z"/>
	<path class="st12" d="M-396.6,481.9c0,0-0.1,0.4-0.3,1.2c-0.2,0.8-0.3,1.3-0.3,1.5c0,0.3,0,0.5,0.1,0.6c0.1,0.1,0.2,0.2,0.3,0.2
		c0.2,0,0.4,0,0.6-0.1c0.2-0.1,0.4-0.2,0.7-0.5c0.2-0.2,0.3-0.2,0.5-0.2c0.1,0,0.2,0,0.2,0.1c0.1,0.1,0.1,0.1,0.1,0.2
		c0,0.3-0.3,0.7-0.8,1.1s-1,0.6-1.6,0.6c-0.5,0-0.8-0.1-1.1-0.4c-0.2-0.3-0.4-0.7-0.4-1.2c0-0.5,0.2-1.4,0.5-2.9c-0.2,0-0.4,0-0.5,0
		h-0.1c-0.2,0-0.3-0.1-0.5-0.2c-0.2-0.1-0.3-0.3-0.3-0.5c0-0.3,0.2-0.5,0.5-0.5l1.1,0c0.2-0.4,0.3-1,0.5-1.7
		c0.1-0.4,0.3-0.7,0.7-0.7c0.2,0,0.4,0.1,0.5,0.2s0.2,0.3,0.2,0.4c0,0.1-0.2,0.6-0.5,1.7c1.1-0.1,1.8-0.2,1.9-0.2
		c0.2,0,0.3,0,0.4,0.1s0.1,0.2,0.1,0.3c0,0.3-0.3,0.5-0.8,0.6L-396.6,481.9z"/>
	<path class="st12" d="M-392.5,483.8c0.6-1.1,1.1-1.9,1.5-2.3c0.4-0.4,0.9-0.6,1.3-0.6c0.3,0,0.6,0.1,0.8,0.3
		c0.2,0.2,0.4,0.8,0.4,1.6c0,0.4,0.1,0.8,0.2,1s0.1,0.5,0.2,0.7c0.1,0.2,0.2,0.4,0.3,0.6c0.1,0.1,0.2,0.3,0.2,0.4s-0.1,0.2-0.2,0.4
		c-0.1,0.1-0.3,0.2-0.4,0.2c-0.3,0-0.6-0.2-0.8-0.5c-0.2-0.3-0.4-0.8-0.4-1.4c-0.1-0.7-0.1-1.2-0.2-1.4c-0.1-0.2-0.2-0.3-0.3-0.3
		c-0.2,0-0.6,0.4-1.2,1.2c-0.6,0.8-1,1.5-1.3,2c-0.2,0.4-0.3,0.6-0.4,0.7s-0.2,0.2-0.3,0.2c-0.2,0-0.4-0.1-0.5-0.2s-0.2-0.3-0.2-0.5
		c0-0.1,0-0.4,0.1-0.9c0.4-1.9,0.7-4,0.9-6.1c0.1-0.5,0.2-0.9,0.3-1.1c0.2-0.2,0.3-0.3,0.4-0.3c0.2,0,0.4,0.1,0.5,0.2
		s0.2,0.4,0.2,0.6c0,0.4,0,0.9-0.1,1.4s-0.3,1.4-0.5,2.5C-392.3,482.8-392.4,483.4-392.5,483.8z"/>
	<path class="st12" d="M-375.7,483.6L-375.7,483.6c-0.1,0.3-0.2,0.7-0.3,1.2s-0.1,0.9-0.1,1.1c0,0.4,0,0.7,0,0.9
		c0,0.2,0,0.3-0.1,0.4s-0.1,0.2-0.2,0.2s-0.2,0.1-0.3,0.1c-0.2,0-0.4-0.1-0.5-0.2c-0.2-0.1-0.2-0.3-0.2-0.5c0-0.1,0.1-0.3,0.2-0.8
		c0.1-0.4,0.2-0.8,0.2-1.1c-1.2,0.9-2.3,1.3-3.2,1.3c-0.6,0-1.2-0.2-1.5-0.6c-0.4-0.4-0.6-0.9-0.6-1.5c0-1,0.3-2,0.9-2.9v0
		c0.7-1,1.4-1.8,2.3-2.3c0.9-0.6,1.8-0.8,2.7-0.8c0.5,0,0.8,0.1,1.1,0.3s0.4,0.4,0.4,0.6c0,0.2-0.1,0.5-0.3,0.7
		c-0.2,0.3-0.4,0.4-0.6,0.4c-0.1,0-0.2,0-0.3-0.1c-0.1,0-0.1-0.1-0.2-0.3c-0.1-0.2-0.1-0.3-0.2-0.3c-0.1-0.1-0.2-0.1-0.4-0.1
		c-0.5,0-1.2,0.3-1.9,0.8c-0.7,0.5-1.3,1.2-1.7,1.9c-0.4,0.7-0.7,1.4-0.7,2.1c0,0.7,0.3,1.1,0.9,1.1c0.3,0,0.7-0.1,1.1-0.2
		c0.4-0.2,0.9-0.4,1.4-0.8s0.8-0.7,0.9-0.9c0.1-0.3,0.2-0.6,0.2-0.9c0-0.2,0.1-0.3,0.2-0.4c0.1-0.1,0.3-0.1,0.5-0.1
		c0.5,0,0.7,0.2,0.7,0.5c0,0.1-0.1,0.3-0.2,0.6C-375.5,483-375.6,483.3-375.7,483.6z"/>
	<path class="st12" d="M-373.5,482.7L-373.5,482.7c0.1-0.6,0.2-1,0.2-1.1c0-0.3,0.1-0.5,0.2-0.7c0.1-0.2,0.3-0.3,0.5-0.3
		c0.2,0,0.4,0.1,0.6,0.2c0.1,0.1,0.2,0.2,0.2,0.4c0,0.1-0.1,0.4-0.2,0.9l0,0.1c-0.2,0.7-0.3,1.3-0.4,1.7c0,0.4-0.1,0.8-0.1,1.1
		c0,0.2,0,0.5,0.1,0.9c0,0.1,0,0.1,0,0.2c0,0.1-0.1,0.2-0.2,0.3c-0.2,0.1-0.3,0.2-0.5,0.2c-0.5,0-0.7-0.4-0.7-1.1
		c0-0.6,0.1-1.3,0.3-2.2C-373.6,483-373.6,482.9-373.5,482.7z M-371,478.3c0,0.3-0.1,0.5-0.3,0.7s-0.4,0.3-0.6,0.3
		c-0.2,0-0.4-0.1-0.6-0.3c-0.2-0.2-0.2-0.4-0.2-0.5c0-0.3,0.1-0.5,0.2-0.6s0.4-0.2,0.7-0.2c0.2,0,0.4,0.1,0.6,0.2
		C-371,477.9-371,478.1-371,478.3z"/>
	<path class="st12" d="M-367,484.5c-0.9,1.3-1.9,2-2.8,2c-0.4,0-0.7-0.2-0.9-0.4s-0.3-0.7-0.3-1.1c0-0.9,0.4-1.9,1.1-2.8
		c0.8-0.9,1.5-1.4,2.3-1.4c0.5,0,0.8,0.1,1,0.4c0.3-1.2,0.4-1.9,0.5-2.2c0.1-0.5,0.2-0.9,0.3-1.1s0.2-0.3,0.3-0.4s0.3-0.1,0.4-0.1
		c0.2,0,0.3,0.1,0.4,0.2s0.1,0.3,0.1,0.6c0,0.1-0.1,0.4-0.2,0.9c-0.3,0.8-0.5,1.7-0.7,2.8c-0.2,1.1-0.3,2-0.3,2.6
		c0,0.6,0.1,0.9,0.4,0.9c0.1,0,0.3,0,0.4-0.1c0.2-0.1,0.3-0.1,0.3-0.1c0.2,0,0.3,0.1,0.3,0.3c0,0.2-0.2,0.5-0.5,0.7
		c-0.4,0.2-0.7,0.4-1,0.4c-0.3,0-0.6-0.2-0.8-0.6C-367,485.4-367,485-367,484.5z M-367.6,481.7c-0.5,0-1,0.4-1.5,1.1
		c-0.5,0.7-0.8,1.4-0.8,2c0,0.3,0.1,0.5,0.4,0.5c0.4,0,1-0.4,1.6-1.2c0.6-0.8,0.9-1.4,0.9-1.8c0-0.1-0.1-0.3-0.2-0.4
		S-367.4,481.7-367.6,481.7z"/>
	<path class="st12" d="M-362.3,483.8c0.6-1.1,1.1-1.9,1.5-2.3c0.4-0.4,0.9-0.6,1.3-0.6c0.3,0,0.6,0.1,0.8,0.3
		c0.2,0.2,0.4,0.8,0.4,1.6c0,0.4,0.1,0.8,0.2,1s0.1,0.5,0.2,0.7c0.1,0.2,0.2,0.4,0.3,0.6c0.1,0.1,0.2,0.3,0.2,0.4s-0.1,0.2-0.2,0.4
		c-0.1,0.1-0.3,0.2-0.4,0.2c-0.3,0-0.6-0.2-0.8-0.5c-0.2-0.3-0.4-0.8-0.4-1.4c-0.1-0.7-0.1-1.2-0.2-1.4c-0.1-0.2-0.2-0.3-0.3-0.3
		c-0.2,0-0.6,0.4-1.2,1.2c-0.6,0.8-1,1.5-1.3,2c-0.2,0.4-0.3,0.6-0.4,0.7s-0.2,0.2-0.3,0.2c-0.2,0-0.4-0.1-0.5-0.2s-0.2-0.3-0.2-0.5
		c0-0.1,0-0.4,0.1-0.9c0.4-1.9,0.7-4,0.9-6.1c0.1-0.5,0.2-0.9,0.3-1.1c0.2-0.2,0.3-0.3,0.4-0.3c0.2,0,0.4,0.1,0.5,0.2
		s0.2,0.4,0.2,0.6c0,0.4,0,0.9-0.1,1.4s-0.3,1.4-0.5,2.5C-362.1,482.8-362.2,483.4-362.3,483.8z"/>
	<path class="st12" d="M-355.4,483.8c0.6-1.1,1.1-1.9,1.5-2.3c0.4-0.4,0.9-0.6,1.3-0.6c0.3,0,0.6,0.1,0.8,0.3
		c0.2,0.2,0.4,0.8,0.4,1.6c0,0.4,0.1,0.8,0.2,1s0.1,0.5,0.2,0.7c0.1,0.2,0.2,0.4,0.3,0.6c0.1,0.1,0.2,0.3,0.2,0.4s-0.1,0.2-0.2,0.4
		c-0.1,0.1-0.3,0.2-0.4,0.2c-0.3,0-0.6-0.2-0.8-0.5c-0.2-0.3-0.4-0.8-0.4-1.4c-0.1-0.7-0.1-1.2-0.2-1.4c-0.1-0.2-0.2-0.3-0.3-0.3
		c-0.2,0-0.6,0.4-1.2,1.2c-0.6,0.8-1,1.5-1.3,2c-0.2,0.4-0.3,0.6-0.4,0.7s-0.2,0.2-0.3,0.2c-0.2,0-0.4-0.1-0.5-0.2s-0.2-0.3-0.2-0.5
		c0-0.1,0-0.4,0.1-0.9c0.4-1.9,0.7-4,0.9-6.1c0.1-0.5,0.2-0.9,0.3-1.1c0.2-0.2,0.3-0.3,0.4-0.3c0.2,0,0.4,0.1,0.5,0.2
		s0.2,0.4,0.2,0.6c0,0.4,0,0.9-0.1,1.4s-0.3,1.4-0.5,2.5C-355.2,482.8-355.4,483.4-355.4,483.8z"/>
</g>
<g class="st9">
	<path class="st10" d="M-167.9,255.2c0-0.4,0-1.6,0-1.7c0-0.6-0.2-0.6-0.5-0.6h-0.3c-0.1,0-0.1,0-0.1-0.1v-0.2c0-0.1,0-0.1,0.1-0.1
		c0.1,0,0.6,0,1.6,0c0.3,0,0.9,0,1.6,0c0.7,0,1.4,0.1,1.7,0.3c0.6,0.3,0.8,0.8,0.8,1.4c0,0.7-0.4,1.3-1.5,1.6v0
		c1.2,0.3,1.9,0.9,1.9,2c0,0.5-0.3,1.3-0.8,1.5c-0.4,0.2-1.1,0.4-2.3,0.4c-0.1,0-0.4,0-0.6,0c-0.3,0-0.6,0-0.8,0c-0.5,0-0.8,0-1,0
		c-0.2,0-0.3,0-0.4,0c-0.1,0-0.1,0-0.1-0.1v-0.2c0-0.1,0-0.1,0.1-0.1h0.3c0.3,0,0.3-0.1,0.4-0.4c0-0.2,0-1.5,0-2.4V255.2z
		 M-166.4,255.6c0.4,0,1,0,1.3-0.3c0.3-0.3,0.5-0.7,0.5-1.2c0-0.4-0.1-0.8-0.4-1c-0.3-0.3-0.8-0.4-0.9-0.4c-0.2,0-0.4,0-0.4,0.2
		c0,0.2,0,1.1,0,1.9V255.6z M-166.4,257.9c0,0.9,0.2,1.3,0.7,1.3c0.7,0,1.4-0.3,1.4-1.6c0-0.8-0.4-1.3-0.9-1.5
		c-0.5-0.2-1-0.2-1.2-0.2V257.9z"/>
	<path class="st10" d="M-160.3,256.8c-0.1,0.2-0.6,1.6-0.6,1.9c0,0.2,0.1,0.5,0.4,0.5h0.3c0.1,0,0.1,0,0.1,0.1v0.2
		c0,0.1,0,0.1-0.1,0.1c-0.1,0-0.5,0-1.4,0c-0.7,0-1,0-1.1,0c-0.1,0-0.1-0.1-0.1-0.1v-0.2c0-0.1,0-0.1,0.1-0.1h0.3
		c0.2,0,0.5-0.1,0.7-0.4c0.1-0.2,0.8-1.9,1.2-2.8c0.1-0.2,0.9-2.3,1-2.6c0-0.1,0.1-0.2,0-0.3c0,0-0.1-0.1-0.1-0.1c0,0,0-0.1,0.1-0.1
		c0.3-0.1,1-0.3,1.1-0.5c0,0,0.1-0.1,0.1-0.1c0.1,0,0.1,0.1,0.1,0.2c0.2,0.6,1,2.9,1.2,3.5c0.2,0.8,0.9,2.6,1,2.9
		c0.2,0.3,0.4,0.4,0.6,0.4h0.3c0.1,0,0.1,0,0.1,0.1v0.2c0,0.1,0,0.1-0.1,0.1c-0.2,0-0.4,0-1.7,0c-0.8,0-1.2,0-1.4,0
		c-0.1,0-0.1-0.1-0.1-0.1v-0.2c0,0,0-0.1,0.1-0.1h0.3c0.3,0,0.4-0.1,0.3-0.4c-0.1-0.4-0.5-1.6-0.6-2H-160.3z M-158.2,256.4l-0.8-2.6
		c0-0.1-0.1-0.2-0.1-0.2c-0.1,0-0.1,0-0.1,0.1c0,0.1-0.9,2.5-1,2.7H-158.2z"/>
	<path class="st10" d="M-148.4,256.6c0-0.9,0-1.4,0-1.9c0-0.4-0.1-1.4-0.1-1.5c-0.1-0.3-0.3-0.4-0.5-0.4h-0.3c0,0-0.1,0-0.1-0.1
		v-0.3c0,0,0-0.1,0.1-0.1c0.1,0,0.4,0,1.2,0c0.6,0,0.8,0,0.9,0c0.1,0,0.1,0,0.1,0.1v0.2c0,0,0,0.1,0,0.1h-0.3
		c-0.2,0-0.3,0.2-0.3,0.5c-0.1,0.7-0.2,2.9-0.2,4.2v1.7c0,0.2,0,0.3-0.1,0.3c-0.1,0-0.3,0-0.4-0.2c-0.2-0.2-0.7-0.7-1.3-1.4l-1.7-2
		c-0.2-0.2-1.5-1.9-1.8-2.2h-0.1v2c0,0.8,0.1,2.1,0.1,2.4c0,0.6,0.2,0.9,0.6,0.9h0.3c0.1,0,0.1,0,0.1,0.1v0.2c0,0.1,0,0.1-0.1,0.1
		c-0.1,0-0.7,0-1.2,0c-0.3,0-1,0-1.1,0c0,0,0,0,0-0.1v-0.3c0,0,0-0.1,0.1-0.1h0.3c0.2,0,0.4-0.3,0.4-1c0-0.2,0.1-1.8,0.1-3.3V254
		c0-0.6-0.4-1.1-0.9-1.2l-0.2,0c0,0-0.1,0-0.1-0.1v-0.3c0,0,0-0.1,0.1-0.1s0.1,0,0.3,0c0.2,0,0.5,0,1,0c0.3,0,0.6,0,0.8,0
		c0.1,0,0.2,0,0.3,0.1l2.3,2.8l1.7,2.1h0V256.6z"/>
	<path class="st10" d="M-144.2,255.7h0.2c0.1,0,0.2,0,0.3-0.1c0.2-0.1,1.8-2.2,1.9-2.4c0.2-0.2,0-0.4-0.2-0.4h-0.2c0,0,0,0,0-0.1
		v-0.3c0,0,0-0.1,0.1-0.1c0.1,0,0.5,0,1.3,0c0.5,0,0.8,0,1,0c0.1,0,0.1,0,0.1,0.1v0.3c0,0,0,0.1-0.1,0.1h-0.2c-0.1,0-0.4,0-0.6,0.2
		c-0.5,0.3-1.8,1.8-2.2,2.3c0.6,0.8,2.3,3.1,2.7,3.6c0.2,0.2,0.4,0.3,0.5,0.3h0.1c0.1,0,0.1,0,0.1,0.1v0.3c0,0,0,0.1-0.1,0.1
		c-0.1,0-0.4,0-1.4,0c-0.8,0-1.2,0-1.4,0c0,0-0.1,0-0.1-0.1v-0.3c0,0,0-0.1,0.1-0.1h0.1c0.2,0,0.2-0.2,0.1-0.3
		c-0.1-0.2-1.6-2.5-1.8-2.7c-0.1-0.1-0.2-0.1-0.3-0.1h-0.1v0.7c0,0.5,0,2,0,2.1c0,0.1,0.1,0.2,0.2,0.2h0.3c0,0,0.1,0,0.1,0.1v0.3
		c0,0,0,0.1-0.1,0.1c-0.1,0-0.4,0-1.3,0c-0.9,0-1.2,0-1.3,0c0,0-0.1,0-0.1-0.1v-0.3c0,0,0-0.1,0.1-0.1h0.3c0.2,0,0.3-0.1,0.3-0.2
		c0-0.1,0-1.9,0-3.1v-0.6c0-0.2,0-2.1,0-2.2c0-0.1,0-0.2-0.3-0.2h-0.3c-0.1,0-0.1,0-0.1-0.1v-0.3c0,0,0-0.1,0.1-0.1
		c0.1,0,0.4,0,1.3,0c0.9,0,1.2,0,1.3,0c0.1,0,0.1,0,0.1,0.1v0.3c0,0,0,0.1-0.1,0.1h-0.2c-0.2,0-0.3,0.1-0.3,0.3c0,0.1,0,1.7,0,2.2
		V255.7z"/>
	<path class="st10" d="M-135.5,254.5c0-0.2,0-0.5-0.2-0.5c-0.1,0-0.2,0-0.5,0.1l-0.5,0.1c-0.1,0-0.1,0-0.1,0l-0.1-0.2
		c0,0,0-0.1,0.1-0.1l2.4-1.2c0.1,0,0.1-0.1,0.2-0.1c0.1,0,0.1,0.1,0.1,0.1c0,0.1,0,1.6,0,2.9v0.4c0,0.5,0,2.2,0,2.3
		c0,0.5,0,0.6,0.5,0.6h0.4c0.1,0,0.1,0,0.1,0.1v0.3c0,0,0,0.1-0.1,0.1c-0.1,0-1.4,0-1.6,0c-0.3,0-1.7,0-1.8,0c-0.1,0-0.1,0-0.1-0.1
		v-0.3c0-0.1,0.1-0.1,0.1-0.1h0.3c0.5,0,0.7,0,0.7-0.5c0-0.4,0-1.5,0-1.9V254.5z"/>
</g>
<path id="Path_11509" class="st4" d="M-212.5,326.5c-8,35.3-36.9,61.9-72.7,66.9c-6.3,0.9-12.6,1.1-18.9,0.6"/>
<path id="Path_11512" class="st5" d="M-290,419.1c-0.8,0.6-1.7,1.1-2.6,1.6c-1,0.4-1.9,0.7-3,1c0.9,0.4,1.8,0.9,2.7,1.4
	c0.9,0.6,1.5,1.3,2.4,2"/>
<path id="Path_11510" class="st5" d="M-210.9,332.4c-0.4-0.9-0.8-1.9-1.1-2.8c-0.3-1-0.3-2.1-0.5-3.1c-0.6,0.8-1.2,1.6-1.9,2.4
	c-0.7,0.7-1.6,1.3-2.4,1.9"/>
<line id="Line_885" class="st4" x1="-292.8" y1="422.1" x2="-193.5" y2="409.8"/>
<path id="Path_11506" class="st5" d="M-197.5,407.6c0.8,0.6,1.7,1.1,2.6,1.6c1,0.4,1.9,0.7,3,1c-0.9,0.4-1.8,0.9-2.7,1.4
	c-0.9,0.6-1.5,1.3-2.4,2"/>
<path id="Path_11513" class="st5" d="M-301,391.1c-0.8,0.6-1.7,1.1-2.6,1.6c-1,0.4-1.9,0.7-3,1c0.9,0.4,1.8,0.9,2.7,1.4
	c0.9,0.6,1.5,1.3,2.4,2"/>
<rect id="Rectangle_2532" x="-186.1" y="275.7" class="st7" width="71.4" height="4"/>
<g>
	<ellipse id="Ellipse_173" class="st0" cx="-150.4" cy="429.5" rx="40.3" ry="3.8"/>
	<rect id="Rectangle_2530" x="-186.2" y="385.9" class="st20" width="69.4" height="43.6"/>
	<path id="Path_11504" class="st2" d="M-160.4,399.8h17.9c0.6,0,1,0.5,1,1v28.8h-19.8v-28.8c-0.1-0.5,0.3-0.9,0.8-1
		C-160.5,399.8-160.4,399.8-160.4,399.8z"/>
	<path id="Path_11501" class="st21" d="M-175.5,376.4h48.2c1.8,0,3.2,1.4,3.2,3.2v6.2h-54.7v-6.2
		C-178.8,377.9-177.3,376.5-175.5,376.4z"/>
	<g class="st9">
		<path class="st10" d="M-168.1,365.4c0-0.4,0-1.6,0-1.7c0-0.6-0.2-0.6-0.5-0.6h-0.3c-0.1,0-0.1,0-0.1-0.1v-0.2c0-0.1,0-0.1,0.1-0.1
			c0.1,0,0.6,0,1.6,0c0.3,0,0.9,0,1.6,0c0.7,0,1.4,0.1,1.7,0.3c0.6,0.3,0.8,0.8,0.8,1.4c0,0.7-0.4,1.3-1.5,1.6v0
			c1.2,0.3,1.9,0.9,1.9,2c0,0.5-0.3,1.3-0.8,1.5c-0.4,0.2-1.1,0.4-2.3,0.4c-0.1,0-0.4,0-0.6,0c-0.3,0-0.6,0-0.8,0c-0.5,0-0.8,0-1,0
			c-0.2,0-0.3,0-0.4,0c-0.1,0-0.1,0-0.1-0.1v-0.2c0-0.1,0-0.1,0.1-0.1h0.4c0.3,0,0.3-0.1,0.4-0.4c0-0.2,0-1.5,0-2.4V365.4z
			 M-166.7,365.8c0.4,0,1,0,1.3-0.3c0.3-0.3,0.5-0.7,0.5-1.2c0-0.4-0.1-0.8-0.4-1c-0.3-0.3-0.8-0.4-0.9-0.4c-0.2,0-0.4,0-0.4,0.2
			c0,0.2,0,1.1,0,1.9V365.8z M-166.7,368.1c0,0.9,0.2,1.3,0.8,1.3c0.7,0,1.4-0.3,1.4-1.6c0-0.8-0.4-1.3-0.9-1.5
			c-0.5-0.2-1-0.2-1.2-0.2V368.1z"/>
		<path class="st10" d="M-160.5,367c-0.1,0.2-0.6,1.6-0.6,1.9c0,0.2,0.1,0.5,0.4,0.5h0.3c0.1,0,0.1,0,0.1,0.1v0.2
			c0,0.1,0,0.1-0.1,0.1c-0.1,0-0.5,0-1.4,0c-0.7,0-1,0-1.1,0c-0.1,0-0.1-0.1-0.1-0.1v-0.2c0-0.1,0-0.1,0.1-0.1h0.3
			c0.2,0,0.5-0.1,0.7-0.4c0.1-0.2,0.8-1.9,1.2-2.8c0.1-0.2,0.9-2.3,1-2.6c0-0.1,0.1-0.2,0-0.3c0,0-0.1-0.1-0.1-0.1
			c0,0,0-0.1,0.1-0.1c0.3-0.1,1-0.3,1.1-0.5c0,0,0.1-0.1,0.1-0.1c0.1,0,0.1,0.1,0.1,0.2c0.2,0.6,1,2.9,1.2,3.5
			c0.2,0.8,0.9,2.6,1,2.9c0.2,0.3,0.4,0.4,0.6,0.4h0.3c0.1,0,0.1,0,0.1,0.1v0.2c0,0.1,0,0.1-0.1,0.1c-0.2,0-0.4,0-1.7,0
			c-0.8,0-1.2,0-1.4,0c-0.1,0-0.1-0.1-0.1-0.1v-0.2c0,0,0-0.1,0.1-0.1h0.3c0.3,0,0.4-0.1,0.3-0.4c-0.1-0.4-0.5-1.6-0.6-2H-160.5z
			 M-158.4,366.6l-0.7-2.6c0-0.1-0.1-0.2-0.1-0.2c-0.1,0-0.1,0-0.1,0.1c0,0.1-0.9,2.5-1,2.7H-158.4z"/>
		<path class="st10" d="M-148.6,366.8c0-0.9,0-1.4,0-1.9c0-0.4-0.1-1.4-0.1-1.5c-0.1-0.3-0.3-0.4-0.5-0.4h-0.3c0,0-0.1,0-0.1-0.1
			v-0.3c0,0,0-0.1,0.1-0.1c0.1,0,0.4,0,1.2,0c0.6,0,0.8,0,1,0c0.1,0,0.1,0,0.1,0.1v0.2c0,0,0,0.1,0,0.1h-0.3c-0.2,0-0.3,0.2-0.3,0.5
			c-0.1,0.7-0.2,2.9-0.2,4.2v1.7c0,0.2,0,0.3-0.2,0.3c-0.1,0-0.3,0-0.4-0.2c-0.2-0.2-0.7-0.7-1.3-1.4l-1.7-2
			c-0.2-0.2-1.5-1.9-1.8-2.2h-0.1v2c0,0.8,0.1,2.1,0.1,2.4c0,0.6,0.2,0.9,0.6,0.9h0.3c0.1,0,0.1,0,0.1,0.1v0.2c0,0.1,0,0.1-0.1,0.1
			c-0.1,0-0.7,0-1.2,0c-0.3,0-1,0-1.1,0c0,0,0,0,0-0.1v-0.3c0,0,0-0.1,0.1-0.1h0.3c0.2,0,0.4-0.3,0.4-1c0-0.2,0.1-1.8,0.1-3.3v-0.9
			c0-0.6-0.4-1.1-0.9-1.2l-0.3,0c0,0-0.1,0-0.1-0.1v-0.3c0,0,0-0.1,0.1-0.1s0.1,0,0.3,0c0.2,0,0.5,0,1,0c0.3,0,0.6,0,0.8,0
			c0.1,0,0.2,0,0.3,0.1l2.3,2.8l1.7,2.1h0V366.8z"/>
		<path class="st10" d="M-144.4,365.9h0.2c0.1,0,0.2,0,0.3-0.1c0.2-0.1,1.8-2.2,1.9-2.4c0.2-0.2,0-0.4-0.2-0.4h-0.2c0,0,0,0,0-0.1
			v-0.3c0,0,0-0.1,0.1-0.1c0.1,0,0.5,0,1.3,0c0.5,0,0.8,0,1,0c0,0,0.1,0,0.1,0.1v0.3c0,0,0,0.1-0.1,0.1h-0.2c-0.1,0-0.4,0-0.6,0.2
			c-0.5,0.3-1.8,1.8-2.2,2.3c0.6,0.8,2.3,3.1,2.7,3.6c0.2,0.2,0.4,0.3,0.5,0.3h0.1c0,0,0.1,0,0.1,0.1v0.3c0,0,0,0.1-0.1,0.1
			c-0.1,0-0.4,0-1.4,0c-0.8,0-1.2,0-1.4,0c0,0-0.1,0-0.1-0.1v-0.3c0,0,0-0.1,0.1-0.1h0.2c0.2,0,0.2-0.2,0.1-0.3
			c-0.1-0.2-1.6-2.5-1.8-2.7c-0.1-0.1-0.2-0.1-0.3-0.1h-0.1v0.7c0,0.5,0,2,0,2.1c0,0.1,0.1,0.2,0.2,0.2h0.3c0.1,0,0.1,0,0.1,0.1v0.3
			c0,0,0,0.1-0.1,0.1c-0.1,0-0.4,0-1.3,0c-0.9,0-1.2,0-1.3,0c0,0-0.1,0-0.1-0.1v-0.3c0,0,0-0.1,0.1-0.1h0.3c0.2,0,0.3-0.1,0.3-0.2
			c0-0.1,0-1.9,0-3.1v-0.6c0-0.2,0-2.1,0-2.2c0-0.1,0-0.2-0.3-0.2h-0.3c-0.1,0-0.1,0-0.1-0.1v-0.3c0,0,0-0.1,0.1-0.1
			c0.1,0,0.4,0,1.3,0c0.9,0,1.2,0,1.3,0c0.1,0,0.1,0,0.1,0.1v0.3c0,0,0,0.1-0.1,0.1h-0.2c-0.2,0-0.3,0.1-0.3,0.3c0,0.1,0,1.7,0,2.2
			V365.9z"/>
		<path class="st10" d="M-136.8,369.7c-0.2,0-0.3,0-0.5,0c-0.1,0-0.3,0-0.3,0c0,0-0.1,0-0.1-0.1c0-0.1,0-0.2,0.1-0.2
			c0.4-0.3,1.2-1.1,1.9-2c0.6-0.8,1-1.6,1-2.4c0-0.7-0.5-1.2-1.2-1.2c-0.6,0-0.9,0.4-1.2,0.8c0,0.1-0.1,0.1-0.1,0.1l-0.2-0.1
			c0,0,0,0,0-0.1c0.2-0.4,0.7-1.5,2.1-1.5c1.1,0,1.9,0.8,1.9,1.8c0,0.8-0.4,1.7-1.5,2.7c-0.6,0.5-1,0.9-1.3,1.2v0h1.7
			c0.6,0,0.9-0.4,1.1-0.8c0-0.1,0.1-0.1,0.2-0.1c0.1,0,0.1,0.1,0.1,0.2l-0.7,1.8c0,0.1-0.1,0.1-0.2,0.1c-0.1,0-0.1,0-0.1-0.1
			c-0.1-0.1-0.3-0.1-0.6-0.1H-136.8z"/>
	</g>
	<rect id="Rectangle_2533" x="-187.2" y="385.9" class="st7" width="71.4" height="4"/>
</g>
<g>
	<ellipse id="Ellipse_173_1_" class="st0" cx="-150.4" cy="536.4" rx="40.3" ry="3.8"/>
	<rect id="Rectangle_2531" x="-183.9" y="492.8" class="st20" width="69.4" height="43.6"/>
	<path id="Path_11505" class="st2" d="M-158.1,506.7h17.9c0.6,0,1,0.5,1,1v28.8H-159v-28.8C-159,507.2-158.7,506.8-158.1,506.7
		C-158.1,506.7-158.1,506.7-158.1,506.7z"/>
	<path id="Path_11502" class="st21" d="M-173.3,483.3h48.2c1.8,0,3.2,1.4,3.2,3.2v6.2h-54.7v-6.2
		C-176.5,484.8-175,483.4-173.3,483.3z"/>
	<g class="st9">
		<path class="st10" d="M-165.8,472.3c0-0.4,0-1.6,0-1.7c0-0.6-0.2-0.6-0.5-0.6h-0.3c-0.1,0-0.1,0-0.1-0.1v-0.2c0-0.1,0-0.1,0.1-0.1
			c0.1,0,0.6,0,1.6,0c0.3,0,0.9,0,1.6,0c0.7,0,1.4,0.1,1.7,0.3c0.6,0.3,0.8,0.8,0.8,1.4c0,0.7-0.4,1.3-1.5,1.6v0
			c1.2,0.3,1.9,0.9,1.9,2c0,0.5-0.3,1.3-0.8,1.5c-0.4,0.2-1.1,0.4-2.3,0.4c-0.1,0-0.4,0-0.6,0c-0.3,0-0.6,0-0.8,0c-0.5,0-0.8,0-1,0
			c-0.2,0-0.3,0-0.4,0c-0.1,0-0.1,0-0.1-0.1v-0.2c0-0.1,0-0.1,0.1-0.1h0.3c0.3,0,0.3-0.1,0.4-0.4c0-0.2,0-1.5,0-2.4V472.3z
			 M-164.4,472.7c0.4,0,1,0,1.3-0.3c0.3-0.3,0.5-0.7,0.5-1.2c0-0.4-0.1-0.8-0.4-1c-0.3-0.3-0.8-0.4-0.9-0.4c-0.2,0-0.4,0-0.4,0.2
			c0,0.2,0,1.1,0,1.9V472.7z M-164.4,475c0,0.9,0.2,1.3,0.8,1.3c0.7,0,1.4-0.3,1.4-1.6c0-0.8-0.4-1.3-0.9-1.5
			c-0.5-0.2-1-0.2-1.2-0.2V475z"/>
		<path class="st10" d="M-158.2,473.9c-0.1,0.2-0.6,1.6-0.6,1.9c0,0.2,0.1,0.5,0.4,0.5h0.3c0.1,0,0.1,0,0.1,0.1v0.2
			c0,0.1,0,0.1-0.1,0.1c-0.1,0-0.5,0-1.4,0c-0.7,0-1,0-1.1,0c-0.1,0-0.1-0.1-0.1-0.1v-0.2c0-0.1,0-0.1,0.1-0.1h0.3
			c0.2,0,0.5-0.1,0.7-0.4c0.1-0.2,0.8-1.9,1.2-2.8c0.1-0.2,0.9-2.3,1-2.6c0-0.1,0.1-0.2,0-0.3c0,0-0.1-0.1-0.1-0.1
			c0,0,0-0.1,0.1-0.1c0.3-0.1,1-0.3,1.1-0.5c0,0,0.1-0.1,0.1-0.1c0.1,0,0.1,0.1,0.1,0.2c0.2,0.6,1,2.9,1.2,3.5
			c0.2,0.8,0.9,2.6,1,2.9c0.2,0.3,0.4,0.4,0.6,0.4h0.3c0.1,0,0.1,0,0.1,0.1v0.2c0,0.1,0,0.1-0.1,0.1c-0.2,0-0.4,0-1.7,0
			c-0.8,0-1.2,0-1.4,0c-0.1,0-0.1-0.1-0.1-0.1v-0.2c0,0,0-0.1,0.1-0.1h0.3c0.3,0,0.4-0.1,0.3-0.4c-0.1-0.4-0.5-1.6-0.6-2H-158.2z
			 M-156.1,473.5l-0.8-2.6c0-0.1-0.1-0.2-0.1-0.2c-0.1,0-0.1,0-0.1,0.1c0,0.1-0.9,2.5-1,2.7H-156.1z"/>
		<path class="st10" d="M-146.3,473.7c0-0.9,0-1.4,0-1.9c0-0.4-0.1-1.4-0.1-1.5c-0.1-0.3-0.3-0.4-0.5-0.4h-0.3c-0.1,0-0.1,0-0.1-0.1
			v-0.3c0,0,0-0.1,0.1-0.1c0.1,0,0.4,0,1.2,0c0.6,0,0.8,0,0.9,0c0.1,0,0.1,0,0.1,0.1v0.2c0,0,0,0.1,0,0.1h-0.3
			c-0.2,0-0.3,0.2-0.3,0.5c-0.1,0.7-0.2,2.9-0.2,4.2v1.7c0,0.2,0,0.3-0.2,0.3c-0.1,0-0.3,0-0.4-0.2c-0.2-0.2-0.7-0.7-1.3-1.4l-1.7-2
			c-0.2-0.2-1.5-1.9-1.8-2.2h-0.1v2c0,0.8,0.1,2.1,0.1,2.4c0,0.6,0.2,0.9,0.6,0.9h0.3c0.1,0,0.1,0,0.1,0.1v0.2c0,0.1,0,0.1-0.1,0.1
			c-0.1,0-0.7,0-1.2,0c-0.3,0-1,0-1.1,0c0,0-0.1,0-0.1-0.1v-0.3c0,0,0-0.1,0.1-0.1h0.3c0.2,0,0.4-0.3,0.4-1c0-0.2,0.1-1.8,0.1-3.3
			v-0.9c0-0.6-0.4-1.1-0.9-1.2l-0.3,0c0,0-0.1,0-0.1-0.1v-0.3c0,0,0-0.1,0.1-0.1c0.1,0,0.1,0,0.3,0c0.2,0,0.5,0,1,0
			c0.3,0,0.6,0,0.8,0c0.1,0,0.2,0,0.3,0.1l2.3,2.8l1.7,2.1h0V473.7z"/>
		<path class="st10" d="M-142.1,472.8h0.2c0.1,0,0.2,0,0.3-0.1c0.2-0.1,1.8-2.2,1.9-2.4c0.2-0.2,0-0.4-0.2-0.4h-0.2c0,0,0,0,0-0.1
			v-0.3c0,0,0-0.1,0.1-0.1c0.1,0,0.5,0,1.3,0c0.5,0,0.8,0,1,0c0.1,0,0.1,0,0.1,0.1v0.3c0,0,0,0.1-0.1,0.1h-0.2c-0.1,0-0.4,0-0.6,0.2
			c-0.5,0.3-1.8,1.8-2.2,2.3c0.6,0.8,2.3,3.1,2.7,3.6c0.2,0.2,0.4,0.3,0.5,0.3h0.1c0.1,0,0.1,0,0.1,0.1v0.3c0,0,0,0.1-0.1,0.1
			c-0.1,0-0.4,0-1.4,0c-0.8,0-1.2,0-1.4,0c0,0-0.1,0-0.1-0.1v-0.3c0,0,0-0.1,0.1-0.1h0.2c0.2,0,0.2-0.2,0.1-0.3
			c-0.1-0.2-1.6-2.5-1.8-2.7c-0.1-0.1-0.2-0.1-0.3-0.1h-0.1v0.7c0,0.5,0,2,0,2.1c0,0.1,0.1,0.2,0.2,0.2h0.3c0.1,0,0.1,0,0.1,0.1v0.3
			c0,0,0,0.1-0.1,0.1c-0.1,0-0.4,0-1.3,0c-0.9,0-1.2,0-1.3,0c0,0-0.1,0-0.1-0.1v-0.3c0,0,0-0.1,0.1-0.1h0.3c0.2,0,0.3-0.1,0.3-0.2
			c0-0.1,0-1.9,0-3.1v-0.6c0-0.2,0-2.1,0-2.2c0-0.1,0-0.2-0.3-0.2h-0.3c-0.1,0-0.1,0-0.1-0.1v-0.3c0,0,0-0.1,0.1-0.1
			c0.1,0,0.4,0,1.3,0c0.9,0,1.2,0,1.3,0c0.1,0,0.1,0,0.1,0.1v0.3c0,0,0,0.1-0.1,0.1h-0.2c-0.2,0-0.3,0.1-0.3,0.3c0,0.1,0,1.7,0,2.2
			V472.8z"/>
		<path class="st10" d="M-135.2,476c0-0.3,0.2-0.5,0.4-0.5c0.4,0,0.6,0.3,0.7,0.5c0.1,0.1,0.2,0.3,0.6,0.3c0.7,0,1.2-0.7,1.2-1.4
			c0-0.9-0.5-1.5-1.4-1.7c-0.2,0-0.2-0.1-0.2-0.2c0-0.1,0-0.2,0.2-0.2c0.8-0.1,1.3-0.6,1.3-1.3c0-0.5-0.3-1-0.9-1
			c-0.6,0-0.9,0.4-1.1,0.9c0,0.1-0.1,0.1-0.1,0.1l-0.2-0.1c-0.1,0-0.1-0.1,0-0.1c0.1-0.7,0.7-1.6,2-1.6c1.2,0,1.7,0.8,1.7,1.4
			c0,0.8-0.6,1.3-1.3,1.7v0c0.8,0.1,1.6,0.8,1.6,1.7c0,1.2-1.1,2.2-2.8,2.2C-134.9,476.8-135.2,476.3-135.2,476z"/>
	</g>
	<rect id="Rectangle_2528" x="-184.9" y="492.8" class="st7" width="71.4" height="4"/>
</g>
</svg>
