<?xml version="1.0" encoding="utf-8"?>
<!-- Generator: Adobe Illustrator 19.1.0, SVG Export Plug-In . SVG Version: 6.00 Build 0)  -->
<svg version="1.1" id="Layer_1" xmlns="http://www.w3.org/2000/svg" xmlns:xlink="http://www.w3.org/1999/xlink" x="0px" y="0px"
	 viewBox="-387 252 504 290" style="enable-background:new -387 252 504 290;" xml:space="preserve">
<style type="text/css">
	.st0{fill:#F3F3FF;stroke:#26263A;stroke-width:2;stroke-miterlimit:2.613;}
	.st1{fill:#26263A;stroke:#26263A;stroke-width:2;stroke-miterlimit:2.613;}
	.st2{fill:none;stroke:#26263A;stroke-width:2;stroke-linecap:round;stroke-linejoin:round;stroke-miterlimit:2.613;}
	.st3{fill:#000002;stroke:#26263A;stroke-width:2;stroke-miterlimit:2.613;}
	.st4{fill:#26263A;stroke:#26263A;stroke-width:2;stroke-linecap:round;stroke-linejoin:round;stroke-miterlimit:2.613;}
	.st5{fill:none;stroke:#26263A;stroke-width:2;stroke-miterlimit:2.613;}
	.st6{enable-background:new    ;}
	.st7{fill:#26263A;}
	.st8{fill:#FFF7EB;}
	.st9{fill:#E43626;}
	.st10{fill:#000002;}
	
		.st11{fill:none;stroke:#26263A;stroke-width:2;stroke-linecap:round;stroke-linejoin:round;stroke-miterlimit:2.613;stroke-dasharray:2,3;}
	.st12{fill:#F3F3FF;stroke:#26263A;stroke-width:2;stroke-linecap:round;stroke-linejoin:round;stroke-miterlimit:2.613;}
	.st13{fill:#E7E7E7;stroke:#26263A;stroke-width:2;stroke-linecap:round;stroke-linejoin:round;stroke-miterlimit:2.613;}
</style>
<g>
	<path id="Path_11319" class="st0" d="M-252.3,393.2c5.5-5.5,34.7-5.5,40.2,0s5.5,34.7,0,40.2s-34.7,5.5-40.2,0
		C-257.7,428-257.7,398.7-252.3,393.2z"/>
	<path id="Path_11320" class="st1" d="M-252.3,393.2c5.5-5.5,34.7-5.5,40.2,0c1.7,1.8,2.4,4.6,2.9,7.3c-1.7,1.7-5.3,4.3-8.3,3.5
		c-3.1-0.8-4.9-4.1-5-9.9c-0.7,5.8-0.3,8.8-5.5,10.2c-3.5,0.9-13.1,0.4-20-1c-3.3-0.7-6.1-1.6-7.2-2.8
		C-254.7,398.1-254.1,395.2-252.3,393.2z"/>
	<path id="Path_11321" class="st0" d="M-248.9,482.4c4.6,4.6,28.8,4.6,33.4,0c4.6-4.6,4.6-36.9,0-41.5c-4.6-4.6-28.8-4.6-33.4,0
		C-253.4,445.5-253.4,477.8-248.9,482.4z"/>
	<path id="Path_11322" class="st2" d="M-227,425.4c-3.2,2.1-6.6,2.2-10.2,0"/>
	<path id="Path_11323" class="st2" d="M-231.4,469.6c1.3-12.7-0.8-24.6-0.5-25.7c1.7-0.9,4.6-3.7,4.3-4c-0.4-0.2-3.1,4.8-9.1,0.7"/>
	<ellipse id="Ellipse_155" class="st3" cx="-222.3" cy="415.3" rx="1" ry="1"/>
	<ellipse id="Ellipse_156" class="st3" cx="-242.1" cy="415.3" rx="1" ry="1"/>
	<path id="Path_11324" class="st2" d="M-227.1,508.6c0.6-7.6,0.6-15.3,0-23"/>
	<path id="Path_11325" class="st2" d="M-226.9,491.1c-0.7-1.9-1.6-3.6-2.7-5.3c0.8,0,1.5-0.1,2.3-0.2c0.8-0.1,1.6-0.2,2.4-0.2
		C-225.9,487.2-225.9,489-226.9,491.1z"/>
	<path id="Path_11326" class="st4" d="M-227.1,503.9c0.9-0.7,6-0.7,6.9,0s0.9,4.1,0,4.7h-6.9V503.9z"/>
	<path id="Path_11327" class="st2" d="M-237.3,508.6c-0.6-7.6-0.6-15.3,0-23"/>
	<path id="Path_11328" class="st2" d="M-237.7,491.1c0.7-1.9,1.6-3.6,2.7-5.3c-0.8,0-1.5-0.1-2.3-0.2c-0.8-0.1-1.6-0.2-2.4-0.2
		C-238.5,487.2-238.5,489-237.7,491.1z"/>
	<path id="Path_11329" class="st4" d="M-237.3,503.9c-0.9-0.7-6-0.7-6.9,0s-0.9,4.1,0,4.7h6.9V503.9z"/>
	<path id="Path_11330" class="st2" d="M-213.1,475.7c17.8-9.2,11.6-21.8-2.4-34.8"/>
	<line id="Line_867" class="st2" x1="-212.4" y1="474.2" x2="-211.4" y2="476"/>
	<path id="Path_11331" class="st2" d="M-251.4,475.7c-17.8-9.2-11.6-21.8,2.4-34.8"/>
	<line id="Line_868" class="st2" x1="-252.1" y1="474.2" x2="-253.1" y2="476"/>
	<path id="Path_11332" class="st0" d="M-58.9,393.2c5.4-5.4,34.3-5.4,39.7,0c5.4,5.4,5.4,34.3,0,39.8s-34.3,5.4-39.7,0
		C-64.3,427.6-64.3,398.6-58.9,393.2z"/>
	<path id="Path_11333" class="st1" d="M-58.9,393.2c5.4-5.4,34.3-5.4,39.7,0c1.7,1.8,2.4,4.5,2.9,7.2c-1.7,1.7-5.2,4.2-8.2,3.4
		c-3-0.8-4.8-4-5-9.8c-0.7,5.8-0.3,8.7-5.4,10.1c-3.5,0.9-13,0.4-19.8-1c-3.3-0.7-6-1.6-7.1-2.8C-61.3,398-60.6,395.1-58.9,393.2z"
		/>
	<path id="Path_11334" class="st0" d="M-55.6,481.4c4.5,4.5,28.5,4.5,33,0s4.5-36.5,0-41s-28.5-4.5-33,0S-60,477-55.6,481.4z"/>
	<path id="Path_11335" class="st2" d="M-34,425.1c-3.1,2.1-6.5,2.2-10.1,0"/>
	<path id="Path_11336" class="st2" d="M-38.2,468.7c1.3-12.6-0.8-24.4-0.5-25.4c1.6-0.9,4.6-3.7,4.2-3.9c-0.4-0.2-3.1,4.8-9,0.7"/>
	<path id="Path_11337" class="st3" d="M-29.2,416c0.5,0,0.9-0.4,0.9-0.9s-0.4-0.9-0.9-0.9s-0.9,0.4-0.9,0.9S-29.7,416-29.2,416
		L-29.2,416z"/>
	<path id="Path_11338" class="st3" d="M-48.7,416c0.5,0,0.9-0.4,0.9-0.9s-0.4-0.9-0.9-0.9s-0.9,0.4-0.9,0.9S-49.3,416-48.7,416
		L-48.7,416z"/>
	<path id="Path_11339" class="st2" d="M-34.1,507.3c0.6-7.6,0.6-15.2,0-22.8"/>
	<path id="Path_11340" class="st2" d="M-33.7,490c-0.7-1.8-1.6-3.6-2.6-5.3c0.8,0,1.5-0.1,2.3-0.1c0.8-0.1,1.6-0.2,2.4-0.2
		C-32.8,486.2-32.8,488-33.7,490z"/>
	<path id="Path_11341" class="st4" d="M-34.1,502.7c0.9-0.7,5.9-0.7,6.8,0s0.9,4.1,0,4.6h-6.8V502.7z"/>
	<path id="Path_11342" class="st2" d="M-44,507.3c-0.6-7.6-0.6-15.2,0-22.8"/>
	<path id="Path_11343" class="st2" d="M-44.4,490c0.7-1.8,1.6-3.6,2.6-5.3c-0.8,0-1.5-0.1-2.3-0.1c-0.8-0.1-1.6-0.2-2.4-0.2
		C-45.2,486.2-45.2,488-44.4,490z"/>
	<path id="Path_11344" class="st4" d="M-44,502.7c-0.9-0.7-5.9-0.7-6.8,0s-0.9,4.1,0,4.6h6.8V502.7z"/>
	<path id="Path_11345" class="st2" d="M-20.1,474.9c17.6-9.1,11.5-21.5-2.4-34.5"/>
	<line id="Line_869" class="st2" x1="-19.5" y1="473.4" x2="-18.4" y2="475.1"/>
	<path id="Path_11346" class="st2" d="M-57.9,474.9c-17.6-9.1-11.5-21.5,2.4-34.5"/>
	<line id="Line_870" class="st2" x1="-58.7" y1="473.4" x2="-59.7" y2="475.1"/>
	<path id="Path_11347" class="st5" d="M-48.7,421.2c3.4,0,6.2-2.8,6.2-6.2c0-3.4-2.8-6.2-6.2-6.2s-6.2,2.8-6.2,6.2l0,0
		C-54.9,418.4-52.2,421.2-48.7,421.2C-48.8,421.2-48.8,421.2-48.7,421.2z"/>
	<path id="Path_11348" class="st5" d="M-29.2,421.2c3.4,0,6.2-2.8,6.2-6.2c0-3.4-2.8-6.2-6.2-6.2s-6.2,2.8-6.2,6.2l0,0
		C-35.4,418.4-32.6,421.2-29.2,421.2L-29.2,421.2z"/>
	<path id="Path_11349" class="st2" d="M-35.4,415.7c-2.3-1.5-4.6-1.5-7.3,0"/>
	<g class="st6">
		<path class="st7" d="M-142.2,363.4c0,5.1-2.6,7.7-7.8,7.7c-1.8,0-3.4-0.3-4.8-0.9v-2.9c1.5,0.9,3,1.3,4.4,1.3c3.3,0,5-1.6,5-4.9
			v-1.5h-0.1c-1,1.8-2.6,2.7-4.7,2.7c-1.7,0-3.1-0.6-4.1-1.9c-1-1.2-1.6-2.9-1.6-5c0-2.4,0.6-4.3,1.7-5.7c1.1-1.4,2.7-2.1,4.6-2.1
			s3.2,0.8,4.1,2.3h0.1v-1.9h3.2V363.4L-142.2,363.4z M-145.3,358.1v-1.8c0-1-0.3-1.8-1-2.5c-0.7-0.7-1.5-1-2.4-1
			c-1.2,0-2.1,0.4-2.8,1.3c-0.7,0.9-1,2.1-1,3.7c0,1.4,0.3,2.5,1,3.3c0.7,0.8,1.5,1.2,2.6,1.2s2-0.4,2.7-1.2
			C-145.5,360.3-145.3,359.3-145.3,358.1z"/>
		<path class="st7" d="M-136.5,347.5c-0.5,0-1-0.2-1.3-0.5c-0.3-0.3-0.6-0.8-0.6-1.3s0.2-1,0.6-1.3c0.4-0.3,0.8-0.5,1.3-0.5
			s1,0.2,1.4,0.5s0.6,0.8,0.6,1.3s-0.2,0.9-0.6,1.3C-135.5,347.4-135.9,347.5-136.5,347.5z M-134.9,364.5h-3.2v-14h3.2V364.5z"/>
		<path class="st7" d="M-118,364.5h-3.2v-2.4h-0.1c-1,1.8-2.6,2.7-4.7,2.7c-1.7,0-3.1-0.6-4.1-1.9s-1.6-3-1.6-5.1
			c0-2.3,0.6-4.2,1.7-5.6c1.1-1.4,2.7-2.1,4.6-2.1s3.3,0.8,4.1,2.3h0.1v-8.7h3.2L-118,364.5L-118,364.5z M-121.2,358.1v-1.8
			c0-1-0.3-1.8-1-2.5c-0.6-0.7-1.5-1-2.5-1c-1.2,0-2.1,0.4-2.8,1.3c-0.7,0.9-1,2.1-1,3.7c0,1.4,0.3,2.5,1,3.4
			c0.7,0.8,1.5,1.2,2.6,1.2s2-0.4,2.6-1.2C-121.5,360.3-121.2,359.3-121.2,358.1z"/>
		<path class="st7" d="M-101.2,364.5h-3.2v-2.4h-0.1c-1,1.8-2.6,2.7-4.7,2.7c-1.7,0-3.1-0.6-4.1-1.9s-1.6-3-1.6-5.1
			c0-2.3,0.6-4.2,1.7-5.6c1.1-1.4,2.7-2.1,4.6-2.1s3.3,0.8,4.1,2.3h0.1v-8.7h3.2V364.5z M-104.3,358.1v-1.8c0-1-0.3-1.8-1-2.5
			c-0.6-0.7-1.5-1-2.5-1c-1.2,0-2.1,0.4-2.8,1.3c-0.7,0.9-1,2.1-1,3.7c0,1.4,0.3,2.5,1,3.4c0.7,0.8,1.5,1.2,2.6,1.2s2-0.4,2.6-1.2
			C-104.6,360.3-104.3,359.3-104.3,358.1z"/>
		<path class="st7" d="M-84.6,364.5h-3.2v-7.7c0-2.8-0.9-4.2-2.8-4.2c-0.9,0-1.7,0.4-2.4,1.2c-0.6,0.8-1,1.8-1,3.1v7.5h-3.2v-20.7
			h3.2v9.1h0.1c1.1-1.8,2.6-2.7,4.5-2.7c3.1,0,4.7,1.9,4.7,5.7v8.7H-84.6z"/>
	</g>
	<path id="Path_11350" class="st8" d="M-117.8,302.6c8.7,0,15.8,7,15.8,15.7s-7,15.8-15.7,15.8s-15.8-7-15.8-15.7l0,0
		C-133.6,309.7-126.6,302.6-117.8,302.6C-117.9,302.6-117.9,302.6-117.8,302.6z"/>
	<path id="Path_11351" class="st9" d="M-117.8,300.5c9.9,0,17.8,8,17.9,17.8c0,9.9-8,17.8-17.8,17.9c-9.9,0-17.8-8-17.9-17.8l0,0
		C-135.7,308.5-127.7,300.5-117.8,300.5C-117.9,300.5-117.9,300.5-117.8,300.5z M-117.8,305.5c-7.1,0-12.9,5.8-12.9,12.9
		c0,7.1,5.8,12.9,12.9,12.9s12.9-5.8,12.9-12.9l0,0C-105,311.3-110.7,305.5-117.8,305.5L-117.8,305.5z"/>
	<path id="Path_11352" class="st10" d="M-116.8,327.6c2.9,0,5.3-2.4,5.3-5.3c0-2.9-2.4-5.3-5.3-5.3s-5.3,2.4-5.3,5.3l0,0
		C-122.1,325.2-119.8,327.6-116.8,327.6L-116.8,327.6z"/>
	<path id="Path_11353" class="st11" d="M-266.6,339.5c20.6-25.5,54.8-35.6,86-25.4c5.5,1.8,10.7,4.1,15.6,7"/>
	<path id="Path_11354" class="st2" d="M-170.5,321.1c0.9-0.1,1.8-0.2,2.7-0.3c1,0,1.9,0.2,2.8,0.4c-0.6-0.8-1.1-1.4-1.6-2.2
		c-0.4-0.8-0.8-1.7-1.1-2.6"/>
	<path id="Path_11355" class="st2" d="M-265.4,334.1c0,0.9-0.1,1.8-0.2,2.8c-0.2,0.9-0.5,1.8-0.9,2.7c0.9-0.4,1.6-0.9,2.5-1.1
		s1.8-0.4,2.7-0.6"/>
	<path id="Path_11356" class="st11" d="M2,336.4c-19.9-24.6-54.7-30.9-81.9-14.8"/>
	<path id="Path_11357" class="st2" d="M-75.5,321.6c-0.7-0.1-1.4-0.2-2.2-0.3c-0.8,0-1.5,0.1-2.3,0.3c0.5-0.6,0.9-1.2,1.3-1.8
		c0.3-0.7,0.6-1.4,0.9-2.1"/>
	<path id="Path_11358" class="st2" d="M1,332c0,0.7,0.1,1.5,0.2,2.2c0.2,0.8,0.5,1.4,0.7,2.2c-0.6-0.4-1.3-0.7-2-0.9
		s-1.5-0.4-2.3-0.5"/>
	<path id="Path_11359" class="st12" d="M-385.7,362.6h18c15.5-22.5,46.3-28.2,68.8-12.7c5,3.4,9.3,7.8,12.7,12.7h18v148.6h-117.5
		V362.6z"/>
	<rect id="Rectangle_2470" x="-367.8" y="497.2" class="st2" width="14.1" height="14.1"/>
	<rect id="Rectangle_2471" x="-300.3" y="497.2" class="st2" width="14.1" height="14.1"/>
	<rect id="Rectangle_2472" x="-367.8" y="468.9" class="st2" width="14.1" height="14.1"/>
	<rect id="Rectangle_2473" x="-345.3" y="468.9" class="st13" width="36.6" height="42.4"/>
	<rect id="Rectangle_2474" x="-300.3" y="468.9" class="st2" width="14.1" height="14.1"/>
	<rect id="Rectangle_2475" x="-367.8" y="440.6" class="st2" width="14.1" height="14.1"/>
	<rect id="Rectangle_2476" x="-345.3" y="440.6" class="st2" width="14.1" height="14.1"/>
	<rect id="Rectangle_2477" x="-322.9" y="440.6" class="st2" width="14.1" height="14.1"/>
	<rect id="Rectangle_2478" x="-300.3" y="440.6" class="st2" width="14.1" height="14.1"/>
	<rect id="Rectangle_2479" x="-367.8" y="412.4" class="st2" width="14.1" height="14.1"/>
	<rect id="Rectangle_2480" x="-345.3" y="412.4" class="st2" width="14.1" height="14.1"/>
	<rect id="Rectangle_2481" x="-322.9" y="412.4" class="st2" width="14.1" height="14.1"/>
	<rect id="Rectangle_2482" x="-300.3" y="412.4" class="st2" width="14.1" height="14.1"/>
	<path id="Path_11360" class="st2" d="M-385.9,362.6h18c15.5-22.5,46.3-28.2,68.8-12.7c5,3.4,9.3,7.8,12.7,12.7h18v148.6h-117.5
		V362.6z"/>
	<line id="Line_871" class="st2" x1="-327" y1="333.9" x2="-327" y2="341.2"/>
	<line id="Line_872" class="st2" x1="-310.7" y1="336.4" x2="-312.6" y2="343.3"/>
	<line id="Line_873" class="st2" x1="-298" y1="342.3" x2="-301.4" y2="348.3"/>
	<line id="Line_874" class="st2" x1="-343.2" y1="336.4" x2="-341.4" y2="343.3"/>
	<line id="Line_875" class="st2" x1="-355.9" y1="342.3" x2="-352.5" y2="348.3"/>
	<path id="Path_11361" class="st7" d="M-327,325l1.5,4.2l4.5,0.1l-3.5,2.8l1.2,4.2l-3.7-2.5l-3.6,2.5l1.2-4.2l-3.5-2.8l4.5-0.1
		L-327,325z"/>
	<path id="Path_11362" class="st7" d="M-308.8,329.4l0.3,3.6l3.5,1l-3.4,1.4l0.1,3.6l-2.4-2.8l-3.4,1.2l1.9-3.1l-2.3-2.9l3.6,0.9
		L-308.8,329.4z"/>
	<path id="Path_11363" class="st7" d="M-295.4,337.7l-0.5,2.7l2.4,1.4l-2.7,0.4l-0.7,2.7l-1.1-2.5l-2.7,0.2l2-1.9l-1-2.5l2.5,1.2
		L-295.4,337.7z"/>
	<path id="Path_11364" class="st7" d="M-345.1,329.4l-0.3,3.6l-3.5,1l3.4,1.4l-0.2,3.6l2.5-2.8l3.4,1.2l-1.9-3.1l2.2-2.8l-3.5,0.8
		L-345.1,329.4z"/>
	<path id="Path_11365" class="st7" d="M-358.7,337.7l0.5,2.7l-2.3,1.4l2.7,0.4l0.6,2.7l1.2-2.5l2.7,0.2l-2-1.9l1.1-2.5l-2.5,1.2
		L-358.7,337.7z"/>
	<g class="st6">
		<path class="st9" d="M-218.8,263.9c0-0.9-0.2-1.5-0.7-1.7s-1.1-0.3-1.8-0.3c-1.4,0-2.8,0.3-3.9,0.9c-1.2,0.6-1.8,1.3-1.8,2.1
			c0,0.6,0.3,1.1,0.8,1.5c0.5,0.4,1.7,0.9,3.4,1.4c1.7,0.5,2.9,1,3.6,1.5c0.7,0.5,1.1,1.2,1.1,1.9c0,0.7-0.5,1.6-1.5,2.4
			c-1,0.9-2.2,1.5-3.6,2c-1.4,0.5-2.6,0.7-3.6,0.7c-0.8,0-1.5-0.1-1.9-0.3c-0.4-0.2-0.6-0.4-0.6-0.7c0-0.2,0.1-0.5,0.2-0.8
			c0.1-0.3,0.3-0.4,0.4-0.4c0.1,0,0.3,0,0.4,0.1c0.7,0.3,1.5,0.4,2.2,0.4c1.3,0,2.7-0.4,4.1-1.1c1.4-0.8,2.2-1.5,2.2-2.1
			c0-0.3-0.2-0.5-0.7-0.8c-0.4-0.3-1.6-0.7-3.3-1.2c-2.2-0.7-3.6-1.4-4.1-2.1s-0.8-1.4-0.8-2.1c0-1.4,0.8-2.6,2.5-3.4
			c1.6-0.9,3.3-1.3,5.1-1.3c1.2,0,2.1,0.2,2.7,0.6c0.6,0.4,1,0.8,1,1.3c0,0.2-0.1,0.6-0.2,1C-217.7,263.8-218.3,263.9-218.8,263.9z"
			/>
		<path class="st9" d="M-208,271.7c-1.3,1.1-2.4,1.9-3.3,2.4c-1,0.5-1.7,0.7-2.2,0.7c-0.7,0-1.2-0.3-1.6-0.8c-0.4-0.6-0.5-1.2-0.5-2
			c0-1.1,0.2-2.4,0.6-3.9c0.4-1.5,0.7-2.5,1-2.8c0.2-0.3,0.5-0.4,1-0.4c0.2,0,0.3,0.1,0.5,0.3c0.2,0.2,0.2,0.5,0.2,0.8
			c0,0.2-0.1,0.4-0.2,0.7c-0.4,0.6-0.6,1-0.6,1.1c0,0.1-0.1,0.5-0.4,1.2c-0.2,0.8-0.4,1.5-0.4,2.1c0,0.2,0.1,0.6,0.2,1.1
			c0.1,0.5,0.3,0.7,0.7,0.7s0.8-0.1,1.4-0.3s1.2-0.6,1.9-1.1c0.7-0.5,1.2-0.9,1.4-1.3c0.2-0.4,0.4-0.7,0.5-1.1
			c0.1-0.4,0.2-1.3,0.2-2.7s0.4-2.1,1-2.1c0.4,0,0.6,0.1,0.7,0.3s0.2,0.6,0.2,1.1s0,1-0.1,1.7c-0.1,0.9-0.1,1.5-0.1,1.8
			c-0.1,1.9-0.3,3.8-0.7,5.7s-1,3.5-1.7,4.8c-0.8,1.3-1.8,1.9-3.1,1.9c-1.3,0-2.5-0.4-3.6-1.1c-1-0.7-1.6-1.3-1.6-1.8
			c0-0.2,0.1-0.4,0.2-0.7c0.1-0.3,0.2-0.3,0.4-0.3c0.1,0,0.2,0.1,0.3,0.2c0.9,1.4,2.3,2.1,4.2,2.1c1,0,1.8-0.9,2.5-2.6
			c0.7-1.7,1-3.4,1.1-4.9C-208,272.3-208,272-208,271.7z"/>
		<path class="st9" d="M-196.1,267.4c-0.4,0-0.7,0.2-1.2,0.7c-0.4,0.5-1.1,1.5-1.9,3.1c-1.1,2.2-1.9,3.4-2.2,3.7
			c-0.3,0.3-0.6,0.5-0.8,0.5c-0.8,0-1.2-0.4-1.2-1.2c0-0.3,0.1-0.8,0.2-1.4c0.4-2.1,0.6-4.2,0.6-6.5c0-0.3,0.1-0.5,0.3-0.9
			c0.2-0.3,0.4-0.5,0.6-0.5c0.4,0,0.6,0.1,0.8,0.3c0.2,0.2,0.2,0.7,0.2,1.3c0,0.7-0.2,2.1-0.6,4.3c-0.1,0.7-0.2,1.2-0.2,1.4
			c0,0.1,0,0.2,0.1,0.2s0.6-0.8,1.4-2.5c0.9-1.7,1.6-2.8,2.2-3.5c0.6-0.7,1.4-1,2.1-1c0.6,0,1.1,0.3,1.5,0.8s0.7,1.6,0.8,3.1
			c0.2,1.7,0.4,2.7,0.5,3.2c0.2,0.4,0.4,0.6,0.7,0.6c0.2,0,0.5-0.1,0.8-0.2c0.1,0,0.1,0,0.1,0c0.3,0,0.4,0.2,0.4,0.5s-0.2,0.6-0.6,1
			c-0.4,0.3-0.9,0.5-1.5,0.5s-1-0.2-1.3-0.7c-0.3-0.5-0.6-1.7-0.8-3.7C-195.1,268.4-195.5,267.4-196.1,267.4z"/>
		<path class="st9" d="M-186.4,275.9c-1,0-1.8-0.3-2.4-0.9c-0.6-0.6-0.8-1.4-0.8-2.5c0-1.8,0.7-3.7,2.1-5.6c1.4-2,2.7-3,3.9-3
			c0.6,0,1,0.3,1.4,0.9c0.4,0.6,0.6,1.2,0.6,1.9c0,0.4-0.1,0.8-0.3,1c-0.2,0.3-0.4,0.4-0.5,0.4c-0.4,0-0.7-0.4-0.8-1.2
			c-0.2-0.9-0.5-1.3-0.8-1.3c-0.7,0-1.6,0.8-2.5,2.5s-1.5,3.1-1.5,4.3c0,1.2,0.7,1.7,2,1.7c1,0,2.2-0.5,3.5-1.4
			c0.5-0.3,0.8-0.5,1.1-0.5c0.2,0,0.3,0.1,0.3,0.4c0,0.5-0.6,1.2-1.8,2C-184,275.5-185.2,275.9-186.4,275.9z"/>
		<path class="st9" d="M-169.8,271.9c0,0.7-0.6,1.5-1.9,2.5s-2.5,1.5-3.8,1.5c-1.1,0-2-0.3-2.5-1c-0.6-0.6-0.9-1.6-0.9-2.7
			c0-2,0.7-3.8,2-5.6c1.3-1.8,2.8-2.6,4.3-2.6c0.5,0,0.9,0.2,1.3,0.5c0.3,0.3,0.5,0.7,0.5,1.2c0,1.1-0.5,2.1-1.5,3
			c-1,1-2.4,1.9-4.1,2.8c-0.4,0.2-0.5,0.4-0.5,0.7c0,0.6,0.2,1,0.5,1.4c0.3,0.4,0.8,0.5,1.5,0.5c1.5,0,3-0.8,4.5-2.4
			c0.2-0.2,0.4-0.3,0.5-0.3C-169.9,271.3-169.8,271.5-169.8,271.9z M-176.9,270.3c2.9-1.7,4.3-3.1,4.3-4.2c0-0.4-0.2-0.6-0.6-0.6
			c-0.6,0-1.3,0.5-2.1,1.4C-176,267.8-176.6,268.9-176.9,270.3z"/>
		<path class="st9" d="M-160.3,271.1c-0.9,1.5-1.9,2.6-2.9,3.4s-2,1.2-2.8,1.2c-0.7,0-1.2-0.3-1.6-0.8c-0.4-0.5-0.6-1.2-0.6-2
			c0-1.7,0.7-3.5,2.1-5.3s2.9-2.7,4.5-2.7c0.7,0,1.4,0.3,2,0.9l1.4-6.7c0.1-0.5,0.3-0.8,0.6-0.9c0.3-0.2,0.5-0.2,0.7-0.2
			c0.5,0,0.7,0.4,0.7,1.3c0,0.2-0.2,0.7-0.5,1.7c-0.5,1.5-1,3.4-1.4,5.5c-0.4,2.2-0.7,4-0.7,5.3c0,1.4,0.3,2.1,0.9,2.1
			c0.4,0,0.8-0.1,1.2-0.4c0.2-0.1,0.3-0.2,0.5-0.2c0.2,0,0.3,0.1,0.3,0.4s-0.3,0.8-0.9,1.2c-0.6,0.5-1.2,0.7-1.9,0.7
			c-1.1,0-1.7-1.1-1.7-3.3C-160.3,271.8-160.3,271.5-160.3,271.1z M-161.6,266.3c-1.1,0-2.2,0.8-3.3,2.3s-1.6,2.9-1.6,4.2
			c0,0.9,0.3,1.3,0.9,1.3c0.5,0,1.2-0.3,1.9-0.8c0.8-0.6,1.5-1.5,2.4-2.7c0.8-1.2,1.2-2.1,1.2-2.8c0-0.3-0.1-0.6-0.4-0.9
			C-160.9,266.4-161.2,266.3-161.6,266.3z"/>
		<path class="st9" d="M-137.2,268.5c-0.2,0-0.7,0.8-1.4,2.4c-0.6,1.3-1.2,2.5-1.8,3.5s-1.1,1.5-1.4,1.5c-0.8,0-1.6-1.3-2.4-3.8
			c-0.7-2.5-1.1-4.5-1.1-6.1c0-0.5,0.1-0.9,0.4-1.2c0.3-0.3,0.5-0.5,0.9-0.5c0,0,0.1,0,0.3,0c0.1,0,0.3,0.1,0.5,0.3
			c0.2,0.2,0.3,0.4,0.3,0.6l0,0c0,0.1,0,0.4-0.1,1c-0.1,0.4-0.1,1-0.1,1.6c0,1,0.2,2.1,0.6,3.4c0.4,1.3,0.7,1.8,1,1.8
			c0.2,0,0.8-1,1.9-3.1c0.7-1.3,1.2-2.2,1.5-2.7l0.3-0.6c0.5-0.9,0.9-1.5,1.3-1.9c0.6,0.1,0.9,0.4,0.9,0.9c0,0.2,0,0.3,0,0.4
			c0,0.1,0,0.3,0,0.4c0,1.3,0.3,2.6,1,4c0.7,1.4,1.1,2.1,1.4,2.1c0.2,0,0.5-0.7,1-2.2c0.6-2,1.2-3.4,1.7-4.4s0.9-1.6,1.1-1.8
			s0.5-0.3,0.8-0.3c0.2,0,0.3,0.1,0.4,0.2c0.1,0.1,0.2,0.3,0.2,0.5c0,0.3,0,0.4-0.1,0.5c-0.8,1.1-1.7,2.9-2.4,5.2
			c-0.7,2-1.1,3.3-1.4,3.8s-0.5,0.8-0.6,0.8c-0.8,0-1.5-0.3-2-0.9c-0.5-0.6-1.2-2.2-2.1-4.8C-137,269-137.1,268.8-137.2,268.5z"/>
		<path class="st9" d="M-124.9,273.1c0,0.5,0.1,1.1,0.2,1.8c0,0.1,0,0.2,0,0.3s-0.1,0.3-0.3,0.5c-0.2,0.2-0.5,0.3-0.7,0.3
			c-0.7,0-1-0.6-1-1.8c0-1.3,0.3-3.2,0.8-6c0.2-1,0.3-1.5,0.3-1.8c0-0.4,0.1-0.8,0.2-1.1c0.2-0.3,0.4-0.5,0.7-0.5
			c0.3,0,0.6,0.1,0.8,0.3c0.2,0.2,0.3,0.4,0.3,0.6s0,0.5-0.1,0.8c-0.5,1.8-0.8,3.1-1,3.9S-124.9,272-124.9,273.1z M-123.5,261.6
			c-0.1,0-0.3-0.2-0.3-0.5c0-0.1-0.1-0.2-0.1-0.3c-0.2-0.4-0.3-0.8-0.3-1.2c0-0.3,0.2-0.6,0.5-0.8c0.3-0.3,0.7-0.4,1.1-0.4
			c0.2,0,0.4,0.1,0.7,0.2c0.2,0.2,0.4,0.3,0.4,0.4c0,0.2-0.1,0.6-0.3,1.1c-0.2,0.5-0.4,0.9-0.8,1.1
			C-123.1,261.5-123.4,261.6-123.5,261.6z"/>
		<path class="st9" d="M-116.6,265c0.7-0.1,1.4-0.1,2-0.2c0.6-0.1,1.1-0.1,1.5-0.1c0.5,0,0.8,0,1,0.1c0.2,0.1,0.2,0.3,0.2,0.5
			c0,0.6-0.4,0.9-1.2,0.9c-1,0.1-1.9,0.1-2.7,0.3c-0.8,0.2-1.3,0.2-1.3,0.3c-0.1,0.1-0.3,0.9-0.6,2.4c-0.3,1.6-0.5,2.6-0.5,3
			c0,0.8,0.1,1.3,0.3,1.5c0.2,0.3,0.5,0.4,0.9,0.4c0.6,0,1.4-0.4,2.5-1.3c0.4-0.4,0.7-0.5,0.9-0.5c0.3,0,0.4,0.2,0.4,0.5
			c0,0.5-0.5,1.1-1.4,1.9s-1.9,1.2-2.9,1.2c-1.7,0-2.5-1-2.5-2.9c0-0.7,0.2-1.8,0.5-3.3s0.5-2.4,0.5-2.6c0-0.1-0.1-0.2-0.2-0.2
			l-1.1,0.1c-0.9,0-1.3-0.3-1.3-1c0-0.4,0.2-0.6,0.6-0.6h2.1c0.1,0,0.3-0.1,0.4-0.2c0.1-0.1,0.3-0.6,0.5-1.3
			c0.2-0.7,0.4-1.5,0.6-2.2s0.5-1.1,1-1.1c0.3,0,0.5,0.1,0.7,0.3c0.2,0.2,0.2,0.4,0.2,0.6c0,0.1-0.1,0.6-0.4,1.5L-116.6,265z"/>
		<path class="st9" d="M-109.3,272.3c2.5-4.7,4.6-7,6.3-7c0.4,0,0.8,0.3,1.1,0.7s0.5,1.6,0.7,3.3c0.2,1.8,0.6,3.1,1.2,4
			c0.3,0.4,0.5,0.7,0.5,0.9c0,0.2-0.1,0.3-0.3,0.5s-0.4,0.2-0.7,0.2c-0.5,0-1-0.3-1.4-0.9c-0.4-0.6-0.7-1.6-0.8-3.2
			c-0.1-1.4-0.2-2.4-0.4-2.8c-0.1-0.4-0.3-0.7-0.6-0.7c-0.7,0-2.2,1.9-4.3,5.6c-0.7,1.1-1.1,1.9-1.4,2.2s-0.6,0.5-0.8,0.5
			c-0.3,0-0.6-0.1-0.8-0.3c-0.2-0.2-0.3-0.4-0.3-0.7c0-0.2,0.1-0.6,0.2-1.1c0.8-4.3,1.5-8.6,2-12.9c0.1-1,0.3-1.7,0.5-2
			s0.4-0.5,0.6-0.5c0.3,0,0.6,0.1,0.8,0.4s0.4,0.6,0.4,1c0,1.3-0.3,3-0.9,5.2c-0.3,1.1-0.6,2.5-1,4.1c-0.3,1.7-0.5,2.7-0.5,3.1
			C-109.4,272.2-109.4,272.3-109.3,272.3L-109.3,272.3z"/>
		<path class="st9" d="M-79,272.3c-2.5,2-4.8,3-6.8,3c-1.1,0-2.1-0.3-2.7-1c-0.7-0.7-1-1.6-1-2.8c0-2.9,1.2-5.6,3.7-8.1
			s5-3.8,7.7-3.8c0.8,0,1.4,0.1,1.9,0.4s0.7,0.6,0.7,1.1c0,0.4-0.1,0.8-0.4,1.2c-0.3,0.5-0.6,0.7-0.8,0.7c-0.2,0-0.3-0.1-0.4-0.4
			c-0.2-0.4-0.4-0.8-0.6-0.9c-0.2-0.2-0.6-0.3-1-0.3c-1.2,0-2.5,0.6-4,1.7c-1.5,1.1-2.7,2.4-3.5,3.9c-0.9,1.5-1.3,2.9-1.3,4.3
			c0,1.6,0.7,2.4,2.2,2.4c0.7,0,1.5-0.2,2.3-0.5c0.9-0.3,1.8-0.9,2.8-1.5c1-0.7,1.6-1.3,1.8-1.8c0.2-0.5,0.4-1.2,0.5-2.1
			c0.1-0.5,0.4-0.7,1.1-0.7s1,0.2,1,0.6c0,0.2-0.1,0.5-0.3,1c-0.3,0.8-0.6,1.5-0.7,2.2s-0.3,1.4-0.4,2.3c-0.1,0.9-0.2,1.5-0.2,1.8
			s0.1,0.8,0.2,1.4c0,0.1,0,0.2,0,0.3c0,0.2-0.1,0.5-0.3,0.7c-0.2,0.2-0.4,0.3-0.7,0.3c-0.3,0-0.6-0.1-0.9-0.3
			c-0.3-0.2-0.4-0.5-0.4-0.8c0-0.2,0.2-1.2,0.5-2.9C-79.1,273.1-79,272.6-79,272.3z"/>
		<path class="st9" d="M-71.1,273.1c0,0.5,0.1,1.1,0.2,1.8c0,0.1,0,0.2,0,0.3s-0.1,0.3-0.3,0.5c-0.2,0.2-0.5,0.3-0.7,0.3
			c-0.7,0-1-0.6-1-1.8c0-1.3,0.3-3.2,0.8-6c0.2-1,0.3-1.5,0.3-1.8c0-0.4,0.1-0.8,0.2-1.1c0.2-0.3,0.4-0.5,0.7-0.5
			c0.3,0,0.6,0.1,0.8,0.3c0.2,0.2,0.3,0.4,0.3,0.6s0,0.5-0.1,0.8c-0.5,1.8-0.8,3.1-1,3.9S-71.1,272-71.1,273.1z M-69.8,261.6
			c-0.1,0-0.3-0.2-0.3-0.5c0-0.1-0.1-0.2-0.1-0.3c-0.2-0.4-0.3-0.8-0.3-1.2c0-0.3,0.2-0.6,0.5-0.8c0.3-0.3,0.7-0.4,1.1-0.4
			c0.2,0,0.4,0.1,0.7,0.2c0.2,0.2,0.4,0.3,0.4,0.4c0,0.2-0.1,0.6-0.3,1.1c-0.2,0.5-0.4,0.9-0.8,1.1
			C-69.3,261.5-69.6,261.6-69.8,261.6z"/>
		<path class="st9" d="M-59.7,271.1c-0.9,1.5-1.9,2.6-2.9,3.4s-2,1.2-2.8,1.2c-0.7,0-1.2-0.3-1.6-0.8s-0.6-1.2-0.6-2
			c0-1.7,0.7-3.5,2.1-5.3s2.9-2.7,4.5-2.7c0.7,0,1.4,0.3,2,0.9l1.4-6.7c0.1-0.5,0.3-0.8,0.6-0.9c0.3-0.2,0.5-0.2,0.7-0.2
			c0.5,0,0.7,0.4,0.7,1.3c0,0.2-0.2,0.7-0.5,1.7c-0.5,1.5-1,3.4-1.4,5.5c-0.4,2.2-0.7,4-0.7,5.3c0,1.4,0.3,2.1,0.9,2.1
			c0.4,0,0.8-0.1,1.2-0.4c0.2-0.1,0.3-0.2,0.5-0.2s0.3,0.1,0.3,0.4s-0.3,0.8-0.9,1.2c-0.6,0.5-1.2,0.7-1.9,0.7
			c-1.1,0-1.7-1.1-1.7-3.3C-59.7,271.8-59.7,271.5-59.7,271.1z M-61,266.3c-1.1,0-2.2,0.8-3.3,2.3c-1.1,1.5-1.6,2.9-1.6,4.2
			c0,0.9,0.3,1.3,0.9,1.3c0.5,0,1.2-0.3,1.9-0.8s1.5-1.5,2.4-2.7c0.8-1.2,1.2-2.1,1.2-2.8c0-0.3-0.1-0.6-0.4-0.9
			C-60.3,266.4-60.6,266.3-61,266.3z"/>
		<path class="st9" d="M-51.5,272.3c2.5-4.7,4.6-7,6.3-7c0.4,0,0.8,0.3,1.1,0.7s0.5,1.6,0.7,3.3c0.2,1.8,0.6,3.1,1.2,4
			c0.3,0.4,0.5,0.7,0.5,0.9c0,0.2-0.1,0.3-0.3,0.5s-0.4,0.2-0.7,0.2c-0.5,0-1-0.3-1.4-0.9c-0.4-0.6-0.7-1.6-0.8-3.2
			c-0.1-1.4-0.2-2.4-0.4-2.8c-0.1-0.4-0.3-0.7-0.6-0.7c-0.7,0-2.2,1.9-4.3,5.6c-0.7,1.1-1.1,1.9-1.4,2.2c-0.3,0.3-0.6,0.5-0.8,0.5
			c-0.3,0-0.6-0.1-0.8-0.3s-0.3-0.4-0.3-0.7c0-0.2,0.1-0.6,0.2-1.1c0.8-4.3,1.5-8.6,2-12.9c0.1-1,0.3-1.7,0.5-2s0.4-0.5,0.6-0.5
			c0.3,0,0.6,0.1,0.8,0.4s0.4,0.6,0.4,1c0,1.3-0.3,3-0.9,5.2c-0.3,1.1-0.6,2.5-1,4.1c-0.3,1.7-0.5,2.7-0.5,3.1
			C-51.6,272.2-51.6,272.3-51.5,272.3L-51.5,272.3z"/>
		<path class="st9" d="M-38.3,272.3c2.5-4.7,4.6-7,6.3-7c0.4,0,0.8,0.3,1.1,0.7s0.5,1.6,0.7,3.3c0.2,1.8,0.6,3.1,1.2,4
			c0.3,0.4,0.5,0.7,0.5,0.9c0,0.2-0.1,0.3-0.3,0.5s-0.4,0.2-0.7,0.2c-0.5,0-1-0.3-1.4-0.9c-0.4-0.6-0.7-1.6-0.8-3.2
			c-0.1-1.4-0.2-2.4-0.4-2.8c-0.1-0.4-0.3-0.7-0.6-0.7c-0.7,0-2.2,1.9-4.3,5.6c-0.6,1.1-1.1,1.9-1.4,2.2c-0.3,0.3-0.6,0.5-0.8,0.5
			c-0.3,0-0.6-0.1-0.8-0.3s-0.3-0.4-0.3-0.7c0-0.2,0.1-0.6,0.2-1.1c0.8-4.3,1.5-8.6,2-12.9c0.1-1,0.3-1.7,0.5-2s0.4-0.5,0.6-0.5
			c0.3,0,0.6,0.1,0.8,0.4s0.4,0.6,0.4,1c0,1.3-0.3,3-0.9,5.2c-0.3,1.1-0.6,2.5-1,4.1c-0.3,1.7-0.5,2.7-0.5,3.1
			C-38.5,272.2-38.4,272.3-38.3,272.3L-38.3,272.3z"/>
	</g>
	<path id="Path_11366" class="st12" d="M-1.7,362.6h18c15.5-22.5,46.4-28.2,68.9-12.7c5,3.4,9.3,7.7,12.7,12.7h18v148.6H-1.8
		L-1.7,362.6L-1.7,362.6z"/>
	<rect id="Rectangle_2483" x="16.3" y="497.2" class="st2" width="14.1" height="14.1"/>
	<rect id="Rectangle_2484" x="83.8" y="497.2" class="st2" width="14.1" height="14.1"/>
	<rect id="Rectangle_2485" x="16.3" y="468.9" class="st2" width="14.1" height="14.1"/>
	<rect id="Rectangle_2486" x="38.8" y="468.9" class="st13" width="36.6" height="42.4"/>
	<rect id="Rectangle_2487" x="83.8" y="468.9" class="st2" width="14.1" height="14.1"/>
	<rect id="Rectangle_2488" x="16.3" y="440.6" class="st2" width="14.1" height="14.1"/>
	<rect id="Rectangle_2489" x="38.8" y="440.6" class="st2" width="14.1" height="14.1"/>
	<rect id="Rectangle_2490" x="61.3" y="440.6" class="st2" width="14.1" height="14.1"/>
	<rect id="Rectangle_2491" x="83.8" y="440.6" class="st2" width="14.1" height="14.1"/>
	<rect id="Rectangle_2492" x="16.3" y="412.4" class="st2" width="14.1" height="14.1"/>
	<rect id="Rectangle_2493" x="38.8" y="412.4" class="st2" width="14.1" height="14.1"/>
	<rect id="Rectangle_2494" x="61.3" y="412.4" class="st2" width="14.1" height="14.1"/>
	<rect id="Rectangle_2495" x="83.8" y="412.4" class="st2" width="14.1" height="14.1"/>
	<path id="Path_11367" class="st2" d="M-1.7,362.6h18c15.5-22.5,46.4-28.2,68.9-12.7c5,3.4,9.3,7.7,12.7,12.7h18v148.6H-1.8
		L-1.7,362.6L-1.7,362.6z"/>
	<line id="Line_876" class="st2" x1="57.1" y1="333.9" x2="57.1" y2="341.2"/>
	<line id="Line_877" class="st2" x1="73.4" y1="336.4" x2="71.5" y2="343.3"/>
	<line id="Line_878" class="st2" x1="86.1" y1="342.3" x2="82.6" y2="348.3"/>
	<line id="Line_879" class="st2" x1="40.8" y1="336.4" x2="42.7" y2="343.3"/>
	<line id="Line_880" class="st2" x1="28.1" y1="342.3" x2="31.6" y2="348.3"/>
	<path id="Path_11368" class="st7" d="M57.1,325l1.5,4.2l4.4,0.1l-3.5,2.8l1.3,4.2l-3.7-2.5l-3.6,2.5l1.2-4.2l-3.5-2.8l4.5-0.1
		L57.1,325z"/>
	<path id="Path_11369" class="st7" d="M75.2,329.4l0.4,3.6l3.4,1l-3.3,1.4l0.1,3.6l-2.4-2.8l-3.5,1.2l2-3.1l-2.3-2.9l3.6,0.9
		L75.2,329.4z"/>
	<path id="Path_11370" class="st7" d="M88.8,337.7l-0.5,2.7l2.4,1.4l-2.7,0.4l-0.7,2.7l-1.2-2.6l-2.7,0.2l2-1.9l-1-2.5l2.4,1.2
		L88.8,337.7z"/>
	<path id="Path_11371" class="st7" d="M39,329.4l-0.4,3.6l-3.4,1l3.3,1.4l-0.1,3.6l2.4-2.8l3.5,1.2l-2-3.1l2.3-2.8l-3.6,0.8
		L39,329.4z"/>
	<path id="Path_11372" class="st7" d="M25.5,337.7l0.5,2.7l-2.4,1.4l2.7,0.4l0.7,2.7l1.1-2.6l2.7,0.2l-2-1.9l1-2.5l-2.4,1.2
		L25.5,337.7z"/>
	<g class="st6">
		<path class="st9" d="M-349.3,377.7c0.1,0.5,0.3,0.9,0.5,1.2c0.2,0.3,0.5,0.5,0.8,0.7s0.7,0.2,1.2,0.2c0.7,0,1.2-0.2,1.6-0.5
			s0.5-0.9,0.5-1.6c0-0.4-0.1-0.8-0.2-1.1c-0.1-0.3-0.4-0.6-0.7-0.8c-0.3-0.2-0.9-0.6-1.6-0.9s-1.2-0.7-1.6-1s-0.7-0.7-0.9-1.1
			c-0.2-0.4-0.3-0.8-0.3-1.2c0-0.7,0.2-1.2,0.5-1.7s0.8-0.9,1.4-1.1s1.3-0.4,2-0.4c0.4,0,0.9,0,1.3,0.1c0.4,0.1,1,0.2,1.6,0.3v2.4
			h-0.9c-0.1-0.5-0.3-0.9-0.5-1.2c-0.2-0.3-0.4-0.5-0.7-0.6c-0.3-0.1-0.6-0.2-1.1-0.2c-0.4,0-0.7,0.1-1,0.2
			c-0.3,0.1-0.5,0.4-0.7,0.6c-0.2,0.3-0.3,0.6-0.3,1c0,0.4,0.1,0.8,0.2,1.1c0.1,0.3,0.4,0.6,0.7,0.8c0.3,0.2,0.8,0.5,1.4,0.8
			c0.8,0.4,1.3,0.7,1.7,1s0.7,0.7,1,1.1c0.2,0.4,0.3,0.9,0.3,1.4c0,0.6-0.1,1.1-0.3,1.6s-0.5,0.8-0.8,1s-0.8,0.5-1.2,0.6
			c-0.5,0.1-1,0.2-1.6,0.2c-0.9,0-2-0.2-3.2-0.5v-2.4H-349.3z"/>
		<path class="st9" d="M-336.3,379.2h-0.1c-0.5,0.5-1,0.9-1.4,1.1s-0.9,0.3-1.4,0.3c-0.4,0-0.8-0.1-1.2-0.3
			c-0.3-0.2-0.6-0.4-0.8-0.7c-0.2-0.3-0.3-0.7-0.3-1.1c0-0.9,0.4-1.5,1.3-2c0.8-0.5,2.1-0.7,3.8-0.8v-0.6c0-0.6-0.1-1.1-0.2-1.4
			s-0.3-0.6-0.6-0.8c-0.3-0.2-0.6-0.2-1-0.2c-0.5,0-0.8,0.1-1.1,0.4s-0.5,0.6-0.6,1.1h-1.2v-1.1c0.6-0.3,1-0.5,1.4-0.6
			c0.4-0.1,0.8-0.2,1.1-0.3c0.4-0.1,0.8-0.1,1.1-0.1c0.6,0,1,0.1,1.4,0.3s0.6,0.5,0.8,0.8s0.3,1,0.3,1.7v3.1c0,0.4,0,0.7,0,0.9
			c0,0.2,0,0.3,0.1,0.5s0.1,0.3,0.1,0.4c0,0.1,0.1,0.2,0.3,0.2s0.3,0.1,0.6,0.2v0.4h-2.4L-336.3,379.2z M-336.4,376.5
			c-1.2,0-2.1,0.2-2.7,0.5s-0.9,0.8-0.9,1.4c0,0.3,0.1,0.6,0.2,0.8c0.1,0.2,0.3,0.3,0.5,0.4c0.2,0.1,0.4,0.1,0.7,0.1
			c0.4,0,0.8-0.1,1.1-0.3c0.3-0.2,0.6-0.4,0.8-0.7c0.2-0.3,0.3-0.6,0.3-0.9V376.5z"/>
		<path class="st9" d="M-329.2,381.2c-0.3,0.7-0.6,1.3-0.9,1.8s-0.6,0.8-1,1s-0.8,0.3-1.3,0.3c-0.3,0-0.7,0-1.1-0.1v-1.7h0.8
			c0.1,0.2,0.2,0.4,0.3,0.5c0.1,0.1,0.3,0.1,0.5,0.1s0.3,0,0.5-0.1c0.2-0.1,0.3-0.2,0.4-0.3s0.3-0.4,0.5-0.8
			c0.2-0.4,0.4-0.8,0.7-1.3l-2.5-6.6c-0.2-0.4-0.3-0.7-0.4-0.9c-0.1-0.2-0.2-0.3-0.3-0.4c-0.1-0.1-0.3-0.2-0.5-0.2v-0.4h3.6v0.4
			c-0.3,0.1-0.5,0.1-0.6,0.2c-0.1,0.1-0.2,0.1-0.2,0.2c-0.1,0.1-0.1,0.2-0.1,0.4s0,0.3,0.1,0.5s0.1,0.4,0.2,0.6l1.6,4.4l1.8-4.2
			c0.1-0.2,0.2-0.4,0.2-0.6s0.1-0.4,0.1-0.5c0-0.3-0.1-0.4-0.2-0.6s-0.4-0.2-0.7-0.3v-0.4h3.3v0.4c-0.2,0-0.4,0.1-0.5,0.2
			c-0.1,0.1-0.2,0.2-0.4,0.5s-0.3,0.5-0.4,0.9L-329.2,381.2z"/>
		<path class="st9" d="M-319.1,379.2h-0.1c-0.5,0.5-1,0.9-1.4,1.1s-0.9,0.3-1.4,0.3c-0.4,0-0.8-0.1-1.2-0.3
			c-0.3-0.2-0.6-0.4-0.8-0.7c-0.2-0.3-0.3-0.7-0.3-1.1c0-0.9,0.4-1.5,1.3-2c0.8-0.5,2.1-0.7,3.8-0.8v-0.6c0-0.6-0.1-1.1-0.2-1.4
			s-0.3-0.6-0.6-0.8c-0.3-0.2-0.6-0.2-1-0.2c-0.5,0-0.8,0.1-1.1,0.4s-0.5,0.6-0.6,1.1h-1.2v-1.1c0.6-0.3,1-0.5,1.4-0.6
			c0.4-0.1,0.8-0.2,1.1-0.3c0.4-0.1,0.8-0.1,1.1-0.1c0.6,0,1,0.1,1.4,0.3s0.6,0.5,0.8,0.8s0.3,1,0.3,1.7v3.1c0,0.4,0,0.7,0,0.9
			c0,0.2,0,0.3,0.1,0.5s0.1,0.3,0.1,0.4c0,0.1,0.1,0.2,0.3,0.2s0.3,0.1,0.6,0.2v0.4h-2.4L-319.1,379.2z M-319.3,376.5
			c-1.2,0-2.1,0.2-2.7,0.5s-0.9,0.8-0.9,1.4c0,0.3,0.1,0.6,0.2,0.8c0.1,0.2,0.3,0.3,0.5,0.4c0.2,0.1,0.4,0.1,0.7,0.1
			c0.4,0,0.8-0.1,1.1-0.3c0.3-0.2,0.6-0.4,0.8-0.7c0.2-0.3,0.3-0.6,0.3-0.9V376.5z"/>
		<path class="st9" d="M-313,380.3c0,0.8-0.1,1.5-0.3,2s-0.5,0.9-0.9,1.3c-0.4,0.3-1,0.6-1.8,0.8l-0.3-0.8c0.4-0.1,0.6-0.3,0.8-0.4
			c0.2-0.1,0.3-0.3,0.5-0.4c0.1-0.2,0.2-0.4,0.3-0.7c0.1-0.3,0.1-0.6,0.1-1.1v-6.5c0-0.5,0-0.8,0-1s-0.1-0.4-0.1-0.5
			c-0.1-0.1-0.1-0.2-0.3-0.3s-0.3-0.1-0.7-0.2V372l2.1-0.1h0.5L-313,380.3L-313,380.3z M-313,368.6v1.7h-1.6v-1.7H-313z"/>
		<path class="st9" d="M-310.6,380.1c0.2-0.1,0.4-0.1,0.5-0.2c0.1-0.1,0.2-0.1,0.2-0.2c0-0.1,0.1-0.2,0.2-0.4
			c0.1-0.2,0.1-0.5,0.1-0.9v-3.8c0-0.4,0-0.7,0-0.9c0-0.2-0.1-0.4-0.1-0.5c0-0.1-0.2-0.2-0.3-0.3c-0.1-0.1-0.3-0.1-0.6-0.2v-0.5
			l2-0.1h0.5v6.3c0,0.5,0,0.9,0.1,1.1s0.1,0.3,0.3,0.4c0.1,0.1,0.3,0.2,0.6,0.3v0.4h-3.4v-0.5H-310.6z M-308.1,368.6v1.7h-1.6v-1.7
			H-308.1z"/>
	</g>
	<g class="st6">
		<path class="st9" d="M-350.2,397.4c0,0.4,0,0.7,0,0.9c0,0.2,0.1,0.3,0.1,0.4c0,0.1,0.2,0.2,0.3,0.3s0.3,0.1,0.6,0.2v0.4h-3.7v-0.4
			c0.4-0.1,0.6-0.2,0.7-0.3s0.2-0.3,0.2-0.5s0.1-0.5,0.1-1v-7.6c0-0.4,0-0.7,0-0.9s-0.1-0.3-0.1-0.4c0-0.1-0.2-0.2-0.3-0.2
			c-0.1-0.1-0.3-0.1-0.6-0.2v-0.4h3.7v0.4c-0.3,0.1-0.4,0.1-0.6,0.2c-0.2,0.1-0.2,0.1-0.3,0.2c-0.1,0.1-0.1,0.2-0.1,0.4
			c0,0.2,0,0.5,0,0.9L-350.2,397.4L-350.2,397.4z"/>
		<path class="st9" d="M-338.7,399.6h-3.5v-0.4c0.2-0.1,0.4-0.1,0.5-0.2c0.1-0.1,0.2-0.1,0.3-0.2c0.1-0.1,0.1-0.2,0.2-0.4
			c0.1-0.2,0.1-0.5,0.1-0.9v-2.3c0-0.4,0-0.8,0-1.1c0-0.3-0.1-0.6-0.1-0.8c0-0.2-0.1-0.4-0.2-0.5c-0.1-0.1-0.2-0.2-0.3-0.3
			s-0.2-0.2-0.4-0.2c-0.1,0-0.3-0.1-0.6-0.1s-0.4,0-0.7,0.1c-0.3,0.1-0.4,0.2-0.7,0.5s-0.4,0.4-0.5,0.7c-0.1,0.3-0.2,0.5-0.2,0.7
			v3.3c0,0.5,0,0.9,0.1,1.1s0.1,0.3,0.3,0.4c0.1,0.1,0.3,0.2,0.6,0.3v0.4h-3.4v-0.4c0.2-0.1,0.4-0.1,0.5-0.2
			c0.1-0.1,0.2-0.1,0.2-0.2c0-0.1,0.1-0.2,0.2-0.4c0.1-0.2,0.1-0.5,0.1-0.9v-3.8c0-0.4,0-0.7,0-0.9c0-0.2-0.1-0.4-0.1-0.5
			c0-0.1-0.2-0.2-0.3-0.3c-0.1-0.1-0.3-0.1-0.6-0.2v-0.5l2.1-0.1h0.5l-0.1,1.4h0.1c0.4-0.4,0.8-0.8,1.1-0.9c0.3-0.1,0.5-0.3,0.8-0.4
			c0.3-0.1,0.6-0.2,0.9-0.2s0.6,0,0.8,0.1c0.2,0.1,0.5,0.2,0.7,0.3s0.3,0.3,0.5,0.6c0.2,0.3,0.2,0.5,0.3,0.8s0.1,0.7,0.1,1.2v3.3
			c0,0.4,0,0.7,0,0.9c0,0.2,0.1,0.3,0.1,0.4c0,0.1,0.1,0.2,0.3,0.3c0.1,0.1,0.3,0.1,0.6,0.2v0.3H-338.7z"/>
		<path class="st9" d="M-331.3,390c0-0.6,0-1,0-1.2s0-0.4-0.1-0.6c0-0.2-0.1-0.3-0.2-0.4c-0.1-0.1-0.2-0.2-0.3-0.2s-0.3-0.1-0.6-0.2
			v-0.5l2.1-0.1h0.5V397c0,0.5,0,0.8,0,1s0.1,0.4,0.1,0.5c0,0.1,0.2,0.2,0.3,0.3c0.1,0.1,0.3,0.1,0.7,0.2v0.5l-2.1,0.1h-0.5l0.1-1.4
			h-0.1c-0.4,0.4-0.7,0.7-1,0.9s-0.6,0.4-0.9,0.5c-0.3,0.1-0.6,0.2-1,0.2c-1,0-1.7-0.4-2.2-1.1s-0.8-1.8-0.8-3.2
			c0-1,0.2-1.8,0.5-2.4c0.3-0.6,0.8-1.2,1.4-1.5s1.2-0.5,1.9-0.5c0.4,0,0.7,0,1.1,0.1c0.3,0.1,0.6,0.2,1,0.3V390H-331.3z
			 M-331.3,394.4c0-0.5,0-0.8-0.1-1.1c-0.1-0.3-0.1-0.5-0.2-0.7s-0.2-0.3-0.4-0.5s-0.3-0.2-0.5-0.3s-0.4-0.1-0.7-0.1
			c-0.8,0-1.3,0.3-1.7,0.9c-0.4,0.6-0.6,1.5-0.6,2.6c0,1.1,0.2,2,0.5,2.6c0.3,0.6,0.8,0.9,1.5,0.9c0.3,0,0.5,0,0.6-0.1
			c0.2,0,0.3-0.1,0.5-0.2c0.2-0.1,0.3-0.2,0.5-0.4c0.2-0.2,0.3-0.3,0.4-0.5s0.1-0.3,0.2-0.5s0.1-0.4,0.1-0.7L-331.3,394.4
			L-331.3,394.4z"/>
		<path class="st9" d="M-323.4,399.7c-1.2,0-2.1-0.4-2.8-1.1s-1-1.8-1-3.2c0-1,0.2-1.8,0.5-2.5s0.8-1.2,1.4-1.5s1.3-0.5,2-0.5
			c1.3,0,2.2,0.4,2.8,1.1c0.6,0.7,1,1.8,1,3.1c0,1-0.2,1.8-0.5,2.5s-0.8,1.2-1.4,1.5S-322.6,399.7-323.4,399.7z M-325.5,395.3
			c0,1.2,0.2,2.1,0.6,2.8c0.4,0.6,0.9,1,1.6,1c0.4,0,0.7-0.1,1-0.3c0.3-0.2,0.5-0.4,0.7-0.8c0.2-0.4,0.3-0.7,0.4-1.1
			c0.1-0.4,0.1-0.9,0.1-1.3c0-0.9-0.1-1.6-0.3-2.1s-0.4-1-0.8-1.3s-0.7-0.4-1.1-0.4c-0.7,0-1.3,0.3-1.6,0.9
			C-325.2,393.3-325.5,394.1-325.5,395.3z"/>
		<path class="st9" d="M-315.3,392.6h0.1c0.3-0.4,0.6-0.7,0.9-0.9c0.3-0.2,0.6-0.4,0.9-0.5c0.3-0.1,0.7-0.2,1.1-0.2
			c0.3,0,0.6,0,0.9,0.1v2h-1c-0.1-0.3-0.3-0.5-0.4-0.7c-0.2-0.1-0.4-0.2-0.7-0.2c-0.2,0-0.4,0.1-0.6,0.2c-0.2,0.1-0.4,0.3-0.6,0.5
			s-0.3,0.5-0.4,0.7s-0.1,0.4-0.1,0.7v3.1c0,0.5,0,0.9,0.1,1.1s0.2,0.3,0.3,0.4c0.1,0.1,0.4,0.2,0.7,0.2v0.4h-3.5v-0.4
			c0.2-0.1,0.4-0.1,0.5-0.2c0.1-0.1,0.2-0.1,0.3-0.2c0.1-0.1,0.1-0.2,0.2-0.4c0.1-0.2,0.1-0.5,0.1-0.9v-3.8c0-0.4,0-0.7,0-0.9
			c0-0.2-0.1-0.4-0.1-0.5c0-0.1-0.2-0.2-0.3-0.3c-0.1-0.1-0.3-0.1-0.6-0.2v-0.5l2.1-0.1h0.5L-315.3,392.6z"/>
		<path class="st9" d="M-303.5,398.1c-0.4,0.4-0.7,0.7-1,0.9c-0.3,0.2-0.7,0.4-1,0.5c-0.4,0.1-0.8,0.2-1.2,0.2
			c-1.2,0-2.1-0.4-2.7-1.1s-0.9-1.8-0.9-3.2c0-0.9,0.2-1.6,0.5-2.3c0.3-0.7,0.8-1.2,1.3-1.5s1.2-0.5,2-0.5c0.6,0,1.1,0.1,1.5,0.3
			c0.4,0.2,0.7,0.4,1,0.8c0.2,0.3,0.4,0.7,0.6,1.2c0.1,0.5,0.2,1.1,0.2,1.9h-5.5v0.2c0,0.7,0.1,1.3,0.2,1.7s0.4,0.8,0.8,1.1
			c0.4,0.3,0.8,0.4,1.4,0.4c0.5,0,0.9-0.1,1.3-0.3s0.8-0.5,1.1-0.9L-303.5,398.1z M-305,394.5c0-0.6-0.1-1.1-0.2-1.6
			s-0.3-0.7-0.6-0.9c-0.2-0.2-0.6-0.3-1-0.3c-0.6,0-1.1,0.2-1.4,0.7c-0.4,0.5-0.6,1.2-0.6,2.1H-305L-305,394.5z"/>
	</g>
	<g class="st6">
		<path class="st9" d="M35.6,377.3c0.1,0.5,0.3,0.9,0.5,1.2c0.2,0.3,0.5,0.5,0.8,0.7s0.7,0.2,1.2,0.2c0.7,0,1.2-0.2,1.6-0.5
			s0.5-0.9,0.5-1.6c0-0.4-0.1-0.8-0.2-1.1c-0.1-0.3-0.4-0.6-0.7-0.8c-0.3-0.2-0.9-0.6-1.6-0.9c-0.7-0.3-1.2-0.7-1.6-1
			c-0.4-0.3-0.7-0.7-0.9-1.1c-0.2-0.4-0.3-0.8-0.3-1.2c0-0.7,0.2-1.2,0.5-1.7s0.8-0.9,1.4-1.1s1.3-0.4,2-0.4c0.4,0,0.9,0,1.3,0.1
			c0.4,0.1,1,0.2,1.6,0.3v2.4h-0.9c-0.1-0.5-0.3-0.9-0.5-1.2c-0.2-0.3-0.4-0.5-0.7-0.6c-0.3-0.1-0.6-0.2-1.1-0.2
			c-0.4,0-0.7,0.1-1,0.2c-0.3,0.1-0.5,0.4-0.7,0.6c-0.2,0.3-0.3,0.6-0.3,1c0,0.4,0.1,0.8,0.2,1.1c0.1,0.3,0.4,0.6,0.7,0.8
			c0.3,0.2,0.8,0.5,1.4,0.8c0.8,0.4,1.3,0.7,1.7,1s0.7,0.7,1,1.1c0.2,0.4,0.3,0.9,0.3,1.4c0,0.6-0.1,1.1-0.3,1.6s-0.5,0.8-0.8,1
			s-0.8,0.5-1.2,0.6c-0.5,0.1-1,0.2-1.6,0.2c-0.9,0-2-0.2-3.2-0.5v-2.4H35.6z"/>
		<path class="st9" d="M48.6,378.8L48.6,378.8c-0.6,0.5-1.1,0.9-1.5,1.1s-0.9,0.3-1.4,0.3c-0.4,0-0.8-0.1-1.2-0.3
			c-0.3-0.2-0.6-0.4-0.8-0.7c-0.2-0.3-0.3-0.7-0.3-1.1c0-0.9,0.4-1.5,1.3-2c0.8-0.5,2.1-0.7,3.8-0.8v-0.6c0-0.6-0.1-1.1-0.2-1.4
			s-0.3-0.6-0.6-0.8c-0.3-0.2-0.6-0.2-1-0.2c-0.5,0-0.8,0.1-1.1,0.4s-0.5,0.6-0.6,1.1h-1.2v-1.1c0.6-0.3,1-0.5,1.4-0.6
			c0.4-0.1,0.8-0.2,1.1-0.3c0.4-0.1,0.8-0.1,1.1-0.1c0.6,0,1,0.1,1.4,0.3c0.4,0.2,0.6,0.5,0.8,0.8s0.3,1,0.3,1.7v3.1
			c0,0.4,0,0.7,0,0.9c0,0.2,0,0.3,0.1,0.5s0.1,0.3,0.1,0.4c0,0.1,0.1,0.2,0.3,0.2s0.3,0.1,0.6,0.2v0.4h-2.4L48.6,378.8z M48.4,376
			c-1.2,0-2.1,0.2-2.7,0.5s-0.9,0.8-0.9,1.4c0,0.3,0.1,0.6,0.2,0.8c0.1,0.2,0.3,0.3,0.5,0.4c0.2,0.1,0.4,0.1,0.7,0.1
			c0.4,0,0.8-0.1,1.1-0.3c0.3-0.2,0.6-0.4,0.8-0.7c0.2-0.3,0.3-0.6,0.3-0.9C48.4,377.3,48.4,376,48.4,376z"/>
		<path class="st9" d="M55.7,380.7c-0.3,0.7-0.6,1.3-0.9,1.8s-0.6,0.8-1,1s-0.8,0.3-1.3,0.3c-0.3,0-0.7,0-1.1-0.1V382h0.7
			c0.1,0.2,0.2,0.4,0.3,0.5c0.1,0.1,0.3,0.1,0.5,0.1s0.3,0,0.5-0.1c0.2-0.1,0.3-0.2,0.4-0.3s0.3-0.4,0.5-0.8
			c0.2-0.4,0.4-0.8,0.7-1.3l-2.5-6.6c-0.2-0.4-0.3-0.7-0.4-0.9c-0.1-0.2-0.2-0.3-0.3-0.4c-0.1-0.1-0.3-0.2-0.5-0.2v-0.4h3.6v0.4
			c-0.3,0.1-0.5,0.1-0.6,0.2c-0.1,0.1-0.2,0.1-0.2,0.2c-0.1,0.1-0.1,0.2-0.1,0.4s0,0.3,0.1,0.5s0.1,0.4,0.2,0.6l1.6,4.4l1.8-4.2
			c0.1-0.2,0.2-0.4,0.2-0.6s0.1-0.4,0.1-0.5c0-0.3-0.1-0.4-0.2-0.6s-0.4-0.2-0.7-0.3v-0.4h3.3v0.4c-0.2,0-0.4,0.1-0.5,0.2
			c-0.1,0.1-0.2,0.2-0.4,0.5s-0.3,0.5-0.4,0.9L55.7,380.7z"/>
		<path class="st9" d="M65.7,378.8L65.7,378.8c-0.6,0.5-1.1,0.9-1.5,1.1s-0.9,0.3-1.4,0.3c-0.4,0-0.8-0.1-1.2-0.3
			c-0.3-0.2-0.6-0.4-0.8-0.7c-0.2-0.3-0.3-0.7-0.3-1.1c0-0.9,0.4-1.5,1.3-2c0.8-0.5,2.1-0.7,3.8-0.8v-0.6c0-0.6-0.1-1.1-0.2-1.4
			s-0.3-0.6-0.6-0.8c-0.3-0.2-0.6-0.2-1-0.2c-0.5,0-0.8,0.1-1.1,0.4s-0.5,0.6-0.6,1.1h-1.2v-1.1c0.6-0.3,1-0.5,1.4-0.6
			c0.4-0.1,0.8-0.2,1.1-0.3c0.4-0.1,0.8-0.1,1.1-0.1c0.6,0,1,0.1,1.4,0.3c0.4,0.2,0.6,0.5,0.8,0.8s0.3,1,0.3,1.7v3.1
			c0,0.4,0,0.7,0,0.9c0,0.2,0,0.3,0.1,0.5s0.1,0.3,0.1,0.4c0,0.1,0.1,0.2,0.3,0.2s0.3,0.1,0.6,0.2v0.4h-2.4L65.7,378.8z M65.6,376
			c-1.2,0-2.1,0.2-2.7,0.5s-0.9,0.8-0.9,1.4c0,0.3,0.1,0.6,0.2,0.8c0.1,0.2,0.3,0.3,0.5,0.4c0.2,0.1,0.4,0.1,0.7,0.1
			c0.4,0,0.8-0.1,1.1-0.3c0.3-0.2,0.6-0.4,0.8-0.7c0.2-0.3,0.3-0.6,0.3-0.9C65.6,377.3,65.6,376,65.6,376z"/>
		<path class="st9" d="M71.8,379.9c0,0.8-0.1,1.5-0.3,2s-0.5,0.9-0.9,1.3c-0.4,0.3-1,0.6-1.8,0.8l-0.3-0.8c0.4-0.1,0.6-0.3,0.8-0.4
			c0.2-0.1,0.3-0.3,0.5-0.4c0.1-0.2,0.2-0.4,0.3-0.7c0.1-0.3,0.1-0.6,0.1-1.1v-6.5c0-0.5,0-0.8,0-1s-0.1-0.4-0.1-0.5
			c-0.1-0.1-0.1-0.2-0.3-0.3s-0.3-0.1-0.7-0.2v-0.5l2.1-0.1h0.5v8.4H71.8z M71.8,368.2v1.7h-1.6v-1.7H71.8z"/>
		<path class="st9" d="M74.2,379.6c0.2-0.1,0.4-0.1,0.5-0.2c0.1-0.1,0.2-0.1,0.2-0.2c0-0.1,0.1-0.2,0.2-0.4c0.1-0.2,0.1-0.5,0.1-0.9
			v-3.8c0-0.4,0-0.7,0-0.9c0-0.2-0.1-0.4-0.1-0.5c0-0.1-0.2-0.2-0.3-0.3c-0.1-0.1-0.3-0.1-0.6-0.2v-0.5l2-0.1h0.5v6.3
			c0,0.5,0,0.9,0.1,1.1s0.1,0.3,0.3,0.4c0.1,0.1,0.3,0.2,0.6,0.3v0.4h-3.4L74.2,379.6L74.2,379.6z M76.7,368.2v1.7h-1.6v-1.7H76.7z"
			/>
	</g>
	<g class="st6">
		<path class="st9" d="M21.5,399.1v-0.4c0.4-0.1,0.6-0.2,0.7-0.3s0.2-0.3,0.2-0.5s0.1-0.5,0.1-1v-7.6c0-0.4,0-0.7,0-0.9
			s-0.1-0.3-0.1-0.4c0-0.1-0.2-0.2-0.3-0.2c-0.1-0.1-0.3-0.1-0.6-0.2v-0.4h4.8c0.9,0,1.7,0.1,2.2,0.3c0.5,0.2,1,0.5,1.3,0.9
			c0.3,0.4,0.4,0.9,0.4,1.5c0,0.5-0.1,1-0.3,1.3s-0.5,0.7-0.8,0.9c-0.3,0.2-0.7,0.5-1.2,0.7v0.1c0.8,0.2,1.4,0.6,1.8,1.1
			s0.6,1.1,0.6,1.8c0,0.8-0.2,1.4-0.5,2c-0.3,0.6-0.9,0.9-1.5,1.1s-1.4,0.3-2.3,0.3L21.5,399.1L21.5,399.1z M25.7,392.5
			c0.9,0,1.6-0.2,2-0.6c0.5-0.4,0.7-1.1,0.7-1.9c0-0.4-0.1-0.7-0.2-1s-0.3-0.5-0.5-0.6c-0.2-0.1-0.5-0.3-0.8-0.3
			c-0.3-0.1-0.7-0.1-1-0.1c-0.2,0-0.5,0-0.9,0s-0.6,0-0.8,0v4.6L25.7,392.5L25.7,392.5z M24.2,398.3c0.4,0,0.9,0.1,1.4,0.1
			c0.8,0,1.4-0.1,1.8-0.3c0.4-0.2,0.7-0.5,0.9-0.9c0.2-0.4,0.3-0.9,0.3-1.4s-0.1-1-0.3-1.4c-0.2-0.4-0.5-0.6-1-0.8
			c-0.5-0.2-1-0.3-1.8-0.3h-1.4v5H24.2z"/>
		<path class="st9" d="M37.4,397.9L37.4,397.9c-0.6,0.5-1.1,0.9-1.5,1.1s-0.9,0.3-1.4,0.3c-0.4,0-0.8-0.1-1.2-0.3
			c-0.3-0.2-0.6-0.4-0.8-0.7c-0.2-0.3-0.3-0.7-0.3-1.1c0-0.9,0.4-1.5,1.3-2c0.8-0.5,2.1-0.7,3.8-0.8v-0.6c0-0.6-0.1-1.1-0.2-1.4
			s-0.3-0.6-0.6-0.8c-0.3-0.2-0.6-0.2-1-0.2c-0.5,0-0.8,0.1-1.1,0.4s-0.5,0.6-0.6,1.1h-1.2v-1.1c0.6-0.3,1-0.5,1.4-0.6
			c0.4-0.1,0.8-0.2,1.1-0.3c0.4-0.1,0.8-0.1,1.1-0.1c0.6,0,1,0.1,1.4,0.3s0.6,0.5,0.8,0.8s0.3,1,0.3,1.7v3.1c0,0.4,0,0.7,0,0.9
			c0,0.2,0,0.3,0.1,0.5s0.1,0.3,0.1,0.4c0,0.1,0.1,0.2,0.3,0.2s0.3,0.1,0.6,0.2v0.4h-2.4L37.4,397.9z M37.2,395.1
			c-1.2,0-2.1,0.2-2.7,0.5s-0.9,0.8-0.9,1.4c0,0.3,0.1,0.6,0.2,0.8c0.1,0.2,0.3,0.3,0.5,0.4c0.2,0.1,0.4,0.1,0.7,0.1
			c0.4,0,0.8-0.1,1.1-0.3c0.3-0.2,0.6-0.4,0.8-0.7c0.2-0.3,0.3-0.6,0.3-0.9C37.2,396.4,37.2,395.1,37.2,395.1z"/>
		<path class="st9" d="M49.7,399.1h-3.5v-0.4c0.2-0.1,0.4-0.1,0.5-0.2c0.1-0.1,0.2-0.1,0.3-0.2c0.1-0.1,0.1-0.2,0.2-0.4
			c0.1-0.2,0.1-0.5,0.1-0.9v-2.3c0-0.4,0-0.8,0-1.1c0-0.3-0.1-0.6-0.1-0.8c0-0.2-0.1-0.4-0.2-0.5c-0.1-0.1-0.2-0.2-0.3-0.3
			s-0.2-0.2-0.4-0.2c-0.1,0-0.3-0.1-0.6-0.1s-0.4,0-0.7,0.1c-0.3,0.1-0.4,0.2-0.7,0.5s-0.4,0.4-0.5,0.7c-0.1,0.3-0.2,0.5-0.2,0.7
			v3.3c0,0.5,0,0.9,0.1,1.1s0.1,0.3,0.3,0.4c0.1,0.1,0.3,0.2,0.6,0.3v0.4h-3.5v-0.4c0.2-0.1,0.4-0.1,0.5-0.2
			c0.1-0.1,0.2-0.1,0.2-0.2c0-0.1,0.1-0.2,0.2-0.4c0.1-0.2,0.1-0.5,0.1-0.9v-3.8c0-0.4,0-0.7,0-0.9c0-0.2-0.1-0.4-0.1-0.5
			c0-0.1-0.2-0.2-0.3-0.3s-0.3-0.1-0.6-0.2v-0.5l2.1-0.1h0.5l-0.1,1.4h0.1c0.4-0.4,0.8-0.8,1.1-0.9c0.3-0.1,0.5-0.3,0.8-0.4
			c0.3-0.1,0.6-0.2,0.9-0.2c0.3,0,0.6,0,0.8,0.1c0.2,0.1,0.5,0.2,0.7,0.3s0.3,0.3,0.5,0.6c0.2,0.3,0.2,0.5,0.3,0.8s0.1,0.7,0.1,1.2
			v3.3c0,0.4,0,0.7,0,0.9c0,0.2,0.1,0.3,0.1,0.4c0,0.1,0.1,0.2,0.3,0.3c0.1,0.1,0.3,0.1,0.6,0.2v0.3H49.7z"/>
		<path class="st9" d="M59,391.6l-1.6-0.1l-0.1,0.1c0.2,0.2,0.3,0.4,0.4,0.7c0.1,0.3,0.2,0.7,0.2,1c0,1-0.3,1.7-0.9,2.2
			c-0.6,0.5-1.4,0.8-2.5,0.8c-0.5,0-0.9-0.1-1.3-0.2c-0.4,0.3-0.7,0.7-0.7,1c0,0.2,0,0.4,0.1,0.5c0.1,0.1,0.2,0.2,0.4,0.2
			s0.5,0.1,0.9,0.1h2.2c0.6,0,1.1,0.1,1.5,0.3c0.4,0.2,0.7,0.5,0.8,0.8c0.2,0.3,0.3,0.7,0.3,1.1c0,0.6-0.2,1-0.5,1.5
			c-0.3,0.4-0.8,0.8-1.4,1s-1.3,0.4-2.1,0.4c-0.6,0-1.1,0-1.6-0.1c-0.5-0.1-0.9-0.2-1.3-0.4c-0.3-0.2-0.6-0.4-0.8-0.7
			c-0.2-0.3-0.3-0.6-0.3-1c0-0.4,0.1-0.7,0.4-1s0.6-0.6,1-0.8c-0.3-0.1-0.5-0.3-0.7-0.5s-0.2-0.5-0.2-0.8s0.1-0.6,0.3-0.9
			s0.5-0.6,1-1c-0.4-0.2-0.7-0.6-1-1c-0.3-0.4-0.3-0.9-0.3-1.4s0.1-0.9,0.3-1.3c0.2-0.4,0.4-0.7,0.7-0.9c0.3-0.2,0.6-0.4,1-0.5
			c0.4-0.1,0.8-0.2,1.3-0.2c0.4,0,0.8,0,1.3,0.1h3.1v1H59z M53.1,399.3c-0.3,0.2-0.5,0.5-0.7,0.7s-0.2,0.5-0.2,0.8
			c0,0.5,0.2,0.9,0.6,1.2c0.4,0.2,1.1,0.4,1.9,0.4c0.5,0,1-0.1,1.4-0.2c0.4-0.1,0.7-0.3,0.9-0.6c0.2-0.3,0.3-0.6,0.3-0.9
			c0-0.2,0-0.3-0.1-0.5c0-0.2-0.1-0.3-0.2-0.4c-0.1-0.1-0.3-0.2-0.5-0.3s-0.5-0.1-0.8-0.1h-1.3C53.9,399.3,53.5,399.3,53.1,399.3z
			 M52.9,393.4c0,0.7,0.1,1.3,0.4,1.7s0.7,0.6,1.3,0.6c0.3,0,0.6-0.1,0.8-0.2c0.2-0.1,0.4-0.3,0.5-0.5s0.2-0.4,0.3-0.7
			c0.1-0.3,0.1-0.5,0.1-0.8c0-0.5-0.1-0.9-0.2-1.3c-0.1-0.4-0.3-0.6-0.6-0.8c-0.3-0.2-0.5-0.2-0.9-0.2c-0.6,0-1,0.2-1.3,0.6
			C53,392.2,52.9,392.7,52.9,393.4z"/>
		<path class="st9" d="M62.3,396.9c0,0.5,0,0.9,0.1,1.1s0.1,0.3,0.3,0.4c0.1,0.1,0.3,0.2,0.6,0.3v0.4h-3.5v-0.4
			c0.3-0.1,0.5-0.2,0.6-0.2s0.2-0.2,0.2-0.3s0.1-0.3,0.1-0.5s0-0.5,0-0.8v-7.4c0-0.6,0-1,0-1.2s0-0.4-0.1-0.6c0-0.2-0.1-0.3-0.2-0.4
			c-0.1-0.1-0.2-0.2-0.3-0.2s-0.3-0.1-0.6-0.2v-0.5l2.1-0.1h0.5v10.6H62.3z"/>
		<path class="st9" d="M68.6,399.3c-1.2,0-2.1-0.4-2.8-1.1s-1-1.8-1-3.2c0-1,0.2-1.8,0.5-2.5s0.8-1.2,1.4-1.5s1.3-0.5,2-0.5
			c1.3,0,2.2,0.4,2.8,1.1c0.6,0.7,1,1.8,1,3.1c0,1-0.2,1.8-0.5,2.5s-0.8,1.2-1.4,1.5S69.4,399.3,68.6,399.3z M66.5,394.8
			c0,1.2,0.2,2.1,0.6,2.8c0.4,0.6,0.9,1,1.6,1c0.4,0,0.7-0.1,1-0.3c0.3-0.2,0.5-0.4,0.7-0.8c0.2-0.4,0.3-0.7,0.4-1.1
			c0.1-0.4,0.1-0.9,0.1-1.3c0-0.9-0.1-1.6-0.3-2.1s-0.5-1-0.8-1.3s-0.7-0.4-1.1-0.4c-0.7,0-1.3,0.3-1.6,0.9
			C66.8,392.8,66.5,393.7,66.5,394.8z"/>
		<path class="st9" d="M76.7,392.2L76.7,392.2c0.4-0.4,0.7-0.7,1-0.9c0.3-0.2,0.6-0.4,0.9-0.5c0.3-0.1,0.7-0.2,1.1-0.2
			c0.3,0,0.6,0,0.9,0.1v2h-1c-0.1-0.3-0.3-0.5-0.4-0.7c-0.2-0.1-0.4-0.2-0.7-0.2c-0.2,0-0.4,0.1-0.6,0.2c-0.2,0.1-0.4,0.3-0.6,0.5
			s-0.3,0.5-0.4,0.7s-0.1,0.4-0.1,0.7v3.1c0,0.5,0,0.9,0.1,1.1s0.2,0.3,0.3,0.4c0.1,0.1,0.4,0.2,0.7,0.2v0.4h-3.5v-0.4
			c0.2-0.1,0.4-0.1,0.5-0.2c0.1-0.1,0.2-0.1,0.3-0.2c0.1-0.1,0.1-0.2,0.2-0.4c0.1-0.2,0.1-0.5,0.1-0.9v-3.8c0-0.4,0-0.7,0-0.9
			c0-0.2-0.1-0.4-0.1-0.5c0-0.1-0.2-0.2-0.3-0.3c-0.1-0.1-0.3-0.1-0.6-0.2v-0.5l2.1-0.1h0.5L76.7,392.2z"/>
		<path class="st9" d="M88.6,397.6c-0.4,0.4-0.7,0.7-1,0.9c-0.3,0.2-0.7,0.4-1,0.5c-0.4,0.1-0.8,0.2-1.2,0.2c-1.2,0-2.1-0.4-2.7-1.1
			s-0.9-1.8-0.9-3.2c0-0.9,0.2-1.6,0.5-2.3c0.3-0.7,0.8-1.2,1.3-1.5s1.2-0.5,2-0.5c0.6,0,1.1,0.1,1.5,0.3c0.4,0.2,0.7,0.4,1,0.8
			c0.2,0.3,0.4,0.7,0.6,1.2c0.1,0.5,0.2,1.1,0.2,1.9h-5.5v0.2c0,0.7,0.1,1.3,0.2,1.7s0.4,0.8,0.8,1.1c0.4,0.3,0.8,0.4,1.4,0.4
			c0.5,0,0.9-0.1,1.3-0.3s0.8-0.5,1.1-0.9L88.6,397.6z M87.1,394c0-0.6-0.1-1.1-0.2-1.6s-0.3-0.7-0.6-0.9c-0.2-0.2-0.6-0.3-1-0.3
			c-0.6,0-1.1,0.2-1.4,0.7c-0.4,0.5-0.6,1.2-0.6,2.1H87.1L87.1,394z"/>
	</g>
	<g class="st6">
		<path class="st9" d="M-255.1,520c-0.6,0.6-1.5,1.8-2.7,3.5c-1.2,1.7-2.1,2.7-2.6,3.2s-0.9,0.7-1.2,0.7c-0.2,0-0.5-0.2-0.7-0.5
			c-0.2-0.4-0.5-1.1-0.9-2.2c-0.8-2.2-1.2-3.5-1.4-3.9c-0.1,0.2-0.1,0.5-0.2,1c-0.2,0.9-0.4,2.1-0.7,3.5c-0.6,2.6-0.9,4.4-1,5.2
			c0,0.1-0.1,0.2-0.3,0.3s-0.3,0.2-0.4,0.2c-0.2,0-0.4-0.1-0.6-0.3s-0.3-0.4-0.3-0.6c0-0.5,0.2-1.4,0.5-2.7l0.8-2.9
			c0.5-1.8,0.8-3.2,0.9-4s0.2-1.5,0.2-2c0-0.5,0.4-0.8,1.2-0.8c0.2,0,0.3,0.1,0.5,0.4s0.3,0.6,0.4,0.8c0.1,0.2,0.2,0.5,0.3,0.7
			l1.2,3.3c0.5,1.3,0.7,2.1,0.9,2.3s0.2,0.3,0.3,0.3c0.3-0.1,1.4-1.4,3.2-3.9c2-2.8,3.2-4.2,3.5-4.2c0.2,0,0.5,0.1,0.8,0.3
			c0.3,0.2,0.4,0.3,0.4,0.5c0,0.1-0.2,1.3-0.5,3.9c-0.1,0.9-0.2,2-0.3,3.4s-0.2,2-0.2,2.2c0,0.3,0.1,0.6,0.2,1
			c0.1,0.3,0.1,0.6,0.1,0.8c0,0.2,0,0.4-0.1,0.7c-0.1,0.3-0.2,0.5-0.4,0.5s-0.4,0.1-0.5,0.1c-0.6,0-0.9-0.5-0.9-1.5
			c0-0.9,0.2-3.2,0.6-6.9c0-0.3,0-0.5,0-0.5c0,0,0-0.2,0.1-0.6c0.1-0.3,0.1-0.5,0.1-0.7C-255.1,520.2-255.1,520-255.1,520z"/>
		<path class="st9" d="M-245,527.1c-0.8,1.1-1.6,1.9-2.4,2.5s-1.5,0.8-2.2,0.8c-0.5,0-0.8-0.2-1.2-0.6s-0.5-0.9-0.5-1.5
			c0-1.5,0.7-3.2,2.1-5s2.7-2.7,4.1-2.7c0.5,0,0.9,0.3,1.1,0.8c0.1,0.2,0.2,0.3,0.4,0.3c0.5,0,0.7,0.2,0.7,0.5c0,0.2,0,0.4-0.1,0.7
			c-0.3,1.7-0.5,2.9-0.5,3.7c0,1.4,0.3,2.3,0.8,2.5c0.3,0.1,0.4,0.3,0.4,0.5c0,0.2-0.1,0.4-0.4,0.5c-0.3,0.2-0.5,0.3-0.7,0.3
			c-0.5,0-0.8-0.3-1.1-0.9S-245,528.3-245,527.1z M-245.6,522.2c-0.8,0-1.7,0.7-2.7,2.2c-1,1.5-1.5,2.7-1.5,3.6c0,0.7,0.2,1,0.7,1
			c0.6,0,1.5-0.7,2.7-2s1.7-2.5,1.7-3.6C-244.7,522.6-245,522.2-245.6,522.2z"/>
		<path class="st9" d="M-234.4,523.6c-0.3,0-0.6,0.2-1,0.6s-0.9,1.3-1.6,2.7c-1,1.9-1.6,2.9-1.9,3.2s-0.5,0.4-0.7,0.4
			c-0.7,0-1-0.3-1-1c0-0.3,0-0.7,0.1-1.2c0.3-1.8,0.5-3.6,0.5-5.6c0-0.2,0.1-0.5,0.3-0.7c0.2-0.3,0.4-0.4,0.5-0.4
			c0.3,0,0.5,0.1,0.7,0.3s0.2,0.6,0.2,1.1c0,0.6-0.2,1.8-0.5,3.7c-0.1,0.6-0.2,1-0.2,1.2c0,0.1,0,0.1,0.1,0.1c0.1,0,0.5-0.7,1.2-2.1
			c0.7-1.4,1.4-2.4,1.9-3s1.2-0.9,1.8-0.9c0.5,0,1,0.2,1.3,0.7s0.6,1.4,0.7,2.6c0.2,1.4,0.3,2.3,0.4,2.7s0.3,0.5,0.6,0.5
			c0.2,0,0.4-0.1,0.7-0.2c0,0,0.1,0,0.1,0c0.3,0,0.4,0.1,0.4,0.4c0,0.3-0.2,0.5-0.5,0.8c-0.3,0.3-0.8,0.4-1.2,0.4
			c-0.5,0-0.9-0.2-1.2-0.6c-0.3-0.4-0.5-1.5-0.6-3.2C-233.5,524.4-233.9,523.6-234.4,523.6z"/>
		<path class="st9" d="M-222.5,527.1c-0.8,1.1-1.6,1.9-2.4,2.5s-1.5,0.8-2.2,0.8c-0.5,0-0.8-0.2-1.2-0.6s-0.5-0.9-0.5-1.5
			c0-1.5,0.7-3.2,2.1-5s2.7-2.7,4.1-2.7c0.5,0,0.9,0.3,1.1,0.8c0.1,0.2,0.2,0.3,0.4,0.3c0.5,0,0.7,0.2,0.7,0.5c0,0.2,0,0.4-0.1,0.7
			c-0.3,1.7-0.5,2.9-0.5,3.7c0,1.4,0.3,2.3,0.8,2.5c0.3,0.1,0.4,0.3,0.4,0.5c0,0.2-0.1,0.4-0.4,0.5c-0.3,0.2-0.5,0.3-0.7,0.3
			c-0.5,0-0.8-0.3-1.1-0.9S-222.5,528.3-222.5,527.1z M-223.1,522.2c-0.8,0-1.7,0.7-2.7,2.2c-1,1.5-1.5,2.7-1.5,3.6
			c0,0.7,0.2,1,0.7,1c0.6,0,1.5-0.7,2.7-2s1.7-2.5,1.7-3.6C-222.2,522.6-222.5,522.2-223.1,522.2z"/>
		<path class="st9" d="M-211.7,527.2c-0.1-0.1-0.3,0.1-0.6,0.5c-0.5,0.6-1.2,1.2-2,1.7s-1.6,0.7-2.3,0.7c-0.5,0-0.9-0.2-1.2-0.5
			c-0.3-0.3-0.4-0.8-0.4-1.4c0-0.9,0.3-1.9,1-3c0.7-1.1,1.6-2.1,2.9-2.9s2.3-1.2,3.2-1.2c0.5,0,0.9,0.1,1.3,0.4
			c0.1,0.1,0.2,0.1,0.2,0.2c0.1,0.1,0.2,0.2,0.3,0.5c0.1,0.2,0.1,0.4,0.1,0.6c0,0.1,0,0.2-0.1,0.4c-0.4,1-0.6,1.8-0.7,2.4
			s-0.3,1.7-0.4,3.2c-0.1,1.4-0.3,2.4-0.5,3.1s-0.5,1.4-0.9,2.1s-0.9,1.2-1.5,1.5c-0.6,0.3-1.2,0.5-1.8,0.5c-1.1,0-2.2-0.4-3.2-1.1
			s-1.6-1.4-1.6-1.8c0-0.3,0.1-0.4,0.3-0.4c0.1,0,0.4,0.2,0.9,0.5c1.4,0.9,2.6,1.4,3.7,1.4c1,0,1.7-0.5,2.2-1.5s0.8-2.6,1-4.6
			C-211.8,527.9-211.7,527.5-211.7,527.2z M-211.7,522.3c-0.5,0-1.1,0.3-1.9,0.8s-1.5,1.3-2.2,2.3s-1.1,1.8-1.1,2.5
			c0,0.2,0.1,0.4,0.2,0.5c0.1,0.1,0.3,0.2,0.5,0.2c0.5,0,1.2-0.3,2-0.8s1.6-1.3,2.2-2.2c0.6-1,0.9-1.7,0.9-2.3
			C-211,522.7-211.2,522.3-211.7,522.3z"/>
		<path class="st9" d="M-200,527.4c0,0.6-0.5,1.3-1.6,2.2s-2.1,1.3-3.3,1.3c-0.9,0-1.7-0.3-2.2-0.8s-0.8-1.3-0.8-2.3
			c0-1.7,0.6-3.3,1.7-4.8s2.4-2.3,3.7-2.3c0.4,0,0.8,0.1,1.1,0.4s0.4,0.6,0.4,1c0,0.9-0.4,1.8-1.3,2.6s-2.1,1.6-3.6,2.4
			c-0.3,0.2-0.5,0.4-0.5,0.6c0,0.5,0.1,0.9,0.4,1.2s0.7,0.4,1.2,0.4c1.3,0,2.5-0.7,3.9-2.1c0.2-0.2,0.3-0.3,0.4-0.3
			C-200.1,526.9-200,527.1-200,527.4z M-206.1,526c2.5-1.5,3.7-2.7,3.7-3.6c0-0.4-0.2-0.5-0.5-0.5c-0.5,0-1.1,0.4-1.8,1.2
			S-205.9,524.8-206.1,526z"/>
		<path class="st9" d="M-196.4,526.9c0.1-0.1,0.1-0.3,0.2-0.4c0.4-0.9,0.8-1.6,1.1-2.1c0.3-0.5,0.7-1,1.1-1.5s0.8-0.8,1.1-1.1
			s0.6-0.4,0.9-0.5c0.3-0.1,0.5-0.1,0.8-0.1c0.5,0,0.9,0.2,1.2,0.5c0.3,0.3,0.5,0.7,0.5,1.1c0,0.2-0.1,0.3-0.2,0.5s-0.3,0.2-0.5,0.2
			c-0.2,0-0.5-0.1-0.7-0.3c-0.2-0.2-0.4-0.3-0.7-0.3c-0.6,0-1.5,0.7-2.5,2.2s-1.7,3.1-2,4.9c-0.1,0.5-0.2,0.8-0.3,0.9
			s-0.4,0.2-0.7,0.2c-0.3,0-0.5-0.2-0.6-0.6s-0.2-1.1-0.2-2.2c0-0.3,0-0.9,0-1.8c0-1.1,0.1-2,0.2-2.7c0-0.1,0-0.4,0.1-0.8
			c0-0.5,0.1-0.8,0.2-0.9s0.2-0.3,0.4-0.5s0.4-0.2,0.6-0.2c0.2,0,0.4,0.1,0.5,0.2c0.1,0.1,0.2,0.3,0.2,0.4c0,0.2-0.1,0.6-0.2,1
			c-0.1,0.5-0.2,0.8-0.2,1c0,0.2,0,0.4-0.1,0.6c-0.1,0.3-0.1,0.9-0.2,2l0,0.3V526.9z"/>
	</g>
	<g class="st6">
		<path class="st9" d="M-68.1,519c-0.6,0.6-1.5,1.8-2.7,3.5c-1.2,1.7-2.1,2.7-2.6,3.2s-0.9,0.7-1.2,0.7c-0.2,0-0.5-0.2-0.7-0.5
			c-0.2-0.4-0.5-1.1-0.9-2.2c-0.8-2.2-1.2-3.5-1.4-3.9c-0.1,0.2-0.1,0.5-0.2,1c-0.2,0.9-0.4,2.1-0.7,3.5c-0.6,2.6-0.9,4.4-1,5.2
			c0,0.1-0.1,0.2-0.3,0.3s-0.3,0.2-0.4,0.2c-0.2,0-0.4-0.1-0.6-0.3s-0.3-0.4-0.3-0.6c0-0.5,0.2-1.4,0.5-2.7l0.8-2.9
			c0.5-1.8,0.8-3.2,0.9-4s0.2-1.5,0.2-2c0-0.5,0.4-0.8,1.2-0.8c0.2,0,0.3,0.1,0.5,0.4s0.3,0.6,0.4,0.8c0.1,0.2,0.2,0.5,0.3,0.7
			l1.2,3.3c0.5,1.3,0.7,2.1,0.9,2.3s0.2,0.3,0.3,0.3c0.3-0.1,1.4-1.4,3.2-3.9c2-2.8,3.2-4.2,3.5-4.2c0.2,0,0.5,0.1,0.8,0.3
			c0.3,0.2,0.4,0.3,0.4,0.5c0,0.1-0.2,1.3-0.5,3.9c-0.1,0.9-0.2,2-0.3,3.4s-0.2,2-0.2,2.2c0,0.3,0.1,0.6,0.2,1
			c0.1,0.3,0.1,0.6,0.1,0.8c0,0.2,0,0.4-0.1,0.7c-0.1,0.3-0.2,0.5-0.4,0.5s-0.4,0.1-0.5,0.1c-0.6,0-0.9-0.5-0.9-1.5
			c0-0.9,0.2-3.2,0.6-6.9c0-0.3,0-0.5,0-0.5c0,0,0-0.2,0.1-0.6c0.1-0.3,0.1-0.5,0.1-0.7C-68,519.2-68.1,519-68.1,519z"/>
		<path class="st9" d="M-58,526.1c-0.8,1.1-1.6,1.9-2.4,2.5s-1.5,0.8-2.2,0.8c-0.5,0-0.8-0.2-1.2-0.6s-0.5-0.9-0.5-1.5
			c0-1.5,0.7-3.2,2.1-5s2.7-2.7,4.1-2.7c0.5,0,0.9,0.3,1.1,0.8c0.1,0.2,0.2,0.3,0.4,0.3c0.5,0,0.7,0.2,0.7,0.5c0,0.2,0,0.4-0.1,0.7
			c-0.3,1.7-0.5,2.9-0.5,3.7c0,1.4,0.3,2.3,0.8,2.5c0.3,0.1,0.4,0.3,0.4,0.5c0,0.2-0.1,0.4-0.4,0.5c-0.3,0.2-0.5,0.3-0.7,0.3
			c-0.5,0-0.8-0.3-1.1-0.9S-58,527.3-58,526.1z M-58.5,521.2c-0.8,0-1.7,0.7-2.7,2.2c-1,1.5-1.5,2.7-1.5,3.6c0,0.7,0.2,1,0.7,1
			c0.6,0,1.5-0.7,2.7-2s1.7-2.5,1.7-3.6C-57.7,521.6-58,521.2-58.5,521.2z"/>
		<path class="st9" d="M-47.4,522.6c-0.3,0-0.6,0.2-1,0.6s-0.9,1.3-1.6,2.7c-1,1.9-1.6,2.9-1.9,3.2s-0.5,0.4-0.7,0.4
			c-0.7,0-1-0.3-1-1c0-0.3,0-0.7,0.1-1.2c0.3-1.8,0.5-3.6,0.5-5.6c0-0.2,0.1-0.5,0.3-0.7c0.2-0.3,0.4-0.4,0.5-0.4
			c0.3,0,0.5,0.1,0.7,0.3s0.2,0.6,0.2,1.1c0,0.6-0.2,1.8-0.5,3.7c-0.1,0.6-0.2,1-0.2,1.2c0,0.1,0,0.1,0.1,0.1c0.1,0,0.5-0.7,1.2-2.1
			c0.7-1.4,1.4-2.4,1.9-3s1.2-0.9,1.8-0.9c0.5,0,1,0.2,1.3,0.7s0.6,1.4,0.7,2.6c0.2,1.4,0.3,2.3,0.4,2.7s0.3,0.5,0.6,0.5
			c0.2,0,0.4-0.1,0.7-0.2c0,0,0.1,0,0.1,0c0.3,0,0.4,0.1,0.4,0.4c0,0.3-0.2,0.5-0.5,0.8c-0.3,0.3-0.8,0.4-1.2,0.4
			c-0.5,0-0.9-0.2-1.2-0.6c-0.3-0.4-0.5-1.5-0.6-3.2C-46.5,523.4-46.8,522.6-47.4,522.6z"/>
		<path class="st9" d="M-35.5,526.1c-0.8,1.1-1.6,1.9-2.4,2.5s-1.5,0.8-2.2,0.8c-0.5,0-0.8-0.2-1.2-0.6s-0.5-0.9-0.5-1.5
			c0-1.5,0.7-3.2,2.1-5s2.7-2.7,4.1-2.7c0.5,0,0.9,0.3,1.1,0.8c0.1,0.2,0.2,0.3,0.4,0.3c0.5,0,0.7,0.2,0.7,0.5c0,0.2,0,0.4-0.1,0.7
			c-0.3,1.7-0.5,2.9-0.5,3.7c0,1.4,0.3,2.3,0.8,2.5c0.3,0.1,0.4,0.3,0.4,0.5c0,0.2-0.1,0.4-0.4,0.5c-0.3,0.2-0.5,0.3-0.7,0.3
			c-0.5,0-0.8-0.3-1.1-0.9S-35.5,527.3-35.5,526.1z M-36,521.2c-0.8,0-1.7,0.7-2.7,2.2c-1,1.5-1.5,2.7-1.5,3.6c0,0.7,0.2,1,0.7,1
			c0.6,0,1.5-0.7,2.7-2s1.7-2.5,1.7-3.6C-35.2,521.6-35.5,521.2-36,521.2z"/>
		<path class="st9" d="M-24.6,526.1c-0.1-0.1-0.3,0.1-0.6,0.5c-0.5,0.6-1.2,1.2-2,1.7s-1.6,0.7-2.3,0.7c-0.5,0-0.9-0.2-1.2-0.5
			c-0.3-0.3-0.4-0.8-0.4-1.4c0-0.9,0.3-1.9,1-3c0.7-1.1,1.6-2.1,2.9-2.9s2.3-1.2,3.2-1.2c0.5,0,0.9,0.1,1.3,0.4
			c0.1,0.1,0.2,0.1,0.2,0.2c0.1,0.1,0.2,0.2,0.3,0.5c0.1,0.2,0.1,0.4,0.1,0.6c0,0.1,0,0.2-0.1,0.4c-0.4,1-0.6,1.8-0.7,2.4
			s-0.3,1.7-0.4,3.2c-0.1,1.4-0.3,2.4-0.5,3.1s-0.5,1.4-0.9,2.1s-0.9,1.2-1.5,1.5c-0.6,0.3-1.2,0.5-1.8,0.5c-1.1,0-2.2-0.4-3.2-1.1
			s-1.6-1.4-1.6-1.8c0-0.3,0.1-0.4,0.3-0.4c0.1,0,0.4,0.2,0.9,0.5c1.4,0.9,2.6,1.4,3.7,1.4c1,0,1.7-0.5,2.2-1.5s0.8-2.6,1-4.6
			C-24.7,526.9-24.7,526.5-24.6,526.1z M-24.6,521.3c-0.5,0-1.1,0.3-1.9,0.8s-1.5,1.3-2.2,2.3s-1.1,1.8-1.1,2.5
			c0,0.2,0.1,0.4,0.2,0.5c0.1,0.1,0.3,0.2,0.5,0.2c0.5,0,1.2-0.3,2-0.8s1.6-1.3,2.2-2.2c0.6-1,0.9-1.7,0.9-2.3
			C-23.9,521.6-24.2,521.3-24.6,521.3z"/>
		<path class="st9" d="M-13,526.3c0,0.6-0.5,1.3-1.6,2.2s-2.1,1.3-3.3,1.3c-0.9,0-1.7-0.3-2.2-0.8s-0.8-1.3-0.8-2.3
			c0-1.7,0.6-3.3,1.7-4.8s2.4-2.3,3.7-2.3c0.4,0,0.8,0.1,1.1,0.4s0.4,0.6,0.4,1c0,0.9-0.4,1.8-1.3,2.6s-2.1,1.6-3.6,2.4
			c-0.3,0.2-0.5,0.4-0.5,0.6c0,0.5,0.1,0.9,0.4,1.2s0.7,0.4,1.2,0.4c1.3,0,2.5-0.7,3.9-2.1c0.2-0.2,0.3-0.3,0.4-0.3
			C-13.1,525.9-13,526-13,526.3z M-19.1,525c2.5-1.5,3.7-2.7,3.7-3.6c0-0.4-0.2-0.5-0.5-0.5c-0.5,0-1.1,0.4-1.8,1.2
			S-18.8,523.8-19.1,525z"/>
		<path class="st9" d="M-9.4,525.8c0.1-0.1,0.1-0.3,0.2-0.4c0.4-0.9,0.8-1.6,1.1-2.1c0.3-0.5,0.7-1,1.1-1.5s0.8-0.8,1.1-1.1
			s0.6-0.4,0.9-0.5c0.3-0.1,0.5-0.1,0.8-0.1c0.5,0,0.9,0.2,1.2,0.5c0.3,0.3,0.5,0.7,0.5,1.1c0,0.2-0.1,0.3-0.2,0.5s-0.3,0.2-0.5,0.2
			c-0.2,0-0.5-0.1-0.7-0.3c-0.2-0.2-0.4-0.3-0.7-0.3c-0.6,0-1.5,0.7-2.5,2.2s-1.7,3.1-2,4.9c-0.1,0.5-0.2,0.8-0.3,0.9
			s-0.4,0.2-0.7,0.2c-0.3,0-0.5-0.2-0.6-0.6s-0.2-1.1-0.2-2.2c0-0.3,0-0.9,0-1.8c0-1.1,0.1-2,0.2-2.7c0-0.1,0-0.4,0.1-0.8
			c0-0.5,0.1-0.8,0.2-0.9s0.2-0.3,0.4-0.5s0.4-0.2,0.6-0.2c0.2,0,0.4,0.1,0.5,0.2c0.1,0.1,0.2,0.3,0.2,0.4c0,0.2-0.1,0.6-0.2,1
			c-0.1,0.5-0.2,0.8-0.2,1c0,0.2,0,0.4-0.1,0.6c-0.1,0.3-0.1,0.9-0.2,2l0,0.3V525.8z"/>
	</g>
</g>
</svg>
