<svg xmlns="http://www.w3.org/2000/svg" xmlns:xlink="http://www.w3.org/1999/xlink" viewBox="0 0 95 90">
  <defs>
    <style>
      .cls-1, .cls-3 {
        fill: none;
      }

      .cls-2 {
        fill: #fff;
      }

      .cls-2, .cls-3 {
        stroke: #33335d;
      }

      .cls-3 {
        stroke-width: 0.5px;
      }

      .cls-4 {
        clip-path: url(#clip-path);
      }

      .cls-5 {
        fill: #e9e9ed;
      }

      .cls-6 {
        fill: #33335d;
      }

      .cls-7 {
        fill: #ececff;
      }

      .cls-8 {
        fill: #26263a;
        font-size: 8px;
        font-family: Lato-Heavy, Lato;
        font-weight: 800;
      }

      .cls-9 {
        fill: #dddde1;
      }

      .cls-10 {
        stroke: none;
      }
    </style>
    <clipPath id="clip-path">
      <rect class="cls-1" width="37.5" height="3.409"/>
    </clipPath>
  </defs>
  <g id="Group_3050" data-name="Group 3050" transform="translate(-4466 -1159)">
    <g id="Rectangle_1386" data-name="Rectangle 1386" class="cls-2" transform="translate(4473.464 1168.545)">
      <rect class="cls-10" width="80.072" height="80.455"/>
      <rect class="cls-1" x="0.5" y="0.5" width="79.072" height="79.455"/>
    </g>
    <g id="Rectangle_1387" data-name="Rectangle 1387" class="cls-3" transform="translate(4466.678 1159.682)">
      <rect class="cls-10" width="93.643" height="73.636"/>
      <rect class="cls-1" x="0.25" y="0.25" width="93.143" height="73.136"/>
    </g>
    <g id="Repeat_Grid_3" data-name="Repeat Grid 3" class="cls-4" transform="translate(4472.786 1163.091)">
      <g transform="translate(-635 -2736)">
        <path id="Path_9182" data-name="Path 9182" class="cls-5" d="M1.5,0A1.5,1.5,0,1,1,0,1.5,1.5,1.5,0,0,1,1.5,0Z" transform="translate(635 2736)"/>
      </g>
      <g transform="translate(-628 -2736)">
        <path id="Path_9182-2" data-name="Path 9182" class="cls-5" d="M1.5,0A1.5,1.5,0,1,1,0,1.5,1.5,1.5,0,0,1,1.5,0Z" transform="translate(635 2736)"/>
      </g>
      <g transform="translate(-621 -2736)">
        <path id="Path_9182-3" data-name="Path 9182" class="cls-5" d="M1.5,0A1.5,1.5,0,1,1,0,1.5,1.5,1.5,0,0,1,1.5,0Z" transform="translate(635 2736)"/>
      </g>
      <g transform="translate(-614 -2736)">
        <path id="Path_9182-4" data-name="Path 9182" class="cls-5" d="M1.5,0A1.5,1.5,0,1,1,0,1.5,1.5,1.5,0,0,1,1.5,0Z" transform="translate(635 2736)"/>
      </g>
      <g transform="translate(-607 -2736)">
        <path id="Path_9182-5" data-name="Path 9182" class="cls-5" d="M1.5,0A1.5,1.5,0,1,1,0,1.5,1.5,1.5,0,0,1,1.5,0Z" transform="translate(635 2736)"/>
      </g>
      <g transform="translate(-600 -2736)">
        <path id="Path_9182-6" data-name="Path 9182" class="cls-5" d="M1.5,0A1.5,1.5,0,1,1,0,1.5,1.5,1.5,0,0,1,1.5,0Z" transform="translate(635 2736)"/>
      </g>
    </g>
    <ellipse id="Ellipse_52" data-name="Ellipse 52" class="cls-6" cx="1.018" cy="1.023" rx="1.018" ry="1.023" transform="translate(4558.964 1159)"/>
    <ellipse id="Ellipse_53" data-name="Ellipse 53" class="cls-6" cx="1.018" cy="1.023" rx="1.018" ry="1.023" transform="translate(4558.964 1231.955)"/>
    <rect id="Rectangle_1388" data-name="Rectangle 1388" class="cls-7" width="76.724" height="14.318" transform="translate(4475.138 1171.955)"/>
    <text id="Tally" class="cls-8" transform="translate(4485.852 1181.318)"><tspan x="-8.188" y="0">Tally</tspan></text>
    <rect id="Rectangle_1392" data-name="Rectangle 1392" class="cls-9" width="29.857" height="3" transform="translate(4478.893 1190.091)"/>
    <rect id="Rectangle_1389" data-name="Rectangle 1389" class="cls-5" width="18.91" height="3" transform="translate(4513.727 1190.091)"/>
    <rect id="Rectangle_1395" data-name="Rectangle 1395" class="cls-5" width="18.91" height="3" transform="translate(4478.893 1197.091)"/>
    <rect id="Rectangle_1390" data-name="Rectangle 1390" class="cls-9" width="29.857" height="3" transform="translate(4502.779 1197.091)"/>
    <rect id="Rectangle_1393" data-name="Rectangle 1393" class="cls-9" width="25.876" height="3" transform="translate(4478.893 1204.091)"/>
    <rect id="Rectangle_1394" data-name="Rectangle 1394" class="cls-9" width="32.843" height="3" transform="translate(4478.893 1210.091)"/>
    <rect id="Rectangle_1391" data-name="Rectangle 1391" class="cls-5" width="17.914" height="3" transform="translate(4514.722 1210.091)"/>
    <ellipse id="Ellipse_54" data-name="Ellipse 54" class="cls-6" cx="1.018" cy="1.023" rx="1.018" ry="1.023" transform="translate(4466 1231.955)"/>
    <ellipse id="Ellipse_55" data-name="Ellipse 55" class="cls-6" cx="1.018" cy="1.023" rx="1.018" ry="1.023" transform="translate(4466 1159)"/>
    <path id="Path_9204" data-name="Path 9204" class="cls-5" d="M1.489,6.4a1.423,1.423,0,0,1-.381-.242l-.035-.035A.127.127,0,0,0,.9,6.2L.064,8.109A.85.85,0,0,0,.513,9.255l2.078.9a1.93,1.93,0,0,0,.652,3.092,1.992,1.992,0,0,0,2.568-1.013,2.07,2.07,0,0,0,.14-.591l2.078.9a.852.852,0,0,0,1.145-.454L10.08,10a1.7,1.7,0,0,0,.519.346,1.992,1.992,0,0,0,2.568-1.013,1.956,1.956,0,0,0-1-2.57,1.354,1.354,0,0,0-.624-.138l.906-2.087A.85.85,0,0,0,12,3.393L10.1,2.562a.146.146,0,0,0-.208.1,1.971,1.971,0,0,1-.14.417A1.946,1.946,0,1,1,6.18,1.528c.07-.139.139-.244.209-.383.07-.1.035-.174-.069-.243L4.415.072A.852.852,0,0,0,3.27.526L2.434,2.439a.167.167,0,0,0,.069.208h.035A1.984,1.984,0,0,1,3.953,5.355,1.8,1.8,0,0,1,1.489,6.4Z" transform="translate(4522.736 1220.671) rotate(-30)"/>
    <path id="Path_9205" data-name="Path 9205" class="cls-7" d="M6.31-.013a.313.313,0,0,1,.242.1L7.694,1.3l-.069.07a2.306,2.306,0,0,0-.766,1.7A2.4,2.4,0,0,0,7.513,4.85a2.468,2.468,0,0,0,3.467.1l.069-.07,1.142,1.214a.313.313,0,0,1-.036.487L10.488,8.145l-.521.488.658.346a1.531,1.531,0,0,1,.381.277,1.51,1.51,0,0,1,.379,1.007,1.435,1.435,0,0,1-.453,1.009,1.423,1.423,0,0,1-2.011-.065.9.9,0,0,1-.242-.382l-.311-.66-.521.488L6.181,12.22a.335.335,0,0,1-.485,0L4.139,10.556l-.484-.52-.348.626a1.368,1.368,0,0,1-.278.348,1.494,1.494,0,0,1-.972.384,1.5,1.5,0,0,1-1.039-.45A1.51,1.51,0,0,1,.638,9.938a1.435,1.435,0,0,1,.453-1.009,1.44,1.44,0,0,1,.382-.244l.659-.314-.484-.52L.091,6.186a.374.374,0,0,1-.1-.243.317.317,0,0,1,.1-.243L1.308,4.55c.035.035.035.069.069.069a2.468,2.468,0,0,0,3.467.1,2.44,2.44,0,0,0,.111-3.476l-.069-.069L6.1.022c.035,0,.139-.035.208-.035" transform="translate(4535.427 1221.719) rotate(-30)"/>
  </g>
</svg>
