<svg xmlns="http://www.w3.org/2000/svg" viewBox="0 0 70.183 90">
  <defs>
    <style>
      .cls-1 {
        fill: #26263a;
      }

      .cls-2 {
        fill: #f3f3ff;
      }

      .cls-3 {
        fill: #e34b26;
      }

      .cls-4 {
        fill: #fcfcfc;
      }
    </style>
  </defs>
  <g id="Group_4372" data-name="Group 4372" transform="translate(-6177 -1015)">
    <path id="Path_10494" data-name="Path 10494" class="cls-1" d="M108.288,32.276h5.275a.688.688,0,0,0,0-1.376h-5.275a.688.688,0,0,0,0,1.376Z" transform="translate(6094.078 991.187)"/>
    <path id="Path_10495" data-name="Path 10495" class="cls-1" d="M177.407,301.6H161.788a.688.688,0,1,0,0,1.376h15.619a.688.688,0,1,0,0-1.376Z" transform="translate(6052.849 782.574)"/>
    <path id="Path_10496" data-name="Path 10496" class="cls-1" d="M247.19,301.6h-2.2a.688.688,0,1,0,0,1.376h2.2a.688.688,0,1,0,0-1.376Z" transform="translate(5988.731 782.574)"/>
    <path id="Path_10497" data-name="Path 10497" class="cls-1" d="M173.476,7.087h-10.3V6.193a.676.676,0,0,0-.688-.688h-4.358a6.209,6.209,0,0,0-6.17-5.5h-1.147a6.209,6.209,0,0,0-6.17,5.5h-4.358a.676.676,0,0,0-.688.688V14.06a.676.676,0,0,0,.688.688h22.2a.676.676,0,0,0,.688-.688v-5.6h10.3a2.917,2.917,0,0,1,2.913,2.913V66.239a2.917,2.917,0,0,1-2.913,2.913h-4.358a.688.688,0,1,0,0,1.376h4.358a4.3,4.3,0,0,0,4.289-4.289V11.376A4.3,4.3,0,0,0,173.476,7.087Zm-32.5,6.284V6.881h4.335A.676.676,0,0,0,146,6.193a4.816,4.816,0,0,1,4.817-4.817h1.147a4.816,4.816,0,0,1,4.816,4.817.676.676,0,0,0,.688.688H161.8v6.491Z" transform="translate(6069.417 1015)"/>
    <path id="Path_10498" data-name="Path 10498" class="cls-2" d="M166.426,11.5h-4.335a.676.676,0,0,1-.688-.688A4.816,4.816,0,0,0,156.586,6h-1.147a4.816,4.816,0,0,0-4.817,4.817.676.676,0,0,1-.688.688H145.6V18h20.826V11.5Z" transform="translate(6064.793 1010.376)"/>
    <path id="Path_10499" data-name="Path 10499" class="cls-1" d="M120.62,95.388a.676.676,0,0,0-.688-.688H99.588a.688.688,0,1,0,0,1.376h20.344A.676.676,0,0,0,120.62,95.388Z" transform="translate(6100.783 942.02)"/>
    <path id="Path_10500" data-name="Path 10500" class="cls-1" d="M99.588,118a.688.688,0,0,0,0,1.376h14.243a.688.688,0,1,0,0-1.376Z" transform="translate(6100.783 924.064)"/>
    <path id="Path_10501" data-name="Path 10501" class="cls-1" d="M228.93,99.561a6.33,6.33,0,1,0-6.33-6.33A6.343,6.343,0,0,0,228.93,99.561Zm0-11.307a4.954,4.954,0,1,1-4.954,4.954A4.963,4.963,0,0,1,228.93,88.253Z" transform="translate(6005.454 948.031)"/>
    <path id="Path_10502" data-name="Path 10502" class="cls-3" d="M240.807,109.255l.8.573a.623.623,0,0,0,.39.138.728.728,0,0,0,.459-.183l2.294-2.064a.682.682,0,1,0-.917-1.009l-1.881,1.7-.344-.252a.677.677,0,0,0-.963.161A.651.651,0,0,0,240.807,109.255Z" transform="translate(5991.651 932.901)"/>
    <path id="Path_10503" data-name="Path 10503" class="cls-2" d="M228.4,172.254a4.954,4.954,0,1,0,4.954-4.954A4.963,4.963,0,0,0,228.4,172.254Zm3.395-.436a.681.681,0,0,1,.94-.986l.642.6.642-.6a.681.681,0,1,1,.94.986l-.573.528.573.528a.665.665,0,0,1,.023.963.737.737,0,0,1-.5.229.682.682,0,0,1-.459-.183l-.642-.6-.642.6a.728.728,0,0,1-.459.183.65.65,0,0,1-.5-.229.685.685,0,0,1,.023-.963l.573-.528Z" transform="translate(6000.984 886.072)"/>
    <path id="Path_10504" data-name="Path 10504" class="cls-1" d="M228.73,173.961a6.33,6.33,0,1,0-6.33-6.33A6.343,6.343,0,0,0,228.73,173.961Zm4.977-6.33a4.954,4.954,0,1,1-4.954-4.954A4.963,4.963,0,0,1,233.707,167.63Z" transform="translate(6005.608 890.695)"/>
    <path id="Path_10505" data-name="Path 10505" class="cls-3" d="M242.374,185.048a.737.737,0,0,0,.5.229.682.682,0,0,0,.459-.183l.642-.6.642.6a.728.728,0,0,0,.459.183.65.65,0,0,0,.5-.229.685.685,0,0,0-.023-.963l-.573-.528.573-.528a.681.681,0,0,0-.94-.986l-.642.6-.642-.6a.681.681,0,1,0-.94.986l.573.528-.573.528A.708.708,0,0,0,242.374,185.048Z" transform="translate(5990.359 874.86)"/>
    <path id="Path_10506" data-name="Path 10506" class="cls-2" d="M33.9,200.423a16.984,16.984,0,0,0-9.358-29.954c-.528-.046-1.032-.069-1.537-.069a16.972,16.972,0,0,0-1.491,33.876A16.632,16.632,0,0,0,33.9,200.423Zm-21.078-4.5A13.3,13.3,0,1,1,23.052,200.7,13.329,13.329,0,0,1,12.823,195.928Z" transform="translate(6172.318 883.683)"/>
    <path id="Path_10507" data-name="Path 10507" class="cls-4" d="M39.955,192.5a11.926,11.926,0,1,0,9.151,4.289A11.876,11.876,0,0,0,39.955,192.5ZM33.9,198.807a8.206,8.206,0,0,0-2.2,5.619.676.676,0,0,1-.688.688h0a.676.676,0,0,1-.688-.688,9.57,9.57,0,0,1,2.569-6.537.682.682,0,1,1,1.009.917Zm3.6-2.271c-.229.069-.436.138-.665.229a10.189,10.189,0,0,0-1.124.55.647.647,0,0,1-.344.092.691.691,0,0,1-.6-.344.675.675,0,0,1,.229-.94,8.642,8.642,0,0,1,1.307-.642l.757-.275a.7.7,0,0,1,.872.459A.667.667,0,0,1,37.5,196.537Z" transform="translate(6155.393 866.651)"/>
    <path id="Path_10508" data-name="Path 10508" class="cls-1" d="M35.358,213.137a13.159,13.159,0,0,0,8.509-3.1,13.3,13.3,0,1,0-8.509,3.1Zm9.128-20.94a11.9,11.9,0,1,1-9.151-4.289A11.924,11.924,0,0,1,44.486,192.2Z" transform="translate(6160.013 871.243)"/>
    <path id="Path_10509" data-name="Path 10509" class="cls-1" d="M59.445,204.293a7.361,7.361,0,0,0-.757.275,11.532,11.532,0,0,0-1.307.642.675.675,0,0,0-.229.94.745.745,0,0,0,.6.344.6.6,0,0,0,.344-.092,7.276,7.276,0,0,1,1.124-.55,5.663,5.663,0,0,1,.665-.229.7.7,0,0,0,.459-.872A.732.732,0,0,0,59.445,204.293Z" transform="translate(6133.036 857.587)"/>
    <path id="Path_10510" data-name="Path 10510" class="cls-1" d="M40.569,215.255A9.57,9.57,0,0,0,38,221.792a.676.676,0,0,0,.688.688h0a.676.676,0,0,0,.688-.688,8.248,8.248,0,0,1,2.2-5.619.666.666,0,0,0-.046-.963A.686.686,0,0,0,40.569,215.255Z" transform="translate(6147.714 849.286)"/>
    <rect id="Rectangle_2410" data-name="Rectangle 2410" class="cls-2" width="5.275" height="18.853" transform="matrix(-0.767, 0.641, -0.641, -0.767, 6222.74, 1099.951)"/>
    <path id="Path_10511" data-name="Path 10511" class="cls-1" d="M34.292,92.9a.709.709,0,0,0-.459-.252.672.672,0,0,0-.5.161l-.872.734-.8-.963A18.367,18.367,0,0,0,34.2,70.6h3.44a.688.688,0,0,0,0-1.376H33.283c-.275-.367-.55-.734-.826-1.078a20.011,20.011,0,0,0-3.028-2.89H43.742a.688.688,0,0,0,0-1.376H27.32A18.3,18.3,0,0,0,20,61.634a19.3,19.3,0,0,0-3.257,0V35.189a2.917,2.917,0,0,1,2.913-2.913h3.119a.688.688,0,1,0,0-1.376H19.659a4.3,4.3,0,0,0-4.289,4.289V61.772a18.151,18.151,0,0,0-8.784,4.037A18.354,18.354,0,0,0,16.7,98.171c.55.046,1.124.069,1.674.069a18.2,18.2,0,0,0,9.679-2.775l.849,1.009-.711.6a.691.691,0,0,0-.092.963l12.959,15.528a.686.686,0,0,0,.528.252.605.605,0,0,0,.436-.161l5.115-4.266a.691.691,0,0,0,.092-.963ZM41.7,112.139,29.613,97.666l4.06-3.372L45.76,108.767ZM5.324,90.762a16.973,16.973,0,0,1,13-27.844c.5,0,1.032.023,1.537.069A16.984,16.984,0,1,1,5.324,90.762ZM29.2,94.684c.3-.229.619-.459.894-.711.183-.138.344-.3.528-.459l.757.894-1.4,1.17Z" transform="translate(6176.996 991.187)"/>
  </g>
</svg>
