<svg id="Group_4376" data-name="Group 4376" xmlns="http://www.w3.org/2000/svg" viewBox="0 0 83.79 90">
  <defs>
    <style>
      .cls-1 {
        fill: #f3f3ff;
      }

      .cls-2 {
        fill: #26263a;
      }

      .cls-3 {
        fill: #e34b26;
      }
    </style>
  </defs>
  <rect id="Rectangle_2411" data-name="Rectangle 2411" class="cls-1" width="37.696" height="5.198" transform="translate(23.006 71.371)"/>
  <path id="Path_10524" data-name="Path 10524" class="cls-1" d="M115.121,311.086H121.8V306.6H84.1v4.486h22.951a.806.806,0,0,1,.821.821h1.313a.806.806,0,0,1,.821-.821h2.872a.806.806,0,0,1,.821.821h.6A.823.823,0,0,1,115.121,311.086Z" transform="translate(-61.094 -222.728)"/>
  <path id="Path_10525" data-name="Path 10525" class="cls-1" d="M114.976,24.1H68.8V44.836a23.088,23.088,0,1,0,46.176,0ZM101.052,44.507,97.5,47.981l.848,4.9a1.6,1.6,0,0,1-.657,1.614,1.639,1.639,0,0,1-.985.328,1.517,1.517,0,0,1-.766-.191l-4.4-2.3-4.4,2.3a1.665,1.665,0,0,1-2.407-1.751l.848-4.9-3.556-3.474a1.655,1.655,0,0,1,.93-2.818l4.9-.711,2.216-4.459a1.638,1.638,0,0,1,2.954,0h0L95.2,40.978l4.924.711a1.626,1.626,0,0,1,1.34,1.122A1.7,1.7,0,0,1,101.052,44.507Z" transform="translate(-49.979 -17.507)"/>
  <path id="Path_10526" data-name="Path 10526" class="cls-2" d="M82.97,6.839H66.638V.821A.806.806,0,0,0,65.818,0H18a.806.806,0,0,0-.821.821V6.839h-1.45a.821.821,0,1,0,0,1.641h1.45V27.328a24.414,24.414,0,0,0,1.4,8.152,23.876,23.876,0,0,1-16.933-22.9V8.453H12.967a.821.821,0,0,0,0-1.641H.821A.806.806,0,0,0,0,7.632v4.951A25.527,25.527,0,0,0,19.176,37.34a1.185,1.185,0,0,1,.137.027A24.844,24.844,0,0,0,39.064,51.894v9.356H32.581a.806.806,0,0,0-.821.821v7.66H22.185a.806.806,0,0,0-.821.821V89.179a.806.806,0,0,0,.821.821H45.957a.806.806,0,0,0,.821-.821h0a.806.806,0,0,0-.821-.821H23.006V83.872H60.7v4.486H54.027a.806.806,0,0,0-.821.821h0a.806.806,0,0,0,.821.821h7.5a.806.806,0,0,0,.821-.821V70.55a.806.806,0,0,0-.821-.821H52V62.07a.806.806,0,0,0-.821-.821H44.7V51.894A24.779,24.779,0,0,0,64.5,37.368h.109c.848-.219,1.7-.492,2.517-.793a.843.843,0,0,0,.492-1.067.832.832,0,0,0-1.067-.492c-.438.164-.848.3-1.286.438A24.282,24.282,0,0,0,66.638,27.3V8.453H82.149v4.131A23.791,23.791,0,0,1,70.8,32.936c-.438.274-.875.52-1.313.766a.832.832,0,0,0,.383,1.559.628.628,0,0,0,.383-.109c.465-.246.957-.52,1.422-.821A25.456,25.456,0,0,0,83.79,12.584V7.632A.8.8,0,0,0,82.97,6.839ZM41.909,50.416A23.128,23.128,0,0,1,18.821,27.328V6.593H65V27.328A23.11,23.11,0,0,1,41.909,50.416ZM18.821,1.641H65v3.31H18.821ZM23.006,78.21H60.7v4.021h-37.7Zm37.723-1.641H23.006v-5.2H60.7v5.2ZM50.362,69.729H33.4V62.891h16.96Zm-7.3-8.48H40.705V52.03c.41.027.821.027,1.2.027s.766,0,1.149-.027v9.219Z"/>
  <path id="Path_10527" data-name="Path 10527" class="cls-3" d="M133.91,72.1l-4.924-.711L126.8,66.93h0a1.638,1.638,0,0,0-2.954,0l-2.216,4.459-4.9.711a1.626,1.626,0,0,0-1.34,1.122,1.683,1.683,0,0,0,.41,1.7l3.556,3.474-.848,4.9a1.6,1.6,0,0,0,.657,1.614,1.684,1.684,0,0,0,1.751.137l4.4-2.3,4.4,2.3a1.589,1.589,0,0,0,.766.191,1.7,1.7,0,0,0,.985-.328,1.625,1.625,0,0,0,.657-1.614l-.848-4.9,3.556-3.474a1.627,1.627,0,0,0,.41-1.7A1.67,1.67,0,0,0,133.91,72.1Zm-12.939,6.593a1.714,1.714,0,0,0-.465-1.477l-3.556-3.474,4.9-.711a1.667,1.667,0,0,0,1.258-.9l2.216-4.459h0l2.188,4.459a1.667,1.667,0,0,0,1.258.9l4.924.739-3.556,3.474a1.638,1.638,0,0,0-.465,1.477l.821,4.9-4.4-2.3a1.628,1.628,0,0,0-1.532,0l-4.4,2.3Z" transform="translate(-83.767 -47.945)"/>
  <path id="Path_10528" data-name="Path 10528" class="cls-2" d="M179.493,323h-2.872a.806.806,0,0,0-.821.821h0a.806.806,0,0,0,.821.821h2.872a.806.806,0,0,0,.821-.821h0A.806.806,0,0,0,179.493,323Z" transform="translate(-127.709 -234.641)"/>
</svg>
