<svg xmlns="http://www.w3.org/2000/svg" viewBox="0 0 153.098 91">
  <defs>
    <style>
      .cls-1 {
        fill: #26263a;
      }

      .cls-2, .cls-6 {
        fill: #f3f3ff;
      }

      .cls-3 {
        fill: #fff;
      }

      .cls-4 {
        fill: #717296;
      }

      .cls-5 {
        fill: #e34b26;
        stroke: #e34b26;
      }

      .cls-6 {
        stroke: #26263a;
        stroke-linecap: round;
        stroke-linejoin: round;
        stroke-miterlimit: 2.613;
      }
    </style>
  </defs>
  <g id="Group_4371" data-name="Group 4371" transform="translate(-205.751 -999.863)">
    <path id="Path_10478" data-name="Path 10478" class="cls-1" d="M.5,83.062a.5.5,0,0,1-.5-.5V.534a.5.5,0,0,1,.5-.5H12.525a.5.5,0,0,1,.5.5.5.5,0,0,1-.5.5H1V82.121H57.949V1H40.589a.5.5,0,0,1-.5-.5.5.5,0,0,1,.5-.5H58.42a.5.5,0,0,1,.5.5V82.529a.545.545,0,0,1-.5.534Z" transform="translate(205.751 1000.793)"/>
    <path id="Path_10479" data-name="Path 10479" class="cls-2" d="M79.382,86.719v18.207H22.5V22.9H64.6L79.382,40.7V60.1" transform="translate(190.314 985.081)"/>
    <path id="Path_10480" data-name="Path 10480" class="cls-3" d="M155.3,23.2V40.874h14.911" transform="translate(99.203 984.875)"/>
    <path id="Path_10481" data-name="Path 10481" class="cls-4" d="M69.992,120.76H49.43a1.13,1.13,0,0,1,0-2.26H69.992a1.106,1.106,0,0,1,1.13,1.13A1.167,1.167,0,0,1,69.992,120.76Z" transform="translate(172.613 919.492)"/>
    <path id="Path_10482" data-name="Path 10482" class="cls-4" d="M81.073,151.66H49.43a1.106,1.106,0,0,1-1.13-1.13,1.088,1.088,0,0,1,1.13-1.13H81.073a1.106,1.106,0,0,1,1.13,1.13A1.125,1.125,0,0,1,81.073,151.66Z" transform="translate(172.613 898.292)"/>
    <path id="Path_10483" data-name="Path 10483" class="cls-4" d="M87.822,182.66H49.43a1.13,1.13,0,0,1,0-2.26H87.822a1.106,1.106,0,0,1,1.13,1.13A1.125,1.125,0,0,1,87.822,182.66Z" transform="translate(172.613 877.023)"/>
    <path id="Path_10484" data-name="Path 10484" class="cls-4" d="M87.822,213.56H49.43a1.106,1.106,0,0,1-1.13-1.13,1.088,1.088,0,0,1,1.13-1.13H87.822a1.106,1.106,0,0,1,1.13,1.13A1.125,1.125,0,0,1,87.822,213.56Z" transform="translate(172.613 855.823)"/>
    <path id="Path_10485" data-name="Path 10485" class="cls-4" d="M87.822,245.66H49.43a1.106,1.106,0,0,1-1.13-1.13,1.088,1.088,0,0,1,1.13-1.13H87.822a1.106,1.106,0,0,1,1.13,1.13A1.125,1.125,0,0,1,87.822,245.66Z" transform="translate(172.613 833.8)"/>
    <g id="Group_4319" data-name="Group 4319" transform="translate(222.734 1020.538)">
      <path id="Path_10486" data-name="Path 10486" class="cls-1" d="M54.1,67.044A4.058,4.058,0,0,1,58.306,62.9a3.8,3.8,0,0,1,3.233,1.664l-1.161.628a2.563,2.563,0,0,0-2.072-1.067,2.749,2.749,0,0,0-2.762,2.919,2.785,2.785,0,0,0,2.762,2.919,2.819,2.819,0,0,0,1.883-.722V68.017H57.8V66.761h3.8v3.014a4.274,4.274,0,0,1-3.3,1.444A4.14,4.14,0,0,1,54.1,67.044ZM62.544,69.9l.785-1.067a3.461,3.461,0,0,0,2.543,1.13c1.161,0,1.6-.565,1.6-1.067,0-1.664-4.646-.628-4.646-3.579,0-1.318,1.161-2.354,2.888-2.354a4.254,4.254,0,0,1,3.014,1.13l-.816,1.036a3.194,3.194,0,0,0-2.292-.879c-.816,0-1.35.408-1.35,1,0,1.475,4.646.565,4.646,3.547,0,1.35-.942,2.449-3.076,2.449a4.787,4.787,0,0,1-3.3-1.35Zm9.417,1.13V64.25H69.545V63.026h6.247V64.25H73.374V71.03Z" transform="translate(-54.1 -62.9)"/>
    </g>
    <path id="Path_10487" data-name="Path 10487" class="cls-1" d="M20.7,103.927a.5.5,0,0,1-.5-.5V20.8a.5.5,0,0,1,.5-.5h42.41a.523.523,0,0,1,.377.188L78.4,38.413l.031.031c.031.031.063.063.063.283V58.284a.5.5,0,1,1-1,0V38.915L62.8,21.3H21.142v81.681H77.552V85.124a.5.5,0,1,1,1,0v18.3a.545.545,0,0,1-.534.5Z" transform="translate(191.892 986.865)"/>
    <path id="Path_10488" data-name="Path 10488" class="cls-1" d="M152.6,41.609a.5.5,0,0,1-.5-.5V23.4a.5.5,0,0,1,.5-.5.462.462,0,0,1,.5.5V40.6h14.409a.5.5,0,1,1,0,1Z" transform="translate(101.397 985.081)"/>
    <path id="Path_10489" data-name="Path 10489" class="cls-1" d="M203.3,163.679a.5.5,0,0,1-.5-.5V153.6a.5.5,0,0,1,1,0v9.574A.516.516,0,0,1,203.3,163.679Z" transform="translate(66.613 895.753)"/>
    <path id="Path_10490" data-name="Path 10490" class="cls-1" d="M203.3,202.368a.5.5,0,0,1-.5-.5V197.5a.5.5,0,1,1,1,0v4.363A.516.516,0,0,1,203.3,202.368Z" transform="translate(66.613 865.634)"/>
    <path id="Path_10491" data-name="Path 10491" class="cls-1" d="M50.1,1a.5.5,0,0,1-.5-.5.5.5,0,0,1,.5-.5H62.439a.5.5,0,0,1,.5.5.5.5,0,0,1-.5.5Z" transform="translate(171.722 1000.793)"/>
    <path id="Path_10492" data-name="Path 10492" class="cls-1" d="M103.3,1a.5.5,0,0,1-.5-.5.5.5,0,0,1,.5-.5h3.8a.5.5,0,0,1,.5.5.462.462,0,0,1-.5.5Z" transform="translate(135.221 1000.793)"/>
    <path id="Path_10493" data-name="Path 10493" class="cls-5" d="M228.778,135.211a.5.5,0,0,1-.345-.157.52.52,0,0,1-.157-.377.582.582,0,0,1,.126-.314l5.023-4.991H217.6a.5.5,0,1,1,0-1h15.35l-4.144-4.52a.5.5,0,0,1-.126-.377.382.382,0,0,1,.157-.314.5.5,0,0,1,.345-.157.424.424,0,0,1,.314.157l5.211,5.651a.493.493,0,0,1,0,.691l-5.556,5.525A.543.543,0,0,1,228.778,135.211Z" transform="translate(56.802 916.404)"/>
    <g id="Group_4322" data-name="Group 4322" transform="translate(294.998 1000.363)">
      <g id="Group_4244" data-name="Group 4244" transform="translate(3.391 50.978)">
        <g id="Group_4240" data-name="Group 4240" transform="translate(53.179)">
          <rect id="Rectangle_2374" data-name="Rectangle 2374" class="cls-4" width="3.331" height="25.519"/>
        </g>
        <g id="Group_4241" data-name="Group 4241" transform="translate(35.453)">
          <rect id="Rectangle_2375" data-name="Rectangle 2375" class="cls-4" width="3.331" height="25.519"/>
        </g>
        <g id="Group_4242" data-name="Group 4242" transform="translate(17.726)">
          <rect id="Rectangle_2376" data-name="Rectangle 2376" class="cls-4" width="3.331" height="25.519"/>
        </g>
        <g id="Group_4243" data-name="Group 4243">
          <rect id="Rectangle_2377" data-name="Rectangle 2377" class="cls-4" width="3.331" height="25.519"/>
        </g>
      </g>
      <path id="Path_10417" data-name="Path 10417" class="cls-6" d="M920.436,346.758h18.2a.687.687,0,0,0,.714-.714v-13.5a.687.687,0,0,0-.714-.714h-18.2v-.714a.687.687,0,0,0-.714-.714h-1.309a.687.687,0,0,0-.714.714v25.221h2.677v-9.577Z" transform="translate(-888.017 -330.4)"/>
      <rect id="Rectangle_2378" data-name="Rectangle 2378" class="cls-6" width="63.351" height="3.688" transform="translate(0 77.865)"/>
      <rect id="Rectangle_2379" data-name="Rectangle 2379" class="cls-6" width="63.351" height="3.688" transform="translate(0 86.312)"/>
      <path id="Path_10418" data-name="Path 10418" class="cls-6" d="M929.383,393.755a28.437,28.437,0,0,0-55.083,0Z" transform="translate(-870.434 -347.416)"/>
    </g>
  </g>
</svg>
