<svg xmlns="http://www.w3.org/2000/svg" viewBox="0 0 71.723 90">
  <defs>
    <style>
      .cls-1 {
        fill: #f3f3ff;
      }

      .cls-2 {
        fill: #e34b26;
      }
    </style>
  </defs>
  <g id="Group_4374" data-name="Group 4374" transform="translate(-6172 -1269)">
    <g id="Group_4337" data-name="Group 4337" transform="translate(6172.035 1269.101)">
      <path id="Path_10546" data-name="Path 10546" class="cls-1" d="M32.121,95.032c4.633-2.339,6.073-4.723,5.443-9.4a7.805,7.805,0,0,0,7.018-2.294,7.458,7.458,0,0,0,1.934-7.018,26.477,26.477,0,0,0,3.914-.54,7.458,7.458,0,0,0,3.014-12.461C50.925,60.8,48.271,58.37,45.662,55.9q-10.256-9.852-20.6-19.658c-.9-.855-1.844-1.709-2.7-2.564a5.408,5.408,0,0,1-.135-7.512,5.321,5.321,0,0,1,7.512-.225c3.284,3.014,6.523,6.118,9.762,9.177q7.085,6.68,14.17,13.45a14.5,14.5,0,0,0,4.408,2.924,5.4,5.4,0,0,0,6.163-.99,14.766,14.766,0,0,0,2.384-2.879c1.574-2.429,2.924-4.993,4.543-7.422a6.4,6.4,0,0,1,9.492-1.44,6.48,6.48,0,0,1,1.35,8.5c-2.474,4.139-4.993,8.277-7.467,12.416-1.215,2.024-2.429,4.094-3.689,6.073a1.283,1.283,0,0,0-.045,1.529c1.17,2.339,2.249,4.723,3.419,7.063a14.7,14.7,0,0,1-6.793,20.153q-7.827,3.846-15.79,7.557a14.7,14.7,0,0,1-18.848-5.8A6.423,6.423,0,0,1,32.121,95.032Z" transform="translate(-11.448 -13.531)"/>
      <path id="Path_10547" data-name="Path 10547" class="cls-1" d="M20.472,98.8a4.781,4.781,0,0,1,3.059,1.395c5.263,4.948,10.571,9.9,15.79,14.89a5.378,5.378,0,0,1-7.422,7.782c-4.633-4.319-9.177-8.682-13.81-13-.63-.585-1.3-1.17-1.934-1.8a5.483,5.483,0,0,1-1.26-6.028A5.845,5.845,0,0,1,20.472,98.8Z" transform="translate(-7.986 -54.411)"/>
      <path id="Path_10548" data-name="Path 10548" class="cls-1" d="M61.078,98.564a4.852,4.852,0,0,1-3.1,4.139,5.053,5.053,0,0,1-5.668-.72c-2.474-2.2-4.813-4.5-7.2-6.793-2.879-2.7-5.713-5.4-8.592-8.142A5.059,5.059,0,0,1,34.9,81.919a5.343,5.343,0,0,1,9-2.7c1.979,1.844,3.914,3.689,5.893,5.578,2.969,2.834,5.938,5.668,8.952,8.457A6.338,6.338,0,0,1,61.078,98.564Z" transform="translate(-19.126 -42.793)"/>
      <path id="Path_10549" data-name="Path 10549" class="cls-1" d="M5.559,124.8a5.507,5.507,0,0,1,3.824,1.754l10.661,10.122c.72.675,1.484,1.35,2.2,2.069a5.38,5.38,0,1,1-7.422,7.782C10.642,142.569,6.5,138.61,2.275,134.7c-1.619-1.529-2.654-3.239-2.2-5.533A5.364,5.364,0,0,1,5.559,124.8Z" transform="translate(0 -68.715)"/>
      <path id="Path_10550" data-name="Path 10550" class="cls-2" d="M118.378,30.889a2.42,2.42,0,0,1-2.159-1.26,1.975,1.975,0,0,1,.36-2.339,3.8,3.8,0,0,1,.81-.675c1.889-1.395,3.824-2.834,5.758-4.184a2.174,2.174,0,0,1,3.194.315,2.139,2.139,0,0,1-.63,3.149c-1.979,1.484-4,2.969-6.028,4.408C119.277,30.529,118.693,30.709,118.378,30.889Z" transform="translate(-63.831 -12.096)"/>
      <path id="Path_10551" data-name="Path 10551" class="cls-2" d="M70.457,16.755A2.341,2.341,0,0,1,69.152,19a2.132,2.132,0,0,1-2.429-.54c-1.709-2.249-3.374-4.5-4.948-6.838a2.056,2.056,0,0,1,.63-2.879,2.142,2.142,0,0,1,2.924.495c1.619,2.159,3.194,4.319,4.768,6.523C70.277,16.125,70.367,16.575,70.457,16.755Z" transform="translate(-33.814 -4.664)"/>
      <path id="Path_10552" data-name="Path 10552" class="cls-2" d="M105.994,16.423a2.1,2.1,0,0,1-1.934-3.059c.36-.9.765-1.754,1.17-2.654.675-1.484,1.3-3.014,1.979-4.5a2.1,2.1,0,0,1,2.654-1.26,2.076,2.076,0,0,1,1.35,2.789c-1.035,2.564-2.2,5.083-3.329,7.6A1.987,1.987,0,0,1,105.994,16.423Z" transform="translate(-57.16 -2.713)"/>
      <path id="Path_10553" data-name="Path 10553" class="cls-2" d="M90.869,9.571c.045,1.574-.72,2.474-1.934,2.609a2.181,2.181,0,0,1-2.384-2.069c-.315-2.519-.54-5.038-.765-7.557a3.249,3.249,0,0,1,.27-1.619,1.908,1.908,0,0,1,2.159-.99A2.007,2.007,0,0,1,89.97,1.7c.225,1.844.45,3.689.63,5.488C90.735,8.042,90.825,8.9,90.869,9.571Z" transform="translate(-47.209 0)"/>
    </g>
    <g id="Group_4336" data-name="Group 4336" transform="translate(6171.938 1268.926)">
      <g id="Group_4328" data-name="Group 4328" transform="translate(9.24 10.925)">
        <path id="Path_10537" data-name="Path 10537" d="M125.81,165.382a14.241,14.241,0,0,1-6.634,6.5c-1.469.712-2.983,1.469-4.453,2.182-.312.445-.089.891.445.8l4.408-2.137a15.389,15.389,0,0,0,7.08-6.991A.476.476,0,0,0,125.81,165.382Z" transform="translate(-72.767 -102.53)"/>
        <path id="Path_10538" data-name="Path 10538" d="M80.707,38.673A7.008,7.008,0,0,0,75.23,37.2a6.664,6.664,0,0,0-4.586,3.028c-.846,1.247-1.6,2.583-2.36,3.874-.668,1.158-1.38,2.315-2.093,3.473a15.317,15.317,0,0,1-2.271,2.761,4.906,4.906,0,0,1-5.61.891,14.261,14.261,0,0,1-4.23-2.805c-3.072-2.894-6.1-5.788-9.128-8.638l-4.987-4.72-2.716-2.583c-2.271-2.137-4.586-4.364-6.946-6.5a5.7,5.7,0,0,0-8.059.267,5.782,5.782,0,0,0,.134,8.059c.623.623,1.247,1.2,1.87,1.781.267.267.579.534.846.8l5.922,5.61c4.853,4.586,9.662,9.172,14.516,13.8.712.668,1.425,1.336,2.137,2.048,1.826,1.737,3.74,3.518,5.521,5.3a6.968,6.968,0,0,1-2.85,11.621,10.816,10.816,0,0,1-2.493.4c-.445.045-.846.089-1.291.134l-.49.045.089.445a6.916,6.916,0,0,1-1.826,6.545,7.4,7.4,0,0,1-6.59,2.137l-.579-.045.089.579c.579,4.408-.712,6.634-5.121,8.861l-.4.223.223.4a1.582,1.582,0,0,1,.178.4c.134.267.312.579.49.891a15.1,15.1,0,0,0,19.235,5.922c1.781-.8,3.562-1.647,5.343-2.493.668-.49.134-1.069-.445-.757-1.781.846-3.518,1.647-5.254,2.493A14.125,14.125,0,0,1,33.42,95.89c-.134-.267-.312-.534-.445-.8,4.275-2.226,5.744-4.675,5.3-8.994a8.147,8.147,0,0,0,6.768-2.449,7.8,7.8,0,0,0,2.137-6.857c.267-.045.534-.045.8-.089a14.4,14.4,0,0,0,2.716-.445,7.874,7.874,0,0,0,3.161-13.135c-1.826-1.826-3.7-3.607-5.566-5.343-.712-.668-1.425-1.336-2.137-2.048-4.853-4.675-9.707-9.262-14.516-13.848l-5.967-5.655c-.267-.267-.579-.534-.846-.8C24.2,34.844,23.58,34.265,23,33.686a4.867,4.867,0,0,1,6.724-7.035c2.315,2.137,4.675,4.364,6.9,6.5l2.716,2.583,4.9,4.631c3.028,2.894,6.1,5.788,9.128,8.683a14.14,14.14,0,0,0,4.5,2.983,5.875,5.875,0,0,0,6.59-1.069,15.111,15.111,0,0,0,2.4-2.894c.757-1.158,1.425-2.36,2.137-3.518.757-1.291,1.514-2.583,2.36-3.829a5.887,5.887,0,0,1,4.007-2.627,5.991,5.991,0,0,1,6.011,9.128c-1.781,2.939-3.562,5.967-5.343,8.861l-2.894,4.764c-.935,1.514-1.87,3.117-2.85,4.675a1.833,1.833,0,0,0-.089,1.959l2,4.141c.445.935.891,1.915,1.38,2.85A14.73,14.73,0,0,1,74.741,84.4c.089.445.8.579.891.178a15.494,15.494,0,0,0-1.247-10.464c-.445-.935-.891-1.87-1.336-2.85l-2-4.141a.934.934,0,0,1,.045-1.113c.98-1.558,1.915-3.161,2.85-4.675l2.894-4.764c1.737-2.894,3.562-5.922,5.343-8.861A6.942,6.942,0,0,0,80.707,38.673Z" transform="translate(-20.673 -24.444)"/>
      </g>
      <g id="Group_4329" data-name="Group 4329" transform="translate(6.615 44.078)">
        <path id="Path_10539" data-name="Path 10539" d="M36.027,125.037a5.837,5.837,0,0,1-3.918-1.558c-3.206-2.983-6.456-6.056-9.573-9.039-1.336-1.291-2.716-2.538-4.052-3.829-.223-.223-.49-.445-.712-.668-.4-.356-.8-.757-1.2-1.113a5.775,5.775,0,0,1-1.336-6.412A5.976,5.976,0,0,1,21.066,98.9h0a5.208,5.208,0,0,1,3.339,1.514l2.538,2.36c4.319,4.052,8.772,8.237,13.135,12.378a5.74,5.74,0,0,1,.223,8.059A6.169,6.169,0,0,1,36.027,125.037ZM21.021,99.746a5.112,5.112,0,0,0-5.032,2.939,4.933,4.933,0,0,0,1.113,5.477c.4.356.8.757,1.158,1.113.267.223.49.445.757.668,1.336,1.291,2.716,2.538,4.052,3.829,3.117,2.983,6.367,6.011,9.573,9.039a4.882,4.882,0,0,0,6.724-7.08C35,111.59,30.55,107.4,26.231,103.353l-2.538-2.36A4.352,4.352,0,0,0,21.021,99.746Z" transform="translate(-14.778 -98.9)"/>
      </g>
      <g id="Group_4330" data-name="Group 4330" transform="translate(15.545 34.693)">
        <path id="Path_10540" data-name="Path 10540" d="M55.88,104a5.1,5.1,0,0,1-3.518-1.38c-1.737-1.558-3.473-3.206-5.121-4.764-.668-.623-1.336-1.291-2-1.915l-1.469-1.425-7.035-6.634A5.581,5.581,0,0,1,35,82.355a5.733,5.733,0,0,1,3.874-4.275,5.968,5.968,0,0,1,5.788,1.38c1.336,1.247,2.672,2.538,3.963,3.74.623.579,1.2,1.158,1.826,1.737l2.538,2.4c2.048,1.959,4.186,4.007,6.323,5.967A6.875,6.875,0,0,1,61.8,98.875h0a5.215,5.215,0,0,1-3.339,4.5A6.268,6.268,0,0,1,55.88,104ZM40.518,78.66a5.277,5.277,0,0,0-1.425.223A4.925,4.925,0,0,0,35.8,82.489a4.645,4.645,0,0,0,1.514,4.675c2.315,2.226,4.675,4.408,6.991,6.634l1.469,1.425c.668.623,1.336,1.291,2,1.915,1.647,1.6,3.384,3.206,5.121,4.764a4.489,4.489,0,0,0,5.121.668,4.4,4.4,0,0,0,2.805-3.7,5.829,5.829,0,0,0-2.182-4.9c-2.137-1.959-4.275-4.007-6.323-5.967l-2.538-2.4c-.623-.579-1.247-1.158-1.826-1.737-1.291-1.247-2.627-2.493-3.963-3.74A4.9,4.9,0,0,0,40.518,78.66Z" transform="translate(-34.834 -77.824)"/>
      </g>
      <g id="Group_4331" data-name="Group 4331" transform="translate(0.063 55.565)">
        <path id="Path_10541" data-name="Path 10541" d="M19.048,148.744a6.136,6.136,0,0,1-4.185-1.737c-1.6-1.514-3.161-2.983-4.72-4.5-2.493-2.36-5.121-4.853-7.659-7.258a6.252,6.252,0,0,1-2.315-5.878A5.682,5.682,0,0,1,5.957,124.7h.089a5.868,5.868,0,0,1,4.052,1.87c3.25,3.117,6.5,6.189,9.8,9.306l.757.757a6.844,6.844,0,0,0,.846.757c.445.4.891.846,1.336,1.291a5.789,5.789,0,0,1,.267,8.326A5.676,5.676,0,0,1,19.048,148.744ZM5.957,125.635a4.832,4.832,0,0,0-4.942,3.918c-.356,1.826.267,3.384,2.048,5.076,2.583,2.4,5.165,4.853,7.659,7.258,1.558,1.514,3.161,2.983,4.72,4.5a4.885,4.885,0,1,0,6.724-7.08c-.445-.445-.891-.846-1.336-1.247-.267-.267-.579-.534-.846-.8l-.757-.757c-3.25-3.072-6.545-6.189-9.8-9.306A5.077,5.077,0,0,0,6,125.591c0,.045,0,.045-.045.045Z" transform="translate(-0.063 -124.7)"/>
      </g>
    </g>
  </g>
</svg>
