<svg xmlns="http://www.w3.org/2000/svg" viewBox="0 0 115.433 90">
  <defs>
    <style>
      .cls-1 {
        fill: #f3f3ff;
      }

      .cls-2 {
        fill: #26263a;
      }

      .cls-3 {
        fill: #e34b26;
      }
    </style>
  </defs>
  <g id="Group_4373" data-name="Group 4373" transform="translate(0 -0.048)">
    <path id="Path_10513" data-name="Path 10513" class="cls-1" d="M134.139,30.64l17.13-15.592a3.41,3.41,0,0,0,1.1-2.333A3.371,3.371,0,0,0,148.991,9.2a3.44,3.44,0,0,0-2.278.878l-17.13,15.592a3.411,3.411,0,0,0-1.1,2.333,3.262,3.262,0,0,0,.878,2.416h0A3.384,3.384,0,0,0,134.139,30.64Z" transform="translate(-93.21 -6.64)"/>
    <path id="Path_10514" data-name="Path 10514" class="cls-1" d="M249.117,160.429l17.13-15.592a3.411,3.411,0,0,0,1.1-2.333,3.262,3.262,0,0,0-.878-2.416,3.351,3.351,0,0,0-4.749-.22l-17.13,15.592a3.351,3.351,0,0,0-.22,4.749h0A3.35,3.35,0,0,0,249.117,160.429Z" transform="translate(-176.646 -100.798)"/>
    <path id="Path_10515" data-name="Path 10515" class="cls-2" d="M162.417,60.922c.055.082.11.137.165.22h0a3.739,3.739,0,0,0,2.635,1.235h.192a3.76,3.76,0,0,0,2.553-.988l12.216-11.118a3.739,3.739,0,0,0,1.235-2.635,3.855,3.855,0,0,0-.988-2.745l-.247-.247a5.026,5.026,0,0,0-.22-6.479,5.059,5.059,0,0,0-5.133-1.427l-25.777-28.3a4.68,4.68,0,0,0,.659-2.278,5.168,5.168,0,0,0-1.29-3.624,5.02,5.02,0,0,0-6.616-.714,6.337,6.337,0,0,0-.384-.522,3.791,3.791,0,0,0-5.38-.247L123.821,12.168a3.814,3.814,0,0,0-.247,5.38,3.017,3.017,0,0,0,.439.412,5.02,5.02,0,0,0-1.427,3.267,5.168,5.168,0,0,0,1.29,3.624,5.112,5.112,0,0,0,3.486,1.647h.247a5.029,5.029,0,0,0,2.361-.6L155.362,53.84a5.024,5.024,0,0,0-1.235,3.075,5.168,5.168,0,0,0,1.29,3.624h0a4.987,4.987,0,0,0,3.706,1.647A5.2,5.2,0,0,0,162.417,60.922Zm-5.545-6.259L174,39.071a3.35,3.35,0,0,1,4.749.22,3.351,3.351,0,0,1-.22,4.749L161.4,59.632a3.35,3.35,0,0,1-4.749-.22h0A3.35,3.35,0,0,1,156.872,54.663Zm22.208-5.6L166.865,60.181a2.2,2.2,0,0,1-3.075-.137h0a1.523,1.523,0,0,1-.165-.22l15.4-14a1.269,1.269,0,0,1,.192.192,2.193,2.193,0,0,1,.549,1.565A2.043,2.043,0,0,1,179.08,49.063Zm-6.2-11.2L156.57,52.714,131.288,24.933l4.8-4.365L148.005,9.725l25.31,27.781A2.77,2.77,0,0,0,172.876,37.863Zm-48.644-16.5a3.41,3.41,0,0,1,1.1-2.333L142.46,3.439a3.388,3.388,0,0,1,2.278-.878,3.335,3.335,0,0,1,2.5,1.1,3.351,3.351,0,0,1-.22,4.749L129.887,24a3.35,3.35,0,0,1-4.749-.22h0A3.218,3.218,0,0,1,124.233,21.365Zm.686-7.933L137.135,2.313a2.126,2.126,0,0,1,1.455-.576,2.149,2.149,0,0,1,1.592.714,2.579,2.579,0,0,1,.329.494l-15.29,13.918a2.047,2.047,0,0,1-.467-.384,2.193,2.193,0,0,1-.549-1.565A2.071,2.071,0,0,1,124.919,13.431Z" transform="translate(-88.93)"/>
    <path id="Path_10516" data-name="Path 10516" class="cls-2" d="M248.244,110.168l.769.878a.779.779,0,0,0,.6.275.744.744,0,0,0,.549-.22.821.821,0,0,0,.055-1.153l-.769-.878a.8.8,0,0,0-1.153-.055A.821.821,0,0,0,248.244,110.168Z" transform="translate(-179.946 -78.894)"/>
    <path id="Path_10517" data-name="Path 10517" class="cls-2" d="M208.6,64.369a.821.821,0,0,0-.055,1.153L218.1,76.256a.778.778,0,0,0,.6.275.744.744,0,0,0,.549-.22.821.821,0,0,0,.055-1.153l-9.553-10.733A.845.845,0,0,0,208.6,64.369Z" transform="translate(-151.144 -46.518)"/>
    <path id="Path_10518" data-name="Path 10518" class="cls-1" d="M47.071,172.271,33.4,184.542l4.667,5.188L77.9,153.988,73.232,148.8,56.185,164.09a.821.821,0,0,1-1.153-.055l-1.043.933h0a.821.821,0,0,1-.055,1.153l-2.663,2.388a.872.872,0,0,1-.549.22.778.778,0,0,1-.6-.275l-2.965,2.663h0A.8.8,0,0,1,47.071,172.271Z" transform="translate(-24.232 -107.918)"/>
    <path id="Path_10519" data-name="Path 10519" class="cls-2" d="M68.622,141.775a.883.883,0,0,0-.576-.275.826.826,0,0,0-.6.22L49.791,157.559a.821.821,0,0,0-.055,1.153h0a.821.821,0,0,0,1.153.055l17.047-15.29,4.667,5.188-39.832,35.8L28.1,179.273,41.775,167a.821.821,0,0,0,.055-1.153h0a.821.821,0,0,0-1.153-.055l-14.3,12.82a.882.882,0,0,0-.275.576.826.826,0,0,0,.22.6l5.765,6.424a.778.778,0,0,0,.6.275.872.872,0,0,0,.549-.22L74.3,149.406a.821.821,0,0,0,.055-1.153Z" transform="translate(-18.936 -102.621)"/>
    <path id="Path_10520" data-name="Path 10520" class="cls-2" d="M94.9,210.54l2.663-2.388A.821.821,0,0,0,97.615,207h0a.821.821,0,0,0-1.153-.055L93.8,209.332a.821.821,0,0,0-.055,1.153h0a.778.778,0,0,0,.6.275A.872.872,0,0,0,94.9,210.54Z" transform="translate(-67.858 -149.948)"/>
    <path id="Path_10521" data-name="Path 10521" class="cls-2" d="M6.862,281.775a.883.883,0,0,0-.576-.275.826.826,0,0,0-.6.22L1.7,285.288a5.132,5.132,0,1,0,6.863,7.632l3.98-3.569A.821.821,0,0,0,12.6,288.2Zm.631,9.937A3.5,3.5,0,1,1,2.827,286.5l3.377-3.02,4.667,5.188Z" transform="translate(0 -204.189)"/>
    <path id="Path_10522" data-name="Path 10522" class="cls-3" d="M296.569,297.2h-36.62a3.349,3.349,0,0,0,0,6.7h36.62a3.349,3.349,0,1,0,0-6.7Z" transform="translate(-186.16 -215.58)"/>
    <path id="Path_10523" data-name="Path 10523" class="cls-2" d="M292.289,273.788h-3.431a5.054,5.054,0,0,0,.082-.906,5.694,5.694,0,0,0-5.682-5.682H264.481a5.694,5.694,0,0,0-5.682,5.682,5.054,5.054,0,0,0,.082.906H255.7a5,5,0,0,0,0,9.992h36.62a5,5,0,1,0-.027-9.992Zm0,8.373h-36.62a3.349,3.349,0,1,1,0-6.7h36.62a3.349,3.349,0,1,1,0,6.7Zm-31.871-9.279a4.042,4.042,0,0,1,4.035-4.035H283.23a4.042,4.042,0,0,1,4.035,4.035,3.411,3.411,0,0,1-.11.906H260.5A4.627,4.627,0,0,1,260.418,272.882Z" transform="translate(-181.88 -193.815)"/>
  </g>
</svg>
