<svg xmlns="http://www.w3.org/2000/svg" viewBox="0 0 216.292 70">
  <defs>
    <style>
      .cls-1 {
        opacity: 0.39;
      }

      .cls-2, .cls-3 {
        fill-rule: evenodd;
      }

      .cls-3 {
        fill: #fff;
      }
    </style>
  </defs>
  <g id="Group_4356" data-name="Group 4356" class="cls-1" transform="translate(0 -38.4)">
    <g id="Group_4354" data-name="Group 4354" transform="translate(87.893 56.195)">
      <path id="Path_10595" data-name="Path 10595" class="cls-2" d="M104.737,59.843h-1.18c-2.163,0-3.343,1.278-3.343,3.736V75.671c0,3.146-1.081,4.228-3.441,4.228a6.157,6.157,0,0,1-4.719-2.36c-.1-.2-2.654,1.081-2.654,4.031,0,3.244,2.949,5.211,8.455,5.211,6.685,0,10.225-3.441,10.225-10.913V63.579c.1-2.556-1.081-3.736-3.343-3.736Zm10.323,6h-.787c-1.966,0-3.441.885-3.441,3.736V82.553c0,2.851,1.376,3.736,3.539,3.736h.787c1.966,0,3.343-.983,3.343-3.736V69.674c0-2.949-1.376-3.834-3.441-3.834Zm-.393-9.34h0c-2.458,0-4.031,1.376-4.031,3.638s1.573,3.638,4.129,3.638c2.458,0,4.031-1.376,4.031-3.638s-1.573-3.638-4.129-3.638Zm16.714,9.143h0c-6.489,0-10.815,4.228-10.815,10.421,0,6.39,4.228,10.52,10.716,10.52S142.1,82.455,142.1,76.065c-.1-6.194-4.326-10.421-10.716-10.421Zm-.1,15.042h0c-2.556,0-4.228-1.868-4.228-4.621a4.215,4.215,0,0,1,4.228-4.522c2.556,0,4.326,1.868,4.326,4.621A4.291,4.291,0,0,1,131.282,80.685Z" transform="translate(-89.4 -56.5)"/>
      <g id="Group_4353" data-name="Group 4353" transform="translate(57.711 2.753)">
        <path id="Path_10596" data-name="Path 10596" class="cls-2" d="M171.4,86.631h-2.851l-.688-3.146a9.381,9.381,0,0,1-7.669,3.736,11.267,11.267,0,0,1-8.947-4.129,14.937,14.937,0,0,1-3.146-9.831,14.937,14.937,0,0,1,3.146-9.831,11.267,11.267,0,0,1,8.947-4.129,12.082,12.082,0,0,1,7.275,2.261,9.217,9.217,0,0,1,3.539,6.784h-4.326a6.028,6.028,0,0,0-2.163-4.031,7.242,7.242,0,0,0-4.326-1.278c-2.654.1-4.621,1.081-5.8,3.146a12.572,12.572,0,0,0-1.868,6.98,12.8,12.8,0,0,0,1.868,6.98,6.23,6.23,0,0,0,5.8,3.146c4.621-.2,6.98-2.556,7.079-7.275h-6.784V72.474H171.3V86.631Z" transform="translate(-148.1 -59.3)"/>
        <path id="Path_10597" data-name="Path 10597" class="cls-2" d="M180.321,77.785a5.023,5.023,0,0,0,1.868,4.326,7.49,7.49,0,0,0,4.522,1.376,6.193,6.193,0,0,0,4.228-1.278,3.72,3.72,0,0,0,1.18-2.753,3.652,3.652,0,0,0-.59-2.261,3.02,3.02,0,0,0-1.475-.983,74.64,74.64,0,0,0-7.57-2.163A8.064,8.064,0,0,1,178.06,71.2a6.861,6.861,0,0,1-1.18-3.933,6.713,6.713,0,0,1,2.949-6A11.788,11.788,0,0,1,193,61.563a7.821,7.821,0,0,1,2.851,6.292h-4.522a4.588,4.588,0,0,0-1.671-3.638,6.555,6.555,0,0,0-3.834-1.081c-.492,0-.983.1-1.573.1a4.635,4.635,0,0,0-1.475.59,2.5,2.5,0,0,0-1.18,1.081,3.314,3.314,0,0,0-.492,1.671,2.745,2.745,0,0,0,.885,2.163,5.125,5.125,0,0,0,2.163,1.18q2.949.737,7.374,2.065a6.841,6.841,0,0,1,3.736,2.753,7.658,7.658,0,0,1,1.18,4.031c-.1,2.949-1.081,5.112-3.146,6.39a12.865,12.865,0,0,1-6.98,1.966,11.429,11.429,0,0,1-7.374-2.36c-2.065-1.475-3.048-3.933-3.244-7.177h4.621Z" transform="translate(-148.565 -59.302)"/>
        <path id="Path_10598" data-name="Path 10598" class="cls-2" d="M199.2,60.1h20.449v3.933h-8.062V86.645h-4.424V64.033H199.2Z" transform="translate(-148.961 -59.313)"/>
      </g>
    </g>
    <g id="Group_4355" data-name="Group 4355" transform="translate(0 38.4)">
      <path id="Path_10599" data-name="Path 10599" class="cls-2" d="M34.41,38.4C15.435,38.4,0,54.13,0,73.4c0,19.368,15.435,35,34.41,35s34.41-15.73,34.41-35C68.82,54.032,53.385,38.4,34.41,38.4Z" transform="translate(0 -38.4)"/>
      <path id="Path_10600" data-name="Path 10600" class="cls-3" d="M53.425,66.315H15.574a1.586,1.586,0,0,1-.885-2.851L33.566,49.995a1.475,1.475,0,0,1,1.77,0L54.212,63.464A1.551,1.551,0,0,1,53.425,66.315Z" transform="translate(-0.237 -38.59)"/>
      <path id="Path_10601" data-name="Path 10601" class="cls-3" d="M53.421,92.86H14.98a1.18,1.18,0,1,1,0-2.36H53.421a1.18,1.18,0,1,1,0,2.36Z" transform="translate(-0.233 -39.278)"/>
      <path id="Path_10602" data-name="Path 10602" class="cls-3" d="M25.208,84.366a4.583,4.583,0,0,1-1.868,1.573,5.358,5.358,0,0,1-2.163.492,7.329,7.329,0,0,1-3.048-.59,6.465,6.465,0,0,1-2.261-1.671,7.55,7.55,0,0,1-1.376-2.458A10.41,10.41,0,0,1,14,78.663a11.08,11.08,0,0,1,.492-3.146,8.026,8.026,0,0,1,1.376-2.556,6.465,6.465,0,0,1,2.261-1.671,7.329,7.329,0,0,1,3.048-.59,5.291,5.291,0,0,1,2.163.393,5.638,5.638,0,0,1,1.868.983,6.019,6.019,0,0,1,1.475,1.671,7.623,7.623,0,0,1,.688,2.261H24.225a3.163,3.163,0,0,0-1.081-1.868,3.322,3.322,0,0,0-1.966-.59,3.743,3.743,0,0,0-1.868.393,3.389,3.389,0,0,0-1.18,1.18,5.008,5.008,0,0,0-.688,1.671,6.063,6.063,0,0,0,0,3.736,3.836,3.836,0,0,0,.688,1.573,3.389,3.389,0,0,0,1.18,1.18,4.067,4.067,0,0,0,1.868.492,3.2,3.2,0,0,0,3.441-3.244H21.374V78.074h6.194v8.062H25.5Z" transform="translate(-0.236 -38.944)"/>
      <path id="Path_10603" data-name="Path 10603" class="cls-3" d="M33.146,81.123a2.722,2.722,0,0,0,.295,1.278,5.4,5.4,0,0,0,.688.885,3.075,3.075,0,0,0,.983.492,4.981,4.981,0,0,0,1.278.2,2.722,2.722,0,0,0,.885-.1,1.372,1.372,0,0,0,.885-.295,1.322,1.322,0,0,0,.688-.59,1.661,1.661,0,0,0,.295-.983,1.262,1.262,0,0,0-.393-.983,2.384,2.384,0,0,0-.983-.59c-.393-.2-.885-.295-1.376-.492-.492-.1-.983-.295-1.573-.393a10.743,10.743,0,0,1-1.671-.492,6.268,6.268,0,0,1-1.376-.787,2.89,2.89,0,0,1-.983-1.18,3.367,3.367,0,0,1-.393-1.77,3.872,3.872,0,0,1,.492-1.966,3.472,3.472,0,0,1,1.278-1.376,4.991,4.991,0,0,1,1.77-.885A7.344,7.344,0,0,1,35.9,70.8a7.667,7.667,0,0,1,2.163.295,5.481,5.481,0,0,1,1.868.885,3.675,3.675,0,0,1,1.278,1.475,5.005,5.005,0,0,1,.492,2.163H38.553a1.766,1.766,0,0,0-.295-1.081,4.276,4.276,0,0,0-.59-.688,3.492,3.492,0,0,0-.885-.393,4.033,4.033,0,0,0-1.081-.1,2.165,2.165,0,0,0-.787.1,4.792,4.792,0,0,0-.688.295,1.185,1.185,0,0,0-.492.492,1.852,1.852,0,0,0-.2.787,1.421,1.421,0,0,0,.2.688,1.007,1.007,0,0,0,.59.492A7.051,7.051,0,0,0,35.7,76.7a18.082,18.082,0,0,0,2.261.59,2.5,2.5,0,0,1,.688.2c.295.1.59.2.983.295a3.986,3.986,0,0,1,.885.492,6.36,6.36,0,0,1,.885.787,4.06,4.06,0,0,1,.688,1.081,3.358,3.358,0,0,1,.2,1.475,3.99,3.99,0,0,1-.393,1.868,4.353,4.353,0,0,1-1.18,1.475,5.638,5.638,0,0,1-1.868.983,7.534,7.534,0,0,1-2.654.393,9.126,9.126,0,0,1-2.36-.295,4.645,4.645,0,0,1-1.966-.983,3.841,3.841,0,0,1-1.376-1.671A4.63,4.63,0,0,1,30,81.025h3.146Z" transform="translate(-0.506 -38.946)"/>
      <path id="Path_10604" data-name="Path 10604" class="cls-3" d="M48.224,73.853H43.8V71.1H55.893v2.753H51.469V86.142H48.224Z" transform="translate(-0.738 -38.951)"/>
      <path id="Path_10605" data-name="Path 10605" class="cls-2" d="M37.892,59.144A3.148,3.148,0,1,1,34.746,55.9,3.19,3.19,0,0,1,37.892,59.144Z" transform="translate(-0.533 -38.695)"/>
    </g>
  </g>
</svg>
