<svg xmlns="http://www.w3.org/2000/svg" viewBox="0 0 70.961 90">
  <defs>
    <style>
      .cls-1 {
        fill: #f3f3ff;
      }

      .cls-1, .cls-2 {
        fill-rule: evenodd;
      }

      .cls-2 {
        fill: #e34b26;
      }

      .cls-3 {
        fill: #26263a;
      }
    </style>
  </defs>
  <g id="Group_4375" data-name="Group 4375" transform="translate(-5970 -1308)">
    <g id="Group_4340" data-name="Group 4340" transform="translate(5970 1307.975)">
      <g id="Group_4338" data-name="Group 4338" transform="translate(0 0.025)">
        <path id="Path_10554" data-name="Path 10554" class="cls-1" d="M35.057,90.025c-2.847-2.491-5.695-4.8-8.542-7.3A131.06,131.06,0,0,1,7.474,62.086a41.087,41.087,0,0,1-6.762-13.7A27.473,27.473,0,0,1,0,43.045V17.42c0-.712.178-.89.89-1.246C12.1,10.836,23.312,5.5,34.345.158a1.965,1.965,0,0,1,1.424,0L69.4,16.174a.976.976,0,0,1,.712,1.068V43.223a25.614,25.614,0,0,1-3.381,11.923A72.206,72.206,0,0,1,55.7,70.628,142.411,142.411,0,0,1,35.057,90.025ZM7.474,33.08v9.787a13.269,13.269,0,0,0,.712,4.627,32.971,32.971,0,0,0,5.517,10.5c5.872,8.364,13.169,15.3,21,22.066.534.356.712.178,1.068-.178,4.093-3.915,8.186-7.652,12.1-11.567A80.207,80.207,0,0,0,59.614,53.189c1.78-3.2,3.2-6.406,3.2-10.143v-21a.976.976,0,0,0-.712-1.068c-8.72-4.093-17.439-8.364-26.159-12.457-.534-.178-.89-.356-1.246,0-8.72,4.271-17.617,8.364-26.337,12.457a.976.976,0,0,0-.712,1.068C7.474,25.606,7.474,29.343,7.474,33.08Z" transform="translate(0 -0.025)"/>
      </g>
      <g id="Group_4339" data-name="Group 4339" transform="translate(19.397 29.165)">
        <path id="Path_10555" data-name="Path 10555" class="cls-2" d="M22.823,41.136,10.9,29.213l5.161-5.161,6.584,6.584L36.881,16.4c1.78,1.78,3.559,3.559,5.161,5.339C35.813,28.145,29.229,34.729,22.823,41.136Z" transform="translate(-10.9 -16.4)"/>
      </g>
    </g>
    <g id="Group_4342" data-name="Group 4342" transform="translate(5970 1308.025)">
      <g id="Group_4341" data-name="Group 4341" transform="translate(0 -0.025)">
        <path id="Path_10558" data-name="Path 10558" class="cls-3" d="M62.7,20.815C54,16.774,45.2,12.635,36.5,8.5a2,2,0,0,0-1.7-.1C26,12.537,17.2,16.676,8.4,20.716a1.475,1.475,0,0,0-1,1.478v20.5a21.493,21.493,0,0,0,.7,4.632,34.239,34.239,0,0,0,5.6,10.545c5.2,7.194,11.7,13.9,21,21.779a1.018,1.018,0,0,0,.8.3,1.606,1.606,0,0,0,1-.493C37.7,78.269,39,77.185,40.2,76c2.8-2.562,5.7-5.223,8.4-7.884a73.007,73.007,0,0,0,9.8-11.826c-.1-.591-.6-.69-1-.3a73.716,73.716,0,0,1-9.5,11.432c-2.7,2.661-5.6,5.322-8.3,7.884-1.2,1.183-2.5,2.267-3.8,3.449-.1.1-.2.2-.3.2a.312.312,0,0,1-.2-.1c-9.2-7.785-15.6-14.487-20.8-21.582A32.411,32.411,0,0,1,9.1,47.029a20.592,20.592,0,0,1-.7-4.435c-.1-2.267-.1-4.632,0-6.8v-13.6c0-.394.1-.493.4-.591,8.8-4.041,17.5-8.18,26.3-12.319.1-.1.2-.1.4-.1a.652.652,0,0,1,.5.2c8.7,4.139,17.5,8.18,26.2,12.319.4.2.4.3.4.69v20.6a14.089,14.089,0,0,1-.8,4.632c-.2.69.4.887.9.591a17.333,17.333,0,0,0,.9-5.223v-20.6A1.346,1.346,0,0,0,62.7,20.815Z" transform="translate(0 -0.095)"/>
        <path id="Path_10559" data-name="Path 10559" class="cls-3" d="M12.5,67.141A63.318,63.318,0,0,1,8.4,61.82a38,38,0,0,1-6.7-13.3A30.054,30.054,0,0,1,1,43.391v-6.9c-.2-.788-1-.69-1,.394v6.5a20.683,20.683,0,0,0,.7,5.42C2,54.33,5,59.06,7.5,62.509c1.2,1.774,2.6,3.449,4,5.223C12.4,68.324,12.6,67.338,12.5,67.141Z" transform="translate(0 -0.497)"/>
        <path id="Path_10560" data-name="Path 10560" class="cls-3" d="M47,79.888c-3.6,3.351-7.4,6.6-11.5,9.756-.8-.69-1.5-1.281-2.3-1.872-1.9-1.577-4-3.252-5.9-4.927-4.1-3.646-7.7-7.1-10.9-10.446-.6-.394-1.2.2-.5.985A133.05,133.05,0,0,0,26.6,83.633c1.9,1.675,3.9,3.351,5.9,4.927.9.69,1.7,1.478,2.6,2.168l.3.3.3-.3c4.1-3.154,8-6.5,11.7-9.855C48,80.184,47.9,79.494,47,79.888Z" transform="translate(0 -1.024)"/>
        <path id="Path_10561" data-name="Path 10561" class="cls-3" d="M70.1,15.965C58.9,10.741,47.7,5.518,36.5.2a2.143,2.143,0,0,0-1.9,0C23.4,5.42,12.3,10.741,1.1,15.965A1.677,1.677,0,0,0,0,17.64V29.959c.2.985.7.788,1,.394V17.738a.738.738,0,0,1,.5-.788C12.7,11.628,23.9,6.405,35,1.084a1.1,1.1,0,0,1,.5-.1.913.913,0,0,1,.5.1L69.6,16.753c.4.2.5.3.4.69V42.967A23.947,23.947,0,0,1,66.7,54.5c-2.5,4.927-5.9,9.559-11,15.177-1.3,1.478-2.7,2.858-4,4.238-.3.788.6.788.9.493,1.3-1.38,2.6-2.661,3.8-4.041C61.5,64.648,65,59.918,67.5,54.99c2.3-4.435,3.4-8.278,3.4-12.023V17.443A1.145,1.145,0,0,0,70.1,15.965Z" transform="translate(0 0.025)"/>
      </g>
    </g>
  </g>
</svg>
