<svg xmlns="http://www.w3.org/2000/svg" viewBox="0 0 283 307.385"><defs><style>.a,.f{fill:#e34b26;}.a{stroke:#27273b;}.a,.c,.e{stroke-miterlimit:10;}.b,.c{fill:#fff;}.b{stroke:#fff;}.c{stroke:#8e8e8e;}.d{fill:#565b73;}.e{fill:none;stroke:#e34b26;stroke-linecap:round;stroke-width:2px;}.g{fill:#1c1c2b;}</style></defs><g transform="translate(-922 -194.615)"><g transform="translate(12.339 18)"><ellipse class="a" cx="41.792" cy="41.614" rx="41.792" ry="41.614" transform="translate(1005.927 177.115)"/><g transform="translate(1033.479 198.025)"><path class="b" d="M101.327,17.554h11.306a3.114,3.114,0,0,1,.876.175l.789.263a.455.455,0,0,1,.351.175c.088,0,.088.088.175.088s.351.175.088,0c.526.263,1.052.526,1.49.789.263.175.438.263.7.438-.263-.175.088.088.175.088.088.088.263.175.351.351a7.57,7.57,0,0,1,1.139,1.227h0c0,.088.088.088.088.175.088.088.175.263.263.351a3.554,3.554,0,0,1,.438.789,5.169,5.169,0,0,1,.351.7c0,.088.088.263,0,0,0,.088.088.088.088.175.088.175.088.263.175.438a11.678,11.678,0,0,1,.438,1.665v.175c-.088-.351,0-.088,0,0v1.4a2.981,2.981,0,0,1-.088.876v.175h0c0,.175-.088.351-.088.526a6.109,6.109,0,0,1-.526,1.665c0,.088-.088.088-.088.175h0c-.088.088-.088.263-.175.351a3.551,3.551,0,0,1-.438.789c-.175.263-.263.438-.438.7-.088.088-.351.438-.088.175-.088.088-.175.263-.263.351a16.19,16.19,0,0,1-1.227,1.227,1.209,1.209,0,0,1-.351.263c.263-.175-.088.088-.175.088a8.088,8.088,0,0,1-.7.438,2.624,2.624,0,0,1-.7.351c-.088.088-.263.088-.351.175h0c-.088,0-.175.088-.263.088a11.674,11.674,0,0,1-1.665.438c-.175,0-.263.088-.438.088h-.175c-.351,0-.614.088-.964.088H101.152A1.066,1.066,0,0,0,100.1,37.1v.964a1.125,1.125,0,0,0,.351.876l.351.351c.526.613,1.139,1.315,1.665,1.928,1.928,2.279,3.944,4.557,5.872,6.836,2.1,2.454,4.294,5,6.4,7.45,1.227,1.4,2.366,2.717,3.593,4.119l.088.088a1.11,1.11,0,0,0,1.578,0,1.2,1.2,0,0,0,0-1.578c-.964-1.052-1.84-2.191-2.8-3.243-2.1-2.366-4.119-4.82-6.223-7.187s-4.119-4.733-6.223-7.187c-.964-1.052-1.84-2.1-2.8-3.243a3.113,3.113,0,0,0,.351.789V37.01l-1.052,1.052h10.692a12.6,12.6,0,0,0,6.924-2.717,11.417,11.417,0,0,0,3.681-6.135,11.747,11.747,0,0,0-.789-7.537A11.218,11.218,0,0,0,116.84,16.5a11.672,11.672,0,0,0-5.7-1.4h-9.9a1.066,1.066,0,0,0-1.052,1.052c.088.876.613,1.4,1.139,1.4Z" transform="translate(-100.1 -15.1)"/><g transform="translate(0.175 11.043)"><path class="b" d="M129.66,27.7H101.352a1.052,1.052,0,0,0,0,2.1H129.66a1.052,1.052,0,1,0,0-2.1Z" transform="translate(-100.3 -27.7)"/></g><g transform="translate(0.175 0.351)"><path class="b" d="M101.352,17.6H129.66a1.052,1.052,0,1,0,0-2.1H101.352a1.066,1.066,0,0,0-1.052,1.052,1.131,1.131,0,0,0,1.052,1.052Z" transform="translate(-100.3 -15.5)"/></g></g><ellipse class="c" cx="41.792" cy="41.614" rx="41.792" ry="41.614" transform="translate(1094.077 265.501)"/><g transform="translate(1125.967 286.11)"><g transform="translate(0 4.569)"><path class="d" d="M203.042,106.573a11.09,11.09,0,0,0-.18-1.8,8.535,8.535,0,0,0-1.711-3.512,8.022,8.022,0,0,0-4.683-2.7,14.124,14.124,0,0,0-3.872-.36,11.781,11.781,0,0,0-3.963.63,8.5,8.5,0,0,0-4.773,3.692A9.608,9.608,0,0,0,182.6,107.2a7.856,7.856,0,0,0,1.171,4.5,10.982,10.982,0,0,0,4.683,4.143A15.329,15.329,0,0,0,192.5,117.2a18.95,18.95,0,0,1,2.161.54c.27.09.63.18.9.27.18.09.27.09.45.18a.315.315,0,0,1,.18.09c.09.09.09,0-.09,0,.09,0,.09,0,.18.09.54.27,1.081.54,1.531.81a2.738,2.738,0,0,1,.63.45c.09.09.18.18.27.18-.27-.27.09.09.18.09a5.16,5.16,0,0,1,.991.991c.09.09.18.18.18.27.09.09.18.27-.09-.09l.09.09c.09.18.27.36.36.54l.27.54c0,.09.09.18.09.27a.088.088,0,0,0,.09.09c.09.27-.09-.27,0-.09a5.074,5.074,0,0,1,.36,1.081,3.9,3.9,0,0,0,.09.45c.09.27,0-.27,0,0v2.071c.09-.45,0-.18,0-.09a4.753,4.753,0,0,1-.27,1.081c-.09.18-.09.36-.18.54,0,.09-.09.18-.09.27a.088.088,0,0,1-.09.09c-.09.27.09-.18,0-.09L200.16,129a.9.9,0,0,1-.36.45h0l-.27.27-.45.45c-.09.09-.18.18-.27.18-.18.09.18-.18.09,0-.09,0-.09.09-.18.09a5.745,5.745,0,0,1-1.261.72c-.09,0-.27.09,0,0-.09,0-.09.09-.18.09a.541.541,0,0,1-.36.09l-.811.27c-.27.09-.54.09-.81.18h-.18c.36-.09.09,0,0,0a1.142,1.142,0,0,0-.54.09,7.976,7.976,0,0,1-2.071,0,3.064,3.064,0,0,1-.9-.09h-.18a3.9,3.9,0,0,1-.45-.09c-.54-.09-.991-.27-1.531-.36-.09,0-.18-.09-.36-.09-.09,0-.09,0-.18-.09-.18-.09.27.09.09,0s-.45-.18-.63-.27l-.54-.27c-.09-.09-.18-.09-.27-.18l-.09-.09c-.18-.09.27.18,0,0-.27-.27-.54-.45-.81-.72l-.18-.18-.09-.09c-.09-.18.18.27.09.09a1.97,1.97,0,0,1-.27-.45c-.18-.27-.27-.54-.45-.811,0-.09-.18-.36,0,.09,0-.09-.09-.09-.09-.18-.09-.09-.09-.27-.18-.36-.09-.27-.09-.45-.18-.72a.331.331,0,0,0-.09-.27v-.18c0-.18.09.36,0,.18v-.09a3.017,3.017,0,0,1,0-.9,1.081,1.081,0,0,0-2.161,0,12.205,12.205,0,0,0,.18,1.8,7.554,7.554,0,0,0,1.711,3.512,8.754,8.754,0,0,0,4.593,2.792,14.224,14.224,0,0,0,3.872.45,14.512,14.512,0,0,0,3.962-.54,8.495,8.495,0,0,0,4.773-3.692,9.71,9.71,0,0,0,1.351-4.683,7.789,7.789,0,0,0-1.081-4.5,11.291,11.291,0,0,0-4.593-4.143,15.858,15.858,0,0,0-3.962-1.351,18.953,18.953,0,0,1-2.161-.54c-.36-.09-.63-.18-.9-.27-.18-.09-.27-.09-.45-.18a.314.314,0,0,1-.18-.09c-.09,0-.36-.18-.09,0a8.241,8.241,0,0,1-1.531-.81,2.737,2.737,0,0,1-.63-.45c-.09-.09-.18-.18-.27-.18s-.27-.18,0,0l-.18-.18a5.16,5.16,0,0,1-.991-.991c-.09-.09-.18-.18-.18-.27l-.09-.09c-.09-.18.18.27.09.09s-.27-.36-.36-.54l-.54-1.081c.18.36,0,.09,0,0s-.09-.18-.09-.27c-.09-.18-.09-.36-.18-.54a3.9,3.9,0,0,0-.09-.45c0-.09-.09-.45,0,0v-2.071c0-.18-.09.36,0,.09.09-.36.09-.72.18-1.081.09-.18.09-.36.18-.54,0-.09.09-.18.09-.27s.18-.45,0-.09l.54-1.081a.9.9,0,0,1,.36-.45c.09-.18-.18.27-.09.09l.09-.09.27-.27.45-.45c.09-.09.18-.18.27-.18.09-.09.27-.18-.09,0,.09,0,.09-.09.18-.09a5.742,5.742,0,0,1,1.261-.72c.09,0,.09-.09.18-.09.18-.09-.27.09,0,0a.541.541,0,0,1,.36-.09l.811-.27c.27-.09.54-.09.811-.18.09,0,.54-.09.27,0a1.142,1.142,0,0,0,.54-.09,15.938,15.938,0,0,1,2.071-.09,3.063,3.063,0,0,1,.9.09c.09,0,.54.09.18,0a3.9,3.9,0,0,1,.45.09,9.419,9.419,0,0,1,1.531.36c.09,0,.18.09.36.09.09,0,.45.18.09,0,.18.09.45.18.63.27l.54.27c.09.09.18.09.27.18l.09.09h0c.27.27.54.45.811.72l.18.18c.09.09.27.36,0,0,.09.18.18.27.27.45.18.27.27.54.45.811,0,.09.09.09.09.18-.18-.45-.09-.18,0-.09s.09.27.18.36a2.119,2.119,0,0,1,.18.72.331.331,0,0,0,.09.27v.09c0,.27.09.63.09.9a1.1,1.1,0,0,0,1.081,1.081c.36.09.811-.45.811-1.081Z" transform="translate(-182.587 -98.174)"/></g><g transform="translate(9.467)"><path class="d" d="M195.261,98.774V94.181a1.1,1.1,0,0,0-1.081-1.081,1.162,1.162,0,0,0-1.081,1.081v4.593a1.081,1.081,0,1,0,2.161,0Z" transform="translate(-193.1 -93.1)"/></g><g transform="translate(9.467 38.274)"><path class="d" d="M195.261,141.183v-4.5a1.1,1.1,0,0,0-1.081-1.081,1.162,1.162,0,0,0-1.081,1.081v4.5a1.081,1.081,0,1,0,2.161,0Z" transform="translate(-193.1 -135.6)"/></g></g><ellipse class="c" cx="41.774" cy="41.614" rx="41.774" ry="41.614" transform="translate(1006.379 353.888)"/><ellipse class="c" cx="41.792" cy="41.614" rx="41.792" ry="41.614" transform="translate(917.661 265.501)"/><g transform="translate(1107.905 223.085)"><path class="e" d="M170,44.8s20.254,1.146,27.274,18.342" transform="translate(-170 -44.8)"/><g transform="translate(21.059 13.986)"><path class="f" d="M196.24,68.005a37.034,37.034,0,0,0-7.94-7.91l5.754.344L198.772,57A35.692,35.692,0,0,0,196.24,68.005Z" transform="translate(-188.3 -57)"/></g></g><g transform="translate(1102.841 360.995)"><path class="e" d="M189.813,165.1s-1.151,20.176-18.413,27.169" transform="translate(-164.726 -165.1)"/><g transform="translate(0 20.979)"><path class="f" d="M165.6,191.31a37.036,37.036,0,0,0,7.94-7.91l-.345,5.732,3.452,4.7A39.736,39.736,0,0,0,165.6,191.31Z" transform="translate(-165.6 -183.4)"/></g></g><g transform="translate(965.323 360.995)"><path class="e" d="M77.074,189.242S56.82,188.1,49.8,170.9" transform="translate(-45.542 -164.251)"/><path class="f" d="M48.632,165.1a37.036,37.036,0,0,0,7.94,7.91l-5.754-.344L46.1,176.105A35.69,35.69,0,0,0,48.632,165.1Z" transform="translate(-46.1 -165.1)"/></g><g transform="translate(963.827 218.615)"><path class="e" d="M44.8,71.769S45.951,51.593,63.213,44.6" transform="translate(-44.8 -40.358)"/><g transform="translate(14.04)"><path class="f" d="M68.048,43.422a37.035,37.035,0,0,0-7.94,7.91l.345-5.732L57,40.9A39.735,39.735,0,0,0,68.048,43.422Z" transform="translate(-57 -40.9)"/></g></g><g transform="translate(940.875 284.21)"><path class="d" d="M54.356,93.234c-.887,1.153-1.773,2.394-2.66,3.546l-5.852,7.714c-1.862,2.483-3.812,5.054-5.674,7.536-.8,1.064-1.507,2.039-2.305,3.1h1.862c-.887-1.153-1.773-2.305-2.66-3.546l-5.852-7.714c-1.862-2.483-3.812-5.054-5.674-7.536-.8-1.064-1.6-2.039-2.305-3.1a1.131,1.131,0,0,0-1.507-.355c-.443.266-.8,1.064-.355,1.507.887,1.153,1.773,2.305,2.66,3.546l5.852,7.714c1.862,2.483,3.812,5.054,5.674,7.536.8,1.064,1.6,2.039,2.305,3.1a1.112,1.112,0,0,0,.975.532,1.351,1.351,0,0,0,.975-.532c.887-1.153,1.773-2.394,2.66-3.546l5.852-7.714c1.862-2.483,3.812-5.054,5.674-7.536.8-1.064,1.507-2.039,2.305-3.1a1.131,1.131,0,0,0-.355-1.507,1.22,1.22,0,0,0-1.6.355Z" transform="translate(-21.17 -92.715)"/><g transform="translate(16.606 21.886)"><path class="d" d="M42.028,139.388V118.464a1.078,1.078,0,0,0-1.064-1.064,1.144,1.144,0,0,0-1.064,1.064v20.924a1.064,1.064,0,1,0,2.128,0Z" transform="translate(-39.9 -117.4)"/></g><g transform="translate(6.321 21.443)"><path class="d" d="M29.364,119.028h20.3a1.064,1.064,0,1,0,0-2.128h-20.3a1.078,1.078,0,0,0-1.064,1.064,1.144,1.144,0,0,0,1.064,1.064Z" transform="translate(-28.3 -116.9)"/></g><g transform="translate(6.321 28.536)"><path class="d" d="M29.364,127.028h20.3a1.064,1.064,0,1,0,0-2.128h-20.3a1.078,1.078,0,0,0-1.064,1.064,1.144,1.144,0,0,0,1.064,1.064Z" transform="translate(-28.3 -124.9)"/></g></g><g transform="translate(1030.135 371.802)"><path class="d" d="M100.009,214.238a1.309,1.309,0,0,1,0-2.618h5.061V193.558h-5.061a1.309,1.309,0,0,1,0-2.618h5.061V178.9a10.089,10.089,0,0,1,3.054-6.806,10.329,10.329,0,0,1,6.893-2.792h7.068a9.714,9.714,0,0,1,6.806,3.054,9.978,9.978,0,0,1,2.792,6.981,1.55,1.55,0,0,1-.349.873,1.12,1.12,0,0,1-.873.349,1.342,1.342,0,0,1-1.309-1.309,3.913,3.913,0,0,0-.087-.96h0a7.868,7.868,0,0,0-.524-1.92h0a10.279,10.279,0,0,0-.96-1.658h0a9.262,9.262,0,0,0-1.309-1.309h0a10.285,10.285,0,0,0-1.658-.96h0a6.932,6.932,0,0,0-1.92-.524h0c-.349,0-.7-.087-1.047-.087h-5.934a9.005,9.005,0,0,0-1.658.087h0a6.933,6.933,0,0,0-1.92.524h0a10.281,10.281,0,0,0-1.658.96h0a9.266,9.266,0,0,0-1.309,1.309h0a10.288,10.288,0,0,0-.96,1.658h0a6.933,6.933,0,0,0-.524,1.92h0a10.022,10.022,0,0,0-.087,1.658V190.94h12.042a1.309,1.309,0,1,1,0,2.618H107.6V211.62h22.862a1.309,1.309,0,0,1,0,2.618Z" transform="translate(-98.7 -169.3)"/></g></g><ellipse class="g" cx="141.5" cy="10.5" rx="141.5" ry="10.5" transform="translate(922 481)"/></g></svg>