<svg xmlns="http://www.w3.org/2000/svg" viewBox="0 0 383.161 318.737"><defs><style>.a,.f,.l,.p,.r{fill:#000002;}.a,.c,.m,.n,.o,.p,.q,.r{stroke:#000002;}.a,.b,.c,.d,.e,.g,.h,.m,.n,.o,.p,.q,.r,.u,.v{stroke-miterlimit:2.613;}.a,.o{stroke-width:2px;}.a,.f{opacity:0.25;}.b,.u{fill:#f3f3ff;}.b,.d,.e,.g,.v{stroke:#f3f3f5;}.b,.c,.d,.e,.g,.m,.n,.o,.p,.q,.r,.u,.v{stroke-linecap:round;stroke-linejoin:round;}.c,.h,.s{fill:#28283c;}.c,.d,.e,.f,.h,.j,.k,.l,.m,.n,.o,.p,.q,.r,.s{fill-rule:evenodd;}.d,.e,.n,.o,.v{fill:none;}.e,.v{stroke-dasharray:2 3;}.g{fill:#26263a;}.h{stroke:#000;}.i{fill:#f3f3f5;}.j,.m{fill:#fff7eb;}.k,.q,.t{fill:#e43626;}.r{stroke-width:0.5px;}.u{stroke:#28283c;}</style></defs><g transform="translate(-885 -196.58)"><ellipse class="a" cx="43.478" cy="4.137" rx="43.478" ry="4.137" transform="translate(1178.026 265.002)"/><rect class="b" width="74.98" height="47.108" transform="translate(1184.05 222.032)"/><path class="c" d="M873.416,316.9h19.308a1.116,1.116,0,0,1,1.089,1.089v31.066H872.4V317.989A1.055,1.055,0,0,1,873.416,316.9Z" transform="translate(338.435 -79.915)"/><path class="d" d="M849.957,282.2H902a3.485,3.485,0,0,1,3.484,3.484v6.678H846.4v-6.678A3.548,3.548,0,0,1,849.957,282.2Z" transform="translate(345.562 -70.402)"/><path class="e" d="M759.155,601.913A76.235,76.235,0,0,0,687.877,552.7a72.558,72.558,0,0,0-16.477,1.815" transform="translate(393.538 -144.56)"/><path class="d" d="M676.481,555.554c-.8-.363-1.6-.8-2.4-1.089a17.463,17.463,0,0,0-2.685-.508,23.368,23.368,0,0,0,2.178-1.524,24.148,24.148,0,0,0,1.815-2.032" transform="translate(393.538 -143.929)"/><path class="d" d="M791.236,613.2a15.191,15.191,0,0,0-.581,2.613c-.072.871,0,1.815,0,2.758a23.2,23.2,0,0,0-1.96-1.815,25.75,25.75,0,0,0-2.4-1.379" transform="translate(362.039 -161.146)"/><path class="f" d="M506.827,563.3c46.019,0,83.328,2.54,83.328,5.589,0,3.121-37.309,5.589-83.328,5.589s-83.328-2.54-83.328-5.589C423.5,565.768,460.809,563.3,506.827,563.3Z" transform="translate(461.5 -147.466)"/><rect class="b" width="143.138" height="89.933" transform="translate(896.759 329.676)"/><rect class="g" width="147.203" height="8.202" transform="translate(894.654 329.676)"/><path class="h" d="M512.132,484h36.8a2.077,2.077,0,0,1,2.032,2.032v59.3H510.1v-59.3A2.029,2.029,0,0,1,512.132,484Z" transform="translate(437.759 -125.726)"/><path class="d" d="M467.35,417.7h99.3a6.784,6.784,0,0,1,6.75,6.75v12.775H460.6V424.45A6.738,6.738,0,0,1,467.35,417.7Z" transform="translate(451.329 -107.55)"/><path class="i" d="M9.438-.971a4.809,4.809,0,0,1-1.37,3.665A5.551,5.551,0,0,1,4.1,3.993,6.289,6.289,0,0,1,1.378,3.5V1.295a5.214,5.214,0,0,0,2.648.764,2.852,2.852,0,0,0,2.059-.7,2.517,2.517,0,0,0,.73-1.905V-1.22H6.782A2.929,2.929,0,0,1,4.134.208,3.185,3.185,0,0,1,1.552-.938,4.645,4.645,0,0,1,.6-4.009,5.174,5.174,0,0,1,1.66-7.437a3.469,3.469,0,0,1,2.8-1.27,2.581,2.581,0,0,1,2.324,1.2h.033V-8.5H9.438ZM6.848-4.084v-.672A2.066,2.066,0,0,0,6.371-6.13,1.544,1.544,0,0,0,5.13-6.7a1.6,1.6,0,0,0-1.37.681,3.2,3.2,0,0,0-.5,1.917A2.7,2.7,0,0,0,3.735-2.42,1.542,1.542,0,0,0,5.03-1.8a1.605,1.605,0,0,0,1.316-.627A2.57,2.57,0,0,0,6.848-4.084Zm6.109-5.761a1.532,1.532,0,0,1-1.087-.394,1.27,1.27,0,0,1-.423-.967,1.225,1.225,0,0,1,.423-.963,1.583,1.583,0,0,1,1.087-.374,1.579,1.579,0,0,1,1.092.374,1.231,1.231,0,0,1,.419.963,1.265,1.265,0,0,1-.419.979A1.558,1.558,0,0,1,12.958-9.845ZM14.252,0H11.629V-8.5h2.623ZM24.778,0H22.155V-1.17h-.033A2.941,2.941,0,0,1,19.49.208,3.223,3.223,0,0,1,16.925-.917a4.656,4.656,0,0,1-.971-3.142,5.068,5.068,0,0,1,1.071-3.378,3.493,3.493,0,0,1,2.806-1.27,2.387,2.387,0,0,1,2.291,1.179h.033v-5.055h2.623ZM22.2-4.134v-.639a2.011,2.011,0,0,0-.481-1.378A1.59,1.59,0,0,0,20.47-6.7a1.58,1.58,0,0,0-1.361.685,3.18,3.18,0,0,0-.49,1.88,2.752,2.752,0,0,0,.473,1.727A1.571,1.571,0,0,0,20.4-1.8a1.577,1.577,0,0,0,1.3-.639A2.664,2.664,0,0,0,22.2-4.134ZM35.3,0H32.68V-1.17h-.033A2.941,2.941,0,0,1,30.016.208,3.223,3.223,0,0,1,27.451-.917a4.656,4.656,0,0,1-.971-3.142A5.068,5.068,0,0,1,27.55-7.437a3.493,3.493,0,0,1,2.806-1.27,2.387,2.387,0,0,1,2.291,1.179h.033v-5.055H35.3ZM32.73-4.134v-.639a2.011,2.011,0,0,0-.481-1.378A1.59,1.59,0,0,0,31-6.7a1.58,1.58,0,0,0-1.361.685,3.18,3.18,0,0,0-.49,1.88,2.752,2.752,0,0,0,.473,1.727,1.571,1.571,0,0,0,1.312.606,1.577,1.577,0,0,0,1.3-.639A2.664,2.664,0,0,0,32.73-4.134ZM45.671,0H43.056V-4.831q0-1.868-1.361-1.868a1.394,1.394,0,0,0-1.129.523,2.017,2.017,0,0,0-.432,1.328V0H37.511V-12.584h2.623v5.346h.033a2.981,2.981,0,0,1,2.615-1.469q2.889,0,2.889,3.486Z" transform="translate(957.472 307.543)"/><path class="j" d="M488.044,392A14.444,14.444,0,1,1,473.6,406.444,14.436,14.436,0,0,1,488.044,392Z" transform="translate(447.765 -100.504)"/><path class="k" d="M487.332,389.4A16.332,16.332,0,1,1,471,405.732,16.356,16.356,0,0,1,487.332,389.4Zm0,4.5a11.8,11.8,0,1,0,11.759,11.831A11.772,11.772,0,0,0,487.332,393.9Z" transform="translate(448.478 -99.791)"/><path class="l" d="M493.036,419.872a4.936,4.936,0,1,0-4.936-4.936A4.941,4.941,0,0,0,493.036,419.872Z" transform="translate(443.79 -105.439)"/><path class="m" d="M509.16,493.18c2.54-2.54,16.332-2.54,18.872,0s2.54,16.332,0,18.872-16.332,2.541-18.872,0C506.547,509.512,506.547,495.721,509.16,493.18Z" transform="translate(438.554 -127.72)"/><path class="n" d="M526.1,564.415a67.267,67.267,0,0,0,0-10.815" transform="translate(433.372 -144.807)"/><path class="o" d="M525.934,556.186a16.418,16.418,0,0,0-1.234-2.541c.363,0,.726-.072,1.089-.072s.726-.073,1.161-.073A12.022,12.022,0,0,0,525.934,556.186Z" transform="translate(433.756 -144.779)"/><path class="p" d="M526.1,565.318a6.231,6.231,0,0,1,3.266,0,2.1,2.1,0,0,1,0,2.25H526.1Z" transform="translate(433.372 -147.959)"/><path class="n" d="M519.6,564.415a67.253,67.253,0,0,0,0-10.815" transform="translate(435.154 -144.807)"/><path class="o" d="M519.279,556.186a14.983,14.983,0,0,1,.871-2.541c-.363,0-.726-.072-1.089-.072s-.8-.073-1.161-.073A10.479,10.479,0,0,1,519.279,556.186Z" transform="translate(435.62 -144.779)"/><path class="p" d="M519.6,565.318a6.231,6.231,0,0,1,3.266,0,2.1,2.1,0,0,1,0,2.25H519.6Z" transform="translate(435.154 -147.959)"/><path class="p" d="M533.108,509.044a.418.418,0,0,0,.435-.435.485.485,0,0,0-.435-.508.5.5,0,0,0-.508.508A.485.485,0,0,0,533.108,509.044Z" transform="translate(431.59 -132.333)"/><path class="n" d="M533.3,515.3a6.494,6.494,0,0,0,2.468.581" transform="translate(431.398 -134.307)"/><path class="q" d="M511,543.656c2.1,2.105,13.573,2.105,15.678,0s2.105-17.348,0-19.453-13.573-2.1-15.678,0S508.9,541.479,511,543.656Z" transform="translate(437.944 -136.315)"/><path class="r" d="M509.16,493.18c2.54-2.54,16.332-2.54,18.872,0s-1.887,7.549-11.323,7.549c0,7.549-5.008,13.936-7.549,11.323C506.547,509.512,506.547,495.721,509.16,493.18Z" transform="translate(438.554 -127.72)"/><path class="n" d="M522.266,529.8a51.462,51.462,0,0,0,0,12.049" transform="translate(434.521 -138.282)"/><path class="p" d="M521.839,545.186a.942.942,0,1,0,1.161.653A.932.932,0,0,0,521.839,545.186Z" transform="translate(434.73 -142.49)"/><g transform="translate(966.876 353.048)"><path class="s" d="M538.026,548.162a.777.777,0,0,1-.435-.145.9.9,0,0,1-.29-.581V478.626a.66.66,0,0,1,.29-.581.533.533,0,0,1,.435-.145h.145l20.469,3.7a.707.707,0,0,1,.581.726v61.334a.707.707,0,0,1-.581.726l-20.469,3.7A.254.254,0,0,0,538.026,548.162Z" transform="translate(-536.574 -477.102)"/><path d="M537.752,478.252l20.469,3.7v61.334l-20.469,3.7V478.252m0-1.452a1.528,1.528,0,0,0-.944.363,1.306,1.306,0,0,0-.508,1.089v68.811a1.419,1.419,0,0,0,.508,1.089,1.529,1.529,0,0,0,.944.363h.29l20.469-3.7a1.414,1.414,0,0,0,1.161-1.452V482.026a1.483,1.483,0,0,0-1.161-1.452l-20.469-3.7c-.145,0-.218-.073-.29-.073Z" transform="translate(-536.3 -476.8)"/></g><path class="t" d="M5.688-5.774a.872.872,0,0,0-.274-.739,1.324,1.324,0,0,0-.806-.207,3.339,3.339,0,0,0-1.684.443q-.776.443-.776.975a.722.722,0,0,0,.293.577,5.3,5.3,0,0,0,1.512.594,6.463,6.463,0,0,1,1.9.814,1.288,1.288,0,0,1,.62,1.066q0,1.037-1.579,1.9A6.76,6.76,0,0,1,1.611.51,1.528,1.528,0,0,1,.725.279.678.678,0,0,1,.392-.29a.9.9,0,0,1,.15-.5A.43.43,0,0,1,.9-1.021a.631.631,0,0,1,.236.043,2.685,2.685,0,0,0,1.053.242,4.659,4.659,0,0,0,1.883-.47q1.045-.47,1.045-.921,0-.188-.26-.363A5.042,5.042,0,0,0,3.8-2.927q-1.166-.381-1.754-.628A2.113,2.113,0,0,1,1.152-4.2a1.549,1.549,0,0,1-.3-.964A2.388,2.388,0,0,1,2.02-7.036,4.5,4.5,0,0,1,4.77-7.9a2.494,2.494,0,0,1,1.431.36,1.01,1.01,0,0,1,.524.822Q6.725-5.774,5.688-5.774Zm7.106,2.61a23.261,23.261,0,0,1-.3,2.532A10.37,10.37,0,0,1,11.851,1.6a3.271,3.271,0,0,1-.908,1.362,1.882,1.882,0,0,1-1.157.363,3.569,3.569,0,0,1-1.38-.274h.005a3.239,3.239,0,0,1-.991-.634A1.072,1.072,0,0,1,7,1.74a.606.606,0,0,1,.126-.4.41.41,0,0,1,.33-.15.362.362,0,0,1,.3.15,2.376,2.376,0,0,0,2,.886q.532,0,1.026-1.112A8.245,8.245,0,0,0,11.4-1.558,4.907,4.907,0,0,1,8.841-.247a1.079,1.079,0,0,1-.918-.462,1.83,1.83,0,0,1-.338-1.112,8.65,8.65,0,0,1,.3-1.888A5.71,5.71,0,0,1,8.4-5.245a.788.788,0,0,1,.69-.3.443.443,0,0,1,.4.223.907.907,0,0,1,.14.491,6.327,6.327,0,0,1-.387.908,4.245,4.245,0,0,0-.473,1.74,1.243,1.243,0,0,0,.1.572q.1.2.218.2a1.664,1.664,0,0,0,.626-.156,4.107,4.107,0,0,0,.865-.54,3.612,3.612,0,0,0,.642-.583,1.567,1.567,0,0,0,.231-.513,8.132,8.132,0,0,0,.134-1.383,6.393,6.393,0,0,1,.062-.784.545.545,0,0,1,.191-.3.62.62,0,0,1,.419-.134.687.687,0,0,1,.5.15,1.108,1.108,0,0,1,.148.709ZM18.6-.784a5.311,5.311,0,0,1-.376-1.8q-.118-1.375-.526-1.375-.387,0-1.337,1.431A10.157,10.157,0,0,0,15.189-.419a.7.7,0,0,1-.18.338.374.374,0,0,1-.26.134q-.816,0-.816-.747a8.841,8.841,0,0,1,.161-1.149A16.282,16.282,0,0,0,14.3-4.678a.907.907,0,0,1,.22-.54.607.607,0,0,1,.467-.287.674.674,0,0,1,.478.156q.167.156.167.827a12.041,12.041,0,0,1-.306,1.977q1.166-2.729,2.6-2.729,1.246,0,1.461,1.96.215,2,.494,2a.916.916,0,0,0,.285-.054,1.036,1.036,0,0,1,.306-.064q.258,0,.258.3a.834.834,0,0,1-.354.583,1.308,1.308,0,0,1-.892.309.922.922,0,0,1-.892-.542ZM22.945.3A1.778,1.778,0,0,1,21.6-.188a1.864,1.864,0,0,1-.462-1.343,5.207,5.207,0,0,1,1.1-2.927q1.1-1.574,2.159-1.574a1.048,1.048,0,0,1,.87.508,1.8,1.8,0,0,1,.36,1.055.956.956,0,0,1-.191.7.552.552,0,0,1-.368.18q-.521,0-.607-.72-.064-.526-.263-.526-.419,0-1.106,1.192A4.331,4.331,0,0,0,22.4-1.558q0,.725.784.725a3.051,3.051,0,0,0,1.746-.612,1.278,1.278,0,0,1,.655-.3.261.261,0,0,1,.3.3q0,.414-.948,1.077A3.418,3.418,0,0,1,22.945.3Zm8.776-2.143q0,.559-.94,1.335A3.244,3.244,0,0,1,28.66.263a1.836,1.836,0,0,1-1.429-.572A2.279,2.279,0,0,1,26.71-1.9a4.407,4.407,0,0,1,1.063-2.82,2.97,2.97,0,0,1,2.272-1.316,1.277,1.277,0,0,1,.967.381,1.267,1.267,0,0,1,.365.908,2.454,2.454,0,0,1-.9,1.781,4.859,4.859,0,0,1-2.3,1.168.184.184,0,0,0-.161.193.7.7,0,0,0,.228.491.813.813,0,0,0,.61.234A3.027,3.027,0,0,0,31-1.993a.57.57,0,0,1,.4-.215Q31.722-2.208,31.722-1.848Zm-3.6-.951a3.259,3.259,0,0,0,1.5-.725,1.477,1.477,0,0,0,.647-1,.454.454,0,0,0-.1-.3.315.315,0,0,0-.255-.121q-.467,0-1.037.688A3.568,3.568,0,0,0,28.118-2.8Zm8.293,1Q35.02.177,33.612.177a1.108,1.108,0,0,1-.918-.448,1.8,1.8,0,0,1-.349-1.141A4.373,4.373,0,0,1,33.491-4.2a3.142,3.142,0,0,1,2.323-1.386,1.165,1.165,0,0,1,.961.354q.4-1.762.478-2.2a7.4,7.4,0,0,1,.269-1.085.879.879,0,0,1,.328-.416.721.721,0,0,1,.381-.148.468.468,0,0,1,.419.226,1.034,1.034,0,0,1,.145.569,4.5,4.5,0,0,1-.236.865,23.883,23.883,0,0,0-.717,2.8A14.042,14.042,0,0,0,37.512-2q0,.929.408.929a1.038,1.038,0,0,0,.446-.113.982.982,0,0,1,.333-.107q.263,0,.263.306,0,.371-.534.739a1.806,1.806,0,0,1-1.012.368.867.867,0,0,1-.795-.553A2.5,2.5,0,0,1,36.411-1.794Zm-.6-2.755q-.7,0-1.469,1.074a3.483,3.483,0,0,0-.765,1.966q0,.521.387.521.655,0,1.563-1.166A3.459,3.459,0,0,0,36.438-4a.532.532,0,0,0-.172-.379A.6.6,0,0,0,35.814-4.549ZM48.6-3.378q-.054.086-.816,1.7-.064.14-.075.156Q46.8.317,46.3.317q-.773,0-1.354-1.92a11.491,11.491,0,0,1-.58-3.2,1.2,1.2,0,0,1,.218-.747.734.734,0,0,1,.62-.285.59.59,0,0,1,.448.218.639.639,0,0,1,.2.416L45.8-4.49q-.021.322-.021.645a6.565,6.565,0,0,0,.236,1.512q.236.943.333.943a3.905,3.905,0,0,0,.542-.956q.618-1.251,1-1.891h-.005a4.258,4.258,0,0,1,.951-1.337,1.05,1.05,0,0,1,.561.209.507.507,0,0,1,.212.4,1.605,1.605,0,0,1-.016.269.732.732,0,0,0-.021.167,5,5,0,0,0,.9,2.917q.059.059.1-.07t.223-.795a13.937,13.937,0,0,1,.741-2.151,3.636,3.636,0,0,1,.677-1.136.9.9,0,0,1,.6-.22.487.487,0,0,1,.363.158.49.49,0,0,1,.153.346.579.579,0,0,1-.1.354A8.955,8.955,0,0,0,52-2.567,15.66,15.66,0,0,1,51.235-.5q-.215.376-.365.376a1.617,1.617,0,0,1-.819-.185A1.874,1.874,0,0,1,49.433-1a6.161,6.161,0,0,1-.54-1.273A8.043,8.043,0,0,1,48.6-3.378Zm8.309-4.6a.852.852,0,0,1-.344.669,1,1,0,0,1-.6.287.762.762,0,0,1-.572-.269.8.8,0,0,1-.25-.537.831.831,0,0,1,.247-.626.979.979,0,0,1,.709-.239.81.81,0,0,1,.583.212A.671.671,0,0,1,56.912-7.981ZM54.318-3.566v.005q.172-.978.172-1.117a1.2,1.2,0,0,1,.175-.666.549.549,0,0,1,.486-.269.858.858,0,0,1,.569.172.5.5,0,0,1,.2.387,4.082,4.082,0,0,1-.2.886l-.032.118a9.633,9.633,0,0,0-.354,1.692q-.059.655-.059,1.058a4.583,4.583,0,0,0,.113.875,1.013,1.013,0,0,1,.016.161q0,.124-.234.333a.741.741,0,0,1-.5.209q-.709,0-.709-1.074a11.832,11.832,0,0,1,.258-2.224Q54.275-3.309,54.318-3.566Zm4.968-.795a6.206,6.206,0,0,0-.3,1.2,11.047,11.047,0,0,0-.255,1.45,1.414,1.414,0,0,0,.094.615.324.324,0,0,0,.309.175,1.617,1.617,0,0,0,.577-.1,2.956,2.956,0,0,0,.728-.47.814.814,0,0,1,.473-.231.349.349,0,0,1,.25.089.276.276,0,0,1,.094.207q0,.473-.763,1.072a2.569,2.569,0,0,1-1.611.6A1.374,1.374,0,0,1,57.8-.183a1.751,1.751,0,0,1-.373-1.2,15.2,15.2,0,0,1,.542-2.9q-.344.038-.478.038h-.113a.938.938,0,0,1-.5-.161.564.564,0,0,1-.255-.516q0-.451.51-.451l1.149-.043q.226-.65.478-1.7.15-.655.682-.655a.6.6,0,0,1,.462.18.576.576,0,0,1,.167.4q0,.086-.457,1.66,1.708-.15,1.875-.15a.59.59,0,0,1,.376.083.428.428,0,0,1,.091.32q0,.478-.811.607Zm4.163,1.885a9.271,9.271,0,0,1,1.539-2.275,1.93,1.93,0,0,1,1.308-.6,1.013,1.013,0,0,1,.76.314A3.211,3.211,0,0,1,67.5-3.405a7.731,7.731,0,0,0,.15,1.015,5.551,5.551,0,0,0,.2.685,2.081,2.081,0,0,0,.322.561.669.669,0,0,1,.161.4.467.467,0,0,1-.185.354.632.632,0,0,1-.427.161,1.047,1.047,0,0,1-.849-.521,2.83,2.83,0,0,1-.44-1.439A8.246,8.246,0,0,0,66.25-3.62q-.1-.312-.33-.312-.312,0-1.211,1.243a18.5,18.5,0,0,0-1.3,1.99,3.812,3.812,0,0,1-.381.73A.412.412,0,0,1,62.7.2a.833.833,0,0,1-.532-.161.548.548,0,0,1-.2-.457,8.147,8.147,0,0,1,.145-.908q.548-2.884.9-6.139a2.146,2.146,0,0,1,.33-1.082.65.65,0,0,1,.448-.3.66.66,0,0,1,.494.22.853.853,0,0,1,.209.612,7.728,7.728,0,0,1-.145,1.386q-.145.784-.542,2.5Q63.556-3.088,63.449-2.476Zm16.79-.177h.005a11.218,11.218,0,0,0-.258,1.184,7.158,7.158,0,0,0-.129,1.077q0,.618-.008.854a.789.789,0,0,1-.1.387.656.656,0,0,1-.236.234.646.646,0,0,1-.328.083.816.816,0,0,1-.534-.2.608.608,0,0,1-.244-.478,7.882,7.882,0,0,1,.15-.784q.134-.618.215-1.058A5.647,5.647,0,0,1,75.55-.027a2.082,2.082,0,0,1-1.528-.559,2.052,2.052,0,0,1-.567-1.531,5.309,5.309,0,0,1,.924-2.949v.005A7.856,7.856,0,0,1,76.7-7.38a4.972,4.972,0,0,1,2.677-.849,2.034,2.034,0,0,1,1.1.255.751.751,0,0,1,.4.647A1.3,1.3,0,0,1,80.6-6.6q-.277.4-.556.4a.4.4,0,0,1-.263-.073.8.8,0,0,1-.177-.287.817.817,0,0,0-.234-.341.63.63,0,0,0-.384-.1,3.228,3.228,0,0,0-1.866.8,6.666,6.666,0,0,0-1.7,1.9,4.121,4.121,0,0,0-.653,2.1q0,1.053.9,1.053a3.3,3.3,0,0,0,1.117-.242,6.259,6.259,0,0,0,1.386-.757,2.247,2.247,0,0,0,.884-.94,5.107,5.107,0,0,0,.223-.935.5.5,0,0,1,.223-.4,1.008,1.008,0,0,1,.486-.1q.7,0,.7.478a1.824,1.824,0,0,1-.183.612A5.275,5.275,0,0,0,80.239-2.653Zm4.743-5.328a.852.852,0,0,1-.344.669,1,1,0,0,1-.6.287.762.762,0,0,1-.572-.269.8.8,0,0,1-.25-.537.831.831,0,0,1,.247-.626.979.979,0,0,1,.709-.239.81.81,0,0,1,.583.212A.671.671,0,0,1,84.981-7.981ZM82.387-3.566v.005q.172-.978.172-1.117a1.2,1.2,0,0,1,.175-.666.549.549,0,0,1,.486-.269.858.858,0,0,1,.569.172.5.5,0,0,1,.2.387,4.083,4.083,0,0,1-.2.886l-.032.118a9.634,9.634,0,0,0-.354,1.692q-.059.655-.059,1.058a4.583,4.583,0,0,0,.113.875,1.013,1.013,0,0,1,.016.161q0,.124-.234.333a.74.74,0,0,1-.5.209q-.709,0-.709-1.074a11.832,11.832,0,0,1,.258-2.224Q82.344-3.309,82.387-3.566Zm6.574,1.772Q87.57.177,86.163.177a1.108,1.108,0,0,1-.918-.448A1.8,1.8,0,0,1,84.9-1.413,4.373,4.373,0,0,1,86.042-4.2a3.142,3.142,0,0,1,2.323-1.386,1.165,1.165,0,0,1,.961.354q.4-1.762.478-2.2a7.4,7.4,0,0,1,.269-1.085.879.879,0,0,1,.328-.416.721.721,0,0,1,.381-.148.468.468,0,0,1,.419.226,1.034,1.034,0,0,1,.145.569,4.5,4.5,0,0,1-.236.865,23.883,23.883,0,0,0-.717,2.8A14.042,14.042,0,0,0,90.063-2q0,.929.408.929a1.038,1.038,0,0,0,.446-.113.982.982,0,0,1,.333-.107q.263,0,.263.306,0,.371-.534.739a1.806,1.806,0,0,1-1.012.368.867.867,0,0,1-.795-.553A2.5,2.5,0,0,1,88.961-1.794Zm-.6-2.755q-.7,0-1.469,1.074a3.483,3.483,0,0,0-.765,1.966q0,.521.387.521.655,0,1.563-1.166A3.459,3.459,0,0,0,88.988-4a.532.532,0,0,0-.172-.379A.6.6,0,0,0,88.365-4.549Zm5.269,2.073a9.271,9.271,0,0,1,1.539-2.275,1.93,1.93,0,0,1,1.308-.6,1.013,1.013,0,0,1,.76.314,3.211,3.211,0,0,1,.443,1.635,7.731,7.731,0,0,0,.15,1.015,5.551,5.551,0,0,0,.2.685,2.081,2.081,0,0,0,.322.561.669.669,0,0,1,.161.4.467.467,0,0,1-.185.354.632.632,0,0,1-.427.161,1.047,1.047,0,0,1-.849-.521,2.83,2.83,0,0,1-.44-1.439,8.246,8.246,0,0,0-.185-1.434q-.1-.312-.33-.312-.312,0-1.211,1.243A18.5,18.5,0,0,0,93.6-.7a3.812,3.812,0,0,1-.381.73A.412.412,0,0,1,92.882.2a.833.833,0,0,1-.532-.161.548.548,0,0,1-.2-.457,8.147,8.147,0,0,1,.145-.908q.548-2.884.9-6.139a2.146,2.146,0,0,1,.33-1.082.65.65,0,0,1,.448-.3.66.66,0,0,1,.494.22.853.853,0,0,1,.209.612,7.728,7.728,0,0,1-.145,1.386q-.145.784-.542,2.5Q93.742-3.088,93.634-2.476Zm6.864,0a9.271,9.271,0,0,1,1.539-2.275,1.93,1.93,0,0,1,1.308-.6,1.013,1.013,0,0,1,.76.314,3.211,3.211,0,0,1,.443,1.635,7.731,7.731,0,0,0,.15,1.015,5.551,5.551,0,0,0,.2.685,2.081,2.081,0,0,0,.322.561.669.669,0,0,1,.161.4.467.467,0,0,1-.185.354.632.632,0,0,1-.427.161,1.047,1.047,0,0,1-.849-.521,2.83,2.83,0,0,1-.44-1.439A8.246,8.246,0,0,0,103.3-3.62q-.1-.312-.33-.312-.312,0-1.211,1.243a18.5,18.5,0,0,0-1.3,1.99,3.812,3.812,0,0,1-.381.73A.412.412,0,0,1,99.747.2a.833.833,0,0,1-.532-.161.548.548,0,0,1-.2-.457,8.147,8.147,0,0,1,.145-.908q.548-2.884.9-6.139a2.146,2.146,0,0,1,.33-1.082.65.65,0,0,1,.448-.3.66.66,0,0,1,.494.22.853.853,0,0,1,.209.612,7.728,7.728,0,0,1-.145,1.386q-.145.784-.542,2.5Q100.606-3.088,100.5-2.476Z" transform="translate(891.548 448.325)"/><path class="i" d="M1.24-3.17c0,.82-.02,2.14-.05,2.37-.04.3-.09.42-.39.42H.45c-.09,0-.1.02-.1.08v.22c0,.08.01.11.11.11C.53.03.64.02.85.01S1.4,0,1.9,0c.19,0,.5.01.79.03s.54.03.63.03A5.332,5.332,0,0,0,5.67-.31a1.83,1.83,0,0,0,.78-1.52c0-1.06-.65-1.66-1.89-1.98v-.02c1.06-.35,1.46-.99,1.46-1.65a1.4,1.4,0,0,0-.77-1.36,3.881,3.881,0,0,0-1.71-.27c-.68,0-1.28.03-1.6.03C.99-7.08.51-7.11.38-7.11c-.07,0-.08.03-.08.09v.23c0,.08,0,.09.07.09H.69c.33,0,.49.02.52.6.01.16.03,1.38.03,1.75ZM2.7-4.7c0-.83.01-1.7.03-1.9.01-.16.23-.17.44-.17a1.916,1.916,0,0,1,.94.36A1.279,1.279,0,0,1,4.52-5.4a1.561,1.561,0,0,1-.48,1.18,2.021,2.021,0,0,1-1.34.28Zm0,1.1a3.277,3.277,0,0,1,1.23.17,1.526,1.526,0,0,1,.9,1.55c0,1.25-.67,1.6-1.38,1.6-.53,0-.75-.39-.75-1.34Zm8.33.86c.12.36.51,1.64.6,2,.06.26-.03.36-.3.36h-.28c-.05,0-.06.04-.06.09V-.1c0,.07.01.13.11.13.2,0,.55-.03,1.38-.03,1.28,0,1.49.03,1.68.03.08,0,.09-.07.09-.13V-.29c0-.05-.01-.09-.07-.09h-.34a.738.738,0,0,1-.58-.45c-.14-.27-.79-2.13-1.02-2.91-.19-.64-.97-2.88-1.16-3.51-.03-.11-.05-.17-.11-.17s-.08.04-.13.09a3.137,3.137,0,0,1-1.12.5c-.08.02-.1.06-.1.09a.279.279,0,0,0,.07.13.4.4,0,0,1-.01.34c-.09.27-.9,2.42-.98,2.62-.33.88-1.04,2.62-1.18,2.83a.84.84,0,0,1-.68.44H6.58c-.06,0-.07.03-.07.09V-.1c0,.07.01.13.07.13C6.72.03,6.94,0,7.67,0,8.49,0,8.9.03,9.03.03c.08,0,.09-.03.09-.11V-.3c0-.04-.01-.08-.11-.08H8.66c-.3,0-.39-.24-.39-.46a12.127,12.127,0,0,1,.57-1.9Zm-2.06-.4c.08-.25.94-2.61.99-2.74.03-.09.06-.13.12-.13s.07.07.11.22l.75,2.65ZM20.72-2h-.04L18.97-4.13,16.65-6.97a.347.347,0,0,0-.29-.13c-.12,0-.42.02-.76.02-.52,0-.84-.01-1.04-.02s-.27-.01-.32-.01-.06.02-.06.06v.27c0,.03.01.07.06.07l.25.01c.5.01.86.57.86,1.16v.9c0,1.48-.08,3.08-.09,3.27-.05.67-.21.99-.43.99h-.35a.053.053,0,0,0-.06.06v.26c0,.07.01.09.05.09.1,0,.79-.03,1.1-.03.47,0,1.07.03,1.17.03.07,0,.08-.02.08-.08V-.29c0-.06-.01-.09-.08-.09h-.25c-.42,0-.6-.3-.62-.88-.01-.38-.1-1.61-.1-2.44V-5.72h.08c.23.33,1.61,2.05,1.78,2.25l1.71,2.03c.6.71,1.09,1.24,1.26,1.4a.528.528,0,0,0,.39.16c.14,0,.15-.18.15-.33V-1.92c0-1.32.16-3.58.23-4.25.03-.36.13-.53.3-.53h.28c.04,0,.05-.04.05-.09v-.24c0-.06-.01-.08-.1-.08-.11,0-.35.03-.95.03-.74,0-1.06-.03-1.17-.03-.08,0-.09.02-.09.07v.25c0,.06.01.09.06.09h.32a.534.534,0,0,1,.53.39c.03.15.08,1.13.09,1.52.02.5.03.99.03,1.88Zm4.2-2.21c0-.49.03-2.05.03-2.2,0-.22.13-.29.33-.29h.24c.05,0,.07-.02.07-.07v-.26c0-.06-.02-.08-.08-.08-.13,0-.46.03-1.33.03-.9,0-1.2-.03-1.32-.03-.06,0-.08.02-.08.06v.28c0,.05.02.07.08.07h.25c.25,0,.3.13.3.24s.03,2.01.03,2.19v.58c0,1.23-.02,3.04-.03,3.13s-.09.18-.27.18h-.31c-.04,0-.07.01-.07.06v.28c0,.05.02.07.07.07.09,0,.41-.03,1.33-.03s1.23.03,1.35.03c.05,0,.06-.03.06-.07V-.32c0-.04-.03-.06-.08-.06h-.31a.224.224,0,0,1-.23-.22c-.01-.14-.03-1.61-.03-2.11v-.75h.14a.378.378,0,0,1,.27.14c.17.19,1.72,2.49,1.81,2.69.04.09.03.26-.14.26h-.15a.053.053,0,0,0-.06.06v.26c0,.06.02.08.06.08.14,0,.53-.03,1.36-.03,1,0,1.33.03,1.43.03.06,0,.08-.02.08-.07V-.31a.063.063,0,0,0-.07-.07h-.12a.7.7,0,0,1-.54-.25c-.44-.51-2.07-2.8-2.71-3.61a13.9,13.9,0,0,1,2.19-2.29,1.242,1.242,0,0,1,.58-.17h.16c.05,0,.08-.02.08-.07v-.27c0-.05-.02-.07-.07-.07-.12,0-.47.03-.96.03-.79,0-1.2-.03-1.32-.03-.04,0-.06.02-.06.07v.25c0,.05.01.07.05.07h.17c.2,0,.38.15.2.39-.13.17-1.75,2.22-1.93,2.36a.473.473,0,0,1-.28.13h-.17Zm8.7,1.41c0,.36.01,1.46-.01,1.88-.02.51-.17.54-.72.54h-.26c-.08,0-.14.01-.14.07v.27c0,.05.02.07.08.07S34.03,0,34.32,0c.17,0,1.53.03,1.6.03s.11-.02.11-.07V-.3c0-.05-.03-.08-.1-.08h-.36c-.5,0-.54-.07-.55-.59,0-.11-.01-1.83-.01-2.35v-.42c0-1.29.03-2.86.03-2.94s-.03-.15-.09-.15a.467.467,0,0,0-.19.06L32.33-5.58c-.07.04-.08.08-.06.12l.07.2c.02.04.06.04.11.03l.49-.14a1.626,1.626,0,0,1,.45-.07c.18,0,.23.22.23.46Z" transform="translate(1201.32 204)"/><ellipse class="a" cx="43.478" cy="4.137" rx="43.478" ry="4.137" transform="translate(1180.203 384.042)"/><ellipse class="a" cx="43.478" cy="4.137" rx="43.478" ry="4.137" transform="translate(1180.203 506.042)"/><rect class="b" width="74.98" height="47.108" transform="translate(1186.156 341.072)"/><path class="c" d="M876.414,481h19.307a1.117,1.117,0,0,1,1.089,1.089v31.067H875.4V482.089A.974.974,0,0,1,876.414,481Z" transform="translate(337.615 -124.903)"/><path class="d" d="M852.856,446.2H904.9a3.485,3.485,0,0,1,3.484,3.484v6.678H849.3v-6.678A3.647,3.647,0,0,1,852.856,446.2Z" transform="translate(344.768 -115.363)"/><path class="i" d="M1.24-3.17c0,.82-.02,2.14-.05,2.37-.04.3-.09.42-.39.42H.45c-.09,0-.1.02-.1.08v.22c0,.08.01.11.11.11C.53.03.64.02.85.01S1.4,0,1.9,0c.19,0,.5.01.79.03s.54.03.63.03A5.332,5.332,0,0,0,5.67-.31a1.83,1.83,0,0,0,.78-1.52c0-1.06-.65-1.66-1.89-1.98v-.02c1.06-.35,1.46-.99,1.46-1.65a1.4,1.4,0,0,0-.77-1.36,3.881,3.881,0,0,0-1.71-.27c-.68,0-1.28.03-1.6.03C.99-7.08.51-7.11.38-7.11c-.07,0-.08.03-.08.09v.23c0,.08,0,.09.07.09H.69c.33,0,.49.02.52.6.01.16.03,1.38.03,1.75ZM2.7-4.7c0-.83.01-1.7.03-1.9.01-.16.23-.17.44-.17a1.916,1.916,0,0,1,.94.36A1.279,1.279,0,0,1,4.52-5.4a1.561,1.561,0,0,1-.48,1.18,2.021,2.021,0,0,1-1.34.28Zm0,1.1a3.277,3.277,0,0,1,1.23.17,1.526,1.526,0,0,1,.9,1.55c0,1.25-.67,1.6-1.38,1.6-.53,0-.75-.39-.75-1.34Zm8.33.86c.12.36.51,1.64.6,2,.06.26-.03.36-.3.36h-.28c-.05,0-.06.04-.06.09V-.1c0,.07.01.13.11.13.2,0,.55-.03,1.38-.03,1.28,0,1.49.03,1.68.03.08,0,.09-.07.09-.13V-.29c0-.05-.01-.09-.07-.09h-.34a.738.738,0,0,1-.58-.45c-.14-.27-.79-2.13-1.02-2.91-.19-.64-.97-2.88-1.16-3.51-.03-.11-.05-.17-.11-.17s-.08.04-.13.09a3.137,3.137,0,0,1-1.12.5c-.08.02-.1.06-.1.09a.279.279,0,0,0,.07.13.4.4,0,0,1-.01.34c-.09.27-.9,2.42-.98,2.62-.33.88-1.04,2.62-1.18,2.83a.84.84,0,0,1-.68.44H6.58c-.06,0-.07.03-.07.09V-.1c0,.07.01.13.07.13C6.72.03,6.94,0,7.67,0,8.49,0,8.9.03,9.03.03c.08,0,.09-.03.09-.11V-.3c0-.04-.01-.08-.11-.08H8.66c-.3,0-.39-.24-.39-.46a12.127,12.127,0,0,1,.57-1.9Zm-2.06-.4c.08-.25.94-2.61.99-2.74.03-.09.06-.13.12-.13s.07.07.11.22l.75,2.65ZM20.72-2h-.04L18.97-4.13,16.65-6.97a.347.347,0,0,0-.29-.13c-.12,0-.42.02-.76.02-.52,0-.84-.01-1.04-.02s-.27-.01-.32-.01-.06.02-.06.06v.27c0,.03.01.07.06.07l.25.01c.5.01.86.57.86,1.16v.9c0,1.48-.08,3.08-.09,3.27-.05.67-.21.99-.43.99h-.35a.053.053,0,0,0-.06.06v.26c0,.07.01.09.05.09.1,0,.79-.03,1.1-.03.47,0,1.07.03,1.17.03.07,0,.08-.02.08-.08V-.29c0-.06-.01-.09-.08-.09h-.25c-.42,0-.6-.3-.62-.88-.01-.38-.1-1.61-.1-2.44V-5.72h.08c.23.33,1.61,2.05,1.78,2.25l1.71,2.03c.6.71,1.09,1.24,1.26,1.4a.528.528,0,0,0,.39.16c.14,0,.15-.18.15-.33V-1.92c0-1.32.16-3.58.23-4.25.03-.36.13-.53.3-.53h.28c.04,0,.05-.04.05-.09v-.24c0-.06-.01-.08-.1-.08-.11,0-.35.03-.95.03-.74,0-1.06-.03-1.17-.03-.08,0-.09.02-.09.07v.25c0,.06.01.09.06.09h.32a.534.534,0,0,1,.53.39c.03.15.08,1.13.09,1.52.02.5.03.99.03,1.88Zm4.2-2.21c0-.49.03-2.05.03-2.2,0-.22.13-.29.33-.29h.24c.05,0,.07-.02.07-.07v-.26c0-.06-.02-.08-.08-.08-.13,0-.46.03-1.33.03-.9,0-1.2-.03-1.32-.03-.06,0-.08.02-.08.06v.28c0,.05.02.07.08.07h.25c.25,0,.3.13.3.24s.03,2.01.03,2.19v.58c0,1.23-.02,3.04-.03,3.13s-.09.18-.27.18h-.31c-.04,0-.07.01-.07.06v.28c0,.05.02.07.07.07.09,0,.41-.03,1.33-.03s1.23.03,1.35.03c.05,0,.06-.03.06-.07V-.32c0-.04-.03-.06-.08-.06h-.31a.224.224,0,0,1-.23-.22c-.01-.14-.03-1.61-.03-2.11v-.75h.14a.378.378,0,0,1,.27.14c.17.19,1.72,2.49,1.81,2.69.04.09.03.26-.14.26h-.15a.053.053,0,0,0-.06.06v.26c0,.06.02.08.06.08.14,0,.53-.03,1.36-.03,1,0,1.33.03,1.43.03.06,0,.08-.02.08-.07V-.31a.063.063,0,0,0-.07-.07h-.12a.7.7,0,0,1-.54-.25c-.44-.51-2.07-2.8-2.71-3.61a13.9,13.9,0,0,1,2.19-2.29,1.242,1.242,0,0,1,.58-.17h.16c.05,0,.08-.02.08-.07v-.27c0-.05-.02-.07-.07-.07-.12,0-.47.03-.96.03-.79,0-1.2-.03-1.32-.03-.04,0-.06.02-.06.07v.25c0,.05.01.07.05.07h.17c.2,0,.38.15.2.39-.13.17-1.75,2.22-1.93,2.36a.473.473,0,0,1-.28.13h-.17ZM34.76,0c.4,0,.59.01.65.14.04.08.05.1.13.1s.12-.03.15-.11l.71-1.85c.03-.07-.01-.11-.12-.16s-.13-.03-.18.06a1.226,1.226,0,0,1-1.13.76H33.24V-1.1c.31-.29.76-.66,1.34-1.2a3.725,3.725,0,0,0,1.51-2.71,1.845,1.845,0,0,0-1.9-1.82,2.274,2.274,0,0,0-2.15,1.5c-.04.09-.03.12,0,.14l.17.07c.04.02.07.02.12-.06a1.474,1.474,0,0,1,1.17-.78,1.14,1.14,0,0,1,1.16,1.22,3.721,3.721,0,0,1-.99,2.43A17.89,17.89,0,0,1,31.73-.26a.223.223,0,0,0-.06.24c.03.06.06.06.11.06s.16-.01.31-.02.33-.02.5-.02Z" transform="translate(1204.305 323.017)"/><rect class="u" width="74.98" height="47.108" transform="translate(1188.623 463.014)"/><path class="c" d="M879.813,649h19.308a1.116,1.116,0,0,1,1.089,1.089v31.067H878.8V650.089A1.01,1.01,0,0,1,879.813,649Z" transform="translate(336.682 -170.96)"/><path class="d" d="M856.256,614.2H908.3a3.485,3.485,0,0,1,3.484,3.484v6.678H852.7v-6.678A3.647,3.647,0,0,1,856.256,614.2Z" transform="translate(343.835 -161.42)"/><path class="i" d="M1.24-3.17c0,.82-.02,2.14-.05,2.37-.04.3-.09.42-.39.42H.45c-.09,0-.1.02-.1.08v.22c0,.08.01.11.11.11C.53.03.64.02.85.01S1.4,0,1.9,0c.19,0,.5.01.79.03s.54.03.63.03A5.332,5.332,0,0,0,5.67-.31a1.83,1.83,0,0,0,.78-1.52c0-1.06-.65-1.66-1.89-1.98v-.02c1.06-.35,1.46-.99,1.46-1.65a1.4,1.4,0,0,0-.77-1.36,3.881,3.881,0,0,0-1.71-.27c-.68,0-1.28.03-1.6.03C.99-7.08.51-7.11.38-7.11c-.07,0-.08.03-.08.09v.23c0,.08,0,.09.07.09H.69c.33,0,.49.02.52.6.01.16.03,1.38.03,1.75ZM2.7-4.7c0-.83.01-1.7.03-1.9.01-.16.23-.17.44-.17a1.916,1.916,0,0,1,.94.36A1.279,1.279,0,0,1,4.52-5.4a1.561,1.561,0,0,1-.48,1.18,2.021,2.021,0,0,1-1.34.28Zm0,1.1a3.277,3.277,0,0,1,1.23.17,1.526,1.526,0,0,1,.9,1.55c0,1.25-.67,1.6-1.38,1.6-.53,0-.75-.39-.75-1.34Zm8.33.86c.12.36.51,1.64.6,2,.06.26-.03.36-.3.36h-.28c-.05,0-.06.04-.06.09V-.1c0,.07.01.13.11.13.2,0,.55-.03,1.38-.03,1.28,0,1.49.03,1.68.03.08,0,.09-.07.09-.13V-.29c0-.05-.01-.09-.07-.09h-.34a.738.738,0,0,1-.58-.45c-.14-.27-.79-2.13-1.02-2.91-.19-.64-.97-2.88-1.16-3.51-.03-.11-.05-.17-.11-.17s-.08.04-.13.09a3.137,3.137,0,0,1-1.12.5c-.08.02-.1.06-.1.09a.279.279,0,0,0,.07.13.4.4,0,0,1-.01.34c-.09.27-.9,2.42-.98,2.62-.33.88-1.04,2.62-1.18,2.83a.84.84,0,0,1-.68.44H6.58c-.06,0-.07.03-.07.09V-.1c0,.07.01.13.07.13C6.72.03,6.94,0,7.67,0,8.49,0,8.9.03,9.03.03c.08,0,.09-.03.09-.11V-.3c0-.04-.01-.08-.11-.08H8.66c-.3,0-.39-.24-.39-.46a12.127,12.127,0,0,1,.57-1.9Zm-2.06-.4c.08-.25.94-2.61.99-2.74.03-.09.06-.13.12-.13s.07.07.11.22l.75,2.65ZM20.72-2h-.04L18.97-4.13,16.65-6.97a.347.347,0,0,0-.29-.13c-.12,0-.42.02-.76.02-.52,0-.84-.01-1.04-.02s-.27-.01-.32-.01-.06.02-.06.06v.27c0,.03.01.07.06.07l.25.01c.5.01.86.57.86,1.16v.9c0,1.48-.08,3.08-.09,3.27-.05.67-.21.99-.43.99h-.35a.053.053,0,0,0-.06.06v.26c0,.07.01.09.05.09.1,0,.79-.03,1.1-.03.47,0,1.07.03,1.17.03.07,0,.08-.02.08-.08V-.29c0-.06-.01-.09-.08-.09h-.25c-.42,0-.6-.3-.62-.88-.01-.38-.1-1.61-.1-2.44V-5.72h.08c.23.33,1.61,2.05,1.78,2.25l1.71,2.03c.6.71,1.09,1.24,1.26,1.4a.528.528,0,0,0,.39.16c.14,0,.15-.18.15-.33V-1.92c0-1.32.16-3.58.23-4.25.03-.36.13-.53.3-.53h.28c.04,0,.05-.04.05-.09v-.24c0-.06-.01-.08-.1-.08-.11,0-.35.03-.95.03-.74,0-1.06-.03-1.17-.03-.08,0-.09.02-.09.07v.25c0,.06.01.09.06.09h.32a.534.534,0,0,1,.53.39c.03.15.08,1.13.09,1.52.02.5.03.99.03,1.88Zm4.2-2.21c0-.49.03-2.05.03-2.2,0-.22.13-.29.33-.29h.24c.05,0,.07-.02.07-.07v-.26c0-.06-.02-.08-.08-.08-.13,0-.46.03-1.33.03-.9,0-1.2-.03-1.32-.03-.06,0-.08.02-.08.06v.28c0,.05.02.07.08.07h.25c.25,0,.3.13.3.24s.03,2.01.03,2.19v.58c0,1.23-.02,3.04-.03,3.13s-.09.18-.27.18h-.31c-.04,0-.07.01-.07.06v.28c0,.05.02.07.07.07.09,0,.41-.03,1.33-.03s1.23.03,1.35.03c.05,0,.06-.03.06-.07V-.32c0-.04-.03-.06-.08-.06h-.31a.224.224,0,0,1-.23-.22c-.01-.14-.03-1.61-.03-2.11v-.75h.14a.378.378,0,0,1,.27.14c.17.19,1.72,2.49,1.81,2.69.04.09.03.26-.14.26h-.15a.053.053,0,0,0-.06.06v.26c0,.06.02.08.06.08.14,0,.53-.03,1.36-.03,1,0,1.33.03,1.43.03.06,0,.08-.02.08-.07V-.31a.063.063,0,0,0-.07-.07h-.12a.7.7,0,0,1-.54-.25c-.44-.51-2.07-2.8-2.71-3.61a13.9,13.9,0,0,1,2.19-2.29,1.242,1.242,0,0,1,.58-.17h.16c.05,0,.08-.02.08-.07v-.27c0-.05-.02-.07-.07-.07-.12,0-.47.03-.96.03-.79,0-1.2-.03-1.32-.03-.04,0-.06.02-.06.07v.25c0,.05.01.07.05.07h.17c.2,0,.38.15.2.39-.13.17-1.75,2.22-1.93,2.36a.473.473,0,0,1-.28.13h-.17ZM33.44.15c1.67,0,2.82-1.04,2.82-2.21a1.892,1.892,0,0,0-1.62-1.7v-.02a2.022,2.022,0,0,0,1.28-1.68,1.562,1.562,0,0,0-1.75-1.37,1.99,1.99,0,0,0-2,1.62c-.02.09-.01.14.04.15l.2.06c.03.01.07,0,.12-.12a1.271,1.271,0,0,1,1.13-.94.911.911,0,0,1,.91.97A1.339,1.339,0,0,1,33.3-3.74c-.14.03-.17.07-.17.19,0,.1.03.14.23.19a1.605,1.605,0,0,1,1.41,1.7A1.264,1.264,0,0,1,33.61-.28a.622.622,0,0,1-.65-.35.747.747,0,0,0-.66-.52.505.505,0,0,0-.42.52C31.88-.35,32.21.15,33.44.15Z" transform="translate(1206.787 444.977)"/><path class="e" d="M757.433,371.9A93.934,93.934,0,0,1,678.9,444.195a96.4,96.4,0,0,1-20.4.653" transform="translate(397.075 -94.994)"/><path class="d" d="M677.152,509.7a22,22,0,0,1-2.758,1.742,23.641,23.641,0,0,1-3.194,1.089,27.91,27.91,0,0,1,2.9,1.524c.944.653,1.669,1.452,2.54,2.178" transform="translate(393.594 -132.771)"/><path class="d" d="M794.715,378.288a22,22,0,0,1-1.161-3.049c-.29-1.089-.29-2.25-.508-3.339a17.325,17.325,0,0,1-2.032,2.54c-.8.8-1.742,1.379-2.613,2.1" transform="translate(361.463 -94.994)"/><line class="v" y1="13.356" x2="107.208" transform="translate(1067.769 366.839)"/><path class="d" d="M817,492.6a21.988,21.988,0,0,0,2.758,1.742,23.633,23.633,0,0,0,3.194,1.089,27.88,27.88,0,0,0-2.9,1.524c-.944.653-1.67,1.452-2.541,2.178" transform="translate(353.622 -128.083)"/><path class="d" d="M660.852,468a21.994,21.994,0,0,1-2.758,1.742,23.617,23.617,0,0,1-3.194,1.089,27.927,27.927,0,0,1,2.9,1.524c.943.653,1.669,1.452,2.541,2.177" transform="translate(398.062 -121.339)"/><rect class="g" width="77.158" height="4.283" transform="translate(1182.962 222.032)"/><rect class="g" width="77.158" height="4.283" transform="translate(1185.067 341.072)"/><rect class="g" width="77.158" height="4.283" transform="translate(1187.535 463.014)"/></g></svg>