<svg xmlns="http://www.w3.org/2000/svg" viewBox="0 0 364.771 201"><defs><style>.a{fill:#dddde1;opacity:0.33;}.b,.d,.n{fill:#fff;}.b,.d,.e,.n{stroke:#26263a;stroke-miterlimit:10;}.c{fill:#f3f3ff;}.d,.e,.n{stroke-linecap:round;}.d,.e{stroke-width:2px;}.e,.f{fill:none;}.f{stroke:#dddde1;}.g{fill:#28283c;font-size:14px;font-family:Roboto-Medium, Roboto;font-weight:500;}.h{fill:#dedede;}.i,.j,.k{fill:#4b4c4f;}.i{font-size:8px;}.i,.k{font-family:Calibri-Bold, Calibri;font-weight:700;}.j,.l{font-size:9px;font-family:Calibri;}.k{font-size:7px;}.l,.o{fill:#e34b26;}.m{fill:#5f6b72;opacity:0.15;}.p{fill:#e0e0e0;}.q{fill:#26263a;font-size:10px;font-family:Roboto-Regular, Roboto;}</style></defs><g transform="translate(-2904 -1429)"><path class="a" d="M600.142,111.361H560.5c-5.26,0-10.263-1.285-14.112-5.14-4.875-4.883-6.158-11.05-5.773-17.6.513-7.581,4.875-12.207,11.674-14.776a31.71,31.71,0,0,1,6.671-1.67c1.283-.128,1.539-.771,1.668-1.8a28.594,28.594,0,0,1,4.747-12.207,22.514,22.514,0,0,1,16.293-10.279c8.339-1.285,15.908.514,22.066,6.424a19.853,19.853,0,0,1,3.079,3.469,1.916,1.916,0,0,0,2.694.771c8.083-3.212,15.78-2.827,22.965,2.57,5.388,4.112,7.7,9.765,7.7,16.447,0,.9,0,1.542,1.155,1.8,11.418,2.7,14.369,12.721,11.931,21.972-1.8,6.681-6.543,10.022-13.342,10.022Z" transform="translate(2363.45 1381.506)"/><path class="b" d="M633.205,243.228H406.9a7.726,7.726,0,0,1-7.7-7.709V91.609a7.726,7.726,0,0,1,7.7-7.709H633.205a7.726,7.726,0,0,1,7.7,7.709V235.518A7.726,7.726,0,0,1,633.205,243.228Z" transform="translate(2573.3 1384.694)"/><path class="c" d="M630.885,85.3H409.452a8.877,8.877,0,0,0-8.852,8.866V233.577a8.877,8.877,0,0,0,8.852,8.866H630.885a8.877,8.877,0,0,0,8.852-8.866V94.166A8.877,8.877,0,0,0,630.885,85.3ZM631.4,226a9.016,9.016,0,0,1-9.109,8.866H417.919A9.016,9.016,0,0,1,408.811,226V101.49a9.016,9.016,0,0,1,9.109-8.866h204.5a9.016,9.016,0,0,1,9.109,8.866V226Z" transform="translate(2573.979 1385.093)"/><line class="d" x2="296" transform="translate(2943.056 1629)"/><line class="e" x2="18.731" transform="translate(3249.04 1629)"/><line class="f" y1="0.898" x2="202.609" transform="translate(2992.5 1561.882)"/><text class="g" transform="translate(2993.74 1498.458)"><tspan x="0" y="0">Bank Account</tspan></text><rect class="h" width="202.182" height="14.89" transform="translate(2993 1509)"/><text class="i" transform="translate(2997 1519)"><tspan x="0" y="0">Particular</tspan></text><text class="i" transform="translate(3104 1520)"><tspan x="0" y="0">Particular</tspan></text><text class="i" transform="translate(3176 1519)"><tspan x="0" y="0">Amt</tspan></text><text class="i" transform="translate(3077 1519)"><tspan x="0" y="0">Amt</tspan></text><text class="j" transform="translate(2997 1538)"><tspan x="0" y="0">Rajesh Jain</tspan></text><text class="j" transform="translate(3104 1538)"><tspan x="0" y="0">HT Ltd.</tspan></text><text class="j" transform="translate(2997 1554)"><tspan x="0" y="0">Customer</tspan></text><text class="j" transform="translate(3091 1538)"><tspan x="-22.808" y="0">45000</tspan></text><text class="j" transform="translate(3091 1554)"><tspan x="-22.808" y="0">10000</tspan></text><text class="j" transform="translate(3190 1538)"><tspan x="-22.808" y="0">20000</tspan></text><g transform="translate(-4.877 6)"><text class="k" transform="translate(3033.876 1595)"><tspan x="0" y="0">Balance as per Bank</tspan></text><text class="k" transform="translate(3163 1595)"><tspan x="-61.072" y="0">Balance as per Books</tspan></text><text class="l" transform="translate(3091.408 1608)"><tspan x="-37.129" y="0">55,000 Dr.</tspan></text><text class="l" transform="translate(3139 1608)"><tspan x="-37.129" y="0">52,000 Dr.</tspan></text></g><ellipse class="m" cx="30.47" cy="29.358" rx="30.47" ry="29.358" transform="translate(3183.483 1445.014)"/><ellipse class="n" cx="28.413" cy="28.457" rx="28.413" ry="28.457" transform="translate(3187.5 1442.5)"/><g transform="translate(3198.266 1454.085)"><path class="o" d="M56.25,181.017a14.914,14.914,0,0,0,15.532.919c6.859-3.822,9.275-9.769,7.882-17.422.4-.107.857-.23,1.319-.353.445-.123.9-.238,1.344-.361a17.779,17.779,0,0,1-5,17.759,18.268,18.268,0,0,1-23.06,1.69c-.61.615-1.22,1.23-1.913,1.936-.528-2.641-1.039-5.159-1.558-7.735,2.58.517,5.1,1.009,7.552,1.5C57.676,179.606,56.983,180.3,56.25,181.017Z" transform="translate(-46.611 -150.364)"/><path class="o" d="M28.328,3.044c.734-.738,1.459-1.46,2.234-2.239.519,2.559,1.022,5.069,1.542,7.653-2.564-.509-5.1-1.009-7.708-1.526.651-.6,1.253-1.148,1.847-1.7l-.1-.172c-5.054-2.772-10.256-3.15-15.3-.23-6.62,3.839-8.9,9.753-7.5,17.209-.857.23-1.773.476-2.679.714A17.8,17.8,0,0,1,6.06,4.627,18.256,18.256,0,0,1,28.328,3.044Z" transform="translate(0.009 0.009)"/></g><rect class="p" width="85" height="19" rx="2" transform="translate(3051 1569)"/><text class="q" transform="translate(3093 1581.954)"><tspan x="-32.148" y="0">Reconciliation</tspan></text></g></svg>