<svg xmlns="http://www.w3.org/2000/svg" viewBox="0 0 364.771 201"><defs><style>.a{fill:#dddde1;opacity:0.33;}.b,.d,.i,.m,.p{fill:#fff;}.b,.d,.e,.p{stroke:#26263a;stroke-miterlimit:10;}.c{fill:#f3f3ff;}.d,.e,.p{stroke-linecap:round;}.d,.e{stroke-width:2px;}.e,.f,.k,.s{fill:none;}.f{stroke:#dddde1;}.g,.h{fill:#28283c;font-family:Roboto-Medium, Roboto;font-weight:500;}.g{font-size:14px;}.h{font-size:11px;}.i,.k{stroke:#ccc;stroke-width:0.75px;}.j{fill:#2bab1d;}.l,.n{fill:#666;}.l{font-size:12px;font-family:Calibri;}.m,.n{font-size:10px;font-family:Cambria;}.o{fill:#5f6b72;opacity:0.15;}.q{fill:#e34b26;}.r{stroke:none;}</style></defs><g transform="translate(-2875 -1144)"><path class="a" d="M600.142,111.361H560.5c-5.26,0-10.263-1.285-14.112-5.14-4.875-4.883-6.158-11.05-5.773-17.6.513-7.581,4.875-12.207,11.674-14.776a31.71,31.71,0,0,1,6.671-1.67c1.283-.128,1.539-.771,1.668-1.8a28.594,28.594,0,0,1,4.747-12.207,22.514,22.514,0,0,1,16.293-10.279c8.339-1.285,15.908.514,22.066,6.424a19.853,19.853,0,0,1,3.079,3.469,1.916,1.916,0,0,0,2.694.771c8.083-3.212,15.78-2.827,22.965,2.57,5.388,4.112,7.7,9.765,7.7,16.447,0,.9,0,1.542,1.155,1.8,11.418,2.7,14.369,12.721,11.931,21.972-1.8,6.681-6.543,10.022-13.342,10.022Z" transform="translate(2334.45 1096.506)"/><path class="b" d="M633.205,243.228H406.9a7.726,7.726,0,0,1-7.7-7.709V91.609a7.726,7.726,0,0,1,7.7-7.709H633.205a7.726,7.726,0,0,1,7.7,7.709V235.518A7.726,7.726,0,0,1,633.205,243.228Z" transform="translate(2544.583 1099.694)"/><path class="c" d="M630.885,85.3H409.452a8.877,8.877,0,0,0-8.852,8.866V233.577a8.877,8.877,0,0,0,8.852,8.866H630.885a8.877,8.877,0,0,0,8.852-8.866V94.166A8.877,8.877,0,0,0,630.885,85.3ZM631.4,226a9.016,9.016,0,0,1-9.109,8.866H417.919A9.016,9.016,0,0,1,408.811,226V101.49a9.016,9.016,0,0,1,9.109-8.866h204.5a9.016,9.016,0,0,1,9.109,8.866V226Z" transform="translate(2544.069 1100.093)"/><line class="d" x2="296" transform="translate(2914.055 1344)"/><line class="e" x2="18.731" transform="translate(3220.04 1344)"/><line class="f" y1="0.898" x2="202.609" transform="translate(2958.552 1217.882)"/><text class="g" transform="translate(2959.013 1211.458)"><tspan x="0" y="0">Connect Bank</tspan></text><text class="h" transform="translate(2959.013 1244.458)"><tspan x="0" y="0">Add Bank Account</tspan></text><g class="i" transform="translate(2959 1251)"><rect class="r" width="208" height="26" rx="2"/><rect class="s" x="0.375" y="0.375" width="207.25" height="25.25" rx="1.625"/></g><rect class="j" width="55" height="21" rx="2" transform="translate(2959 1291)"/><g class="k" transform="translate(3024 1291)"><rect class="r" width="49" height="21" rx="2"/><rect class="s" x="0.375" y="0.375" width="48.25" height="20.25" rx="1.625"/></g><text class="l" transform="translate(2967 1267.954)"><tspan x="0" y="0">search bank</tspan></text><text class="m" transform="translate(2972 1304.954)"><tspan x="0" y="0">Connect</tspan></text><text class="n" transform="translate(3034 1304.954)"><tspan x="0" y="0">Cancel</tspan></text><g transform="translate(-31 75)"><ellipse class="o" cx="30.47" cy="29.358" rx="30.47" ry="29.358" transform="translate(3167.038 1085.014)"/><ellipse class="p" cx="28.413" cy="28.457" rx="28.413" ry="28.457" transform="translate(3171.055 1082.5)"/><g transform="translate(302.39 110.089)"><g transform="translate(2882 982.638)"><g transform="translate(0)"><path class="q" d="M2181.921-3268.477a.809.809,0,0,0-.671.381c-1.534,2.191-6.426,4.1-11.988,4.192h-.1a.92.92,0,0,0-.863.667,68.3,68.3,0,0,0-1.247,8.384c-.384,4.573-.48,10,1.342,13.432,1.343,2.572,4.7,4.668,7.577,6.288a52.664,52.664,0,0,0,5.275,2.477,1.374,1.374,0,0,0,.576.191,1.365,1.365,0,0,0,.576-.191h0c.383-.19,2.589-1.047,5.275-2.477,2.973-1.62,6.234-3.715,7.577-6.288,1.822-3.43,1.726-8.859,1.342-13.432a68.3,68.3,0,0,0-1.247-8.384.92.92,0,0,0-.863-.667h-.1c-5.371,0-10.07-1.81-11.7-4a.729.729,0,0,0-.768-.572Zm0,2.191c2.4,2.477,6.905,3.906,11.893,4a61.319,61.319,0,0,1,1.15,7.526c.384,4.478.288,9.717-1.15,12.48-1.055,1.905-4.125,4.1-6.906,5.621a41.4,41.4,0,0,1-5.083,2.381,49.955,49.955,0,0,1-5.083-2.381c-2.781-1.524-5.946-3.715-6.906-5.621-1.438-2.763-1.534-8-1.15-12.48a61.319,61.319,0,0,1,1.15-7.526c5.083-.1,9.687-1.524,12.084-4Z" transform="translate(-2166.828 3268.477)"/></g></g><path class="q" d="M.378,6.281h0a1.312,1.312,0,0,1,1.78,0L5.487,9.609a1.312,1.312,0,0,0,1.78,0L16.478.4a1.312,1.312,0,0,1,1.78,0l.077.077a1.312,1.312,0,0,1,0,1.78c-3.56,3.638-7.353,7.43-10.991,11.068a1.312,1.312,0,0,1-1.78,0L.3,8.061A1.242,1.242,0,0,1,.378,6.281Z" transform="translate(2888.154 993.52)"/></g></g></g></svg>