<svg xmlns="http://www.w3.org/2000/svg" viewBox="0 0 364.771 201"><defs><style>.a{fill:#dddde1;opacity:0.33;}.b,.d,.h,.j,.l{fill:#fff;}.b,.d,.e,.l{stroke:#26263a;stroke-miterlimit:10;}.c{fill:#f3f3ff;}.d,.e,.l{stroke-linecap:round;}.d,.e{stroke-width:2px;}.e,.f,.s{fill:none;}.f{stroke:#dddde1;}.g,.n{fill:#28283c;}.g{font-size:14px;font-family:Roboto-Medium, Roboto;font-weight:500;}.h{stroke:#ccc;stroke-width:0.75px;}.i{fill:#2bab1d;}.j,.n{font-size:10px;}.j{font-family:Roboto-Regular, Roboto;}.k{fill:#5f6b72;opacity:0.15;}.m{fill:#e34b26;}.n,.o,.p,.q{font-family:Cambria;}.o,.q{fill:#9a9a9a;}.o{font-size:7px;}.p{fill:#676767;}.p,.q{font-size:8px;}.r{stroke:none;}</style></defs><g transform="translate(-2970 -1854)"><path class="a" d="M600.142,111.361H560.5c-5.26,0-10.263-1.285-14.112-5.14-4.875-4.883-6.158-11.05-5.773-17.6.513-7.581,4.875-12.207,11.674-14.776a31.71,31.71,0,0,1,6.671-1.67c1.283-.128,1.539-.771,1.668-1.8a28.594,28.594,0,0,1,4.747-12.207,22.514,22.514,0,0,1,16.293-10.279c8.339-1.285,15.908.514,22.066,6.424a19.853,19.853,0,0,1,3.079,3.469,1.916,1.916,0,0,0,2.694.771c8.083-3.212,15.78-2.827,22.965,2.57,5.388,4.112,7.7,9.765,7.7,16.447,0,.9,0,1.542,1.155,1.8,11.418,2.7,14.369,12.721,11.931,21.972-1.8,6.681-6.543,10.022-13.342,10.022Z" transform="translate(2429.45 1806.506)"/><path class="b" d="M633.205,243.228H406.9a7.726,7.726,0,0,1-7.7-7.709V91.609a7.726,7.726,0,0,1,7.7-7.709H633.205a7.726,7.726,0,0,1,7.7,7.709V235.518A7.726,7.726,0,0,1,633.205,243.228Z" transform="translate(2639.583 1809.694)"/><path class="c" d="M630.885,85.3H409.452a8.877,8.877,0,0,0-8.852,8.866V233.577a8.877,8.877,0,0,0,8.852,8.866H630.885a8.877,8.877,0,0,0,8.852-8.866V94.166A8.877,8.877,0,0,0,630.885,85.3ZM631.4,226a9.016,9.016,0,0,1-9.109,8.866H417.919A9.016,9.016,0,0,1,408.811,226V101.49a9.016,9.016,0,0,1,9.109-8.866h204.5a9.016,9.016,0,0,1,9.109,8.866V226Z" transform="translate(2639.069 1810.093)"/><line class="d" x2="296" transform="translate(3009.055 2054)"/><line class="e" x2="18.731" transform="translate(3315.04 2054)"/><line class="f" y1="0.898" x2="202.609" transform="translate(3055.552 1935.882)"/><text class="g" transform="translate(3056.013 1925.458)"><tspan x="0" y="0">Banking Overview</tspan></text><g class="h" transform="translate(3061 1945)"><rect class="r" width="95" height="66" rx="2"/><rect class="s" x="0.375" y="0.375" width="94.25" height="65.25" rx="1.625"/></g><g class="h" transform="translate(3164 1945)"><rect class="r" width="95" height="66" rx="2"/><rect class="s" x="0.375" y="0.375" width="94.25" height="65.25" rx="1.625"/></g><rect class="i" width="75" height="21" rx="2" transform="translate(3061 2018)"/><text class="j" transform="translate(3098 2031.954)"><tspan x="-31.311" y="0">Connect Bank</tspan></text><g transform="translate(64 785)"><ellipse class="k" cx="30.47" cy="29.358" rx="30.47" ry="29.358" transform="translate(3167.038 1085.014)"/><ellipse class="l" cx="28.413" cy="28.457" rx="28.413" ry="28.457" transform="translate(3171.055 1082.5)"/></g><path class="m" d="M25.447,15.207a3.87,3.87,0,0,0-.12-.982,3.754,3.754,0,0,0-1.195-1.934,3.6,3.6,0,0,0-2.4-.935h-.1c0-.518.011-1.03,0-1.542-.014-.47-.039-.943-.087-1.41a11.373,11.373,0,0,0-.395-2.026,9.035,9.035,0,0,0-2.477-4.187A7.829,7.829,0,0,0,16.327.7,8.836,8.836,0,0,0,13.609.042c-.118-.008-.235-.028-.35-.042H12.21a.64.64,0,0,1-.1.02c-.294.031-.59.048-.884.092A8.94,8.94,0,0,0,9.4.591,8.008,8.008,0,0,0,5.029,4.5,11.428,11.428,0,0,0,3.837,9.367c-.025.652-.011,1.307-.022,1.962v.02a4.911,4.911,0,0,0-.674.062A3.686,3.686,0,0,0,.9,12.708,3.793,3.793,0,0,0,0,15.23q0,6.288,0,12.582a4.362,4.362,0,0,0,.053.688,3.716,3.716,0,0,0,1.506,2.46,3.745,3.745,0,0,0,2.306.744H21.342c.2,0,.4-.008.6-.02a3.261,3.261,0,0,0,1.371-.375,3.709,3.709,0,0,0,2.135-3.459C25.458,23.636,25.447,19.422,25.447,15.207ZM14.7,21.837a2.468,2.468,0,0,1-.652.565.125.125,0,0,0-.059.132c0,.921-.011,1.839,0,2.759a1.284,1.284,0,0,1-1.1,1.307,1.24,1.24,0,0,1-1.419-1.069c-.048-.451-.022-.907-.028-1.363v-.229c0-.467,0-.938,0-1.4a.156.156,0,0,0-.081-.148A2.436,2.436,0,0,1,10.243,20.8a2.469,2.469,0,0,1,.543-2.191,2.406,2.406,0,0,1,1.6-.873,2.471,2.471,0,0,1,2.281.876,2.512,2.512,0,0,1,.039,3.224ZM12.725,11.351H7.637V10.092A10.057,10.057,0,0,1,7.881,7.8,5.788,5.788,0,0,1,9,5.384a3.955,3.955,0,0,1,1.676-1.229,5.351,5.351,0,0,1,1.581-.319,6.92,6.92,0,0,1,1.937.134,3.9,3.9,0,0,1,1.581.725A4.736,4.736,0,0,1,17.289,6.84a9.024,9.024,0,0,1,.521,2.994c.011.5,0,1,0,1.5v.02C16.114,11.348,14.418,11.351,12.725,11.351Z" transform="translate(3251 1879.598)"/><text class="n" transform="translate(3065 1959)"><tspan x="0" y="0">State Bank of India</tspan></text><text class="o" transform="translate(3065 1971)"><tspan x="0" y="0">A/c No: xxx1542</tspan></text><text class="p" transform="translate(3065 1992)"><tspan x="0" y="0">INR 15,55,000.00</tspan></text><text class="q" transform="translate(3065 2004)"><tspan x="0" y="0">updated on 5 Oct 2018</tspan></text><text class="q" transform="translate(3168 2004)"><tspan x="0" y="0">updated on 5 Oct 2018</tspan></text><text class="p" transform="translate(3168 1992)"><tspan x="0" y="0">INR 8,35,056.50</tspan></text><text class="o" transform="translate(3168 1971)"><tspan x="0" y="0">A/c No: xxx5572</tspan></text><text class="n" transform="translate(3168 1959)"><tspan x="0" y="0">ICICI Bank</tspan></text></g></svg>