<svg xmlns="http://www.w3.org/2000/svg" viewBox="0 0 207 135">
  <defs>
    <style>
      .cls-1 {
        fill: #fff;
      }

      .cls-2 {
        fill: #c2cbd0;
      }

      .cls-3 {
        fill: #e4e5e5;
      }

      .cls-4 {
        fill: #ffe0d8;
      }

      .cls-5 {
        fill: #e34b26;
      }

      .cls-6 {
        fill: #26263a;
      }

      .cls-7 {
        fill: #e6e6ff;
      }

      .cls-8 {
        fill: #e5f1f9;
      }
    </style>
  </defs>
  <g id="Group_4839" data-name="Group 4839" transform="translate(-807 -2881)">
    <path id="Fill-62_2_" class="cls-1" d="M19.983,41.148A8.042,8.042,0,1,1,11.942,33.1a7.878,7.878,0,0,1,8.042,8.047" transform="translate(808.507 2893.824)"/>
    <g id="Stroke-64_2_" transform="translate(811.298 2925.815)">
      <path id="Path_11676" data-name="Path 11676" class="cls-2" d="M12.251,50.614A9.157,9.157,0,1,1,21.4,41.457,9.145,9.145,0,0,1,12.251,50.614Zm0-16.233a6.937,6.937,0,1,0,6.932,6.937A6.955,6.955,0,0,0,12.251,34.381Z" transform="translate(-3.1 -32.3)"/>
    </g>
    <g id="Group-73_2_" transform="matrix(0.574, -0.819, 0.819, 0.574, 816.365, 2935.819)">
      <path id="Fill-70_2_" class="cls-1" d="M0,0,2.773,3.6" transform="translate(1.255 1.351)"/>
      <g id="Stroke-72_2_" transform="translate(0 0)">
        <path id="Path_11678" data-name="Path 11678" class="cls-3" d="M4.166,6.342a1.261,1.261,0,0,1-1.11-.554L.283,2.183A1.357,1.357,0,0,1,.561.242a1.333,1.333,0,0,1,1.8.277l2.773,3.6A1.357,1.357,0,0,1,4.86,6.065C4.721,6.342,4.443,6.342,4.166,6.342Z"/>
      </g>
    </g>
    <path id="Fill-78_2_" class="cls-1" d="M145.587,42.3c0,3.746-6.794,12.487-6.794,12.487S132,46.183,132,42.3a6.794,6.794,0,1,1,13.587,0" transform="translate(858.014 2894.755)"/>
    <g id="Stroke-80_2_" transform="translate(988.905 2929.284)">
      <path id="Path_11679" data-name="Path 11679" class="cls-2" d="M139.1,56.861l-.832-1.11c-.693-.971-7.071-9.018-7.071-13.042a7.9,7.9,0,1,1,15.806,0c0,4.024-6.378,12.21-7.071,13.042Zm0-19.979a5.624,5.624,0,0,0-5.685,5.689c0,2.22,3.189,7.215,5.685,10.545,2.5-3.33,5.685-8.464,5.685-10.545A5.712,5.712,0,0,0,139.1,36.881Z" transform="translate(-131.2 -34.8)"/>
    </g>
    <path id="Fill-82_2_" class="cls-1" d="M139.2,40.7a1.8,1.8,0,1,1-1.8-1.8,1.938,1.938,0,0,1,1.8,1.8" transform="translate(859.405 2896.072)"/>
    <g id="Stroke-84_2_" transform="translate(993.896 2933.862)">
      <path id="Path_11680" data-name="Path 11680" class="cls-2" d="M137.712,43.927a2.93,2.93,0,0,1-2.912-2.914,2.844,2.844,0,0,1,2.912-2.914,2.914,2.914,0,0,1,0,5.827Zm0-3.469a.694.694,0,1,0,.693.694A.655.655,0,0,0,137.712,40.459Z" transform="translate(-134.8 -38.1)"/>
    </g>
    <path id="Fill-18_6_" class="cls-4" d="M98.7,20.563A19.549,19.549,0,1,1,79.149,1,19.534,19.534,0,0,1,98.7,20.563" transform="translate(830.034 2881.388)"/>
    <g id="Stroke-20_6_" transform="translate(888.247 2881)">
      <path id="Path_11681" data-name="Path 11681" class="cls-5" d="M79.536,41.763A20.881,20.881,0,1,1,79.536,0a20.881,20.881,0,1,1,0,41.763Zm0-38.988A18.176,18.176,0,1,0,97.7,20.951,18.232,18.232,0,0,0,79.536,2.775Z" transform="translate(-58.6)"/>
    </g>
    <path id="Fill-22_2_" class="cls-4" d="M81.9,26.195H69.98a2.133,2.133,0,0,1-2.08-2.081V10.1H84.122V24.113A2.26,2.26,0,0,1,81.9,26.195" transform="translate(833.241 2884.913)"/>
    <g id="Stroke-24_2_" transform="translate(899.755 2893.626)">
      <path id="Path_11682" data-name="Path 11682" class="cls-5" d="M82.29,27.969H70.366A3.434,3.434,0,0,1,66.9,24.5V10.487A1.31,1.31,0,0,1,68.286,9.1H84.508a1.31,1.31,0,0,1,1.386,1.387V24.5A3.645,3.645,0,0,1,82.29,27.969ZM69.673,11.875V24.5a.655.655,0,0,0,.693.694H82.29a.655.655,0,0,0,.693-.694V11.875Z" transform="translate(-66.9 -9.1)"/>
    </g>
    <g id="Group-33_2_" transform="translate(909.625 2903.973)">
      <path id="Fill-30_2_" class="cls-5" d="M-16.7,7.127V1.3" transform="translate(18.086 0.087)"/>
      <g id="Stroke-32_2_" transform="translate(0 0)">
        <path id="Path_11683" data-name="Path 11683" class="cls-5" d="M-16.314,8.9A1.31,1.31,0,0,1-17.7,7.515V1.687A1.31,1.31,0,0,1-16.314.3a1.31,1.31,0,0,1,1.386,1.387V7.376A1.519,1.519,0,0,1-16.314,8.9Z" transform="translate(17.7 -0.3)"/>
      </g>
    </g>
    <g id="Group-119_6_" transform="translate(907.851 2919.961)">
      <path id="Fill-116_6_" class="cls-5" d="M-16.5,1V35.548" transform="translate(17.886 0.387)"/>
      <g id="Stroke-118_6_" transform="translate(0)">
        <path id="Path_11684" data-name="Path 11684" class="cls-5" d="M-16.114,37.323A1.31,1.31,0,0,1-17.5,35.935V1.387A1.31,1.31,0,0,1-16.114,0a1.31,1.31,0,0,1,1.386,1.387V35.935A1.492,1.492,0,0,1-16.114,37.323Z" transform="translate(17.5)"/>
      </g>
    </g>
    <path id="Fill-18_5_" class="cls-4" d="M139.549,100.226A19.563,19.563,0,1,1,159.1,80.663a19.534,19.534,0,0,1-19.549,19.563" transform="translate(853.376 2904.674)"/>
    <g id="Stroke-20_5_" transform="translate(972.129 2964.525)">
      <path id="Path_11685" data-name="Path 11685" class="cls-5" d="M119.1,81.151A20.936,20.936,0,1,1,140.036,102.1,21.014,21.014,0,0,1,119.1,81.151Zm38.96,0A18.163,18.163,0,1,0,139.9,99.326,18.232,18.232,0,0,0,158.06,81.151Z" transform="translate(-119.1 -60.2)"/>
    </g>
    <g id="Group-119_5_" transform="translate(937.661 2984.062)">
      <path id="Fill-116_5_" class="cls-5" d="M39.384,47.2H5" transform="translate(-3.614 -45.813)"/>
      <g id="Stroke-118_5_" transform="translate(0 0)">
        <path id="Path_11686" data-name="Path 11686" class="cls-5" d="M4,47.587A1.31,1.31,0,0,1,5.386,46.2H39.91a1.387,1.387,0,0,1,0,2.775H5.386A1.31,1.31,0,0,1,4,47.587Z" transform="translate(-4 -46.2)"/>
      </g>
    </g>
    <path id="Fill-18_3_" class="cls-4" d="M20.549,61.2A19.563,19.563,0,1,1,1,80.763,19.534,19.534,0,0,1,20.549,61.2" transform="translate(807.387 2904.713)"/>
    <g id="Stroke-20_3_" transform="translate(807 2964.525)">
      <path id="Path_11687" data-name="Path 11687" class="cls-5" d="M41.733,81.151A20.867,20.867,0,1,1,0,81.151a20.867,20.867,0,1,1,41.733,0Zm-38.96,0A18.163,18.163,0,1,0,20.936,62.975,18.232,18.232,0,0,0,2.773,81.151Z" transform="translate(0 -60.2)"/>
    </g>
    <g id="Group-119_3_" transform="translate(845.876 2984.062)">
      <path id="Fill-116_3_" class="cls-5" d="M-61.1,47.2h34.523" transform="translate(62.625 -45.813)"/>
      <g id="Stroke-118_3_" transform="translate(0 0)">
        <path id="Path_11688" data-name="Path 11688" class="cls-5" d="M-24.9,47.587a1.31,1.31,0,0,1-1.386,1.387H-60.814A1.31,1.31,0,0,1-62.2,47.587,1.31,1.31,0,0,1-60.814,46.2H-26.29A1.31,1.31,0,0,1-24.9,47.587Z" transform="translate(62.2 -46.2)"/>
      </g>
    </g>
    <g id="Stroke-122_8_" transform="translate(832.438 2937.952)">
      <path id="Path_11689" data-name="Path 11689" class="cls-2" d="M67.779,69.008a1.5,1.5,0,0,1-.971-.416C46.7,50.833,19.668,43.9,19.391,43.757a1.363,1.363,0,0,1,.693-2.636c.277,0,27.868,7.076,48.526,25.391a1.349,1.349,0,0,1,.139,1.942A1.2,1.2,0,0,1,67.779,69.008Z" transform="translate(-18.347 -41.047)"/>
    </g>
    <g id="Stroke-122_7_" transform="translate(858.474 2912.67)">
      <path id="Path_11690" data-name="Path 11690" class="cls-2" d="M71.336,68.021a1.671,1.671,0,0,1-.693-.694c-11.092-24.558-32.721-41.9-33-42.04a1.387,1.387,0,0,1,1.664-2.22c.277.139,22.461,18.037,33.83,43.15a1.377,1.377,0,0,1-.693,1.8A1.518,1.518,0,0,1,71.336,68.021Z" transform="translate(-37.126 -22.826)"/>
    </g>
    <g id="Group_4764" data-name="Group 4764" transform="translate(926.13 2916.416)">
      <g id="Stroke-122_6_" transform="translate(11.4 25.421)">
        <path id="Path_11691" data-name="Path 11691" class="cls-2" d="M95.469,71.808a1.5,1.5,0,0,0,.971-.416c20.1-17.759,47.14-24.7,47.417-24.836a1.363,1.363,0,0,0-.693-2.636c-.277,0-27.868,7.076-48.526,25.391a1.349,1.349,0,0,0-.139,1.942A1.2,1.2,0,0,0,95.469,71.808Z" transform="translate(-94.145 -43.847)"/>
      </g>
      <g id="Stroke-122_5_" transform="translate(0 0)">
        <path id="Path_11692" data-name="Path 11692" class="cls-2" d="M87.832,70.721a1.671,1.671,0,0,0,.693-.694c11.092-24.558,32.721-41.9,33-42.04a1.387,1.387,0,0,0-1.664-2.22c-.277.139-22.461,18.037-33.83,43.15a1.377,1.377,0,0,0,.693,1.8A1.518,1.518,0,0,0,87.832,70.721Z" transform="translate(-85.923 -25.526)"/>
      </g>
    </g>
    <path id="Path_11693" data-name="Path 11693" class="cls-2" d="M41.06,24.685H27.889A3.139,3.139,0,0,1,24.7,21.493v-8.6A3.139,3.139,0,0,1,27.889,9.7H41.06a3.139,3.139,0,0,1,3.189,3.191v8.6A3.226,3.226,0,0,1,41.06,24.685Zm-13.171-12.9a.948.948,0,0,0-.971.971v8.6a.948.948,0,0,0,.971.971H41.06a.948.948,0,0,0,.971-.971v-8.6a.948.948,0,0,0-.971-.971H27.889Z" transform="translate(816.546 2884.758)"/>
    <path id="Path_11694" data-name="Path 11694" class="cls-5" d="M25.454,88.677H22.819a1.97,1.97,0,0,1-.832-.277l-1.8-1.387-1.8,1.387a1.261,1.261,0,0,1-1.664,0l-1.8-1.387-1.8,1.387a1.97,1.97,0,0,1-.832.277h-2.5A1.31,1.31,0,0,1,8.4,87.289V68.7A1.31,1.31,0,0,1,9.786,67.31h2.634a1.97,1.97,0,0,1,.832.277l1.8,1.387,1.8-1.387a1.261,1.261,0,0,1,1.664,0l1.8,1.387,1.8-1.387a1.97,1.97,0,0,1,.832-.277h2.634A1.31,1.31,0,0,1,26.979,68.7V87.289A1.764,1.764,0,0,1,25.454,88.677ZM23.235,85.9h.693V70.085h-.693l-2.218,1.8a1.261,1.261,0,0,1-1.664,0l-1.8-1.387-1.8,1.387a1.261,1.261,0,0,1-1.664,0L12,70.085h-.693V85.9H12l2.218-1.8a1.261,1.261,0,0,1,1.664,0l1.8,1.387,1.8-1.387a1.261,1.261,0,0,1,1.664,0Z" transform="translate(810.246 2907.066)"/>
    <g id="Stroke-76_2_" transform="translate(960.76 2901.396)">
      <path id="Path_11695" data-name="Path 11695" class="cls-2" d="M117.832,28.575a6.937,6.937,0,0,1,0-13.875,7.047,7.047,0,0,1,6.932,6.937A6.867,6.867,0,0,1,117.832,28.575Zm0-11.793a4.717,4.717,0,1,0,4.714,4.717A4.593,4.593,0,0,0,117.832,16.781Z" transform="translate(-110.9 -14.7)"/>
    </g>
    <path id="Path_11696" data-name="Path 11696" class="cls-6" d="M104.386,114.348H60.019a8.346,8.346,0,0,1-8.319-8.325v-44.4A8.346,8.346,0,0,1,60.019,53.3h44.367a8.346,8.346,0,0,1,8.319,8.325v44.4A8.346,8.346,0,0,1,104.386,114.348Z" transform="translate(826.981 2901.652)"/>
    <g id="Group_4767" data-name="Group 4767" transform="translate(891.02 2968.271)">
      <g id="Group_4765" data-name="Group 4765" transform="translate(10.399 0)">
        <path id="Path_11697" data-name="Path 11697" class="cls-7" d="M75.864,82.186c4.3,0,7.764-3.885,7.764-8.6V71.5c0-4.717-3.466-8.6-7.764-8.6S68.1,66.785,68.1,71.5v2.081C68.1,78.3,71.566,82.186,75.864,82.186Z" transform="translate(-68.1 -62.9)"/>
      </g>
      <g id="Group_4766" data-name="Group 4766" transform="translate(0 19.412)">
        <path id="Path_11698" data-name="Path 11698" class="cls-7" d="M97.064,90.639l-1.109-6.8h0a5.15,5.15,0,0,0-2.912-3.33h0l-6.378-3.469a1.046,1.046,0,0,0-1.109.139A9.846,9.846,0,0,1,78.9,79.817a10.224,10.224,0,0,1-6.655-2.636.839.839,0,0,0-1.109-.139l-6.516,3.33h0a5.566,5.566,0,0,0-2.912,3.33h0L60.6,90.5a1.02,1.02,0,0,0,.277.832.762.762,0,0,0,.693.416H96.232a.762.762,0,0,0,.693-.416A.61.61,0,0,0,97.064,90.639Z" transform="translate(-60.6 -76.891)"/>
      </g>
    </g>
    <g id="Stroke-96_2_" transform="translate(842.355 2898.205)">
      <rect id="Rectangle_2606" data-name="Rectangle 2606" class="cls-2" width="17.331" height="2.22" transform="translate(0 0)"/>
    </g>
    <g id="Stroke-92_2_" transform="translate(847.069 2902.367)">
      <rect id="Rectangle_2607" data-name="Rectangle 2607" class="cls-2" width="7.764" height="2.22" transform="translate(0 0)"/>
    </g>
    <g id="Stroke-140_2_" transform="translate(971.03 2911.645)">
      <rect id="Rectangle_2608" data-name="Rectangle 2608" class="cls-2" width="7.768" height="2.222" transform="matrix(0.727, 0.687, -0.687, 0.727, 1.524, 0)"/>
    </g>
    <g id="Stroke-132_2_" transform="translate(823.083 2981.452)">
      <path id="Path_11699" data-name="Path 11699" class="cls-5" d="M19.78,75.175H12.986a1.387,1.387,0,0,1,0-2.775H19.78a1.387,1.387,0,0,1,0,2.775Z" transform="translate(-11.6 -72.4)"/>
    </g>
    <g id="Stroke-136_2_" transform="translate(823.083 2985.892)">
      <path id="Path_11700" data-name="Path 11700" class="cls-5" d="M19.78,78.375H12.986a1.387,1.387,0,0,1,0-2.775H19.78a1.387,1.387,0,0,1,0,2.775Z" transform="translate(-11.6 -75.6)"/>
    </g>
    <g id="Group_4768" data-name="Group 4768" transform="translate(984.884 2973.96)">
      <path id="Fill-46_2_" class="cls-4" d="M139.66,75.076a2.191,2.191,0,0,1-2.218-2.22V68h-5.823a2.191,2.191,0,0,0-2.218,2.22V86.037a2.191,2.191,0,0,0,2.218,2.22h10.814a2.191,2.191,0,0,0,2.218-2.22V75.076Z" transform="translate(-127.875 -66.613)"/>
      <g id="Stroke-48_2_" transform="translate(0 0)">
        <path id="Path_11701" data-name="Path 11701" class="cls-5" d="M142.719,90.032H131.9a3.672,3.672,0,0,1-3.6-3.607V70.607A3.672,3.672,0,0,1,131.9,67h5.823a1.31,1.31,0,0,1,1.386,1.387v4.856a.9.9,0,0,0,.832.832H144.8a1.31,1.31,0,0,1,1.386,1.387V86.424A3.465,3.465,0,0,1,142.719,90.032ZM131.9,69.775a.9.9,0,0,0-.832.832V86.424a.9.9,0,0,0,.832.832h10.814a.9.9,0,0,0,.832-.832V76.851h-3.466a3.672,3.672,0,0,1-3.6-3.607V69.775Z" transform="translate(-128.3 -67)"/>
      </g>
      <path id="Fill-54_4_" class="cls-8" d="M140.3,73.1" transform="translate(-123.662 -64.636)"/>
      <path id="Fill-54_1_" class="cls-8" d="M135.2,68" transform="translate(-125.633 -66.613)"/>
      <g id="Stroke-56_2_" transform="translate(8.18 0)">
        <path id="Path_11702" data-name="Path 11702" class="cls-5" d="M142.657,76.851a1.258,1.258,0,0,1-.971-.416l-7.071-7.076a1.373,1.373,0,0,1,1.941-1.942l7.071,7.076a1.342,1.342,0,0,1,0,1.942A1.258,1.258,0,0,1,142.657,76.851Z" transform="translate(-134.2 -67)"/>
      </g>
      <g id="Stroke-52_2_" transform="translate(7.487 15.817)">
        <path id="Path_11703" data-name="Path 11703" class="cls-5" d="M139.107,81.175h-4.021a1.387,1.387,0,0,1,0-2.775h4.021a1.31,1.31,0,0,1,1.386,1.387A1.39,1.39,0,0,1,139.107,81.175Z" transform="translate(-133.7 -78.4)"/>
      </g>
    </g>
  </g>
</svg>
