<svg xmlns="http://www.w3.org/2000/svg" viewBox="0 0 21.082 20">
  <defs>
    <style>
      .cls-1 {
        fill: #e34b26;
      }
    </style>
  </defs>
  <path id="Path_11704" data-name="Path 11704" class="cls-1" d="M0,12.065a4.6,4.6,0,0,1,1.869-1.488,1.915,1.915,0,0,1,2.012.4,5.124,5.124,0,0,1,1.265,1.88c.234.533.432,1.082.645,1.626.03.081.066.168.112.295A47.055,47.055,0,0,1,20.356,0c.259.279.483.523.726.787-.406.33-.8.635-1.179.955a42.182,42.182,0,0,0-7.071,7.6A75.493,75.493,0,0,0,7.706,17.6a1.358,1.358,0,0,1-.371.391c-.843.615-1.692,1.214-2.535,1.819-.081.056-.157.117-.254.188A15.093,15.093,0,0,0,0,12.065Z"/>
</svg>
