<svg xmlns="http://www.w3.org/2000/svg" viewBox="0 0 557.384 281.64"><defs><style>.a{fill:#5e5e80;}.b{fill:#141313;}.c{fill:#9b9b9b;}.d{fill:#cecece;}.e{fill:#b3b3b3;}.f{fill:gray;}.g{fill:#fefefe;}.h{fill:#fe6634;}.i{fill:#34cccc;}.j{fill:#34cbcb;}.k{fill:#e2d6ba;stroke:#d6c4a1;}.l{fill:#d6c4a1;}</style></defs><g transform="translate(-710 -242.364)"><g transform="translate(710 519.949)"><path class="a" d="M548.359,127.155H1.641c-.984,0-1.641-.811-1.641-2.027S.656,123.1,1.641,123.1H548.359c.984,0,1.641.811,1.641,2.027A1.862,1.862,0,0,1,548.359,127.155Z" transform="translate(0 -123.1)"/></g><g transform="translate(800.636 493)"><path class="b" d="M85.339,124.619A13.719,13.719,0,1,1,71.619,110.9,13.6,13.6,0,0,1,85.339,124.619Z" transform="translate(-57.9 -110.9)"/><path class="c" d="M75.482,121.041a7.441,7.441,0,0,1-14.882,0,7.441,7.441,0,0,1,14.882,0Z" transform="translate(-54.322 -107.322)"/><path class="d" d="M72.329,119.848a5.466,5.466,0,1,1-5.348-5.348A5.262,5.262,0,0,1,72.329,119.848Z" transform="translate(-53.261 -106.129)"/></g><g transform="translate(1066.977 493)"><path class="b" d="M209.339,124.319a13.6,13.6,0,0,1-13.719,13.719,13.719,13.719,0,1,1,13.719-13.719Z" transform="translate(-181.9 -110.6)"/><path class="c" d="M199.482,120.747a7.493,7.493,0,0,1-7.441,7.441,7.441,7.441,0,1,1,7.441-7.441Z" transform="translate(-178.322 -107.028)"/><path class="d" d="M196.329,119.557a5.466,5.466,0,1,1-10.929,0,5.461,5.461,0,0,1,5.581-5.348C193.771,113.976,196.329,116.534,196.329,119.557Z" transform="translate(-177.261 -105.837)"/></g><path class="e" d="M378.166,118.187H56.109a7.008,7.008,0,0,1-7.209-6.743h0a7.008,7.008,0,0,1,7.209-6.743H378.166a7.008,7.008,0,0,1,7.209,6.743h0C385.607,115.164,382.119,118.187,378.166,118.187Z" transform="translate(730.808 374.463)"/><path class="e" d="M294.71,12.625,196.348,238.647,191,236.089,289.129,10.3Z" transform="translate(919.137 249.353)"/><path class="e" d="M263.129,16.111H236.155a3.179,3.179,0,0,1-3.255-3.255h0A3.179,3.179,0,0,1,236.155,9.6h26.974a3.179,3.179,0,0,1,3.255,3.255h0A3.179,3.179,0,0,1,263.129,16.111Z" transform="translate(974.668 248.425)"/><g transform="translate(1116.23 319.352)"><path class="f" d="M239.269,37.663l-8.139,3.023s-3.255-6.976-10-3.953-3.488,9.534-3.488,9.534L210.2,49.29c-7.441,2.79-5.348,10.464-5.348,10.464l2.79,7.209L251.826,49.29l-2.79-7.209C246.245,35.105,239.269,37.663,239.269,37.663Zm-15.115,5.813a2.138,2.138,0,1,1,1.163-2.79A2.518,2.518,0,0,1,224.155,43.476Z" transform="translate(-179.091 -35.973)"/><g transform="translate(0 1.277)"><path class="g" d="M220.755,64.815c14.882-6.046,29.532-11.859,44.414-17.905,7.208-2.79,14.417-5.813,21.626-8.6,3.953-1.628,6.511-.465,8.139,3.488,14.882,37.205,30,74.643,44.879,111.848,1.628,4.186.7,6.743-3.488,8.371-29.3,11.859-58.6,23.486-88.13,35.345-3.72,1.4-6.278.233-7.674-3.255-15.115-37.438-30-74.875-45.111-112.546-1.628-3.953-.465-6.278,3.255-7.906C206.338,70.628,213.547,67.6,220.755,64.815Z" transform="translate(-192.201 -35.103)"/><path class="e" d="M294.957,183.431c-14.65,5.813-29.3,11.859-43.949,17.673-5.116,2.093-9.3.232-11.162-4.883L194.5,83.907c-2.093-5.348-.465-9.3,4.883-11.394,5.348-2.325,10.929-4.418,16.277-6.511l5.348-2.093,48.832-19.533,17.44-6.976c5.348-2.093,9.534-.465,11.627,5.116,14.882,37.205,30,74.643,44.879,111.848,2.325,5.581.465,9.534-4.883,11.859C324.256,171.8,309.607,177.617,294.957,183.431ZM223.337,68.792l-5.348,2.093c-5.348,2.093-10.929,4.418-16.277,6.511-2.325.93-2.79,1.86-1.86,4.418,15.115,37.438,30,74.876,45.111,112.546.93,2.325,1.86,2.79,4.186,1.86,29.3-11.859,58.6-23.486,88.13-35.345,2.558-1.163,3.023-2.093,1.86-4.651-14.882-37.205-30-74.643-44.879-111.848-1.163-2.79-2.093-3.023-4.651-2.093l-21.626,8.6Z" transform="translate(-193.62 -36.523)"/></g><path class="f" d="M245.937,69.555C236.4,73.276,227.1,77,217.568,80.949c-2.093.93-2.325,0-3.023-1.628s-.7-2.325,1.163-3.255c18.835-7.441,37.438-14.882,56.04-22.556,2.093-.93,2.325,0,3.023,1.628s.7,2.558-1.163,3.255C264.539,61.882,255.238,65.835,245.937,69.555Z" transform="translate(-166.458 -13.22)"/><path class="f" d="M252,85.235c-9.3,3.721-18.835,7.441-28.136,11.394-2.093.93-2.325,0-3.023-1.628s-.7-2.558,1.163-3.255c18.835-7.441,37.438-14.882,56.04-22.556,2.093-.93,2.325.233,3.023,1.628.7,1.628.7,2.325-1.163,3.255C270.839,77.562,261.538,81.515,252,85.235Z" transform="translate(-158.108 7.607)"/><path class="f" d="M258.293,101.023l-27.9,11.162c-1.86.7-2.558.233-3.255-1.4-.93-1.86-.233-2.558,1.628-3.255,18.6-7.441,37.205-14.882,55.575-22.323.7-.233,1.628-1.163,2.325-.465a12.157,12.157,0,0,1,1.4,3.721c.233.7-.93.7-1.628.93C277.128,93.349,267.827,97.3,258.293,101.023Z" transform="translate(-149.748 28.327)"/><path class="f" d="M242.353,61.735,214.449,72.9c-1.86.7-2.558.465-3.023-1.4-.465-1.628-.93-2.558,1.163-3.255,18.6-7.441,37.438-14.882,56.04-22.556,2.093-.93,2.558.233,3.255,1.628.7,1.628.465,2.325-1.163,3.023C261.188,54.062,251.887,57.782,242.353,61.735Z" transform="translate(-170.548 -23.538)"/><path class="f" d="M255.053,92.985c-9.3,3.721-18.6,7.441-27.9,11.394-2.093.93-2.558,0-3.023-1.628-.465-1.4-.93-2.325,1.163-3.023,18.835-7.441,37.67-15.115,56.505-22.556,2.093-.93,2.325.465,2.79,1.628.7,1.4.93,2.325-.93,3.023Q269,87.056,255.053,92.985Z" transform="translate(-153.716 18.227)"/><path class="f" d="M248.738,77.191c-9.3,3.721-18.6,7.441-27.9,11.394-2.093.93-2.325,0-3.023-1.628s-.465-2.325,1.163-3.023c18.6-7.441,37.438-14.882,56.04-22.556,1.86-.7,2.325-.233,3.023,1.4s.465,2.558-1.4,3.255Z" transform="translate(-162.051 -2.719)"/><path class="h" d="M222.28,102.053l-1.4-.7c-1.163-.465-2.558-1.163-3.721-1.628a1.709,1.709,0,0,1-.93-1.86,1.414,1.414,0,0,1,2.093-.93,3.305,3.305,0,0,0,1.4.465c3.953,1.628,3.953,1.628,5.581-2.325.233-.233.233-.465.465-.93.465-.93,1.163-1.628,2.325-1.163s.93,1.4.7,2.325c-.465,1.163-.93,2.325-1.4,3.255s-.465,1.628.7,2.093,2.325.93,3.721,1.4c.93.465,1.4.93,1.163,2.093-.465.93-1.163,1.163-2.325.93-1.628-.465-3.488-2.325-5.116-1.628-1.163.7-1.628,3.023-2.325,4.651a1.635,1.635,0,0,1-2.325.93,1.6,1.6,0,0,1-.7-2.093c.465-1.163,1.163-2.325,1.628-3.488A3.3,3.3,0,0,1,222.28,102.053Z" transform="translate(-163.729 39.389)"/><path class="h" d="M219.461,70.363a2.624,2.624,0,0,1-.233,1.86c-.465,1.163-.93,2.325-1.4,3.255s-.233,1.4.7,1.86a18,18,0,0,1,3.721,1.628c.93.465,1.4,1.163.93,2.093a1.632,1.632,0,0,1-2.093.93,16.031,16.031,0,0,1-3.488-1.628c-1.4-.7-1.86-.233-2.325.93a23.469,23.469,0,0,1-1.628,3.488,1.56,1.56,0,1,1-2.79-1.4c.465-1.628,2.325-3.488,1.628-4.883-.7-1.163-3.023-1.4-4.651-2.325-.93-.465-1.4-1.163-.93-2.093a1.9,1.9,0,0,1,2.325-.93,18,18,0,0,1,3.721,1.628c.93.465,1.4.233,1.628-.7a20.611,20.611,0,0,1,1.86-3.953,1.557,1.557,0,0,1,1.628-.93A2.381,2.381,0,0,1,219.461,70.363Z" transform="translate(-176.257 8.063)"/><path class="h" d="M228.419,97.774a2.811,2.811,0,0,1-2.325-.7c-3.953-1.628-3.953-1.628-5.581,2.093a3.929,3.929,0,0,0-.465,1.163,1.635,1.635,0,0,1-2.325.93,1.379,1.379,0,0,1-.7-2.093c.7-1.628,2.093-3.488,1.86-4.883-.465-1.4-3.023-1.4-4.651-2.325a1.635,1.635,0,0,1-.93-2.325,1.612,1.612,0,0,1,2.325-.7c1.628.7,3.488,2.325,4.883,1.628,1.163-.465,1.4-2.79,2.325-4.418.465-.93,1.163-1.628,2.325-1.163s.93,1.4.7,2.325c-.465,1.628-2.325,3.488-1.628,4.651s3.023,1.4,4.418,2.093c.7.233,1.4.7,1.163,1.628C229.349,97.076,228.884,97.541,228.419,97.774Z" transform="translate(-167.775 28.786)"/><path class="i" d="M217.191,63.447a2.624,2.624,0,0,1-.233,1.86l-3.488,9.069c-.465,1.163-.93,1.4-1.86.93l-6.278-2.79c-1.163-.465-2.093-1.4-1.4-2.558.7-1.4,1.86-1.163,3.023-.7,1.4.465,3.255,1.86,3.953,1.4,1.163-.7,1.4-2.558,1.86-3.953.465-.93.7-2.093,1.163-3.023a1.709,1.709,0,0,1,1.86-.93A.975.975,0,0,1,217.191,63.447Z" transform="translate(-180.266 -0.602)"/><path class="j" d="M201.964,61.061c1.163-.465,2.325.7,3.721,1.163,1.628.7,2.325.7,3.023-1.163a41.914,41.914,0,0,1,1.86-4.883c.465-1.163,1.163-1.86,2.558-1.4a1.778,1.778,0,0,1,.93,2.558c-1.163,3.023-2.558,6.278-3.721,9.534-.233.93-.7.93-1.4.7-2.325-.93-4.651-2.093-6.976-3.023a1.768,1.768,0,0,1-1.163-2.093C200.336,61.992,200.8,61.526,201.964,61.061Z" transform="translate(-184.339 -11.237)"/><path class="j" d="M223.491,79.463a3.283,3.283,0,0,1-.233,2.093c-1.163,3.023-2.325,5.813-3.488,8.836-.233.93-.7,1.4-1.628.93-2.093-.93-4.418-1.86-6.511-2.79-1.163-.465-2.093-1.4-1.4-2.79s1.86-1.163,3.023-.7c1.4.465,2.79,2.093,4.186,1.163.93-.7,1.163-2.558,1.628-3.953.465-.93.7-2.093,1.163-3.023a2.115,2.115,0,0,1,1.86-.93A2.381,2.381,0,0,1,223.491,79.463Z" transform="translate(-171.916 20.123)"/></g><g transform="translate(818.822 369.78)"><rect class="k" width="108.825" height="108.593"/><rect class="l" width="24.648" height="24.648" transform="translate(42.088 13.719)"/></g><g transform="translate(933.39 400.242)"><rect class="k" width="78.363" height="78.363"/><rect class="l" width="17.905" height="17.905" transform="translate(30.229 11.394)"/></g><g transform="translate(1013.171 400.242)"><rect class="k" width="78.363" height="78.363"/><rect class="l" width="17.905" height="17.905" transform="translate(30.229 11.394)"/></g><g transform="translate(933.39 321.553)"><rect class="k" width="78.363" height="78.363"/><rect class="l" width="17.905" height="17.905" transform="translate(30.229 11.627)"/></g><g transform="translate(972.71 242.864)"><rect class="k" width="78.363" height="78.363"/><rect class="l" width="17.905" height="17.905" transform="translate(30.229 11.627)"/></g><g transform="translate(1013.171 321.553)"><rect class="k" width="78.363" height="78.363"/><rect class="l" width="17.905" height="17.905" transform="translate(30.229 11.627)"/></g></g></svg>