<svg xmlns="http://www.w3.org/2000/svg" viewBox="0 0 364.771 201"><defs><style>.a{fill:#dddde1;opacity:0.33;}.b,.d,.o{fill:#fff;}.b,.d,.e,.o{stroke:#26263a;stroke-miterlimit:10;}.c{fill:#f3f3ff;}.d,.e,.o{stroke-linecap:round;}.d,.e{stroke-width:2px;}.e,.h,.r{fill:none;}.f{fill:#28283c;font-size:14px;font-family:Roboto-Medium, Roboto;font-weight:500;}.g,.p{fill:#e34b26;}.g,.l{font-size:9px;}.g,.k{font-family:Calibri-Bold, Calibri;font-weight:700;}.h{stroke:#acacb3;}.h,.j{stroke-width:0.25px;}.i{fill:#dedede;}.j{fill:#f4f4f4;stroke:#707070;opacity:0.19;}.k,.l,.m{fill:#4b4c4f;}.k,.m{font-size:8px;}.l,.m{font-family:Calibri;}.n{fill:#5f6b72;opacity:0.15;}.q{stroke:none;}</style></defs><g transform="translate(-2910 -1166)"><path class="a" d="M600.142,111.361H560.5c-5.26,0-10.263-1.285-14.112-5.14-4.875-4.883-6.158-11.05-5.773-17.6.513-7.581,4.875-12.207,11.674-14.776a31.71,31.71,0,0,1,6.671-1.67c1.283-.128,1.539-.771,1.668-1.8a28.594,28.594,0,0,1,4.747-12.207,22.514,22.514,0,0,1,16.293-10.279c8.339-1.285,15.908.514,22.066,6.424a19.853,19.853,0,0,1,3.079,3.469,1.916,1.916,0,0,0,2.694.771c8.083-3.212,15.78-2.827,22.965,2.57,5.388,4.112,7.7,9.765,7.7,16.447,0,.9,0,1.542,1.155,1.8,11.418,2.7,14.369,12.721,11.931,21.972-1.8,6.681-6.543,10.022-13.342,10.022Z" transform="translate(2369.45 1118.506)"/><path class="b" d="M633.205,243.228H406.9a7.726,7.726,0,0,1-7.7-7.709V91.609a7.726,7.726,0,0,1,7.7-7.709H633.205a7.726,7.726,0,0,1,7.7,7.709V235.518A7.726,7.726,0,0,1,633.205,243.228Z" transform="translate(2578.583 1121.694)"/><path class="c" d="M630.885,85.3H409.452a8.877,8.877,0,0,0-8.852,8.866V233.577a8.877,8.877,0,0,0,8.852,8.866H630.885a8.877,8.877,0,0,0,8.852-8.866V94.166A8.877,8.877,0,0,0,630.885,85.3ZM631.4,226a9.016,9.016,0,0,1-9.109,8.866H417.919A9.016,9.016,0,0,1,408.811,226V101.49a9.016,9.016,0,0,1,9.109-8.866h204.5a9.016,9.016,0,0,1,9.109,8.866V226Z" transform="translate(2578.979 1122.093)"/><line class="d" x2="296" transform="translate(2949.056 1366)"/><line class="e" x2="18.731" transform="translate(3255.04 1366)"/><text class="f" transform="translate(2994.18 1231.142)"><tspan x="0" y="0">Inventory Report</tspan></text><text class="g" transform="translate(3181.18 1266.142)"><tspan x="0" y="0">in USD</tspan></text><line class="h" x2="211.778" transform="translate(2994.328 1236.992)"/><rect class="i" width="212.066" height="14.836" transform="translate(2994.06 1270.018)"/><g class="j" transform="translate(2994.546 1244.923)"><rect class="q" width="42.978" height="14.719" rx="2"/><rect class="r" x="0.125" y="0.125" width="42.728" height="14.469" rx="1.875"/></g><g class="j" transform="translate(3043.412 1244.923)"><rect class="q" width="54.164" height="14.719" rx="2"/><rect class="r" x="0.125" y="0.125" width="53.914" height="14.469" rx="1.875"/></g><text class="k" transform="translate(2997.853 1280.249)"><tspan x="0" y="0">Voucher Type</tspan></text><text class="k" transform="translate(3098 1280.249)"><tspan x="-23.227" y="0">Inward</tspan></text><text class="k" transform="translate(3197 1280.249)"><tspan x="-26.98" y="0">Clo. Bal.</tspan></text><text class="k" transform="translate(3147 1280.249)"><tspan x="-29.34" y="0">Outward</tspan></text><text class="l" transform="translate(2997.853 1295.576)"><tspan x="0" y="0">Sales a/c</tspan></text><text class="l" transform="translate(3098 1295.576)"><tspan x="-25.053" y="0">10,500</tspan></text><text class="l" transform="translate(3197 1295.576)"><tspan x="-25.053" y="0">13,500</tspan></text><text class="l" transform="translate(3147 1295.576)"><tspan x="-18.246" y="0">5000</tspan></text><text class="l" transform="translate(2997.853 1312.594)"><tspan x="0" y="0">Purchase a/c</tspan></text><text class="l" transform="translate(3098 1312.594)"><tspan x="-18.246" y="0">5600</tspan></text><text class="l" transform="translate(3197 1312.594)"><tspan x="-18.246" y="0">5600</tspan></text><text class="l" transform="translate(3147 1311.593)"><tspan x="-4.562" y="0">0</tspan></text><text class="l" transform="translate(2997.853 1329.611)"><tspan x="0" y="0">Sales a/c</tspan></text><text class="l" transform="translate(3098 1329.611)"><tspan x="-25.053" y="0">12,654</tspan></text><text class="l" transform="translate(3197 1329.611)"><tspan x="-25.053" y="0">16,654</tspan></text><text class="l" transform="translate(3147 1329.611)"><tspan x="-18.246" y="0">4000</tspan></text><text class="l" transform="translate(2997.853 1346.629)"><tspan x="0" y="0">Sales a/c</tspan></text><text class="l" transform="translate(3098 1346.629)"><tspan x="-25.053" y="0">13,000</tspan></text><text class="l" transform="translate(3197 1346.629)"><tspan x="-25.053" y="0">13,000</tspan></text><text class="l" transform="translate(3147 1345.629)"><tspan x="-4.562" y="0">0</tspan></text><text class="m" transform="translate(2996.621 1254.874)"><tspan x="0" y="0">Date Range</tspan></text><text class="m" transform="translate(3045.487 1254.874)"><tspan x="0" y="0">Last 6 months</tspan></text><g transform="translate(3104.017 1244.923)"><rect class="i" width="31.203" height="14.719" rx="2" transform="translate(0 0)"/><text class="m" transform="translate(6.654 9.951)"><tspan x="0" y="0">Apply</tspan></text></g><ellipse class="n" cx="30.47" cy="29.358" rx="30.47" ry="29.358" transform="translate(3177.483 1181.014)"/><ellipse class="o" cx="28.413" cy="28.457" rx="28.413" ry="28.457" transform="translate(3181.5 1178.5)"/><g transform="translate(3192.266 1190.085)"><path class="p" d="M56.25,181.017a14.914,14.914,0,0,0,15.532.919c6.859-3.822,9.275-9.769,7.882-17.422.4-.107.857-.23,1.319-.353.445-.123.9-.238,1.344-.361a17.779,17.779,0,0,1-5,17.759,18.268,18.268,0,0,1-23.06,1.69c-.61.615-1.22,1.23-1.913,1.936-.528-2.641-1.039-5.159-1.558-7.735,2.58.517,5.1,1.009,7.552,1.5C57.676,179.606,56.983,180.3,56.25,181.017Z" transform="translate(-46.611 -150.364)"/><path class="p" d="M28.328,3.044c.734-.738,1.459-1.46,2.234-2.239.519,2.559,1.022,5.069,1.542,7.653-2.564-.509-5.1-1.009-7.708-1.526.651-.6,1.253-1.148,1.847-1.7l-.1-.172c-5.054-2.772-10.256-3.15-15.3-.23-6.62,3.839-8.9,9.753-7.5,17.209-.857.23-1.773.476-2.679.714A17.8,17.8,0,0,1,6.06,4.627,18.256,18.256,0,0,1,28.328,3.044Z" transform="translate(0.009 0.009)"/></g></g></svg>