<svg xmlns="http://www.w3.org/2000/svg" viewBox="0 0 364.771 201"><defs><style>.a{fill:#dddde1;opacity:0.33;}.b,.e,.l,.o{fill:#fff;}.b,.e,.f,.l{stroke:#26263a;stroke-miterlimit:10;}.c{fill:#f5f5f5;}.d{fill:#f3f3ff;}.e,.f,.l{stroke-linecap:round;}.e,.f{stroke-width:2px;}.f,.g,.n,.s{fill:none;}.g{stroke:#dddde1;}.h,.i{fill:#28283c;}.h{font-size:14px;font-family:Roboto-Medium, Roboto;font-weight:500;}.i,.j{font-size:11px;}.i,.j,.o,.p{font-family:Calibri;}.j,.q{fill:#e34b26;}.k{fill:#5f6b72;opacity:0.15;}.m{fill:#2bab1d;}.n{stroke:#ccc;stroke-width:0.75px;}.o,.p{font-size:10px;}.p{fill:#666;}.r{stroke:none;}</style></defs><g transform="translate(-150 -1508)"><path class="a" d="M600.142,111.361H560.5c-5.26,0-10.263-1.285-14.112-5.14-4.875-4.883-6.158-11.05-5.773-17.6.513-7.581,4.875-12.207,11.674-14.776a31.71,31.71,0,0,1,6.671-1.67c1.283-.128,1.539-.771,1.668-1.8a28.594,28.594,0,0,1,4.747-12.207,22.514,22.514,0,0,1,16.293-10.279c8.339-1.285,15.908.514,22.066,6.424a19.853,19.853,0,0,1,3.079,3.469,1.916,1.916,0,0,0,2.694.771c8.083-3.212,15.78-2.827,22.965,2.57,5.388,4.112,7.7,9.765,7.7,16.447,0,.9,0,1.542,1.155,1.8,11.418,2.7,14.369,12.721,11.931,21.972-1.8,6.681-6.543,10.022-13.342,10.022Z" transform="translate(-390.55 1460.506)"/><path class="b" d="M633.205,243.228H406.9a7.726,7.726,0,0,1-7.7-7.709V91.609a7.726,7.726,0,0,1,7.7-7.709H633.205a7.726,7.726,0,0,1,7.7,7.709V235.518A7.726,7.726,0,0,1,633.205,243.228Z" transform="translate(-180.417 1463.694)"/><rect class="c" width="219" height="20" transform="translate(230 1607)"/><path class="d" d="M630.885,85.3H409.452a8.877,8.877,0,0,0-8.852,8.866V233.577a8.877,8.877,0,0,0,8.852,8.866H630.885a8.877,8.877,0,0,0,8.852-8.866V94.166A8.877,8.877,0,0,0,630.885,85.3ZM631.4,226a9.016,9.016,0,0,1-9.109,8.866H417.919A9.016,9.016,0,0,1,408.811,226V101.49a9.016,9.016,0,0,1,9.109-8.866h204.5a9.016,9.016,0,0,1,9.109,8.866V226Z" transform="translate(-180.931 1464.093)"/><line class="e" x2="296" transform="translate(189.055 1708)"/><line class="f" x2="18.731" transform="translate(495.04 1708)"/><line class="g" y1="0.898" x2="202.609" transform="translate(233.552 1581.882)"/><text class="h" transform="translate(234.013 1575.458)"><tspan x="0" y="0">Create Custom Unit</tspan></text><text class="i" transform="translate(238.013 1600.458)"><tspan x="0" y="0">25,00 Kilogram (Kg)</tspan></text><text class="j" transform="translate(238.013 1620.458)"><tspan x="0" y="0">12:10:22 Hour (Hr)</tspan></text><text class="i" transform="translate(238.013 1640.458)"><tspan x="0" y="0">56 Number (Nos)</tspan></text><text class="i" transform="translate(238.013 1660.458)"><tspan x="0" y="0">56 Quintal (Qtl)</tspan></text><ellipse class="k" cx="30.47" cy="29.358" rx="30.47" ry="29.358" transform="translate(410.038 1536.014)"/><ellipse class="l" cx="28.413" cy="28.457" rx="28.413" ry="28.457" transform="translate(414.056 1533.5)"/><rect class="m" width="58" height="21" rx="2" transform="translate(238 1671)"/><g class="n" transform="translate(299 1671)"><rect class="r" width="49" height="21" rx="2"/><rect class="s" x="0.375" y="0.375" width="48.25" height="20.25" rx="1.625"/></g><text class="o" transform="translate(244 1684.954)"><tspan x="0" y="0">Create New</tspan></text><text class="p" transform="translate(309 1684.954)"><tspan x="0" y="0">Cancel</tspan></text><g transform="translate(428.067 592.967)"><path class="q" d="M3.5,1067.2.03,1082.467a1.1,1.1,0,0,0,1.018,1.284H30.2a1.091,1.091,0,0,0,1.018-1.284L27.749,1067.2a1.062,1.062,0,0,0-1.018-.8H21.872a1.041,1.041,0,1,0,0,2.083H25.9l3,13.188H2.367l3-13.188H9.378a1.041,1.041,0,1,0,0-2.083H4.519a1.084,1.084,0,0,0-1.018.8Z" transform="translate(0 -100.809)"/><path class="q" d="M81.955,978.777a1.254,1.254,0,0,1-.717-.278l-5.9-5.553a1.2,1.2,0,0,1-.093-1.516,1.075,1.075,0,0,1,1.516.012l4.142,3.91V953.441a1.041,1.041,0,0,1,2.082,0v21.9l4.142-3.91a1.146,1.146,0,0,1,1.516-.012,1.161,1.161,0,0,1-.093,1.516l-5.9,5.553a.909.909,0,0,1-.694.289Z" transform="translate(-66.331)"/></g></g></svg>