<svg xmlns="http://www.w3.org/2000/svg" viewBox="0 0 364.771 201"><defs><style>.a{fill:#dddde1;opacity:0.33;}.b,.d,.i,.k{fill:#fff;}.b,.d,.e,.i{stroke:#26263a;stroke-miterlimit:10;}.c{fill:#f3f3ff;}.d,.e,.i{stroke-linecap:round;}.d,.e{stroke-width:2px;}.e,.f,.p{fill:none;}.f{stroke:#dddde1;}.g{fill:#28283c;font-size:14px;font-family:Roboto-Medium, Roboto;font-weight:500;}.h{fill:#5f6b72;opacity:0.15;}.j,.n{fill:#e34b26;}.k,.l{stroke:#ccc;stroke-width:0.5px;}.l{fill:#ccc;opacity:0.52;}.m{fill:#666;}.m,.n{font-size:10px;font-family:Calibri;}.o{stroke:none;}</style></defs><g transform="translate(-3083 -1961)"><path class="a" d="M600.142,111.361H560.5c-5.26,0-10.263-1.285-14.112-5.14-4.875-4.883-6.158-11.05-5.773-17.6.513-7.581,4.875-12.207,11.674-14.776a31.71,31.71,0,0,1,6.671-1.67c1.283-.128,1.539-.771,1.668-1.8a28.594,28.594,0,0,1,4.747-12.207,22.514,22.514,0,0,1,16.293-10.279c8.339-1.285,15.908.514,22.066,6.424a19.853,19.853,0,0,1,3.079,3.469,1.916,1.916,0,0,0,2.694.771c8.083-3.212,15.78-2.827,22.965,2.57,5.388,4.112,7.7,9.765,7.7,16.447,0,.9,0,1.542,1.155,1.8,11.418,2.7,14.369,12.721,11.931,21.972-1.8,6.681-6.543,10.022-13.342,10.022Z" transform="translate(2542.45 1913.506)"/><path class="b" d="M633.205,243.228H406.9a7.726,7.726,0,0,1-7.7-7.709V91.609a7.726,7.726,0,0,1,7.7-7.709H633.205a7.726,7.726,0,0,1,7.7,7.709V235.518A7.726,7.726,0,0,1,633.205,243.228Z" transform="translate(2752.583 1916.694)"/><path class="c" d="M630.885,85.3H409.452a8.877,8.877,0,0,0-8.852,8.866V233.577a8.877,8.877,0,0,0,8.852,8.866H630.885a8.877,8.877,0,0,0,8.852-8.866V94.166A8.877,8.877,0,0,0,630.885,85.3ZM631.4,226a9.016,9.016,0,0,1-9.109,8.866H417.919A9.016,9.016,0,0,1,408.811,226V101.49a9.016,9.016,0,0,1,9.109-8.866h204.5a9.016,9.016,0,0,1,9.109,8.866V226Z" transform="translate(2752.069 1917.093)"/><line class="d" x2="296" transform="translate(3122.055 2161)"/><line class="e" x2="18.731" transform="translate(3428.04 2161)"/><line class="f" y1="0.898" x2="202.609" transform="translate(3166.552 2034.882)"/><text class="g" transform="translate(3167.013 2028.458)"><tspan x="0" y="0">Branch Transfer</tspan></text><ellipse class="h" cx="30.47" cy="29.358" rx="30.47" ry="29.358" transform="translate(3343.038 1989.014)"/><ellipse class="i" cx="28.413" cy="28.457" rx="28.413" ry="28.457" transform="translate(3347.055 1986.5)"/><path class="j" d="M20.213,8.951V22.907H14.8V8.951H1.211V3.832H14.8v-13.92h5.413V3.832H33.838V8.951Z" transform="translate(3359.765 2009.096)"/><g class="k" transform="translate(3180 2050)"><rect class="o" width="50" height="35" rx="2"/><rect class="p" x="0.25" y="0.25" width="49.5" height="34.5" rx="1.75"/></g><g class="k" transform="translate(3245 2050)"><rect class="o" width="50" height="35" rx="2"/><rect class="p" x="0.25" y="0.25" width="49.5" height="34.5" rx="1.75"/></g><g class="k" transform="translate(3310 2051)"><rect class="o" width="50" height="35" rx="2"/><rect class="p" x="0.25" y="0.25" width="49.5" height="34.5" rx="1.75"/></g><g class="k" transform="translate(3180 2100)"><rect class="o" width="50" height="35" rx="2"/><rect class="p" x="0.25" y="0.25" width="49.5" height="34.5" rx="1.75"/></g><g class="l" transform="translate(3245 2100)"><rect class="o" width="50" height="35" rx="2"/><rect class="p" x="0.25" y="0.25" width="49.5" height="34.5" rx="1.75"/></g><g class="k" transform="translate(3310 2100)"><rect class="o" width="50" height="35" rx="2"/><rect class="p" x="0.25" y="0.25" width="49.5" height="34.5" rx="1.75"/></g><text class="m" transform="translate(3205 2072)"><tspan x="-17.788" y="0">Branch 1</tspan></text><text class="m" transform="translate(3270 2072)"><tspan x="-17.788" y="0">Branch 2</tspan></text><text class="m" transform="translate(3335 2067)"><tspan x="-8.56" y="0">Trial</tspan><tspan x="-15.886" y="10">Balance</tspan></text><text class="m" transform="translate(3205 2122)"><tspan x="-17.788" y="0">Branch 4</tspan></text><text class="n" transform="translate(3270 2122)"><tspan x="-17.788" y="0">Branch 5</tspan></text><text class="m" transform="translate(3335 2116)"><tspan x="-11.768" y="0">+ Add</tspan><tspan x="-14.124" y="10">Branch</tspan></text></g></svg>