<svg xmlns="http://www.w3.org/2000/svg" viewBox="0 0 364.771 201"><defs><style>.a{fill:#dddde1;opacity:0.33;}.b,.d,.h{fill:#fff;}.b,.d,.e{stroke:#26263a;stroke-miterlimit:10;}.c{fill:#f3f3ff;}.d,.e{stroke-linecap:round;stroke-width:2px;}.e,.i{fill:none;}.f,.j{fill:#28283c;}.f,.h,.k,.m{font-size:7px;}.f,.h,.p{font-family:Roboto-Regular, Roboto;}.g{fill:#e34b26;}.i{stroke:#dddde1;}.j,.p{font-size:14px;}.j{font-family:Roboto-Medium, Roboto;font-weight:500;}.k{fill:#262626;}.k,.n{font-family:Calibri;}.l{fill:#dedede;}.m,.n{fill:#4b4c4f;}.m{font-family:Calibri-Bold, Calibri;font-weight:700;}.n{font-size:6px;}.o{fill:#26263a;}.p{fill:#f4f5f9;}</style></defs><g transform="translate(-2830 -2654)"><path class="a" d="M600.142,111.361H560.5c-5.26,0-10.263-1.285-14.112-5.14-4.875-4.883-6.158-11.05-5.773-17.6.513-7.581,4.875-12.207,11.674-14.776a31.71,31.71,0,0,1,6.671-1.67c1.283-.128,1.54-.771,1.668-1.8a28.594,28.594,0,0,1,4.747-12.207,22.514,22.514,0,0,1,16.293-10.279c8.339-1.285,15.908.514,22.066,6.424a19.853,19.853,0,0,1,3.079,3.469,1.916,1.916,0,0,0,2.694.771c8.083-3.212,15.78-2.827,22.965,2.57,5.388,4.112,7.7,9.765,7.7,16.447,0,.9,0,1.542,1.155,1.8,11.418,2.7,14.369,12.721,11.931,21.972-1.8,6.681-6.543,10.022-13.342,10.022Z" transform="translate(2289.45 2606.506)"/><path class="b" d="M633.205,243.228H406.9a7.726,7.726,0,0,1-7.7-7.709V91.609a7.726,7.726,0,0,1,7.7-7.709H633.205a7.726,7.726,0,0,1,7.7,7.709V235.518A7.726,7.726,0,0,1,633.205,243.228Z" transform="translate(2499.583 2609.695)"/><path class="c" d="M630.885,85.3H409.452a8.877,8.877,0,0,0-8.852,8.866V233.577a8.877,8.877,0,0,0,8.852,8.866H630.885a8.877,8.877,0,0,0,8.852-8.866V94.166A8.877,8.877,0,0,0,630.885,85.3ZM631.4,226a9.016,9.016,0,0,1-9.109,8.866H417.919A9.016,9.016,0,0,1,408.811,226V101.49a9.016,9.016,0,0,1,9.109-8.866h204.5a9.016,9.016,0,0,1,9.109,8.866V226Z" transform="translate(2499.979 2610.094)"/><line class="d" x2="296" transform="translate(2869.056 2854)"/><line class="e" x2="18.731" transform="translate(3175.04 2854)"/><text class="f" transform="translate(2917.74 2741)"><tspan x="0" y="0">To,</tspan><tspan x="0" y="10">ABC Ltd.</tspan><tspan x="0" y="20">Indore</tspan></text><text class="f" transform="translate(2955.593 2751.899)"><tspan x="0" y="0">Inv#434</tspan><tspan x="0" y="10">Due Date 05/10//18</tspan></text><rect class="g" width="49.308" height="17.06" rx="2" transform="translate(3071.938 2740.035)"/><text class="h" transform="translate(3080.904 2751.621)"><tspan x="0" y="0">Due: 4000</tspan></text><line class="i" y1="0.898" x2="202.609" transform="translate(2918.188 2765.882)"/><text class="j" transform="translate(2917.74 2723.458)"><tspan x="0" y="0">GST INVOICE</tspan></text><g transform="translate(549.556 1844.753)"><text class="k" transform="translate(2406.408 896.247)"><tspan x="0" y="0">GSTIN:</tspan></text><text class="k" transform="translate(2426.889 896.247)"><tspan x="0" y="0">11AAAAAA000A1Z0</tspan></text></g><rect class="l" width="202.182" height="11.89" transform="translate(2918.616 2773.856)"/><text class="m" transform="translate(2924.138 2782.446)"><tspan x="0" y="0">Product</tspan></text><text class="m" transform="translate(3007 2782.446)"><tspan x="-12.335" y="0">HSN</tspan></text><text class="m" transform="translate(3100 2782.446)"><tspan x="0" y="0">Total</tspan></text><text class="m" transform="translate(3050 2782.446)"><tspan x="0" y="0">Rate</tspan></text><text class="m" transform="translate(3076 2782.446)"><tspan x="0" y="0">GST</tspan></text><text class="m" transform="translate(3026.556 2782.446)"><tspan x="0" y="0">Qty.</tspan></text><text class="n" transform="translate(2924.138 2796.135)"><tspan x="0" y="0">Sample 1</tspan></text><text class="n" transform="translate(3007 2796.135)"><tspan x="-18.246" y="0">123141</tspan></text><text class="n" transform="translate(3114 2795.135)"><tspan x="-9.123" y="0">500</tspan></text><text class="n" transform="translate(3063 2795.135)"><tspan x="-9.123" y="0">100</tspan></text><text class="n" transform="translate(3087 2795.135)"><tspan x="-6.082" y="0">10</tspan></text><text class="n" transform="translate(3035.556 2796.135)"><tspan x="-3.041" y="0">5</tspan></text><text class="n" transform="translate(2924.138 2809.774)"><tspan x="0" y="0">Sample 2</tspan></text><text class="n" transform="translate(3007 2809.774)"><tspan x="-18.246" y="0">123141</tspan></text><text class="n" transform="translate(3114 2808.774)"><tspan x="-9.123" y="0">100</tspan></text><text class="n" transform="translate(3063 2809.774)"><tspan x="-6.082" y="0">50</tspan></text><text class="n" transform="translate(3087 2809.774)"><tspan x="-3.041" y="0">9</tspan></text><text class="n" transform="translate(3035.556 2809.774)"><tspan x="-3.041" y="0">2</tspan></text><text class="n" transform="translate(2924.138 2822.413)"><tspan x="0" y="0">Sample 3</tspan></text><text class="n" transform="translate(3007 2823.413)"><tspan x="-18.246" y="0">123141</tspan></text><text class="n" transform="translate(3114 2823.413)"><tspan x="-12.164" y="0">1000</tspan></text><text class="n" transform="translate(3063 2823.413)"><tspan x="-12.164" y="0">1000</tspan></text><text class="n" transform="translate(3087 2823.413)"><tspan x="-9.123" y="0">230</tspan></text><text class="n" transform="translate(3035.556 2823.413)"><tspan x="-3.041" y="0">1</tspan></text><text class="n" transform="translate(2924.138 2836.052)"><tspan x="0" y="0">Sample 4</tspan></text><text class="n" transform="translate(3007 2837.052)"><tspan x="-18.246" y="0">123141</tspan></text><text class="n" transform="translate(3114 2836.052)"><tspan x="-9.123" y="0">500</tspan></text><text class="n" transform="translate(3063 2836.052)"><tspan x="-9.123" y="0">100</tspan></text><text class="n" transform="translate(3087 2836.052)"><tspan x="-6.082" y="0">18</tspan></text><text class="n" transform="translate(3035.556 2837.052)"><tspan x="-3.041" y="0">5</tspan></text><g transform="translate(2721 1217)"><path class="o" d="M45.73,65.059c-1.135-.14-2.27-.218-3.39-.451a4.671,4.671,0,0,0-3.778.871c-.715.482-1.415,1-2.13,1.462a5.421,5.421,0,0,1-6.266.016,19.449,19.449,0,0,1-1.664-1.12,5.9,5.9,0,0,0-5.333-1.12A14.682,14.682,0,0,1,20.7,65a4.747,4.747,0,0,1-4.245-2.208,19.335,19.335,0,0,1-1.493-2.5,5.391,5.391,0,0,0-3.545-2.814,25.08,25.08,0,0,1-2.768-.917,5.23,5.23,0,0,1-3.234-4.68c-.109-.917-.124-1.835-.187-2.752a4.372,4.372,0,0,0-1.384-2.939c-.7-.669-1.446-1.306-2.146-1.99A5.276,5.276,0,0,1,.373,38.1c.264-.669.529-1.337.809-2.006a5.434,5.434,0,0,0,0-4.509A22.475,22.475,0,0,1,.031,28.13a4.545,4.545,0,0,1,1.415-4.385,12.115,12.115,0,0,1,1.446-1.384A6.226,6.226,0,0,0,5.4,17a13.278,13.278,0,0,1,.311-2.472,4.8,4.8,0,0,1,3.421-3.638c1-.327,1.99-.684,3-.964a4.464,4.464,0,0,0,2.628-2.177c.466-.777.9-1.586,1.368-2.379a5.2,5.2,0,0,1,5.582-2.628c.933.124,1.866.28,2.8.42a4.813,4.813,0,0,0,3.53-.98c.731-.5,1.462-1.026,2.208-1.493a5.353,5.353,0,0,1,6.173.078c.98.622,1.944,1.291,2.939,1.9a4.284,4.284,0,0,0,3.063.451c.871-.14,1.741-.311,2.628-.42A5.288,5.288,0,0,1,50.5,5.444c.5.824,1,1.679,1.477,2.519a4.469,4.469,0,0,0,2.706,2.068c.948.3,1.913.575,2.845.917A5.267,5.267,0,0,1,61.123,15.8c.078.824.124,1.664.171,2.5a5.062,5.062,0,0,0,1.9,3.67A22.962,22.962,0,0,1,65.2,23.854a4.874,4.874,0,0,1,1.135,5.178,21.687,21.687,0,0,1-.84,2.177,5.78,5.78,0,0,0-.031,5.131A16.494,16.494,0,0,1,66.488,39.4a4.692,4.692,0,0,1-1.4,4.494c-.809.84-1.664,1.648-2.519,2.441a4.388,4.388,0,0,0-1.306,2.97,30.7,30.7,0,0,1-.5,3.965,4.659,4.659,0,0,1-3.374,3.483c-.948.311-1.9.622-2.861.9a4.827,4.827,0,0,0-2.83,2.317c-.591.98-1.135,1.975-1.773,2.923A4.569,4.569,0,0,1,45.73,65.059Z" transform="translate(382.423 1448.055)"/><text class="p" transform="translate(416.532 1479.933)"><tspan x="-13.238" y="0">GST</tspan><tspan x="-19.688" y="15">Ready</tspan></text></g></g></svg>