<svg xmlns="http://www.w3.org/2000/svg" viewBox="0 0 487.127 171"><defs><style>.a{fill:#dddde1;opacity:0.33;}.b,.d,.g{fill:#fff;}.b,.f,.g{stroke:#26263a;}.b,.g{stroke-miterlimit:10;}.c{fill:#f3f3ff;}.e{fill:#26263a;font-size:12px;font-family:Roboto-Regular, Roboto;}.f{fill:none;}.g{stroke-linecap:round;stroke-width:2px;}.h{fill:#e34b26;}.i{fill:#207245;}.j{fill:#0aae0f;}</style></defs><g transform="translate(-1476 -2212)"><path class="a" d="M611.451,123.365H564.285c-6.258,0-12.211-1.526-16.79-6.106-5.8-5.8-7.327-13.127-6.869-20.912.611-9.006,5.8-14.5,13.89-17.554a37.776,37.776,0,0,1,7.937-1.984c1.526-.153,1.832-.916,1.984-2.137a33.938,33.938,0,0,1,5.648-14.5,26.791,26.791,0,0,1,19.385-12.211c9.922-1.526,18.927.611,26.254,7.632a23.6,23.6,0,0,1,3.663,4.121,2.281,2.281,0,0,0,3.205.916c9.616-3.816,18.775-3.358,27.323,3.053,6.411,4.884,9.158,11.6,9.158,19.538,0,1.068,0,1.832,1.374,2.137,13.585,3.205,17.1,15.111,14.2,26.1-2.137,7.937-7.785,11.906-15.875,11.906Z" transform="translate(935.45 2164.506)"/><path class="b" d="M111.447,112.5H1.55A1.03,1.03,0,0,1,.5,111.451V1.547A1.03,1.03,0,0,1,1.55.5h109.9a1.03,1.03,0,0,1,1.05,1.047v109.9A1.03,1.03,0,0,1,111.447,112.5Z" transform="translate(1505.637 2268.969)"/><path class="b" d="M111.447,112.5H1.55A1.03,1.03,0,0,1,.5,111.451V1.547A1.03,1.03,0,0,1,1.55.5h109.9a1.03,1.03,0,0,1,1.05,1.047v109.9A1.03,1.03,0,0,1,111.447,112.5Z" transform="translate(1660.3 2268.969)"/><path class="b" d="M111.447,112.5H1.55A1.03,1.03,0,0,1,.5,111.451V1.547A1.03,1.03,0,0,1,1.55.5h109.9a1.03,1.03,0,0,1,1.05,1.047v109.9A1.03,1.03,0,0,1,111.447,112.5Z" transform="translate(1814.3 2268.969)"/><path class="c" d="M110.391,111.431H1.54A1.02,1.02,0,0,1,.5,110.394V1.537A1.02,1.02,0,0,1,1.54.5H110.391a1.02,1.02,0,0,1,1.04,1.037V110.394A1.02,1.02,0,0,1,110.391,111.431Z" transform="translate(1506.17 2269.502)"/><path class="d" d="M103.726,104.7H1.477a.958.958,0,0,1-.977-.974V1.474A.958.958,0,0,1,1.477.5H103.726a.958.958,0,0,1,.977.974V103.729A.958.958,0,0,1,103.726,104.7Z" transform="translate(1509.5 2272.866)"/><text class="e" transform="translate(1561.203 2350)"><tspan x="-26.722" y="0">Save data</tspan><tspan x="-36.853" y="15">in .csv (excel)</tspan></text><path class="c" d="M110.391,111.431H1.54A1.02,1.02,0,0,1,.5,110.394V1.537A1.02,1.02,0,0,1,1.54.5H110.391a1.02,1.02,0,0,1,1.04,1.037V110.394A1.02,1.02,0,0,1,110.391,111.431Z" transform="translate(1660.833 2269.502)"/><path class="d" d="M103.726,104.7H1.477a.958.958,0,0,1-.977-.974V1.474A.958.958,0,0,1,1.477.5H103.726a.958.958,0,0,1,.977.974V103.729A.958.958,0,0,1,103.726,104.7Z" transform="translate(1664.5 2272.866)"/><path class="c" d="M109.787,111.431H1.534A1.017,1.017,0,0,1,.5,110.394V1.537A1.017,1.017,0,0,1,1.534.5H109.787a1.017,1.017,0,0,1,1.034,1.037V110.394A1.017,1.017,0,0,1,109.787,111.431Z" transform="translate(1815.106 2269.502)"/><path class="d" d="M103.726,104.7H1.477a.958.958,0,0,1-.977-.974V1.474A.958.958,0,0,1,1.477.5H103.726a.958.958,0,0,1,.977.974V103.729A.958.958,0,0,1,103.726,104.7Z" transform="translate(1818.5 2273.933)"/><text class="e" transform="translate(1871.596 2351.334)"><tspan x="-16.345" y="0">Enjoy </tspan><tspan x="-30.891" y="15">Accounting</tspan></text><line class="f" x2="42.666" transform="translate(1617.601 2326.001)"/><line class="f" x2="42.666" transform="translate(1772.264 2326.001)"/><line class="g" x2="440.523" transform="translate(1492.804 2382)"/><line class="g" x2="18.133" transform="translate(1943.994 2382)"/><text class="e" transform="translate(1717 2350)"><tspan x="-31.515" y="0">Import data</tspan><tspan x="-21.565" y="15">in giddh</tspan></text><g transform="translate(1696.992 1334.6)"><path class="h" d="M4.582,1067.443l-4.545,20a1.438,1.438,0,0,0,1.333,1.682H39.552a1.429,1.429,0,0,0,1.333-1.682l-4.545-20a1.391,1.391,0,0,0-1.333-1.045H28.643a1.364,1.364,0,1,0,0,2.727h5.273L37.84,1086.4H3.1l3.924-17.273h5.258a1.364,1.364,0,1,0,0-2.727H5.916a1.42,1.42,0,0,0-1.333,1.045Z" transform="translate(0 -96.725)"/><path class="h" d="M84.1,986.945a1.642,1.642,0,0,1-.939-.364l-7.727-7.273a1.578,1.578,0,0,1-.121-1.985,1.408,1.408,0,0,1,1.985.015l5.424,5.121v-28.7a1.364,1.364,0,0,1,2.727,0v28.682l5.424-5.121a1.5,1.5,0,0,1,1.985-.015,1.521,1.521,0,0,1-.121,1.985l-7.727,7.273a1.19,1.19,0,0,1-.909.379Z" transform="translate(-63.643 0)"/></g><g transform="translate(1542 2287)"><path class="i" d="M110.2,79.417v27.748c-.043.266-.085.532-.117.8a1.182,1.182,0,0,1-.82,1.16,4.119,4.119,0,0,1-1.075.17c-1.692.021-3.385.021-5.077.021q-4.694,0-9.4-.011c-.224,0-.3.064-.3.287.011,1.192.011,2.395.011,3.587v.3c-.117.011-.213.011-.309.011H90.736a2.888,2.888,0,0,1-.436-.043c-.99-.17-1.99-.362-2.98-.532-2.64-.458-5.279-.926-7.919-1.384l-9.026-1.565c-.362-.064-.724-.138-1.075-.2V77.235c.128-.021.245-.053.351-.064,2.182-.373,4.353-.756,6.535-1.128,2.054-.351,4.119-.713,6.173-1.075q3.225-.559,6.45-1.128a14.323,14.323,0,0,1,3.363-.341c.351.021.7,0,1.043,0a1.791,1.791,0,0,1,.213.021v3.693h.277c3.629,0,7.259-.011,10.888,0,1.309,0,2.618-.032,3.917.064,1.139.075,1.384.309,1.565,1.373A5.23,5.23,0,0,1,110.2,79.417Zm-1.4-.788H93.461v2.81h3.683v3.214H93.461v1.905h3.683v3.225H93.461v1.895h3.683V94.9h-3.7c0,.553.011,1.086-.011,1.607-.011.234.064.3.3.3,1.043-.011,2.076,0,3.119,0,.1,0,.2.011.3.011v3.2H93.461v1.895h3.683v3.225H93.472v2.81h15.337Q108.793,93.264,108.8,78.63ZM86.2,85.622a.238.238,0,0,1-.053-.032c-.99.053-1.98.106-2.98.17-.074,0-.16.1-.192.17-.511,1.181-1.022,2.363-1.511,3.555-.255.628-.479,1.267-.734,1.937a1.67,1.67,0,0,1-.075-.192c-.617-1.66-1.235-3.31-1.841-4.971a.268.268,0,0,0-.319-.213c-.468.043-.937.053-1.4.075s-.947.064-1.458.1c.064.149.106.245.149.351,1,2.182,2.012,4.364,3.012,6.546a.467.467,0,0,1,0,.458c-1.118,2.182-2.225,4.353-3.342,6.535-.043.085-.075.17-.117.266a.431.431,0,0,0,.128.032c.937.032,1.863.053,2.8.075a.308.308,0,0,0,.213-.17c.49-1.118.969-2.235,1.437-3.363.255-.617.49-1.245.745-1.884.1.287.16.543.266.788.66,1.607,1.309,3.2,1.98,4.8a.414.414,0,0,0,.3.181c.979.074,1.969.128,2.948.181.053,0,.106-.011.192-.011-.053-.106-.1-.2-.138-.277-1.2-2.416-2.395-4.832-3.608-7.248a.522.522,0,0,1,0-.5q1.756-3.528,3.491-7.078C86.128,85.793,86.17,85.708,86.2,85.622Z" transform="translate(-69.3 -73.487)"/><path class="d" d="M311.28,121.711v29.312H295.943v-2.81h3.672v-3.225h-3.683v-1.895h3.683v-3.2a2.791,2.791,0,0,0-.3-.011c-1.043,0-2.075-.011-3.119,0-.234,0-.3-.064-.3-.3.021-.522.011-1.043.011-1.607h3.7v-3.225h-3.683v-1.895h3.683V129.63h-3.683v-1.905h3.683V124.51h-3.683V121.7C301.052,121.711,306.15,121.711,311.28,121.711Zm-9.718,6H308v-3.182h-6.439Zm6.429,5.13v-3.193h-6.439v3.193ZM308,134.77h-6.439v3.193H308ZM301.562,145v3.182H308V145ZM308,143.072V139.9h-6.461v.277c0,.862.011,1.724-.011,2.586,0,.255.085.319.33.319,1.948-.011,3.9,0,5.833-.011A2.985,2.985,0,0,0,308,143.072Z" transform="translate(-271.782 -116.568)"/><path class="d" d="M136.867,187.143c-.043.085-.075.181-.117.266-1.16,2.363-2.32,4.715-3.491,7.078a.472.472,0,0,0,0,.5l3.608,7.248.138.277a.623.623,0,0,1-.192.011c-.979-.053-1.969-.106-2.948-.181a.436.436,0,0,1-.3-.181q-1.006-2.395-1.98-4.8c-.1-.245-.17-.511-.266-.788-.255.649-.49,1.277-.745,1.884-.468,1.128-.947,2.246-1.437,3.363a.308.308,0,0,1-.213.17c-.937-.011-1.863-.043-2.8-.074-.032,0-.064-.021-.128-.032.043-.1.075-.181.117-.266q1.66-3.273,3.342-6.535a.467.467,0,0,0,0-.458q-1.517-3.273-3.012-6.546c-.043-.106-.085-.2-.149-.351.511-.032.979-.064,1.458-.1s.937-.032,1.4-.074a.252.252,0,0,1,.319.213c.607,1.66,1.224,3.31,1.841,4.971.021.053.043.106.075.192.255-.671.468-1.309.734-1.937.49-1.192,1-2.374,1.511-3.555a.329.329,0,0,1,.192-.17c.99-.064,1.98-.117,2.98-.17C136.825,187.1,136.825,187.111,136.867,187.143Z" transform="translate(-119.965 -175.008)"/><path class="i" d="M349.1,151.482V148.3h6.439v3.182Z" transform="translate(-319.319 -140.337)"/><path class="i" d="M355.439,199.593H349V196.4h6.439Z" transform="translate(-319.23 -183.318)"/><path class="i" d="M355.539,244.5v3.193H349.1V244.5Z" transform="translate(-319.319 -226.298)"/><path class="i" d="M349.1,340.6h6.439v3.182H349.1Z" transform="translate(-319.319 -312.17)"/><path class="i" d="M355.361,295.961c-.117,0-.2.011-.3.011-1.948,0-3.9,0-5.833.011-.245,0-.33-.053-.33-.319.021-.862.011-1.724.011-2.586V292.8h6.461C355.361,293.832,355.361,294.876,355.361,295.961Z" transform="translate(-319.141 -269.457)"/></g><g transform="translate(1848.003 2287.922)"><path class="j" d="M23.248,38.59c.323-.1.645-.186.98-.285A31.582,31.582,0,0,0,38.77,29.942a15.807,15.807,0,0,0,4.355-8,14.052,14.052,0,0,0-2.1-10.434,23.62,23.62,0,0,0-12.866-9.69A18.667,18.667,0,0,0,20.283.873,13.644,13.644,0,0,0,11.6,5.426,30.937,30.937,0,0,0,3.559,21.8a19.575,19.575,0,0,0-.087,7.407A13.8,13.8,0,0,0,8,36.729,21.659,21.659,0,0,0,23.41,42.61a13.963,13.963,0,0,0,8.375-2.829,2.65,2.65,0,0,1,1.241-.459,15.439,15.439,0,0,1,1.886-.025c-.261.211-.422.347-.583.471a18.033,18.033,0,0,1-8.623,3.2,29.757,29.757,0,0,1-14.578-1.563A17.3,17.3,0,0,1,2.74,35.2a15.931,15.931,0,0,1-2.7-10.36A28.658,28.658,0,0,1,10.1,4.272,17.51,17.51,0,0,1,20.37.066,26.685,26.685,0,0,1,39.005,5.178a16.321,16.321,0,0,1,6.923,10.5,15.958,15.958,0,0,1-4.206,14.243,28.712,28.712,0,0,1-11.9,7.357c-1.725.6-3.524.993-5.31,1.439a5.279,5.279,0,0,1-1.253.012A.465.465,0,0,1,23.248,38.59Z" transform="translate(0 0)"/><path class="j" d="M88.631,172.707c-.955-.062-2.419-.161-3.883-.261a2.283,2.283,0,0,1-2.035-1.489c-.347-.782-.037-1.191.819-1.129,1.712.1,3.424.273,5.136.261a23.474,23.474,0,0,0,10.744-2.283,14.135,14.135,0,0,0,5.012-4.156c.558-.744,1.191-.794,2.022-.174.856.645,1.03,1.365.484,2.1a16.963,16.963,0,0,1-9.628,6.141A33.117,33.117,0,0,1,88.631,172.707Z" transform="translate(-72.331 -142.863)"/><path class="j" d="M213.314,81.8c.409.025.831.037,1.228.087A2.078,2.078,0,0,1,216.4,83.86c.062.682-.248.98-.943.955a19,19,0,0,0-2.221-.037,4.426,4.426,0,0,0-3.61,2.3c-.372.62-.744.67-1.29.2a2.1,2.1,0,0,1-.385-3.052A6.19,6.19,0,0,1,213.314,81.8Z" transform="translate(-181.728 -71.696)"/><path class="j" d="M85.828,120.107a6.491,6.491,0,0,1-1.03-.434,1,1,0,0,1-.409-1.352c1.141-2.581,2.94-4.392,5.869-4.715a4.382,4.382,0,0,1,1.9.323,1.043,1.043,0,0,1,.583,1.3,1.1,1.1,0,0,1-1.092.868,4.592,4.592,0,0,0-4.194,3.065A1.6,1.6,0,0,1,85.828,120.107Z" transform="translate(-73.82 -99.544)"/></g></g></svg>