<svg xmlns="http://www.w3.org/2000/svg" xmlns:xlink="http://www.w3.org/1999/xlink" viewBox="0 0 364.771 201"><defs><style>.a,.f,.g{fill:none;}.b{fill:#dddde1;opacity:0.33;}.c,.e,.j{fill:#fff;}.c,.e,.f,.j{stroke:#26263a;stroke-miterlimit:10;}.d{fill:#f3f3ff;}.e,.f,.j{stroke-linecap:round;}.e,.f{stroke-width:2px;}.g{stroke:#dddde1;}.h{fill:#28283c;font-family:Roboto-Medium, Roboto;font-weight:500;}.h,.l{font-size:14px;}.i{fill:#5f6b72;opacity:0.15;}.k,.l{fill:#778a96;}.k{font-size:13px;letter-spacing:0.001em;}.k,.l,.o{font-family:Lato-Regular, Lato;}.m{clip-path:url(#a);}.n,.o{fill:#3477cf;}.n{stroke:#3477cf;}.o{font-size:15px;}.p{fill:#e34b26;}.q{stroke:none;}</style><clipPath id="a"><rect class="a" width="82" height="2.523"/></clipPath></defs><g transform="translate(-1466 -2663)"><path class="b" d="M600.142,111.361H560.5c-5.26,0-10.263-1.285-14.112-5.14-4.875-4.883-6.158-11.05-5.773-17.6.513-7.581,4.875-12.207,11.674-14.776a31.71,31.71,0,0,1,6.671-1.67c1.283-.128,1.539-.771,1.668-1.8a28.594,28.594,0,0,1,4.747-12.207,22.514,22.514,0,0,1,16.293-10.279c8.339-1.285,15.908.514,22.066,6.424a19.853,19.853,0,0,1,3.079,3.469,1.916,1.916,0,0,0,2.694.771c8.083-3.212,15.78-2.827,22.965,2.57,5.388,4.112,7.7,9.765,7.7,16.447,0,.9,0,1.542,1.155,1.8,11.418,2.7,14.369,12.721,11.931,21.972-1.8,6.681-6.543,10.022-13.342,10.022Z" transform="translate(925.45 2615.506)"/><path class="c" d="M633.205,243.228H406.9a7.726,7.726,0,0,1-7.7-7.709V91.609a7.726,7.726,0,0,1,7.7-7.709H633.205a7.726,7.726,0,0,1,7.7,7.709V235.518A7.726,7.726,0,0,1,633.205,243.228Z" transform="translate(1135.583 2618.694)"/><path class="d" d="M630.885,85.3H409.452a8.877,8.877,0,0,0-8.852,8.866V233.577a8.877,8.877,0,0,0,8.852,8.866H630.885a8.877,8.877,0,0,0,8.852-8.866V94.166A8.877,8.877,0,0,0,630.885,85.3ZM631.4,226a9.016,9.016,0,0,1-9.109,8.866H417.919A9.016,9.016,0,0,1,408.811,226V101.49a9.016,9.016,0,0,1,9.109-8.866h204.5a9.016,9.016,0,0,1,9.109,8.866V226Z" transform="translate(1135.069 2619.093)"/><line class="e" x2="296" transform="translate(1505.055 2863)"/><line class="f" x2="18.731" transform="translate(1811.04 2863)"/><line class="g" y1="0.898" x2="202.609" transform="translate(1549.552 2736.882)"/><text class="h" transform="translate(1553.922 2729.364)"><tspan x="0" y="0">Support</tspan></text><ellipse class="i" cx="30.47" cy="29.358" rx="30.47" ry="29.358" transform="translate(1738.038 2687.014)"/><ellipse class="j" cx="28.413" cy="28.457" rx="28.413" ry="28.457" transform="translate(1742.055 2684.5)"/><text class="k" transform="translate(1554 2759)"><tspan x="0" y="0">79395 93939 , 80330 37089</tspan><tspan x="0" y="17">support@giddh.com</tspan></text><text class="l" transform="translate(1554 2809)"><tspan x="0" y="0">FAQs?</tspan></text><g transform="translate(350 2666.815)"><g class="m" transform="translate(1204 176.662)"><g transform="translate(-946 -16)"><g class="n" transform="translate(946 16)"><circle class="q" cx="0.25" cy="0.25" r="0.25"/><circle class="a" cx="0.25" cy="0.25" r="0.25"/></g></g><g transform="translate(-945 -16)"><g class="n" transform="translate(946 16)"><circle class="q" cx="0.25" cy="0.25" r="0.25"/><circle class="a" cx="0.25" cy="0.25" r="0.25"/></g></g><g transform="translate(-944 -16)"><g class="n" transform="translate(946 16)"><circle class="q" cx="0.25" cy="0.25" r="0.25"/><circle class="a" cx="0.25" cy="0.25" r="0.25"/></g></g><g transform="translate(-943 -16)"><g class="n" transform="translate(946 16)"><circle class="q" cx="0.25" cy="0.25" r="0.25"/><circle class="a" cx="0.25" cy="0.25" r="0.25"/></g></g><g transform="translate(-942 -16)"><g class="n" transform="translate(946 16)"><circle class="q" cx="0.25" cy="0.25" r="0.25"/><circle class="a" cx="0.25" cy="0.25" r="0.25"/></g></g><g transform="translate(-941 -16)"><g class="n" transform="translate(946 16)"><circle class="q" cx="0.25" cy="0.25" r="0.25"/><circle class="a" cx="0.25" cy="0.25" r="0.25"/></g></g><g transform="translate(-940 -16)"><g class="n" transform="translate(946 16)"><circle class="q" cx="0.25" cy="0.25" r="0.25"/><circle class="a" cx="0.25" cy="0.25" r="0.25"/></g></g><g transform="translate(-939 -16)"><g class="n" transform="translate(946 16)"><circle class="q" cx="0.25" cy="0.25" r="0.25"/><circle class="a" cx="0.25" cy="0.25" r="0.25"/></g></g><g transform="translate(-938 -16)"><g class="n" transform="translate(946 16)"><circle class="q" cx="0.25" cy="0.25" r="0.25"/><circle class="a" cx="0.25" cy="0.25" r="0.25"/></g></g><g transform="translate(-937 -16)"><g class="n" transform="translate(946 16)"><circle class="q" cx="0.25" cy="0.25" r="0.25"/><circle class="a" cx="0.25" cy="0.25" r="0.25"/></g></g><g transform="translate(-936 -16)"><g class="n" transform="translate(946 16)"><circle class="q" cx="0.25" cy="0.25" r="0.25"/><circle class="a" cx="0.25" cy="0.25" r="0.25"/></g></g><g transform="translate(-935 -16)"><g class="n" transform="translate(946 16)"><circle class="q" cx="0.25" cy="0.25" r="0.25"/><circle class="a" cx="0.25" cy="0.25" r="0.25"/></g></g><g transform="translate(-934 -16)"><g class="n" transform="translate(946 16)"><circle class="q" cx="0.25" cy="0.25" r="0.25"/><circle class="a" cx="0.25" cy="0.25" r="0.25"/></g></g><g transform="translate(-933 -16)"><g class="n" transform="translate(946 16)"><circle class="q" cx="0.25" cy="0.25" r="0.25"/><circle class="a" cx="0.25" cy="0.25" r="0.25"/></g></g><g transform="translate(-932 -16)"><g class="n" transform="translate(946 16)"><circle class="q" cx="0.25" cy="0.25" r="0.25"/><circle class="a" cx="0.25" cy="0.25" r="0.25"/></g></g><g transform="translate(-931 -16)"><g class="n" transform="translate(946 16)"><circle class="q" cx="0.25" cy="0.25" r="0.25"/><circle class="a" cx="0.25" cy="0.25" r="0.25"/></g></g><g transform="translate(-930 -16)"><g class="n" transform="translate(946 16)"><circle class="q" cx="0.25" cy="0.25" r="0.25"/><circle class="a" cx="0.25" cy="0.25" r="0.25"/></g></g><g transform="translate(-929 -16)"><g class="n" transform="translate(946 16)"><circle class="q" cx="0.25" cy="0.25" r="0.25"/><circle class="a" cx="0.25" cy="0.25" r="0.25"/></g></g><g transform="translate(-928 -16)"><g class="n" transform="translate(946 16)"><circle class="q" cx="0.25" cy="0.25" r="0.25"/><circle class="a" cx="0.25" cy="0.25" r="0.25"/></g></g><g transform="translate(-927 -16)"><g class="n" transform="translate(946 16)"><circle class="q" cx="0.25" cy="0.25" r="0.25"/><circle class="a" cx="0.25" cy="0.25" r="0.25"/></g></g><g transform="translate(-926 -16)"><g class="n" transform="translate(946 16)"><circle class="q" cx="0.25" cy="0.25" r="0.25"/><circle class="a" cx="0.25" cy="0.25" r="0.25"/></g></g><g transform="translate(-925 -16)"><g class="n" transform="translate(946 16)"><circle class="q" cx="0.25" cy="0.25" r="0.25"/><circle class="a" cx="0.25" cy="0.25" r="0.25"/></g></g><g transform="translate(-924 -16)"><g class="n" transform="translate(946 16)"><circle class="q" cx="0.25" cy="0.25" r="0.25"/><circle class="a" cx="0.25" cy="0.25" r="0.25"/></g></g><g transform="translate(-923 -16)"><g class="n" transform="translate(946 16)"><circle class="q" cx="0.25" cy="0.25" r="0.25"/><circle class="a" cx="0.25" cy="0.25" r="0.25"/></g></g><g transform="translate(-922 -16)"><g class="n" transform="translate(946 16)"><circle class="q" cx="0.25" cy="0.25" r="0.25"/><circle class="a" cx="0.25" cy="0.25" r="0.25"/></g></g><g transform="translate(-921 -16)"><g class="n" transform="translate(946 16)"><circle class="q" cx="0.25" cy="0.25" r="0.25"/><circle class="a" cx="0.25" cy="0.25" r="0.25"/></g></g><g transform="translate(-920 -16)"><g class="n" transform="translate(946 16)"><circle class="q" cx="0.25" cy="0.25" r="0.25"/><circle class="a" cx="0.25" cy="0.25" r="0.25"/></g></g><g transform="translate(-919 -16)"><g class="n" transform="translate(946 16)"><circle class="q" cx="0.25" cy="0.25" r="0.25"/><circle class="a" cx="0.25" cy="0.25" r="0.25"/></g></g><g transform="translate(-918 -16)"><g class="n" transform="translate(946 16)"><circle class="q" cx="0.25" cy="0.25" r="0.25"/><circle class="a" cx="0.25" cy="0.25" r="0.25"/></g></g><g transform="translate(-917 -16)"><g class="n" transform="translate(946 16)"><circle class="q" cx="0.25" cy="0.25" r="0.25"/><circle class="a" cx="0.25" cy="0.25" r="0.25"/></g></g><g transform="translate(-916 -16)"><g class="n" transform="translate(946 16)"><circle class="q" cx="0.25" cy="0.25" r="0.25"/><circle class="a" cx="0.25" cy="0.25" r="0.25"/></g></g><g transform="translate(-915 -16)"><g class="n" transform="translate(946 16)"><circle class="q" cx="0.25" cy="0.25" r="0.25"/><circle class="a" cx="0.25" cy="0.25" r="0.25"/></g></g><g transform="translate(-914 -16)"><g class="n" transform="translate(946 16)"><circle class="q" cx="0.25" cy="0.25" r="0.25"/><circle class="a" cx="0.25" cy="0.25" r="0.25"/></g></g><g transform="translate(-913 -16)"><g class="n" transform="translate(946 16)"><circle class="q" cx="0.25" cy="0.25" r="0.25"/><circle class="a" cx="0.25" cy="0.25" r="0.25"/></g></g><g transform="translate(-912 -16)"><g class="n" transform="translate(946 16)"><circle class="q" cx="0.25" cy="0.25" r="0.25"/><circle class="a" cx="0.25" cy="0.25" r="0.25"/></g></g><g transform="translate(-911 -16)"><g class="n" transform="translate(946 16)"><circle class="q" cx="0.25" cy="0.25" r="0.25"/><circle class="a" cx="0.25" cy="0.25" r="0.25"/></g></g><g transform="translate(-910 -16)"><g class="n" transform="translate(946 16)"><circle class="q" cx="0.25" cy="0.25" r="0.25"/><circle class="a" cx="0.25" cy="0.25" r="0.25"/></g></g><g transform="translate(-909 -16)"><g class="n" transform="translate(946 16)"><circle class="q" cx="0.25" cy="0.25" r="0.25"/><circle class="a" cx="0.25" cy="0.25" r="0.25"/></g></g><g transform="translate(-908 -16)"><g class="n" transform="translate(946 16)"><circle class="q" cx="0.25" cy="0.25" r="0.25"/><circle class="a" cx="0.25" cy="0.25" r="0.25"/></g></g><g transform="translate(-907 -16)"><g class="n" transform="translate(946 16)"><circle class="q" cx="0.25" cy="0.25" r="0.25"/><circle class="a" cx="0.25" cy="0.25" r="0.25"/></g></g><g transform="translate(-906 -16)"><g class="n" transform="translate(946 16)"><circle class="q" cx="0.25" cy="0.25" r="0.25"/><circle class="a" cx="0.25" cy="0.25" r="0.25"/></g></g><g transform="translate(-905 -16)"><g class="n" transform="translate(946 16)"><circle class="q" cx="0.25" cy="0.25" r="0.25"/><circle class="a" cx="0.25" cy="0.25" r="0.25"/></g></g><g transform="translate(-904 -16)"><g class="n" transform="translate(946 16)"><circle class="q" cx="0.25" cy="0.25" r="0.25"/><circle class="a" cx="0.25" cy="0.25" r="0.25"/></g></g><g transform="translate(-903 -16)"><g class="n" transform="translate(946 16)"><circle class="q" cx="0.25" cy="0.25" r="0.25"/><circle class="a" cx="0.25" cy="0.25" r="0.25"/></g></g><g transform="translate(-902 -16)"><g class="n" transform="translate(946 16)"><circle class="q" cx="0.25" cy="0.25" r="0.25"/><circle class="a" cx="0.25" cy="0.25" r="0.25"/></g></g><g transform="translate(-901 -16)"><g class="n" transform="translate(946 16)"><circle class="q" cx="0.25" cy="0.25" r="0.25"/><circle class="a" cx="0.25" cy="0.25" r="0.25"/></g></g><g transform="translate(-900 -16)"><g class="n" transform="translate(946 16)"><circle class="q" cx="0.25" cy="0.25" r="0.25"/><circle class="a" cx="0.25" cy="0.25" r="0.25"/></g></g><g transform="translate(-899 -16)"><g class="n" transform="translate(946 16)"><circle class="q" cx="0.25" cy="0.25" r="0.25"/><circle class="a" cx="0.25" cy="0.25" r="0.25"/></g></g><g transform="translate(-898 -16)"><g class="n" transform="translate(946 16)"><circle class="q" cx="0.25" cy="0.25" r="0.25"/><circle class="a" cx="0.25" cy="0.25" r="0.25"/></g></g><g transform="translate(-897 -16)"><g class="n" transform="translate(946 16)"><circle class="q" cx="0.25" cy="0.25" r="0.25"/><circle class="a" cx="0.25" cy="0.25" r="0.25"/></g></g><g transform="translate(-896 -16)"><g class="n" transform="translate(946 16)"><circle class="q" cx="0.25" cy="0.25" r="0.25"/><circle class="a" cx="0.25" cy="0.25" r="0.25"/></g></g><g transform="translate(-895 -16)"><g class="n" transform="translate(946 16)"><circle class="q" cx="0.25" cy="0.25" r="0.25"/><circle class="a" cx="0.25" cy="0.25" r="0.25"/></g></g><g transform="translate(-894 -16)"><g class="n" transform="translate(946 16)"><circle class="q" cx="0.25" cy="0.25" r="0.25"/><circle class="a" cx="0.25" cy="0.25" r="0.25"/></g></g><g transform="translate(-893 -16)"><g class="n" transform="translate(946 16)"><circle class="q" cx="0.25" cy="0.25" r="0.25"/><circle class="a" cx="0.25" cy="0.25" r="0.25"/></g></g><g transform="translate(-892 -16)"><g class="n" transform="translate(946 16)"><circle class="q" cx="0.25" cy="0.25" r="0.25"/><circle class="a" cx="0.25" cy="0.25" r="0.25"/></g></g><g transform="translate(-891 -16)"><g class="n" transform="translate(946 16)"><circle class="q" cx="0.25" cy="0.25" r="0.25"/><circle class="a" cx="0.25" cy="0.25" r="0.25"/></g></g><g transform="translate(-890 -16)"><g class="n" transform="translate(946 16)"><circle class="q" cx="0.25" cy="0.25" r="0.25"/><circle class="a" cx="0.25" cy="0.25" r="0.25"/></g></g><g transform="translate(-889 -16)"><g class="n" transform="translate(946 16)"><circle class="q" cx="0.25" cy="0.25" r="0.25"/><circle class="a" cx="0.25" cy="0.25" r="0.25"/></g></g><g transform="translate(-888 -16)"><g class="n" transform="translate(946 16)"><circle class="q" cx="0.25" cy="0.25" r="0.25"/><circle class="a" cx="0.25" cy="0.25" r="0.25"/></g></g><g transform="translate(-887 -16)"><g class="n" transform="translate(946 16)"><circle class="q" cx="0.25" cy="0.25" r="0.25"/><circle class="a" cx="0.25" cy="0.25" r="0.25"/></g></g><g transform="translate(-886 -16)"><g class="n" transform="translate(946 16)"><circle class="q" cx="0.25" cy="0.25" r="0.25"/><circle class="a" cx="0.25" cy="0.25" r="0.25"/></g></g><g transform="translate(-885 -16)"><g class="n" transform="translate(946 16)"><circle class="q" cx="0.25" cy="0.25" r="0.25"/><circle class="a" cx="0.25" cy="0.25" r="0.25"/></g></g><g transform="translate(-884 -16)"><g class="n" transform="translate(946 16)"><circle class="q" cx="0.25" cy="0.25" r="0.25"/><circle class="a" cx="0.25" cy="0.25" r="0.25"/></g></g><g transform="translate(-883 -16)"><g class="n" transform="translate(946 16)"><circle class="q" cx="0.25" cy="0.25" r="0.25"/><circle class="a" cx="0.25" cy="0.25" r="0.25"/></g></g><g transform="translate(-882 -16)"><g class="n" transform="translate(946 16)"><circle class="q" cx="0.25" cy="0.25" r="0.25"/><circle class="a" cx="0.25" cy="0.25" r="0.25"/></g></g><g transform="translate(-881 -16)"><g class="n" transform="translate(946 16)"><circle class="q" cx="0.25" cy="0.25" r="0.25"/><circle class="a" cx="0.25" cy="0.25" r="0.25"/></g></g><g transform="translate(-880 -16)"><g class="n" transform="translate(946 16)"><circle class="q" cx="0.25" cy="0.25" r="0.25"/><circle class="a" cx="0.25" cy="0.25" r="0.25"/></g></g><g transform="translate(-879 -16)"><g class="n" transform="translate(946 16)"><circle class="q" cx="0.25" cy="0.25" r="0.25"/><circle class="a" cx="0.25" cy="0.25" r="0.25"/></g></g><g transform="translate(-878 -16)"><g class="n" transform="translate(946 16)"><circle class="q" cx="0.25" cy="0.25" r="0.25"/><circle class="a" cx="0.25" cy="0.25" r="0.25"/></g></g><g transform="translate(-877 -16)"><g class="n" transform="translate(946 16)"><circle class="q" cx="0.25" cy="0.25" r="0.25"/><circle class="a" cx="0.25" cy="0.25" r="0.25"/></g></g><g transform="translate(-876 -16)"><g class="n" transform="translate(946 16)"><circle class="q" cx="0.25" cy="0.25" r="0.25"/><circle class="a" cx="0.25" cy="0.25" r="0.25"/></g></g><g transform="translate(-875 -16)"><g class="n" transform="translate(946 16)"><circle class="q" cx="0.25" cy="0.25" r="0.25"/><circle class="a" cx="0.25" cy="0.25" r="0.25"/></g></g><g transform="translate(-874 -16)"><g class="n" transform="translate(946 16)"><circle class="q" cx="0.25" cy="0.25" r="0.25"/><circle class="a" cx="0.25" cy="0.25" r="0.25"/></g></g><g transform="translate(-873 -16)"><g class="n" transform="translate(946 16)"><circle class="q" cx="0.25" cy="0.25" r="0.25"/><circle class="a" cx="0.25" cy="0.25" r="0.25"/></g></g><g transform="translate(-872 -16)"><g class="n" transform="translate(946 16)"><circle class="q" cx="0.25" cy="0.25" r="0.25"/><circle class="a" cx="0.25" cy="0.25" r="0.25"/></g></g><g transform="translate(-871 -16)"><g class="n" transform="translate(946 16)"><circle class="q" cx="0.25" cy="0.25" r="0.25"/><circle class="a" cx="0.25" cy="0.25" r="0.25"/></g></g><g transform="translate(-870 -16)"><g class="n" transform="translate(946 16)"><circle class="q" cx="0.25" cy="0.25" r="0.25"/><circle class="a" cx="0.25" cy="0.25" r="0.25"/></g></g><g transform="translate(-869 -16)"><g class="n" transform="translate(946 16)"><circle class="q" cx="0.25" cy="0.25" r="0.25"/><circle class="a" cx="0.25" cy="0.25" r="0.25"/></g></g><g transform="translate(-868 -16)"><g class="n" transform="translate(946 16)"><circle class="q" cx="0.25" cy="0.25" r="0.25"/><circle class="a" cx="0.25" cy="0.25" r="0.25"/></g></g><g transform="translate(-867 -16)"><g class="n" transform="translate(946 16)"><circle class="q" cx="0.25" cy="0.25" r="0.25"/><circle class="a" cx="0.25" cy="0.25" r="0.25"/></g></g><g transform="translate(-866 -16)"><g class="n" transform="translate(946 16)"><circle class="q" cx="0.25" cy="0.25" r="0.25"/><circle class="a" cx="0.25" cy="0.25" r="0.25"/></g></g><g transform="translate(-865 -16)"><g class="n" transform="translate(946 16)"><circle class="q" cx="0.25" cy="0.25" r="0.25"/><circle class="a" cx="0.25" cy="0.25" r="0.25"/></g></g></g><text class="o" transform="translate(1204 174)"><tspan x="0" y="0">Talk to Sales</tspan></text></g><g transform="translate(588.7 2649)"><g transform="translate(1164 45)"><path class="p" d="M17.767,952.4A12.114,12.114,0,0,0,5.653,964.514v4.039h-.4A5.255,5.255,0,0,0,0,973.8v3.231a5.256,5.256,0,0,0,5.249,5.248H9.287a1.26,1.26,0,0,0,1.211-1.211V969.762a1.26,1.26,0,0,0-1.211-1.209H8.076v-4.039a9.691,9.691,0,1,1,19.382,0v4.039H26.247a1.282,1.282,0,0,0-1.211,1.209v11.307a1.26,1.26,0,0,0,1.211,1.211h1.009a4.127,4.127,0,0,1-1.507,2.02,9.046,9.046,0,0,1-5.007,1.588,3.225,3.225,0,1,0,.027,2.423,11.4,11.4,0,0,0,6.461-2.086,6.657,6.657,0,0,0,2.53-3.945h.525a5.256,5.256,0,0,0,5.249-5.248V973.8a5.255,5.255,0,0,0-5.249-5.248h-.4v-4.039A12.114,12.114,0,0,0,17.767,952.4Z" transform="translate(0 -952.4)"/></g></g></g></svg>