<svg xmlns="http://www.w3.org/2000/svg" viewBox="0 0 364.771 201"><defs><style>.a{fill:#dddde1;opacity:0.33;}.b,.d,.j,.k,.o{fill:#fff;}.b,.d,.e,.j{stroke:#26263a;stroke-miterlimit:10;}.c{fill:#f3f3ff;}.d,.e,.j{stroke-linecap:round;}.d,.e{stroke-width:2px;}.e,.f,.m,.r{fill:none;}.f{stroke:#dddde1;}.g,.h{fill:#28283c;font-family:Roboto-Medium, Roboto;font-weight:500;}.g{font-size:14px;}.h{font-size:11px;}.i{fill:#5f6b72;opacity:0.15;}.k,.m{stroke:#ccc;stroke-width:0.75px;}.l{fill:#2bab1d;}.n{fill:#666;}.n,.o{font-size:10px;font-family:Roboto-Regular, Roboto;}.p{fill:#e34b26;}.q{stroke:none;}</style></defs><g transform="translate(-2969 -1598)"><path class="a" d="M600.142,111.361H560.5c-5.26,0-10.263-1.285-14.112-5.14-4.875-4.883-6.158-11.05-5.773-17.6.513-7.581,4.875-12.207,11.674-14.776a31.71,31.71,0,0,1,6.671-1.67c1.283-.128,1.539-.771,1.668-1.8a28.594,28.594,0,0,1,4.747-12.207,22.514,22.514,0,0,1,16.293-10.279c8.339-1.285,15.908.514,22.066,6.424a19.853,19.853,0,0,1,3.079,3.469,1.916,1.916,0,0,0,2.694.771c8.083-3.212,15.78-2.827,22.965,2.57,5.388,4.112,7.7,9.765,7.7,16.447,0,.9,0,1.542,1.155,1.8,11.418,2.7,14.369,12.721,11.931,21.972-1.8,6.681-6.543,10.022-13.342,10.022Z" transform="translate(2428.45 1550.506)"/><path class="b" d="M633.205,243.228H406.9a7.726,7.726,0,0,1-7.7-7.709V91.609a7.726,7.726,0,0,1,7.7-7.709H633.205a7.726,7.726,0,0,1,7.7,7.709V235.518A7.726,7.726,0,0,1,633.205,243.228Z" transform="translate(2638.583 1553.694)"/><path class="c" d="M630.885,85.3H409.452a8.877,8.877,0,0,0-8.852,8.866V233.577a8.877,8.877,0,0,0,8.852,8.866H630.885a8.877,8.877,0,0,0,8.852-8.866V94.166A8.877,8.877,0,0,0,630.885,85.3ZM631.4,226a9.016,9.016,0,0,1-9.109,8.866H417.919A9.016,9.016,0,0,1,408.811,226V101.49a9.016,9.016,0,0,1,9.109-8.866h204.5a9.016,9.016,0,0,1,9.109,8.866V226Z" transform="translate(2638.069 1554.093)"/><line class="d" x2="296" transform="translate(3008.055 1798)"/><line class="e" x2="18.731" transform="translate(3314.04 1798)"/><line class="f" y1="0.898" x2="202.609" transform="translate(3052.552 1671.882)"/><text class="g" transform="translate(3053.013 1665.458)"><tspan x="0" y="0">Import Excel</tspan></text><text class="h" transform="translate(3053.013 1698.458)"><tspan x="0" y="0">Account Import</tspan></text><ellipse class="i" cx="30.47" cy="29.358" rx="30.47" ry="29.358" transform="translate(3229.038 1626.014)"/><ellipse class="j" cx="28.413" cy="28.457" rx="28.413" ry="28.457" transform="translate(3233.055 1623.5)"/><g class="k" transform="translate(3053 1705)"><rect class="q" width="208" height="26" rx="2"/><rect class="r" x="0.375" y="0.375" width="207.25" height="25.25" rx="1.625"/></g><rect class="l" width="55" height="21" rx="2" transform="translate(3053 1745)"/><g class="m" transform="translate(3118 1745)"><rect class="q" width="49" height="21" rx="2"/><rect class="r" x="0.375" y="0.375" width="48.25" height="20.25" rx="1.625"/></g><text class="n" transform="translate(3061 1721.954)"><tspan x="0" y="0">Attach File</tspan></text><text class="o" transform="translate(3066 1758.954)"><tspan x="0" y="0">Import</tspan></text><text class="n" transform="translate(3128 1758.954)"><tspan x="0" y="0">Cancel</tspan></text><g transform="translate(3247.067 682.967)"><path class="p" d="M3.5,1067.2.03,1082.467a1.1,1.1,0,0,0,1.018,1.284H30.2a1.091,1.091,0,0,0,1.018-1.284L27.749,1067.2a1.062,1.062,0,0,0-1.018-.8H21.872a1.041,1.041,0,1,0,0,2.083H25.9l3,13.188H2.367l3-13.188H9.378a1.041,1.041,0,1,0,0-2.083H4.519a1.084,1.084,0,0,0-1.018.8Z" transform="translate(0 -100.809)"/><path class="p" d="M81.955,978.777a1.254,1.254,0,0,1-.717-.278l-5.9-5.553a1.2,1.2,0,0,1-.093-1.516,1.075,1.075,0,0,1,1.516.012l4.142,3.91V953.441a1.041,1.041,0,0,1,2.082,0v21.9l4.142-3.91a1.146,1.146,0,0,1,1.516-.012,1.161,1.161,0,0,1-.093,1.516l-5.9,5.553a.909.909,0,0,1-.694.289Z" transform="translate(-66.331)"/></g></g></svg>